<svg width="858" height="199" viewBox="0 0 858 199" fill="none" xmlns="http://www.w3.org/2000/svg">
<path d="M51.1 53.2C51.1 57.4 50.0667 61.0667 48 64.2C45.9333 67.3333 42.9333 69.7667 39 71.5C35.1333 73.1667 30.4 74 24.8 74C22.3333 74 19.9 73.8333 17.5 73.5C15.1667 73.1667 12.9 72.7 10.7 72.1C8.56667 71.4333 6.53333 70.6333 4.6 69.7V55.6C8 57.0667 11.5 58.4333 15.1 59.7C18.7667 60.9 22.4 61.5 26 61.5C28.4667 61.5 30.4333 61.1667 31.9 60.5C33.4333 59.8333 34.5333 58.9333 35.2 57.8C35.9333 56.6667 36.3 55.3667 36.3 53.9C36.3 52.1 35.6667 50.5667 34.4 49.3C33.2 48.0333 31.5667 46.8667 29.5 45.8C27.4333 44.6667 25.0667 43.4667 22.4 42.2C20.7333 41.4 18.9333 40.4667 17 39.4C15.0667 38.2667 13.2 36.9 11.4 35.3C9.66667 33.6333 8.23333 31.6333 7.1 29.3C5.96667 26.9667 5.4 24.1667 5.4 20.9C5.4 16.6333 6.36667 13 8.3 9.99999C10.3 6.93333 13.1 4.59999 16.7 3C20.3667 1.4 24.6667 0.599996 29.6 0.599996C33.3333 0.599996 36.8667 1.03333 40.2 1.9C43.6 2.76666 47.1333 4 50.8 5.6L45.9 17.4C42.6333 16.0667 39.7 15.0333 37.1 14.3C34.5 13.5667 31.8333 13.2 29.1 13.2C27.2333 13.2 25.6333 13.5 24.3 14.1C22.9667 14.7 21.9333 15.5333 21.2 16.6C20.5333 17.6667 20.2 18.9333 20.2 20.4C20.2 22.0667 20.7 23.5 21.7 24.7C22.7 25.8333 24.2 26.9333 26.2 28C28.2 29.0667 30.7 30.3333 33.7 31.8C37.3667 33.5333 40.4667 35.3333 43 37.2C45.6 39.0667 47.6 41.2667 49 43.8C50.4 46.3333 51.1 49.4667 51.1 53.2ZM57.8781 73V65L65.2781 62.1V25.7L57.8781 22.6V14.8H86.8781V22.6L79.5781 25.7V62.1L86.8781 65V73H57.8781ZM151.746 14.8V73H133.446L109.146 30.3H108.746C108.813 31.0333 108.879 32 108.946 33.2C109.013 34.4 109.079 35.7333 109.146 37.2C109.213 38.6667 109.279 40.1667 109.346 41.7C109.413 43.2333 109.479 44.7 109.546 46.1V73H96.7461V14.8H115.146L139.446 57H139.646C139.646 56.2667 139.613 55.3333 139.546 54.2C139.479 53 139.413 51.7 139.346 50.3C139.279 48.9 139.213 47.4667 139.146 46C139.079 44.5333 139.046 43.1333 139.046 41.8V14.8H151.746ZM206.284 14.8V26.2H190.584V73H176.384V26.2H160.784V14.8H206.284ZM205.566 73L226.066 14.5H244.266L264.966 73H249.566L245.666 60.5H224.966L221.066 73H205.566ZM238.966 37.2C238.633 36.2 238.233 34.9 237.766 33.3C237.3 31.6333 236.833 29.9333 236.366 28.2C235.9 26.4667 235.5 25 235.166 23.8C234.966 25 234.633 26.4667 234.166 28.2C233.7 29.9333 233.233 31.6333 232.766 33.3C232.3 34.9667 231.933 36.2667 231.666 37.2L228.066 48.9H242.466L238.966 37.2ZM267.941 52.3V40.1H294.141V52.3H267.941ZM341.368 56.2C341.368 59.5333 340.501 62.5333 338.768 65.2C337.101 67.8667 334.568 69.9667 331.168 71.5C327.835 73.0333 323.635 73.8 318.568 73.8C316.235 73.8 314.035 73.6667 311.968 73.4C309.968 73.1333 308.068 72.7333 306.268 72.2C304.468 71.6667 302.701 71 300.968 70.2V57.6C303.968 59 307.035 60.1667 310.168 61.1C313.368 62.0333 316.401 62.5 319.268 62.5C322.135 62.5 324.168 61.9667 325.368 60.9C326.635 59.8333 327.268 58.5667 327.268 57.1C327.268 55.8333 326.801 54.7667 325.868 53.9C325.001 52.9667 323.735 52.0667 322.068 51.2C320.401 50.3333 318.368 49.3667 315.968 48.3C313.568 47.2333 311.268 46.0333 309.068 44.7C306.868 43.3 305.068 41.5 303.668 39.3C302.268 37.0333 301.568 34.2 301.568 30.8C301.568 27.1333 302.435 24.0667 304.168 21.6C305.968 19.0667 308.468 17.1667 311.668 15.9C314.868 14.5667 318.601 13.9 322.868 13.9C326.335 13.9 329.535 14.3 332.468 15.1C335.468 15.9 338.401 16.8667 341.268 18L336.768 28.7C334.101 27.6333 331.601 26.8 329.268 26.2C326.935 25.5333 324.635 25.2 322.368 25.2C320.101 25.2 318.401 25.6667 317.268 26.6C316.135 27.4667 315.568 28.6667 315.568 30.2C315.568 31.3333 315.935 32.3333 316.668 33.2C317.468 34.0667 318.735 34.9333 320.468 35.8C322.201 36.6667 324.435 37.7 327.168 38.9C330.168 40.2333 332.735 41.6667 334.868 43.2C337.001 44.7333 338.601 46.5333 339.668 48.6C340.801 50.6 341.368 53.1333 341.368 56.2ZM351.434 14.8H386.534V26H365.834V37.2H385.134V48.4H365.834V61.7H386.534V73H351.434V14.8ZM424.09 14.8H459.19V26H438.49V37.2H457.79V48.4H438.49V61.7H459.19V73H424.09V14.8ZM536.87 14.8V73H523.67V46.3C523.67 44.5 523.703 42.4333 523.77 40.1C523.836 37.7667 523.903 35.6 523.97 33.6C524.103 31.5333 524.203 30 524.27 29H523.97L509.97 73H496.57L483.07 28.9H482.67C482.803 29.9 482.936 31.4333 483.07 33.5C483.203 35.5667 483.303 37.8 483.37 40.2C483.503 42.5333 483.57 44.7 483.57 46.7V73H470.77V14.8H490.07L503.57 57.9H503.87L517.77 14.8H536.87ZM603.22 25.4C600.286 25.4 597.786 26.1667 595.72 27.7C593.653 29.1667 592.086 31.3 591.02 34.1C589.953 36.8333 589.42 40.1333 589.42 44C589.42 49.9333 590.553 54.5 592.82 57.7C595.153 60.8333 598.753 62.4 603.62 62.4C606.153 62.4 608.653 62.1 611.12 61.5C613.586 60.8333 616.153 60 618.82 59V70.8C616.153 71.8667 613.486 72.6333 610.82 73.1C608.153 73.5667 605.253 73.8 602.12 73.8C595.786 73.8 590.586 72.5667 586.52 70.1C582.52 67.5667 579.553 64.0667 577.62 59.6C575.686 55.0667 574.72 49.8333 574.72 43.9C574.72 38.0333 575.82 32.8667 578.02 28.4C580.22 23.8667 583.453 20.3333 587.72 17.8C591.986 15.2 597.186 13.9 603.32 13.9C606.253 13.9 609.253 14.2667 612.32 15C615.386 15.6667 618.353 16.6667 621.22 18L616.82 29.1C614.553 28.1 612.286 27.2333 610.02 26.5C607.82 25.7667 605.553 25.4 603.22 25.4ZM624.121 73L644.621 14.5H662.821L683.521 73H668.121L664.221 60.5H643.521L639.621 73H624.121ZM657.521 37.2C657.188 36.2 656.788 34.9 656.321 33.3C655.854 31.6333 655.388 29.9333 654.921 28.2C654.454 26.4667 654.054 25 653.721 23.8C653.521 25 653.188 26.4667 652.721 28.2C652.254 29.9333 651.788 31.6333 651.321 33.3C650.854 34.9667 650.488 36.2667 650.221 37.2L646.621 48.9H661.021L657.521 37.2ZM727.696 56.2C727.696 59.5333 726.829 62.5333 725.096 65.2C723.429 67.8667 720.896 69.9667 717.496 71.5C714.163 73.0333 709.963 73.8 704.896 73.8C702.563 73.8 700.363 73.6667 698.296 73.4C696.296 73.1333 694.396 72.7333 692.596 72.2C690.796 71.6667 689.029 71 687.296 70.2V57.6C690.296 59 693.363 60.1667 696.496 61.1C699.696 62.0333 702.729 62.5 705.596 62.5C708.463 62.5 710.496 61.9667 711.696 60.9C712.963 59.8333 713.596 58.5667 713.596 57.1C713.596 55.8333 713.129 54.7667 712.196 53.9C711.329 52.9667 710.063 52.0667 708.396 51.2C706.729 50.3333 704.696 49.3667 702.296 48.3C699.896 47.2333 697.596 46.0333 695.396 44.7C693.196 43.3 691.396 41.5 689.996 39.3C688.596 37.0333 687.896 34.2 687.896 30.8C687.896 27.1333 688.763 24.0667 690.496 21.6C692.296 19.0667 694.796 17.1667 697.996 15.9C701.196 14.5667 704.929 13.9 709.196 13.9C712.663 13.9 715.863 14.3 718.796 15.1C721.796 15.9 724.729 16.8667 727.596 18L723.096 28.7C720.429 27.6333 717.929 26.8 715.596 26.2C713.263 25.5333 710.963 25.2 708.696 25.2C706.429 25.2 704.729 25.6667 703.596 26.6C702.463 27.4667 701.896 28.6667 701.896 30.2C701.896 31.3333 702.263 32.3333 702.996 33.2C703.796 34.0667 705.063 34.9333 706.796 35.8C708.529 36.6667 710.763 37.7 713.496 38.9C716.496 40.2333 719.063 41.6667 721.196 43.2C723.329 44.7333 724.929 46.5333 725.996 48.6C727.129 50.6 727.696 53.1333 727.696 56.2ZM730.762 73L751.262 14.5H769.462L790.162 73H774.762L770.862 60.5H750.162L746.262 73H730.762ZM764.162 37.2C763.828 36.2 763.428 34.9 762.962 33.3C762.495 31.6333 762.028 29.9333 761.562 28.2C761.095 26.4667 760.695 25 760.362 23.8C760.162 25 759.828 26.4667 759.362 28.2C758.895 29.9333 758.428 31.6333 757.962 33.3C757.495 34.9667 757.128 36.2667 756.862 37.2L753.262 48.9H767.662L764.162 37.2ZM26.56 134.92C24.2133 134.92 22.2133 135.533 20.56 136.76C18.9067 137.933 17.6533 139.64 16.8 141.88C15.9467 144.067 15.52 146.707 15.52 149.8C15.52 154.547 16.4267 158.2 18.24 160.76C20.1067 163.267 22.9867 164.52 26.88 164.52C28.9067 164.52 30.9067 164.28 32.88 163.8C34.8533 163.267 36.9067 162.6 39.04 161.8V171.24C36.9067 172.093 34.7733 172.707 32.64 173.08C30.5067 173.453 28.1867 173.64 25.68 173.64C20.6133 173.64 16.4533 172.653 13.2 170.68C10 168.653 7.62667 165.853 6.08 162.28C4.53333 158.653 3.76 154.467 3.76 149.72C3.76 145.027 4.64 140.893 6.4 137.32C8.16 133.693 10.7467 130.867 14.16 128.84C17.5733 126.76 21.7333 125.72 26.64 125.72C28.9867 125.72 31.3867 126.013 33.84 126.6C36.2933 127.133 38.6667 127.933 40.96 129L37.44 137.88C35.6267 137.08 33.8133 136.387 32 135.8C30.24 135.213 28.4267 134.92 26.56 134.92ZM92.34 149.64C92.34 154.44 91.54 158.653 89.94 162.28C88.34 165.853 85.8333 168.653 82.42 170.68C79.06 172.653 74.6867 173.64 69.3 173.64C64.02 173.64 59.6733 172.653 56.26 170.68C52.8467 168.653 50.3133 165.827 48.66 162.2C47.06 158.573 46.26 154.36 46.26 149.56C46.26 144.76 47.0867 140.573 48.74 137C50.3933 133.373 52.9267 130.573 56.34 128.6C59.7533 126.627 64.1 125.64 69.38 125.64C74.7133 125.64 79.06 126.653 82.42 128.68C85.8333 130.653 88.34 133.427 89.94 137C91.54 140.573 92.34 144.787 92.34 149.64ZM58.18 149.64C58.18 152.68 58.5533 155.32 59.3 157.56C60.1 159.747 61.3 161.427 62.9 162.6C64.5533 163.773 66.6867 164.36 69.3 164.36C71.9667 164.36 74.1 163.773 75.7 162.6C77.3533 161.427 78.5267 159.747 79.22 157.56C79.9667 155.32 80.34 152.68 80.34 149.64C80.34 145.053 79.4867 141.453 77.78 138.84C76.1267 136.173 73.3267 134.84 69.38 134.84C66.7667 134.84 64.6333 135.453 62.98 136.68C61.3267 137.853 60.1 139.533 59.3 141.72C58.5533 143.907 58.18 146.547 58.18 149.64ZM154.574 126.44V173H144.014V151.64C144.014 150.2 144.04 148.547 144.094 146.68C144.147 144.813 144.2 143.08 144.254 141.48C144.36 139.827 144.44 138.6 144.494 137.8H144.254L133.054 173H122.334L111.534 137.72H111.214C111.32 138.52 111.427 139.747 111.534 141.4C111.64 143.053 111.72 144.84 111.774 146.76C111.88 148.627 111.934 150.36 111.934 151.96V173H101.694V126.44H117.134L127.934 160.92H128.174L139.294 126.44H154.574Z" fill="#F7FFFF"/>
<g filter="url(#filter0_f_40_90)">
<path d="M251.72 107H281.48L251.72 191H222.68L193.04 107H222.68L237.2 149.36L251.72 107ZM338.895 108.08L370.095 191.24H336.015L325.215 162.8H315.615L304.935 191.24H270.855L302.055 108.08H338.895ZM316.095 149.12H324.855L320.415 137.48L316.095 149.12ZM406.63 158.84H463.15V191.24H374.23V107H406.63V158.84ZM526.154 107H558.794V191.12H526.154V161.12H501.674V191.12H469.034V107H501.674V133.64H526.154V107ZM630.927 108.08L662.127 191.24H628.047L617.247 162.8H607.647L596.967 191.24H562.887L594.087 108.08H630.927ZM608.127 149.12H616.887L612.447 137.48L608.127 149.12ZM698.661 158.84H755.181V191.24H666.261V107H698.661V158.84ZM823.934 108.08L855.134 191.24H821.054L810.254 162.8H800.654L789.974 191.24H755.894L787.094 108.08H823.934ZM801.134 149.12H809.894L805.454 137.48L801.134 149.12Z" fill="#80ED99"/>
</g>
<defs>
<filter id="filter0_f_40_90" x="191.04" y="105" width="666.094" height="88.24" filterUnits="userSpaceOnUse" color-interpolation-filters="sRGB">
<feFlood flood-opacity="0" result="BackgroundImageFix"/>
<feBlend mode="normal" in="SourceGraphic" in2="BackgroundImageFix" result="shape"/>
<feGaussianBlur stdDeviation="1" result="effect1_foregroundBlur_40_90"/>
</filter>
</defs>
</svg>