<svg width="177" height="65" viewBox="0 0 177 65" fill="none" xmlns="http://www.w3.org/2000/svg">
<path d="M172.662 0H4.33824C1.94229 0 0 1.94229 0 4.33824V60.0846C0 62.4805 1.94229 64.4228 4.33824 64.4228H172.662C175.058 64.4228 177 62.4805 177 60.0846V4.33824C177 1.94229 175.058 0 172.662 0Z" fill="#505F9D"/>
<path d="M88.3915 60.0841C135.292 60.0841 173.312 47.6534 173.312 32.3194C173.312 16.9854 135.292 4.55469 88.3915 4.55469C41.491 4.55469 3.47058 16.9854 3.47058 32.3194C3.47058 47.6534 41.491 60.0841 88.3915 60.0841Z" fill="url(#paint0_linear_245_8)"/>
<path d="M29.3894 22.9922H35.8447L29.3894 41.2128H23.0903L16.661 22.9922H23.0903L26.2398 32.1806L29.3894 22.9922ZM48.2976 23.2265L55.0652 41.2648H47.6729L45.3302 35.0959H43.2479L40.9313 41.2648H33.5389L40.3066 23.2265H48.2976ZM43.352 32.1285H45.2521L44.2891 29.6037L43.352 32.1285ZM62.989 34.2369H75.2489V41.2648H55.9611V22.9922H62.989V34.2369ZM88.9165 22.9922H95.9965V41.2388H88.9165V34.7315H83.6065V41.2388H76.5265V22.9922H83.6065V28.7707H88.9165V22.9922ZM111.642 23.2265L118.41 41.2648H111.018L108.675 35.0959H106.593L104.276 41.2648H96.8837L103.651 23.2265H111.642ZM106.697 32.1285H108.597L107.634 29.6037L106.697 32.1285ZM126.336 34.2369H138.596V41.2648H119.308V22.9922H126.336V34.2369ZM153.508 23.2265L160.276 41.2648H152.884L150.541 35.0959H148.459L146.142 41.2648H138.75L145.517 23.2265H153.508ZM148.563 32.1285H150.463L149.5 29.6037L148.563 32.1285Z" fill="#505F9D"/>
<defs>
<linearGradient id="paint0_linear_245_8" x1="3.47058" y1="32.3194" x2="173.312" y2="32.3194" gradientUnits="userSpaceOnUse">
<stop offset="0.07" stop-color="#80ED99"/>
<stop offset="0.57" stop-color="#57CC99"/>
<stop offset="1" stop-color="#38A3A5"/>
</linearGradient>
</defs>
</svg>
