<?xml version="1.0" encoding="UTF-8"?>
<svg id="Layer_2" data-name="Layer 2" xmlns="http://www.w3.org/2000/svg" viewBox="0 0 516.88 523.72">
  <defs>
    <style>
      .cls-1 {
        stroke-width: 1.5px;
      }

      .cls-1, .cls-2, .cls-3 {
        fill: none;
        stroke: #231f20;
        stroke-linecap: round;
        stroke-linejoin: round;
      }

      .cls-2 {
        stroke-width: .75px;
      }

      .cls-3 {
        stroke-width: 2px;
      }
    </style>
  </defs>
  <g id="Layer_1-2" data-name="Layer 1">
    <g>
      <line class="cls-3" x1="223.58" y1="446.33" x2="479.82" y2="400.52"/>
      <line class="cls-3" x1="464.26" y1="251.91" x2="214.24" y2="291.44"/>
      <line class="cls-3" x1="498.04" y1="469.5" x2="471.42" y2="43.76"/>
      <line class="cls-3" x1="449.91" y1="441.18" x2="451.47" y2="465.38"/>
      <path class="cls-3" d="M435.56,408.43c.59.58,1.19,1.15,1.77,1.77.69.74,1.36,1.54,2.01,2.36.65.83,1.27,1.69,1.88,2.59.6.89,1.18,1.82,1.73,2.79.55.96,1.08,1.95,1.57,2.96.49,1.01.96,2.06,1.4,3.12.43,1.06.84,2.15,1.21,3.25.37,1.1.71,2.22,1.02,3.36s.58,2.28.81,3.43c.24,1.15.44,2.32.6,3.48.17,1.17.3,2.34.39,3.51"/>
      <line class="cls-3" x1="293.11" y1="433.9" x2="292.94" y2="436.68"/>
      <line class="cls-3" x1="338.06" y1="440.63" x2="338.99" y2="425.7"/>
      <line class="cls-3" x1="214.94" y1="302.92" x2="201.42" y2="78.82"/>
      <line class="cls-2" x1="223.58" y1="446.33" x2="214.94" y2="302.92"/>
      <line class="cls-3" x1="228.05" y1="520.43" x2="223.58" y2="446.33"/>
      <line class="cls-3" x1="179.16" y1="491.82" x2="180.61" y2="516.02"/>
      <path class="cls-3" d="M151.39,449.33c.41.08.82.17,1.24.27.81.2,1.62.46,2.43.77.8.31,1.61.67,2.4,1.08.79.41,1.58.87,2.36,1.38.77.51,1.54,1.07,2.29,1.67s1.49,1.26,2.22,1.95c.72.69,1.43,1.43,2.12,2.21.69.78,1.36,1.6,2.01,2.46.65.86,1.27,1.76,1.88,2.69.6.93,1.18,1.9,1.73,2.9.55,1,1.08,2.03,1.57,3.08.5,1.05.96,2.14,1.4,3.24s.84,2.23,1.21,3.38c.37,1.14.71,2.31,1.02,3.49.31,1.18.58,2.37.82,3.57.24,1.2.44,2.41.61,3.62.17,1.21.3,2.43.39,3.64"/>
      <line class="cls-3" x1="85.05" y1="436.97" x2="151.39" y2="449.32"/>
      <path class="cls-3" d="M69.55,466.2c.04-.6.08-1.21.14-1.81.1-1.15.25-2.28.42-3.39.18-1.11.39-2.21.63-3.28.24-1.07.52-2.12.83-3.14.31-1.02.65-2.02,1.02-2.98.37-.96.77-1.9,1.2-2.79.43-.9.89-1.76,1.38-2.59s1-1.62,1.54-2.36c.54-.75,1.1-1.45,1.68-2.12.58-.67,1.19-1.29,1.82-1.86.63-.57,1.28-1.1,1.94-1.59.67-.5,1.34-.97,2.05-1.31"/>
      <line class="cls-3" x1="47.32" y1="66.67" x2="22.21" y2="485.19"/>
      <line class="cls-3" x1="68.15" y1="489.41" x2="69.55" y2="466.2"/>
      <path class="cls-3" d="M167.68,83c.98.04,1.12.02,1.27,0"/>
      <line class="cls-3" x1="169.16" y1="83.01" x2="509.67" y2="38.79"/>
      <line class="cls-3" x1="90.3" y1="72.51" x2="167.68" y2="83"/>
      <path class="cls-1" d="M90.33,54.28c-.77.1-1.34.75-1.34,1.53"/>
      <line class="cls-1" x1="88.99" y1="55.81" x2="88.99" y2="70.99"/>
      <path class="cls-3" d="M88.99,70.99c0,.76.56,1.41,1.31,1.51"/>
      <line class="cls-1" x1="305.79" y1="28.95" x2="235.19" y2="37.78"/>
      <line class="cls-3" x1="515.88" y1="29.76" x2="515.88" y2="22.33"/>
      <path class="cls-3" d="M509.65,38.75c1.13-.18,1.55-.36,1.95-.57.4-.21.78-.46,1.14-.76,1.31-1.39,1.59-1.81,1.84-2.26.25-.45.47-.94.65-1.45.18-.51.33-1.05.44-1.6.11-.55.18-1.7.21-2.28"/>
      <line class="cls-3" x1="8.44" y1="61.4" x2="84.07" y2="71.66"/>
      <line class="cls-3" x1="84.46" y1="71.66" x2="88.99" y2="71.09"/>
      <path class="cls-3" d="M1.4,50.63c.07,1.56.15,2.16.27,2.74.12.59.27,1.17.45,1.72.19.56.41,1.1.66,1.61.26.52.54,1,.86,1.45.32.45.66.87,1.03,1.24.37.37.77.7,1.19.99.41.28.85.51,1.3.68.42.15.85.24,1.29.33"/>
      <line class="cls-3" x1="1.36" y1="42.62" x2="1.4" y2="50.63"/>
      <path class="cls-3" d="M425.99,12.15c-.05-.58-.5-1.05-1.07-1.12"/>
      <line class="cls-3" x1="424.92" y1="11.03" x2="342.43" y2="1"/>
      <path class="cls-2" d="M318.28,238.84c.6-4.27-1.66-8.42-5.56-10.24"/>
      <line class="cls-2" x1="318.28" y1="238.84" x2="316.01" y2="275.35"/>
      <g>
        <path class="cls-2" d="M310.91,228.48c.62-.05,1.81.12,1.81.12"/>
        <path class="cls-2" d="M479.82,400.52c.59-.2.93-.81.8-1.42"/>
        <path class="cls-2" d="M471.99,260.95c.22-4.31-2.7-8.15-6.9-9.1"/>
      </g>
      <line class="cls-2" x1="464.26" y1="251.91" x2="465.09" y2="251.85"/>
      <path class="cls-2" d="M485.32,471.62c.69.11,1.4.11,2.09,0"/>
      <line class="cls-3" x1="487.41" y1="471.62" x2="497.63" y2="469.69"/>
      <line class="cls-3" x1="325.37" y1="442.66" x2="293.35" y2="436.87"/>
      <line class="cls-3" x1="485.32" y1="471.62" x2="451.92" y2="465.57"/>
      <path class="cls-2" d="M325.37,442.66c.68.11,1.37.11,2.05,0"/>
      <line class="cls-3" x1="327.42" y1="442.66" x2="337.64" y2="440.81"/>
      <line class="cls-3" x1="227.59" y1="520.64" x2="216.6" y2="522.72"/>
      <line class="cls-3" x1="22.61" y1="485.38" x2="54.57" y2="491.6"/>
      <line class="cls-3" x1="181.03" y1="516.21" x2="214.43" y2="522.71"/>
      <path class="cls-2" d="M84.33,436.81c-3.63-.49-7.33.13-10.6,1.77"/>
      <line class="cls-2" x1="58.09" y1="468.4" x2="56.69" y2="491.6"/>
      <path class="cls-3" d="M54.57,491.6c.7.11,1.42.11,2.12,0"/>
      <line class="cls-3" x1="67.67" y1="489.62" x2="56.69" y2="491.6"/>
      <line class="cls-2" x1="174.97" y1="65.53" x2="174.97" y2="73.72"/>
      <line class="cls-2" x1="169.16" y1="83.01" x2="168.98" y2="83.03"/>
      <line class="cls-2" x1="90.51" y1="54.28" x2="174.97" y2="65.53"/>
      <g>
        <path class="cls-1" d="M221.71,37.91c4.55.4,9.12.36,13.66-.12"/>
        <path class="cls-2" d="M306.99,27.26c.96.2,1.63.41,1.63.41-.54.9-1.46,1.1-1.46,1.1l-1.19.18"/>
      </g>
      <line class="cls-1" x1="430.98" y1="11.79" x2="306.99" y2="27.26"/>
      <line class="cls-3" x1="515.48" y1="22.05" x2="430.98" y2="11.78"/>
      <line class="cls-2" x1="174.97" y1="65.53" x2="515.48" y2="22.05"/>
      <line class="cls-1" x1="221.71" y1="37.91" x2="90.51" y2="54.28"/>
      <line class="cls-1" x1="235.19" y1="37.78" x2="235.37" y2="37.78"/>
      <line class="cls-2" x1="305.79" y1="28.95" x2="305.98" y2="28.95"/>
      <g>
        <path class="cls-1" d="M304.98,28.73c.9-1.24,1.14-1.33,1.38-1.39"/>
        <path class="cls-2" d="M82.77,53.31c-.72.22-1.18.91-1.11,1.66"/>
      </g>
      <line class="cls-2" x1="81.66" y1="70.14" x2="81.66" y2="54.96"/>
      <line class="cls-2" x1=".38" y1="42.34" x2="82.77" y2="53.31"/>
      <line class="cls-2" x1="82.77" y1="53.31" x2="213.96" y2="36.96"/>
      <g>
        <path class="cls-2" d="M217.47,38.41c-.87-1.06-1.12-1.16-1.36-1.22"/>
        <path class="cls-2" d="M300.75,26.48c-4.49-.39-9.01-.35-13.49.12"/>
      </g>
      <line class="cls-2" x1="216.66" y1="35.38" x2="287.27" y2="26.6"/>
      <path class="cls-2" d="M215.48,37.1c-.95-.2-1.61-.42-1.61-.42.64-.92,1.58-1.12,1.58-1.12l1.21-.18"/>
      <line class="cls-3" x1="342.24" y1="1" x2="1.44" y2="42.5"/>
      <line class="cls-2" x1="299.24" y1="26.33" x2="423.24" y2="10.88"/>
      <line class="cls-2" x1="300.82" y1="28.2" x2="300.82" y2="29.57"/>
      <path class="cls-2" d="M300.82,28.2c0-.92,0-1.07,0-1.19"/>
      <line class="cls-3" x1="312.72" y1="228.59" x2="211.38" y2="243.98"/>
      <line class="cls-2" x1="312.45" y1="239.73" x2="217.88" y2="254.23"/>
      <line class="cls-2" x1="468.45" y1="261.52" x2="218.42" y2="301.41"/>
      <line class="cls-2" x1="485.32" y1="471.62" x2="458.71" y2="45.41"/>
      <line class="cls-2" x1="325.37" y1="442.66" x2="326.28" y2="427.97"/>
      <line class="cls-3" x1="316.57" y1="63.87" x2="306.28" y2="229.18"/>
      <line class="cls-2" x1="214.43" y1="522.71" x2="187.82" y2="80.59"/>
      <path class="cls-2" d="M73.72,438.58c-9.97,6.6-15.87,17.86-15.63,29.81"/>
      <path class="cls-2" d="M169.16,83.01c3.99-1.2,6.48-5.17,5.81-9.29"/>
      <line class="cls-1" x1="90.33" y1="54.28" x2="90.51" y2="54.28"/>
      <path class="cls-2" d="M306.16,28.91c-.08-.02-1.18-.18-1.18-.18"/>
      <line class="cls-2" x1="430.8" y1="11.79" x2="430.98" y2="11.79"/>
      <line class="cls-2" x1="431.16" y1="11.78" x2="430.98" y2="11.79"/>
      <line class="cls-2" x1="424.92" y1="11.03" x2="424.75" y2="11.03"/>
      <path class="cls-2" d="M171.97,55.52c0,.41-2,.75-4.46.75s-4.46-.34-4.46-.75,2-.75,4.46-.75,4.46.34,4.46.75Z"/>
      <polyline class="cls-2" points="166.45 55.44 166.95 55.59 168.41 55.61 169.08 55.44"/>
      <path class="cls-2" d="M83.51,43.13c0,.41-2,.75-4.46.75s-4.46-.34-4.46-.75,2-.75,4.46-.75,4.46.34,4.46.75Z"/>
      <polyline class="cls-2" points="78 43.05 78.5 43.19 79.95 43.21 80.62 43.05"/>
      <path class="cls-2" d="M355.17,10.13c0,.41-2,.75-4.46.75s-4.46-.34-4.46-.75,1.99-.75,4.46-.75,4.46.34,4.46.75Z"/>
      <polyline class="cls-2" points="349.66 10.05 350.16 10.19 351.62 10.21 352.29 10.05"/>
      <path class="cls-2" d="M444.51,20.79c0,.41-2,.75-4.46.75s-4.46-.34-4.46-.75,1.99-.75,4.46-.75,4.46.34,4.46.75Z"/>
      <polyline class="cls-2" points="439 20.71 439.5 20.86 440.95 20.88 441.62 20.71"/>
      <path class="cls-2" d="M204.47,398.34l-.13-1.4-.38-1.34-.61-1.19c-.79-.94-1.7-1.57-1.7-1.57-.96-.27-1.91-.15-1.91-.15-.86.49-1.56,1.31-1.56,1.31-.5,1.1-.76,2.39-.76,2.39v1.39l.26,1.38.5,1.28c.7,1.07,1.56,1.86,1.56,1.86.94.45,1.91.53,1.91.53.91-.3,1.7-.96,1.7-.96.61-.97.99-2.17.99-2.17l.13-1.35"/>
      <polygon class="cls-2" points="200.64 395.35 202.24 396.5 202.49 398.85 201.36 399.85 199.64 398.66 199.45 396.54 200.64 395.35"/>
      <path class="cls-2" d="M200.51,332.55l-.13-1.4-.38-1.34-.61-1.19c-.79-.94-1.7-1.57-1.7-1.57-.96-.27-1.91-.15-1.91-.15-.86.49-1.56,1.31-1.56,1.31-.5,1.1-.76,2.39-.76,2.39v1.39l.26,1.38.5,1.28c.7,1.07,1.56,1.86,1.56,1.86.94.45,1.91.53,1.91.53.91-.3,1.7-.96,1.7-.96.61-.97.99-2.17.99-2.17l.13-1.35"/>
      <polygon class="cls-2" points="196.68 329.55 198.28 330.71 198.53 333.05 197.4 334.05 195.68 332.86 195.5 330.74 196.68 329.55"/>
      <path class="cls-2" d="M42.43,305.88l-.13-1.4-.39-1.34-.61-1.19c-.79-.94-1.7-1.57-1.7-1.57-.96-.27-1.91-.15-1.91-.15-.86.49-1.56,1.31-1.56,1.31-.5,1.1-.76,2.39-.76,2.39v1.39l.26,1.38.5,1.28c.7,1.07,1.56,1.86,1.56,1.86.94.45,1.91.53,1.91.53.91-.3,1.7-.96,1.7-.96.61-.97.99-2.17.99-2.17l.13-1.35"/>
      <polygon class="cls-2" points="38.61 302.88 40.2 304.04 40.45 306.38 39.33 307.38 37.61 306.19 37.42 304.07 38.61 302.88"/>
      <path class="cls-2" d="M39.43,368.38l-.13-1.4-.39-1.34-.61-1.19c-.79-.94-1.7-1.57-1.7-1.57-.96-.27-1.91-.15-1.91-.15-.86.49-1.56,1.31-1.56,1.31-.5,1.1-.76,2.39-.76,2.39v1.39l.26,1.38.5,1.28c.7,1.07,1.56,1.86,1.56,1.86.94.45,1.91.53,1.91.53.91-.3,1.7-.96,1.7-.96.61-.97.99-2.17.99-2.17l.13-1.35"/>
      <polygon class="cls-2" points="35.61 365.38 37.2 366.54 37.45 368.88 36.33 369.88 34.61 368.69 34.42 366.57 35.61 365.38"/>
    </g>
  </g>
</svg>