<?xml version="1.0" encoding="UTF-8"?>
<svg id="Layer_2" data-name="Layer 2" xmlns="http://www.w3.org/2000/svg" viewBox="0 0 404.52 560.12">
  <defs>
    <style>
      .cls-1 {
        stroke-width: .75px;
      }

      .cls-1, .cls-2 {
        fill: none;
        stroke: #231f20;
        stroke-linecap: round;
        stroke-linejoin: round;
      }

      .cls-2 {
        stroke-width: 2px;
      }
    </style>
  </defs>
  <g id="Layer_1-2" data-name="Layer 1">
    <g>
      <path class="cls-1" d="M39.24,76.41c-.06.3-.07.61-.05.91.01.2.04.39.06.59"/>
      <path class="cls-2" d="M39.61,80.66c.08.59.17,1.19.25,1.78.8,5.75,1.6,11.51,2.41,17.26.77,5.51,1.54,11.02,2.3,16.53.73,5.27,1.47,10.54,2.2,15.81.66,4.74,1.32,9.49,1.98,14.23.63,4.53,1.26,9.06,1.89,13.59.6,4.31,1.2,8.62,1.8,12.94.57,4.09,1.14,8.19,1.71,12.28.54,3.88,1.08,7.76,1.62,11.63.42,2.99.83,5.97,1.25,8.96.4,2.84.79,5.69,1.19,8.53.38,2.7.75,5.4,1.13,8.1.36,2.56.71,5.11,1.07,7.67.34,2.41.67,4.82,1.01,7.24.32,2.27.64,4.54.95,6.81.3,2.19.59,4.39.72,6.59.13,2.14.11,4.29-.03,6.43-.13,2.11-.38,4.21-.76,6.28-.37,2.03-.88,4.02-1.38,6.01-.49,1.95-.98,3.89-1.46,5.83-1.49,5.95-2.99,11.9-4.48,17.86-1.3,5.2-2.61,10.4-3.91,15.6-1.25,5-2.51,10.01-3.76,15.01-1.23,4.92-2.47,9.84-3.7,14.76-1.23,4.91-2.46,9.83-3.7,14.74-1.23,4.91-2.46,9.81-3.69,14.72-.34,1.37-.69,2.74-1.03,4.12-.36,1.44-.72,2.88-1.08,4.32-.4,1.61-.81,3.21-1.21,4.82-.44,1.77-.89,3.54-1.33,5.31-.49,1.94-.97,3.87-1.46,5.81-.52,2.06-1.03,4.12-1.55,6.19-.56,2.22-1.11,4.44-1.67,6.67-.6,2.38-1.19,4.76-1.79,7.14-.64,2.54-1.27,5.08-1.91,7.62-.89,3.54-1.77,7.07-2.66,10.61-.96,3.81-1.91,7.61-2.86,11.42-1.02,4.07-2.04,8.15-3.07,12.22-1.09,4.34-2.18,8.68-3.26,13.02-1.16,4.61-2.31,9.22-3.47,13.83-1.22,4.88-2.45,9.76-3.67,14.63-1.07,4.27-2.14,8.54-3.21,12.8"/>
    </g>
    <line class="cls-1" x1="37.92" y1="68.58" x2="38.99" y2="76.22"/>
    <line class="cls-1" x1="32.46" y1="29.38" x2="32.84" y2="32.09"/>
    <line class="cls-2" x1="22.14" y1="507.35" x2="98.72" y2="294.07"/>
    <line class="cls-2" x1="95.86" y1="245.63" x2="68.76" y2="113.79"/>
    <path class="cls-1" d="M33.4,27.87c-.09.06-.19.11-.28.18-.09.06-.18.13-.27.23-.07.07-.14.15-.2.26-.06.11-.12.23-.16.37-.04.15-.07.31-.03.45,0,0,0,.01,0,.02"/>
    <line class="cls-1" x1="168.43" y1="268.1" x2="168.45" y2="268.74"/>
    <path class="cls-2" d="M348.56,250.07c1.71-.35,3.42-.69,5.12-1.05,3.2-.67,6.36-1.37,9.5-2.07,3.14-.71,6.27-1.43,9.36-2.17,2.76-.66,5.49-1.34,8.22-2.02"/>
    <line class="cls-2" x1="85.84" y1="255.76" x2="147.96" y2="266.66"/>
    <line class="cls-2" x1="82.45" y1="249.09" x2="82.58" y2="253.77"/>
    <path class="cls-2" d="M85.95,246.85c-.26.05-.51.1-.74.15-.32.07-.6.14-.85.22-.27.08-.51.17-.74.28-.14.06-.27.14-.41.23-.1.07-.2.15-.3.26-.09.1-.18.21-.26.36-.08.14-.14.3-.16.46,0,.08,0,.17,0,.26"/>
    <line class="cls-1" x1="85.85" y1="255.77" x2="85.89" y2="255.78"/>
    <path class="cls-2" d="M82.63,253.76c0,.1,0,.21.01.3.03.16.1.3.18.42.08.12.16.22.25.3.1.09.19.17.29.23.13.08.25.15.38.2.2.09.41.16.63.23.25.08.51.15.83.21.14.03.28.06.43.08"/>
    <line class="cls-2" x1="391.47" y1="236.9" x2="391.32" y2="232.24"/>
    <g>
      <path class="cls-2" d="M380.75,242.76c.22-.05.44-.11.66-.16.61-.15,1.18-.31,1.73-.47.55-.16,1.08-.32,1.58-.48.51-.16.98-.33,1.43-.49.45-.17.87-.33,1.27-.5.4-.17.77-.34,1.11-.51.35-.17.67-.35.96-.53.3-.19.57-.38.82-.58.21-.18.4-.36.57-.57.13-.16.25-.33.35-.53.09-.17.16-.35.2-.55.03-.15.03-.31.03-.47"/>
      <path class="cls-2" d="M391.31,232.25s0-.07,0-.1c0-.21-.06-.41-.14-.59-.08-.18-.18-.35-.29-.49-.12-.16-.26-.29-.41-.41-.17-.14-.36-.26-.56-.37-.24-.13-.5-.25-.79-.35-.32-.12-.67-.22-1.05-.32-.37-.09-.77-.17-1.2-.25-.41-.07-.86-.13-1.33-.19-.46-.05-.95-.1-1.46-.14-.51-.04-1.04-.07-1.6-.1-.36-.01-.73-.02-1.1-.04"/>
    </g>
    <polyline class="cls-2" points="270.36 225.34 287.96 225.95 357.91 228.18"/>
    <line class="cls-2" x1="381.39" y1="228.86" x2="357.91" y2="228.18"/>
    <line class="cls-2" x1="201.59" y1="299.08" x2="290.2" y2="286.66"/>
    <path class="cls-2" d="M341.92,285.74l43.59,228.65c.14.17,1.14.14,1.14.14"/>
    <line class="cls-2" x1="403.52" y1="512.98" x2="376.63" y2="246.68"/>
    <line class="cls-1" x1="185.97" y1="307.24" x2="186.06" y2="302.13"/>
    <line class="cls-2" x1="181.6" y1="555.07" x2="185.97" y2="307.24"/>
    <g>
      <path class="cls-2" d="M33.75,46.12c.25,1.37.5,2.74.76,4.12,2.64,14.3,5.3,28.61,7.99,42.92.15.8.3,1.6.45,2.41"/>
      <path class="cls-2" d="M42.95,95.57c.06.29.11.59.17.88.1.5.22.99.34,1.48.12.48.25.95.39,1.42.14.49.3.96.45,1.43.18.52.36,1.02.56,1.51.2.51.41,1,.63,1.48.23.5.46.98.7,1.44.25.48.51.94.78,1.39.28.46.56.9.86,1.31.3.43.61.83.93,1.21.33.4.66.76,1.01,1.1.36.35.72.68,1.09.97.38.3.76.57,1.15.81.39.24.79.45,1.2.62.4.17.81.31,1.21.42.39.11.78.2,1.16.24.03,0,.06,0,.09.01"/>
      <path class="cls-2" d="M48.25,14.64c-.88.21-1.77.41-2.65.62-.9.21-1.81.42-2.71.63"/>
      <path class="cls-2" d="M42.89,15.9s-.02,0-.03,0c-.44.08-.86.22-1.28.38-.44.17-.86.35-1.27.57-.42.22-.82.47-1.21.75-.39.28-.76.59-1.11.92-.36.33-.69.7-1.01,1.08-.32.39-.63.8-.91,1.25-.29.44-.56.91-.81,1.41-.25.49-.48,1.01-.7,1.55-.19.48-.36.98-.52,1.5-.17.55-.32,1.13-.46,1.73-.14.6-.26,1.22-.36,1.86-.1.62-.19,1.26-.26,1.93-.07.64-.12,1.3-.16,1.97-.04.65-.06,1.32-.07,2,0,.66,0,1.33.02,2.01.02.66.05,1.34.1,2.02.04.66.1,1.34.17,2.02.07.67.15,1.34.24,2.02.09.66.18,1.31.29,1.97.07.42.14.84.22,1.26"/>
      <path class="cls-2" d="M50.07,14.38c-.16.01-.32.03-.48.04-.45.04-.92.1-1.35.23"/>
      <path class="cls-2" d="M55.73,113.26c.52.04,1.03.07,1.56.11,1,.07,2.04.12,3.1.17,1.06.05,2.15.1,3.26.13,1.11.04,2.25.07,3.42.09,1.17.02,2.36.04,3.57.05,1.22.01,2.46.01,3.72,0,1.26,0,2.55-.01,3.87-.03,1.31-.02,2.65-.04,4.01-.07,1.36-.03,2.74-.07,4.14-.11,1.4-.04,2.82-.09,4.28-.15,1.34-.05,2.7-.12,4.06-.18"/>
    </g>
    <line class="cls-2" x1="50.5" y1="14.34" x2="50.14" y2="14.36"/>
    <polyline class="cls-1" points="255.92 10.37 255.39 9.94 254.87 9.51"/>
    <line class="cls-1" x1="90.95" y1="258.18" x2="98.95" y2="258.1"/>
    <line class="cls-1" x1="94.28" y1="257.27" x2="90.95" y2="258.18"/>
    <line class="cls-1" x1="340.77" y1="251.57" x2="341.78" y2="285.25"/>
    <line class="cls-2" x1="280.19" y1="288.06" x2="341.78" y2="285.25"/>
    <path class="cls-2" d="M144.75,293.75c5.12-.04,10.24-.13,15.35-.29"/>
    <line class="cls-1" x1="90.95" y1="258.18" x2="91.95" y2="294.12"/>
    <line class="cls-2" x1="91.95" y1="294.12" x2="144.75" y2="293.75"/>
    <line class="cls-1" x1="341.78" y1="285.25" x2="341.86" y2="285.16"/>
    <line class="cls-1" x1="185.19" y1="270.02" x2="186.26" y2="307.25"/>
    <line class="cls-1" x1="185.97" y1="307.26" x2="186.26" y2="307.25"/>
    <line class="cls-1" x1="171.66" y1="269.55" x2="169.53" y2="270.47"/>
    <line class="cls-1" x1="185.19" y1="270.02" x2="187.24" y2="269.13"/>
    <line class="cls-2" x1="186.25" y1="307.25" x2="204.55" y2="298.66"/>
    <g>
      <path class="cls-2" d="M227.09,467.74c-1.14-44.6-2.29-89.53-3.44-134.76-.31-12.25-.63-24.53-.94-36.87"/>
      <path class="cls-2" d="M221,230.08c-.03-1.01-.06-2.02-.09-3.03-.05-1.56-.09-3.12-.14-4.68-1.25-41.06-2.48-81.95-3.7-122.71"/>
    </g>
    <line class="cls-2" x1="227.3" y1="470.39" x2="227.09" y2="467.74"/>
    <line class="cls-2" x1="228.52" y1="470.33" x2="242.26" y2="469.27"/>
    <path class="cls-2" d="M227.21,470.39c.42,0,.85-.02,1.29-.03"/>
    <line class="cls-2" x1="232.33" y1="97.2" x2="236.49" y2="227.91"/>
    <line class="cls-2" x1="238.31" y1="293.93" x2="242.26" y2="469.27"/>
    <line class="cls-2" x1="13.91" y1="510.09" x2="2.33" y2="509.34"/>
    <line class="cls-2" x1="15.71" y1="509.93" x2="22" y2="507.44"/>
    <g>
      <path class="cls-2" d="M2.33,509.34c-.25-.08-.5-.16-.7-.25-.2-.09-.34-.18-.45-.28-.11-.1-.19-.19-.18-.3,0-.04.02-.08.04-.12"/>
      <path class="cls-1" d="M39,76.22c.05.32.09.63.15.97.07.49.16,1.03.23,1.56.06.47.11.94.17,1.35.02.19.05.37.08.55"/>
      <path class="cls-1" d="M190.95,268.71c1.7-.19,3.39-.5,5.05-.92"/>
    </g>
    <polyline class="cls-1" points="168.45 268.74 168.55 268.92 168.89 269.1 169.45 269.26 170.22 269.4 171.2 269.51 172.37 269.6 173.71 269.66 175.2 269.69 176.81 269.69 178.53 269.66 180.32 269.6 182.15 269.51 183.99 269.39 185.83 269.25 187.62 269.09 189.33 268.91 190.95 268.71"/>
    <g>
      <path class="cls-2" d="M270.18,225.38c-.86-.02-1.71-.04-2.63-.05-.92,0-1.89,0-2.89.03-1,.02-2.04.05-3.11.1-1.07.04-2.17.1-3.29.17-1.13.07-2.28.15-3.45.23-1.17.09-2.35.19-3.54.3-1.19.11-2.4.23-3.61.35-1.21.13-2.42.26-3.63.41-1.21.14-2.41.29-3.59.45-.8.11-1.6.22-2.39.33"/>
      <path class="cls-2" d="M87.84,246.54c-.62.09-1.2.18-1.61.27-.02,0-.03,0-.05.01"/>
      <path class="cls-1" d="M92.16,246.01c-.8.09-1.61.17-2.33.26-.73.09-1.37.18-1.99.27"/>
      <path class="cls-1" d="M96.87,245.52c-1.58.17-3.14.33-4.71.49"/>
      <path class="cls-2" d="M223.74,229.7c-4.75.66-9.46,1.31-14.13,1.96-4.67.64-9.3,1.27-13.89,1.89-3.54.48-7.05.95-10.54,1.41-3.49.46-6.95.92-10.38,1.36-3.43.45-6.83.88-10.19,1.31-3.36.43-6.69.85-9.97,1.26-3.78.47-7.52.93-11.2,1.38-3.68.45-7.31.88-10.88,1.3-3.57.42-7.08.83-10.53,1.22-3.53.4-6.99.79-10.38,1.17-3.4.38-6.73.74-9.97,1.08-1.62.17-3.22.34-4.81.51"/>
      <path class="cls-1" d="M236.49,227.91c-4.26.6-8.52,1.2-12.75,1.79"/>
      <path class="cls-2" d="M238.05,227.69c-.52.07-1.04.15-1.56.22"/>
      <path class="cls-2" d="M348.42,250.08c-.45.1-.9.19-1.35.29-5.72,1.22-11.63,2.3-17.59,3.35s-11.98,2.07-18.08,3.04c-6.1.96-12.3,1.86-18.57,2.71-6.41.86-12.89,1.68-19.46,2.43-6.57.75-13.23,1.44-19.96,2.07-6.73.63-13.55,1.2-20.44,1.72-6.89.52-13.84.98-20.88,1.36-7.03.38-14.14.69-21.27.99"/>
      <path class="cls-2" d="M190.81,268.03c-1.1.04-2.2.08-3.33.1-1.13.03-2.3.05-3.47.07-1.17.02-2.36.03-3.55.03-1.19,0-2.39,0-3.59,0-1.2,0-2.4-.02-3.6-.03-1.19-.02-2.37-.04-3.53-.07-1.16-.03-2.31-.06-3.43-.1-1.13-.04-2.23-.08-3.3-.12-1.07-.05-2.11-.1-3.11-.15-1-.05-1.95-.11-2.87-.17-.92-.06-1.79-.12-2.62-.19-.82-.07-1.59-.13-2.32-.2-.84-.08-1.62-.17-2.29-.25-.67-.09-1.24-.17-1.81-.26"/>
    </g>
    <polyline class="cls-1" points="85.89 255.79 85.85 255.78 85.84 255.78"/>
    <line class="cls-2" x1="82.49" y1="249.08" x2="82.49" y2="249.07"/>
    <line class="cls-1" x1="82.61" y1="253.76" x2="82.61" y2="253.77"/>
    <line class="cls-1" x1="270.18" y1="225.38" x2="270.36" y2="225.36"/>
    <path class="cls-1" d="M290.2,286.66c.95-.12,1.63-.68,1.59-1.3"/>
    <line class="cls-1" x1="291.8" y1="285.36" x2="291.04" y2="259.69"/>
    <polyline class="cls-1" points="200.2 267.59 201.07 298.05 201.09 299.14 201.59 299.08"/>
    <line class="cls-1" x1="355.54" y1="248.62" x2="371.58" y2="247.89"/>
    <g>
      <path class="cls-2" d="M376.6,246.44c-.07-.21-.98-.35-3.39-.35"/>
      <path class="cls-1" d="M398.47,514.35l-26.9-266.45s5.19-.92,5.02-1.45"/>
      <path class="cls-2" d="M386.65,514.53l11.83-.18c1.16.13,5.13-.46,5.04-1.37"/>
    </g>
    <line class="cls-2" x1="365.36" y1="246.44" x2="373.22" y2="246.09"/>
    <line class="cls-2" x1="162" y1="557.82" x2="159.97" y2="274.58"/>
    <line class="cls-1" x1="177.93" y1="558.1" x2="175.76" y2="274.12"/>
    <path class="cls-2" d="M162,557.82c5.17,1.63,10.7,1.73,15.92.29"/>
    <line class="cls-1" x1="185.19" y1="270.02" x2="175.76" y2="274.13"/>
    <line class="cls-2" x1="177.93" y1="558.1" x2="181.35" y2="555.33"/>
    <line class="cls-2" x1="169.53" y1="270.47" x2="159.97" y2="274.58"/>
    <path class="cls-1" d="M48.23,14.65s.03-.01.04-.01"/>
    <polyline class="cls-2" points="94.87 113.25 96.09 113.19 100.97 112.93 105.99 112.63 111.15 112.28 116.43 111.89 121.83 111.45 127.34 110.98 132.97 110.46 138.7 109.9 144.52 109.3 150.43 108.66 156.43 107.98 162.51 107.27 168.65 106.52 174.86 105.73 181.14 104.9 187.46 104.04 193.83 103.15 200.24 102.22 206.68 101.27 213.15 100.28 219.64 99.26 226.15 98.21 232.66 97.14 239.18 96.04 245.69 94.91"/>
    <g>
      <path class="cls-2" d="M50.31,14.38c1.23-.07,2.46-.15,3.74-.23,1.42-.09,2.9-.19,4.43-.29,1.98-.14,4.04-.28,6.19-.43,2.15-.16,4.38-.32,6.68-.49,2.31-.17,4.69-.35,7.14-.54,2.45-.19,4.97-.38,7.56-.58,2.58-.2,5.23-.41,7.95-.62,2.71-.21,5.47-.42,8.3-.64,2.83-.22,5.72-.44,8.66-.66,2.95-.23,5.96-.45,9.01-.68,3.06-.23,6.17-.47,9.32-.7,3.15-.24,6.35-.48,9.59-.72,3.23-.24,6.5-.49,9.81-.73,3.3-.25,6.63-.49,9.99-.74,3.55-.26,7.14-.53,10.76-.8,3.63-.27,7.28-.54,10.96-.82,3.68-.28,7.39-.56,11.11-.84,3.72-.28,7.46-.57,11.2-.87,3.74-.29,7.49-.59,11.24-.9,3.74-.3,7.48-.61,11.22-.93"/>
      <path class="cls-2" d="M266.31,74.77c0,.41,0,.81-.02,1.22-.04.8-.17,1.61-.35,2.4-.19.79-.44,1.57-.74,2.32-.37.91-.82,1.78-1.33,2.62-.52.84-1.1,1.64-1.73,2.4-.69.82-1.44,1.59-2.23,2.32-.79.73-1.63,1.42-2.53,2.03-.89.61-1.86,1.14-2.74,1.71-1.3.84-2.44,1.74-4.35,1.93l-4.6,1.2"/>
    </g>
    <polyline class="cls-2" points="225.18 1.15 229.97 1 234.75 1.34 239.44 2.17 244 3.5 248.36 5.33 252.42 7.68 254.91 9.54"/>
    <path class="cls-2" d="M264.71,27.05c0-1.17-.16-2.32-.4-3.46-.25-1.17-.58-2.31-1.01-3.42-.42-1.07-.93-2.11-1.52-3.1-.6-1.01-1.28-1.98-2.02-2.89-.51-.62-1.06-1.22-1.62-1.8-.56-.58-1.15-1.14-1.78-1.65-.15-.12-.3-.24-.45-.36"/>
    <line class="cls-1" x1="170.93" y1="269.49" x2="170.95" y2="269.86"/>
    <line class="cls-1" x1="219.12" y1="99.45" x2="223.16" y2="229.87"/>
    <line class="cls-1" x1="91.08" y1="262.81" x2="89.78" y2="256.46"/>
    <line class="cls-1" x1="87.74" y1="246.56" x2="60.42" y2="113.54"/>
    <g>
      <path class="cls-1" d="M91.91,292.8L13.91,510.09c.4.03,1.44-.02,1.8-.16"/>
      <path class="cls-1" d="M33.19,28.94c-.07.03-.14.06-.2.08-.19.08-.3.15-.39.21-.09.06-.17.12-.14.14"/>
      <path class="cls-1" d="M380.24,235.63c.81-.21,1.61-.42,2.36-.63.75-.21,1.44-.43,2.08-.65.64-.22,1.23-.43,1.76-.64.53-.21,1-.43,1.42-.64.42-.21.77-.42,1.07-.62.29-.2.53-.4.69-.6.17-.19.27-.38.32-.56.04-.18.02-.35-.06-.52-.08-.17-.23-.32-.44-.47-.21-.14-.48-.28-.81-.41-.33-.13-.72-.24-1.17-.35-.45-.1-.95-.2-1.51-.28-.65-.1-1.37-.17-2.17-.23-.8-.06-1.69-.1-2.57-.13"/>
      <path class="cls-1" d="M190.76,260.54c6.97-.29,13.92-.57,20.8-.93,6.88-.36,13.68-.8,20.42-1.28,6.74-.49,13.41-1.03,20-1.63,6.59-.6,13.11-1.26,19.55-1.97,6.43-.71,12.79-1.48,19.07-2.31,6.41-.84,12.74-1.74,18.98-2.7,6.25-.96,12.4-1.97,18.47-3.04,6.07-1.07,12.05-2.19,17.94-3.37,5.89-1.17,11.7-2.39,17.4-3.68,5.7-1.29,11.28-2.65,16.85-3.99"/>
      <path class="cls-1" d="M147.99,259.21c.75.11,1.5.22,2.41.33.91.11,1.99.21,3.17.31,1.18.1,2.47.19,3.86.28,1.39.09,2.87.17,4.43.24,1.56.07,3.19.13,4.88.19,1.68.05,3.41.1,5.17.13,1.76.03,3.55.05,5.35.06,1.79,0,3.58,0,5.35-.01,1.41-.01,2.81-.04,4.17-.07,1.36-.03,2.68-.07,3.99-.11"/>
      <path class="cls-1" d="M86.17,246.83c-.42.09-.83.17-1.17.26-.35.09-.61.18-.81.27-.2.09-.33.18-.39.27-.06.09-.04.18.04.27.09.09.25.18.47.26.23.09.52.17.89.25.25.05.53.11.81.16"/>
    </g>
    <line class="cls-1" x1="86.03" y1="248.58" x2="147.99" y2="259.21"/>
    <line class="cls-1" x1="381.2" y1="228.91" x2="381.38" y2="228.88"/>
    <g>
      <path class="cls-1" d="M262.36,26.41c-.07-.9-.14-1.8-.28-2.69s-.36-1.76-.63-2.62c-.37-1.17-.85-2.31-1.42-3.4-.57-1.09-1.23-2.13-1.97-3.1-.89-1.18-1.9-2.29-2.99-3.3-1.09-1.01-2.27-1.94-3.51-2.78-1.24-.84-2.55-1.6-3.91-2.28-1.36-.68-2.77-1.27-4.21-1.79-1.44-.51-2.91-.94-4.4-1.29-1.49-.35-3-.62-4.53-.81-1.53-.2-3.08-.32-4.62-.34-1.54-.02-3.09.06-4.64.14"/>
      <path class="cls-1" d="M264.16,74.18c-.21-5.32-.41-10.63-.61-15.94-.2-5.31-.4-10.61-.6-15.92-.2-5.31-.39-10.61-.59-15.92"/>
      <path class="cls-1" d="M245.33,92.95c1.45-.33,2.9-.65,4.3-1.14,1.14-.4,2.25-.89,3.33-1.46,1.07-.57,2.11-1.2,3.09-1.91.97-.7,1.88-1.47,2.73-2.3.85-.83,1.63-1.73,2.32-2.7.53-.74,1.02-1.53,1.43-2.34.41-.81.76-1.65,1.03-2.52.22-.72.4-1.45.49-2.19.09-.74.1-1.48.11-2.22"/>
    </g>
    <polyline class="cls-1" points="62.34 110.55 65.43 110.75 68.69 110.91 72.14 111.02 75.76 111.09 79.56 111.11 83.51 111.09 87.63 111.02 91.91 110.91 96.33 110.75 100.9 110.55 105.61 110.3 110.45 110.01 115.42 109.68 120.51 109.31 125.72 108.89 131.04 108.43 136.47 107.94 142 107.4 147.62 106.82 153.33 106.21 159.12 105.56 164.98 104.87 170.92 104.14 176.91 103.38 182.97 102.59 189.08 101.76 195.23 100.9 201.42 100.01 207.64 99.08 213.89 98.13 220.17 97.15 226.45 96.14 232.75 95.1 239.04 94.04 245.34 92.95"/>
    <g>
      <path class="cls-1" d="M51.06,93.87c.08.42.17.84.26,1.26.17.77.37,1.54.58,2.28.21.74.45,1.46.69,2.16.3.85.63,1.65.97,2.41.34.76.7,1.47,1.08,2.14.38.67.77,1.29,1.17,1.85.4.57.82,1.09,1.24,1.55.42.46.85.87,1.29,1.24.65.54,1.32.97,1.99,1.25.67.28,1.35.4,2.02.53"/>
      <path class="cls-1" d="M41.93,44.45c1.01,5.49,2.02,10.97,3.03,16.46,1.01,5.49,2.02,10.98,3.04,16.47,1.02,5.5,2.04,11,3.06,16.5"/>
      <path class="cls-1" d="M51.25,15.35c-.71.09-1.41.18-2.08.36-.67.18-1.29.46-1.88.81-.59.34-1.15.76-1.67,1.24-.5.47-.96,1-1.38,1.6-.43.6-.82,1.27-1.17,2-.35.73-.66,1.53-.93,2.4-.21.67-.4,1.39-.56,2.14-.16.76-.3,1.55-.41,2.4-.11.84-.19,1.71-.24,2.63-.06.99-.08,2.03-.07,3.11.01,1.08.06,2.19.14,3.34.08,1.14.2,2.32.35,3.5.16,1.18.36,2.38.56,3.58"/>
      <path class="cls-1" d="M225.26,2.15c-3.72.31-7.44.61-11.15.92-3.73.3-7.45.59-11.16.89-3.72.29-7.43.57-11.13.86-3.69.28-7.37.56-11.03.83-3.65.27-7.28.54-10.89.81-3.59.27-7.16.53-10.68.79-3.34.25-6.64.49-9.91.74-3.28.24-6.53.49-9.74.73-3.21.24-6.39.48-9.52.72-3.13.24-6.22.47-9.26.7-3.03.23-6.02.46-8.95.68-2.92.22-5.79.44-8.6.66-2.81.22-5.55.43-8.24.64-2.69.21-5.32.42-7.89.62-2.57.2-5.07.4-7.51.58-2.43.19-4.8.37-7.09.54-2.29.17-4.5.34-6.63.5-2.13.16-4.17.3-6.14.44-1.52.11-2.99.21-4.39.3-1.41.09-2.75.17-4.1.26"/>
    </g>
    <line class="cls-1" x1="55.67" y1="113.24" x2="56.04" y2="113.23"/>
    <line class="cls-1" x1="48.28" y1="14.64" x2="48.34" y2="14.63"/>
    <g>
      <path class="cls-2" d="M51.25,15.35c-.05-.15-.09-.31-.17-.44-.08-.13-.19-.24-.31-.33-.12-.09-.26-.16-.41-.18-.07,0-.15,0-.22,0"/>
      <path class="cls-1" d="M225.26,2.15c-.01-.15-.02-.3-.03-.43-.01-.13-.02-.25-.03-.34,0-.09-.01-.17-.02-.2,0-.03,0-.03,0-.02"/>
      <path class="cls-2" d="M266.31,74.77c-.19-5.32-.37-10.63-.55-15.94-.18-5.3-.36-10.61-.54-15.9-.18-5.3-.35-10.59-.52-15.88"/>
      <path class="cls-1" d="M159.97,274.58c1.02,1.11,12,1.05,15.79-.45"/>
    </g>
  </g>
</svg>