<?xml version="1.0" encoding="UTF-8"?>
<svg id="Layer_2" data-name="Layer 2" xmlns="http://www.w3.org/2000/svg" viewBox="0 0 517.34 401.12">
  <defs>
    <style>
      .cls-1 {
        fill: #b6b8bb;
        stroke-width: 0px;
      }

      .cls-2 {
        stroke-width: .75px;
      }

      .cls-2, .cls-3, .cls-4 {
        fill: none;
        stroke: #231f20;
        stroke-linecap: round;
        stroke-linejoin: round;
      }

      .cls-3 {
        stroke-width: 2px;
      }
    </style>
  </defs>
  <g id="Layer_1-2" data-name="Layer 1">
    <line class="cls-3" x1="1.17" y1="171.28" x2="1.27" y2="249.68"/>
    <path class="cls-3" d="M6.11,252.19c.1.05.21.05.31.02"/>
    <polyline class="cls-3" points="133.56 215.68 138.96 214.13 189.54 199.59"/>
    <polyline class="cls-3" points="6.42 252.21 64.7 235.47 72.87 233.12"/>
    <line class="cls-3" x1="1.51" y1="250.06" x2="6.11" y2="252.19"/>
    <g>
      <path class="cls-3" d="M1.27,249.68c0,.17.09.32.25.39"/>
      <path class="cls-3" d="M317.03,302.39c-.22.08-.37.28-.37.51"/>
    </g>
    <line class="cls-3" x1="316.67" y1="302.9" x2="315.98" y2="396.47"/>
    <line class="cls-3" x1="508.87" y1="234.38" x2="317.03" y2="302.39"/>
    <path class="cls-3" d="M322.98,400.07c.13.06.28.06.42.01"/>
    <line class="cls-3" x1="323.4" y1="400.08" x2="515.73" y2="325.89"/>
    <line class="cls-3" x1="316.3" y1="396.98" x2="322.98" y2="400.07"/>
    <path class="cls-3" d="M315.98,396.47c0,.22.12.41.32.51"/>
    <line class="cls-3" x1="516.03" y1="325.44" x2="516.34" y2="237.18"/>
    <line class="cls-3" x1="515.99" y1="236.68" x2="509.2" y2="234.38"/>
    <path class="cls-3" d="M515.73,325.89c.18-.07.3-.25.31-.45"/>
    <line class="cls-4" x1="178.92" y1="134.2" x2="488.36" y2="241.5"/>
    <line class="cls-3" x1="507.94" y1="234.71" x2="189.86" y2="126.54"/>
    <line class="cls-3" x1="6.77" y1="178.83" x2="315.28" y2="307.63"/>
    <line class="cls-3" x1="328.38" y1="297.1" x2="19.31" y2="170.44"/>
    <path class="cls-3" d="M1.38,38.85c-.22.04-.38.24-.38.45"/>
    <line class="cls-3" x1="1" y1="39.3" x2="1.17" y2="171.28"/>
    <line class="cls-3" x1="185.66" y1="1" x2="1.38" y2="38.85"/>
    <line class="cls-3" x1="190.28" y1="125.93" x2="190.99" y2="2.69"/>
    <line class="cls-3" x1="190.69" y1="2.3" x2="185.86" y2="1"/>
    <line class="cls-4" x1="190.12" y1="126.03" x2="6.49" y2="173.26"/>
    <line class="cls-4" x1="5.85" y1="173.25" x2="1.25" y2="171.35"/>
    <line class="cls-4" x1="178.77" y1="129.74" x2="178.74" y2="133.9"/>
    <line class="cls-3" x1="12.8" y1="205.77" x2="315.11" y2="335.34"/>
    <line class="cls-4" x1="12.8" y1="205.77" x2="12.78" y2="181.33"/>
    <polyline class="cls-4" points="354.59 203.47 354.62 203.27 354.71 203.13 354.84 203.06 355 203.07 355.15 203.17 355.28 203.33 355.37 203.54 355.4 203.76 355.36 203.95 355.27 204.1 355.14 204.17 354.99 204.16 354.83 204.06 354.7 203.9 354.62 203.69 354.59 203.47"/>
    <polyline class="cls-4" points="458.68 240.02 458.71 239.82 458.81 239.67 458.96 239.59 459.14 239.61 459.31 239.72 459.45 239.89 459.55 240.11 459.58 240.34 459.54 240.55 459.44 240.7 459.29 240.77 459.12 240.76 458.95 240.66 458.8 240.48 458.71 240.26 458.68 240.02"/>
    <line class="cls-4" x1="488.27" y1="241.53" x2="178.9" y2="134.25"/>
    <line class="cls-4" x1="178.9" y1="134.25" x2="178.76" y2="151.29"/>
    <polyline class="cls-2" points="186.57 143.97 186.55 143.47 186.48 142.96 186.37 142.46 186.21 141.96 186.01 141.5 185.77 141.06 185.51 140.67 185.21 140.33 184.9 140.05 184.57 139.83 184.24 139.68 183.9 139.6 183.58 139.59 183.26 139.65 182.97 139.78 182.7 139.99 182.46 140.26 182.25 140.58 182.09 140.96 181.97 141.38 181.9 141.84 181.87 142.32 181.89 142.83 181.96 143.33 182.08 143.84 182.24 144.33 182.43 144.8 182.67 145.23 182.93 145.62 183.23 145.96 183.54 146.24 183.87 146.46 184.2 146.62 184.53 146.7 184.86 146.71 185.18 146.65 185.47 146.51 185.74 146.31 185.98 146.04 186.19 145.72 186.35 145.34 186.47 144.92 186.54 144.46 186.57 143.97"/>
    <polyline class="cls-4" points="193.87 147.03 193.84 146.83 193.77 146.65 193.66 146.5 193.53 146.41 193.4 146.41 193.29 146.48 193.21 146.61 193.19 146.79 193.21 146.99 193.28 147.18 193.4 147.33 193.52 147.41 193.66 147.42 193.76 147.35 193.84 147.21 193.87 147.03"/>
    <polyline class="cls-4" points="207 151.64 206.97 151.44 206.9 151.25 206.79 151.11 206.66 151.02 206.52 151.01 206.41 151.08 206.34 151.22 206.31 151.4 206.34 151.6 206.41 151.79 206.52 151.94 206.65 152.03 206.78 152.03 206.89 151.96 206.97 151.83 207 151.64"/>
    <polyline class="cls-4" points="243.01 164.29 242.99 164.08 242.91 163.89 242.79 163.74 242.66 163.65 242.52 163.64 242.4 163.71 242.32 163.85 242.29 164.04 242.32 164.24 242.4 164.43 242.51 164.59 242.65 164.68 242.79 164.68 242.91 164.61 242.98 164.48 243.01 164.29"/>
    <polyline class="cls-4" points="295.04 182.56 295.01 182.35 294.93 182.15 294.81 181.99 294.67 181.9 294.52 181.89 294.4 181.96 294.31 182.1 294.28 182.3 294.31 182.51 294.39 182.71 294.51 182.86 294.66 182.96 294.8 182.96 294.93 182.9 295.01 182.75 295.04 182.56"/>
    <polyline class="cls-4" points="413.48 224.15 413.51 223.95 413.61 223.8 413.75 223.73 413.92 223.75 414.08 223.84 414.22 224.01 414.31 224.23 414.34 224.46 414.31 224.66 414.21 224.81 414.07 224.88 413.9 224.87 413.74 224.76 413.6 224.59 413.51 224.38 413.48 224.15"/>
    <line class="cls-4" x1="6.18" y1="173.37" x2="6.27" y2="252.01"/>
    <line class="cls-3" x1="189.7" y1="199.3" x2="189.89" y2="167"/>
    <g>
      <path class="cls-3" d="M189.54,199.59c.11-.05.17-.17.16-.29"/>
      <path class="cls-4" d="M323.52,305.8c.25.09.52.09.77.01"/>
    </g>
    <line class="cls-4" x1="323.9" y1="306.03" x2="323.18" y2="399.95"/>
    <line class="cls-4" x1="516.21" y1="237.28" x2="324.29" y2="305.82"/>
    <line class="cls-4" x1="323.52" y1="305.8" x2="316.81" y2="303.04"/>
    <line class="cls-3" x1="316.67" y1="302.9" x2="316.81" y2="303.04"/>
    <path class="cls-3" d="M515.73,325.89c.12-.06.19-.19.18-.32"/>
    <line class="cls-3" x1="515.91" y1="325.57" x2="516.03" y2="325.44"/>
    <line class="cls-4" x1="178.9" y1="129.46" x2="496.72" y2="238.73"/>
    <line class="cls-4" x1="316.9" y1="302.31" x2="6.54" y2="173.67"/>
    <path class="cls-4" d="M5.71,40.87c.21.05.42.05.64,0"/>
    <line class="cls-4" x1="6.08" y1="41.1" x2="6.22" y2="173.49"/>
    <line class="cls-4" x1="190.83" y1="2.76" x2="6.35" y2="40.87"/>
    <line class="cls-4" x1="5.71" y1="40.87" x2="1.08" y2="39.36"/>
    <path class="cls-3" d="M1.46,38.86c-.23.06-.39.27-.38.5"/>
    <polyline class="cls-3" points="1.38 38.85 1.41 38.85 1.46 38.86"/>
    <polyline class="cls-3" points="1 39.3 1.01 39.32 1.04 39.35 1.08 39.36"/>
    <line class="cls-2" x1="457.89" y1="251.79" x2="179.48" y2="151.43"/>
    <polyline class="cls-2" points="174.52 158.77 174.52 159.33 443.61 256.82"/>
    <polyline class="cls-3" points="184.76 163.99 184.78 165.04 441.65 258.28"/>
    <polyline class="cls-2" points="192.7 163.51 192.49 163.45 192.25 163.41 192 163.39 191.75 163.41 191.55 163.47 191.41 163.54 191.35 163.64 191.37 163.74 191.48 163.83 191.65 163.91 191.88 163.96 192.14 163.98 192.39 163.98 192.61 163.94 192.78 163.88 192.89 163.79 192.9 163.7 192.84 163.6 192.7 163.51"/>
    <line class="cls-2" x1="178.71" y1="157.2" x2="178.71" y2="151.49"/>
    <line class="cls-2" x1="449.19" y1="254.65" x2="178.71" y2="157.2"/>
    <line class="cls-2" x1="178.71" y1="157.2" x2="174.7" y2="158.64"/>
    <g>
      <path class="cls-4" d="M193.7,160.24c-.11.04-.23.03-.34-.01l-1.26-.44c-.2-.09-.38-.29-.47-.56-.15-.42-.03-.84.28-.95"/>
      <path class="cls-4" d="M191.9,158.28l.21-.02,1.27.44c.24.04.48.27.59.58.15.42.02.85-.28.96"/>
      <path class="cls-4" d="M193.8,160.2l-.17-.04-1.27-.44c-.2-.08-.38-.28-.47-.55-.13-.37-.05-.74.17-.9"/>
      <path class="cls-4" d="M207.32,165.24c-.11.04-.23.03-.34-.02l-1.26-.44c-.2-.09-.38-.29-.47-.55-.15-.42-.02-.84.28-.95"/>
      <path class="cls-4" d="M205.52,163.28l.21-.02,1.27.44c.24.04.48.27.59.58.14.43.02.85-.28.96"/>
      <path class="cls-4" d="M207.42,165.2l-.18-.04-1.27-.44c-.2-.08-.38-.29-.47-.55-.13-.37-.05-.73.17-.9"/>
      <path class="cls-4" d="M243.56,178.27c-.11.04-.23.03-.34-.01l-1.26-.44c-.2-.09-.38-.29-.47-.55-.15-.42-.02-.85.28-.95"/>
      <path class="cls-4" d="M241.76,176.31l.21-.02,1.27.44c.24.04.48.27.59.58.14.42.02.85-.28.96"/>
      <path class="cls-4" d="M243.66,178.23l-.18-.04-1.27-.44c-.2-.08-.38-.29-.47-.55-.13-.37-.05-.73.17-.9"/>
      <path class="cls-4" d="M295.44,197.14c-.11.04-.23.03-.34-.01l-1.26-.44c-.2-.09-.38-.29-.47-.56-.15-.42-.03-.84.28-.95"/>
      <path class="cls-4" d="M293.64,195.18l.21-.02,1.27.44c.24.04.48.27.6.58.14.42.02.85-.28.96"/>
      <path class="cls-4" d="M295.54,197.1l-.18-.04-1.27-.44c-.2-.08-.38-.29-.47-.55-.13-.37-.05-.73.17-.9"/>
      <path class="cls-4" d="M355.41,218.51c-.11.04-.23.03-.34-.01l-1.26-.44c-.2-.09-.38-.29-.47-.56-.15-.42-.02-.84.28-.95"/>
      <path class="cls-4" d="M353.61,216.55l.21-.02,1.27.44c.24.04.48.27.59.58.14.42.02.85-.28.96"/>
      <path class="cls-4" d="M355.51,218.47l-.18-.04-1.27-.44c-.2-.08-.38-.29-.47-.55-.13-.37-.05-.73.17-.9"/>
      <path class="cls-4" d="M413.49,239.85c-.11.04-.23.03-.34-.02l-1.27-.44c-.2-.09-.38-.29-.47-.55-.15-.42-.03-.84.28-.95"/>
      <path class="cls-4" d="M411.7,237.89l.21-.02,1.27.44c.24.04.48.27.59.58.15.43.02.85-.28.96"/>
      <path class="cls-4" d="M413.59,239.81l-.17-.04-1.27-.44c-.2-.08-.38-.29-.47-.55-.13-.37-.05-.73.17-.9"/>
    </g>
    <line class="cls-2" x1="232.25" y1="229.57" x2="231.39" y2="230.1"/>
    <g>
      <path class="cls-2" d="M232.43,229.17c.13.04.1.17-.08.33l-.05.04"/>
      <path class="cls-2" d="M231.6,229.97c-.21.15-.49.25-.66.23h-.06"/>
    </g>
    <line class="cls-2" x1="235.61" y1="227.14" x2="234.75" y2="227.68"/>
    <g>
      <path class="cls-2" d="M235.78,226.75c.13.04.11.19-.08.33l-.05.04"/>
      <path class="cls-2" d="M234.95,227.55c-.2.14-.48.24-.66.23h-.06"/>
    </g>
    <line class="cls-2" x1="242.39" y1="222.27" x2="241.53" y2="222.81"/>
    <g>
      <path class="cls-2" d="M242.57,221.87c.13.04.1.19-.08.34l-.05.04"/>
      <path class="cls-2" d="M241.74,222.68c-.21.15-.49.24-.66.23h-.06"/>
    </g>
    <line class="cls-2" x1="245.79" y1="219.82" x2="244.92" y2="220.36"/>
    <g>
      <path class="cls-2" d="M245.97,219.42c.13.04.1.18-.08.33l-.05.04"/>
      <path class="cls-2" d="M245.13,220.23c-.21.15-.49.24-.66.23h-.06"/>
    </g>
    <line class="cls-2" x1="249.17" y1="217.37" x2="248.3" y2="217.91"/>
    <g>
      <path class="cls-2" d="M249.35,216.97c.13.04.1.19-.08.34l-.05.04"/>
      <path class="cls-2" d="M248.51,217.78c-.21.15-.49.24-.66.23h-.06"/>
    </g>
    <line class="cls-2" x1="231.25" y1="233.83" x2="211.49" y2="247.95"/>
    <line class="cls-2" x1="209.72" y1="247.51" x2="230.87" y2="232.51"/>
    <line class="cls-2" x1="227.15" y1="231.66" x2="206.8" y2="246.27"/>
    <polyline class="cls-2" points="280.12 198.89 231.47 233.85 231.4 232.3"/>
    <line class="cls-2" x1="231.42" y1="232.3" x2="278.62" y2="198.35"/>
    <polyline class="cls-2" points="235.58 224.84 234.22 225.82 227 231.03 231.42 232.3"/>
    <line class="cls-2" x1="274.36" y1="196.78" x2="238.84" y2="222.49"/>
    <path class="cls-4" d="M356.42,226.87c.19.15.43.26.69.31"/>
    <line class="cls-2" x1="227" y1="231.03" x2="227.02" y2="231.46"/>
    <line class="cls-2" x1="281.59" y1="253.09" x2="246.04" y2="262.15"/>
    <line class="cls-2" x1="243.86" y1="261.26" x2="281.1" y2="251.68"/>
    <line class="cls-2" x1="278.94" y1="250.32" x2="240.95" y2="260.08"/>
    <line class="cls-2" x1="281.6" y1="251.63" x2="361.87" y2="228.99"/>
    <polyline class="cls-2" points="292.52 245.76 290.8 246.24 288.79 246.8 278.94 249.58 278.97 250.02"/>
    <line class="cls-2" x1="357.54" y1="227.47" x2="296.95" y2="244.51"/>
    <polyline class="cls-2" points="281.56 251.58 281.69 253.05 363.71 229.87"/>
    <line class="cls-2" x1="284.84" y1="249.33" x2="283.85" y2="249.59"/>
    <g>
      <path class="cls-2" d="M285.39,249.54c0-.16-.18-.26-.43-.24h-.06"/>
      <path class="cls-2" d="M284.09,249.53c-.25.05-.49.2-.53.37v.06"/>
    </g>
    <line class="cls-2" x1="290.24" y1="247.81" x2="289.26" y2="248.07"/>
    <g>
      <path class="cls-2" d="M290.8,248.02c0-.16-.18-.26-.44-.23h-.06"/>
      <path class="cls-2" d="M289.5,248.01c-.26.05-.49.21-.54.37v.06"/>
    </g>
    <line class="cls-2" x1="301.11" y1="244.76" x2="300.11" y2="245.03"/>
    <g>
      <path class="cls-2" d="M301.66,244.97c0-.15-.18-.26-.43-.23h-.07"/>
      <path class="cls-2" d="M300.35,244.96c-.26.04-.49.2-.54.37v.06"/>
    </g>
    <line class="cls-2" x1="306.55" y1="243.23" x2="305.56" y2="243.5"/>
    <g>
      <path class="cls-2" d="M307.11,243.44c0-.16-.17-.26-.43-.24h-.07"/>
      <path class="cls-2" d="M305.8,243.43c-.26.04-.49.2-.54.37v.06"/>
    </g>
    <line class="cls-2" x1="312.02" y1="241.7" x2="311.02" y2="241.96"/>
    <g>
      <path class="cls-2" d="M312.57,241.91c0-.16-.17-.26-.44-.24h-.06"/>
      <path class="cls-2" d="M311.26,241.9c-.25.05-.49.21-.54.38v.06"/>
    </g>
    <line class="cls-2" x1="281.59" y1="251.53" x2="279.03" y2="249.55"/>
    <polyline class="cls-2" points="367.26 225.32 367.26 225.25 367.25 225.17 367.23 225.09 367.2 225.01 367.17 224.93 367.13 224.86 367.07 224.79 367.01 224.71 366.94 224.64 366.87 224.58 366.78 224.51 366.68 224.45 366.59 224.38 366.48 224.33 366.36 224.28 366.24 224.23 366.12 224.19 365.99 224.14 365.86 224.11 365.72 224.07 365.59 224.04 365.44 224.01 365.3 223.99 365.15 223.97 365.01 223.95 364.86 223.95 364.7 223.94 364.56 223.93 364.41 223.93 364.26 223.93 364.11 223.94 363.96 223.96 363.82 223.97 363.68 223.98 363.54 224.01 363.4 224.04 363.27 224.07 363.14 224.1 363.01 224.14 362.89 224.18 362.78 224.23 362.67 224.28 362.57 224.33 362.47 224.39 362.38 224.46 362.29 224.52 362.22 224.6 362.15 224.67 362.1 224.75 362.05 224.83 362.01 224.91 361.99 224.99 361.97 225.07 361.96 225.15 361.96 225.16"/>
    <line class="cls-2" x1="367.24" y1="226.22" x2="367.26" y2="225.33"/>
    <line class="cls-2" x1="361.96" y1="225.16" x2="361.94" y2="226.06"/>
    <polyline class="cls-2" points="361.94 226.06 361.93 226.07 361.94 226.14 361.95 226.21 361.97 226.28 362 226.35 362.04 226.42 362.09 226.49 362.14 226.55 362.2 226.62 362.27 226.68 362.35 226.74 362.44 226.8 362.53 226.86 362.63 226.91 362.74 226.97 362.85 227.01 362.97 227.06 363.1 227.1 363.23 227.14 363.35 227.18 363.49 227.21 363.63 227.24 363.78 227.26 363.92 227.29 364.07 227.3 364.22 227.32 364.37 227.33 364.52 227.34 364.67 227.34 364.82 227.34 364.97 227.34 365.11 227.33 365.26 227.31 365.41 227.3 365.55 227.28 365.69 227.26 365.83 227.23 365.96 227.2 366.09 227.17 366.21 227.14 366.33 227.09 366.44 227.06 366.55 227.01 366.65 226.96 366.74 226.9 366.82 226.85 366.91 226.79 366.97 226.73 367.04 226.67 367.1 226.6 367.14 226.53 367.18 226.46 367.21 226.39 367.23 226.32 367.24 226.24 367.24 226.22"/>
    <line class="cls-2" x1="361.94" y1="226.06" x2="361.94" y2="226.06"/>
    <line class="cls-2" x1="367.24" y1="226.22" x2="367.24" y2="226.22"/>
    <line class="cls-2" x1="364.73" y1="225.27" x2="364.81" y2="225.27"/>
    <line class="cls-2" x1="364.81" y1="225.27" x2="365.38" y2="225.53"/>
    <path class="cls-2" d="M365.38,225.53c.2-.04.39-.11.57-.22"/>
    <line class="cls-2" x1="365.37" y1="224.89" x2="365.97" y2="224.66"/>
    <line class="cls-2" x1="363.3" y1="224.57" x2="363.87" y2="224.84"/>
    <path class="cls-2" d="M363.28,225.23c.16.12.35.2.55.25"/>
    <line class="cls-2" x1="363.84" y1="225.48" x2="364.42" y2="225.25"/>
    <line class="cls-2" x1="364.42" y1="225.25" x2="364.49" y2="225.26"/>
    <polyline class="cls-2" points="281.13 194.39 281.13 194.31 281.12 194.23 281.11 194.16 281.08 194.08 281.05 194 281.01 193.92 280.95 193.86 280.89 193.78 280.82 193.71 280.74 193.64 280.65 193.58 280.56 193.51 280.46 193.45 280.35 193.39 280.24 193.34 280.12 193.3 279.99 193.25 279.87 193.21 279.73 193.17 279.6 193.14 279.46 193.11 279.31 193.08 279.18 193.06 279.03 193.04 278.88 193.02 278.73 193.01 278.58 193 278.43 193 278.28 193 278.14 193 277.99 193.01 277.84 193.02 277.69 193.03 277.55 193.05 277.42 193.07 277.27 193.11 277.14 193.14 277.01 193.17 276.89 193.21 276.77 193.25 276.66 193.3 276.55 193.35 276.44 193.4 276.35 193.46 276.25 193.53 276.17 193.59 276.09 193.67 276.03 193.74 275.98 193.82 275.93 193.9 275.89 193.98 275.86 194.05 275.85 194.14 275.84 194.22 275.84 194.23"/>
    <line class="cls-2" x1="281.11" y1="195.29" x2="281.13" y2="194.39"/>
    <line class="cls-2" x1="275.84" y1="194.23" x2="275.82" y2="195.12"/>
    <polyline class="cls-2" points="275.82 195.12 275.81 195.13 275.82 195.21 275.83 195.27 275.84 195.35 275.87 195.41 275.91 195.48 275.96 195.55 276.02 195.62 276.08 195.68 276.15 195.75 276.22 195.81 276.31 195.87 276.41 195.93 276.51 195.98 276.62 196.03 276.73 196.08 276.85 196.13 276.97 196.17 277.1 196.2 277.23 196.24 277.37 196.27 277.51 196.3 277.66 196.33 277.8 196.35 277.94 196.37 278.1 196.38 278.25 196.39 278.4 196.4 278.55 196.4 278.7 196.41 278.84 196.4 278.99 196.39 279.14 196.38 279.29 196.37 279.43 196.34 279.57 196.32 279.7 196.3 279.84 196.27 279.97 196.23 280.08 196.2 280.2 196.16 280.32 196.12 280.42 196.07 280.52 196.02 280.61 195.97 280.7 195.92 280.78 195.86 280.85 195.8 280.92 195.73 280.98 195.66 281.02 195.6 281.06 195.53 281.08 195.45 281.1 195.38 281.11 195.31 281.11 195.29"/>
    <line class="cls-2" x1="275.82" y1="195.12" x2="275.82" y2="195.12"/>
    <line class="cls-2" x1="281.11" y1="195.29" x2="281.11" y2="195.29"/>
    <line class="cls-2" x1="278.61" y1="194.34" x2="278.68" y2="194.33"/>
    <line class="cls-2" x1="278.69" y1="194.33" x2="279.25" y2="194.6"/>
    <path class="cls-2" d="M279.25,194.6c.2-.04.39-.11.57-.22"/>
    <line class="cls-2" x1="279.25" y1="193.95" x2="279.84" y2="193.73"/>
    <line class="cls-2" x1="277.18" y1="193.64" x2="277.75" y2="193.91"/>
    <path class="cls-2" d="M277.16,194.29c.16.12.35.2.55.26"/>
    <line class="cls-2" x1="277.71" y1="194.55" x2="278.3" y2="194.32"/>
    <line class="cls-2" x1="278.3" y1="194.32" x2="278.37" y2="194.33"/>
    <polyline class="cls-2" points="240.86 224.1 240.86 224.03 240.85 223.94 240.83 223.87 240.8 223.79 240.77 223.71 240.73 223.64 240.67 223.57 240.61 223.49 240.54 223.42 240.47 223.35 240.38 223.29 240.28 223.23 240.19 223.16 240.08 223.11 239.96 223.05 239.84 223.01 239.72 222.96 239.59 222.92 239.46 222.88 239.32 222.85 239.19 222.82 239.04 222.79 238.9 222.77 238.75 222.75 238.61 222.73 238.46 222.72 238.3 222.71 238.16 222.71 238.01 222.71 237.86 222.71 237.71 222.72 237.56 222.73 237.42 222.74 237.28 222.76 237.14 222.78 237 222.82 236.87 222.85 236.74 222.88 236.62 222.92 236.49 222.96 236.38 223.01 236.27 223.06 236.17 223.11 236.07 223.17 235.98 223.24 235.89 223.3 235.82 223.38 235.75 223.45 235.7 223.53 235.65 223.61 235.61 223.69 235.59 223.76 235.57 223.85 235.57 223.93 235.57 223.94"/>
    <line class="cls-2" x1="240.84" y1="225" x2="240.86" y2="224.11"/>
    <line class="cls-2" x1="235.57" y1="223.94" x2="235.54" y2="224.83"/>
    <polyline class="cls-2" points="235.54 224.83 235.54 224.84 235.54 224.92 235.55 224.98 235.57 225.06 235.6 225.13 235.64 225.2 235.69 225.26 235.74 225.33 235.81 225.39 235.87 225.46 235.95 225.52 236.04 225.58 236.13 225.64 236.23 225.69 236.34 225.74 236.45 225.79 236.57 225.84 236.7 225.88 236.83 225.91 236.96 225.95 237.09 225.98 237.24 226.02 237.38 226.04 237.52 226.06 237.67 226.08 237.82 226.09 237.97 226.1 238.12 226.11 238.27 226.12 238.43 226.12 238.57 226.11 238.72 226.11 238.86 226.09 239.01 226.08 239.16 226.06 239.29 226.03 239.43 226.01 239.56 225.98 239.69 225.95 239.81 225.91 239.93 225.87 240.05 225.83 240.15 225.78 240.25 225.73 240.34 225.68 240.42 225.63 240.51 225.57 240.58 225.51 240.64 225.44 240.7 225.37 240.74 225.31 240.78 225.24 240.81 225.16 240.83 225.09 240.84 225.02 240.84 225"/>
    <line class="cls-2" x1="235.54" y1="224.83" x2="235.54" y2="224.83"/>
    <line class="cls-2" x1="240.84" y1="225" x2="240.84" y2="225"/>
    <line class="cls-2" x1="238.33" y1="224.05" x2="238.41" y2="224.04"/>
    <line class="cls-2" x1="238.41" y1="224.04" x2="238.98" y2="224.31"/>
    <path class="cls-2" d="M238.98,224.31c.2-.04.39-.11.57-.22"/>
    <line class="cls-2" x1="238.98" y1="223.66" x2="239.57" y2="223.44"/>
    <line class="cls-2" x1="236.9" y1="223.35" x2="237.48" y2="223.62"/>
    <path class="cls-2" d="M236.89,224c.16.12.35.2.55.25"/>
    <line class="cls-2" x1="237.44" y1="224.26" x2="238.03" y2="224.03"/>
    <line class="cls-2" x1="238.02" y1="224.03" x2="238.09" y2="224.04"/>
    <polyline class="cls-2" points="297.73 245.51 297.73 245.43 297.72 245.35 297.7 245.28 297.67 245.2 297.64 245.12 297.6 245.04 297.54 244.97 297.48 244.9 297.41 244.83 297.34 244.76 297.25 244.7 297.15 244.63 297.06 244.57 296.95 244.51 296.83 244.46 296.71 244.41 296.59 244.37 296.46 244.33 296.33 244.29 296.19 244.25 296.06 244.22 295.91 244.2 295.77 244.17 295.62 244.15 295.48 244.14 295.33 244.13 295.17 244.12 295.03 244.11 294.88 244.12 294.73 244.12 294.58 244.13 294.44 244.14 294.29 244.15 294.15 244.17 294.01 244.19 293.87 244.22 293.74 244.25 293.61 244.29 293.49 244.32 293.36 244.37 293.25 244.41 293.14 244.46 293.04 244.52 292.94 244.57 292.85 244.64 292.76 244.71 292.69 244.78 292.62 244.85 292.57 244.93 292.52 245.01 292.48 245.09 292.46 245.17 292.44 245.25 292.44 245.33 292.44 245.34"/>
    <line class="cls-2" x1="297.71" y1="246.4" x2="297.73" y2="245.51"/>
    <line class="cls-2" x1="292.44" y1="245.34" x2="292.41" y2="246.24"/>
    <polyline class="cls-2" points="292.41 246.24 292.41 246.25 292.41 246.32 292.42 246.39 292.44 246.46 292.47 246.53 292.51 246.6 292.56 246.67 292.61 246.73 292.68 246.8 292.74 246.87 292.82 246.92 292.91 246.98 293 247.04 293.1 247.1 293.21 247.15 293.32 247.2 293.44 247.24 293.57 247.29 293.7 247.32 293.83 247.36 293.96 247.39 294.1 247.42 294.25 247.44 294.39 247.47 294.54 247.48 294.69 247.5 294.84 247.51 294.99 247.52 295.14 247.52 295.29 247.52 295.44 247.52 295.59 247.51 295.73 247.5 295.88 247.48 296.03 247.46 296.16 247.44 296.3 247.41 296.43 247.39 296.56 247.35 296.68 247.32 296.8 247.28 296.92 247.24 297.02 247.19 297.12 247.14 297.21 247.08 297.29 247.04 297.38 246.97 297.44 246.91 297.51 246.85 297.57 246.78 297.61 246.71 297.65 246.64 297.68 246.57 297.7 246.5 297.71 246.43 297.71 246.4"/>
    <line class="cls-2" x1="292.41" y1="246.24" x2="292.41" y2="246.24"/>
    <line class="cls-2" x1="297.71" y1="246.4" x2="297.71" y2="246.4"/>
    <line class="cls-2" x1="295.2" y1="245.46" x2="295.28" y2="245.45"/>
    <line class="cls-2" x1="295.28" y1="245.45" x2="295.85" y2="245.72"/>
    <path class="cls-2" d="M295.85,245.72c.2-.04.39-.11.57-.22"/>
    <line class="cls-2" x1="295.85" y1="245.07" x2="296.44" y2="244.84"/>
    <line class="cls-2" x1="293.77" y1="244.76" x2="294.34" y2="245.03"/>
    <path class="cls-2" d="M293.76,245.41c.16.12.35.2.55.26"/>
    <line class="cls-2" x1="294.31" y1="245.66" x2="294.89" y2="245.43"/>
    <line class="cls-2" x1="294.89" y1="245.43" x2="294.96" y2="245.45"/>
    <path class="cls-2" d="M318.38,209.37l-.06.04-.15.07-.23.07c-.1.03-.2.05-.3.06-.12.02-.23.03-.36.04-.13,0-.26.01-.4.01-.14,0-.28,0-.42-.02-.14,0-.28-.03-.41-.04-.13-.02-.26-.05-.39-.08-.12-.03-.24-.06-.34-.1-.1-.03-.18-.07-.26-.1"/>
    <polyline class="cls-2" points="315.06 209.32 314.94 209.25 314.78 209.15 314.72 209.09"/>
    <polyline class="cls-2" points="314.87 209.31 314.57 209.15 314.37 208.97 314.26 208.79 314.24 208.6 314.31 208.42 314.49 208.26 314.75 208.12 315.08 208.01 315.49 207.93 315.93 207.88 316.41 207.87 316.89 207.9 317.37 207.97 317.81 208.07 318.2 208.2 318.53 208.35 318.78 208.52 318.94 208.7 319.01 208.89 318.98 209.07 318.85 209.24 318.63 209.39 318.34 209.51 317.96 209.61 317.54 209.68 317.08 209.7 316.59 209.69 316.11 209.65 315.65 209.57 315.23 209.45 314.87 209.31"/>
    <line class="cls-2" x1="318.38" y1="209.38" x2="318.4" y2="209.36"/>
    <path class="cls-2" d="M317.39,209.42c-.54-.31-1.47-.31-2.06,0"/>
    <polyline class="cls-2" points="317.66 209.61 317.59 209.54 317.39 209.42"/>
    <path class="cls-2" d="M317.15,209.65c-.32-.29-.91-.34-1.31-.1"/>
    <polyline class="cls-4" points="185.04 140.72 185.05 140.72 185.05 140.73 185.06 140.74 185.07 140.75 185.07 140.76 185.08 140.77 185.09 140.79 185.09 140.8 185.1 140.81 185.11 140.82 185.11 140.84 185.12 140.85 185.12 140.86 185.12 140.88 185.13 140.89 185.13 140.9 185.14 140.92 185.14 140.93 185.14 140.95 185.14 140.96 185.14 140.97 185.15 140.99 185.15 141 185.15 141.01 185.15 141.03 185.15 141.04 185.15 141.05 185.15 141.07 185.14 141.08 185.14 141.09 185.14 141.11 185.14 141.12 185.14 141.13 185.13 141.14 185.13 141.15 185.12 141.16 185.12 141.17 185.12 141.18 185.11 141.19 185.11 141.2 185.1 141.2 185.1 141.21 185.09 141.22 185.09 141.22 185.08 141.23 185.07 141.24 185.07 141.24"/>
    <polyline class="cls-2" points="185.1 146.11 185.09 146.12 185.05 146.13"/>
    <polyline class="cls-4" points="183.59 142.41 183.59 142.43 183.6 142.44 183.6 142.46 183.6 142.47 183.59 142.49 183.59 142.5 183.59 142.52 183.59 142.53 183.59 142.54 183.59 142.56 183.58 142.57 183.58 142.58 183.57 142.59 183.57 142.6 183.57 142.62 183.56 142.63 183.56 142.64 183.55 142.65 183.54 142.66 183.54 142.67 183.53 142.67 183.52 142.68 183.52 142.69 183.51 142.7 183.5 142.7 183.49 142.71 183.48 142.71 183.48 142.72 183.47 142.72 183.46 142.72 183.45 142.72 183.44 142.73 183.43 142.73 183.42 142.73 183.41 142.73 183.4 142.73 183.39 142.73 183.38 142.72 183.37 142.72 183.37 142.72 183.35 142.71 183.34 142.71 183.33 142.7 183.32 142.7 183.32 142.69 183.3 142.68 183.3 142.68 183.29 142.67 183.28 142.66"/>
    <line class="cls-4" x1="183.44" y1="140.54" x2="183.59" y2="142.41"/>
    <polyline class="cls-4" points="183.13 140.21 183.14 140.21 183.15 140.2 183.16 140.2 183.17 140.2 183.17 140.19 183.18 140.19 183.19 140.19 183.2 140.19 183.21 140.19 183.22 140.19 183.23 140.2 183.24 140.2 183.25 140.2 183.25 140.21 183.27 140.21 183.28 140.22 183.28 140.22 183.29 140.23 183.3 140.24 183.31 140.24 183.32 140.25 183.33 140.26 183.34 140.27 183.34 140.28 183.35 140.29 183.36 140.3 183.37 140.31 183.37 140.32 183.38 140.33 183.39 140.35 183.39 140.36 183.4 140.37 183.41 140.38 183.41 140.4 183.42 140.41 183.42 140.42 183.42 140.44 183.43 140.45 183.43 140.47 183.43 140.48 183.44 140.5 183.44 140.51 183.44 140.53 183.44 140.54"/>
    <polyline class="cls-4" points="184.3 143.99 184.3 143.98 184.31 143.98 184.32 143.97 184.33 143.97 184.34 143.97 184.35 143.96 184.36 143.96 184.37 143.96 184.37 143.96 184.38 143.96 184.4 143.96 184.4 143.96 184.41 143.96 184.42 143.97 184.43 143.97 184.44 143.97 184.45 143.98 184.46 143.98 184.47 143.99 184.48 143.99 184.49 144 184.5 144.01 184.51 144.02 184.52 144.03 184.53 144.03 184.54 144.04 184.55 144.05 184.56 144.06 184.56 144.07 184.57 144.09 184.58 144.1 184.59 144.11 184.59 144.12 184.6 144.14 184.61 144.15 184.61 144.16 184.62 144.18 184.63 144.19 184.63 144.2 184.64 144.22 184.64 144.23 184.64 144.25 184.65 144.27 184.65 144.28 184.65 144.29 184.66 144.31 184.66 144.33 184.66 144.34 184.66 144.35"/>
    <line class="cls-4" x1="183.32" y1="144.74" x2="184.3" y2="143.99"/>
    <path class="cls-4" d="M183.32,144.74c-.12.16-.11.39.03.52"/>
    <polyline class="cls-4" points="184.8 143.53 184.8 143.52 184.8 143.5 184.8 143.49 184.8 143.47 184.8 143.46 184.8 143.44 184.8 143.43 184.8 143.42 184.81 143.4 184.81 143.39 184.81 143.37 184.82 143.36 184.82 143.35 184.82 143.34 184.83 143.33 184.83 143.32 184.84 143.31 184.84 143.3 184.85 143.29 184.86 143.28 184.86 143.27 184.87 143.26 184.88 143.26 184.89 143.25 184.89 143.24 184.9 143.24 184.91 143.23 184.92 143.23 184.93 143.22 184.94 143.22 184.95 143.22 184.96 143.22 184.96 143.22 184.97 143.22 184.98 143.22 184.99 143.22 185 143.22 185.01 143.22 185.02 143.22 185.03 143.23 185.04 143.23 185.05 143.24 185.06 143.24 185.07 143.25 185.08 143.25 185.09 143.26 185.1 143.27 185.11 143.28 185.12 143.29"/>
    <line class="cls-4" x1="184.95" y1="145.44" x2="184.8" y2="143.53"/>
    <polyline class="cls-4" points="185.27 145.76 185.26 145.77 185.25 145.77 185.24 145.78 185.23 145.78 185.22 145.78 185.22 145.78 185.21 145.78 185.2 145.78 185.19 145.78 185.18 145.78 185.17 145.78 185.16 145.78 185.15 145.77 185.14 145.77 185.13 145.77 185.12 145.76 185.11 145.75 185.1 145.75 185.1 145.74 185.09 145.73 185.08 145.72 185.07 145.72 185.06 145.71 185.05 145.7 185.04 145.69 185.04 145.68 185.03 145.67 185.02 145.65 185.01 145.64 185.01 145.63 185 145.62 185 145.61 184.99 145.59 184.99 145.58 184.98 145.57 184.98 145.55 184.97 145.54 184.97 145.52 184.97 145.51 184.96 145.49 184.96 145.48 184.96 145.47 184.95 145.45 184.95 145.44"/>
    <polyline class="cls-4" points="184.08 142 184.08 142.01 184.07 142.01 184.06 142.02 184.05 142.02 184.04 142.02 184.03 142.03 184.02 142.03 184.01 142.03 184 142.03 183.99 142.03 183.99 142.03 183.98 142.03 183.97 142.03 183.96 142.02 183.95 142.02 183.94 142.02 183.93 142.01 183.92 142.01 183.91 142 183.9 142 183.89 141.99 183.88 141.98 183.87 141.97 183.86 141.97 183.85 141.96 183.84 141.95 183.83 141.94 183.83 141.93 183.82 141.91 183.81 141.9 183.8 141.89 183.79 141.88 183.79 141.87 183.78 141.85 183.77 141.84 183.77 141.83 183.76 141.81 183.75 141.8 183.75 141.79 183.74 141.77 183.74 141.76 183.74 141.74 183.73 141.73 183.73 141.71 183.72 141.7 183.72 141.68 183.72 141.66 183.72 141.65 183.72 141.63"/>
    <line class="cls-4" x1="185.07" y1="141.24" x2="184.08" y2="142"/>
    <path class="cls-4" d="M184.65,141.95c-.14.19-.12.46.05.62"/>
    <line class="cls-4" x1="185.83" y1="143.69" x2="184.71" y2="142.56"/>
    <polyline class="cls-4" points="186.11 143.49 186.11 143.51 186.11 143.52 186.11 143.53 186.1 143.55 186.1 143.56 186.1 143.57 186.1 143.59 186.1 143.6 186.09 143.61 186.09 143.62 186.09 143.63 186.08 143.64 186.08 143.65 186.07 143.67 186.07 143.68 186.06 143.68 186.06 143.69 186.05 143.7 186.04 143.71 186.04 143.72 186.03 143.72 186.02 143.73 186.01 143.73 186.01 143.74 186 143.74 185.99 143.74 185.98 143.75 185.97 143.75 185.96 143.75 185.95 143.75 185.95 143.75 185.94 143.75 185.93 143.75 185.92 143.74 185.91 143.74 185.9 143.74 185.89 143.73 185.88 143.73 185.87 143.72 185.86 143.72 185.85 143.71 185.84 143.7 185.84 143.7 185.83 143.69"/>
    <line class="cls-4" x1="182.57" y1="142.29" x2="183.71" y2="143.43"/>
    <polyline class="cls-4" points="182.29 142.49 182.29 142.47 182.29 142.46 182.29 142.44 182.29 142.43 182.29 142.42 182.29 142.4 182.3 142.39 182.3 142.38 182.3 142.36 182.31 142.36 182.31 142.34 182.31 142.33 182.32 142.32 182.32 142.31 182.33 142.3 182.34 142.29 182.34 142.29 182.35 142.28 182.35 142.27 182.36 142.26 182.37 142.26 182.37 142.25 182.38 142.25 182.39 142.24 182.4 142.24 182.41 142.23 182.42 142.23 182.42 142.23 182.43 142.23 182.44 142.23 182.45 142.23 182.46 142.23 182.47 142.23 182.48 142.23 182.49 142.24 182.5 142.24 182.51 142.24 182.52 142.25 182.52 142.25 182.53 142.26 182.54 142.27 182.55 142.27 182.56 142.28 182.57 142.29"/>
    <path class="cls-4" d="M183.76,144.05c.14-.19.12-.46-.05-.61"/>
    <polygon class="cls-1" points="184.14 145.12 183.96 145.07 184.14 145.82 184.22 145.83 184.44 145.23 184.29 145.18 184.3 144.74 184.14 144.68 184.14 145.12"/>
    <polygon class="cls-4" points="184.3 144.74 184.29 145.18 184.44 145.23 184.22 145.84 184.14 145.82 183.96 145.07 184.14 145.12 184.14 144.68 184.3 144.74"/>
    <polyline class="cls-2" points="105.5 156.26 105.48 155.79 105.39 155.34 105.26 154.92 105.08 154.52 104.85 154.16 104.58 153.84 104.27 153.57 103.93 153.34 103.55 153.17 103.15 153.05 102.73 152.98 102.3 152.98 101.85 153.03 101.41 153.14 100.97 153.3 100.55 153.52 100.14 153.78 99.75 154.1 99.4 154.45 99.07 154.84 98.78 155.26 98.54 155.71 98.34 156.18 98.19 156.66 98.09 157.14 98.04 157.62 98.05 158.1 98.11 158.56 98.21 159 98.38 159.41 98.58 159.79 98.84 160.13 99.13 160.42 99.46 160.68 99.82 160.87 100.21 161.02 100.62 161.11 101.05 161.14 101.49 161.11 101.93 161.03 102.37 160.89 102.8 160.7 103.22 160.46 103.61 160.17 103.99 159.84 104.32 159.46 104.63 159.06 104.89 158.62 105.11 158.17 105.28 157.7 105.41 157.22 105.48 156.74 105.5 156.26"/>
    <path class="cls-2" d="M98.54,158.98c.61-.37,1.68-.76,2.59-2.08.13-.19.22-.4.31-.61"/>
    <polyline class="cls-4" points="104.97 154.49 102.63 155.14 102.63 155.81 101.16 156.16 101.16 155.45 98.76 156.09"/>
    <line class="cls-2" x1="101.15" y1="156" x2="100.3" y2="155.84"/>
    <polyline class="cls-2" points="170.53 139.33 170.5 138.87 170.42 138.42 170.29 137.99 170.1 137.6 169.87 137.24 169.6 136.92 169.29 136.64 168.95 136.42 168.57 136.24 168.17 136.13 167.75 136.06 167.32 136.06 166.88 136.11 166.44 136.22 166 136.38 165.57 136.6 165.16 136.86 164.78 137.17 164.42 137.53 164.09 137.92 163.81 138.34 163.56 138.79 163.37 139.25 163.22 139.73 163.12 140.22 163.07 140.7 163.07 141.18 163.13 141.64 163.24 142.08 163.4 142.49 163.61 142.86 163.86 143.21 164.15 143.5 164.48 143.75 164.85 143.95 165.24 144.09 165.65 144.18 166.08 144.22 166.51 144.19 166.95 144.11 167.39 143.97 167.83 143.78 168.24 143.54 168.64 143.25 169.01 142.92 169.35 142.54 169.65 142.14 169.91 141.7 170.13 141.25 170.31 140.77 170.43 140.3 170.51 139.82 170.53 139.33"/>
    <path class="cls-2" d="M163.56,142.06c.61-.37,1.68-.76,2.59-2.08.13-.19.22-.4.31-.61"/>
    <polyline class="cls-4" points="169.99 137.57 167.65 138.22 167.65 138.89 166.18 139.24 166.18 138.53 163.78 139.17"/>
    <line class="cls-2" x1="166.18" y1="139.08" x2="165.32" y2="138.92"/>
    <polyline class="cls-2" points="36.77 175.21 36.81 175.09 36.93 174.61 37.01 174.13 37.03 173.65"/>
    <polyline class="cls-2" points="37.03 173.65 37 173.18 36.92 172.74 36.79 172.31 36.6 171.92 36.38 171.56 36.11 171.24 35.8 170.96 35.45 170.74 35.08 170.56 34.68 170.44 34.26 170.38 33.82 170.38 33.38 170.43 32.94 170.53 32.5 170.7 32.07 170.92 31.67 171.18 31.28 171.49 30.92 171.84"/>
    <polyline class="cls-4" points="36.49 171.89 34.15 172.54 34.15 173.2 32.69 173.56 32.69 172.85 31.17 173.25"/>
    <line class="cls-2" x1="32.68" y1="173.4" x2="31.82" y2="173.24"/>
  </g>
</svg>