<?xml version="1.0" encoding="UTF-8"?>
<svg id="Layer_2" data-name="Layer 2" xmlns="http://www.w3.org/2000/svg" viewBox="0 0 114.14 109.7">
  <defs>
    <style>
      .cls-1 {
        fill: none;
        stroke: #231f20;
        stroke-linecap: round;
        stroke-linejoin: round;
        stroke-width: .75px;
      }
    </style>
  </defs>
  <g id="Layer_1-2" data-name="Layer 1">
    <g>
      <path class="cls-1" d="M35,99.21c-.06.28-.08.57-.08.85,0,.41.06.82.17,1.21"/>
      <path class="cls-1" d="M38.36,93.24c-1.74,1.57-2.92,3.67-3.36,5.97"/>
      <path class="cls-1" d="M40.17,92.24c-.67.19-1.29.53-1.81,1"/>
      <path class="cls-1" d="M40.84,92.19c-.08-.01-.15-.02-.23-.02-.15,0-.3.02-.45.06"/>
      <path class="cls-1" d="M35.08,101.27c.08.28.22.53.43.73"/>
      <path class="cls-1" d="M100.43,5.99c-.45-.1-.91-.02-1.29.19"/>
      <path class="cls-1" d="M102.03,6.75c-.1-.08-.2-.15-.3-.21-.4-.26-.84-.44-1.3-.54"/>
      <path class="cls-1" d="M104.89,11.17c-.45-1.74-1.45-3.29-2.86-4.42"/>
      <path class="cls-1" d="M104.92,12.94c.13-.58.11-1.19-.04-1.77"/>
      <path class="cls-1" d="M104.17,14.08c.19-.13.36-.31.49-.51.12-.19.21-.4.26-.63"/>
    </g>
    <line class="cls-1" x1="111.01" y1=".84" x2="101.99" y2="6.37"/>
    <line class="cls-1" x1="113.76" y1="4.37" x2="104.6" y2="9.98"/>
    <line class="cls-1" x1="51.77" y1="100.1" x2="48.47" y2="104.78"/>
    <line class="cls-1" x1="48.47" y1="104.78" x2="48.47" y2="109.32"/>
    <line class="cls-1" x1="38.77" y1="92.91" x2="51.77" y2="100.1"/>
    <line class="cls-1" x1="55.07" y1="100.1" x2="51.77" y2="100.1"/>
    <line class="cls-1" x1="35.48" y1="97.48" x2="48.47" y2="104.78"/>
    <line class="cls-1" x1="41.96" y1="92.81" x2="55.07" y2="100.1"/>
    <line class="cls-1" x1="13.17" y1="76.72" x2="41.96" y2="92.81"/>
    <line class="cls-1" x1="104.84" y1="13.63" x2="10.86" y2="74.6"/>
    <line class="cls-1" x1="108.6" y1=".38" x2="99.68" y2="5.91"/>
    <line class="cls-1" x1="111.01" y1=".84" x2="108.6" y2=".38"/>
    <line class="cls-1" x1="113.76" y1="4.37" x2="111.01" y2=".84"/>
    <line class="cls-1" x1="113.32" y1="8.18" x2="113.76" y2="4.37"/>
    <line class="cls-1" x1="104.67" y1="13.72" x2="113.32" y2="8.19"/>
    <line class="cls-1" x1="6.15" y1="65.16" x2="99.14" y2="6.18"/>
    <line class="cls-1" x1="36.03" y1="102.29" x2="6.56" y2="85.67"/>
    <line class="cls-1" x1="48.47" y1="109.32" x2="36.03" y2="102.29"/>
    <line class="cls-1" x1="51.77" y1="109.19" x2="48.47" y2="109.32"/>
    <line class="cls-1" x1="55.07" y1="104.51" x2="51.77" y2="109.19"/>
    <line class="cls-1" x1="55.07" y1="100.1" x2="55.07" y2="104.51"/>
    <g>
      <path class="cls-1" d="M6.15,65.16c-3.58,2.12-5.77,5.98-5.77,10.14s2.38,8.31,6.19,10.37"/>
      <path class="cls-1" d="M11.83,69.23c-1.15.75-1.88,2.04-1.88,3.46,0,1.93,1.41,2.92,3.22,4.03"/>
    </g>
  </g>
</svg>