<?xml version="1.0" encoding="UTF-8"?>
<svg id="Layer_2" data-name="Layer 2" xmlns="http://www.w3.org/2000/svg" viewBox="0 0 80.11 97.56">
  <defs>
    <style>
      .cls-1 {
        fill: none;
        stroke: #231f20;
        stroke-linecap: round;
        stroke-linejoin: round;
        stroke-width: .75px;
      }
    </style>
  </defs>
  <g id="Layer_1-2" data-name="Layer 1">
    <g>
      <g>
        <path class="cls-1" d="M22.02,87.07c-.06.28-.08.57-.08.85,0,.41.06.82.17,1.21"/>
        <path class="cls-1" d="M25.38,81.1c-1.74,1.58-2.92,3.67-3.36,5.97"/>
        <path class="cls-1" d="M27.18,80.1c-.67.19-1.29.53-1.81,1"/>
        <path class="cls-1" d="M27.86,80.05c-.08-.01-.15-.02-.23-.02-.15,0-.3.02-.45.06"/>
        <path class="cls-1" d="M22.1,89.13c.08.28.22.53.43.73"/>
        <path class="cls-1" d="M54.15,12.75c.16.43.48.78.87.99"/>
        <path class="cls-1" d="M53.9,10.95c-.01.13-.02.25-.02.38,0,.49.09.97.27,1.43"/>
        <path class="cls-1" d="M56.1,5.99c-1.25,1.37-2.02,3.11-2.2,4.95"/>
        <path class="cls-1" d="M57.6,4.96c-.58.22-1.09.57-1.51,1.03"/>
        <path class="cls-1" d="M59.01,4.97c-.23-.09-.47-.14-.72-.14s-.47.04-.69.13"/>
      </g>
      <line class="cls-1" x1="45.33" y1=".88" x2="56.06" y2="5.59"/>
      <line class="cls-1" x1="43.3" y1="4.96" x2="53.89" y2="9.63"/>
      <line class="cls-1" x1="38.79" y1="87.96" x2="35.48" y2="92.64"/>
      <line class="cls-1" x1="35.48" y1="92.64" x2="35.48" y2="97.18"/>
      <line class="cls-1" x1="25.78" y1="80.77" x2="38.79" y2="87.96"/>
      <line class="cls-1" x1="42.09" y1="87.96" x2="38.79" y2="87.96"/>
      <line class="cls-1" x1="22.5" y1="85.34" x2="35.48" y2="92.64"/>
      <line class="cls-1" x1="28.97" y1="80.67" x2="42.09" y2="87.96"/>
      <line class="cls-1" x1="13.17" y1="71.88" x2="28.97" y2="80.67"/>
      <line class="cls-1" x1="75.6" y1="27.44" x2="10.86" y2="69.76"/>
      <line class="cls-1" x1="48.48" y1=".38" x2="73.13" y2="11.2"/>
      <line class="cls-1" x1="45.33" y1=".88" x2="48.48" y2=".38"/>
      <line class="cls-1" x1="43.3" y1="4.96" x2="45.33" y2=".88"/>
      <line class="cls-1" x1="44.55" y1="8.86" x2="43.3" y2="4.96"/>
      <line class="cls-1" x1="69.07" y1="20.46" x2="44.55" y2="8.86"/>
      <line class="cls-1" x1="6.15" y1="60.32" x2="69.14" y2="20.42"/>
      <line class="cls-1" x1="23.05" y1="90.15" x2="6.56" y2="80.83"/>
      <line class="cls-1" x1="35.48" y1="97.18" x2="23.05" y2="90.15"/>
      <line class="cls-1" x1="38.79" y1="97.05" x2="35.48" y2="97.18"/>
      <line class="cls-1" x1="42.09" y1="92.37" x2="38.79" y2="97.05"/>
      <line class="cls-1" x1="42.09" y1="87.96" x2="42.09" y2="92.37"/>
      <g>
        <path class="cls-1" d="M6.15,60.32c-3.58,2.12-5.77,5.98-5.77,10.14s2.37,8.31,6.18,10.37"/>
        <path class="cls-1" d="M11.83,64.39c-1.15.75-1.88,2.04-1.88,3.46,0,1.93,1.41,2.92,3.22,4.03"/>
        <path class="cls-1" d="M75.61,27.44c2.45-1.85,4.13-4.51,4.13-7.57,0-4.05-2.78-7.1-6.61-8.67"/>
        <path class="cls-1" d="M69.14,20.42c1.33-.99,1.72-1.69,1.72-2.9s-.71-2.37-1.77-2.93"/>
      </g>
    </g>
  </g>
</svg>