<?xml version="1.0" encoding="UTF-8"?>
<svg id="Layer_2" data-name="Layer 2" xmlns="http://www.w3.org/2000/svg" viewBox="0 0 233.96 88.51">
  <defs>
    <style>
      .cls-1 {
        fill: none;
        stroke: #000;
        stroke-linecap: round;
        stroke-linejoin: round;
        stroke-width: .75px;
      }
    </style>
  </defs>
  <g id="Layer_1-2" data-name="Layer 1">
    <line class="cls-1" x1="140.3" y1="45.9" x2="186.95" y2="34.52"/>
    <line class="cls-1" x1="93.66" y1="34.52" x2="140.3" y2="45.9"/>
    <line class="cls-1" x1="186.95" y1="34.52" x2="186.95" y2="11.76"/>
    <line class="cls-1" x1="93.66" y1="11.76" x2="93.66" y2="34.52"/>
    <line class="cls-1" x1="140.3" y1=".38" x2="93.66" y2="11.76"/>
    <line class="cls-1" x1="186.95" y1="11.76" x2="140.3" y2=".38"/>
    <line class="cls-1" x1="186.95" y1="80.04" x2="186.95" y2="87.75"/>
    <line class="cls-1" x1="186.95" y1="80.04" x2="233.59" y2="68.66"/>
    <line class="cls-1" x1="233.59" y1="68.66" x2="233.59" y2="76.37"/>
    <line class="cls-1" x1="186.95" y1="87.75" x2="233.59" y2="76.37"/>
    <line class="cls-1" x1="140.3" y1="68.66" x2="140.3" y2="76.37"/>
    <line class="cls-1" x1="140.3" y1="68.66" x2="186.95" y2="80.04"/>
    <line class="cls-1" x1="140.3" y1="76.37" x2="186.95" y2="87.75"/>
    <line class="cls-1" x1="233.59" y1="68.66" x2="233.59" y2="45.9"/>
    <line class="cls-1" x1="140.3" y1="45.9" x2="140.3" y2="68.66"/>
    <line class="cls-1" x1="233.59" y1="45.9" x2="186.95" y2="34.52"/>
    <line class="cls-1" x1="47.02" y1="68.66" x2="47.02" y2="76.37"/>
    <line class="cls-1" x1="47.02" y1="68.66" x2="93.66" y2="80.04"/>
    <line class="cls-1" x1="93.66" y1="80.04" x2="93.66" y2="87.75"/>
    <line class="cls-1" x1="47.02" y1="76.37" x2="93.66" y2="87.75"/>
    <line class="cls-1" x1="93.66" y1="80.04" x2="140.3" y2="68.66"/>
    <line class="cls-1" x1="93.66" y1="87.75" x2="140.3" y2="76.37"/>
    <line class="cls-1" x1="47.02" y1="45.9" x2="47.02" y2="68.66"/>
    <line class="cls-1" x1="93.66" y1="34.52" x2="47.02" y2="45.9"/>
    <line class="cls-1" x1=".38" y1="34.52" x2=".38" y2="42.22"/>
    <line class="cls-1" x1=".38" y1="34.52" x2="47.02" y2="45.9"/>
    <line class="cls-1" x1=".38" y1="42.22" x2="47.02" y2="53.61"/>
    <line class="cls-1" x1=".38" y1="11.76" x2=".38" y2="34.52"/>
    <line class="cls-1" x1="47.02" y1=".38" x2=".38" y2="11.76"/>
    <line class="cls-1" x1="93.66" y1="11.76" x2="47.02" y2=".38"/>
    <line class="cls-1" x1="47.02" y1="76.37" x2="47.02" y2="76.49"/>
    <line class="cls-1" x1="93.66" y1="87.75" x2="93.66" y2="87.88"/>
    <line class="cls-1" x1="47.02" y1="76.5" x2="93.66" y2="87.88"/>
    <line class="cls-1" x1="140.3" y1="76.37" x2="140.3" y2="76.49"/>
    <line class="cls-1" x1="93.66" y1="87.88" x2="140.3" y2="76.5"/>
    <line class="cls-1" x1="186.95" y1="87.75" x2="186.95" y2="87.88"/>
    <line class="cls-1" x1="140.3" y1="76.5" x2="186.95" y2="87.88"/>
    <line class="cls-1" x1="233.59" y1="76.37" x2="233.59" y2="76.49"/>
    <line class="cls-1" x1="186.95" y1="87.88" x2="233.59" y2="76.5"/>
    <line class="cls-1" x1=".38" y1="42.22" x2=".38" y2="42.35"/>
    <line class="cls-1" x1=".38" y1="42.35" x2="47.02" y2="53.73"/>
    <line class="cls-1" x1="47.02" y1="76.5" x2="47.02" y2="76.75"/>
    <line class="cls-1" x1="93.66" y1="87.88" x2="93.66" y2="88.13"/>
    <line class="cls-1" x1="47.02" y1="76.75" x2="93.66" y2="88.13"/>
    <line class="cls-1" x1="140.3" y1="76.5" x2="140.3" y2="76.75"/>
    <line class="cls-1" x1="93.66" y1="88.13" x2="140.3" y2="76.75"/>
    <line class="cls-1" x1="186.95" y1="87.88" x2="186.95" y2="88.13"/>
    <line class="cls-1" x1="140.3" y1="76.75" x2="186.95" y2="88.13"/>
    <line class="cls-1" x1="233.59" y1="76.5" x2="233.59" y2="76.75"/>
    <line class="cls-1" x1="186.95" y1="88.13" x2="233.59" y2="76.75"/>
    <line class="cls-1" x1=".38" y1="42.35" x2=".38" y2="42.61"/>
    <line class="cls-1" x1=".38" y1="42.61" x2="47.02" y2="53.99"/>
  </g>
</svg>