<?xml version="1.0" encoding="UTF-8"?>
<svg id="Layer_2" data-name="Layer 2" xmlns="http://www.w3.org/2000/svg" viewBox="0 0 118.98 137.34">
  <defs>
    <style>
      .cls-1 {
        fill: none;
        stroke: #231f20;
        stroke-linecap: round;
        stroke-linejoin: round;
        stroke-width: .75px;
      }
    </style>
  </defs>
  <g id="Layer_1-2" data-name="Layer 1">
    <g>
      <path class="cls-1" d="M47.27,128.79c.16.38.42.71.74.97"/>
      <path class="cls-1" d="M46.74,125.77c-.02.43,0,.85.05,1.27.08.6.24,1.19.48,1.75"/>
      <path class="cls-1" d="M50.5,116.31c-2.24,2.66-3.56,5.98-3.76,9.45"/>
      <path class="cls-1" d="M52.96,114.48c-.95.41-1.79,1.04-2.46,1.83"/>
      <path class="cls-1" d="M53.94,114.28c-.11,0-.23,0-.34.02-.22.03-.44.09-.65.18"/>
    </g>
    <line class="cls-1" x1="71.05" y1="122.59" x2="67.08" y2="130.22"/>
    <line class="cls-1" x1="67.08" y1="130.22" x2="68" y2="136.97"/>
    <line class="cls-1" x1="51.57" y1="115.62" x2="71.05" y2="122.59"/>
    <line class="cls-1" x1="75.96" y1="121.93" x2="71.05" y2="122.59"/>
    <line class="cls-1" x1="47.11" y1="122.94" x2="67.08" y2="130.22"/>
    <line class="cls-1" x1="19.84" y1="101.91" x2="75.96" y2="121.93"/>
    <line class="cls-1" x1="118.43" y1="10.76" x2="107.07" y2="20.55"/>
    <line class="cls-1" x1="106.07" y1="21.29" x2="15.78" y2="99.17"/>
    <line class="cls-1" x1="7.07" y1="86.13" x2="97.11" y2="10.54"/>
    <line class="cls-1" x1="98.07" y1="9.98" x2="109.47" y2=".38"/>
    <line class="cls-1" x1="68" y1="136.97" x2="11.81" y2="116.54"/>
    <line class="cls-1" x1="72.88" y1="136.1" x2="68" y2="136.97"/>
    <line class="cls-1" x1="76.85" y1="128.48" x2="72.88" y2="136.1"/>
    <line class="cls-1" x1="75.96" y1="121.93" x2="76.85" y2="128.48"/>
    <g>
      <path class="cls-1" d="M7.07,86.13c-4.89,3.88-7.38,10.05-6.54,16.23.87,6.44,4.57,11.32,11.28,14.17"/>
      <path class="cls-1" d="M15.83,91.54c-1.23,1.33-1.84,3.16-1.59,5.03.39,2.87,2.94,4.38,5.59,5.34"/>
      <path class="cls-1" d="M96.92,10.69c1.76-1.51,5.23-.37,7.75,2.56,2.29,2.65,3.02,5.86,1.82,7.57"/>
      <path class="cls-1" d="M106.5,20.82c-.12.18-.27.33-.43.48"/>
    </g>
    <line class="cls-1" x1="106.79" y1="15.67" x2="118.61" y2="5.48"/>
    <line class="cls-1" x1="109.47" y1=".38" x2="113.66" y2=".79"/>
    <line class="cls-1" x1="101.92" y1="10.91" x2="113.65" y2=".79"/>
    <polyline class="cls-1" points="113.66 .79 118.6 5.48 118.43 10.76"/>
  </g>
</svg>