<?xml version="1.0" encoding="UTF-8"?>
<svg id="Layer_2" data-name="Layer 2" xmlns="http://www.w3.org/2000/svg" viewBox="0 0 28.53 122.04">
  <defs>
    <style>
      .cls-1 {
        fill: none;
        stroke: #231f20;
        stroke-linecap: round;
        stroke-linejoin: round;
        stroke-width: .75px;
      }
    </style>
  </defs>
  <g id="Layer_1-2" data-name="Layer 1">
    <g>
      <path class="cls-1" d="M7.83,47.59c2.07.69,4.25,1.05,6.44,1.05s4.36-.35,6.44-1.05"/>
      <path class="cls-1" d="M23.65,45.77c.34-.34.53-.8.53-1.29"/>
      <path class="cls-1" d="M4.34,44.48c0,.48.19.95.53,1.29"/>
      <path class="cls-1" d="M4.88,45.77c.83.83,1.84,1.45,2.95,1.82"/>
      <path class="cls-1" d="M20.7,47.59c1.11-.37,2.12-.99,2.95-1.82"/>
    </g>
    <line class="cls-1" x1="4.47" y1="45.14" x2="8.06" y2="54.42"/>
    <line class="cls-1" x1="23.93" y1="45.42" x2="20.51" y2="51.14"/>
    <g>
      <path class="cls-1" d="M20.7,13.77c1.37-.46,2.58-1.29,3.48-2.42"/>
      <path class="cls-1" d="M7.83,13.77c.85.29,1.73.51,2.61.68"/>
      <path class="cls-1" d="M4.34,11.35c.91,1.12,2.11,1.96,3.48,2.42"/>
    </g>
    <line class="cls-1" x1="24.19" y1="11.31" x2="24.19" y2="44.48"/>
    <line class="cls-1" x1="4.34" y1="11.31" x2="4.34" y2="44.48"/>
    <line class="cls-1" x1=".38" y1="6.19" x2=".38" y2="7.3"/>
    <g>
      <path class="cls-1" d="M14.27,14.82c2.19,0,4.36-.35,6.44-1.04"/>
      <path class="cls-1" d="M27.41,9.11c.48-.48.75-1.13.75-1.8"/>
      <path class="cls-1" d="M.38,7.3c0,.68.27,1.32.75,1.8"/>
      <path class="cls-1" d="M1.12,9.11c1.16,1.16,2.57,2.03,4.13,2.55"/>
      <path class="cls-1" d="M5.25,11.66c2.91.97,5.95,1.46,9.01,1.46s6.1-.49,9.01-1.46"/>
      <path class="cls-1" d="M23.28,11.66c1.56-.52,2.97-1.39,4.13-2.55"/>
      <path class="cls-1" d="M27.41,7.99c.48-.48.75-1.13.75-1.8s-.27-1.32-.75-1.8"/>
      <path class="cls-1" d="M27.41,4.39c-1.16-1.16-2.57-2.03-4.13-2.55"/>
      <path class="cls-1" d="M23.28,1.84c-2.91-.97-5.95-1.46-9.01-1.46s-6.11.49-9.01,1.46"/>
      <path class="cls-1" d="M5.25,1.84c-1.56.52-2.97,1.39-4.13,2.55"/>
      <path class="cls-1" d="M1.12,4.39c-.48.48-.75,1.13-.75,1.8s.27,1.32.75,1.8"/>
      <path class="cls-1" d="M1.12,7.99c1.16,1.16,2.57,2.03,4.13,2.55"/>
      <path class="cls-1" d="M5.25,10.55s.02,0,.02,0"/>
      <path class="cls-1" d="M23.28,10.55c1.56-.52,2.97-1.39,4.13-2.55"/>
      <path class="cls-1" d="M16.41,11.93c2.34-.18,4.65-.64,6.87-1.38"/>
    </g>
    <line class="cls-1" x1="17.04" y1="4.26" x2="17.04" y2="8.12"/>
    <line class="cls-1" x1="11.49" y1="4.26" x2="11.49" y2="8.12"/>
    <line class="cls-1" x1="17.04" y1="8.12" x2="11.49" y2="8.12"/>
    <line class="cls-1" x1="19.71" y1="6.19" x2="17.04" y2="8.12"/>
    <line class="cls-1" x1="17.04" y1="4.26" x2="19.71" y2="6.19"/>
    <line class="cls-1" x1="11.49" y1="4.26" x2="17.04" y2="4.26"/>
    <line class="cls-1" x1="8.82" y1="6.19" x2="11.49" y2="4.26"/>
    <line class="cls-1" x1="11.49" y1="8.12" x2="8.82" y2="6.19"/>
    <g>
      <path class="cls-1" d="M20.41,51.4c.04-.08.08-.17.1-.27"/>
      <path class="cls-1" d="M8.06,54.43c.1.27.3.49.56.62"/>
      <path class="cls-1" d="M8.62,55.05c.62.33,1.3.52,2,.56"/>
      <path class="cls-1" d="M14.27,55.25c1.67-.4,3.25-1.13,4.64-2.13"/>
      <path class="cls-1" d="M18.91,53.12c.63-.45,1.14-1.04,1.5-1.72"/>
      <path class="cls-1" d="M23.61,50.88c.14-.26.21-.55.21-.85,0-.67-.37-1.29-.97-1.61"/>
      <path class="cls-1" d="M22.85,48.42c-.18-.1-.37-.18-.56-.27"/>
      <path class="cls-1" d="M6.95,51.54c-.84.66-1.53,1.48-2.03,2.43"/>
      <path class="cls-1" d="M4.92,53.96c-.14.26-.21.55-.21.85,0,.67.37,1.29.97,1.61"/>
      <path class="cls-1" d="M5.68,56.42c1.04.55,2.19.85,3.36.87"/>
      <path class="cls-1" d="M9.03,57.29c.15,0,.3,0,.44,0,4.25,0,8.4-1.33,11.86-3.81"/>
      <path class="cls-1" d="M21.33,53.49c.95-.68,1.73-1.58,2.28-2.61"/>
    </g>
    <line class="cls-1" x1="20.55" y1="54.03" x2="20.55" y2="57.37"/>
    <line class="cls-1" x1="7.98" y1="57.2" x2="7.98" y2="60.51"/>
    <g>
      <path class="cls-1" d="M20.41,57.92c.09-.17.14-.36.14-.56"/>
      <path class="cls-1" d="M7.98,60.51c0,.44.25.85.64,1.06"/>
      <path class="cls-1" d="M8.62,61.57c.62.33,1.3.52,2,.56"/>
      <path class="cls-1" d="M14.27,61.77c1.67-.4,3.25-1.13,4.64-2.13"/>
      <path class="cls-1" d="M18.91,59.64c.63-.45,1.14-1.04,1.5-1.72"/>
      <path class="cls-1" d="M23.61,57.39c.14-.26.21-.55.21-.85,0-.67-.37-1.29-.97-1.61"/>
      <path class="cls-1" d="M22.85,54.94c-.72-.38-1.5-.64-2.31-.77"/>
      <path class="cls-1" d="M7.98,57.33c-.27.17-.53.35-.79.54"/>
      <path class="cls-1" d="M7.2,57.87c-.95.68-1.73,1.58-2.28,2.61"/>
      <path class="cls-1" d="M4.92,60.48c-.14.26-.21.55-.21.85,0,.67.37,1.29.97,1.61"/>
      <path class="cls-1" d="M5.68,62.94c1.04.55,2.19.85,3.36.87"/>
      <path class="cls-1" d="M9.03,63.81c.15,0,.3,0,.44,0,4.25,0,8.4-1.33,11.86-3.81"/>
      <path class="cls-1" d="M21.33,60.01c.95-.68,1.73-1.58,2.28-2.61"/>
    </g>
    <line class="cls-1" x1="20.55" y1="60.55" x2="20.55" y2="63.89"/>
    <line class="cls-1" x1="7.98" y1="63.72" x2="7.98" y2="67.03"/>
    <g>
      <path class="cls-1" d="M20.41,64.44c.09-.17.14-.36.14-.56"/>
      <path class="cls-1" d="M7.98,67.03c0,.44.25.85.64,1.06"/>
      <path class="cls-1" d="M8.62,68.09c.62.33,1.3.52,2,.56"/>
      <path class="cls-1" d="M14.27,68.29c1.67-.4,3.25-1.13,4.64-2.13"/>
      <path class="cls-1" d="M18.91,66.16c.63-.45,1.14-1.04,1.5-1.72"/>
      <path class="cls-1" d="M23.61,63.91c.14-.26.21-.55.21-.85,0-.67-.37-1.29-.97-1.61"/>
      <path class="cls-1" d="M22.85,61.46c-.72-.38-1.5-.64-2.31-.77"/>
      <path class="cls-1" d="M7.98,63.85c-.27.17-.53.35-.79.54"/>
      <path class="cls-1" d="M7.2,64.39c-.95.68-1.73,1.58-2.28,2.61"/>
      <path class="cls-1" d="M4.92,67c-.14.26-.21.55-.21.85,0,.67.37,1.3.97,1.61"/>
      <path class="cls-1" d="M5.68,69.46c1.04.55,2.19.85,3.36.87"/>
      <path class="cls-1" d="M9.03,70.33c.15,0,.3,0,.44,0,4.25,0,8.4-1.33,11.86-3.81"/>
      <path class="cls-1" d="M21.33,66.53c.95-.68,1.73-1.58,2.28-2.61"/>
    </g>
    <line class="cls-1" x1="20.55" y1="67.07" x2="20.55" y2="70.41"/>
    <line class="cls-1" x1="7.98" y1="70.24" x2="7.98" y2="73.55"/>
    <g>
      <path class="cls-1" d="M20.41,70.96c.09-.17.14-.36.14-.56"/>
      <path class="cls-1" d="M7.98,73.55c0,.44.25.85.64,1.06"/>
      <path class="cls-1" d="M8.62,74.61c.62.33,1.3.52,2,.56"/>
      <path class="cls-1" d="M14.27,74.81c1.67-.4,3.25-1.13,4.64-2.13"/>
      <path class="cls-1" d="M18.91,72.68c.63-.45,1.14-1.04,1.5-1.72"/>
      <path class="cls-1" d="M23.61,70.43c.14-.26.21-.55.21-.85,0-.67-.37-1.29-.97-1.61"/>
      <path class="cls-1" d="M22.85,67.97c-.72-.38-1.5-.64-2.31-.77"/>
      <path class="cls-1" d="M7.98,70.37c-.27.17-.53.35-.79.54"/>
      <path class="cls-1" d="M7.2,70.91c-.95.68-1.73,1.58-2.28,2.61"/>
      <path class="cls-1" d="M4.92,73.52c-.14.26-.21.55-.21.85,0,.67.37,1.29.97,1.61"/>
      <path class="cls-1" d="M5.68,75.98c1.04.55,2.19.85,3.36.87"/>
      <path class="cls-1" d="M9.03,76.85c.15,0,.3,0,.44,0,4.25,0,8.4-1.33,11.86-3.81"/>
      <path class="cls-1" d="M21.33,73.05c.95-.68,1.73-1.58,2.28-2.61"/>
    </g>
    <line class="cls-1" x1="20.55" y1="73.58" x2="20.55" y2="76.93"/>
    <line class="cls-1" x1="7.98" y1="76.76" x2="7.98" y2="80.07"/>
    <g>
      <path class="cls-1" d="M20.41,77.48c.09-.17.14-.36.14-.56"/>
      <path class="cls-1" d="M7.98,80.07c0,.44.25.85.64,1.06"/>
      <path class="cls-1" d="M8.62,81.13c.62.33,1.3.52,2,.56"/>
      <path class="cls-1" d="M14.27,81.33c1.67-.4,3.25-1.13,4.64-2.13"/>
      <path class="cls-1" d="M18.91,79.2c.63-.45,1.14-1.04,1.5-1.72"/>
      <path class="cls-1" d="M23.61,76.95c.14-.26.21-.55.21-.85,0-.67-.37-1.3-.97-1.61"/>
      <path class="cls-1" d="M22.85,74.49c-.72-.38-1.5-.64-2.31-.77"/>
      <path class="cls-1" d="M7.98,76.89c-.27.17-.53.35-.79.54"/>
      <path class="cls-1" d="M7.2,77.43c-.95.68-1.73,1.58-2.28,2.61"/>
      <path class="cls-1" d="M4.92,80.04c-.14.26-.21.55-.21.85,0,.67.37,1.29.97,1.61"/>
      <path class="cls-1" d="M5.68,82.5c1.04.55,2.19.85,3.36.87"/>
      <path class="cls-1" d="M9.03,83.37c.15,0,.3,0,.44,0,4.25,0,8.4-1.33,11.86-3.81"/>
      <path class="cls-1" d="M21.33,79.57c.95-.68,1.73-1.58,2.28-2.61"/>
    </g>
    <line class="cls-1" x1="20.55" y1="80.1" x2="20.55" y2="83.45"/>
    <line class="cls-1" x1="7.98" y1="83.28" x2="7.98" y2="86.59"/>
    <g>
      <path class="cls-1" d="M20.41,84c.09-.17.14-.36.14-.56"/>
      <path class="cls-1" d="M7.98,86.59c0,.44.25.85.64,1.06"/>
      <path class="cls-1" d="M8.62,87.65c.62.33,1.3.52,2,.56"/>
      <path class="cls-1" d="M14.27,87.85c1.67-.4,3.25-1.13,4.64-2.13"/>
      <path class="cls-1" d="M18.91,85.72c.63-.45,1.14-1.04,1.5-1.72"/>
      <path class="cls-1" d="M23.61,83.47c.14-.26.21-.55.21-.85,0-.67-.37-1.29-.97-1.61"/>
      <path class="cls-1" d="M22.85,81.01c-.72-.38-1.5-.64-2.31-.77"/>
      <path class="cls-1" d="M7.98,83.41c-.27.17-.53.35-.79.54"/>
      <path class="cls-1" d="M7.2,83.95c-.95.68-1.73,1.58-2.28,2.61"/>
      <path class="cls-1" d="M4.92,86.56c-.14.26-.21.55-.21.85,0,.67.37,1.29.97,1.61"/>
      <path class="cls-1" d="M5.68,89.02c1.04.55,2.19.85,3.36.87"/>
      <path class="cls-1" d="M9.03,89.89c.15,0,.3,0,.44,0,4.25,0,8.4-1.33,11.86-3.81"/>
      <path class="cls-1" d="M21.33,86.09c.95-.68,1.73-1.58,2.28-2.61"/>
    </g>
    <line class="cls-1" x1="20.55" y1="86.62" x2="20.55" y2="89.96"/>
    <line class="cls-1" x1="7.98" y1="89.8" x2="7.98" y2="93.11"/>
    <g>
      <path class="cls-1" d="M20.41,90.52c.09-.17.14-.36.14-.56"/>
      <path class="cls-1" d="M7.98,93.11c0,.44.25.85.64,1.06"/>
      <path class="cls-1" d="M8.62,94.17c.62.33,1.3.52,2,.56"/>
      <path class="cls-1" d="M14.27,94.37c1.67-.4,3.25-1.13,4.64-2.13"/>
      <path class="cls-1" d="M18.91,92.24c.63-.45,1.14-1.04,1.5-1.72"/>
      <path class="cls-1" d="M23.61,89.99c.14-.26.21-.55.21-.85,0-.67-.37-1.29-.97-1.61"/>
      <path class="cls-1" d="M22.85,87.53c-.72-.38-1.5-.64-2.31-.77"/>
      <path class="cls-1" d="M7.98,89.93c-.27.17-.53.35-.79.54"/>
      <path class="cls-1" d="M7.2,90.47c-.95.68-1.73,1.58-2.28,2.61"/>
      <path class="cls-1" d="M4.92,93.08c-.14.26-.21.55-.21.85,0,.67.37,1.29.97,1.61"/>
      <path class="cls-1" d="M5.68,95.54c1.04.55,2.19.85,3.36.87"/>
      <path class="cls-1" d="M9.03,96.41c.15,0,.3,0,.44,0,4.25,0,8.4-1.33,11.86-3.81"/>
      <path class="cls-1" d="M21.33,92.61c.95-.68,1.73-1.58,2.28-2.61"/>
    </g>
    <line class="cls-1" x1="20.55" y1="93.14" x2="20.55" y2="96.48"/>
    <line class="cls-1" x1="7.98" y1="96.32" x2="7.98" y2="99.63"/>
    <g>
      <path class="cls-1" d="M20.41,97.04c.09-.17.14-.36.14-.56"/>
      <path class="cls-1" d="M7.98,99.63c0,.44.25.85.64,1.06"/>
      <path class="cls-1" d="M8.62,100.69c.62.33,1.3.52,2,.56"/>
      <path class="cls-1" d="M14.27,100.89c1.67-.4,3.25-1.13,4.64-2.13"/>
      <path class="cls-1" d="M18.91,98.76c.63-.45,1.14-1.04,1.5-1.72"/>
      <path class="cls-1" d="M23.61,96.51c.14-.26.21-.55.21-.85,0-.67-.37-1.29-.97-1.61"/>
      <path class="cls-1" d="M22.85,94.05c-.72-.38-1.5-.64-2.31-.77"/>
      <path class="cls-1" d="M7.98,96.45c-.27.17-.53.35-.79.54"/>
      <path class="cls-1" d="M7.2,96.99c-.95.68-1.73,1.58-2.28,2.61"/>
      <path class="cls-1" d="M4.92,99.6c-.14.26-.21.55-.21.85,0,.67.37,1.29.97,1.61"/>
      <path class="cls-1" d="M5.68,102.06c1.04.55,2.19.85,3.36.87"/>
      <path class="cls-1" d="M9.03,102.93c.15,0,.3,0,.44,0,4.25,0,8.4-1.33,11.86-3.81"/>
      <path class="cls-1" d="M21.33,99.13c.95-.68,1.73-1.58,2.28-2.61"/>
    </g>
    <line class="cls-1" x1="20.55" y1="99.66" x2="20.55" y2="103"/>
    <line class="cls-1" x1="7.98" y1="102.83" x2="7.98" y2="106.15"/>
    <g>
      <path class="cls-1" d="M20.41,103.56c.09-.17.14-.36.14-.56"/>
      <path class="cls-1" d="M7.98,106.15c0,.44.25.85.64,1.06"/>
      <path class="cls-1" d="M8.62,107.21c.62.33,1.3.52,2,.56"/>
      <path class="cls-1" d="M14.27,107.41c1.67-.4,3.25-1.13,4.64-2.13"/>
      <path class="cls-1" d="M18.91,105.28c.63-.45,1.14-1.04,1.5-1.72"/>
      <path class="cls-1" d="M23.61,103.03c.14-.26.21-.55.21-.85,0-.67-.37-1.29-.97-1.61"/>
      <path class="cls-1" d="M22.85,100.57c-.72-.38-1.5-.64-2.31-.77"/>
      <path class="cls-1" d="M7.98,102.97c-.27.17-.53.35-.79.54"/>
      <path class="cls-1" d="M7.2,103.51c-.95.68-1.73,1.58-2.28,2.61"/>
      <path class="cls-1" d="M4.92,106.12c-.14.26-.21.55-.21.85,0,.67.37,1.3.97,1.61"/>
      <path class="cls-1" d="M5.68,108.58c1.04.55,2.19.85,3.36.87"/>
      <path class="cls-1" d="M9.03,109.45c.15,0,.3,0,.44,0,4.25,0,8.4-1.33,11.86-3.81"/>
      <path class="cls-1" d="M21.33,105.65c.95-.68,1.73-1.58,2.28-2.61"/>
      <path class="cls-1" d="M18.34,121c.7-.24,1.34-.63,1.87-1.16"/>
      <path class="cls-1" d="M10.19,121c1.31.44,2.69.66,4.08.66s2.76-.22,4.08-.66"/>
      <path class="cls-1" d="M8.32,119.85c.52.53,1.16.92,1.87,1.16"/>
      <path class="cls-1" d="M7.98,119.03c0,.31.12.6.34.81"/>
      <path class="cls-1" d="M20.21,119.85c.22-.21.34-.51.34-.81"/>
    </g>
    <line class="cls-1" x1="7.98" y1="115.87" x2="7.98" y2="119.03"/>
    <line class="cls-1" x1="20.55" y1="112.7" x2="20.55" y2="119.03"/>
    <g>
      <path class="cls-1" d="M21.33,112.17c.95-.68,1.73-1.58,2.28-2.61"/>
      <path class="cls-1" d="M9.03,115.97c.15,0,.3,0,.44,0,4.25,0,8.4-1.33,11.86-3.81"/>
      <path class="cls-1" d="M5.68,115.1c1.04.55,2.19.85,3.36.87"/>
      <path class="cls-1" d="M4.92,112.64c-.14.26-.21.56-.21.85,0,.68.37,1.3.97,1.61"/>
      <path class="cls-1" d="M7.2,110.03c-.95.68-1.73,1.58-2.28,2.61"/>
      <path class="cls-1" d="M7.98,109.49c-.27.17-.53.35-.79.54"/>
      <path class="cls-1" d="M22.85,107.09c-.72-.38-1.5-.64-2.31-.77"/>
      <path class="cls-1" d="M23.61,109.55c.14-.26.21-.55.21-.85,0-.67-.37-1.29-.97-1.61"/>
      <path class="cls-1" d="M18.91,111.8c.63-.45,1.14-1.04,1.5-1.72"/>
      <path class="cls-1" d="M14.27,113.93c1.67-.4,3.25-1.13,4.64-2.13"/>
      <path class="cls-1" d="M8.62,113.73c.62.33,1.3.52,2,.56"/>
      <path class="cls-1" d="M7.98,112.67c0,.44.25.85.64,1.06"/>
      <path class="cls-1" d="M20.41,110.08c.09-.17.14-.36.14-.56"/>
    </g>
    <line class="cls-1" x1="7.98" y1="109.35" x2="7.98" y2="112.67"/>
    <line class="cls-1" x1="20.55" y1="106.18" x2="20.55" y2="109.52"/>
  </g>
</svg>