<?xml version="1.0" encoding="UTF-8"?>
<svg id="Layer_2" data-name="Layer 2" xmlns="http://www.w3.org/2000/svg" viewBox="0 0 29.66 150.62">
  <defs>
    <style>
      .cls-1 {
        fill: none;
        stroke: #231f20;
        stroke-linecap: round;
        stroke-linejoin: round;
        stroke-width: .75px;
      }
    </style>
  </defs>
  <g id="Layer_1-2" data-name="Layer 1">
    <g>
      <line class="cls-1" x1="11.95" y1="8.44" x2="9.16" y2="6.43"/>
      <line class="cls-1" x1="9.16" y1="6.43" x2="11.95" y2="4.42"/>
      <line class="cls-1" x1="11.95" y1="4.42" x2="17.72" y2="4.42"/>
      <line class="cls-1" x1="17.72" y1="4.42" x2="20.5" y2="6.43"/>
      <line class="cls-1" x1="20.5" y1="6.43" x2="17.72" y2="8.44"/>
      <line class="cls-1" x1="17.72" y1="8.44" x2="11.95" y2="8.44"/>
      <line class="cls-1" x1="11.95" y1="4.42" x2="11.95" y2="8.44"/>
      <line class="cls-1" x1="17.72" y1="4.42" x2="17.72" y2="8.44"/>
      <path class="cls-1" d="M17.06,12.4c2.43-.18,4.84-.67,7.15-1.44"/>
      <path class="cls-1" d="M24.21,10.96c1.62-.54,3.09-1.45,4.3-2.66"/>
      <path class="cls-1" d="M5.45,10.96s.02,0,.02,0"/>
      <path class="cls-1" d="M1.15,8.3c1.21,1.21,2.68,2.12,4.3,2.66"/>
      <path class="cls-1" d="M1.15,4.55c-.5.5-.78,1.17-.78,1.88s.28,1.38.78,1.88"/>
      <path class="cls-1" d="M5.45,1.9c-1.62.54-3.09,1.45-4.3,2.66"/>
      <path class="cls-1" d="M24.21,1.9c-3.03-1.01-6.19-1.52-9.38-1.52s-6.35.51-9.38,1.52"/>
      <path class="cls-1" d="M28.51,4.55c-1.21-1.21-2.68-2.12-4.3-2.66"/>
      <path class="cls-1" d="M28.51,8.3c.5-.5.78-1.17.78-1.88s-.28-1.38-.78-1.88"/>
      <path class="cls-1" d="M24.21,12.12c1.62-.54,3.09-1.45,4.3-2.66"/>
      <path class="cls-1" d="M5.45,12.12c3.02,1.01,6.19,1.52,9.38,1.52s6.36-.51,9.38-1.52"/>
      <path class="cls-1" d="M1.15,9.46c1.21,1.21,2.68,2.12,4.3,2.66"/>
      <path class="cls-1" d="M.38,7.59c0,.7.28,1.38.78,1.88"/>
      <path class="cls-1" d="M28.51,9.46c.5-.5.78-1.17.78-1.88"/>
      <path class="cls-1" d="M14.83,15.05c2.19,0,4.36-.35,6.44-1.04"/>
      <line class="cls-1" x1=".38" y1="6.43" x2=".38" y2="7.59"/>
      <line class="cls-1" x1="29.29" y1="6.43" x2="29.29" y2="7.59"/>
      <line class="cls-1" x1="4.91" y1="11.92" x2="4.91" y2="46.99"/>
      <line class="cls-1" x1="24.75" y1="11.92" x2="24.75" y2="46.99"/>
      <path class="cls-1" d="M5.35,12.08s.06.07.09.1"/>
      <path class="cls-1" d="M5.44,12.18c.83.83,1.84,1.45,2.95,1.82"/>
      <path class="cls-1" d="M8.39,14.01c.85.29,1.73.51,2.61.68"/>
      <path class="cls-1" d="M21.27,14.01c1.11-.37,2.12-.99,2.95-1.82"/>
      <line class="cls-1" x1="24.5" y1="47.92" x2="21.08" y2="53.64"/>
      <line class="cls-1" x1="5.03" y1="47.65" x2="8.63" y2="56.93"/>
      <path class="cls-1" d="M21.27,50.1c1.11-.37,2.12-.99,2.95-1.82"/>
      <path class="cls-1" d="M8.39,50.1c2.08.69,4.25,1.05,6.44,1.05s4.36-.35,6.44-1.05"/>
      <path class="cls-1" d="M5.44,48.27c.83.83,1.84,1.45,2.95,1.82"/>
      <path class="cls-1" d="M4.91,46.99c0,.48.19.95.53,1.29"/>
      <path class="cls-1" d="M24.22,48.27c.34-.34.53-.8.53-1.29"/>
      <path class="cls-1" d="M20.98,53.91c.04-.08.08-.17.1-.27"/>
      <path class="cls-1" d="M8.63,56.93c.1.27.3.49.56.62"/>
      <path class="cls-1" d="M9.19,57.56c.62.33,1.3.52,2,.56"/>
      <path class="cls-1" d="M14.83,57.76c1.67-.4,3.25-1.13,4.65-2.13"/>
      <path class="cls-1" d="M19.48,55.63c.62-.45,1.14-1.04,1.5-1.72"/>
      <path class="cls-1" d="M24.18,53.38c.14-.26.21-.55.21-.85,0-.67-.37-1.29-.97-1.61"/>
      <path class="cls-1" d="M23.42,50.92c-.18-.1-.37-.18-.56-.27"/>
      <path class="cls-1" d="M7.51,54.04c-.84.66-1.53,1.48-2.03,2.43"/>
      <path class="cls-1" d="M5.48,56.47c-.14.26-.21.55-.21.85,0,.67.37,1.3.97,1.61"/>
      <path class="cls-1" d="M6.24,58.93c1.04.55,2.19.85,3.36.87"/>
      <path class="cls-1" d="M9.6,59.8c.15,0,.29,0,.44,0,4.25,0,8.4-1.33,11.86-3.81"/>
      <path class="cls-1" d="M21.9,55.99c.95-.68,1.73-1.58,2.28-2.61"/>
      <line class="cls-1" x1="21.11" y1="56.53" x2="21.11" y2="59.87"/>
      <line class="cls-1" x1="8.55" y1="59.7" x2="8.55" y2="63.02"/>
      <path class="cls-1" d="M20.98,60.43c.09-.17.14-.36.14-.56"/>
      <path class="cls-1" d="M8.55,63.02c0,.44.24.85.64,1.06"/>
      <path class="cls-1" d="M9.19,64.08c.62.33,1.3.52,2,.56"/>
      <path class="cls-1" d="M14.83,64.27c1.67-.4,3.25-1.13,4.65-2.13"/>
      <path class="cls-1" d="M19.48,62.15c.62-.45,1.14-1.04,1.5-1.72"/>
      <path class="cls-1" d="M24.18,59.9c.14-.26.21-.55.21-.85,0-.67-.37-1.29-.97-1.61"/>
      <path class="cls-1" d="M23.42,57.44c-.72-.38-1.5-.64-2.31-.77"/>
      <path class="cls-1" d="M8.55,59.84c-.27.17-.53.35-.79.54"/>
      <path class="cls-1" d="M7.76,60.37c-.95.68-1.73,1.58-2.28,2.61"/>
      <path class="cls-1" d="M5.48,62.99c-.14.26-.21.55-.21.85,0,.67.37,1.3.97,1.61"/>
      <path class="cls-1" d="M6.24,65.45c1.04.55,2.19.85,3.36.87"/>
      <path class="cls-1" d="M9.6,66.32c.15,0,.29,0,.44,0,4.25,0,8.4-1.33,11.86-3.81"/>
      <path class="cls-1" d="M21.9,62.51c.95-.68,1.73-1.58,2.28-2.61"/>
      <line class="cls-1" x1="21.11" y1="63.05" x2="21.11" y2="66.39"/>
      <line class="cls-1" x1="8.55" y1="66.22" x2="8.55" y2="69.54"/>
      <path class="cls-1" d="M20.98,66.95c.09-.17.14-.36.14-.56"/>
      <path class="cls-1" d="M8.55,69.54c0,.44.24.85.64,1.06"/>
      <path class="cls-1" d="M9.19,70.59c.62.33,1.3.52,2,.56"/>
      <path class="cls-1" d="M14.83,70.8c1.67-.4,3.25-1.13,4.65-2.13"/>
      <path class="cls-1" d="M19.48,68.67c.62-.45,1.14-1.04,1.5-1.72"/>
      <path class="cls-1" d="M24.18,66.42c.14-.26.21-.55.21-.85,0-.67-.37-1.29-.97-1.61"/>
      <path class="cls-1" d="M23.42,63.96c-.72-.38-1.5-.64-2.31-.77"/>
      <path class="cls-1" d="M8.55,66.36c-.27.17-.53.35-.79.54"/>
      <path class="cls-1" d="M7.76,66.9c-.95.68-1.73,1.58-2.28,2.61"/>
      <path class="cls-1" d="M5.48,69.51c-.14.26-.21.55-.21.85,0,.68.37,1.3.97,1.61"/>
      <path class="cls-1" d="M6.24,71.97c1.04.55,2.19.85,3.36.87"/>
      <path class="cls-1" d="M9.6,72.84c.15,0,.29,0,.44,0,4.25,0,8.4-1.33,11.86-3.81"/>
      <path class="cls-1" d="M21.9,69.03c.95-.68,1.73-1.58,2.28-2.61"/>
      <line class="cls-1" x1="21.11" y1="69.57" x2="21.11" y2="72.91"/>
      <line class="cls-1" x1="8.55" y1="72.74" x2="8.55" y2="76.06"/>
      <path class="cls-1" d="M20.98,73.47c.09-.17.14-.36.14-.56"/>
      <path class="cls-1" d="M8.55,76.06c0,.44.24.85.64,1.06"/>
      <path class="cls-1" d="M9.19,77.12c.62.33,1.3.52,2,.56"/>
      <path class="cls-1" d="M14.83,77.31c1.67-.4,3.25-1.13,4.65-2.13"/>
      <path class="cls-1" d="M19.48,75.19c.62-.45,1.14-1.04,1.5-1.72"/>
      <path class="cls-1" d="M24.18,72.94c.14-.26.21-.55.21-.85,0-.67-.37-1.29-.97-1.61"/>
      <path class="cls-1" d="M23.42,70.48c-.72-.38-1.5-.64-2.31-.77"/>
      <path class="cls-1" d="M8.55,72.88c-.27.17-.53.35-.79.54"/>
      <path class="cls-1" d="M7.76,73.41c-.95.68-1.73,1.58-2.28,2.61"/>
      <path class="cls-1" d="M5.48,76.03c-.14.26-.21.55-.21.85,0,.68.37,1.3.97,1.61"/>
      <path class="cls-1" d="M6.24,78.49c1.04.55,2.19.85,3.36.87"/>
      <path class="cls-1" d="M9.6,79.36c.15,0,.29,0,.44,0,4.25,0,8.4-1.33,11.86-3.81"/>
      <path class="cls-1" d="M21.9,75.55c.95-.68,1.73-1.58,2.28-2.61"/>
      <line class="cls-1" x1="21.11" y1="76.09" x2="21.11" y2="79.43"/>
      <line class="cls-1" x1="8.55" y1="79.26" x2="8.55" y2="82.58"/>
      <path class="cls-1" d="M20.98,79.99c.09-.17.14-.36.14-.56"/>
      <path class="cls-1" d="M8.55,82.58c0,.44.24.85.64,1.06"/>
      <path class="cls-1" d="M9.19,83.63c.62.33,1.3.52,2,.56"/>
      <path class="cls-1" d="M14.83,83.83c1.67-.4,3.25-1.13,4.65-2.13"/>
      <path class="cls-1" d="M19.48,81.71c.62-.45,1.14-1.04,1.5-1.72"/>
      <path class="cls-1" d="M24.18,79.46c.14-.26.21-.55.21-.85,0-.67-.37-1.29-.97-1.61"/>
      <path class="cls-1" d="M23.42,77c-.72-.38-1.5-.64-2.31-.77"/>
      <path class="cls-1" d="M8.55,79.4c-.27.17-.53.35-.79.54"/>
      <path class="cls-1" d="M7.76,79.93c-.95.68-1.73,1.58-2.28,2.61"/>
      <path class="cls-1" d="M5.48,82.55c-.14.26-.21.55-.21.85,0,.68.37,1.3.97,1.61"/>
      <path class="cls-1" d="M6.24,85.01c1.04.55,2.19.85,3.36.87"/>
      <path class="cls-1" d="M9.6,85.88c.15,0,.29,0,.44,0,4.25,0,8.4-1.33,11.86-3.81"/>
      <path class="cls-1" d="M21.9,82.07c.95-.68,1.73-1.58,2.28-2.61"/>
      <line class="cls-1" x1="21.11" y1="82.61" x2="21.11" y2="85.95"/>
      <line class="cls-1" x1="8.55" y1="85.78" x2="8.55" y2="89.1"/>
      <path class="cls-1" d="M20.98,86.51c.09-.17.14-.36.14-.56"/>
      <path class="cls-1" d="M8.55,89.1c0,.44.24.85.64,1.06"/>
      <path class="cls-1" d="M9.19,90.15c.62.33,1.3.52,2,.56"/>
      <path class="cls-1" d="M14.83,90.35c1.67-.4,3.25-1.13,4.65-2.13"/>
      <path class="cls-1" d="M19.48,88.23c.62-.45,1.14-1.04,1.5-1.72"/>
      <path class="cls-1" d="M24.18,85.98c.14-.26.21-.55.21-.85,0-.67-.37-1.29-.97-1.61"/>
      <path class="cls-1" d="M23.42,83.52c-.72-.38-1.5-.64-2.31-.77"/>
      <path class="cls-1" d="M8.55,85.92c-.27.17-.53.35-.79.54"/>
      <path class="cls-1" d="M7.76,86.45c-.95.68-1.73,1.58-2.28,2.61"/>
      <path class="cls-1" d="M5.48,89.07c-.14.26-.21.55-.21.85,0,.67.37,1.29.97,1.61"/>
      <path class="cls-1" d="M6.24,91.53c1.04.55,2.19.85,3.36.87"/>
      <path class="cls-1" d="M9.6,92.4c.15,0,.29,0,.44,0,4.25,0,8.4-1.33,11.86-3.81"/>
      <path class="cls-1" d="M21.9,88.59c.95-.68,1.73-1.58,2.28-2.61"/>
      <line class="cls-1" x1="21.11" y1="89.13" x2="21.11" y2="92.47"/>
      <line class="cls-1" x1="8.55" y1="92.3" x2="8.55" y2="95.62"/>
      <path class="cls-1" d="M20.98,93.03c.09-.17.14-.36.14-.56"/>
      <path class="cls-1" d="M8.55,95.62c0,.44.24.85.64,1.06"/>
      <path class="cls-1" d="M9.19,96.67c.62.33,1.3.52,2,.56"/>
      <path class="cls-1" d="M14.83,96.87c1.67-.4,3.25-1.13,4.65-2.13"/>
      <path class="cls-1" d="M19.48,94.75c.62-.45,1.14-1.04,1.5-1.72"/>
      <path class="cls-1" d="M24.18,92.5c.14-.26.21-.55.21-.85,0-.68-.37-1.3-.97-1.61"/>
      <path class="cls-1" d="M23.42,90.04c-.72-.38-1.5-.64-2.31-.77"/>
      <path class="cls-1" d="M8.55,92.44c-.27.17-.53.35-.79.54"/>
      <path class="cls-1" d="M7.76,92.97c-.95.68-1.73,1.58-2.28,2.61"/>
      <path class="cls-1" d="M5.48,95.59c-.14.26-.21.55-.21.85,0,.67.37,1.29.97,1.61"/>
      <path class="cls-1" d="M6.24,98.05c1.04.55,2.19.85,3.36.87"/>
      <path class="cls-1" d="M9.6,98.92c.15,0,.29,0,.44,0,4.25,0,8.4-1.33,11.86-3.81"/>
      <path class="cls-1" d="M21.9,95.11c.95-.68,1.73-1.58,2.28-2.61"/>
      <line class="cls-1" x1="21.11" y1="95.65" x2="21.11" y2="98.99"/>
      <line class="cls-1" x1="8.55" y1="98.82" x2="8.55" y2="102.14"/>
      <path class="cls-1" d="M20.98,99.55c.09-.17.14-.36.14-.56"/>
      <path class="cls-1" d="M8.55,102.14c0,.44.24.85.64,1.06"/>
      <path class="cls-1" d="M9.19,103.19c.62.33,1.3.52,2,.56"/>
      <path class="cls-1" d="M14.83,103.39c1.67-.4,3.25-1.13,4.65-2.13"/>
      <path class="cls-1" d="M19.48,101.27c.62-.45,1.14-1.04,1.5-1.72"/>
      <path class="cls-1" d="M24.18,99.02c.14-.26.21-.55.21-.85,0-.68-.37-1.3-.97-1.61"/>
      <path class="cls-1" d="M23.42,96.56c-.72-.38-1.5-.64-2.31-.77"/>
      <path class="cls-1" d="M8.55,98.96c-.27.17-.53.35-.79.54"/>
      <path class="cls-1" d="M7.76,99.49c-.95.68-1.73,1.58-2.28,2.61"/>
      <path class="cls-1" d="M5.48,102.11c-.14.26-.21.55-.21.85,0,.67.37,1.29.97,1.61"/>
      <path class="cls-1" d="M6.24,104.57c1.04.55,2.19.84,3.36.87"/>
      <path class="cls-1" d="M9.6,105.44c.15,0,.29,0,.44,0,4.25,0,8.4-1.33,11.86-3.81"/>
      <path class="cls-1" d="M21.9,101.63c.95-.68,1.73-1.58,2.28-2.61"/>
      <line class="cls-1" x1="21.11" y1="102.17" x2="21.11" y2="105.51"/>
      <line class="cls-1" x1="8.55" y1="105.34" x2="8.55" y2="108.65"/>
      <path class="cls-1" d="M20.98,106.07c.09-.17.14-.36.14-.56"/>
      <path class="cls-1" d="M8.55,108.66c0,.44.24.85.64,1.06"/>
      <path class="cls-1" d="M9.19,109.71c.62.33,1.3.52,2,.56"/>
      <path class="cls-1" d="M14.83,109.91c1.67-.4,3.25-1.13,4.65-2.13"/>
      <path class="cls-1" d="M19.48,107.79c.62-.45,1.14-1.04,1.5-1.72"/>
      <path class="cls-1" d="M24.18,105.54c.14-.26.21-.55.21-.85,0-.68-.37-1.3-.97-1.61"/>
      <path class="cls-1" d="M23.42,103.08c-.72-.38-1.5-.64-2.31-.77"/>
      <path class="cls-1" d="M8.55,105.48c-.27.17-.53.35-.79.54"/>
      <path class="cls-1" d="M7.76,106.01c-.95.68-1.73,1.58-2.28,2.61"/>
      <path class="cls-1" d="M5.48,108.63c-.14.26-.21.55-.21.85,0,.67.37,1.29.97,1.61"/>
      <path class="cls-1" d="M6.24,111.09c1.04.55,2.19.84,3.36.87"/>
      <path class="cls-1" d="M9.6,111.96c.15,0,.29,0,.44,0,4.25,0,8.4-1.33,11.86-3.81"/>
      <path class="cls-1" d="M21.9,108.15c.95-.68,1.73-1.58,2.28-2.61"/>
      <line class="cls-1" x1="21.11" y1="108.69" x2="21.11" y2="112.03"/>
      <line class="cls-1" x1="8.55" y1="111.86" x2="8.55" y2="115.17"/>
      <path class="cls-1" d="M20.98,112.59c.09-.17.14-.36.14-.56"/>
      <path class="cls-1" d="M8.55,115.17c0,.44.24.85.64,1.06"/>
      <path class="cls-1" d="M9.19,116.23c.62.33,1.3.52,2,.56"/>
      <path class="cls-1" d="M14.83,116.43c1.67-.4,3.25-1.13,4.65-2.13"/>
      <path class="cls-1" d="M19.48,114.31c.62-.45,1.14-1.04,1.5-1.72"/>
      <path class="cls-1" d="M24.18,112.06c.14-.26.21-.55.21-.85,0-.67-.37-1.3-.97-1.61"/>
      <path class="cls-1" d="M23.42,109.6c-.72-.38-1.5-.64-2.31-.77"/>
      <path class="cls-1" d="M8.55,112c-.27.17-.53.35-.79.54"/>
      <path class="cls-1" d="M7.76,112.53c-.95.68-1.73,1.58-2.28,2.62"/>
      <path class="cls-1" d="M5.48,115.15c-.14.26-.21.55-.21.85,0,.67.37,1.29.97,1.61"/>
      <path class="cls-1" d="M6.24,117.61c1.04.55,2.19.84,3.36.87"/>
      <path class="cls-1" d="M9.6,118.48c.15,0,.29,0,.44,0,4.25,0,8.4-1.33,11.86-3.81"/>
      <path class="cls-1" d="M21.9,114.67c.95-.68,1.73-1.58,2.28-2.61"/>
      <line class="cls-1" x1="21.11" y1="115.21" x2="21.11" y2="118.55"/>
      <line class="cls-1" x1="8.55" y1="118.38" x2="8.55" y2="121.69"/>
      <path class="cls-1" d="M20.98,119.11c.09-.17.14-.36.14-.56"/>
      <path class="cls-1" d="M8.55,121.69c0,.44.24.85.64,1.06"/>
      <path class="cls-1" d="M9.19,122.75c.62.33,1.3.52,2,.56"/>
      <path class="cls-1" d="M14.83,122.95c1.67-.4,3.25-1.13,4.65-2.13"/>
      <path class="cls-1" d="M19.48,120.83c.62-.45,1.14-1.04,1.5-1.72"/>
      <path class="cls-1" d="M24.18,118.58c.14-.26.21-.55.21-.85,0-.67-.37-1.3-.97-1.61"/>
      <path class="cls-1" d="M23.42,116.12c-.72-.38-1.5-.64-2.31-.77"/>
      <path class="cls-1" d="M8.55,118.52c-.27.17-.53.35-.79.54"/>
      <path class="cls-1" d="M7.76,119.05c-.95.68-1.73,1.58-2.28,2.61"/>
      <path class="cls-1" d="M5.48,121.67c-.14.26-.21.55-.21.85,0,.67.37,1.29.97,1.61"/>
      <path class="cls-1" d="M6.24,124.13c1.04.55,2.19.85,3.36.87"/>
      <path class="cls-1" d="M9.6,125c.15,0,.29,0,.44,0,4.25,0,8.4-1.33,11.86-3.81"/>
      <path class="cls-1" d="M21.9,121.19c.95-.68,1.73-1.58,2.28-2.61"/>
      <line class="cls-1" x1="21.11" y1="121.73" x2="21.11" y2="125.07"/>
      <line class="cls-1" x1="8.55" y1="124.9" x2="8.55" y2="128.21"/>
      <path class="cls-1" d="M20.98,125.63c.09-.17.14-.36.14-.56"/>
      <path class="cls-1" d="M8.55,128.21c0,.44.24.85.64,1.06"/>
      <path class="cls-1" d="M9.19,129.27c.62.33,1.3.52,2,.56"/>
      <path class="cls-1" d="M14.83,129.47c1.67-.4,3.25-1.13,4.65-2.13"/>
      <path class="cls-1" d="M19.48,127.34c.62-.45,1.14-1.04,1.5-1.72"/>
      <path class="cls-1" d="M24.18,125.1c.14-.26.21-.55.21-.85,0-.67-.37-1.3-.97-1.61"/>
      <path class="cls-1" d="M23.42,122.64c-.72-.38-1.5-.64-2.31-.77"/>
      <path class="cls-1" d="M8.55,125.04c-.27.17-.53.35-.79.54"/>
      <path class="cls-1" d="M7.76,125.57c-.95.68-1.73,1.58-2.28,2.61"/>
      <path class="cls-1" d="M5.48,128.19c-.14.26-.21.55-.21.85,0,.67.37,1.3.97,1.61"/>
      <path class="cls-1" d="M6.24,130.65c1.04.55,2.19.85,3.36.87"/>
      <path class="cls-1" d="M9.6,131.52c.15,0,.29,0,.44,0,4.25,0,8.4-1.33,11.86-3.81"/>
      <path class="cls-1" d="M21.9,127.71c.95-.68,1.73-1.58,2.28-2.61"/>
      <line class="cls-1" x1="21.11" y1="128.25" x2="21.11" y2="131.59"/>
      <line class="cls-1" x1="8.55" y1="131.42" x2="8.55" y2="134.73"/>
      <path class="cls-1" d="M20.98,132.15c.09-.17.14-.36.14-.56"/>
      <path class="cls-1" d="M8.55,134.73c0,.44.24.85.64,1.06"/>
      <path class="cls-1" d="M9.19,135.79c.62.33,1.3.52,2,.56"/>
      <path class="cls-1" d="M14.83,135.99c1.67-.4,3.25-1.13,4.65-2.13"/>
      <path class="cls-1" d="M19.48,133.86c.62-.45,1.14-1.04,1.5-1.72"/>
      <path class="cls-1" d="M24.18,131.62c.14-.26.21-.55.21-.85,0-.67-.37-1.29-.97-1.61"/>
      <path class="cls-1" d="M23.42,129.16c-.72-.38-1.5-.64-2.31-.77"/>
      <path class="cls-1" d="M8.55,131.56c-.27.17-.53.35-.79.54"/>
      <path class="cls-1" d="M7.76,132.09c-.95.68-1.73,1.58-2.28,2.61"/>
      <path class="cls-1" d="M5.48,134.71c-.14.26-.21.55-.21.85,0,.67.37,1.3.97,1.61"/>
      <path class="cls-1" d="M6.24,137.16c1.04.55,2.19.85,3.36.87"/>
      <path class="cls-1" d="M9.6,138.04c.15,0,.29,0,.44,0,4.25,0,8.4-1.33,11.86-3.81"/>
      <path class="cls-1" d="M21.9,134.23c.95-.68,1.73-1.58,2.28-2.61"/>
      <path class="cls-1" d="M18.91,149.59c.7-.23,1.34-.63,1.87-1.15"/>
      <path class="cls-1" d="M10.76,149.59c1.31.44,2.69.66,4.08.66s2.76-.22,4.08-.66"/>
      <path class="cls-1" d="M8.89,148.43c.52.53,1.16.92,1.87,1.15"/>
      <path class="cls-1" d="M8.55,147.62c0,.31.12.6.34.81"/>
      <path class="cls-1" d="M20.78,148.43c.21-.22.34-.51.34-.81"/>
      <line class="cls-1" x1="8.55" y1="144.46" x2="8.55" y2="147.62"/>
      <line class="cls-1" x1="21.11" y1="141.29" x2="21.11" y2="147.62"/>
      <path class="cls-1" d="M21.9,140.75c.95-.68,1.73-1.58,2.28-2.61"/>
      <path class="cls-1" d="M9.6,144.56c.15,0,.29,0,.44,0,4.25,0,8.4-1.33,11.86-3.81"/>
      <path class="cls-1" d="M6.24,143.68c1.04.55,2.19.85,3.36.87"/>
      <path class="cls-1" d="M5.48,141.23c-.14.26-.21.55-.21.85,0,.67.37,1.3.97,1.61"/>
      <path class="cls-1" d="M7.76,138.61c-.95.68-1.73,1.58-2.28,2.61"/>
      <path class="cls-1" d="M8.55,138.08c-.27.17-.53.35-.79.54"/>
      <path class="cls-1" d="M23.42,135.68c-.72-.38-1.5-.64-2.31-.77"/>
      <path class="cls-1" d="M24.18,138.14c.14-.26.21-.55.21-.85,0-.67-.37-1.29-.97-1.61"/>
      <path class="cls-1" d="M19.48,140.38c.62-.45,1.14-1.04,1.5-1.72"/>
      <path class="cls-1" d="M14.83,142.51c1.67-.4,3.25-1.13,4.65-2.13"/>
      <path class="cls-1" d="M9.19,142.31c.62.33,1.3.52,2,.56"/>
      <path class="cls-1" d="M8.55,141.25c0,.44.24.85.64,1.06"/>
      <path class="cls-1" d="M20.98,138.67c.09-.17.14-.36.14-.56"/>
      <line class="cls-1" x1="8.55" y1="137.94" x2="8.55" y2="141.25"/>
      <line class="cls-1" x1="21.11" y1="134.77" x2="21.11" y2="138.11"/>
    </g>
  </g>
</svg>