<?xml version="1.0" encoding="UTF-8"?>
<svg id="Layer_2" data-name="Layer 2" xmlns="http://www.w3.org/2000/svg" viewBox="0 0 23.43 55.6">
  <defs>
    <style>
      .cls-1 {
        fill: none;
        stroke: #231f20;
        stroke-linecap: round;
        stroke-linejoin: round;
        stroke-width: .75px;
      }
    </style>
  </defs>
  <g id="Layer_1-2" data-name="Layer 1">
    <path class="cls-1" d="M5.76,11.61c.52.53,1.17.92,1.87,1.16"/>
    <path class="cls-1" d="M7.63,12.76c1.32.44,2.69.66,4.08.66s2.77-.22,4.08-.66"/>
    <path class="cls-1" d="M15.8,12.76c.71-.23,1.35-.64,1.88-1.17"/>
    <path class="cls-1" d="M4.36,8.68c.89.3,1.8.54,2.72.73"/>
    <path class="cls-1" d="M11.17,9.87c.18,0,.36,0,.55,0,2.5,0,4.98-.4,7.36-1.19"/>
    <line class="cls-1" x1="9.46" y1="8.2" x2="8.59" y2="5.68"/>
    <line class="cls-1" x1="7.4" y1="5.42" x2="6.38" y2="2.82"/>
    <line class="cls-1" x1="11.33" y1="7.3" x2="11.03" y2="3.82"/>
    <line class="cls-1" x1="12.92" y1="6.61" x2="13.44" y2="1.98"/>
    <line class="cls-1" x1="14.17" y1="6.88" x2="14.82" y2="4.63"/>
    <g>
      <path class="cls-1" d="M16.94,7.47c.78-.29,1.5-.75,2.09-1.35"/>
      <path class="cls-1" d="M6.7,7.55c1.09.36,2.21.61,3.35.73"/>
      <path class="cls-1" d="M6.32,7.41c.12.05.25.1.38.14"/>
      <path class="cls-1" d="M4.4,4.12c-.16.16-.28.36-.35.58"/>
      <path class="cls-1" d="M6.38,2.82c-.74.3-1.42.74-1.98,1.3"/>
      <path class="cls-1" d="M16.73,2.7c-1.07-.36-2.17-.6-3.29-.72"/>
      <path class="cls-1" d="M17.15,2.86c-.14-.06-.28-.11-.42-.16"/>
      <path class="cls-1" d="M19.03,6.13c.15-.15.26-.32.33-.52"/>
    </g>
    <line class="cls-1" x1="6.38" y1="2.82" x2="11.03" y2="3.82"/>
    <line class="cls-1" x1="4.05" y1="4.7" x2="8.59" y2="5.68"/>
    <line class="cls-1" x1="13.44" y1="1.98" x2="11.03" y2="3.82"/>
    <line class="cls-1" x1="17.15" y1="2.86" x2="14.82" y2="4.63"/>
    <line class="cls-1" x1="12.38" y1="6.49" x2="16.94" y2="7.47"/>
    <line class="cls-1" x1="14.82" y1="4.63" x2="19.36" y2="5.61"/>
    <line class="cls-1" x1="8.59" y1="5.68" x2="6.32" y2="7.41"/>
    <line class="cls-1" x1="12.38" y1="6.49" x2="10.05" y2="8.27"/>
    <line class="cls-1" x1=".95" y1="6.56" x2="5.74" y2="11.59"/>
    <line class="cls-1" x1="22.48" y1="6.56" x2="17.68" y2="11.6"/>
    <g>
      <path class="cls-1" d="M22.44,6.59c.39-.39.61-.92.61-1.47s-.22-1.08-.61-1.47"/>
      <path class="cls-1" d="M22.44,3.65c-.95-.95-2.1-1.66-3.37-2.08"/>
      <path class="cls-1" d="M19.07,1.57c-2.37-.79-4.86-1.19-7.36-1.19s-4.99.4-7.36,1.19"/>
      <path class="cls-1" d="M4.36,1.57c-1.27.42-2.43,1.14-3.37,2.08"/>
      <path class="cls-1" d="M.98,3.65c-.39.39-.61.92-.61,1.47s.22,1.08.61,1.47"/>
      <path class="cls-1" d="M.98,6.59c.95.95,2.1,1.66,3.37,2.08"/>
      <path class="cls-1" d="M19.07,8.68c1.27-.42,2.42-1.14,3.37-2.08"/>
      <path class="cls-1" d="M11.45,53.83c.09,0,.18,0,.26,0,1.39,0,2.77-.23,4.08-.66"/>
      <path class="cls-1" d="M15.11,54.68c.59-.2,1.12-.52,1.56-.96"/>
      <path class="cls-1" d="M8.32,54.68c1.09.36,2.24.55,3.4.55s2.3-.19,3.39-.55"/>
      <path class="cls-1" d="M6.76,53.71c.44.44.97.77,1.56.96"/>
      <path class="cls-1" d="M6.62,53.53c.04.07.09.13.15.19"/>
      <path class="cls-1" d="M16.66,53.71c.06-.06.1-.12.14-.19"/>
    </g>
    <line class="cls-1" x1="5.58" y1="51.79" x2="6.62" y2="53.53"/>
    <line class="cls-1" x1="17.84" y1="51.79" x2="16.81" y2="53.53"/>
    <g>
      <path class="cls-1" d="M15.8,53.17c.7-.23,1.35-.63,1.87-1.16"/>
      <path class="cls-1" d="M7.63,53.17c.09.03.19.06.28.09"/>
      <path class="cls-1" d="M5.76,52.02c.52.53,1.17.92,1.87,1.16"/>
      <path class="cls-1" d="M5.42,51.2c0,.31.12.6.34.82"/>
      <path class="cls-1" d="M17.67,52.02c.22-.22.34-.51.34-.82"/>
    </g>
    <line class="cls-1" x1="5.42" y1="50.48" x2="5.42" y2="51.2"/>
    <line class="cls-1" x1="18.01" y1="47.41" x2="18.01" y2="51.2"/>
    <line class="cls-1" x1="5.42" y1="11.25" x2="5.42" y2="12.82"/>
    <g>
      <path class="cls-1" d="M5.42,12.82c0,.44.24.85.63,1.05"/>
      <path class="cls-1" d="M6.05,13.88c.68.36,1.43.57,2.2.59"/>
    </g>
    <line class="cls-1" x1="8.25" y1="14.47" x2="8.29" y2="14.47"/>
    <g>
      <path class="cls-1" d="M20,9.98c.13-.23.19-.5.19-.76,0-.08,0-.16-.02-.24"/>
      <path class="cls-1" d="M4.91,10.72c-.61.53-1.11,1.16-1.49,1.87"/>
      <path class="cls-1" d="M3.42,12.6c-.12.23-.19.5-.19.76,0,.59.33,1.14.85,1.42"/>
      <path class="cls-1" d="M4.08,14.78c.91.49,1.93.76,2.97.79"/>
      <path class="cls-1" d="M7.05,15.57c.17,0,.35,0,.52,0,3.72,0,7.36-1.15,10.4-3.3"/>
      <path class="cls-1" d="M17.97,12.28c.85-.6,1.54-1.39,2.04-2.3"/>
    </g>
    <line class="cls-1" x1="18.01" y1="12.25" x2="18.01" y2="14.57"/>
    <line class="cls-1" x1="5.42" y1="15.32" x2="5.42" y2="17.64"/>
    <g>
      <path class="cls-1" d="M17.86,15.13c.09-.17.14-.37.14-.56"/>
      <path class="cls-1" d="M5.42,17.64c0,.44.24.85.63,1.05"/>
      <path class="cls-1" d="M6.05,18.7c.68.36,1.43.57,2.2.59"/>
      <path class="cls-1" d="M8.25,19.28s.03,0,.04,0"/>
      <path class="cls-1" d="M16.35,16.84c.63-.44,1.15-1.03,1.51-1.71"/>
      <path class="cls-1" d="M20,14.8c.13-.23.19-.5.19-.76,0-.59-.33-1.14-.85-1.42"/>
      <path class="cls-1" d="M19.34,12.61c-.37-.2-.76-.36-1.17-.49"/>
      <path class="cls-1" d="M5.25,15.27c-.75.58-1.38,1.31-1.83,2.15"/>
      <path class="cls-1" d="M3.42,17.42c-.12.23-.19.5-.19.76,0,.59.33,1.14.85,1.42"/>
      <path class="cls-1" d="M4.08,19.6c.91.49,1.93.76,2.97.79"/>
      <path class="cls-1" d="M7.05,20.39c.17,0,.35,0,.52,0,3.72,0,7.36-1.15,10.4-3.3"/>
      <path class="cls-1" d="M17.97,17.1c.85-.6,1.54-1.39,2.04-2.3"/>
      <path class="cls-1" d="M11.71,18.93c1.67-.39,3.24-1.1,4.64-2.09"/>
    </g>
    <line class="cls-1" x1="18.01" y1="17.07" x2="18.01" y2="19.39"/>
    <line class="cls-1" x1="5.42" y1="20.14" x2="5.42" y2="22.46"/>
    <g>
      <path class="cls-1" d="M17.86,19.95c.09-.17.14-.37.14-.56"/>
      <path class="cls-1" d="M5.42,22.46c0,.44.24.85.63,1.05"/>
      <path class="cls-1" d="M6.05,23.52c.68.36,1.43.57,2.2.59"/>
      <path class="cls-1" d="M8.25,24.1s.03,0,.04,0"/>
      <path class="cls-1" d="M16.35,21.66c.63-.44,1.15-1.03,1.51-1.71"/>
      <path class="cls-1" d="M20,19.61c.13-.23.19-.5.19-.76,0-.59-.33-1.14-.85-1.42"/>
      <path class="cls-1" d="M19.34,17.43c-.37-.2-.76-.36-1.17-.49"/>
      <path class="cls-1" d="M5.25,20.09c-.75.58-1.38,1.31-1.83,2.15"/>
      <path class="cls-1" d="M3.42,22.23c-.12.23-.19.5-.19.76,0,.59.33,1.14.85,1.42"/>
      <path class="cls-1" d="M4.08,24.42c.91.49,1.93.76,2.97.79"/>
      <path class="cls-1" d="M7.05,25.21c.17,0,.35,0,.52,0,3.72,0,7.36-1.15,10.4-3.3"/>
      <path class="cls-1" d="M17.97,21.92c.85-.6,1.54-1.39,2.04-2.3"/>
      <path class="cls-1" d="M11.71,23.75c1.67-.39,3.24-1.1,4.64-2.09"/>
    </g>
    <line class="cls-1" x1="18.01" y1="21.89" x2="18.01" y2="24.21"/>
    <line class="cls-1" x1="5.42" y1="24.96" x2="5.42" y2="27.28"/>
    <g>
      <path class="cls-1" d="M17.86,24.77c.09-.17.14-.37.14-.56"/>
      <path class="cls-1" d="M5.42,27.28c0,.44.24.85.63,1.06"/>
      <path class="cls-1" d="M6.05,28.34c.68.36,1.43.56,2.2.59"/>
      <path class="cls-1" d="M8.25,28.92s.03,0,.04,0"/>
      <path class="cls-1" d="M16.35,26.48c.63-.44,1.15-1.03,1.51-1.71"/>
      <path class="cls-1" d="M20,24.43c.13-.23.19-.5.19-.76,0-.59-.33-1.14-.85-1.42"/>
      <path class="cls-1" d="M19.34,22.25c-.37-.2-.76-.36-1.17-.49"/>
      <path class="cls-1" d="M5.25,24.91c-.75.58-1.38,1.31-1.83,2.15"/>
      <path class="cls-1" d="M3.42,27.05c-.12.23-.19.5-.19.76,0,.59.33,1.14.85,1.42"/>
      <path class="cls-1" d="M4.08,29.24c.91.49,1.93.76,2.97.79"/>
      <path class="cls-1" d="M7.05,30.03c.17,0,.35,0,.52,0,3.72,0,7.36-1.15,10.4-3.3"/>
      <path class="cls-1" d="M17.97,26.73c.85-.6,1.54-1.39,2.04-2.3"/>
      <path class="cls-1" d="M11.71,28.57c1.67-.39,3.24-1.1,4.64-2.09"/>
    </g>
    <line class="cls-1" x1="18.01" y1="26.71" x2="18.01" y2="29.02"/>
    <line class="cls-1" x1="5.42" y1="29.78" x2="5.42" y2="32.1"/>
    <g>
      <path class="cls-1" d="M17.86,29.59c.09-.17.14-.37.14-.56"/>
      <path class="cls-1" d="M5.42,32.1c0,.44.24.85.63,1.05"/>
      <path class="cls-1" d="M6.05,33.15c.68.36,1.43.56,2.2.59"/>
      <path class="cls-1" d="M8.25,33.74s.03,0,.04,0"/>
      <path class="cls-1" d="M16.35,31.3c.63-.44,1.15-1.03,1.51-1.71"/>
      <path class="cls-1" d="M20,29.25c.13-.23.19-.5.19-.76,0-.59-.33-1.14-.85-1.42"/>
      <path class="cls-1" d="M19.34,27.07c-.37-.2-.76-.36-1.17-.49"/>
      <path class="cls-1" d="M5.25,29.73c-.75.58-1.38,1.31-1.83,2.15"/>
      <path class="cls-1" d="M3.42,31.87c-.12.23-.19.5-.19.76,0,.59.33,1.14.85,1.42"/>
      <path class="cls-1" d="M4.08,34.06c.91.49,1.93.76,2.97.79"/>
      <path class="cls-1" d="M7.05,34.85c.17,0,.35,0,.52,0,3.72,0,7.36-1.16,10.4-3.3"/>
      <path class="cls-1" d="M17.97,31.55c.85-.6,1.54-1.39,2.04-2.3"/>
      <path class="cls-1" d="M11.71,33.39c1.67-.39,3.24-1.1,4.64-2.09"/>
      <path class="cls-1" d="M11.71,38.21c1.67-.39,3.24-1.1,4.64-2.09"/>
      <path class="cls-1" d="M17.97,36.37c.85-.6,1.54-1.39,2.04-2.3"/>
      <path class="cls-1" d="M7.05,39.67c.17,0,.35,0,.52,0,3.72,0,7.36-1.16,10.4-3.3"/>
      <path class="cls-1" d="M4.08,38.88c.91.49,1.93.76,2.97.79"/>
      <path class="cls-1" d="M3.42,36.69c-.12.23-.19.5-.19.76,0,.59.33,1.14.85,1.42"/>
      <path class="cls-1" d="M5.25,34.55c-.75.58-1.38,1.31-1.83,2.15"/>
      <path class="cls-1" d="M19.34,31.89c-.37-.2-.76-.36-1.17-.49"/>
      <path class="cls-1" d="M20,34.07c.13-.23.19-.5.19-.76,0-.59-.33-1.14-.85-1.42"/>
      <path class="cls-1" d="M16.35,36.12c.63-.44,1.15-1.03,1.51-1.71"/>
      <path class="cls-1" d="M8.25,38.56s.03,0,.04,0"/>
      <path class="cls-1" d="M6.05,37.97c.68.36,1.43.57,2.2.59"/>
      <path class="cls-1" d="M5.42,36.92c0,.44.24.85.63,1.06"/>
      <path class="cls-1" d="M17.86,34.41c.09-.17.14-.37.14-.56"/>
    </g>
    <line class="cls-1" x1="5.42" y1="34.6" x2="5.42" y2="36.92"/>
    <line class="cls-1" x1="18.01" y1="31.53" x2="18.01" y2="33.84"/>
    <g>
      <path class="cls-1" d="M11.71,43.51c1.67-.39,3.24-1.1,4.64-2.09"/>
      <path class="cls-1" d="M17.97,41.68c.85-.6,1.54-1.39,2.04-2.3"/>
      <path class="cls-1" d="M7.05,44.97c.17,0,.35,0,.52,0,3.72,0,7.36-1.16,10.4-3.3"/>
      <path class="cls-1" d="M4.08,44.18c.91.49,1.93.76,2.97.79"/>
      <path class="cls-1" d="M3.42,42c-.12.23-.19.5-.19.76,0,.59.33,1.14.85,1.42"/>
      <path class="cls-1" d="M5.25,39.85c-.75.58-1.38,1.31-1.83,2.15"/>
      <path class="cls-1" d="M19.34,37.2c-.37-.2-.76-.36-1.17-.49"/>
      <path class="cls-1" d="M20,39.38c.13-.23.19-.5.19-.76,0-.59-.33-1.14-.85-1.42"/>
      <path class="cls-1" d="M16.35,41.42c.63-.44,1.15-1.03,1.51-1.71"/>
      <path class="cls-1" d="M8.25,43.87s.03,0,.04,0"/>
      <path class="cls-1" d="M6.05,43.28c.68.36,1.43.57,2.2.59"/>
      <path class="cls-1" d="M5.42,42.23c0,.44.24.85.63,1.06"/>
      <path class="cls-1" d="M17.86,39.72c.09-.17.14-.37.14-.56"/>
    </g>
    <line class="cls-1" x1="5.42" y1="39.91" x2="5.42" y2="42.23"/>
    <line class="cls-1" x1="18.01" y1="36.83" x2="18.01" y2="39.15"/>
    <g>
      <path class="cls-1" d="M11.71,48.89c1.67-.39,3.24-1.1,4.64-2.09"/>
      <path class="cls-1" d="M17.97,47.06c.85-.6,1.54-1.39,2.04-2.3"/>
      <path class="cls-1" d="M7.05,50.35c.17,0,.35,0,.52,0,3.72,0,7.36-1.16,10.4-3.3"/>
      <path class="cls-1" d="M4.08,49.56c.91.49,1.93.76,2.97.79"/>
      <path class="cls-1" d="M3.42,47.38c-.12.23-.19.5-.19.76,0,.59.33,1.14.85,1.42"/>
      <path class="cls-1" d="M5.25,45.23c-.75.58-1.38,1.31-1.83,2.15"/>
      <path class="cls-1" d="M19.34,42.57c-.37-.2-.76-.36-1.17-.49"/>
      <path class="cls-1" d="M20,44.76c.13-.23.19-.5.19-.76,0-.59-.33-1.14-.85-1.42"/>
      <path class="cls-1" d="M16.35,46.8c.63-.44,1.15-1.03,1.51-1.71"/>
      <path class="cls-1" d="M8.25,49.24s.03,0,.04,0"/>
      <path class="cls-1" d="M6.05,48.66c.68.36,1.43.57,2.2.59"/>
      <path class="cls-1" d="M5.42,47.6c0,.44.24.85.63,1.06"/>
      <path class="cls-1" d="M17.86,45.09c.09-.17.14-.37.14-.56"/>
    </g>
    <line class="cls-1" x1="5.42" y1="45.28" x2="5.42" y2="47.6"/>
    <line class="cls-1" x1="18.01" y1="42.21" x2="18.01" y2="44.53"/>
  </g>
</svg>