<?xml version="1.0" encoding="UTF-8"?>
<svg id="Layer_2" data-name="Layer 2" xmlns="http://www.w3.org/2000/svg" viewBox="0 0 41.85 96">
  <defs>
    <style>
      .cls-1 {
        fill: none;
        stroke: #231f20;
        stroke-linecap: round;
        stroke-linejoin: round;
        stroke-width: .75px;
      }
    </style>
  </defs>
  <g id="Layer_1-2" data-name="Layer 1">
    <g>
      <path class="cls-1" d="M26.83,22.03c.26-.14.52-.3.76-.48"/>
      <path class="cls-1" d="M12.56,21.28c-.02.1-.03.2-.03.3,0,.51.25.99.67,1.28"/>
      <path class="cls-1" d="M15.96,23.96c.84.12,1.69.19,2.54.19,2.91,0,5.77-.73,8.33-2.11"/>
      <path class="cls-1" d="M13.2,22.86c.82.58,1.77.95,2.76,1.1"/>
      <path class="cls-1" d="M29.04,22.88c.18-.26.28-.57.28-.89,0-.24-.05-.47-.16-.68"/>
      <path class="cls-1" d="M26.83,24.86c.88-.48,1.64-1.16,2.22-1.98"/>
      <path class="cls-1" d="M12.81,23.52c-.18.26-.28.57-.28.89,0,.51.25.99.67,1.28"/>
      <path class="cls-1" d="M13.29,22.92c-.17.19-.33.39-.48.6"/>
      <path class="cls-1" d="M15.96,26.79c.84.12,1.69.19,2.54.19,2.91,0,5.77-.73,8.33-2.11"/>
      <path class="cls-1" d="M13.2,25.69c.82.58,1.77.95,2.76,1.1"/>
      <path class="cls-1" d="M29.04,25.72c.18-.26.28-.57.28-.89,0-.51-.25-.99-.67-1.28"/>
      <path class="cls-1" d="M26.83,27.7c.88-.48,1.64-1.16,2.22-1.98"/>
      <path class="cls-1" d="M12.81,26.36c-.18.26-.28.57-.28.89,0,.51.25.99.67,1.28"/>
      <path class="cls-1" d="M13.29,25.76c-.17.19-.33.39-.48.6"/>
      <path class="cls-1" d="M15.96,29.63c.84.12,1.69.19,2.54.19,2.91,0,5.77-.73,8.33-2.11"/>
      <path class="cls-1" d="M13.2,28.53c.82.58,1.77.95,2.76,1.1"/>
      <path class="cls-1" d="M13.29,28.59c-.17.19-.33.39-.48.6"/>
      <path class="cls-1" d="M12.81,29.19c-.18.26-.28.57-.28.89,0,.51.25.99.67,1.28"/>
      <path class="cls-1" d="M13.2,31.36c.82.58,1.77.95,2.76,1.1"/>
      <path class="cls-1" d="M29.04,28.55c.18-.26.28-.57.28-.89,0-.51-.25-.99-.67-1.28"/>
      <path class="cls-1" d="M26.83,30.53c.88-.48,1.64-1.16,2.22-1.98"/>
      <path class="cls-1" d="M15.96,32.46c.84.12,1.69.19,2.54.19,2.91,0,5.77-.73,8.33-2.11"/>
      <path class="cls-1" d="M13.29,31.42c-.17.19-.33.39-.48.6"/>
      <path class="cls-1" d="M12.81,32.03c-.18.26-.28.57-.28.89,0,.51.25.99.67,1.28"/>
      <path class="cls-1" d="M13.2,34.2c.82.58,1.77.95,2.76,1.1"/>
      <path class="cls-1" d="M29.04,31.39c.18-.26.28-.57.28-.89,0-.51-.25-.99-.67-1.28"/>
      <path class="cls-1" d="M26.83,33.37c.88-.48,1.64-1.16,2.22-1.98"/>
      <path class="cls-1" d="M15.96,35.3c.84.12,1.69.19,2.54.19,2.91,0,5.77-.73,8.33-2.11"/>
      <path class="cls-1" d="M13.29,34.26c-.17.19-.33.39-.48.6"/>
      <path class="cls-1" d="M12.81,34.86c-.18.26-.28.57-.28.89,0,.51.25.99.67,1.28"/>
      <path class="cls-1" d="M13.2,37.03c.82.58,1.77.95,2.76,1.1"/>
      <path class="cls-1" d="M29.04,34.22c.18-.26.28-.57.28-.89,0-.51-.25-.99-.67-1.28"/>
      <path class="cls-1" d="M26.83,36.2c.88-.48,1.64-1.16,2.22-1.98"/>
      <path class="cls-1" d="M15.96,38.13c.84.12,1.69.19,2.54.19,2.91,0,5.77-.73,8.33-2.11"/>
      <path class="cls-1" d="M13.29,37.09c-.17.19-.33.39-.48.6"/>
      <path class="cls-1" d="M12.81,37.69c-.18.26-.28.57-.28.89,0,.51.25.99.67,1.28"/>
      <path class="cls-1" d="M13.2,39.87c.82.58,1.77.95,2.76,1.1"/>
      <path class="cls-1" d="M29.04,37.06c.18-.26.28-.57.28-.89,0-.51-.25-.99-.67-1.28"/>
      <path class="cls-1" d="M26.83,39.04c.88-.48,1.64-1.16,2.22-1.98"/>
      <path class="cls-1" d="M15.96,40.96c.84.12,1.69.19,2.54.19,2.91,0,5.77-.73,8.33-2.11"/>
      <path class="cls-1" d="M13.29,39.93c-.17.19-.33.39-.48.6"/>
      <path class="cls-1" d="M12.81,40.53c-.18.26-.28.57-.28.89,0,.51.25.99.67,1.28"/>
      <path class="cls-1" d="M13.2,42.7c.82.58,1.77.95,2.76,1.1"/>
      <path class="cls-1" d="M29.04,39.89c.18-.26.28-.57.28-.89,0-.51-.25-.99-.67-1.28"/>
      <path class="cls-1" d="M26.83,41.87c.88-.48,1.64-1.16,2.22-1.98"/>
      <path class="cls-1" d="M15.96,43.8c.84.12,1.69.19,2.54.19,2.91,0,5.77-.73,8.33-2.11"/>
      <path class="cls-1" d="M13.29,42.76c-.17.19-.33.39-.48.6"/>
      <path class="cls-1" d="M12.81,43.36c-.18.26-.28.57-.28.89,0,.51.25.99.67,1.28"/>
      <path class="cls-1" d="M13.2,45.54c.82.58,1.77.95,2.76,1.1"/>
      <path class="cls-1" d="M29.04,42.72c.18-.26.28-.57.28-.89,0-.51-.25-.99-.67-1.28"/>
      <path class="cls-1" d="M26.83,44.71c.88-.48,1.64-1.16,2.22-1.98"/>
      <path class="cls-1" d="M15.96,46.63c.84.12,1.69.19,2.54.19,2.91,0,5.77-.73,8.33-2.11"/>
      <path class="cls-1" d="M13.29,45.6c-.17.19-.33.39-.48.6"/>
      <path class="cls-1" d="M12.81,46.2c-.18.26-.28.57-.28.89,0,.51.25.99.67,1.28"/>
      <path class="cls-1" d="M13.2,48.37c.82.58,1.77.95,2.76,1.1"/>
      <path class="cls-1" d="M29.04,45.56c.18-.26.28-.57.28-.89,0-.51-.25-.99-.67-1.28"/>
      <path class="cls-1" d="M26.83,47.54c.88-.48,1.64-1.16,2.22-1.98"/>
      <path class="cls-1" d="M15.96,49.47c.84.12,1.69.19,2.54.19,2.91,0,5.77-.73,8.33-2.11"/>
      <path class="cls-1" d="M13.29,48.43c-.17.19-.33.39-.48.6"/>
      <path class="cls-1" d="M12.81,49.03c-.18.26-.28.57-.28.89,0,.51.25.99.67,1.28"/>
      <path class="cls-1" d="M13.2,51.21c.82.58,1.77.95,2.76,1.1"/>
      <path class="cls-1" d="M29.04,48.39c.18-.26.28-.57.28-.89,0-.51-.25-.99-.67-1.28"/>
      <path class="cls-1" d="M26.83,50.38c.88-.48,1.64-1.16,2.22-1.98"/>
      <path class="cls-1" d="M15.96,52.3c.84.12,1.69.19,2.54.19,2.91,0,5.77-.73,8.33-2.11"/>
      <path class="cls-1" d="M13.29,51.27c-.17.19-.33.39-.48.6"/>
      <path class="cls-1" d="M12.81,51.87c-.18.26-.28.57-.28.89,0,.51.25.99.67,1.28"/>
      <path class="cls-1" d="M13.2,54.04c.82.58,1.77.95,2.76,1.1"/>
      <path class="cls-1" d="M29.04,51.23c.18-.26.28-.57.28-.89,0-.51-.25-.99-.67-1.28"/>
      <path class="cls-1" d="M26.83,53.21c.88-.48,1.64-1.16,2.22-1.98"/>
      <path class="cls-1" d="M15.96,55.14c.84.12,1.69.19,2.54.19,2.91,0,5.77-.73,8.33-2.11"/>
      <path class="cls-1" d="M13.29,54.1c-.17.19-.33.39-.48.6"/>
      <path class="cls-1" d="M12.81,54.7c-.18.26-.28.57-.28.89,0,.51.25.99.67,1.28"/>
      <path class="cls-1" d="M13.2,56.87c.82.58,1.77.95,2.76,1.1"/>
      <path class="cls-1" d="M29.04,54.06c.18-.26.28-.57.28-.89,0-.51-.25-.99-.67-1.28"/>
      <path class="cls-1" d="M26.83,56.04c.88-.48,1.64-1.16,2.22-1.98"/>
      <path class="cls-1" d="M15.96,57.97c.84.12,1.69.19,2.54.19,2.91,0,5.77-.73,8.33-2.11"/>
      <path class="cls-1" d="M13.29,56.94c-.17.19-.33.39-.48.6"/>
      <path class="cls-1" d="M12.81,57.54c-.18.26-.28.57-.28.89,0,.51.25.99.67,1.28"/>
      <path class="cls-1" d="M13.2,59.71c.82.58,1.77.95,2.76,1.1"/>
      <path class="cls-1" d="M29.04,56.9c.18-.26.28-.57.28-.89,0-.51-.25-.99-.67-1.28"/>
      <path class="cls-1" d="M26.83,58.88c.88-.48,1.64-1.16,2.22-1.98"/>
      <path class="cls-1" d="M15.96,60.81c.84.12,1.69.19,2.54.19,2.91,0,5.77-.73,8.33-2.11"/>
      <path class="cls-1" d="M13.29,59.77c-.17.19-.33.39-.48.6"/>
      <path class="cls-1" d="M12.81,60.37c-.18.26-.28.57-.28.89,0,.51.25.99.67,1.28"/>
      <path class="cls-1" d="M13.2,62.54c.82.58,1.77.95,2.76,1.1"/>
      <path class="cls-1" d="M29.04,59.73c.18-.26.28-.57.28-.89,0-.51-.25-.99-.67-1.28"/>
      <path class="cls-1" d="M26.83,61.71c.88-.48,1.64-1.16,2.22-1.98"/>
      <path class="cls-1" d="M15.96,63.64c.84.12,1.69.19,2.54.19,2.91,0,5.77-.73,8.33-2.11"/>
      <path class="cls-1" d="M13.29,62.61c-.17.19-.33.39-.48.6"/>
      <path class="cls-1" d="M12.81,63.21c-.18.26-.28.57-.28.89,0,.51.25.99.67,1.28"/>
      <path class="cls-1" d="M13.2,65.38c.82.58,1.77.95,2.76,1.1"/>
      <path class="cls-1" d="M29.04,62.57c.18-.26.28-.57.28-.89,0-.51-.25-.99-.67-1.28"/>
      <path class="cls-1" d="M26.83,64.55c.88-.48,1.64-1.16,2.22-1.98"/>
      <path class="cls-1" d="M15.96,66.48c.84.12,1.69.19,2.54.19,2.91,0,5.77-.73,8.33-2.11"/>
      <path class="cls-1" d="M13.29,65.44c-.17.19-.33.39-.48.6"/>
      <path class="cls-1" d="M12.81,66.04c-.18.26-.28.57-.28.89,0,.51.25.99.67,1.28"/>
      <path class="cls-1" d="M13.2,68.21c.82.58,1.77.95,2.76,1.1"/>
      <path class="cls-1" d="M29.04,65.4c.18-.26.28-.57.28-.89,0-.51-.25-.99-.67-1.28"/>
      <path class="cls-1" d="M26.83,67.38c.88-.48,1.64-1.16,2.22-1.98"/>
      <path class="cls-1" d="M15.96,69.31c.84.12,1.69.19,2.54.19,2.91,0,5.77-.73,8.33-2.11"/>
      <path class="cls-1" d="M13.29,68.28c-.17.19-.33.39-.48.6"/>
      <path class="cls-1" d="M12.81,68.88c-.18.26-.28.57-.28.89,0,.51.25.99.67,1.28"/>
      <path class="cls-1" d="M13.2,71.05c.82.58,1.77.95,2.76,1.1"/>
      <path class="cls-1" d="M29.04,68.24c.18-.26.28-.57.28-.89,0-.51-.25-.99-.67-1.28"/>
      <path class="cls-1" d="M26.83,70.22c.88-.48,1.64-1.16,2.22-1.98"/>
      <path class="cls-1" d="M15.96,72.15c.84.12,1.69.19,2.54.19,2.91,0,5.77-.73,8.33-2.11"/>
      <path class="cls-1" d="M13.29,71.11c-.17.19-.33.39-.48.6"/>
      <path class="cls-1" d="M12.81,71.71c-.18.26-.28.57-.28.89,0,.51.25.99.67,1.28"/>
      <path class="cls-1" d="M13.2,73.88c.82.58,1.77.95,2.76,1.1"/>
      <path class="cls-1" d="M29.04,71.07c.18-.26.28-.57.28-.89,0-.51-.25-.99-.67-1.28"/>
      <path class="cls-1" d="M26.83,73.05c.88-.48,1.64-1.16,2.22-1.98"/>
      <path class="cls-1" d="M15.96,74.98c.84.12,1.69.19,2.54.19,2.91,0,5.77-.73,8.33-2.11"/>
      <path class="cls-1" d="M13.29,73.94c-.17.19-.33.39-.48.6"/>
      <path class="cls-1" d="M12.81,74.55c-.18.26-.28.57-.28.89,0,.51.25.99.67,1.28"/>
      <path class="cls-1" d="M13.2,76.72c.82.58,1.77.95,2.76,1.1"/>
      <path class="cls-1" d="M29.04,73.91c.18-.26.28-.57.28-.89,0-.51-.25-.99-.67-1.28"/>
      <path class="cls-1" d="M26.83,75.89c.88-.48,1.64-1.16,2.22-1.98"/>
      <path class="cls-1" d="M15.96,77.81c.84.12,1.69.19,2.54.19,2.91,0,5.77-.73,8.33-2.11"/>
      <path class="cls-1" d="M13.29,76.78c-.17.19-.33.39-.48.6"/>
      <path class="cls-1" d="M12.81,77.38c-.18.26-.28.57-.28.89,0,.51.25.99.67,1.28"/>
      <path class="cls-1" d="M13.2,79.55c.82.58,1.77.95,2.76,1.1"/>
      <path class="cls-1" d="M29.04,76.74c.18-.26.28-.57.28-.89,0-.51-.25-.99-.67-1.28"/>
      <path class="cls-1" d="M26.83,78.72c.88-.48,1.64-1.16,2.22-1.98"/>
      <path class="cls-1" d="M15.96,80.65c.84.12,1.69.19,2.54.19,2.91,0,5.77-.73,8.33-2.11"/>
      <path class="cls-1" d="M13.29,79.61c-.17.19-.33.39-.48.6"/>
      <path class="cls-1" d="M12.81,80.21c-.18.26-.28.57-.28.9,0,.51.25.99.67,1.28"/>
      <path class="cls-1" d="M13.2,82.39c.82.57,1.77.95,2.76,1.1"/>
      <path class="cls-1" d="M29.04,79.57c.18-.26.28-.57.28-.89,0-.51-.25-.99-.67-1.28"/>
      <path class="cls-1" d="M26.83,81.56c.88-.48,1.64-1.16,2.22-1.98"/>
      <path class="cls-1" d="M15.96,83.48c.84.12,1.69.19,2.54.19,2.91,0,5.77-.73,8.33-2.11"/>
      <path class="cls-1" d="M13.29,82.45c-.17.19-.33.39-.48.6"/>
      <path class="cls-1" d="M12.81,83.05c-.18.26-.28.57-.28.89,0,.51.25.99.67,1.28"/>
      <path class="cls-1" d="M13.2,85.22c.82.58,1.77.95,2.76,1.1"/>
      <path class="cls-1" d="M29.04,82.41c.18-.26.28-.57.28-.89,0-.51-.25-.99-.67-1.28"/>
      <path class="cls-1" d="M26.83,84.39c.88-.48,1.64-1.16,2.22-1.98"/>
      <path class="cls-1" d="M15.96,86.32c.84.12,1.69.19,2.54.19,2.91,0,5.77-.73,8.33-2.11"/>
      <path class="cls-1" d="M13.29,85.28c-.17.19-.33.39-.48.6"/>
      <path class="cls-1" d="M12.81,85.88c-.18.26-.28.57-.28.89,0,.51.25.99.67,1.28"/>
      <path class="cls-1" d="M13.2,88.06c.82.58,1.77.95,2.76,1.1"/>
      <path class="cls-1" d="M29.04,85.24c.18-.26.28-.57.28-.89,0-.51-.25-.99-.67-1.28"/>
      <path class="cls-1" d="M26.83,87.23c.88-.48,1.64-1.16,2.22-1.98"/>
      <path class="cls-1" d="M15.96,89.15c.84.12,1.69.19,2.54.19,2.91,0,5.77-.73,8.33-2.11"/>
      <path class="cls-1" d="M13.29,88.12c-.17.19-.33.39-.48.6"/>
      <path class="cls-1" d="M12.81,88.72c-.18.26-.28.57-.28.9,0,.51.25.99.67,1.28"/>
      <path class="cls-1" d="M13.2,90.89c.82.57,1.77.95,2.76,1.1"/>
      <path class="cls-1" d="M29.04,88.08c.18-.26.28-.57.28-.89,0-.51-.25-.99-.67-1.28"/>
      <path class="cls-1" d="M26.83,90.06c.88-.48,1.64-1.16,2.22-1.98"/>
      <path class="cls-1" d="M15.96,91.99c.84.12,1.69.19,2.54.19,2.91,0,5.77-.73,8.33-2.11"/>
      <path class="cls-1" d="M26.83,92.9c.88-.48,1.64-1.16,2.22-1.98"/>
      <path class="cls-1" d="M15.96,94.82c.84.12,1.69.19,2.54.19,2.91,0,5.77-.73,8.33-2.11"/>
      <path class="cls-1" d="M13.2,93.73c.82.58,1.77.95,2.76,1.1"/>
      <path class="cls-1" d="M12.81,91.55c-.18.26-.28.57-.28.89,0,.51.25.99.67,1.28"/>
      <path class="cls-1" d="M13.29,90.95c-.17.19-.33.39-.48.6"/>
      <path class="cls-1" d="M28.66,88.74s-.06-.04-.09-.06"/>
      <path class="cls-1" d="M29.04,90.91c.18-.26.28-.57.28-.89,0-.51-.25-.99-.67-1.28"/>
      <path class="cls-1" d="M25.74,94.85c.83-.28,1.58-.74,2.2-1.36"/>
      <path class="cls-1" d="M16.12,94.85c1.55.52,3.17.78,4.81.78s3.26-.26,4.81-.78"/>
      <path class="cls-1" d="M16.1,94.84s.01,0,.02,0"/>
      <path class="cls-1" d="M27.94,93.49c.26-.25.4-.6.4-.96,0-.21-.05-.43-.15-.62"/>
      <path class="cls-1" d="M39.24,6.8c-.12-.1-.24-.2-.36-.3-.33-.27-.67-.53-1.02-.78-.35-.25-.7-.49-1.06-.73-.36-.24-.72-.46-1.09-.68-.37-.22-.74-.43-1.12-.63-.38-.2-.77-.39-1.15-.58-.39-.18-.79-.36-1.19-.52-.4-.17-.81-.32-1.22-.47-.41-.15-.83-.29-1.25-.42-.42-.13-.85-.25-1.28-.36-.43-.11-.87-.21-1.31-.31-.45-.09-.89-.18-1.34-.25-.45-.07-.91-.14-1.37-.19-.46-.05-.93-.1-1.39-.13-.47-.03-.94-.05-1.41-.07-.48-.01-.95-.01-1.43,0-.49,0-.97.03-1.45.07-.49.03-.98.08-1.47.14-.5.06-.99.13-1.49.21-.45.08-.9.16-1.34.26-.44.1-.89.2-1.32.32-.44.12-.87.24-1.3.38-.43.13-.85.28-1.27.44-.39.15-.78.31-1.17.46"/>
      <path class="cls-1" d="M9.41,2.66c-.4.18-.8.35-1.19.54-.4.19-.79.39-1.18.6-.39.21-.77.43-1.14.65-.37.22-.74.46-1.1.7-.36.24-.71.5-1.07.75s-.7.52-1.03.8c-.03.03-.07.06-.1.09"/>
    </g>
    <line class="cls-1" x1=".38" y1="10.74" x2=".38" y2="13.3"/>
    <polyline class="cls-1" points="16.13 2.05 15.64 2.29 15.2 2.55 14.84 2.82 14.55 3.11 14.33 3.41 14.2 3.73 14.15 4.04 14.18 4.36 14.29 4.67 14.49 4.97 14.76 5.27 15.1 5.55 15.52 5.81 16 6.05 16.55 6.27 17.14 6.46 17.78 6.62 18.46 6.75 19.17 6.85 19.9 6.91 20.65 6.94 21.39 6.94 22.13 6.9 22.86 6.83 23.56 6.72 24.23 6.58 24.86 6.41 25.45 6.21 25.98 5.99 26.44 5.74 26.84 5.48 27.17 5.19 27.42 4.9 27.6 4.59 27.69 4.28 27.7 3.96 27.63 3.65 27.47 3.34 27.24 3.04 26.93 2.75 26.55 2.48 26.1 2.23 25.59 2 25.02 1.8 24.4 1.62 23.73 1.47 23.04 1.36 22.32 1.28 21.58 1.23 20.83 1.22 20.09 1.24 19.35 1.29 18.64 1.38 17.95 1.51 17.3 1.66 16.69 1.84 16.13 2.05"/>
    <polyline class="cls-1" points="4.69 16.06 3.93 15.62 3.24 15.16 2.62 14.68 2.07 14.18 1.59 13.68 1.19 13.16 .87 12.63 .63 12.09 .47 11.55 .39 11.01 .39 10.46 .47 9.92 .63 9.38 .87 8.84 1.19 8.31 1.59 7.79 2.07 7.29 2.6 6.8"/>
    <polyline class="cls-1" points="39.25 6.8 39.79 7.29 40.26 7.79 40.66 8.31 40.98 8.84 41.23 9.38 41.39 9.92 41.47 10.46 41.47 11.01 41.39 11.55 41.23 12.09 40.98 12.63 40.66 13.16 40.26 13.68 39.79 14.19 39.24 14.68 38.62 15.16 37.92 15.62 37.17 16.06 36.34 16.48 35.46 16.88 34.52 17.25 33.52 17.6 32.48 17.92 31.39 18.21 30.26 18.47 29.09 18.71 27.89 18.91 26.66 19.08 25.41 19.21 24.14 19.31 22.86 19.38 21.57 19.42 20.28 19.42 18.99 19.38 17.71 19.31 16.44 19.21 15.19 19.08 13.97 18.91 12.77 18.71"/>
    <polyline class="cls-1" points="41.48 13.3 41.47 13.58 41.39 14.12 41.23 14.66 40.98 15.2 40.66 15.73 40.26 16.25 39.79 16.75 39.24 17.25 38.62 17.73 37.92 18.19 37.17 18.63 36.34 19.05 35.46 19.45 34.52 19.82 33.52 20.17 32.48 20.49 31.39 20.78 30.26 21.04 29.09 21.28 27.89 21.48 26.66 21.64 25.41 21.78 24.14 21.88 22.86 21.95 21.57 21.99 20.28 21.99 18.99 21.95 17.71 21.88 16.44 21.78 15.19 21.64 13.97 21.48 12.77 21.28 11.6 21.04 10.47 20.78 9.38 20.49 8.33 20.17 7.34 19.82 6.4 19.45 5.51 19.05 4.69 18.63 3.93 18.19 3.24 17.73 2.62 17.25 2.07 16.75 1.59 16.25 1.19 15.73 .87 15.2 .63 14.66 .47 14.12 .39 13.58 .38 13.3"/>
    <g>
      <path class="cls-1" d="M26.34,5.79c.08-.12.15-.23.23-.38.09-.18.18-.4.27-.63.07-.18.14-.37.21-.58.07-.2.14-.42.2-.64"/>
      <path class="cls-1" d="M22.62,1.62c.36.38.74.74,1.12,1.05.39.3.79.55,1.19.73.41.17.8.26,1.19.28.39.02.77-.02,1.12-.1"/>
      <path class="cls-1" d="M22.62,1.62c-.49.29-1,.54-1.52.74-.26.1-.53.19-.8.26-.27.07-.55.12-.83.15-.55.06-1.1.05-1.63-.03-.53-.08-1.05-.22-1.54-.4"/>
      <path class="cls-1" d="M16.3,2.33c-.13.44-.27.85-.41,1.21-.07.18-.14.35-.21.5-.07.15-.15.29-.22.41-.15.23-.29.39-.44.47-.14.08-.28.1-.41.08"/>
      <path class="cls-1" d="M14.6,5c.17.19.35.38.53.53.02.02.04.03.06.05"/>
    </g>
    <line class="cls-1" x1="16.3" y1="6.17" x2="16.3" y2="2.33"/>
    <line class="cls-1" x1="22.62" y1="6.85" x2="22.62" y2="1.62"/>
  </g>
</svg>