<?xml version="1.0" encoding="UTF-8"?>
<svg id="Layer_2" data-name="Layer 2" xmlns="http://www.w3.org/2000/svg" viewBox="0 0 67.94 74.1">
  <defs>
    <style>
      .cls-1 {
        fill: none;
        stroke: #231f20;
        stroke-linecap: round;
        stroke-linejoin: round;
        stroke-width: .75px;
      }
    </style>
  </defs>
  <g id="Layer_1-2" data-name="Layer 1">
    <g>
      <path class="cls-1" d="M48.5,28.93c.08.02.16.03.24.04.16.03.32.05.48.06.16.02.32.03.49.04.16,0,.33.01.49,0,.16,0,.33,0,.49-.02.16-.01.33-.03.49-.04.16-.02.32-.04.47-.07.15-.03.31-.06.45-.1.15-.04.29-.08.43-.12.14-.05.27-.1.4-.15.13-.06.25-.12.37-.18.12-.07.23-.14.33-.21.06-.05.12-.1.18-.15"/>
      <path class="cls-1" d="M5.23,16.3s-.08.07-.12.11c-.23.2-.44.42-.65.65-.21.22-.41.45-.61.69s-.39.48-.57.72c-.18.25-.35.5-.52.76-.17.26-.32.53-.47.8-.15.27-.29.55-.42.83-.13.28-.26.57-.37.86-.12.29-.22.59-.32.89-.1.3-.19.6-.27.91-.08.31-.15.62-.21.93-.06.32-.12.63-.16.95-.04.32-.08.64-.1.97-.03.33-.04.65-.05.98,0,.33,0,.66,0,.99.01.25.03.5.04.75"/>
      <path class="cls-1" d="M67,16.09s.1-.09.14-.14c.07-.07.13-.15.19-.24.05-.08.1-.16.13-.25.04-.08.06-.17.08-.26.01-.08.02-.16.02-.23"/>
      <path class="cls-1" d="M32.59.72c-.2-.04-.4-.07-.59-.11-.34-.06-.68-.1-1.02-.14-.34-.04-.68-.06-1.02-.08-.34-.02-.68-.02-1.01-.02-.34,0-.67.01-1,.04-.33.02-.66.05-.99.1-.33.04-.65.09-.98.15-.32.06-.64.13-.96.21-.32.08-.63.17-.94.27-.31.1-.61.21-.92.32-.3.12-.6.24-.89.38-.29.13-.58.28-.86.43-.28.15-.56.31-.83.48-.27.17-.54.34-.8.53-.26.18-.52.37-.76.58-.22.18-.43.36-.64.55"/>
    </g>
    <polyline class="cls-1" points="5.9 69.51 5.41 69.4 4.97 69.26 4.56 69.1 4.22 68.91 3.93 68.71 3.7 68.5 3.55 68.27 3.47 68.04 3.45 67.94"/>
    <line class="cls-1" x1="39.84" y1="27.22" x2="48.5" y2="28.93"/>
    <line class="cls-1" x1="53.83" y1="28.03" x2="67" y2="16.09"/>
    <line class="cls-1" x1="18.33" y1="4.42" x2="5.2" y2="16.32"/>
    <line class="cls-1" x1=".43" y1="29.09" x2="3.45" y2="67.94"/>
    <line class="cls-1" x1="67.57" y1="14.91" x2="67.45" y2="10.16"/>
    <line class="cls-1" x1="64.23" y1="6.96" x2="32.59" y2=".72"/>
    <line class="cls-1" x1="67.57" y1="14.97" x2="67.57" y2="14.95"/>
    <line class="cls-1" x1="41.8" y1="61.01" x2="42.88" y2="27.82"/>
    <line class="cls-1" x1="51.12" y1="27.38" x2="51.22" y2="22.96"/>
    <line class="cls-1" x1="49.46" y1="21.3" x2="17.56" y2="14.96"/>
    <line class="cls-1" x1="64.72" y1="9.56" x2="52.3" y2="20.82"/>
    <line class="cls-1" x1="27.1" y1="73.69" x2="5.9" y2="69.51"/>
    <line class="cls-1" x1="29.38" y1="35.33" x2="27.01" y2="37.47"/>
    <line class="cls-1" x1="41.74" y1="61.13" x2="28.04" y2="73.54"/>
    <line class="cls-1" x1="18.36" y1="4.4" x2="18.33" y2="4.42"/>
    <g>
      <path class="cls-1" d="M27.1,73.69c.32.08.66.03.94-.14"/>
      <path class="cls-1" d="M41.74,61.13s.06-.07.07-.12"/>
      <path class="cls-1" d="M31.75,28.54c-1.56,1.97-2.32,4.27-2.37,6.79"/>
      <path class="cls-1" d="M17.56,14.96C11.91,13.77-.38,15.63.43,29.09"/>
    </g>
    <line class="cls-1" x1="27.57" y1="71.81" x2="27.01" y2="37.74"/>
    <g>
      <path class="cls-1" d="M39.84,27.22c-5.99-1.11-10.95,1.87-12.46,7.43-.27,1.01-.4,2.05-.36,3.1"/>
      <path class="cls-1" d="M67.45,10.16c0-1.81-1.79-2.96-3.22-3.2"/>
    </g>
  </g>
</svg>