<?xml version="1.0" encoding="UTF-8"?>
<svg id="Layer_2" data-name="Layer 2" xmlns="http://www.w3.org/2000/svg" viewBox="0 0 34.77 181.05">
  <defs>
    <style>
      .cls-1 {
        fill: none;
        stroke: #231f20;
        stroke-linecap: round;
        stroke-linejoin: round;
        stroke-width: .75px;
      }
    </style>
  </defs>
  <g id="Layer_1-2" data-name="Layer 1">
    <g>
      <path class="cls-1" d="M25.3,179.39c1.37-.45,2.61-1.22,3.63-2.24"/>
      <path class="cls-1" d="M9.47,179.39c2.55.85,5.23,1.29,7.91,1.29s5.36-.43,7.92-1.29"/>
      <path class="cls-1" d="M5.84,177.15c1.02,1.02,2.26,1.79,3.63,2.24"/>
      <path class="cls-1" d="M5.76,177.07s.05.06.08.08"/>
      <path class="cls-1" d="M28.93,177.15s.05-.05.08-.08"/>
    </g>
    <line class="cls-1" x1="1.18" y1="171.99" x2="5.76" y2="177.07"/>
    <line class="cls-1" x1="33.59" y1="171.99" x2="29.01" y2="177.07"/>
    <g>
      <path class="cls-1" d="M28.42,175.23c1.9-.64,3.64-1.71,5.06-3.13"/>
      <path class="cls-1" d="M6.35,175.23c3.56,1.19,7.28,1.79,11.03,1.79s7.48-.6,11.04-1.79"/>
      <path class="cls-1" d="M1.29,172.1c1.42,1.42,3.15,2.49,5.06,3.13"/>
      <path class="cls-1" d="M.38,169.9c0,.83.33,1.62.91,2.21"/>
      <path class="cls-1" d="M33.48,172.1c.58-.58.91-1.38.91-2.2"/>
      <path class="cls-1" d="M14.95,10.47c.81.08,1.62.12,2.43.12,2.69,0,5.36-.43,7.92-1.28"/>
      <path class="cls-1" d="M25.3,9.31c1.37-.45,2.61-1.22,3.63-2.24"/>
      <path class="cls-1" d="M5.84,7.07c1.02,1.02,2.26,1.79,3.63,2.24"/>
      <path class="cls-1" d="M5.84,3.9c-.42.42-.66.99-.66,1.58s.24,1.16.66,1.58"/>
      <path class="cls-1" d="M9.47,1.66c-1.37.46-2.61,1.23-3.63,2.24"/>
      <path class="cls-1" d="M25.3,1.66c-2.55-.85-5.23-1.28-7.92-1.28s-5.36.43-7.91,1.28"/>
      <path class="cls-1" d="M28.93,3.9c-1.02-1.02-2.26-1.78-3.63-2.24"/>
      <path class="cls-1" d="M28.93,7.07c.42-.42.66-.99.66-1.58s-.24-1.16-.66-1.58"/>
      <path class="cls-1" d="M28.42,16.48c1.9-.63,3.64-1.7,5.06-3.12"/>
      <path class="cls-1" d="M6.35,16.48c3.56,1.19,7.28,1.79,11.03,1.79s7.48-.6,11.04-1.79"/>
      <path class="cls-1" d="M1.29,13.36c1.42,1.42,3.15,2.49,5.06,3.12"/>
      <path class="cls-1" d="M1.18,9.06c-.52.57-.81,1.32-.81,2.09,0,.83.33,1.62.91,2.21"/>
      <path class="cls-1" d="M33.48,13.36c.58-.58.91-1.38.91-2.21,0-.77-.28-1.52-.8-2.09"/>
    </g>
    <line class="cls-1" x1="5.76" y1="3.98" x2="1.18" y2="9.06"/>
    <line class="cls-1" x1="29.01" y1="3.98" x2="33.59" y2="9.06"/>
    <line class="cls-1" x1=".38" y1="11.15" x2=".38" y2="169.9"/>
    <line class="cls-1" x1="34.39" y1="11.15" x2="34.39" y2="169.9"/>
    <line class="cls-1" x1="4.26" y1="18.44" x2="4.26" y2="171.46"/>
    <line class="cls-1" x1="8.59" y1="20.02" x2="8.59" y2="173.02"/>
    <line class="cls-1" x1="12.93" y1="20.83" x2="12.93" y2="173.89"/>
    <line class="cls-1" x1="17.27" y1="21.16" x2="17.27" y2="174.16"/>
    <line class="cls-1" x1="21.62" y1="20.86" x2="21.61" y2="173.89"/>
    <line class="cls-1" x1="25.95" y1="20.07" x2="25.95" y2="173.07"/>
    <line class="cls-1" x1="30.36" y1="18.57" x2="30.36" y2="171.54"/>
  </g>
</svg>