<?xml version="1.0" encoding="UTF-8"?>
<svg id="Layer_2" data-name="Layer 2" xmlns="http://www.w3.org/2000/svg" viewBox="0 0 23.43 92.6">
  <defs>
    <style>
      .cls-1 {
        fill: none;
        stroke: #231f20;
        stroke-linecap: round;
        stroke-linejoin: round;
        stroke-width: .75px;
      }
    </style>
  </defs>
  <g id="Layer_1-2" data-name="Layer 1">
    <g>
      <g>
        <path class="cls-1" d="M16.99,91.37c.91-.3,1.74-.81,2.42-1.49"/>
        <path class="cls-1" d="M6.44,91.37c1.7.57,3.48.86,5.28.86s3.57-.29,5.28-.86"/>
        <path class="cls-1" d="M4.02,89.88c.68.68,1.51,1.19,2.42,1.49"/>
        <path class="cls-1" d="M3.97,89.82s.03.04.05.06"/>
        <path class="cls-1" d="M19.41,89.88s.03-.04.05-.05"/>
      </g>
      <line class="cls-1" x1=".91" y1="86.43" x2="3.97" y2="89.82"/>
      <line class="cls-1" x1="22.52" y1="86.43" x2="19.46" y2="89.82"/>
      <g>
        <path class="cls-1" d="M19.07,88.6c1.27-.42,2.42-1.14,3.37-2.08"/>
        <path class="cls-1" d="M4.36,88.6c2.37.79,4.86,1.19,7.36,1.19s4.99-.4,7.36-1.19"/>
        <path class="cls-1" d="M.98,86.51c.95.95,2.1,1.66,3.37,2.08"/>
        <path class="cls-1" d="M.38,85.04c0,.55.22,1.08.61,1.47"/>
        <path class="cls-1" d="M22.44,86.51c.39-.39.61-.92.61-1.47"/>
        <path class="cls-1" d="M10.09,7.11c.54.05,1.08.08,1.62.08,1.79,0,3.57-.29,5.28-.86"/>
        <path class="cls-1" d="M16.99,6.33c.91-.3,1.74-.81,2.42-1.49"/>
        <path class="cls-1" d="M4.02,4.84c.68.68,1.51,1.19,2.42,1.49"/>
        <path class="cls-1" d="M4.02,2.73c-.28.28-.44.66-.44,1.06s.16.77.44,1.05"/>
        <path class="cls-1" d="M6.44,1.23c-.91.3-1.74.82-2.42,1.5"/>
        <path class="cls-1" d="M16.99,1.23c-1.7-.57-3.48-.86-5.28-.86s-3.58.29-5.28.86"/>
        <path class="cls-1" d="M19.41,2.73c-.68-.68-1.51-1.19-2.42-1.49"/>
        <path class="cls-1" d="M19.41,4.84c.28-.28.44-.66.44-1.05s-.16-.77-.44-1.05"/>
        <path class="cls-1" d="M19.07,11.11c1.27-.42,2.42-1.14,3.37-2.08"/>
        <path class="cls-1" d="M4.36,11.11c2.37.79,4.86,1.19,7.36,1.19s4.99-.4,7.36-1.19"/>
        <path class="cls-1" d="M.98,9.03c.95.95,2.1,1.66,3.37,2.08"/>
        <path class="cls-1" d="M.91,6.17c-.35.38-.54.88-.54,1.39,0,.55.22,1.08.61,1.47"/>
        <path class="cls-1" d="M22.44,9.03c.39-.39.61-.92.61-1.47,0-.52-.19-1.01-.54-1.39"/>
      </g>
      <line class="cls-1" x1="3.97" y1="2.78" x2=".91" y2="6.17"/>
      <line class="cls-1" x1="19.46" y1="2.78" x2="22.52" y2="6.17"/>
      <line class="cls-1" x1=".38" y1="7.56" x2=".38" y2="85.04"/>
      <line class="cls-1" x1="23.05" y1="7.56" x2="23.05" y2="85.04"/>
      <line class="cls-1" x1="7.73" y1="14.67" x2="7.73" y2="86.55"/>
      <line class="cls-1" x1="15.73" y1="14.7" x2="15.73" y2="86.59"/>
      <line class="cls-1" x1="3.73" y1="13.61" x2="3.73" y2="85.51"/>
      <line class="cls-1" x1="11.73" y1="15.14" x2="11.73" y2="86.96"/>
      <line class="cls-1" x1="19.73" y1="13.58" x2="19.73" y2="85.48"/>
    </g>
  </g>
</svg>