<?xml version="1.0" encoding="UTF-8"?>
<svg id="Layer_2" data-name="Layer 2" xmlns="http://www.w3.org/2000/svg" viewBox="0 0 29.1 122.65">
  <defs>
    <style>
      .cls-1 {
        fill: none;
        stroke: #231f20;
        stroke-linecap: round;
        stroke-linejoin: round;
        stroke-width: .75px;
      }
    </style>
  </defs>
  <g id="Layer_1-2" data-name="Layer 1">
    <line class="cls-1" x1="28.72" y1="9.36" x2="28.72" y2="113.29"/>
    <line class="cls-1" x1=".38" y1="9.36" x2=".38" y2="113.29"/>
    <line class="cls-1" x1="24.23" y1="3.38" x2="28.05" y2="7.61"/>
    <line class="cls-1" x1="4.87" y1="3.38" x2="1.05" y2="7.61"/>
    <g>
      <path class="cls-1" d="M27.96,11.2c.49-.49.76-1.15.76-1.84,0-.65-.24-1.27-.67-1.74"/>
      <path class="cls-1" d="M1.05,7.61c-.43.48-.67,1.1-.67,1.74,0,.69.28,1.35.76,1.84"/>
      <path class="cls-1" d="M1.14,11.2c1.18,1.18,2.63,2.08,4.21,2.61"/>
      <path class="cls-1" d="M5.35,13.8c2.96.99,6.07,1.49,9.2,1.49s6.23-.5,9.2-1.49"/>
      <path class="cls-1" d="M23.74,13.8c1.59-.53,3.03-1.42,4.22-2.6"/>
      <path class="cls-1" d="M24.17,5.95c.35-.35.54-.82.54-1.32s-.2-.97-.54-1.32"/>
      <path class="cls-1" d="M24.17,3.31c-.85-.85-1.89-1.49-3.02-1.87"/>
      <path class="cls-1" d="M21.14,1.44c-2.13-.71-4.35-1.07-6.6-1.07s-4.47.36-6.6,1.07"/>
      <path class="cls-1" d="M7.95,1.44c-1.14.38-2.17,1.02-3.02,1.87"/>
      <path class="cls-1" d="M4.93,3.31c-.35.35-.55.83-.55,1.32s.19.97.55,1.32"/>
      <path class="cls-1" d="M4.93,5.95c.85.85,1.88,1.49,3.02,1.87"/>
      <path class="cls-1" d="M21.14,7.82c1.14-.38,2.17-1.02,3.02-1.87"/>
      <path class="cls-1" d="M12.52,8.79c.67.07,1.35.1,2.03.1,2.24,0,4.47-.36,6.6-1.07"/>
      <path class="cls-1" d="M27.96,115.13c.49-.49.76-1.15.76-1.84"/>
      <path class="cls-1" d="M.38,113.29c0,.69.27,1.35.76,1.84"/>
      <path class="cls-1" d="M1.14,115.13c1.18,1.18,2.63,2.08,4.21,2.61"/>
      <path class="cls-1" d="M5.35,117.74c2.96.99,6.07,1.49,9.2,1.49s6.23-.5,9.2-1.49"/>
      <path class="cls-1" d="M23.74,117.74c1.59-.53,3.03-1.42,4.22-2.61"/>
    </g>
    <line class="cls-1" x1="28.05" y1="115.03" x2="24.23" y2="119.27"/>
    <line class="cls-1" x1="1.05" y1="115.03" x2="4.87" y2="119.27"/>
    <g>
      <path class="cls-1" d="M24.17,119.33s.04-.04.06-.07"/>
      <path class="cls-1" d="M4.87,119.27s.04.04.06.07"/>
      <path class="cls-1" d="M4.93,119.33c.85.85,1.88,1.49,3.02,1.87"/>
      <path class="cls-1" d="M7.95,121.2c2.13.71,4.35,1.07,6.6,1.07s4.47-.36,6.6-1.07"/>
      <path class="cls-1" d="M21.14,121.2c1.14-.38,2.17-1.02,3.02-1.87"/>
    </g>
    <line class="cls-1" x1="3.97" y1="16.01" x2="3.97" y2="114.32"/>
    <line class="cls-1" x1="8.16" y1="17.35" x2="8.16" y2="115.68"/>
    <line class="cls-1" x1="12.36" y1="18.01" x2="12.36" y2="116.3"/>
    <line class="cls-1" x1="16.55" y1="17.99" x2="16.55" y2="116.33"/>
    <line class="cls-1" x1="20.74" y1="17.42" x2="20.74" y2="115.68"/>
    <line class="cls-1" x1="24.94" y1="16.02" x2="24.94" y2="114.39"/>
  </g>
</svg>