<?xml version="1.0" encoding="UTF-8"?>
<svg id="Layer_2" data-name="Layer 2" xmlns="http://www.w3.org/2000/svg" viewBox="0 0 61.9 102.53">
  <defs>
    <style>
      .cls-1 {
        fill: none;
        stroke: #231f20;
        stroke-linecap: round;
        stroke-linejoin: round;
        stroke-width: .75px;
      }
    </style>
  </defs>
  <g id="Layer_1-2" data-name="Layer 1">
    <g>
      <path class="cls-1" d="M26.54,82.35c1.54.77,3.24,1.18,4.97,1.18.65,0,1.3-.06,1.94-.17"/>
      <path class="cls-1" d="M21.26,77.94c1.39,1.86,3.2,3.37,5.29,4.41"/>
      <path class="cls-1" d="M16.52,63.73c0,5.12,1.66,10.11,4.73,14.2"/>
      <path class="cls-1" d="M18.1,57.03c-1.04,2.08-1.58,4.38-1.58,6.7"/>
      <path class="cls-1" d="M23.03,52.09c-2.13,1.08-3.86,2.81-4.93,4.95"/>
      <path class="cls-1" d="M35.23,57.5c-.37-.48-.76-.95-1.18-1.39"/>
      <path class="cls-1" d="M39.96,71.7c0-5.12-1.66-10.1-4.73-14.2"/>
      <path class="cls-1" d="M38.38,78.4c1.04-2.08,1.58-4.38,1.58-6.7"/>
      <path class="cls-1" d="M23.48,83.37c1.54.77,3.24,1.17,4.97,1.17,4.21,0,8.05-2.38,9.93-6.14"/>
      <path class="cls-1" d="M18.19,78.96c1.39,1.86,3.2,3.37,5.29,4.41"/>
      <path class="cls-1" d="M13.46,64.76c0,5.12,1.66,10.11,4.73,14.2"/>
      <path class="cls-1" d="M15.04,58.05c-1.04,2.08-1.58,4.38-1.58,6.7"/>
      <path class="cls-1" d="M19.77,53.21c-2.04,1.08-3.7,2.78-4.73,4.85"/>
      <path class="cls-1" d="M19.66,40.94c0,.21,0,.42.01.62"/>
      <path class="cls-1" d="M20.52,37.31c-.56,1.13-.86,2.37-.86,3.63"/>
      <path class="cls-1" d="M28.59,34.62c-.84-.42-1.76-.63-2.69-.63-2.28,0-4.36,1.29-5.38,3.32"/>
      <path class="cls-1" d="M31.45,37.01c-.76-1.01-1.74-1.82-2.86-2.39"/>
      <path class="cls-1" d="M34.01,44.7c0-2.77-.9-5.47-2.56-7.69"/>
      <path class="cls-1" d="M22.73,39.92c0,.21,0,.42.01.62"/>
      <path class="cls-1" d="M23.58,36.29c-.56,1.13-.86,2.37-.86,3.63"/>
      <path class="cls-1" d="M25.6,33.99c-.86.58-1.55,1.37-2.02,2.3"/>
      <path class="cls-1" d="M9.92,9.89c-.25-.31-.57-.56-.94-.72"/>
      <path class="cls-1" d="M10.82,12.29c-.03-.88-.35-1.72-.9-2.4"/>
      <path class="cls-1" d="M10.83,12.44v-.05s0-.06,0-.1"/>
      <path class="cls-1" d="M8.99,9.17c-.25-.11-.52-.17-.79-.17-.63,0-1.22.31-1.57.83"/>
      <path class="cls-1" d="M4.43,10.88c-.15.33-.23.7-.23,1.06v.09"/>
      <path class="cls-1" d="M6.95,9.93c-.25-.11-.52-.17-.79-.17-.75,0-1.42.44-1.73,1.12"/>
      <path class="cls-1" d="M7.88,10.66c-.25-.31-.57-.56-.94-.72"/>
      <path class="cls-1" d="M8.78,13.06c-.03-.88-.35-1.72-.9-2.4"/>
      <path class="cls-1" d="M8.78,13.2v-.05s0-.06,0-.1"/>
    </g>
    <line class="cls-1" x1="8.78" y1="80.97" x2="8.78" y2="80.96"/>
    <g>
      <path class="cls-1" d="M8.57,82.07c.14-.32.22-.66.22-1.01,0-.03,0-.06,0-.09"/>
      <path class="cls-1" d="M6.18,82.97c.23.11.49.16.75.16.71,0,1.35-.41,1.65-1.06"/>
      <path class="cls-1" d="M5.29,82.28c.24.3.54.53.89.69"/>
      <path class="cls-1" d="M4.43,80c.03.83.33,1.63.85,2.28"/>
      <path class="cls-1" d="M4.43,79.87v.04s0,.06,0,.09"/>
      <path class="cls-1" d="M10.83,80.2c0-.05,0-.1,0-.16"/>
      <path class="cls-1" d="M10.62,81.3c.14-.32.22-.66.22-1.01,0-.03,0-.06,0-.09"/>
      <path class="cls-1" d="M8.45,82.28c.17.05.35.08.52.08.71,0,1.35-.41,1.64-1.06"/>
      <path class="cls-1" d="M48.11,20.74c-.25-.11-.52-.17-.79-.17-.63,0-1.21.31-1.57.82"/>
      <path class="cls-1" d="M49.05,21.47c-.25-.31-.57-.56-.94-.73"/>
      <path class="cls-1" d="M49.95,23.88c-.03-.88-.35-1.73-.9-2.41"/>
      <path class="cls-1" d="M49.95,24.15c0-.06,0-.11,0-.17,0-.03,0-.06,0-.1"/>
      <path class="cls-1" d="M43.54,22.46c-.15.34-.23.7-.23,1.07,0,.01,0,.02,0,.03"/>
      <path class="cls-1" d="M46.07,21.51c-.25-.11-.52-.17-.79-.17-.75,0-1.43.44-1.74,1.12"/>
      <path class="cls-1" d="M47,22.24c-.25-.31-.57-.56-.94-.72"/>
      <path class="cls-1" d="M47.91,24.65c-.03-.88-.35-1.73-.9-2.41"/>
      <path class="cls-1" d="M47.91,24.91c0-.06,0-.11,0-.17,0-.03,0-.06,0-.1"/>
      <path class="cls-1" d="M47.8,93.82c.05-.15.09-.32.11-.48"/>
      <path class="cls-1" d="M45.44,95c.19.06.39.1.59.1.8,0,1.51-.51,1.77-1.28"/>
      <path class="cls-1" d="M44.45,94.39c.27.28.61.48.98.61"/>
      <path class="cls-1" d="M43.33,92.14c.12.85.52,1.64,1.13,2.25"/>
      <path class="cls-1" d="M43.31,91.63c0,.05,0,.1,0,.15,0,.12.01.24.02.36"/>
      <path class="cls-1" d="M49.84,92.8c.05-.16.09-.32.11-.48"/>
      <path class="cls-1" d="M47.71,94.03c.12.02.24.04.36.04.8,0,1.52-.51,1.77-1.27"/>
    </g>
    <line class="cls-1" x1="23.03" y1="52.09" x2="19.77" y2="53.21"/>
    <line class="cls-1" x1="22.83" y1="52.19" x2="22.74" y2="40.54"/>
    <line class="cls-1" x1="19.77" y1="53.21" x2="19.68" y2="41.56"/>
    <line class="cls-1" x1="34.05" y1="56.11" x2="34.01" y2="44.7"/>
    <line class="cls-1" x1="4.2" y1="11.87" x2="4.43" y2="79.97"/>
    <line class="cls-1" x1="8.78" y1="81.29" x2="8.78" y2="13.1"/>
    <line class="cls-1" x1="10.83" y1="12.34" x2="10.83" y2="80.52"/>
    <line class="cls-1" x1="43.31" y1="23.49" x2="43.31" y2="91.93"/>
    <line class="cls-1" x1="47.91" y1="93.34" x2="47.91" y2="24.56"/>
    <line class="cls-1" x1="49.95" y1="23.8" x2="49.95" y2="92.31"/>
    <line class="cls-1" x1="58.16" y1="93.22" x2="58.63" y2="23.77"/>
    <line class="cls-1" x1="55.8" y1="23.4" x2="55.13" y2="94.08"/>
    <g>
      <path class="cls-1" d="M58.69,23.77c0-2.58,1.39-4.7,2.48-5.43l-2.02-2.12s-3.31,2.58-3.31,6.99"/>
      <path class="cls-1" d="M.58,76.82L.38,7.37C.38,2.95,3.69.38,3.69.38l55.46,15.85"/>
      <path class="cls-1" d="M58.21,92.93c0,3.75,1.59,5.33,3.31,6.05l-.87,3.17s-5.91-1.44-5.47-7.92"/>
      <path class="cls-1" d="M.58,76.82c-.43,6.48,5.08,8.57,5.08,8.57l54.71,16.76"/>
    </g>
  </g>
</svg>