<?xml version="1.0" encoding="UTF-8"?>
<svg id="Layer_2" data-name="Layer 2" xmlns="http://www.w3.org/2000/svg" viewBox="0 0 34.77 219.44">
  <defs>
    <style>
      .cls-1 {
        fill: none;
        stroke: #231f20;
        stroke-linecap: round;
        stroke-linejoin: round;
        stroke-width: .75px;
      }
    </style>
  </defs>
  <g id="Layer_1-2" data-name="Layer 1">
    <line class="cls-1" x1="33.77" y1="9.37" x2="26.94" y2="18.51"/>
    <line class="cls-1" x1="1" y1="9.37" x2="7.82" y2="18.51"/>
    <g>
      <path class="cls-1" d="M10.95,60.24c2.08.69,4.25,1.04,6.44,1.04s4.36-.35,6.44-1.04"/>
      <path class="cls-1" d="M26.77,58.41c.34-.34.53-.8.53-1.29"/>
      <path class="cls-1" d="M7.46,57.13c0,.48.19.95.53,1.29"/>
      <path class="cls-1" d="M8,58.41c.83.83,1.84,1.45,2.95,1.82"/>
      <path class="cls-1" d="M23.82,60.24c1.11-.37,2.12-.99,2.95-1.82"/>
    </g>
    <line class="cls-1" x1="7.59" y1="57.78" x2="11.18" y2="67.07"/>
    <line class="cls-1" x1="27.05" y1="58.06" x2="23.63" y2="63.78"/>
    <line class="cls-1" x1="27.3" y1="18.02" x2="27.3" y2="57.13"/>
    <line class="cls-1" x1="7.46" y1="18.02" x2="7.46" y2="57.13"/>
    <g>
      <path class="cls-1" d="M33.48,9.7c.58-.58.91-1.38.91-2.21s-.33-1.62-.91-2.21"/>
      <path class="cls-1" d="M33.48,5.29c-1.42-1.42-3.15-2.49-5.06-3.13"/>
      <path class="cls-1" d="M28.42,2.17c-3.56-1.19-7.28-1.79-11.04-1.79s-7.48.6-11.04,1.79"/>
      <path class="cls-1" d="M6.35,2.17c-1.91.64-3.64,1.71-5.06,3.13"/>
      <path class="cls-1" d="M1.29,5.29c-.58.59-.91,1.38-.91,2.21s.33,1.62.91,2.21"/>
      <path class="cls-1" d="M6.35,12.83s.02,0,.03,0"/>
      <path class="cls-1" d="M28.42,12.83c1.91-.63,3.64-1.71,5.06-3.13"/>
    </g>
    <line class="cls-1" x1="20.27" y1="5.49" x2="20.27" y2="9.51"/>
    <line class="cls-1" x1="14.5" y1="5.49" x2="14.5" y2="9.51"/>
    <line class="cls-1" x1="20.27" y1="9.51" x2="14.5" y2="9.51"/>
    <line class="cls-1" x1="23.05" y1="7.5" x2="20.27" y2="9.51"/>
    <line class="cls-1" x1="20.27" y1="5.49" x2="23.05" y2="7.5"/>
    <line class="cls-1" x1="14.5" y1="5.49" x2="20.27" y2="5.49"/>
    <line class="cls-1" x1="11.71" y1="7.5" x2="14.5" y2="5.49"/>
    <line class="cls-1" x1="14.5" y1="9.51" x2="11.72" y2="7.5"/>
    <g>
      <path class="cls-1" d="M26.77,18.71c.06-.06.12-.13.17-.2"/>
      <path class="cls-1" d="M7.82,18.51c.05.07.11.14.17.2"/>
      <path class="cls-1" d="M8,18.71c.83.83,1.84,1.45,2.95,1.82"/>
      <path class="cls-1" d="M10.95,20.53c2.08.69,4.25,1.05,6.44,1.05s4.36-.35,6.44-1.05"/>
      <path class="cls-1" d="M23.82,20.53c1.11-.37,2.12-.99,2.95-1.82"/>
      <path class="cls-1" d="M1.29,9.7c1.42,1.42,3.15,2.49,5.06,3.13"/>
      <path class="cls-1" d="M6.35,12.83c1.7.57,3.44,1,5.21,1.3"/>
      <path class="cls-1" d="M20.37,14.49c2.74-.23,5.44-.79,8.05-1.66"/>
      <path class="cls-1" d="M23.53,64.05c.04-.08.08-.17.1-.27"/>
      <path class="cls-1" d="M22.03,65.77c.63-.45,1.14-1.04,1.5-1.72"/>
      <path class="cls-1" d="M26.73,63.52c.14-.26.21-.55.21-.85,0-.67-.37-1.29-.97-1.61"/>
      <path class="cls-1" d="M25.97,61.06c-.18-.1-.37-.18-.56-.26"/>
      <path class="cls-1" d="M24.45,66.13c.95-.68,1.73-1.58,2.28-2.61"/>
      <path class="cls-1" d="M17.38,67.9c1.67-.4,3.25-1.13,4.65-2.13"/>
      <path class="cls-1" d="M8.79,69.07c1.04.55,2.19.85,3.36.87"/>
      <path class="cls-1" d="M12.15,69.94c.15,0,.3,0,.44,0,4.25,0,8.4-1.33,11.86-3.81"/>
      <path class="cls-1" d="M11.18,67.07c.1.27.3.49.56.63"/>
      <path class="cls-1" d="M11.74,67.7c.62.33,1.3.52,2,.56"/>
      <path class="cls-1" d="M10.06,64.18c-.84.66-1.53,1.48-2.03,2.43"/>
      <path class="cls-1" d="M8.03,66.61c-.14.26-.21.55-.21.85,0,.67.37,1.29.97,1.61"/>
    </g>
    <line class="cls-1" x1="23.67" y1="66.67" x2="23.67" y2="70.01"/>
    <g>
      <path class="cls-1" d="M23.53,70.57c.09-.17.14-.36.14-.56"/>
      <path class="cls-1" d="M22.03,72.29c.63-.45,1.14-1.04,1.5-1.72"/>
      <path class="cls-1" d="M26.73,70.04c.14-.26.21-.55.21-.85,0-.67-.37-1.29-.97-1.61"/>
      <path class="cls-1" d="M25.97,67.58c-.72-.38-1.5-.64-2.31-.77"/>
      <path class="cls-1" d="M24.45,72.65c.95-.68,1.73-1.58,2.28-2.61"/>
      <path class="cls-1" d="M17.38,74.41c1.67-.4,3.25-1.13,4.65-2.13"/>
      <path class="cls-1" d="M8.79,75.59c1.04.55,2.19.85,3.36.87"/>
      <path class="cls-1" d="M12.15,76.46c.15,0,.3,0,.44,0,4.25,0,8.4-1.33,11.86-3.81"/>
    </g>
    <line class="cls-1" x1="11.1" y1="69.84" x2="11.1" y2="73.16"/>
    <g>
      <path class="cls-1" d="M11.1,73.16c0,.44.25.85.64,1.06"/>
      <path class="cls-1" d="M11.74,74.21c.62.33,1.3.52,2,.56"/>
      <path class="cls-1" d="M11.1,69.98c-.27.17-.53.35-.79.54"/>
      <path class="cls-1" d="M10.31,70.52c-.95.68-1.73,1.58-2.28,2.61"/>
      <path class="cls-1" d="M8.03,73.13c-.14.26-.21.55-.21.85,0,.67.37,1.29.97,1.61"/>
    </g>
    <line class="cls-1" x1="23.67" y1="73.19" x2="23.67" y2="76.53"/>
    <g>
      <path class="cls-1" d="M23.53,77.09c.09-.17.14-.36.14-.56"/>
      <path class="cls-1" d="M22.03,78.81c.63-.45,1.14-1.04,1.5-1.72"/>
      <path class="cls-1" d="M26.73,76.56c.14-.26.21-.55.21-.85,0-.67-.37-1.29-.97-1.61"/>
      <path class="cls-1" d="M25.97,74.1c-.72-.38-1.5-.64-2.31-.77"/>
      <path class="cls-1" d="M24.45,79.17c.95-.68,1.73-1.58,2.28-2.61"/>
      <path class="cls-1" d="M17.38,80.93c1.67-.4,3.25-1.13,4.65-2.13"/>
      <path class="cls-1" d="M8.79,82.11c1.04.55,2.19.85,3.36.87"/>
      <path class="cls-1" d="M12.15,82.98c.15,0,.3,0,.44,0,4.25,0,8.4-1.33,11.86-3.81"/>
    </g>
    <line class="cls-1" x1="11.1" y1="76.36" x2="11.1" y2="79.68"/>
    <g>
      <path class="cls-1" d="M11.1,79.68c0,.44.25.85.64,1.06"/>
      <path class="cls-1" d="M11.74,80.73c.62.33,1.3.52,2,.56"/>
      <path class="cls-1" d="M11.1,76.5c-.27.17-.53.35-.79.54"/>
      <path class="cls-1" d="M10.31,77.03c-.95.68-1.73,1.58-2.28,2.61"/>
      <path class="cls-1" d="M8.03,79.65c-.14.26-.21.55-.21.85,0,.67.37,1.29.97,1.61"/>
    </g>
    <line class="cls-1" x1="23.67" y1="79.71" x2="23.67" y2="83.05"/>
    <g>
      <path class="cls-1" d="M23.53,83.61c.09-.17.14-.36.14-.56"/>
      <path class="cls-1" d="M22.03,85.33c.63-.45,1.14-1.04,1.5-1.72"/>
      <path class="cls-1" d="M26.73,83.08c.14-.26.21-.55.21-.85,0-.67-.37-1.29-.97-1.61"/>
      <path class="cls-1" d="M25.97,80.62c-.72-.38-1.5-.64-2.31-.77"/>
      <path class="cls-1" d="M24.45,85.69c.95-.68,1.73-1.58,2.28-2.61"/>
      <path class="cls-1" d="M17.38,87.45c1.67-.4,3.25-1.13,4.65-2.13"/>
      <path class="cls-1" d="M8.79,88.63c1.04.55,2.19.84,3.36.87"/>
      <path class="cls-1" d="M12.15,89.5c.15,0,.3,0,.44,0,4.25,0,8.4-1.33,11.86-3.81"/>
    </g>
    <line class="cls-1" x1="11.1" y1="82.88" x2="11.1" y2="86.2"/>
    <g>
      <path class="cls-1" d="M11.1,86.2c0,.44.25.85.64,1.06"/>
      <path class="cls-1" d="M11.74,87.25c.62.33,1.3.52,2,.56"/>
      <path class="cls-1" d="M11.1,83.02c-.27.17-.53.35-.79.54"/>
      <path class="cls-1" d="M10.31,83.55c-.95.68-1.73,1.58-2.28,2.61"/>
      <path class="cls-1" d="M8.03,86.17c-.14.26-.21.55-.21.85,0,.67.37,1.29.97,1.61"/>
    </g>
    <line class="cls-1" x1="23.67" y1="86.23" x2="23.67" y2="89.57"/>
    <g>
      <path class="cls-1" d="M23.53,90.13c.09-.17.14-.36.14-.56"/>
      <path class="cls-1" d="M22.03,91.85c.63-.45,1.14-1.04,1.5-1.72"/>
      <path class="cls-1" d="M26.73,89.6c.14-.26.21-.55.21-.85,0-.67-.37-1.29-.97-1.61"/>
      <path class="cls-1" d="M25.97,87.14c-.72-.38-1.5-.64-2.31-.77"/>
      <path class="cls-1" d="M24.45,92.21c.95-.68,1.73-1.58,2.28-2.61"/>
      <path class="cls-1" d="M17.38,93.97c1.67-.4,3.25-1.13,4.65-2.13"/>
      <path class="cls-1" d="M8.79,95.15c1.04.55,2.19.85,3.36.87"/>
      <path class="cls-1" d="M12.15,96.02c.15,0,.3,0,.44,0,4.25,0,8.4-1.33,11.86-3.81"/>
    </g>
    <line class="cls-1" x1="11.1" y1="89.4" x2="11.1" y2="92.71"/>
    <g>
      <path class="cls-1" d="M11.1,92.72c0,.44.25.85.64,1.06"/>
      <path class="cls-1" d="M11.74,93.77c.62.33,1.3.52,2,.56"/>
      <path class="cls-1" d="M11.1,89.54c-.27.17-.53.35-.79.54"/>
      <path class="cls-1" d="M10.31,90.07c-.95.68-1.73,1.58-2.28,2.61"/>
      <path class="cls-1" d="M8.03,92.69c-.14.26-.21.55-.21.85,0,.67.37,1.29.97,1.61"/>
    </g>
    <line class="cls-1" x1="23.67" y1="203.58" x2="23.67" y2="206.92"/>
    <line class="cls-1" x1="11.1" y1="206.75" x2="11.1" y2="210.07"/>
    <g>
      <path class="cls-1" d="M23.53,207.48c.09-.17.14-.36.14-.56"/>
      <path class="cls-1" d="M11.1,210.07c0,.44.25.85.64,1.06"/>
      <path class="cls-1" d="M11.74,211.13c.62.33,1.3.52,2,.56"/>
      <path class="cls-1" d="M17.38,211.33c1.67-.4,3.25-1.13,4.65-2.13"/>
      <path class="cls-1" d="M22.03,209.2c.63-.45,1.14-1.04,1.5-1.72"/>
      <path class="cls-1" d="M26.73,206.95c.14-.26.21-.55.21-.85,0-.67-.37-1.29-.97-1.61"/>
      <path class="cls-1" d="M25.97,204.49c-.72-.38-1.5-.64-2.31-.77"/>
      <path class="cls-1" d="M11.1,206.89c-.27.17-.53.35-.79.54"/>
      <path class="cls-1" d="M10.31,207.43c-.95.68-1.73,1.58-2.28,2.61"/>
      <path class="cls-1" d="M8.03,210.04c-.14.26-.21.55-.21.85,0,.67.37,1.29.97,1.61"/>
      <path class="cls-1" d="M8.79,212.5c1.04.55,2.19.85,3.36.87"/>
      <path class="cls-1" d="M12.15,213.37c.15,0,.3,0,.44,0,4.25,0,8.4-1.33,11.86-3.81"/>
      <path class="cls-1" d="M24.45,209.57c.95-.68,1.73-1.58,2.28-2.61"/>
    </g>
    <line class="cls-1" x1="23.67" y1="210.1" x2="23.67" y2="216.43"/>
    <line class="cls-1" x1="11.1" y1="213.27" x2="11.1" y2="216.43"/>
    <g>
      <path class="cls-1" d="M23.33,217.25c.22-.22.34-.51.34-.81"/>
      <path class="cls-1" d="M11.1,216.43c0,.31.12.6.34.82"/>
      <path class="cls-1" d="M11.44,217.25c.52.52,1.16.92,1.87,1.15"/>
      <path class="cls-1" d="M13.31,218.4c1.31.44,2.69.66,4.08.66s2.76-.22,4.08-.66"/>
      <path class="cls-1" d="M21.46,218.4c.7-.23,1.34-.63,1.87-1.15"/>
      <path class="cls-1" d="M24.45,203.05c.95-.68,1.73-1.58,2.28-2.61"/>
      <path class="cls-1" d="M12.15,206.85c.15,0,.3,0,.44,0,4.25,0,8.4-1.33,11.86-3.81"/>
      <path class="cls-1" d="M8.79,205.98c1.04.55,2.19.85,3.36.87"/>
      <path class="cls-1" d="M8.03,203.52c-.14.26-.21.55-.21.85,0,.67.37,1.29.97,1.61"/>
      <path class="cls-1" d="M10.31,200.91c-.95.68-1.73,1.58-2.28,2.61"/>
      <path class="cls-1" d="M11.1,200.37c-.27.17-.53.35-.79.54"/>
      <path class="cls-1" d="M25.97,197.97c-.72-.38-1.5-.64-2.31-.77"/>
      <path class="cls-1" d="M26.73,200.43c.14-.26.21-.55.21-.85,0-.67-.37-1.29-.97-1.61"/>
      <path class="cls-1" d="M22.03,202.68c.63-.45,1.14-1.04,1.5-1.72"/>
      <path class="cls-1" d="M17.38,204.81c1.67-.4,3.25-1.13,4.65-2.13"/>
      <path class="cls-1" d="M11.74,204.61c.62.33,1.3.52,2,.56"/>
      <path class="cls-1" d="M11.1,203.55c0,.44.25.85.64,1.06"/>
      <path class="cls-1" d="M23.53,200.96c.09-.17.14-.36.14-.56"/>
    </g>
    <line class="cls-1" x1="11.1" y1="200.23" x2="11.1" y2="203.55"/>
    <line class="cls-1" x1="23.67" y1="197.06" x2="23.67" y2="200.41"/>
    <g>
      <path class="cls-1" d="M24.45,196.53c.95-.68,1.73-1.58,2.28-2.61"/>
      <path class="cls-1" d="M12.15,200.33c.15,0,.3,0,.44,0,4.25,0,8.4-1.33,11.86-3.81"/>
      <path class="cls-1" d="M8.79,199.46c1.04.55,2.19.85,3.36.87"/>
      <path class="cls-1" d="M8.03,197c-.14.26-.21.55-.21.85,0,.67.37,1.3.97,1.61"/>
      <path class="cls-1" d="M10.31,194.39c-.95.68-1.73,1.58-2.28,2.61"/>
      <path class="cls-1" d="M11.1,193.85c-.27.17-.53.35-.79.54"/>
      <path class="cls-1" d="M25.97,191.45c-.72-.38-1.5-.64-2.31-.77"/>
      <path class="cls-1" d="M26.73,193.91c.14-.26.21-.55.21-.85,0-.67-.37-1.29-.97-1.61"/>
      <path class="cls-1" d="M22.03,196.16c.63-.45,1.14-1.04,1.5-1.72"/>
      <path class="cls-1" d="M17.38,198.29c1.67-.4,3.25-1.13,4.65-2.13"/>
      <path class="cls-1" d="M11.74,198.09c.62.33,1.3.52,2,.57"/>
      <path class="cls-1" d="M11.1,197.03c0,.44.25.85.64,1.06"/>
      <path class="cls-1" d="M23.53,194.44c.09-.17.14-.36.14-.56"/>
    </g>
    <line class="cls-1" x1="11.1" y1="193.72" x2="11.1" y2="197.03"/>
    <line class="cls-1" x1="23.67" y1="190.54" x2="23.67" y2="193.89"/>
    <g>
      <path class="cls-1" d="M24.45,190.01c.95-.68,1.73-1.58,2.28-2.61"/>
      <path class="cls-1" d="M12.15,193.81c.15,0,.3,0,.44,0,4.25,0,8.4-1.33,11.86-3.81"/>
      <path class="cls-1" d="M8.79,192.94c1.04.55,2.19.85,3.36.87"/>
      <path class="cls-1" d="M8.03,190.48c-.14.26-.21.55-.21.85,0,.67.37,1.29.97,1.61"/>
      <path class="cls-1" d="M10.31,187.87c-.95.68-1.73,1.58-2.28,2.61"/>
      <path class="cls-1" d="M11.1,187.33c-.27.17-.53.35-.79.54"/>
      <path class="cls-1" d="M25.97,184.93c-.72-.38-1.5-.64-2.31-.77"/>
      <path class="cls-1" d="M26.73,187.39c.14-.26.21-.55.21-.85,0-.67-.37-1.29-.97-1.61"/>
      <path class="cls-1" d="M22.03,189.64c.63-.45,1.14-1.04,1.5-1.72"/>
      <path class="cls-1" d="M17.38,191.77c1.67-.4,3.25-1.13,4.65-2.13"/>
      <path class="cls-1" d="M11.74,191.57c.62.33,1.3.52,2,.57"/>
      <path class="cls-1" d="M11.1,190.51c0,.44.25.85.64,1.06"/>
      <path class="cls-1" d="M23.53,187.92c.09-.17.14-.36.14-.56"/>
    </g>
    <line class="cls-1" x1="11.1" y1="187.2" x2="11.1" y2="190.51"/>
    <line class="cls-1" x1="23.67" y1="184.02" x2="23.67" y2="187.37"/>
    <g>
      <path class="cls-1" d="M24.45,183.49c.95-.68,1.73-1.58,2.28-2.61"/>
      <path class="cls-1" d="M12.15,187.29c.15,0,.3,0,.44,0,4.25,0,8.4-1.33,11.86-3.81"/>
      <path class="cls-1" d="M8.79,186.42c1.04.55,2.19.85,3.36.87"/>
      <path class="cls-1" d="M8.03,183.96c-.14.26-.21.55-.21.85,0,.67.37,1.29.97,1.61"/>
      <path class="cls-1" d="M10.31,181.35c-.95.68-1.73,1.58-2.28,2.61"/>
      <path class="cls-1" d="M11.1,180.81c-.27.17-.53.35-.79.54"/>
      <path class="cls-1" d="M25.97,178.41c-.72-.38-1.5-.64-2.31-.77"/>
      <path class="cls-1" d="M26.73,180.87c.14-.26.21-.55.21-.85,0-.67-.37-1.29-.97-1.61"/>
      <path class="cls-1" d="M22.03,183.12c.63-.45,1.14-1.04,1.5-1.72"/>
      <path class="cls-1" d="M17.38,185.25c1.67-.4,3.25-1.13,4.65-2.13"/>
      <path class="cls-1" d="M11.74,185.05c.62.33,1.3.52,2,.56"/>
      <path class="cls-1" d="M11.1,183.99c0,.44.25.85.64,1.06"/>
      <path class="cls-1" d="M23.53,181.4c.09-.17.14-.36.14-.56"/>
    </g>
    <line class="cls-1" x1="11.1" y1="180.68" x2="11.1" y2="183.99"/>
    <line class="cls-1" x1="23.67" y1="177.5" x2="23.67" y2="180.85"/>
    <g>
      <path class="cls-1" d="M24.45,176.97c.95-.68,1.73-1.58,2.28-2.61"/>
      <path class="cls-1" d="M12.15,180.77c.15,0,.3,0,.44,0,4.25,0,8.4-1.33,11.86-3.81"/>
      <path class="cls-1" d="M8.79,179.9c1.04.55,2.19.85,3.36.87"/>
      <path class="cls-1" d="M8.03,177.44c-.14.26-.21.55-.21.85,0,.67.37,1.3.97,1.61"/>
      <path class="cls-1" d="M10.31,174.83c-.95.68-1.73,1.58-2.28,2.61"/>
      <path class="cls-1" d="M11.1,174.29c-.27.17-.53.35-.79.54"/>
      <path class="cls-1" d="M25.97,171.9c-.72-.38-1.5-.64-2.31-.77"/>
      <path class="cls-1" d="M26.73,174.35c.14-.26.21-.55.21-.85,0-.67-.37-1.29-.97-1.61"/>
      <path class="cls-1" d="M22.03,176.6c.63-.45,1.14-1.04,1.5-1.72"/>
      <path class="cls-1" d="M17.38,178.73c1.67-.4,3.25-1.13,4.65-2.13"/>
      <path class="cls-1" d="M11.74,178.53c.62.33,1.3.52,2,.56"/>
      <path class="cls-1" d="M11.1,177.47c0,.44.25.85.64,1.06"/>
      <path class="cls-1" d="M23.53,174.88c.09-.17.14-.36.14-.56"/>
    </g>
    <line class="cls-1" x1="11.1" y1="174.16" x2="11.1" y2="177.47"/>
    <line class="cls-1" x1="23.67" y1="170.98" x2="23.67" y2="174.33"/>
    <g>
      <path class="cls-1" d="M24.45,170.45c.95-.68,1.73-1.58,2.28-2.61"/>
      <path class="cls-1" d="M12.15,174.25c.15,0,.3,0,.44,0,4.25,0,8.4-1.33,11.86-3.81"/>
      <path class="cls-1" d="M8.79,173.38c1.04.55,2.19.85,3.36.87"/>
      <path class="cls-1" d="M8.03,170.92c-.14.26-.21.55-.21.85,0,.67.37,1.29.97,1.61"/>
      <path class="cls-1" d="M10.31,168.31c-.95.68-1.73,1.58-2.28,2.61"/>
      <path class="cls-1" d="M11.1,167.77c-.27.17-.53.35-.79.54"/>
      <path class="cls-1" d="M25.97,165.38c-.72-.38-1.5-.64-2.31-.77"/>
      <path class="cls-1" d="M26.73,167.83c.14-.26.21-.55.21-.85,0-.67-.37-1.29-.97-1.61"/>
      <path class="cls-1" d="M22.03,170.08c.63-.45,1.14-1.04,1.5-1.72"/>
      <path class="cls-1" d="M17.38,172.21c1.67-.4,3.25-1.13,4.65-2.13"/>
      <path class="cls-1" d="M11.74,172.01c.62.33,1.3.52,2,.56"/>
      <path class="cls-1" d="M11.1,170.95c0,.44.25.85.64,1.06"/>
      <path class="cls-1" d="M23.53,168.36c.09-.17.14-.36.14-.56"/>
    </g>
    <line class="cls-1" x1="11.1" y1="167.64" x2="11.1" y2="170.95"/>
    <line class="cls-1" x1="23.67" y1="164.47" x2="23.67" y2="167.81"/>
    <g>
      <path class="cls-1" d="M24.45,163.93c.95-.68,1.73-1.58,2.28-2.61"/>
      <path class="cls-1" d="M12.15,167.73c.15,0,.3,0,.44,0,4.25,0,8.4-1.33,11.86-3.81"/>
      <path class="cls-1" d="M8.79,166.86c1.04.55,2.19.84,3.36.87"/>
      <path class="cls-1" d="M8.03,164.41c-.14.26-.21.55-.21.85,0,.67.37,1.29.97,1.61"/>
      <path class="cls-1" d="M10.31,161.79c-.95.68-1.73,1.58-2.28,2.62"/>
      <path class="cls-1" d="M11.1,161.25c-.27.17-.53.35-.79.54"/>
      <path class="cls-1" d="M25.97,158.86c-.72-.38-1.5-.64-2.31-.77"/>
      <path class="cls-1" d="M26.73,161.32c.14-.26.21-.55.21-.85,0-.67-.37-1.29-.97-1.61"/>
      <path class="cls-1" d="M22.03,163.56c.63-.45,1.14-1.04,1.5-1.72"/>
      <path class="cls-1" d="M17.38,165.69c1.67-.4,3.25-1.13,4.65-2.13"/>
      <path class="cls-1" d="M11.74,165.49c.62.33,1.3.52,2,.56"/>
      <path class="cls-1" d="M11.1,164.43c0,.44.25.85.64,1.06"/>
      <path class="cls-1" d="M23.53,161.84c.09-.17.14-.36.14-.56"/>
    </g>
    <line class="cls-1" x1="11.1" y1="161.12" x2="11.1" y2="164.43"/>
    <line class="cls-1" x1="23.67" y1="157.95" x2="23.67" y2="161.29"/>
    <g>
      <path class="cls-1" d="M24.45,157.41c.95-.68,1.73-1.58,2.28-2.61"/>
      <path class="cls-1" d="M12.15,161.21c.15,0,.3,0,.44,0,4.25,0,8.4-1.33,11.86-3.81"/>
      <path class="cls-1" d="M8.79,160.34c1.04.55,2.19.84,3.36.87"/>
      <path class="cls-1" d="M8.03,157.89c-.14.26-.21.55-.21.85,0,.67.37,1.3.97,1.61"/>
      <path class="cls-1" d="M10.31,155.27c-.95.68-1.73,1.58-2.28,2.61"/>
      <path class="cls-1" d="M11.1,154.73c-.27.17-.53.35-.79.54"/>
      <path class="cls-1" d="M25.97,152.34c-.72-.38-1.5-.64-2.31-.77"/>
      <path class="cls-1" d="M26.73,154.8c.14-.26.21-.55.21-.85,0-.67-.37-1.29-.97-1.61"/>
      <path class="cls-1" d="M22.03,157.04c.63-.45,1.14-1.04,1.5-1.72"/>
      <path class="cls-1" d="M17.38,159.17c1.67-.4,3.25-1.13,4.65-2.13"/>
      <path class="cls-1" d="M11.74,158.97c.62.33,1.3.52,2,.56"/>
      <path class="cls-1" d="M11.1,157.91c0,.44.25.85.64,1.06"/>
      <path class="cls-1" d="M23.53,155.33c.09-.17.14-.36.14-.56"/>
    </g>
    <line class="cls-1" x1="11.1" y1="154.6" x2="11.1" y2="157.91"/>
    <line class="cls-1" x1="23.67" y1="151.43" x2="23.67" y2="154.77"/>
    <g>
      <path class="cls-1" d="M24.45,150.89c.95-.68,1.73-1.58,2.28-2.61"/>
      <path class="cls-1" d="M12.15,154.69c.15,0,.3,0,.44,0,4.25,0,8.4-1.33,11.86-3.81"/>
      <path class="cls-1" d="M8.79,153.83c1.04.55,2.19.84,3.36.87"/>
      <path class="cls-1" d="M8.03,151.37c-.14.26-.21.55-.21.85,0,.67.37,1.3.97,1.61"/>
      <path class="cls-1" d="M10.31,148.75c-.95.68-1.73,1.58-2.28,2.61"/>
      <path class="cls-1" d="M11.1,148.21c-.27.17-.53.35-.79.54"/>
      <path class="cls-1" d="M25.97,145.82c-.72-.38-1.5-.64-2.31-.77"/>
      <path class="cls-1" d="M26.73,148.28c.14-.26.21-.55.21-.85,0-.68-.37-1.29-.97-1.61"/>
      <path class="cls-1" d="M22.03,150.52c.63-.45,1.14-1.04,1.5-1.72"/>
      <path class="cls-1" d="M17.38,152.65c1.67-.4,3.25-1.13,4.65-2.13"/>
      <path class="cls-1" d="M11.74,152.45c.62.33,1.3.52,2,.56"/>
      <path class="cls-1" d="M11.1,151.39c0,.44.25.85.64,1.06"/>
      <path class="cls-1" d="M23.53,148.81c.09-.17.14-.36.14-.56"/>
    </g>
    <line class="cls-1" x1="11.1" y1="148.08" x2="11.1" y2="151.39"/>
    <line class="cls-1" x1="23.67" y1="144.91" x2="23.67" y2="148.25"/>
    <g>
      <path class="cls-1" d="M24.45,144.37c.95-.68,1.73-1.58,2.28-2.61"/>
      <path class="cls-1" d="M12.15,148.17c.15,0,.3,0,.44,0,4.25,0,8.4-1.33,11.86-3.81"/>
      <path class="cls-1" d="M8.79,147.3c1.04.55,2.19.85,3.36.87"/>
      <path class="cls-1" d="M8.03,144.85c-.14.26-.21.55-.21.85,0,.68.37,1.29.97,1.61"/>
      <path class="cls-1" d="M10.31,142.23c-.95.68-1.73,1.58-2.28,2.61"/>
      <path class="cls-1" d="M11.1,141.69c-.27.17-.53.35-.79.54"/>
      <path class="cls-1" d="M25.97,139.3c-.72-.38-1.5-.64-2.31-.77"/>
      <path class="cls-1" d="M26.73,141.76c.14-.26.21-.55.21-.85,0-.67-.37-1.29-.97-1.61"/>
      <path class="cls-1" d="M22.03,144c.63-.45,1.14-1.04,1.5-1.72"/>
      <path class="cls-1" d="M17.38,146.13c1.67-.4,3.25-1.13,4.65-2.13"/>
      <path class="cls-1" d="M11.74,145.93c.62.33,1.3.52,2,.56"/>
      <path class="cls-1" d="M11.1,144.87c0,.44.25.85.64,1.06"/>
      <path class="cls-1" d="M23.53,142.29c.09-.17.14-.36.14-.56"/>
    </g>
    <line class="cls-1" x1="11.1" y1="141.56" x2="11.1" y2="144.87"/>
    <line class="cls-1" x1="23.67" y1="138.39" x2="23.67" y2="141.73"/>
    <g>
      <path class="cls-1" d="M24.45,137.85c.95-.68,1.73-1.58,2.28-2.61"/>
      <path class="cls-1" d="M12.15,141.66c.15,0,.3,0,.44,0,4.25,0,8.4-1.33,11.86-3.81"/>
      <path class="cls-1" d="M8.79,140.78c1.04.55,2.19.85,3.36.87"/>
      <path class="cls-1" d="M8.03,138.33c-.14.26-.21.55-.21.85,0,.67.37,1.29.97,1.61"/>
      <path class="cls-1" d="M10.31,135.71c-.95.68-1.73,1.58-2.28,2.61"/>
      <path class="cls-1" d="M11.1,135.17c-.27.17-.53.35-.79.54"/>
      <path class="cls-1" d="M25.97,132.78c-.72-.38-1.5-.64-2.31-.77"/>
      <path class="cls-1" d="M26.73,135.24c.14-.26.21-.55.21-.85,0-.68-.37-1.29-.97-1.61"/>
      <path class="cls-1" d="M22.03,137.48c.63-.45,1.14-1.04,1.5-1.72"/>
      <path class="cls-1" d="M17.38,139.61c1.67-.4,3.25-1.13,4.65-2.13"/>
      <path class="cls-1" d="M11.74,139.41c.62.33,1.3.52,2,.56"/>
      <path class="cls-1" d="M11.1,138.35c0,.44.25.85.64,1.06"/>
      <path class="cls-1" d="M23.53,135.77c.09-.17.14-.36.14-.56"/>
    </g>
    <line class="cls-1" x1="11.1" y1="135.04" x2="11.1" y2="138.35"/>
    <line class="cls-1" x1="23.67" y1="131.87" x2="23.67" y2="135.21"/>
    <g>
      <path class="cls-1" d="M24.45,131.33c.95-.68,1.73-1.58,2.28-2.61"/>
      <path class="cls-1" d="M12.15,135.14c.15,0,.3,0,.44,0,4.25,0,8.4-1.33,11.86-3.81"/>
      <path class="cls-1" d="M8.79,134.27c1.04.55,2.19.84,3.36.87"/>
      <path class="cls-1" d="M8.03,131.81c-.14.26-.21.55-.21.85,0,.67.37,1.29.97,1.61"/>
      <path class="cls-1" d="M10.31,129.19c-.95.68-1.73,1.58-2.28,2.61"/>
      <path class="cls-1" d="M11.1,128.66c-.27.17-.53.35-.79.54"/>
      <path class="cls-1" d="M25.97,126.26c-.72-.38-1.5-.64-2.31-.77"/>
      <path class="cls-1" d="M26.73,128.72c.14-.26.21-.55.21-.85,0-.68-.37-1.29-.97-1.61"/>
      <path class="cls-1" d="M22.03,130.96c.63-.45,1.14-1.04,1.5-1.72"/>
      <path class="cls-1" d="M17.38,133.09c1.67-.4,3.25-1.13,4.65-2.13"/>
      <path class="cls-1" d="M11.74,132.89c.62.33,1.3.52,2,.56"/>
      <path class="cls-1" d="M11.1,131.83c0,.44.25.85.64,1.06"/>
      <path class="cls-1" d="M23.53,129.25c.09-.17.14-.36.14-.56"/>
    </g>
    <line class="cls-1" x1="11.1" y1="128.52" x2="11.1" y2="131.83"/>
    <line class="cls-1" x1="23.67" y1="125.35" x2="23.67" y2="128.69"/>
    <g>
      <path class="cls-1" d="M24.45,124.81c.95-.68,1.73-1.58,2.28-2.61"/>
      <path class="cls-1" d="M12.15,128.62c.15,0,.3,0,.44,0,4.25,0,8.4-1.33,11.86-3.81"/>
      <path class="cls-1" d="M8.79,127.75c1.04.55,2.19.85,3.36.87"/>
      <path class="cls-1" d="M8.03,125.29c-.14.26-.21.55-.21.85,0,.67.37,1.3.97,1.61"/>
      <path class="cls-1" d="M10.31,122.67c-.95.68-1.73,1.58-2.28,2.61"/>
      <path class="cls-1" d="M11.1,122.14c-.27.17-.53.35-.79.54"/>
      <path class="cls-1" d="M25.97,119.74c-.72-.38-1.5-.64-2.31-.77"/>
      <path class="cls-1" d="M26.73,122.2c.14-.26.21-.55.21-.85,0-.67-.37-1.29-.97-1.61"/>
      <path class="cls-1" d="M22.03,124.44c.63-.45,1.14-1.04,1.5-1.72"/>
      <path class="cls-1" d="M17.38,126.57c1.67-.4,3.25-1.13,4.65-2.13"/>
      <path class="cls-1" d="M11.74,126.37c.62.33,1.3.52,2,.56"/>
      <path class="cls-1" d="M11.1,125.32c0,.44.25.85.64,1.06"/>
      <path class="cls-1" d="M23.53,122.73c.09-.17.14-.36.14-.56"/>
    </g>
    <line class="cls-1" x1="11.1" y1="122" x2="11.1" y2="125.32"/>
    <line class="cls-1" x1="23.67" y1="118.83" x2="23.67" y2="122.17"/>
    <g>
      <path class="cls-1" d="M24.45,118.29c.95-.68,1.73-1.58,2.28-2.61"/>
      <path class="cls-1" d="M12.15,122.1c.15,0,.3,0,.44,0,4.25,0,8.4-1.33,11.86-3.81"/>
      <path class="cls-1" d="M8.79,121.23c1.04.55,2.19.85,3.36.87"/>
      <path class="cls-1" d="M8.03,118.77c-.14.26-.21.55-.21.85,0,.67.37,1.29.97,1.61"/>
      <path class="cls-1" d="M10.31,116.15c-.95.68-1.73,1.58-2.28,2.61"/>
      <path class="cls-1" d="M11.1,115.62c-.27.17-.53.35-.79.54"/>
      <path class="cls-1" d="M25.97,113.22c-.72-.38-1.5-.64-2.31-.77"/>
      <path class="cls-1" d="M26.73,115.68c.14-.26.21-.55.21-.85,0-.67-.37-1.29-.97-1.61"/>
      <path class="cls-1" d="M22.03,117.92c.63-.45,1.14-1.04,1.5-1.72"/>
      <path class="cls-1" d="M17.38,120.05c1.67-.4,3.25-1.13,4.65-2.13"/>
      <path class="cls-1" d="M11.74,119.85c.62.33,1.3.52,2,.57"/>
      <path class="cls-1" d="M11.1,118.8c0,.44.25.85.64,1.06"/>
      <path class="cls-1" d="M23.53,116.21c.09-.17.14-.36.14-.56"/>
    </g>
    <line class="cls-1" x1="11.1" y1="115.48" x2="11.1" y2="118.8"/>
    <line class="cls-1" x1="23.67" y1="112.31" x2="23.67" y2="115.65"/>
    <g>
      <path class="cls-1" d="M24.45,111.77c.95-.68,1.73-1.58,2.28-2.61"/>
      <path class="cls-1" d="M12.15,115.58c.15,0,.3,0,.44,0,4.25,0,8.4-1.33,11.86-3.81"/>
      <path class="cls-1" d="M8.79,114.71c1.04.55,2.19.85,3.36.87"/>
      <path class="cls-1" d="M8.03,112.25c-.14.26-.21.55-.21.85,0,.67.37,1.29.97,1.61"/>
      <path class="cls-1" d="M10.31,109.63c-.95.68-1.73,1.58-2.28,2.61"/>
      <path class="cls-1" d="M11.1,109.1c-.27.17-.53.35-.79.54"/>
      <path class="cls-1" d="M25.97,106.7c-.72-.38-1.5-.64-2.31-.77"/>
      <path class="cls-1" d="M26.73,109.16c.14-.26.21-.55.21-.85,0-.67-.37-1.29-.97-1.61"/>
      <path class="cls-1" d="M22.03,111.41c.63-.45,1.14-1.04,1.5-1.72"/>
      <path class="cls-1" d="M17.38,113.53c1.67-.4,3.25-1.13,4.65-2.13"/>
      <path class="cls-1" d="M11.74,113.33c.62.33,1.3.52,2,.56"/>
      <path class="cls-1" d="M11.1,112.27c0,.45.25.85.64,1.06"/>
      <path class="cls-1" d="M23.53,109.69c.09-.17.14-.36.14-.56"/>
    </g>
    <line class="cls-1" x1="11.1" y1="108.96" x2="11.1" y2="112.27"/>
    <line class="cls-1" x1="23.67" y1="105.79" x2="23.67" y2="109.13"/>
    <g>
      <path class="cls-1" d="M24.45,105.25c.95-.68,1.73-1.58,2.28-2.61"/>
      <path class="cls-1" d="M12.15,109.06c.15,0,.3,0,.44,0,4.25,0,8.4-1.33,11.86-3.81"/>
      <path class="cls-1" d="M8.79,108.19c1.04.55,2.19.85,3.36.87"/>
      <path class="cls-1" d="M8.03,105.73c-.14.26-.21.55-.21.85,0,.67.37,1.29.97,1.61"/>
      <path class="cls-1" d="M10.31,103.11c-.95.68-1.73,1.58-2.28,2.61"/>
      <path class="cls-1" d="M11.1,102.58c-.27.17-.53.35-.79.54"/>
      <path class="cls-1" d="M25.97,100.18c-.72-.38-1.5-.64-2.31-.77"/>
      <path class="cls-1" d="M26.73,102.64c.14-.26.21-.55.21-.85,0-.67-.37-1.29-.97-1.61"/>
      <path class="cls-1" d="M22.03,104.89c.63-.45,1.14-1.04,1.5-1.72"/>
      <path class="cls-1" d="M17.38,107.01c1.67-.4,3.25-1.13,4.65-2.13"/>
      <path class="cls-1" d="M11.74,106.81c.62.33,1.3.52,2,.56"/>
      <path class="cls-1" d="M11.1,105.76c0,.44.25.85.64,1.06"/>
      <path class="cls-1" d="M23.53,103.17c.09-.17.14-.36.14-.56"/>
    </g>
    <line class="cls-1" x1="11.1" y1="102.44" x2="11.1" y2="105.76"/>
    <line class="cls-1" x1="23.67" y1="99.27" x2="23.67" y2="102.61"/>
    <g>
      <path class="cls-1" d="M24.45,98.73c.95-.68,1.73-1.58,2.28-2.61"/>
      <path class="cls-1" d="M12.15,102.54c.15,0,.3,0,.44,0,4.25,0,8.4-1.33,11.86-3.81"/>
      <path class="cls-1" d="M8.79,101.67c1.04.55,2.19.85,3.36.87"/>
      <path class="cls-1" d="M8.03,99.21c-.14.26-.21.55-.21.85,0,.67.37,1.29.97,1.61"/>
      <path class="cls-1" d="M10.31,96.59c-.95.68-1.73,1.58-2.28,2.61"/>
      <path class="cls-1" d="M11.1,96.06c-.27.17-.53.35-.79.54"/>
      <path class="cls-1" d="M25.97,93.66c-.72-.38-1.5-.64-2.31-.77"/>
      <path class="cls-1" d="M26.73,96.12c.14-.26.21-.55.21-.85,0-.67-.37-1.29-.97-1.61"/>
      <path class="cls-1" d="M22.03,98.37c.63-.45,1.14-1.04,1.5-1.72"/>
      <path class="cls-1" d="M17.38,100.49c1.67-.4,3.25-1.13,4.65-2.13"/>
      <path class="cls-1" d="M11.74,100.29c.62.33,1.3.52,2,.56"/>
      <path class="cls-1" d="M11.1,99.24c0,.44.25.85.64,1.06"/>
      <path class="cls-1" d="M23.53,96.65c.09-.17.14-.36.14-.56"/>
    </g>
    <line class="cls-1" x1="11.1" y1="95.92" x2="11.1" y2="99.24"/>
    <line class="cls-1" x1="23.67" y1="92.75" x2="23.67" y2="96.09"/>
  </g>
</svg>