<?xml version="1.0" encoding="UTF-8"?>
<svg id="Layer_2" data-name="Layer 2" xmlns="http://www.w3.org/2000/svg" viewBox="0 0 29.1 51.19">
  <defs>
    <style>
      .cls-1 {
        fill: none;
        stroke: #231f20;
        stroke-linecap: round;
        stroke-linejoin: round;
        stroke-width: .75px;
      }
    </style>
  </defs>
  <g id="Layer_1-2" data-name="Layer 1">
    <path class="cls-1" d="M6.36,1.7c-1.7.57-3.23,1.52-4.5,2.78"/>
    <path class="cls-1" d="M1.86,4.48c-.95.95-1.48,2.24-1.48,3.58"/>
    <line class="cls-1" x1=".38" y1="8.06" x2=".38" y2="15.15"/>
    <g>
      <path class="cls-1" d="M.38,15.15c0,.69.27,1.35.76,1.84"/>
      <path class="cls-1" d="M1.14,16.99c1.18,1.18,2.63,2.08,4.21,2.6"/>
      <path class="cls-1" d="M22.74,1.7c-2.64-.88-5.41-1.33-8.19-1.33s-5.55.45-8.19,1.33"/>
      <path class="cls-1" d="M28.72,8.06c0-1.34-.53-2.63-1.48-3.58"/>
      <path class="cls-1" d="M27.24,4.48c-1.26-1.26-2.8-2.21-4.5-2.78"/>
    </g>
    <g>
      <path class="cls-1" d="M27.96,16.99c.49-.49.76-1.15.76-1.84"/>
      <path class="cls-1" d="M5.35,19.59c2.97.99,6.07,1.49,9.2,1.49s6.23-.5,9.2-1.49"/>
      <path class="cls-1" d="M23.75,19.59c1.59-.53,3.03-1.42,4.21-2.6"/>
      <path class="cls-1" d="M9.55,21.45c.9.14,1.8.21,2.7.21,1.65,0,3.29-.23,4.87-.69"/>
      <path class="cls-1" d="M6.4,19.92c.11.16.24.3.4.41"/>
      <path class="cls-1" d="M6.79,20.33c.82.58,1.76.97,2.75,1.12"/>
      <path class="cls-1" d="M22.67,20.51c.14-.19.23-.42.27-.65"/>
      <path class="cls-1" d="M20.43,22.47c.89-.47,1.65-1.14,2.23-1.96"/>
      <path class="cls-1" d="M9.55,24.29c.9.14,1.8.21,2.7.21,2.85,0,5.66-.7,8.18-2.04"/>
      <path class="cls-1" d="M6.43,20.99c-.19.27-.29.58-.29.91,0,.51.24.98.65,1.27"/>
      <path class="cls-1" d="M6.79,23.17c.82.58,1.76.97,2.75,1.12"/>
      <path class="cls-1" d="M6.9,20.41c-.17.19-.33.38-.47.59"/>
      <path class="cls-1" d="M22.67,23.34c.19-.26.29-.58.29-.9,0-.51-.24-.98-.65-1.27"/>
      <path class="cls-1" d="M22.3,21.16s-.07-.05-.11-.07"/>
      <path class="cls-1" d="M20.43,25.3c.89-.47,1.65-1.14,2.23-1.96"/>
      <path class="cls-1" d="M9.55,27.12c.9.14,1.8.21,2.7.21,2.85,0,5.66-.7,8.18-2.03"/>
      <path class="cls-1" d="M6.43,23.83c-.19.27-.29.58-.29.91,0,.51.24.98.65,1.27"/>
      <path class="cls-1" d="M6.79,26c.82.58,1.76.97,2.75,1.12"/>
      <path class="cls-1" d="M6.9,23.24c-.17.19-.33.38-.47.58"/>
      <path class="cls-1" d="M22.67,26.17c.19-.26.29-.58.29-.9,0-.51-.24-.98-.65-1.27"/>
      <path class="cls-1" d="M22.3,24s-.07-.05-.11-.07"/>
      <path class="cls-1" d="M20.43,28.13c.89-.47,1.65-1.14,2.23-1.96"/>
      <path class="cls-1" d="M9.55,29.96c.9.14,1.8.21,2.7.21,2.85,0,5.66-.7,8.18-2.04"/>
      <path class="cls-1" d="M6.43,26.66c-.19.26-.29.58-.29.91,0,.5.24.98.65,1.27"/>
      <path class="cls-1" d="M6.79,28.84c.82.58,1.76.97,2.75,1.12"/>
      <path class="cls-1" d="M6.9,26.07c-.17.19-.33.38-.47.59"/>
      <path class="cls-1" d="M22.67,29.01c.19-.27.29-.58.29-.91,0-.5-.24-.98-.65-1.27"/>
      <path class="cls-1" d="M22.3,26.83s-.07-.05-.11-.07"/>
      <path class="cls-1" d="M20.43,30.97c.89-.47,1.65-1.14,2.23-1.96"/>
      <path class="cls-1" d="M9.55,32.79c.9.14,1.8.21,2.7.21,2.85,0,5.66-.7,8.18-2.04"/>
      <path class="cls-1" d="M6.43,29.49c-.19.27-.29.58-.29.91,0,.5.24.98.65,1.27"/>
      <path class="cls-1" d="M6.79,31.67c.82.58,1.76.97,2.75,1.12"/>
      <path class="cls-1" d="M6.9,28.91c-.17.19-.33.38-.47.59"/>
      <path class="cls-1" d="M22.67,31.84c.19-.26.29-.58.29-.9,0-.51-.24-.98-.65-1.27"/>
      <path class="cls-1" d="M22.3,29.67s-.07-.05-.11-.07"/>
      <path class="cls-1" d="M20.43,33.8c.89-.47,1.65-1.14,2.23-1.96"/>
      <path class="cls-1" d="M9.55,35.63c.9.14,1.8.21,2.7.21,2.85,0,5.66-.7,8.18-2.04"/>
      <path class="cls-1" d="M6.43,32.33c-.19.27-.29.58-.29.91,0,.51.24.98.65,1.27"/>
      <path class="cls-1" d="M6.79,34.51c.82.58,1.76.97,2.75,1.12"/>
      <path class="cls-1" d="M6.9,31.74c-.17.19-.33.38-.47.59"/>
      <path class="cls-1" d="M22.67,34.68c.19-.26.29-.58.29-.9,0-.51-.24-.98-.65-1.27"/>
      <path class="cls-1" d="M22.3,32.5s-.07-.05-.11-.07"/>
      <path class="cls-1" d="M20.43,36.64c.89-.47,1.65-1.14,2.23-1.96"/>
      <path class="cls-1" d="M9.55,38.46c.9.14,1.8.21,2.7.21,2.85,0,5.66-.7,8.18-2.04"/>
      <path class="cls-1" d="M6.43,35.16c-.19.26-.29.58-.29.91,0,.5.24.98.65,1.27"/>
      <path class="cls-1" d="M6.79,37.34c.82.58,1.76.97,2.75,1.12"/>
      <path class="cls-1" d="M6.9,34.58c-.17.19-.33.38-.47.59"/>
      <path class="cls-1" d="M22.67,37.51c.19-.26.29-.58.29-.91,0-.51-.24-.98-.65-1.27"/>
      <path class="cls-1" d="M22.3,35.34s-.07-.05-.11-.07"/>
      <path class="cls-1" d="M20.43,39.47c.89-.47,1.65-1.14,2.23-1.96"/>
      <path class="cls-1" d="M9.55,41.3c.9.14,1.8.21,2.7.21,2.85,0,5.66-.7,8.18-2.04"/>
      <path class="cls-1" d="M6.43,38c-.19.27-.29.58-.29.91,0,.51.24.98.65,1.27"/>
      <path class="cls-1" d="M6.79,40.17c.82.58,1.76.97,2.75,1.12"/>
      <path class="cls-1" d="M6.9,37.41c-.17.19-.33.38-.47.59"/>
      <path class="cls-1" d="M22.67,40.35c.19-.26.29-.58.29-.91,0-.5-.24-.98-.65-1.27"/>
      <path class="cls-1" d="M22.3,38.17s-.07-.05-.11-.07"/>
      <path class="cls-1" d="M20.43,42.31c.89-.47,1.65-1.14,2.23-1.96"/>
      <path class="cls-1" d="M9.55,44.13c.9.14,1.8.21,2.7.21,2.85,0,5.66-.7,8.18-2.04"/>
      <path class="cls-1" d="M6.43,40.83c-.19.26-.29.58-.29.91,0,.51.24.98.65,1.27"/>
      <path class="cls-1" d="M6.79,43.01c.82.58,1.76.97,2.75,1.12"/>
      <path class="cls-1" d="M6.9,40.25c-.17.19-.33.38-.47.59"/>
      <path class="cls-1" d="M22.67,43.18c.19-.26.29-.58.29-.91,0-.51-.24-.98-.65-1.27"/>
      <path class="cls-1" d="M22.3,41.01s-.07-.05-.11-.07"/>
      <path class="cls-1" d="M20.43,45.14c.89-.47,1.65-1.14,2.23-1.96"/>
      <path class="cls-1" d="M9.55,46.97c.9.14,1.8.21,2.7.21,2.85,0,5.66-.7,8.18-2.04"/>
      <path class="cls-1" d="M6.43,43.67c-.19.27-.29.58-.29.91,0,.5.24.98.65,1.27"/>
      <path class="cls-1" d="M6.79,45.84c.82.58,1.76.97,2.75,1.12"/>
      <path class="cls-1" d="M6.9,43.08c-.17.19-.33.38-.47.58"/>
      <path class="cls-1" d="M20.43,47.98c.89-.47,1.65-1.14,2.23-1.96"/>
      <path class="cls-1" d="M9.55,49.8c.9.14,1.8.21,2.7.21,2.85,0,5.66-.7,8.18-2.04"/>
      <path class="cls-1" d="M6.79,48.68c.82.58,1.76.97,2.75,1.12"/>
      <path class="cls-1" d="M6.43,46.5c-.19.27-.29.58-.29.91,0,.5.24.98.65,1.27"/>
      <path class="cls-1" d="M6.9,45.92c-.17.19-.33.38-.47.58"/>
      <path class="cls-1" d="M22.3,43.84s-.07-.05-.11-.07"/>
      <path class="cls-1" d="M22.67,46.02c.19-.26.29-.58.29-.91,0-.5-.24-.98-.65-1.27"/>
      <path class="cls-1" d="M19.04,50.09c.77-.26,1.48-.69,2.06-1.27"/>
      <path class="cls-1" d="M10.06,50.09c1.45.48,2.96.73,4.49.73s3.04-.25,4.49-.73"/>
      <path class="cls-1" d="M9.28,49.75c.25.13.51.24.78.33"/>
      <path class="cls-1" d="M21.1,48.81c.24-.24.37-.56.37-.9,0-.18-.04-.37-.12-.53"/>
      <path class="cls-1" d="M27.96,9.9c.49-.49.76-1.15.76-1.84"/>
      <path class="cls-1" d="M.38,8.06c0,.69.27,1.35.76,1.84"/>
      <path class="cls-1" d="M1.14,9.9c1.18,1.18,2.63,2.08,4.21,2.6"/>
      <path class="cls-1" d="M5.35,12.51s.02,0,.04.01"/>
      <path class="cls-1" d="M23.75,12.51c1.59-.53,3.03-1.42,4.21-2.6"/>
      <path class="cls-1" d="M14.4,14h.15c3.12,0,6.23-.5,9.2-1.49"/>
    </g>
    <line class="cls-1" x1="9.38" y1="4.02" x2="8.87" y2="2.31"/>
    <line class="cls-1" x1="12.05" y1="7.35" x2="11.32" y2="4.23"/>
    <line class="cls-1" x1="16.59" y1="5.42" x2="17.11" y2="1.33"/>
    <line class="cls-1" x1="17.32" y1="5.66" x2="17.68" y2="3.18"/>
    <line class="cls-1" x1="14.05" y1="6.19" x2="13.81" y2="2.46"/>
    <path class="cls-1" d="M15.19,5.01c-.8.74-1.51,1.58-2.11,2.49"/>
    <path class="cls-1" d="M11.32,4.23c-.76.71-1.42,1.52-1.96,2.4"/>
    <path class="cls-1" d="M13.81,2.46c-1.11-.13-2.23-.19-3.35-.19-.53,0-1.06.01-1.58.04"/>
    <path class="cls-1" d="M11.32,4.23c-1.4-.19-2.81-.29-4.22-.29"/>
    <path class="cls-1" d="M17.11,1.33c-1.15.21-2.27.59-3.3,1.13"/>
    <path class="cls-1" d="M20.16,2.09c-.86.28-1.69.64-2.47,1.09"/>
    <path class="cls-1" d="M22.36,4.83c-1.51-.68-3.07-1.24-4.68-1.65"/>
    <path class="cls-1" d="M19.95,6.7c-1.54-.69-3.13-1.25-4.76-1.69"/>
    <path class="cls-1" d="M22.03,5.35c.15-.15.26-.32.33-.52"/>
    <path class="cls-1" d="M20.16,2.09c-.14-.06-.28-.11-.42-.16"/>
    <path class="cls-1" d="M19.74,1.94c-.85-.32-1.73-.52-2.63-.61"/>
    <path class="cls-1" d="M8.87,2.31c-.56.21-1.06.58-1.43,1.05"/>
    <path class="cls-1" d="M7.44,3.35c-.16.16-.28.36-.35.58"/>
    <path class="cls-1" d="M9.36,6.63c.12.05.25.1.38.14"/>
    <path class="cls-1" d="M9.74,6.77c1.08.36,2.2.6,3.34.72"/>
    <path class="cls-1" d="M19.95,6.7c.78-.29,1.49-.75,2.08-1.34"/>
  </g>
</svg>