<?xml version="1.0" encoding="UTF-8"?>
<svg id="Layer_2" data-name="Layer 2" xmlns="http://www.w3.org/2000/svg" viewBox="0 0 22.29 45.28">
  <defs>
    <style>
      .cls-1 {
        fill: none;
        stroke: #000;
        stroke-linecap: round;
        stroke-linejoin: round;
        stroke-width: .75px;
      }
    </style>
  </defs>
  <g id="Layer_1-2" data-name="Layer 1">
    <path class="cls-1" d="M7.49,5.24c.82.27,1.68.46,2.54.55"/>
    <path class="cls-1" d="M7.21,5.13c.09.04.19.07.28.11"/>
    <path class="cls-1" d="M15.09,1.56c-.64-.24-1.31-.4-2-.46"/>
    <path class="cls-1" d="M15.41,1.68c-.11-.04-.21-.08-.32-.12"/>
    <path class="cls-1" d="M15.25,5.18c-1.17-.52-2.38-.95-3.62-1.28"/>
    <path class="cls-1" d="M15.41,1.68c-.65.21-1.28.49-1.88.83"/>
    <path class="cls-1" d="M13.09,1.1c-.88.16-1.72.45-2.51.86"/>
    <path class="cls-1" d="M10.58,1.96c-.85-.1-1.69-.15-2.54-.15-.4,0-.8.01-1.21.03"/>
    <path class="cls-1" d="M8.69,3.3c-.58.54-1.08,1.15-1.49,1.83"/>
    <path class="cls-1" d="M11.63,3.9c-.61.56-1.15,1.2-1.6,1.89"/>
    <line class="cls-1" x1="10.77" y1="4.79" x2="10.58" y2="1.96"/>
    <line class="cls-1" x1="13.25" y1="4.39" x2="13.53" y2="2.51"/>
    <line class="cls-1" x1="12.7" y1="4.21" x2="13.09" y2="1.1"/>
    <line class="cls-1" x1="9.25" y1="5.68" x2="8.69" y2="3.3"/>
    <line class="cls-1" x1="7.22" y1="3.15" x2="6.83" y2="1.84"/>
    <path class="cls-1" d="M1.5,3.5c-.72.72-1.13,1.7-1.13,2.72"/>
    <path class="cls-1" d="M4.92,1.39c-1.29.43-2.46,1.15-3.42,2.11"/>
    <path class="cls-1" d="M.95,12.52c.9.9,2,1.58,3.2,1.98"/>
    <path class="cls-1" d="M.38,11.13c0,.52.21,1.03.58,1.4"/>
    <line class="cls-1" x1=".38" y1="6.22" x2=".38" y2="11.13"/>
    <path class="cls-1" d="M5.75,2.64c-.12.12-.21.28-.27.44"/>
    <path class="cls-1" d="M8.69,3.3c-1.06-.15-2.14-.22-3.21-.22"/>
    <path class="cls-1" d="M6.83,1.84c-.43.16-.8.44-1.09.8"/>
    <path class="cls-1" d="M11.04,10.73h.11c2.38,0,4.74-.38,6.99-1.13"/>
    <path class="cls-1" d="M17.37,1.39c-2.01-.67-4.11-1.01-6.23-1.01s-4.22.34-6.23,1.01"/>
    <path class="cls-1" d="M20.79,3.5c-.96-.96-2.13-1.68-3.42-2.11"/>
    <path class="cls-1" d="M21.92,6.22c0-1.02-.41-2-1.13-2.72"/>
    <path class="cls-1" d="M18.14,14.5c1.21-.4,2.3-1.08,3.2-1.98"/>
    <path class="cls-1" d="M4.16,14.5c2.25.75,4.61,1.14,6.99,1.14s4.74-.38,6.99-1.14"/>
    <path class="cls-1" d="M21.34,12.52c.37-.37.58-.87.58-1.4"/>
    <line class="cls-1" x1="21.92" y1="6.22" x2="21.92" y2="11.13"/>
    <path class="cls-1" d="M16.83,4.16c.11-.11.2-.25.25-.39"/>
    <path class="cls-1" d="M17.08,3.76c-1.15-.52-2.34-.94-3.55-1.26"/>
    <path class="cls-1" d="M15.25,5.18c.59-.22,1.13-.57,1.58-1.02"/>
    <path class="cls-1" d="M8.06,16.15c0,.23.14.45.35.54"/>
    <line class="cls-1" x1="8.06" y1="15.42" x2="8.06" y2="16.15"/>
    <path class="cls-1" d="M7.39,15.32c-.23.26-.42.55-.57.87"/>
    <path class="cls-1" d="M6.82,16.18c-.05.11-.08.23-.08.35,0,.33.19.64.5.78"/>
    <path class="cls-1" d="M8.41,16.69c.32.15.67.23,1.03.23.03,0,.06,0,.09,0"/>
    <path class="cls-1" d="M7.24,17.31c.46.21.96.32,1.47.32.04,0,.08,0,.12,0"/>
    <path class="cls-1" d="M14.48,15.53c.07-.06.14-.11.2-.18"/>
    <path class="cls-1" d="M11.15,16.65c.8-.23,1.56-.61,2.22-1.13"/>
    <path class="cls-1" d="M8.83,17.63c2.06-.07,4.04-.81,5.64-2.1"/>
    <path class="cls-1" d="M8.06,19.86c0,.23.14.45.35.54"/>
    <line class="cls-1" x1="8.06" y1="17.57" x2="8.06" y2="19.86"/>
    <path class="cls-1" d="M8.06,18.43c-.08.06-.16.12-.24.19"/>
    <path class="cls-1" d="M7.82,18.62c-.43.34-.77.78-1,1.28"/>
    <path class="cls-1" d="M6.82,19.9c-.05.11-.08.23-.08.35,0,.33.19.64.5.78"/>
    <path class="cls-1" d="M8.41,20.4c.32.15.67.23,1.03.23.03,0,.06,0,.09,0"/>
    <path class="cls-1" d="M7.24,21.02c.46.21.96.32,1.47.32.04,0,.08,0,.12,0"/>
    <path class="cls-1" d="M14.18,18.25c.04-.08.05-.16.05-.25"/>
    <path class="cls-1" d="M13.48,19.15c.3-.24.54-.55.7-.9"/>
    <line class="cls-1" x1="14.23" y1="15.72" x2="14.23" y2="18"/>
    <path class="cls-1" d="M15.47,17.96c.05-.11.08-.23.08-.35,0-.33-.19-.64-.5-.77"/>
    <path class="cls-1" d="M15.05,16.83c-.26-.12-.53-.2-.82-.26"/>
    <path class="cls-1" d="M14.48,19.24c.43-.34.77-.78.99-1.28"/>
    <path class="cls-1" d="M11.15,20.36c.85-.25,1.64-.66,2.33-1.22"/>
    <path class="cls-1" d="M8.83,21.34c2.06-.07,4.04-.81,5.64-2.1"/>
    <path class="cls-1" d="M8.06,23.57c0,.23.14.45.35.54"/>
    <line class="cls-1" x1="8.06" y1="21.28" x2="8.06" y2="23.57"/>
    <path class="cls-1" d="M8.06,22.14c-.08.06-.16.12-.24.19"/>
    <path class="cls-1" d="M7.82,22.33c-.43.34-.77.78-1,1.28"/>
    <path class="cls-1" d="M6.82,23.61c-.05.11-.08.23-.08.35,0,.33.19.64.5.78"/>
    <path class="cls-1" d="M8.41,24.11c.32.15.67.22,1.03.22.03,0,.06,0,.09,0"/>
    <path class="cls-1" d="M7.24,24.74c.46.21.96.32,1.47.32.04,0,.08,0,.12,0"/>
    <path class="cls-1" d="M14.18,21.96c.04-.08.05-.16.05-.25"/>
    <path class="cls-1" d="M13.48,22.86c.3-.24.54-.55.7-.9"/>
    <line class="cls-1" x1="14.23" y1="19.43" x2="14.23" y2="21.71"/>
    <path class="cls-1" d="M15.47,21.67c.05-.11.08-.23.08-.35,0-.33-.19-.64-.5-.77"/>
    <path class="cls-1" d="M15.05,20.54c-.26-.12-.53-.21-.82-.26"/>
    <path class="cls-1" d="M14.48,22.95c.43-.34.77-.78.99-1.28"/>
    <path class="cls-1" d="M11.15,24.07c.85-.25,1.64-.66,2.33-1.22"/>
    <path class="cls-1" d="M8.83,25.05c2.06-.07,4.04-.81,5.64-2.1"/>
    <path class="cls-1" d="M8.06,27.28c0,.23.14.45.35.54"/>
    <line class="cls-1" x1="8.06" y1="24.99" x2="8.06" y2="27.28"/>
    <path class="cls-1" d="M8.06,25.85c-.08.06-.16.12-.24.19"/>
    <path class="cls-1" d="M7.82,26.04c-.43.34-.77.78-1,1.28"/>
    <path class="cls-1" d="M6.82,27.32c-.05.11-.08.23-.08.35,0,.33.19.64.5.77"/>
    <path class="cls-1" d="M8.41,27.82c.32.15.67.23,1.03.23.03,0,.06,0,.09,0"/>
    <path class="cls-1" d="M7.24,28.45c.46.21.96.32,1.47.32.04,0,.08,0,.12,0"/>
    <path class="cls-1" d="M14.18,25.67c.04-.08.05-.16.05-.25"/>
    <path class="cls-1" d="M13.48,26.57c.3-.24.54-.55.7-.9"/>
    <line class="cls-1" x1="14.23" y1="23.14" x2="14.23" y2="25.42"/>
    <path class="cls-1" d="M15.47,25.38c.05-.11.08-.23.08-.35,0-.33-.19-.64-.5-.77"/>
    <path class="cls-1" d="M15.05,24.26c-.26-.12-.53-.21-.82-.26"/>
    <path class="cls-1" d="M14.48,26.66c.43-.34.77-.78.99-1.28"/>
    <path class="cls-1" d="M11.15,27.78c.85-.25,1.64-.66,2.33-1.21"/>
    <path class="cls-1" d="M8.83,28.76c2.06-.07,4.04-.81,5.64-2.1"/>
    <path class="cls-1" d="M8.06,30.99c0,.23.14.45.35.54"/>
    <line class="cls-1" x1="8.06" y1="28.7" x2="8.06" y2="30.99"/>
    <path class="cls-1" d="M8.06,29.56c-.08.06-.16.12-.24.19"/>
    <path class="cls-1" d="M7.82,29.75c-.43.34-.77.78-1,1.28"/>
    <path class="cls-1" d="M6.82,31.03c-.05.11-.08.23-.08.35,0,.33.19.64.5.77"/>
    <path class="cls-1" d="M8.41,31.53c.32.15.67.23,1.03.23.03,0,.06,0,.09,0"/>
    <path class="cls-1" d="M7.24,32.16c.46.21.96.32,1.47.32.04,0,.08,0,.12,0"/>
    <path class="cls-1" d="M14.18,29.38c.04-.08.05-.16.05-.25"/>
    <path class="cls-1" d="M13.48,30.28c.3-.24.54-.55.7-.9"/>
    <line class="cls-1" x1="14.23" y1="26.85" x2="14.23" y2="29.13"/>
    <path class="cls-1" d="M15.47,29.09c.05-.11.08-.23.08-.35,0-.33-.19-.63-.5-.77"/>
    <path class="cls-1" d="M15.05,27.97c-.26-.12-.53-.21-.82-.26"/>
    <path class="cls-1" d="M14.48,30.37c.43-.34.77-.78.99-1.28"/>
    <path class="cls-1" d="M11.15,31.5c.85-.25,1.64-.66,2.33-1.21"/>
    <path class="cls-1" d="M8.83,32.47c2.06-.07,4.04-.81,5.64-2.1"/>
    <path class="cls-1" d="M14.48,34.09c.43-.34.77-.78.99-1.28"/>
    <path class="cls-1" d="M8.83,36.18c2.06-.07,4.04-.81,5.64-2.1"/>
    <path class="cls-1" d="M7.24,35.87c.46.21.96.32,1.47.32.04,0,.08,0,.12,0"/>
    <path class="cls-1" d="M6.82,34.74c-.05.11-.08.23-.08.35,0,.33.19.64.5.77"/>
    <path class="cls-1" d="M7.82,33.46c-.43.34-.77.78-1,1.28"/>
    <path class="cls-1" d="M8.06,33.27c-.08.06-.16.12-.24.19"/>
    <path class="cls-1" d="M15.05,31.68c-.26-.12-.53-.21-.82-.26"/>
    <path class="cls-1" d="M15.47,32.8c.05-.11.08-.23.08-.35,0-.33-.19-.63-.5-.77"/>
    <line class="cls-1" x1="8.06" y1="32.42" x2="8.06" y2="34.7"/>
    <line class="cls-1" x1="14.23" y1="30.56" x2="14.23" y2="32.84"/>
    <path class="cls-1" d="M13.48,33.99c.3-.24.54-.55.7-.9"/>
    <path class="cls-1" d="M11.15,35.21c.85-.25,1.64-.66,2.33-1.21"/>
    <path class="cls-1" d="M8.41,35.24c.32.15.67.23,1.03.23.03,0,.06,0,.09,0"/>
    <path class="cls-1" d="M8.06,34.7c0,.23.14.45.35.54"/>
    <path class="cls-1" d="M14.18,33.09c.04-.08.05-.16.05-.25"/>
    <path class="cls-1" d="M14.01,37.76c.37-.3.66-.67.86-1.1"/>
    <path class="cls-1" d="M9.15,39.57c1.77-.06,3.48-.7,4.86-1.81"/>
    <path class="cls-1" d="M7.79,39.3c.4.18.83.28,1.26.28.04,0,.07,0,.11,0"/>
    <path class="cls-1" d="M7.42,38.33c-.04.1-.07.2-.07.31,0,.29.17.55.43.67"/>
    <path class="cls-1" d="M8.06,37.42c-.27.26-.48.57-.64.9"/>
    <path class="cls-1" d="M14.51,35.69c-.09-.04-.18-.08-.27-.11"/>
    <path class="cls-1" d="M14.87,36.66c.04-.1.07-.2.07-.3,0-.29-.17-.55-.43-.67"/>
    <path class="cls-1" d="M13.48,37.7c.3-.24.54-.55.7-.9"/>
    <path class="cls-1" d="M11.15,38.92c.85-.25,1.64-.66,2.33-1.21"/>
    <path class="cls-1" d="M8.41,38.95c.32.15.67.22,1.03.22.03,0,.06,0,.09,0"/>
    <path class="cls-1" d="M8.06,38.41c0,.23.14.45.35.54"/>
    <path class="cls-1" d="M14.18,36.8c.04-.08.05-.16.05-.25"/>
    <path class="cls-1" d="M12.87,41.38c.22-.18.4-.4.52-.66"/>
    <path class="cls-1" d="M9.95,42.47c1.07-.04,2.09-.42,2.92-1.09"/>
    <path class="cls-1" d="M9.12,42.31c.24.11.5.17.76.17.02,0,.04,0,.06,0"/>
    <path class="cls-1" d="M8.91,41.72c-.03.06-.04.12-.04.18,0,.17.1.33.26.4"/>
    <path class="cls-1" d="M9.32,41.15c-.17.16-.32.36-.42.58"/>
    <path class="cls-1" d="M13.17,40.14c-.07-.03-.14-.06-.21-.08"/>
    <path class="cls-1" d="M13.39,40.72c.03-.06.04-.12.04-.18,0-.17-.1-.33-.26-.4"/>
    <path class="cls-1" d="M12.36,41.34c.08-.06.14-.13.21-.21"/>
    <path class="cls-1" d="M11.15,41.97c.44-.13.85-.34,1.21-.63"/>
    <line class="cls-1" x1="8.54" y1="39.53" x2="9.73" y2="41.98"/>
    <line class="cls-1" x1="13.75" y1="37.97" x2="12.56" y2="41.13"/>
    <line class="cls-1" x1="8.06" y1="36.13" x2="8.06" y2="38.41"/>
    <line class="cls-1" x1="14.23" y1="34.27" x2="14.23" y2="36.56"/>
    <line class="cls-1" x1="9.96" y1="42.47" x2="11.15" y2="44.9"/>
    <line class="cls-1" x1="12.32" y1="41.77" x2="11.15" y2="44.91"/>
  </g>
</svg>