<?xml version="1.0" encoding="UTF-8"?>
<svg id="Layer_2" data-name="Layer 2" xmlns="http://www.w3.org/2000/svg" viewBox="0 0 29.84 71.93">
  <defs>
    <style>
      .cls-1 {
        fill: none;
        stroke: #231f20;
        stroke-linecap: round;
        stroke-linejoin: round;
        stroke-width: .75px;
      }
    </style>
  </defs>
  <g id="Layer_1-2" data-name="Layer 1">
    <line class="cls-1" x1="21.44" y1="18.8" x2="21.44" y2="24.05"/>
    <g>
      <path class="cls-1" d="M22.98,22.21c-.49-.26-1-.46-1.54-.6"/>
      <path class="cls-1" d="M5.22,14.34c2.32,3,5.9,4.75,9.7,4.75s7.37-1.76,9.7-4.75"/>
    </g>
    <line class="cls-1" x1="8.79" y1="53.8" x2="8.79" y2="58.6"/>
    <line class="cls-1" x1="21.53" y1="50.53" x2="21.53" y2="55.49"/>
    <g>
      <path class="cls-1" d="M22.88,53.51c-.38-.2-.77-.37-1.18-.5"/>
      <path class="cls-1" d="M23.55,55.72c.13-.24.19-.5.19-.77,0-.6-.33-1.15-.86-1.44"/>
      <path class="cls-1" d="M8.79,58.6c0,.45.25.86.64,1.07"/>
      <path class="cls-1" d="M9.42,59.67c.69.37,1.45.57,2.23.59"/>
      <path class="cls-1" d="M11.66,60.27s.03,0,.04,0"/>
      <path class="cls-1" d="M19.86,57.79c.64-.45,1.16-1.04,1.53-1.73"/>
      <path class="cls-1" d="M8.61,56.2c-.76.58-1.4,1.32-1.85,2.17"/>
      <path class="cls-1" d="M6.76,58.37c-.13.24-.19.5-.19.77,0,.6.33,1.15.86,1.44"/>
      <path class="cls-1" d="M7.43,60.58c.92.5,1.95.77,3,.8"/>
      <path class="cls-1" d="M10.44,61.39c.18,0,.35,0,.53,0,3.77,0,7.45-1.17,10.53-3.34"/>
      <path class="cls-1" d="M21.49,58.05c.86-.61,1.56-1.4,2.06-2.33"/>
      <path class="cls-1" d="M15.16,59.91c1.69-.4,3.28-1.12,4.7-2.11"/>
      <path class="cls-1" d="M15.16,67.87c1.69-.4,3.28-1.11,4.7-2.12"/>
      <path class="cls-1" d="M21.49,66.01c.86-.6,1.56-1.4,2.06-2.33"/>
      <path class="cls-1" d="M10.44,69.35c.18,0,.35,0,.53,0,3.77,0,7.45-1.17,10.53-3.34"/>
      <path class="cls-1" d="M7.43,68.55c.92.5,1.95.77,3,.8"/>
      <path class="cls-1" d="M6.76,66.34c-.13.24-.19.5-.19.77,0,.6.33,1.15.86,1.44"/>
      <path class="cls-1" d="M8.61,64.16c-.76.59-1.4,1.33-1.85,2.17"/>
      <path class="cls-1" d="M19.86,65.75c.64-.45,1.16-1.04,1.53-1.73"/>
      <path class="cls-1" d="M11.66,68.57s.03,0,.04,0"/>
      <path class="cls-1" d="M9.42,67.63c.69.37,1.45.57,2.23.59"/>
      <path class="cls-1" d="M8.79,66.57c0,.45.25.86.64,1.07"/>
    </g>
    <line class="cls-1" x1="8.79" y1="61.92" x2="8.79" y2="66.57"/>
    <g>
      <path class="cls-1" d="M22.88,61.47c-.38-.2-.77-.37-1.18-.5"/>
      <path class="cls-1" d="M23.55,63.68c.13-.24.19-.5.19-.77,0-.6-.33-1.16-.86-1.44"/>
    </g>
    <line class="cls-1" x1="21.53" y1="58.81" x2="21.53" y2="63.45"/>
    <line class="cls-1" x1="21.44" y1="42.64" x2="21.44" y2="47.28"/>
    <g>
      <path class="cls-1" d="M23.47,47.51c.13-.24.19-.5.19-.77,0-.6-.33-1.16-.86-1.44"/>
      <path class="cls-1" d="M22.8,45.3c-.38-.2-.77-.37-1.18-.5"/>
    </g>
    <line class="cls-1" x1="8.7" y1="45.75" x2="8.7" y2="50.39"/>
    <g>
      <path class="cls-1" d="M8.7,50.39c0,.45.24.86.64,1.07"/>
      <path class="cls-1" d="M9.34,51.46c.69.37,1.45.57,2.23.6"/>
    </g>
    <line class="cls-1" x1="11.57" y1="52.06" x2="11.61" y2="52.06"/>
    <g>
      <path class="cls-1" d="M19.77,49.58c.64-.45,1.16-1.04,1.53-1.73"/>
      <path class="cls-1" d="M8.53,47.99c-.76.58-1.39,1.33-1.85,2.17"/>
      <path class="cls-1" d="M6.68,50.16c-.13.24-.19.5-.19.77,0,.6.33,1.15.86,1.44"/>
      <path class="cls-1" d="M7.35,52.37c.93.5,1.95.77,3.01.8"/>
      <path class="cls-1" d="M10.35,53.18c.17,0,.35,0,.52,0,3.77,0,7.45-1.17,10.53-3.34"/>
      <path class="cls-1" d="M21.41,49.84c.86-.6,1.56-1.4,2.06-2.33"/>
      <path class="cls-1" d="M15.07,51.7c1.69-.4,3.28-1.12,4.7-2.12"/>
    </g>
    <line class="cls-1" x1="9.74" y1="5.2" x2="9.23" y2="3.46"/>
    <line class="cls-1" x1="12.45" y1="8.57" x2="11.7" y2="5.41"/>
    <line class="cls-1" x1="17.04" y1="6.61" x2="17.56" y2="2.47"/>
    <line class="cls-1" x1="17.78" y1="6.85" x2="18.14" y2="4.35"/>
    <line class="cls-1" x1="14.47" y1="7.39" x2="14.22" y2="3.61"/>
    <g>
      <path class="cls-1" d="M15.62,6.19c-.81.75-1.53,1.6-2.13,2.52"/>
      <path class="cls-1" d="M11.7,5.41c-.77.72-1.43,1.54-1.98,2.43"/>
      <path class="cls-1" d="M14.22,3.61c-1.12-.13-2.26-.2-3.39-.2-.53,0-1.07.01-1.6.04"/>
      <path class="cls-1" d="M11.7,5.41c-1.42-.19-2.84-.29-4.27-.3"/>
      <path class="cls-1" d="M17.56,2.47c-1.17.21-2.3.59-3.35,1.14"/>
      <path class="cls-1" d="M20.65,3.25c-.87.28-1.71.65-2.51,1.1"/>
      <path class="cls-1" d="M22.88,6.02c-1.53-.69-3.11-1.25-4.73-1.67"/>
      <path class="cls-1" d="M20.44,7.9c-1.56-.7-3.17-1.27-4.82-1.71"/>
      <path class="cls-1" d="M22.54,6.54c.15-.15.26-.33.33-.53"/>
      <path class="cls-1" d="M20.65,3.25c-.14-.06-.28-.11-.43-.16"/>
      <path class="cls-1" d="M20.22,3.09c-.86-.32-1.75-.53-2.66-.62"/>
      <path class="cls-1" d="M9.23,3.46c-.57.22-1.07.58-1.45,1.06"/>
      <path class="cls-1" d="M7.78,4.52c-.17.16-.29.37-.35.59"/>
      <path class="cls-1" d="M9.72,7.84c.12.05.25.1.38.14"/>
      <path class="cls-1" d="M10.1,7.98c1.1.37,2.23.61,3.39.73"/>
      <path class="cls-1" d="M20.44,7.9c.79-.3,1.51-.76,2.11-1.36"/>
    </g>
    <line class="cls-1" x1="5.22" y1="14.33" x2="8.55" y2="18.99"/>
    <line class="cls-1" x1="24.59" y1="14.38" x2="21.44" y2="18.52"/>
    <g>
      <path class="cls-1" d="M27.57,12.4c1.2-1.06,1.89-2.58,1.89-4.18,0-1.8-.87-3.48-2.33-4.53"/>
      <path class="cls-1" d="M2.7,3.69C1.24,4.74.38,6.42.38,8.22c0,1.6.69,3.12,1.89,4.18"/>
      <path class="cls-1" d="M24.43,14.56c.07-.07.13-.14.19-.22"/>
      <path class="cls-1" d="M5.22,14.34c.06.08.12.16.19.23"/>
      <path class="cls-1" d="M2.27,12.4c1.09,1.02,2.39,1.8,3.81,2.27"/>
      <path class="cls-1" d="M6.08,14.66c2.85.95,5.84,1.44,8.85,1.44s5.99-.48,8.84-1.44"/>
      <path class="cls-1" d="M23.76,14.67c1.42-.47,2.72-1.25,3.81-2.27"/>
      <path class="cls-1" d="M27.82,7.85c.47-.47.73-1.1.73-1.77s-.26-1.3-.73-1.77"/>
      <path class="cls-1" d="M27.82,4.32c-1.14-1.14-2.53-2-4.05-2.51"/>
      <path class="cls-1" d="M23.76,1.81c-2.85-.95-5.84-1.43-8.85-1.43s-5.99.49-8.85,1.43"/>
      <path class="cls-1" d="M6.08,1.81c-1.53.51-2.92,1.37-4.06,2.51"/>
      <path class="cls-1" d="M2.02,4.32c-.47.47-.73,1.1-.73,1.77s.26,1.3.73,1.77"/>
      <path class="cls-1" d="M2.02,7.85c1.14,1.14,2.53,2,4.05,2.51"/>
      <path class="cls-1" d="M23.76,10.36c1.53-.51,2.92-1.36,4.05-2.51"/>
      <path class="cls-1" d="M13.49,11.76c.47.03.95.04,1.43.04,3.01,0,5.99-.48,8.84-1.44"/>
      <path class="cls-1" d="M9.2,69.2c.1.28.3.5.56.64"/>
    </g>
    <line class="cls-1" x1="11.42" y1="68.75" x2="11.46" y2="68.75"/>
    <g>
      <path class="cls-1" d="M15.07,43.96c1.69-.4,3.28-1.12,4.7-2.12"/>
      <path class="cls-1" d="M21.41,42.1c.86-.61,1.56-1.4,2.06-2.33"/>
      <path class="cls-1" d="M10.35,45.44c.17,0,.35,0,.52,0,3.77,0,7.45-1.17,10.53-3.34"/>
      <path class="cls-1" d="M7.35,44.64c.93.5,1.95.77,3.01.8"/>
      <path class="cls-1" d="M6.68,42.43c-.13.24-.19.5-.19.77,0,.6.33,1.15.86,1.44"/>
      <path class="cls-1" d="M8.53,40.25c-.76.58-1.39,1.33-1.85,2.17"/>
      <path class="cls-1" d="M22.8,37.56c-.43-.23-.89-.42-1.36-.55"/>
      <path class="cls-1" d="M23.47,39.77c.13-.24.19-.5.19-.77,0-.6-.33-1.15-.86-1.44"/>
      <path class="cls-1" d="M19.77,41.84c.64-.45,1.16-1.04,1.53-1.73"/>
    </g>
    <line class="cls-1" x1="11.57" y1="44.32" x2="11.61" y2="44.32"/>
    <g>
      <path class="cls-1" d="M9.34,43.72c.69.37,1.45.57,2.23.6"/>
      <path class="cls-1" d="M8.7,42.66c0,.45.24.86.64,1.07"/>
    </g>
    <line class="cls-1" x1="21.44" y1="34.93" x2="21.44" y2="39.57"/>
    <line class="cls-1" x1="8.7" y1="38.04" x2="8.7" y2="42.68"/>
    <g>
      <path class="cls-1" d="M15.07,35.97c1.69-.4,3.28-1.12,4.7-2.12"/>
      <path class="cls-1" d="M21.41,34.11c.86-.61,1.56-1.4,2.06-2.33"/>
      <path class="cls-1" d="M10.35,37.45c.17,0,.35,0,.52,0,3.77,0,7.45-1.17,10.53-3.34"/>
      <path class="cls-1" d="M7.35,36.65c.93.5,1.95.77,3.01.8"/>
      <path class="cls-1" d="M6.68,34.44c-.13.24-.19.5-.19.77,0,.6.33,1.15.86,1.44"/>
      <path class="cls-1" d="M8.53,32.27c-.76.58-1.39,1.32-1.85,2.17"/>
      <path class="cls-1" d="M22.86,29.6c-.43-.23-.89-.41-1.36-.55"/>
      <path class="cls-1" d="M23.47,31.78c.13-.24.19-.5.19-.77,0-.6-.33-1.15-.86-1.44"/>
      <path class="cls-1" d="M19.77,33.86c.64-.45,1.16-1.04,1.53-1.73"/>
      <path class="cls-1" d="M9.34,35.73c.69.37,1.45.57,2.23.6"/>
      <path class="cls-1" d="M8.7,34.67c0,.45.24.86.64,1.07"/>
    </g>
    <line class="cls-1" x1="8.7" y1="29.86" x2="8.7" y2="34.67"/>
    <line class="cls-1" x1="21.44" y1="26.6" x2="21.44" y2="31.56"/>
    <g>
      <path class="cls-1" d="M14.92,28.37c1.69-.4,3.28-1.12,4.7-2.12"/>
      <path class="cls-1" d="M21.25,26.51c.86-.61,1.56-1.4,2.06-2.33"/>
      <path class="cls-1" d="M10.2,29.85c.18,0,.35,0,.53,0,3.77,0,7.45-1.17,10.53-3.34"/>
      <path class="cls-1" d="M7.19,29.05c.92.5,1.95.77,3,.8"/>
      <path class="cls-1" d="M6.53,26.84c-.13.24-.2.5-.2.77,0,.6.33,1.15.86,1.44"/>
      <path class="cls-1" d="M8.37,24.66c-.76.58-1.4,1.33-1.85,2.17"/>
      <path class="cls-1" d="M23.31,24.18c.13-.24.19-.5.19-.77,0-.46-.19-.89-.52-1.2"/>
      <path class="cls-1" d="M19.62,26.25c.42-.3.79-.66,1.1-1.06"/>
      <path class="cls-1" d="M11.42,28.73s.03,0,.04,0"/>
      <path class="cls-1" d="M9.19,28.13c.69.37,1.45.57,2.23.6"/>
      <path class="cls-1" d="M8.55,27.07c0,.45.25.86.64,1.07"/>
    </g>
    <line class="cls-1" x1="8.55" y1="19.72" x2="8.55" y2="26.9"/>
    <line class="cls-1" x1="21.29" y1="66.15" x2="21.29" y2="67.48"/>
    <g>
      <path class="cls-1" d="M20.95,68.31c.22-.22.34-.52.34-.83"/>
      <path class="cls-1" d="M19.05,69.48c.71-.24,1.36-.64,1.9-1.17"/>
    </g>
    <line class="cls-1" x1="21.13" y1="68.08" x2="20.08" y2="69.84"/>
    <path class="cls-1" d="M19.93,70.03c.06-.06.11-.12.15-.19"/>
    <path class="cls-1" d="M9.76,69.84c.04.07.09.13.15.19"/>
    <path class="cls-1" d="M9.91,70.03c.44.44.98.78,1.58.97"/>
    <path class="cls-1" d="M11.48,71c1.11.37,2.27.56,3.44.56s2.33-.19,3.44-.56"/>
    <path class="cls-1" d="M18.36,71c.59-.2,1.13-.53,1.58-.97"/>
    <path class="cls-1" d="M14.65,70.15c.09,0,.18,0,.27,0,1.4,0,2.8-.23,4.13-.67"/>
  </g>
</svg>