<?xml version="1.0" encoding="UTF-8"?>
<svg id="Layer_2" data-name="Layer 2" xmlns="http://www.w3.org/2000/svg" viewBox="0 0 202.36 332.52">
  <defs>
    <style>
      .cls-1 {
        stroke-width: 1.5px;
      }

      .cls-1, .cls-2 {
        fill: none;
        stroke: #231f20;
        stroke-linecap: round;
        stroke-linejoin: round;
      }

      .cls-2 {
        stroke-width: .75px;
      }
    </style>
  </defs>
  <g id="Layer_1-2" data-name="Layer 1">
    <polyline class="cls-2" points="194.61 174.89 194.6 175.05 194.56 175.21 194.49 175.37 194.39 175.52 194.25 175.67 194.09 175.82 193.9 175.96 193.68 176.1 193.43 176.23 193.16 176.35 192.86 176.46 192.54 176.57 192.2 176.66 191.84 176.75 191.47 176.83 191.07 176.89 190.67 176.95 190.25 176.99 189.82 177.02"/>
    <line class="cls-2" x1="197.12" y1="331.77" x2="189.82" y2="177.02"/>
    <line class="cls-2" x1="171.1" y1="173.99" x2="189.82" y2="177.02"/>
    <polyline class="cls-2" points="129.7 183.02 129.72 182.82 129.76 182.64 129.82 182.47 129.91 182.31 130.03 182.18 130.16 182.06 130.32 181.97 130.49 181.91 130.67 181.87 130.85 181.86 131.05 181.88 131.24 181.92 131.42 182 131.6 182.1 131.77 182.22 131.93 182.36 132.06 182.52 132.18 182.7 132.27 182.88 132.34 183.08 132.38 183.27 132.39 183.47 132.38 183.66 132.34 183.85 132.27 184.02 132.18 184.17 132.07 184.31 131.93 184.42 131.78 184.52 131.61 184.58 131.43 184.62 131.24 184.63 131.05 184.61 130.86 184.56 130.67 184.49 130.49 184.39 130.32 184.27 130.17 184.13 130.03 183.96 129.92 183.79 129.83 183.6 129.76 183.41 129.72 183.21 129.7 183.02"/>
    <polyline class="cls-2" points="129.68 172.78 129.7 172.59 129.74 172.4 129.8 172.23 129.9 172.07 130.01 171.93 130.15 171.82 130.3 171.73 130.47 171.66 130.65 171.62 130.84 171.61 131.03 171.63 131.22 171.67 131.41 171.75 131.59 171.84 131.76 171.97 131.92 172.11 132.05 172.27 132.17 172.45 132.26 172.63 132.33 172.83 132.37 173.03 132.39 173.23 132.37 173.42 132.33 173.61 132.26 173.78 132.17 173.94 132.06 174.07 131.92 174.19 131.77 174.28 131.6 174.35 131.42 174.39 131.23 174.4 131.04 174.38 130.84 174.34 130.66 174.26 130.47 174.16 130.31 174.04 130.15 173.9 130.01 173.74 129.9 173.56 129.81 173.37 129.74 173.18 129.7 172.98 129.68 172.78"/>
    <polyline class="cls-2" points="160.84 170.94 160.68 170.88 160.54 170.81 160.43 170.74 160.34 170.67 160.29 170.59 160.26 170.51 160.27 170.42 160.31 170.34 160.37 170.27 160.47 170.19 160.59 170.13 160.74 170.07 160.91 170.02 161.1 169.98 161.3 169.94 161.52 169.92 161.74 169.91 161.96 169.91 162.18 169.93 162.4 169.95 162.6 169.99 162.79 170.03 162.96 170.08 163.11 170.14 163.24 170.21 163.34 170.29 163.41 170.37 163.45 170.45 163.46 170.53 163.44 170.61 163.39 170.69 163.31 170.76 163.19 170.83 163.06 170.9 162.9 170.95 162.72 171 162.52 171.04 162.31 171.06 162.09 171.08 161.87 171.08 161.65 171.08 161.43 171.06 161.22 171.03 161.02 170.99 160.84 170.94"/>
    <polyline class="cls-2" points="49.19 149.85 49.05 149.8 48.94 149.74 48.85 149.68 48.8 149.61 48.76 149.54 48.76 149.46 48.79 149.39 48.85 149.32 48.93 149.25 49.04 149.19 49.18 149.13 49.33 149.07 49.51 149.03 49.69 148.99 49.89 148.96 50.1 148.94 50.31 148.93 50.52 148.94 50.72 148.95 50.92 148.97 51.1 149 51.27 149.04 51.41 149.09 51.54 149.14 51.64 149.2 51.71 149.27 51.76 149.34 51.77 149.41 51.76 149.48 51.72 149.55 51.65 149.62 51.55 149.69 51.43 149.75 51.28 149.81 51.12 149.86 50.94 149.9 50.74 149.93 50.54 149.96 50.33 149.97 50.12 149.98 49.91 149.97 49.71 149.95 49.52 149.93 49.35 149.89 49.19 149.85"/>
    <line class="cls-2" x1="35.44" y1="147.17" x2="36.04" y2="162.19"/>
    <line class="cls-2" x1="171.1" y1="173.99" x2="174.88" y2="170.61"/>
    <line class="cls-2" x1="171.1" y1="173.99" x2="170.78" y2="195.52"/>
    <polyline class="cls-2" points="59.95 154.95 60.88 155.25 61.84 155.54 62.82 155.82 63.82 156.1 64.84 156.36 65.88 156.62 66.94 156.87 68.02 157.11 69.11 157.34 70.23 157.57 71.36 157.78 72.51 157.98 73.67 158.18"/>
    <line class="cls-1" x1="97.98" y1="172.61" x2="92.45" y2="171.69"/>
    <line class="cls-2" x1="73.67" y1="158.18" x2="171.1" y2="173.99"/>
    <line class="cls-2" x1="92.45" y1="171.69" x2="92.63" y2="182.09"/>
    <line class="cls-2" x1="35.42" y1="146.95" x2="59.95" y2="154.95"/>
    <polyline class="cls-2" points="20.45 33.41 20.4 33.21 20.33 33.03 20.25 32.86 20.14 32.7 20.03 32.57 19.89 32.46 19.75 32.38 19.6 32.32 19.45 32.3 19.3 32.31 19.15 32.34 19.01 32.41 18.88 32.5 18.76 32.62 18.66 32.76 18.58 32.93 18.51 33.11 18.47 33.3 18.45 33.5 18.45 33.7 18.47 33.9 18.52 34.1 18.58 34.28 18.67 34.45 18.77 34.61 18.89 34.74 19.02 34.85 19.17 34.93 19.31 34.98 19.47 35 19.62 35 19.76 34.97 19.91 34.9 20.04 34.81 20.15 34.69 20.26 34.54 20.34 34.38 20.41 34.2 20.45 34.01 20.47 33.81 20.47 33.61 20.45 33.41"/>
    <polyline class="cls-2" points="16.2 8.91 16.15 8.71 16.09 8.52 15.99 8.34 15.89 8.19 15.77 8.05 15.64 7.94 15.49 7.85 15.35 7.79 15.2 7.76 15.04 7.77 14.89 7.8 14.75 7.86 14.62 7.96 14.49 8.07 14.4 8.21 14.31 8.38 14.24 8.55 14.2 8.75 14.18 8.95 14.18 9.15 14.2 9.35 14.24 9.55 14.32 9.74 14.4 9.92 14.51 10.08 14.63 10.21 14.76 10.33 14.9 10.41 15.05 10.47 15.21 10.5 15.36 10.49 15.51 10.46 15.65 10.4 15.78 10.3 15.9 10.19 16.01 10.05 16.09 9.88 16.15 9.71 16.2 9.51 16.22 9.31 16.22 9.11 16.2 8.91"/>
    <line class="cls-2" x1="10.84" y1="2.06" x2="16.85" y2=".75"/>
    <polyline class="cls-2" points="12.44 1.71 12.24 1.75 12.03 1.8 11.83 1.84 11.62 1.89 11.41 1.93 11.2 1.98 10.99 2.02 10.78 2.07 10.58 2.11 10.39 2.15 10.2 2.19 10.01 2.23 9.82 2.27 9.64 2.31 9.45 2.35 9.27 2.39 8.95 2.46 8.64 2.53 8.34 2.59 8.06 2.66 7.8 2.71 7.56 2.76 7.35 2.81 7.15 2.85 7.05 2.88 6.96 2.9 6.87 2.91 6.79 2.93 6.72 2.95 6.66 2.96 6.6 2.97 6.55 2.98 6.51 2.99 6.47 3 6.44 3 6.42 3.01 6.41 3.01 6.42 3.01 6.44 3 10.85 2.06"/>
    <line class="cls-2" x1="16.85" y1=".75" x2="12.44" y2="1.71"/>
    <line class="cls-2" x1="5.57" y1="265.96" x2="36.21" y2="166.4"/>
    <polyline class="cls-2" points="35.53 149.57 9.91 3.07 5.89 3.93"/>
    <polyline class="cls-2" points="5.9 3.93 5.9 3.92 5.89 3.91 5.89 3.9 5.89 3.89 5.89 3.88 5.89 3.87"/>
    <polyline class="cls-2" points="5.88 3.87 5.85 3.87 5.83 3.87 5.82 3.87 5.82 3.87"/>
    <polyline class="cls-2" points="6.44 3 6.35 3.04 6.26 3.08 6.18 3.12 6.11 3.18 6.06 3.25 6 3.31 5.96 3.39 5.93 3.46 5.9 3.56 5.88 3.65 5.88 3.76 5.89 3.87"/>
    <polyline class="cls-2" points="9.91 3.06 9.97 2.92 10.05 2.78 10.13 2.65 10.23 2.52 10.33 2.4 10.44 2.3 10.54 2.21 10.65 2.13 10.75 2.08 10.84 2.05"/>
    <polyline class="cls-1" points="201.61 329.31 201.61 329.51 201.57 329.71 201.5 329.9 201.41 330.09 201.29 330.28 201.14 330.45 200.96 330.62 200.75 330.78 200.52 330.93 200.27 331.08 199.99 331.2 199.69 331.32 199.37 331.43 199.03 331.52 198.67 331.6 198.3 331.66 197.92 331.71 197.53 331.75 197.12 331.77"/>
    <polyline class="cls-1" points="193.47 173.6 193.7 173.73 193.9 173.86 194.08 174 194.23 174.14 194.36 174.29 194.46 174.44 194.54 174.59 194.59 174.74 194.61 174.89"/>
    <line class="cls-1" x1="197.12" y1="331.77" x2="190.34" y2="329.99"/>
    <line class="cls-1" x1="174.88" y1="170.61" x2="193.47" y2="173.6"/>
    <line class="cls-1" x1="201.61" y1="329.31" x2="194.61" y2="174.89"/>
    <line class="cls-1" x1="170.95" y1="195.33" x2="189.84" y2="329.63"/>
    <polyline class="cls-1" points="101.74 183.65 170.78 195.52 170.96 195.36"/>
    <line class="cls-2" x1="36.03" y1="162.19" x2="36.23" y2="167.13"/>
    <line class="cls-2" x1="42.15" y1="144.53" x2="35.42" y2="146.95"/>
    <polyline class="cls-1" points="60.57 175.53 61.5 175.85 62.45 176.15 63.42 176.45 64.41 176.74 65.42 177.01 66.45 177.28 67.5 177.55 68.57 177.8 69.66 178.04 70.77 178.28 71.89 178.5 73.03 178.72 74.19 178.92"/>
    <line class="cls-1" x1="101.6" y1="173.21" x2="97.98" y2="172.61"/>
    <line class="cls-1" x1="101.6" y1="173.21" x2="101.74" y2="183.65"/>
    <line class="cls-1" x1="74.19" y1="178.92" x2="92.63" y2="182.09"/>
    <line class="cls-1" x1="97.98" y1="172.61" x2="98.08" y2="179"/>
    <line class="cls-1" x1="174.88" y1="170.61" x2="78.07" y2="155.08"/>
    <polyline class="cls-1" points="78.07 155.08 77.03 154.91 76 154.72 74.98 154.53 73.98 154.33 73 154.12 72.04 153.91 71.1 153.68 70.17 153.45 69.27 153.2 68.38 152.95 67.51 152.7 66.67 152.43 42.15 144.53"/>
    <line class="cls-1" x1="36.23" y1="167.13" x2="60.57" y2="175.53"/>
    <line class="cls-1" x1="92.63" y1="182.09" x2="98.08" y2="179"/>
    <line class="cls-1" x1="6.57" y1="265.98" x2="11.88" y2="263.55"/>
    <polyline class="cls-1" points="12.09 263.36 12.06 263.41 12.02 263.46 11.96 263.51 11.88 263.55"/>
    <polyline class="cls-1" points="6.57 265.98 6.47 266.02 6.36 266.05 6.25 266.07 6.12 266.07 6 266.07 5.88 266.06 5.77 266.04 5.66 266 5.57 265.96 .84 263.52"/>
    <polyline class="cls-1" points=".84 263.52 .8 263.39 .77 263.28 .75 263.17 .75 263.07 .75 262.95 .77 262.82"/>
    <polyline class="cls-1" points=".77 262.82 1.27 260.21 1.87 257.06 2.6 253.26 3.47 248.68 4.53 243.13 5.81 236.42 7.36 228.29 9.25 218.4 11.55 206.35 14.35 191.62 17.8 173.54 22.05 151.25 22.7 147.85 22.8 147.35 22.89 146.85 22.97 146.36 23.04 145.85 23.1 145.34 23.16 144.82 23.21 144.29 23.25 143.76 23.29 143.13 23.32 142.5 23.33 141.85 23.34 141.21 23.33 140.55 23.31 139.89 23.29 139.22 23.25 138.55 23.2 137.87 23.14 137.2 23.06 136.51 22.98 135.83 22.89 135.14 22.8 134.45 22.71 133.76 22.62 133.06 22.53 132.37 22.44 131.68 22.35 130.98 22.26 130.29 22.17 129.59 22.08 128.9 20.6 117.49 18.8 103.7 16.63 86.98 13.99 66.7 10.78 42.02 6.87 11.92 5.82 3.87"/>
    <line class="cls-1" x1="41.99" y1="144.6" x2="17.15" y2=".96"/>
    <line class="cls-1" x1="16.85" y1=".75" x2="12.44" y2="1.71"/>
    <polyline class="cls-1" points="5.82 3.87 5.81 3.79 5.82 3.7 5.83 3.62 5.85 3.53 5.88 3.46 5.92 3.38 5.96 3.31 6.02 3.24 6.08 3.19 6.14 3.13 6.21 3.09 6.29 3.05 6.34 3.04 6.36 3.03 6.37 3.03 6.38 3.02 6.39 3.02 6.4 3.02 6.41 3.02 6.44 3 6.47 3 6.53 2.98 6.6 2.97 6.68 2.96 6.78 2.93 6.9 2.91 7.02 2.88 7.17 2.85 7.32 2.82 7.48 2.78 7.65 2.75 7.83 2.71 8.01 2.67 8.21 2.62 8.42 2.58 8.63 2.53 8.85 2.48 9.08 2.43 9.31 2.38 9.55 2.33 9.8 2.28 10.04 2.23 10.3 2.17 10.55 2.12 10.81 2.06 11.06 2 11.32 1.95 11.6 1.89 11.89 1.83 12.17 1.77 12.44 1.71"/>
    <line class="cls-1" x1="12.09" y1="263.36" x2="41.59" y2="168.98"/>
    <polyline class="cls-2" points="97.55 161.04 97.41 160.99 97.3 160.93 97.21 160.87 97.16 160.8 97.12 160.73 97.12 160.66 97.15 160.59 97.21 160.52 97.29 160.45 97.4 160.38 97.54 160.32 97.69 160.27 97.87 160.22 98.05 160.19 98.25 160.16 98.46 160.14 98.67 160.13 98.88 160.13 99.08 160.14 99.28 160.16 99.46 160.19 99.63 160.23 99.77 160.28 99.9 160.34 100 160.4 100.07 160.46 100.12 160.53 100.13 160.6 100.12 160.68 100.08 160.75 100.01 160.82 99.91 160.89 99.79 160.95 99.64 161 99.48 161.05 99.3 161.1 99.1 161.13 98.9 161.15 98.69 161.17 98.48 161.17 98.27 161.17 98.07 161.15 97.88 161.12 97.71 161.09 97.55 161.04"/>
  </g>
</svg>