<?xml version="1.0" encoding="UTF-8"?>
<svg id="Layer_2" data-name="Layer 2" xmlns="http://www.w3.org/2000/svg" viewBox="0 0 113.56 361.05">
  <defs>
    <style>
      .cls-1 {
        stroke-width: 1.5px;
      }

      .cls-1, .cls-2 {
        fill: none;
        stroke: #231f20;
        stroke-linecap: round;
        stroke-linejoin: round;
      }

      .cls-2 {
        stroke-width: .75px;
      }
    </style>
  </defs>
  <g id="Layer_1-2" data-name="Layer 1">
    <line class="cls-2" x1="8.55" y1="360.03" x2="9.85" y2="202.6"/>
    <polyline class="cls-2" points="9.85 202.6 9.43 202.67 9.01 202.73 8.57 202.77 8.14 202.8 7.7 202.82 7.26 202.83 6.82 202.82 6.39 202.8 5.97 202.77 5.55 202.72 5.15 202.66 4.76 202.59 4.38 202.51 4.03 202.42 3.69 202.31 3.37 202.2 3.08 202.07 2.8 201.94 2.56 201.79 2.34 201.64 2.14 201.49 1.98 201.32 1.84 201.15 1.74 200.98 1.66 200.8 1.62 200.62 1.6 200.44"/>
    <line class="cls-2" x1="22.01" y1="195.37" x2="9.85" y2="202.6"/>
    <polyline class="cls-2" points="46.95 196.2 46.96 196 46.98 195.8 47.02 195.59 47.07 195.39 47.14 195.19 47.22 195.01 47.31 194.83 47.42 194.68 47.53 194.54 47.65 194.43 47.76 194.34 47.89 194.28 48 194.25 48.12 194.25 48.22 194.27 48.32 194.33 48.41 194.41 48.49 194.52 48.55 194.65 48.59 194.81 48.62 194.98 48.63 195.16 48.63 195.36 48.61 195.56 48.57 195.76 48.51 195.96 48.45 196.16 48.37 196.35 48.27 196.52 48.17 196.68 48.05 196.81 47.94 196.93 47.82 197.01 47.7 197.07 47.59 197.11 47.47 197.11 47.36 197.08 47.26 197.03 47.18 196.94 47.1 196.84 47.04 196.7 47 196.55 46.97 196.38 46.95 196.2"/>
    <polyline class="cls-2" points="46.73 186.16 46.73 185.96 46.76 185.76 46.79 185.55 46.85 185.35 46.92 185.15 47 184.97 47.09 184.79 47.2 184.64 47.31 184.5 47.43 184.39 47.55 184.3 47.67 184.25 47.79 184.22 47.9 184.22 48.01 184.24 48.11 184.3 48.19 184.39 48.27 184.5 48.33 184.63 48.38 184.79 48.41 184.96 48.42 185.15 48.41 185.34 48.39 185.55 48.35 185.75 48.3 185.95 48.23 186.15 48.15 186.34 48.06 186.51 47.95 186.67 47.84 186.8 47.72 186.91 47.61 187 47.48 187.06 47.37 187.09 47.25 187.09 47.14 187.06 47.04 187 46.96 186.92 46.88 186.81 46.82 186.68 46.77 186.52 46.74 186.35 46.73 186.16"/>
    <polyline class="cls-2" points="26.63 190.18 26.54 190.26 26.43 190.35 26.28 190.42 26.12 190.49 25.93 190.55 25.73 190.59 25.52 190.63 25.3 190.65 25.07 190.66 24.85 190.66 24.63 190.65 24.42 190.62 24.22 190.58 24.05 190.53 23.89 190.47 23.75 190.4 23.64 190.31 23.56 190.24 23.51 190.15 23.5 190.06 23.51 189.96 23.55 189.87 23.63 189.78 23.73 189.7 23.86 189.62 24.01 189.55 24.19 189.48 24.38 189.43 24.59 189.39 24.8 189.36 25.03 189.34 25.25 189.34 25.47 189.35 25.69 189.37 25.89 189.4 26.08 189.45 26.25 189.5 26.39 189.56 26.52 189.64 26.61 189.72 26.68 189.81 26.71 189.9 26.72 189.99 26.69 190.09 26.63 190.18"/>
    <line class="cls-2" x1="22.01" y1="195.37" x2="65.72" y2="169.39"/>
    <line class="cls-1" x1="62.73" y1="168.86" x2="65.72" y2="169.39"/>
    <polyline class="cls-2" points="13.84 193.11 22.01 195.37 22.71 216.7"/>
    <line class="cls-2" x1="65.87" y1="179.61" x2="71.44" y2="176.22"/>
    <line class="cls-1" x1="65.87" y1="179.61" x2="65.72" y2="169.4"/>
    <line class="cls-2" x1="71.31" y1="166.07" x2="80.19" y2="160.8"/>
    <line class="cls-2" x1="71.44" y1="176.22" x2="71.32" y2="166.07"/>
    <line class="cls-2" x1="71.31" y1="166.07" x2="62.67" y2="164.54"/>
    <line class="cls-2" x1="71.44" y1="176.22" x2="65.81" y2="175.2"/>
    <polyline class="cls-2" points="100.61 32.16 100.61 31.97 100.57 31.78 100.52 31.59 100.43 31.42 100.32 31.26 100.19 31.12 100.05 31 99.88 30.91 99.71 30.84 99.53 30.8 99.34 30.79 99.16 30.8 98.98 30.85 98.81 30.92 98.65 31.02 98.5 31.14 98.38 31.29 98.28 31.45 98.2 31.62 98.15 31.81 98.13 32 98.14 32.19 98.17 32.38 98.23 32.56 98.31 32.74 98.42 32.89 98.55 33.03 98.7 33.15 98.86 33.25 99.03 33.31 99.21 33.36 99.4 33.37 99.58 33.35 99.76 33.31 99.94 33.24 100.09 33.14 100.24 33.02 100.36 32.87 100.46 32.71 100.54 32.54 100.59 32.35 100.61 32.16"/>
    <polyline class="cls-2" points="101.52 7.61 101.4 7.47 101.25 7.34 101.09 7.24 100.91 7.17 100.73 7.12 100.54 7.11 100.35 7.12 100.17 7.17 100 7.24 99.83 7.33 99.69 7.46 99.56 7.6 99.46 7.76 99.38 7.94 99.32 8.13 99.3 8.32 99.3 8.52 99.33 8.71 99.39 8.9 99.47 9.08 99.58 9.24 99.71 9.38 99.86 9.5 100.03 9.59 100.2 9.66 100.39 9.7 100.57 9.71 100.76 9.7 100.94 9.65 101.12 9.57 101.28 9.47 101.42 9.34 101.54 9.2 101.64 9.03 101.72 8.85"/>
    <line class="cls-2" x1="110.33" y1="247.79" x2="98.21" y2="165.26"/>
    <line class="cls-2" x1="98.17" y1="130.35" x2="104.67" y2="1.18"/>
    <polyline class="cls-1" points="8.55 360.03 8.15 360.12 7.75 360.19 7.34 360.25 6.92 360.28 6.51 360.3 6.09 360.3 5.68 360.29 5.27 360.25 4.87 360.2 4.48 360.13 4.1 360.04 3.73 359.94 3.38 359.82 3.04 359.68 2.72 359.53 2.42 359.37 2.14 359.19 1.89 359 1.65 358.8 1.45 358.59 1.26 358.37 1.11 358.14 .98 357.9 .88 357.66 .81 357.41 .76 357.16 .75 356.91"/>
    <polyline class="cls-1" points="1.6 200.44 1.6 200.36 1.62 200.27"/>
    <line class="cls-1" x1="12.72" y1="356.5" x2="12.95" y2="356.29"/>
    <polyline class="cls-1" points="13.12 356.01 13.1 356.09 13.07 356.16 13.02 356.23 12.96 356.29"/>
    <line class="cls-1" x1="13.84" y1="193.11" x2="1.61" y2="200.26"/>
    <line class="cls-1" x1="8.55" y1="360.03" x2="12.72" y2="356.5"/>
    <polyline class="cls-2" points="22.57 212.44 22.58 212.8 22.58 213.15 22.58 213.5 22.58 213.83 22.58 214.17 22.57 214.48 22.55 214.79 22.54 215.08"/>
    <line class="cls-1" x1=".75" y1="356.91" x2="1.6" y2="200.44"/>
    <line class="cls-1" x1="13.12" y1="356.01" x2="22.54" y2="215.08"/>
    <line class="cls-1" x1="57.03" y1="167.84" x2="62.73" y2="168.86"/>
    <line class="cls-1" x1="57.03" y1="167.84" x2="13.84" y2="193.11"/>
    <line class="cls-1" x1="22.44" y1="216.62" x2="22.71" y2="216.7"/>
    <line class="cls-1" x1="72.11" y1="159.02" x2="62.67" y2="164.54"/>
    <line class="cls-1" x1="22.71" y1="216.7" x2="82.66" y2="179.37"/>
    <polyline class="cls-1" points="82.65 179.37 83.34 178.93 83.99 178.49 84.62 178.05 85.22 177.6 85.8 177.14 86.35 176.68 86.87 176.22 87.36 175.75 87.83 175.29 88.27 174.81 88.68 174.34 89.06 173.86 89.42 173.38 95.48 164.82"/>
    <polyline class="cls-2" points="101.52 7.61 101.48 7.79 101.45 7.98 101.46 8.16 101.49 8.35 101.54 8.53 101.62 8.7 101.72 8.85"/>
    <polyline class="cls-2" points="101.79 8.49 101.79 8.29 101.76 8.11 101.71 7.94 101.63 7.77 101.53 7.61"/>
    <polyline class="cls-2" points="101.72 8.85 101.77 8.67 101.79 8.49"/>
    <line class="cls-1" x1="103.72" y1="246.94" x2="110.33" y2="247.79"/>
    <line class="cls-1" x1="97.17" y1=".75" x2="104.66" y2="1.18"/>
    <line class="cls-1" x1="111.13" y1="247.53" x2="112.81" y2="244.23"/>
    <polyline class="cls-1" points="111.13 247.53 111.09 247.59 111.04 247.64 110.96 247.69 110.87 247.73 110.78 247.76 110.67 247.79 110.56 247.8 110.44 247.8 110.33 247.79"/>
    <polyline class="cls-1" points="103.72 246.94 103.61 246.92 103.52 246.89 103.43 246.86 103.36 246.81 103.3 246.76 103.26 246.7 103.25 246.64"/>
    <polyline class="cls-1" points="112.81 244.23 108.15 194.79 105.64 168.22 105.35 165.14"/>
    <polyline class="cls-1" points="102.69 131.26 102.7 130.49 102.72 129.72 102.73 129.33 102.75 128.94 102.76 128.45 102.78 127.97 102.81 127 102.88 125.06 103.01 121.17 103.27 113.38 103.79 97.68 104.86 65.88 107 2.26"/>
    <polyline class="cls-1" points="107 2.2 107 2.21 107 2.22 107 2.23 107 2.24 107 2.25 107 2.26"/>
    <polyline class="cls-1" points="104.66 1.18 104.7 1.19 104.74 1.19"/>
    <polyline class="cls-1" points="106.37 1.47 106.46 1.5 106.55 1.53 106.63 1.56 106.7 1.62 106.76 1.67 106.82 1.72 106.87 1.79 106.91 1.85 106.95 1.93 106.97 2.01 107 2.1 107 2.2"/>
    <polyline class="cls-1" points="96.59 1.29 96.61 1.17 96.64 1.06 96.7 .97 96.77 .89 96.85 .83 96.95 .78 97.06 .76 97.17 .75"/>
    <line class="cls-1" x1="104.74" y1="1.19" x2="106.37" y2="1.47"/>
    <line class="cls-1" x1="96.59" y1="1.29" x2="90.37" y2="129.23"/>
    <line class="cls-1" x1="91.49" y1="170.46" x2="103.25" y2="246.64"/>
  </g>
</svg>