<?xml version="1.0" encoding="UTF-8"?>
<svg id="Layer_2" data-name="Layer 2" xmlns="http://www.w3.org/2000/svg" viewBox="0 0 116.74 124.02">
  <defs>
    <style>
      .cls-1 {
        stroke-width: 1.5px;
      }

      .cls-1, .cls-2 {
        fill: none;
        stroke: #231f20;
        stroke-linecap: round;
        stroke-linejoin: round;
      }

      .cls-2 {
        stroke-width: .75px;
      }
    </style>
  </defs>
  <g id="Layer_1-2" data-name="Layer 1">
    <polyline class="cls-2" points="99.82 122.83 100.29 122.86 100.75 122.88 101.22 122.89 101.68 122.89 102.14 122.87 102.6 122.85 103.04 122.81 103.5 122.76 103.91 122.71 104.32 122.64 104.72 122.57 105.12 122.49 105.5 122.4 105.9 122.29 106.28 122.18 106.66 122.06 107 121.94 107.34 121.81 107.67 121.67 108 121.53 108.32 121.37 108.64 121.21 108.95 121.04 109.25 120.87 109.54 120.68 109.82 120.49 110.1 120.3 110.36 120.09 110.62 119.87 110.88 119.65 111.12 119.42 111.35 119.18 111.6 118.91 111.83 118.63 112.04 118.34 112.24 118.04 112.43 117.74 112.6 117.42 112.75 117.1 112.89 116.77 113.03 116.38 113.14 115.99 113.23 115.59 113.29 115.18 113.33 114.76 113.33 114.34 113.31 113.9 113.26 113.47"/>
    <polyline class="cls-2" points="113.26 113.47 112.43 107.71 111.66 102.32 110.95 97.33 110.24 92.37 109.49 86.98 108.63 80.9"/>
    <polyline class="cls-2" points="108.63 80.9 108.57 80.5 108.49 80.09 108.4 79.69 108.3 79.29 108.19 78.89 108.06 78.49 107.91 78.08 107.75 77.68 107.58 77.28 107.4 76.88 107.21 76.49 107 76.1 106.79 75.71 106.57 75.32 106.32 74.94 106.08 74.57 105.84 74.22 105.59 73.87 105.33 73.53 105.07 73.19 104.79 72.86 104.51 72.52 103.93 71.87 103.31 71.23 102.68 70.61 102.02 70.01 101.35 69.42 100.71 68.9 100.06 68.39 99.39 67.89 98.7 67.4 98.01 66.93 97.32 66.47 96.61 66.03 95.9 65.61 95.19 65.2 94.48 64.8 93.75 64.42 93.03 64.05 92.31 63.69 91.57 63.35 90.83 63.01 90.1 62.69 89.29 62.35 88.48 62.03 87.68 61.71 86.86 61.42 86.06 61.13 85.24 60.86 84.44 60.61 83.64 60.37 82.74 60.11 81.85 59.87 80.95 59.66 80.07 59.45 79.19 59.27 78.31 59.1 77.43 58.95 76.56 58.82"/>
    <polyline class="cls-2" points="76.56 58.82 75.31 58.64 74.06 58.45 72.82 58.25 71.58 58.05 70.37 57.85 69.16 57.64 67.96 57.42 66.76 57.2 65.58 56.97 64.41 56.74 63.24 56.5 62.08 56.26 60.94 56.01 59.81 55.76 58.68 55.51 57.57 55.24 56.46 54.98 55.36 54.7 54.27 54.43 53.19 54.14 52.12 53.86 51.06 53.57 50.01 53.27 48.97 52.97 47.94 52.66 46.91 52.35 45.9 52.04 44.9 51.72 43.91 51.4 42.92 51.07 41.95 50.74 40.98 50.4 40.03 50.06 39.08 49.71 38.14 49.36 37.22 49 36.3 48.64 35.39 48.28 34.5 47.91 33.61 47.54 32.73 47.16 31.86 46.78 31 46.39 30.16 46.01 29.33 45.62 28.52 45.22 27.71 44.82 26.92 44.42 26.14 44.02 25.37 43.62 24.61 43.21 23.87 42.8 23.14 42.38 22.41 41.96 21.71 41.54 21.01 41.12 20.33 40.7 19.65 40.27 18.99 39.84 18.34 39.4 17.71 38.97 17.08 38.53 16.47 38.09 15.86 37.64 15.27 37.2 14.69 36.75 14.12 36.29 13.57 35.84 13.03 35.38 12.49 34.92 11.97 34.46 11.46 34 10.97 33.53 10.48 33.06 10 32.58 9.54 32.11 9.08 31.63 8.65 31.15 8.22 30.67 7.8 30.18 7.4 29.7 7 29.21 6.62 28.72 6.26 28.23 5.91 27.74 5.57 27.25 5.24 26.75 4.92 26.26 4.62 25.76 4.32 25.27 4.04 24.77 3.77 24.27 3.52 23.77 3.27 23.27 3.04 22.77 2.82 22.26 2.45 21.36 2.12 20.45"/>
    <polyline class="cls-2" points="7.52 4.37 7.36 5.01 7.22 5.64 7.09 6.27 6.98 6.9 6.9 7.49 6.82 8.07 6.77 8.65 6.72 9.23 6.69 9.76 6.68 10.29 6.68 10.82 6.68 11.35 6.7 11.86 6.74 12.38 6.78 12.9 6.83 13.42 6.91 13.97 6.99 14.52 7.09 15.08 7.2 15.63 7.35 16.24 7.52 16.86 7.7 17.47 7.89 18.09"/>
    <polyline class="cls-2" points="17.9 11.65 17.79 11.28 17.68 10.92 17.56 10.56 17.44 10.2 17.32 9.85 17.2 9.51 17.08 9.17 16.95 8.84 16.82 8.52 16.68 8.2 16.54 7.89 16.41 7.59 16.28 7.29 16.14 7.01 16 6.73 15.73 6.23 15.46 5.76 15.19 5.31 14.91 4.89 14.64 4.49 14.36 4.13 14.08 3.79 13.8 3.47 13.54 3.21 13.29 2.96 13.04 2.74 12.79 2.53 12.54 2.34 12.29 2.18 12.06 2.03 11.82 1.9 11.58 1.79 11.36 1.7 11.14 1.63 10.92 1.57 10.71 1.54 10.5 1.51 10.29 1.51 10.1 1.51 9.89 1.54 9.68 1.59 9.48 1.65 9.29 1.74 9.11 1.84 8.93 1.96 8.76 2.09 8.6 2.24 8.43 2.43 8.27 2.65 8.12 2.88 7.98 3.13 7.84 3.41 7.72 3.71 7.62 4.03 7.52 4.37"/>
    <polyline class="cls-2" points="7.89 18.09 8.13 18.76 8.39 19.43 8.68 20.1 8.98 20.77 9.31 21.43 9.66 22.09 10.04 22.76 10.44 23.41 10.86 24.08 11.3 24.73 11.77 25.39 12.26 26.03 12.78 26.68 13.31 27.33 13.87 27.97 14.46 28.61 15.07 29.24 15.7 29.88 16.37 30.51 17.04 31.14 17.75 31.77 18.48 32.39 19.24 33 20.01 33.61 20.81 34.22 21.64 34.82 22.47 35.41 23.33 35.99 24.22 36.58 25.04 37.11"/>
    <polyline class="cls-1" points="100.14 123.21 98.47 123.07 96.81 122.91 95.16 122.74 93.53 122.56 91.9 122.36 90.29 122.15 88.7 121.93 87.12 121.69 85.56 121.44 84 121.18 82.48 120.9 80.95 120.61 79.45 120.31 77.97 120 76.5 119.67 75.05 119.34 73.61 118.98 72.43 118.68"/>
    <polyline class="cls-1" points="42.58 105.87 41.64 105.23 40.73 104.58 39.84 103.92 38.97 103.25 38.11 102.57 37.28 101.88 36.48 101.19 35.68 100.49 34.91 99.77 34.17 99.06 33.44 98.33 32.74 97.6 32.06 96.86 31.39 96.11 30.74 95.35 30.12 94.59 29.52 93.82 28.94 93.05 28.39 92.26 27.85 91.47 27.33 90.68 26.84 89.88 26.35 89.06 25.89 88.23 25.45 87.39 25.04 86.55 24.64 85.71 24.27 84.86 23.92 84 23.59 83.14 23.28 82.28 2.13 20.48"/>
    <polyline class="cls-1" points="5.04 1.46 5.82 1.33 6.59 1.19 7.36 1.06 8.14 .93 8.9 .8"/>
    <polyline class="cls-1" points="115.13 114.63 114.86 115.16 114.59 115.69 114.32 116.23 114.04 116.76 113.78 117.28"/>
    <polyline class="cls-1" points="1.72 5.17 1.83 4.79 1.95 4.43 2.1 4.08 2.25 3.75 2.41 3.43 2.6 3.14 2.8 2.87 3.01 2.61 3.24 2.38 3.49 2.16 3.74 1.98 4.02 1.81 4.3 1.68 4.54 1.58 4.79 1.51 5.04 1.46"/>
    <polyline class="cls-1" points="2.12 20.45 1.88 19.73 1.67 19.01 1.48 18.29 1.32 17.57 1.17 16.84 1.05 16.11 .94 15.38 .86 14.65 .8 13.92 .77 13.19 .75 12.45 .76 11.72 .79 10.99 .83 10.26 .9 9.53 .99 8.81 1.1 8.08 1.22 7.35 1.37 6.63 1.54 5.9 1.72 5.17"/>
    <polyline class="cls-1" points="113.77 117.29 113.57 117.66 113.36 118.01 113.12 118.35 112.87 118.68 112.61 119 112.33 119.31 112.04 119.6 111.74 119.88 111.38 120.19 111 120.49 110.61 120.77 110.21 121.03 109.8 121.28 109.37 121.51 108.94 121.73 108.5 121.94 107.99 122.15 107.46 122.35 106.93 122.52 106.37 122.68 105.82 122.82 105.26 122.94 104.69 123.04 104.11 123.13 103.53 123.19 102.98 123.23 102.42 123.26 101.85 123.27 101.29 123.27 100.71 123.25 100.14 123.21"/>
    <polyline class="cls-1" points="18.03 11.9 19.81 18.33 21.58 24.7 23.35 31.03 25.05 37.11"/>
    <polyline class="cls-1" points="115.9 109.95 115.95 110.36 115.98 110.77 115.99 111.18 115.98 111.59 115.94 111.99 115.88 112.38 115.81 112.77 115.71 113.16 115.59 113.54 115.45 113.91 115.3 114.28 115.13 114.63"/>
    <polyline class="cls-1" points="8.91 .8 9.17 .77 9.43 .75 9.69 .76 9.96 .79 10.23 .83 10.49 .9 10.76 .98 11.03 1.08 11.29 1.2 11.56 1.33 11.83 1.49 12.12 1.67 12.41 1.89 12.71 2.11 13 2.37 13.29 2.65 13.58 2.95 13.87 3.27 14.16 3.61 14.44 3.99 14.73 4.38 15 4.79 15.23 5.14 15.44 5.51 15.66 5.89 15.88 6.29 16.09 6.7 16.29 7.12 16.49 7.55 16.68 7.99 16.87 8.43 17.05 8.9 17.23 9.38 17.4 9.86 17.56 10.36 17.73 10.86 17.89 11.38 18.03 11.91"/>
    <polyline class="cls-1" points="111.2 77.43 112.15 84.07 113.1 90.64 114.03 97.15 114.98 103.58 115.9 109.95"/>
    <polyline class="cls-1" points="25.04 37.11 25.12 37.16 26.05 37.73 27 38.3 27.98 38.86 28.97 39.41 29.99 39.97 31.03 40.51 32.1 41.05 33.18 41.58 34.28 42.1 35.41 42.62 36.56 43.13 37.73 43.64 38.91 44.14 40.12 44.62 41.36 45.11 42.61 45.59 43.89 46.05 45.18 46.52 46.49 46.97 47.82 47.42 49.18 47.86 50.54 48.28 51.94 48.71 53.36 49.11 54.79 49.52 56.24 49.92 57.71 50.3 59.2 50.68 60.71 51.05 62.23 51.41 63.77 51.76 65.33 52.1 66.91 52.42 68.5 52.74 70.11 53.05 71.61 53.33 73.13 53.6 74.66 53.85 76.21 54.1 77.77 54.34 79.34 54.57"/>
    <polyline class="cls-1" points="79.34 54.57 80.13 54.69 80.93 54.83 81.74 54.98 82.55 55.15 83.37 55.33 84.19 55.53 85.02 55.75 85.85 55.98 86.67 56.23 87.5 56.5 88.33 56.77 89.16 57.07 89.99 57.37 90.81 57.69 91.64 58.03 92.45 58.38 93.28 58.75 94.1 59.13 94.91 59.53 95.72 59.94 96.52 60.37 97.32 60.81 98.1 61.27 98.87 61.75 99.64 62.23 100.39 62.74 101.01 63.17 101.62 63.62 102.23 64.08 102.82 64.55 103.4 65.03 103.98 65.52 104.53 66.02 105.06 66.52 105.57 67.03 106.07 67.55 106.54 68.08 107 68.62 107.45 69.17 107.85 69.69 108.24 70.23 108.6 70.77 108.94 71.32 109.27 71.88 109.57 72.45 109.86 73.02 110.11 73.59 110.35 74.17 110.56 74.75 110.74 75.33 110.89 75.86 111.02 76.38 111.12 76.91 111.2 77.43"/>
  </g>
</svg>