<?xml version="1.0" encoding="UTF-8"?>
<svg id="Layer_2" data-name="Layer 2" xmlns="http://www.w3.org/2000/svg" viewBox="0 0 214.29 119.8">
  <defs>
    <style>
      .cls-1 {
        fill: none;
        stroke: #231f20;
        stroke-linecap: round;
        stroke-linejoin: round;
        stroke-width: .75px;
      }
    </style>
  </defs>
  <g id="Layer_1-2" data-name="Layer 1">
    <g>
      <path class="cls-1" d="M13.83,31.36c2.85-4.69,2.42-14.08,2.42-14.08L5.44,7.89c-1.85-1.71-2.42-4.55-.43-5.4,1.99-.85,5.69-1.99,5.69-1.99,4.41-.57,7.96.85,11.52,3.55,3.55,2.7,5.83,6.11,7.25,7.82,1.42,1.71,6.12,4.55,6.12,4.55l74.51,37.54c2.13.99,5.69,1.42,5.69,1.42l45.65,4.69c1,.29,1.85.85,1.85.85l8.82,4.41c2.56,1,4.83.71,4.83.71"/>
      <path class="cls-1" d="M13.97,30.93L2.88,21.4c-1.56-.99-2.84-.43-2.42,1.85.43,2.28,3.27,11.09,9.39,18.77,6.11,7.68,14.36,9.39,18.2,7.96,3.84-1.42,5.4-4.12,12.66-.99l67.97,34.13c.85.43,2.42.57,2.42.57l48.77,5.12,8.39,4.27c4.12,2.85,7.11,4.98,9.81,11.09"/>
      <path class="cls-1" d="M.74,21.12l4.69-1.71c1.14-.43,1.99.43,1.99.43l7.68,6.54"/>
      <path class="cls-1" d="M4.58,2.63c3.84-1.28,8.67.43,12.8,2.84,4.12,2.42,7.39,7.54,9.1,9.24s4.55,3.27,6.97,4.41l74.51,37.54s.85.43,1.85.57l49.2,5.26s4.55,2.42,8.53,4.55c3.98,2.13,7.39,1,9.81-1.14,0,0,1.99-1.28,4.41-1.85"/>
    </g>
    <polygon class="cls-1" points="183.47 70.89 182.48 76.29 178.35 75.86 179.49 81.69 176.79 84.54 179.91 90.23 178.92 95.34 183.04 98.9 184.18 105.01 188.31 105.44 191.15 111.13 194.14 108.57 198.12 112.12 199.11 107 203.09 107.58 202.1 101.32 204.66 98.47 201.67 93.07 202.53 87.95 198.54 84.25 197.41 77.85 193.42 77.57 190.15 72.02 187.31 74.58 183.47 70.89"/>
    <polyline class="cls-1" points="183.27 76.04 184.04 79.99 181.34 82.83 184.47 88.52 183.47 93.64 187.59 97.19 188.73 103.31 192.85 103.74 195.1 108.23"/>
    <line class="cls-1" x1="182.48" y1="76.29" x2="186.6" y2="74.59"/>
    <line class="cls-1" x1="187.31" y1="74.59" x2="190.72" y2="73.3"/>
    <line class="cls-1" x1="199.11" y1="107.01" x2="202.53" y2="105.73"/>
    <line class="cls-1" x1="194.42" y1="108.43" x2="199.54" y2="106.72"/>
    <line class="cls-1" x1="181.34" y1="82.83" x2="176.79" y2="84.54"/>
    <line class="cls-1" x1="184.04" y1="79.99" x2="179.49" y2="81.41"/>
    <line class="cls-1" x1="184.47" y1="88.52" x2="180.06" y2="89.8"/>
    <line class="cls-1" x1="183.47" y1="93.64" x2="178.92" y2="95.34"/>
    <line class="cls-1" x1="187.59" y1="97.19" x2="183.33" y2="98.62"/>
    <line class="cls-1" x1="188.73" y1="103.31" x2="184.18" y2="105.01"/>
    <line class="cls-1" x1="192.86" y1="104.02" x2="188.59" y2="105.44"/>
    <g>
      <path class="cls-1" d="M178.02,104.05c5.89,11.15,14.98,17.4,22.47,14.79,8.88-3.1,11.81-17.83,6.55-32.91-5.2-14.9-16.47-24.61-25.3-21.86"/>
      <path class="cls-1" d="M200.25,118.97l5.44-1.94c8.32-3.59,10.63-17.59,5.51-32.27-5.2-14.9-17.04-25.13-25.87-22.37l-4.78,1.98"/>
    </g>
    <line class="cls-1" x1="109.22" y1="81.79" x2="108.93" y2="60"/>
    <line class="cls-1" x1="159.06" y1="65.26" x2="159.31" y2="86.8"/>
  </g>
</svg>