<?xml version="1.0" encoding="UTF-8"?>
<svg id="Layer_2" data-name="Layer 2" xmlns="http://www.w3.org/2000/svg" viewBox="0 0 196.03 90.94">
  <defs>
    <style>
      .cls-1 {
        stroke-width: 1.5px;
      }

      .cls-1, .cls-2 {
        fill: none;
        stroke: #231f20;
        stroke-linecap: round;
        stroke-linejoin: round;
      }

      .cls-2 {
        stroke-width: .75px;
      }
    </style>
  </defs>
  <g id="Layer_1-2" data-name="Layer 1">
    <polyline class="cls-2" points="1.92 39.03 2.28 39.69 2.65 40.35 3.05 41.02 3.46 41.68 3.9 42.34 4.35 43.01 4.81 43.68 5.3 44.35 5.8 45.02 6.32 45.69 6.86 46.36 7.42 47.04 7.99 47.71 8.59 48.39 9.2 49.07 9.83 49.75 10.48 50.43 11.14 51.11 11.83 51.8 12.53 52.48 13.25 53.17 13.99 53.86 14.75 54.55 15.53 55.24 16.33 55.93 17.14 56.62 17.98 57.32 18.83 58.01 19.7 58.71 20.6 59.41 21.51 60.11 22.44 60.81"/>
    <polyline class="cls-2" points="32.81 67.84 33.96 68.56 35.15 69.27"/>
    <polyline class="cls-2" points="22.44 60.81 23.39 61.51 24.36 62.21 25.35 62.92 26.35 63.62 27.38 64.32 28.41 65.01 29.46 65.71 29.82 65.95"/>
    <polyline class="cls-2" points="56.92 80.7 57.53 80.97 58.78 81.54 60.04 82.11 61.32 82.68"/>
    <polyline class="cls-2" points="61.32 82.68 61.94 82.94 62.57 83.19 63.22 83.43 63.88 83.66 64.55 83.88 65.24 84.09 65.94 84.28 66.65 84.47 67.38 84.64 68.12 84.8 68.87 84.95 69.62 85.08 70.38 85.21 71.15 85.31 71.92 85.41 72.69 85.49 73.47 85.55 74.25 85.61 75.04 85.65 75.83 85.67 76.62 85.68 77.41 85.68 78.19 85.66 78.97 85.63 79.74 85.59 80.51 85.53 81.28 85.46 82.03 85.37 82.79 85.27 83.54 85.15 84.28 85.02 85.01 84.88"/>
    <polyline class="cls-2" points="85.01 84.88 103.55 81.04 120.53 77.53 135.9 74.36 150.87 71.28 166.77 68.02 184.31 64.43"/>
    <polyline class="cls-2" points="184.31 64.43 184.95 64.29 185.58 64.13 186.18 63.97 186.77 63.79 187.35 63.61 187.9 63.4 188.44 63.19 188.96 62.97 189.43 62.75 189.87 62.52 190.31 62.28 190.71 62.03 191.11 61.78 191.48 61.52 191.83 61.25 192.16 60.97 192.44 60.71 192.71 60.45 192.96 60.17 193.2 59.89 193.41 59.61 193.61 59.33 193.78 59.04 193.94 58.74 194.08 58.45 194.2 58.16 194.29 57.86 194.37 57.56 194.44 57.25 194.48 56.94 194.51 56.63 194.52 56.32 194.5 55.99 194.46 55.65 194.41 55.32 194.33 54.99 194.24 54.65 194.12 54.32 193.98 53.99 193.81 53.66 193.61 53.28 193.37 52.92 193.12 52.55 192.83 52.19 192.53 51.84 192.2 51.49 191.85 51.14 191.47 50.8"/>
    <polyline class="cls-2" points="9.11 30.71 8.72 30.86 8.34 31.01 7.97 31.17 7.61 31.33 7.25 31.49 6.91 31.65 6.57 31.82 6.25 31.99 5.95 32.15 5.67 32.31 5.39 32.47 5.12 32.64 4.85 32.81 4.6 32.98 4.35 33.15 4.12 33.32 3.91 33.48 3.71 33.64 3.52 33.8 3.34 33.97 3.17 34.13 3 34.29 2.84 34.46 2.69 34.63 2.56 34.79 2.43 34.96 2.3 35.12 2.19 35.29 2.08 35.46 1.98 35.63 1.9 35.8 1.82 35.97 1.74 36.15 1.67 36.33 1.62 36.51 1.57 36.7 1.54 36.88 1.51 37.06 1.5 37.24 1.49 37.42 1.5 37.62 1.52 37.83 1.55 38.03 1.6 38.23 1.66 38.43 1.73 38.63 1.82 38.83 1.92 39.03"/>
    <line class="cls-2" x1="1.68" y1="38.5" x2="1.68" y2="38.5"/>
    <line class="cls-2" x1="194.46" y1="57.12" x2="194.46" y2="57.12"/>
    <line class="cls-1" x1=".76" y1="38.34" x2=".87" y2="40.98"/>
    <line class="cls-1" x1="195.27" y1="57.35" x2="195.16" y2="60.09"/>
    <polyline class="cls-1" points="195.16 60.11 195.13 60.45 195.09 60.79 195.02 61.14 194.94 61.48 194.83 61.81 194.71 62.14 194.57 62.47 194.4 62.79 194.22 63.11 194.03 63.42 193.81 63.73 193.57 64.03 193.31 64.33 193.04 64.62 192.75 64.9 192.44 65.18 192.11 65.45 191.77 65.71 191.42 65.96 191.05 66.21 190.67 66.44 190.28 66.66 189.87 66.88 189.45 67.09 189.01 67.29 188.57 67.48 188.11 67.67 187.63 67.84 187.15 68.01 186.66 68.17 186.15 68.32 185.71 68.44 185.25 68.55 184.78 68.66 184.31 68.76"/>
    <polyline class="cls-1" points="184.31 68.76 165.82 72.58 147.04 76.47 131.86 79.62 116.49 82.82 100.93 86.07 85.18 89.36"/>
    <polyline class="cls-1" points="85.18 89.36 84.52 89.49 83.86 89.61 83.19 89.72 82.51 89.82 81.82 89.91 81.12 89.98 80.43 90.05 79.73 90.1 79.03 90.14 78.32 90.17 77.61 90.19 76.9 90.19 76.2 90.19 75.49 90.17 74.77 90.15 74.06 90.11 73.35 90.06 72.65 90 71.94 89.92 71.24 89.84 70.55 89.75 69.86 89.64 69.18 89.53 68.5 89.4 67.83 89.26 67.16 89.12 66.51 88.96 65.86 88.79 65.21 88.62 64.59 88.43 63.97 88.23 63.36 88.03 62.77 87.82 62.16 87.59 61.58 87.35 61.01 87.1"/>
    <polyline class="cls-1" points="61.01 87.1 59.47 86.41 57.94 85.72 56.44 85.02"/>
    <polyline class="cls-1" points="29.95 70.53 28.82 69.79 27.71 69.04 26.63 68.3 25.56 67.56 24.51 66.81 23.48 66.07 22.47 65.32 21.49 64.58 20.52 63.84 19.57 63.09 18.64 62.35 17.73 61.61 16.85 60.86 15.98 60.12 15.13 59.38 14.31 58.64 13.5 57.9 12.72 57.16 11.96 56.42 11.21 55.69 10.49 54.95 9.78 54.22 9.1 53.48 8.44 52.75 7.8 52.02 7.17 51.29 6.57 50.56 5.99 49.84 5.43 49.11 4.9 48.41 4.4 47.7 3.91 47 3.44 46.3 2.99 45.6 2.55 44.9 2.14 44.21 1.75 43.51 1.38 42.82"/>
    <polyline class="cls-1" points="35.01 73.7 34.67 73.49 33.46 72.75 32.27 72.01"/>
    <polyline class="cls-1" points="1.38 42.82 1.25 42.57 1.15 42.32 1.06 42.06 .98 41.8 .93 41.53 .89 41.27 .87 41"/>
    <polyline class="cls-1" points="191.95 50.89 192.28 51.19 192.6 51.5 192.91 51.81 193.19 52.13 193.46 52.46 193.72 52.78 193.95 53.12 194.17 53.45 194.37 53.79 194.55 54.14 194.71 54.48 194.85 54.83 194.98 55.18 195.08 55.54 195.16 55.9 195.22 56.26 195.26 56.62 195.28 56.98 195.27 57.33"/>
    <polyline class="cls-1" points="108.38 2.33 110.28 3.01 112.17 3.7 114.06 4.41 115.95 5.13 117.83 5.86 119.72 6.62 121.59 7.38 123.47 8.17 125.34 8.96 127.2 9.78 129.06 10.61 130.92 11.45 132.77 12.31 134.63 13.19 136.49 14.09 138.34 15.01 140.19 15.94 142.04 16.89 143.88 17.85 145.71 18.84 147.54 19.83 149.37 20.85 151.19 21.88 153.01 22.93 154.82 24 156.62 25.08 158.42 26.18 160.21 27.3 161.99 28.43 163.77 29.58 165.54 30.75 167.31 31.94 169.07 33.14 170.83 34.36 172.58 35.6 174.33 36.86 176.07 38.13 177.8 39.43 179.53 40.74 181.1 41.96 182.66 43.19 184.22 44.43 185.78 45.69 187.33 46.97 188.87 48.26 190.41 49.57 191.95 50.89"/>
    <polyline class="cls-1" points="82.39 3.1 82.79 2.96 83.21 2.82 83.64 2.67 84.08 2.54 84.53 2.4 84.99 2.27 85.45 2.15 85.93 2.04 86.41 1.92 86.91 1.81 87.4 1.71 87.9 1.61 88.4 1.52 88.9 1.43 89.41 1.35 89.94 1.27 90.45 1.2 90.99 1.13 91.52 1.07 92.04 1.01 92.57 .96 93.11 .91 93.65 .88 94.18 .84 94.71 .81 95.24 .79 95.78 .77 96.32 .76 96.85 .75 97.38 .75 97.91 .75 98.44 .76 98.95 .78 99.48 .8 99.99 .82 100.51 .86 101.01 .9 101.52 .95 102.02 .99 102.51 1.05 102.99 1.11 103.47 1.18 103.94 1.25 104.41 1.33 104.89 1.42 105.36 1.51 105.82 1.61 106.28 1.71 106.72 1.83 107.15 1.95 107.57 2.07 107.99 2.2 108.38 2.33"/>
    <polyline class="cls-1" points="8.89 30.7 23.76 25.1 30.32 22.63"/>
    <line class="cls-1" x1="78.8" y1="4.45" x2="82.39" y2="3.1"/>
    <polyline class="cls-1" points=".76 38.32 .75 38.05 .77 37.77 .81 37.49 .86 37.22 .93 36.94 1.02 36.67 1.13 36.41 1.26 36.14 1.4 35.88 1.56 35.63 1.74 35.36 1.94 35.09 2.16 34.83 2.4 34.57 2.65 34.31 2.92 34.06 3.21 33.81 3.51 33.57 3.82 33.33 4.15 33.1 4.51 32.86 4.88 32.62 5.27 32.39 5.68 32.16 6.1 31.94 6.53 31.72 6.98 31.51 7.44 31.3 7.91 31.09 8.4 30.89 8.89 30.7"/>
  </g>
</svg>