<?xml version="1.0" encoding="UTF-8"?>
<svg id="Layer_2" data-name="Layer 2" xmlns="http://www.w3.org/2000/svg" viewBox="0 0 51.9 39.42">
  <defs>
    <style>
      .cls-1 {
        fill: none;
        stroke: #231f20;
        stroke-linecap: round;
        stroke-linejoin: round;
        stroke-width: .75px;
      }
    </style>
  </defs>
  <g id="Layer_1-2" data-name="Layer 1">
    <path class="cls-1" d="M47.07,21.04c2.81,1.85,4.45,4.09,4.45,6.49,0,6.36-11.45,11.51-25.57,11.51S.38,33.89.38,27.53c0-2.33,1.54-4.5,4.18-6.31"/>
    <path class="cls-1" d="M4.74,23.37v-13.88l1.98-2.77L13.46,1.76l5.55-1.39h13.08l6.54,1.59,5.95,4.76,2.18,3.17v13.68c-4.56-1.78-10.7,7.73-10.7,7.73-2.97-2.97-17.64-2.58-21.01-.2-1.19-4.56-7.53-8.72-10.31-7.73Z"/>
    <polyline class="cls-1" points="15.05 31.1 15.05 17.82 12.87 14.25 6.72 9.69 4.74 9.49"/>
    <polyline class="cls-1" points="15.05 17.82 19.61 15.84 31.9 15.84 36.06 17.62 38.64 14.05 44.58 9.69 46.76 9.89"/>
    <g>
      <path class="cls-1" d="M37.46,8.3c0,2.88-5.2,5.21-11.61,5.21s-11.61-2.33-11.61-5.21,5.2-5.21,11.61-5.21,11.61,2.33,11.61,5.21Z"/>
      <path class="cls-1" d="M15.15,10.04c1.76-1.87,5.89-3.18,10.7-3.18,4.45,0,8.31,1.12,10.26,2.77"/>
      <path class="cls-1" d="M16.52,11.08c2.18-1.21,5.73-1.86,9.69-1.59,3.2.22,6.05,1,8.08,2.09"/>
      <path class="cls-1" d="M19.2,12.23c1.98-.52,4.41-.74,7.01-.56,1.98.14,3.82.49,5.42.99"/>
    </g>
    <line class="cls-1" x1="36.06" y1="17.62" x2="36.06" y2="30.51"/>
  </g>
</svg>