<?xml version="1.0" encoding="UTF-8"?>
<svg id="Layer_2" data-name="Layer 2" xmlns="http://www.w3.org/2000/svg" viewBox="0 0 24.4 202.54">
  <defs>
    <style>
      .cls-1 {
        fill: none;
        stroke: #231f20;
        stroke-linecap: round;
        stroke-linejoin: round;
        stroke-width: .75px;
      }
    </style>
  </defs>
  <g id="Layer_1-2" data-name="Layer 1">
    <polygon class="cls-1" points="12.43 1.11 6.22 2.59 6.05 5.22 12.17 6.88 17.95 5.48 18.12 2.68 12.43 1.11"/>
    <line class="cls-1" x1="12.43" y1="1.11" x2="12.43" y2="6.18"/>
    <g>
      <path class="cls-1" d="M21.14,4.08c0,2.05-3.96,3.71-8.83,3.71S3.47,6.13,3.47,4.08,7.43.38,12.3.38s8.83,1.66,8.83,3.71Z"/>
      <path class="cls-1" d="M21,3.12c1.88.87,3.03,2.03,3.03,3.3,0,2.72-5.25,4.92-11.72,4.92S.59,9.13.59,6.42c0-1.26,1.12-2.4,2.96-3.27"/>
      <path class="cls-1" d="M19.8,127.5v4.33c-.5,2.17-1.83,3.67-4.33,4.67"/>
      <path class="cls-1" d="M8.8,137.83c-3.17,0-3.83-.83-3.83-2v-6.17"/>
      <path class="cls-1" d="M19.97,128.67c4,2.67,4.5,5.67,1.17,8.33-3.33,2.67-10.83,4.67-15.67,4-4.83-.67-5.83-3.67-.83-4.67"/>
      <path class="cls-1" d="M19.8,117.96v2.62c-.5,2.17-1.83,3.67-4.33,4.67"/>
      <path class="cls-1" d="M8.8,126.58c-3.17,0-3.83-.83-3.83-2v-6.17"/>
      <path class="cls-1" d="M20.5,117.79c3.51,2.57,3.82,5.42.64,7.96-3.33,2.67-10.83,4.67-15.67,4-4.83-.67-5.83-3.67-.83-4.67"/>
      <path class="cls-1" d="M19.8,138.16v4.33c-.5,2.17-1.83,3.67-4.33,4.67"/>
      <path class="cls-1" d="M8.8,148.5c-3.17,0-3.83-.83-3.83-2v-5.6"/>
      <path class="cls-1" d="M19.97,139.33c4,2.67,4.5,5.67,1.17,8.33-3.33,2.67-10.83,4.67-15.67,4-4.83-.67-5.83-3.67-.83-4.67"/>
      <path class="cls-1" d="M19.8,148.83v4.33c-.5,2.17-1.83,3.67-4.33,4.67"/>
      <path class="cls-1" d="M8.8,159.17c-3.17,0-3.83-.83-3.83-2v-5.32"/>
      <path class="cls-1" d="M19.97,150c4,2.67,4.5,5.67,1.17,8.33-3.33,2.67-10.83,4.67-15.67,4-4.83-.67-5.83-3.67-.83-4.67"/>
      <path class="cls-1" d="M19.8,159.44v4.33c-.5,2.17-1.83,3.67-4.33,4.67"/>
      <path class="cls-1" d="M8.8,169.77c-3.17,0-3.83-.84-3.83-2v-5.32"/>
      <path class="cls-1" d="M19.97,160.6c4,2.67,4.5,5.67,1.17,8.33-3.33,2.67-10.83,4.67-15.67,4-4.83-.67-5.83-3.67-.83-4.67"/>
      <path class="cls-1" d="M19.8,169.83v4.33c-.5,2.17-1.83,3.67-4.33,4.67"/>
      <path class="cls-1" d="M8.8,180.17c-3.17,0-3.83-.83-3.83-2v-5.32"/>
      <path class="cls-1" d="M19.97,171c4,2.67,4.5,5.67,1.17,8.33-3.33,2.67-10.83,4.67-15.67,4-4.83-.67-5.83-3.67-.83-4.67"/>
      <path class="cls-1" d="M19.8,180.33v4.33c-.5,2.17-1.83,3.95-4.33,4.95"/>
      <path class="cls-1" d="M8.8,191.37c-3.17,0-3.83-.83-3.83-2v-6.02"/>
      <path class="cls-1" d="M19.97,181.5c4,2.67,4.5,5.67,1.17,8.33-3.5,2.34-9.33,3.84-14,3.34-4.67-.5-4-2.33-2.17-3"/>
      <path class="cls-1" d="M5.47,193.05l5.5,8.62c1,.83,2,.5,2.83-.17.83-.67,5.67-8.33,5.67-8.33v-2"/>
      <path class="cls-1" d="M19.53,81.26c1.32-.44,2.53-1.19,3.51-2.17M4.2,81.26c2.47.82,5.06,1.25,7.67,1.25s5.19-.42,7.66-1.25M2.67,80.58c.49.27,1,.5,1.53.68M23.04,79.09c.41-.4.64-.96.64-1.53,0-.22-.04-.43-.1-.64M23.39,8.64c.3-.38.46-.85.46-1.34M20.17,11.22c1.26-.6,2.37-1.48,3.22-2.58M4.95,13.06c1.6.33,3.22.49,4.84.49,3.59,0,7.13-.8,10.37-2.33M1.2,11.33c1.1.86,2.38,1.45,3.75,1.73M.84,8.29c-.3.38-.46.85-.46,1.34,0,.66.31,1.29.83,1.7M23.02,9.29s-.07-.06-.11-.09M23.39,12.33c.3-.38.46-.85.46-1.33,0-.67-.31-1.3-.83-1.71M20.17,14.91c1.26-.6,2.37-1.48,3.22-2.58M4.95,16.75c1.6.33,3.22.49,4.84.49,3.59,0,7.13-.8,10.37-2.33M1.2,15.02c1.1.86,2.38,1.46,3.75,1.73M1.32,11.41c-.17.18-.33.37-.48.56M.84,11.98c-.3.38-.46.85-.46,1.34,0,.67.31,1.29.83,1.7M23.02,12.98s-.07-.06-.11-.09M23.39,16.02c.3-.38.46-.85.46-1.34,0-.67-.31-1.29-.83-1.7M20.17,18.6c1.26-.6,2.37-1.48,3.22-2.58M4.95,20.44c1.6.32,3.22.49,4.84.49,3.59,0,7.13-.79,10.37-2.33M1.2,18.71c1.1.86,2.38,1.45,3.75,1.73M1.32,15.11c-.17.18-.33.37-.48.56M.84,15.67c-.3.38-.46.85-.46,1.34,0,.67.31,1.3.83,1.71M23.02,16.67s-.07-.06-.11-.09M23.39,19.71c.3-.38.46-.85.46-1.34,0-.66-.31-1.29-.83-1.7M20.17,22.29c1.26-.6,2.37-1.48,3.22-2.58M4.95,24.13c1.6.33,3.22.49,4.84.49,3.59,0,7.13-.8,10.37-2.33M1.2,22.4c1.1.86,2.38,1.45,3.75,1.73M1.32,18.8c-.17.18-.33.37-.48.56M.84,19.36c-.3.38-.46.85-.46,1.34,0,.67.31,1.3.83,1.71M23.02,20.36s-.07-.06-.11-.09M23.39,23.4c.3-.38.46-.85.46-1.34,0-.67-.31-1.29-.83-1.7M20.17,25.98c1.26-.6,2.37-1.48,3.22-2.58M4.95,27.83c1.6.32,3.22.49,4.84.49,3.59,0,7.13-.8,10.37-2.33M1.2,26.09c1.1.86,2.38,1.45,3.75,1.73M1.32,22.49c-.17.18-.33.37-.48.56M.84,23.05c-.3.38-.46.85-.46,1.34,0,.66.31,1.29.83,1.71M23.02,24.05s-.07-.06-.11-.09M23.39,27.1c.3-.38.46-.85.46-1.34,0-.67-.31-1.3-.83-1.71M20.17,29.67c1.26-.6,2.37-1.48,3.22-2.58M4.95,31.51c1.6.33,3.22.49,4.84.49,3.59,0,7.13-.8,10.37-2.33M1.2,29.78c1.1.86,2.38,1.45,3.75,1.73M1.32,26.18c-.17.18-.33.37-.48.56M.84,26.74c-.3.38-.46.85-.46,1.34,0,.66.31,1.29.83,1.7M.84,41.5c-.3.38-.46.85-.46,1.34,0,.67.31,1.29.83,1.7M1.32,40.94c-.17.18-.33.37-.48.56M1.2,44.55c1.1.86,2.38,1.45,3.75,1.73M4.95,46.28c1.6.32,3.22.49,4.84.49,3.59,0,7.13-.79,10.37-2.33M20.17,44.43c1.26-.6,2.37-1.48,3.22-2.58M23.39,41.85c.3-.38.46-.85.46-1.34,0-.66-.31-1.29-.83-1.7M.84,45.4c-.3.38-.46.85-.46,1.34,0,.67.31,1.29.83,1.7M1.32,44.84c-.17.18-.33.37-.48.56M1.2,48.44c1.1.86,2.38,1.45,3.75,1.73M4.95,50.17c1.6.33,3.22.49,4.84.49,3.59,0,7.13-.8,10.37-2.33M20.17,48.33c1.26-.6,2.37-1.48,3.22-2.58M23.39,45.75c.3-.38.46-.85.46-1.34,0-.66-.31-1.29-.83-1.7M.84,49.3c-.3.38-.46.85-.46,1.34,0,.67.31,1.29.83,1.71M1.32,48.73c-.17.18-.33.37-.48.56M1.2,52.34c1.1.86,2.38,1.45,3.75,1.73M4.95,54.07c1.6.33,3.22.49,4.84.49,3.59,0,7.13-.8,10.37-2.33M20.17,52.23c1.26-.6,2.37-1.48,3.22-2.58M23.39,49.65c.3-.38.46-.85.46-1.34,0-.66-.31-1.29-.83-1.7M.84,53.19c-.3.38-.46.85-.46,1.34,0,.67.31,1.29.83,1.71M1.32,52.63c-.17.18-.33.37-.48.56M1.2,56.24c1.1.86,2.38,1.45,3.75,1.73M4.95,57.97c1.6.32,3.22.49,4.84.49,3.59,0,7.13-.8,10.37-2.33M20.17,56.12c1.26-.6,2.37-1.48,3.22-2.58M23.39,53.55c.3-.38.46-.85.46-1.34,0-.66-.31-1.29-.83-1.71M.84,57.09c-.3.38-.46.85-.46,1.34,0,.67.31,1.29.83,1.7M1.32,56.53c-.17.18-.33.37-.48.56M1.2,60.13c1.1.86,2.38,1.45,3.75,1.73M4.95,61.86c1.6.33,3.22.49,4.84.49,3.59,0,7.13-.8,10.37-2.33M20.17,60.02c1.26-.6,2.37-1.48,3.22-2.58M23.39,57.44c.3-.38.46-.85.46-1.34,0-.66-.31-1.29-.83-1.71M.84,60.99c-.3.38-.46.85-.46,1.34,0,.67.31,1.3.83,1.71M1.32,60.42c-.17.18-.33.37-.48.56M1.2,64.03c1.1.86,2.38,1.45,3.75,1.73M4.95,65.76c1.6.33,3.22.49,4.84.49,3.59,0,7.13-.8,10.37-2.33M20.17,63.92c1.26-.6,2.37-1.48,3.22-2.58M23.39,61.34c.3-.38.46-.85.46-1.34,0-.66-.31-1.29-.83-1.7M.84,64.88c-.3.38-.46.85-.46,1.34,0,.67.31,1.29.83,1.71M1.32,64.32c-.17.18-.33.37-.48.56M1.2,67.93c1.1.86,2.38,1.45,3.75,1.73M4.95,69.66c1.6.33,3.22.49,4.84.49,3.59,0,7.13-.8,10.37-2.33M20.17,67.81c1.26-.6,2.37-1.48,3.22-2.58M23.39,65.24c.3-.38.46-.85.46-1.34,0-.66-.31-1.29-.83-1.71M.84,68.78c-.3.38-.46.85-.46,1.34,0,.67.31,1.29.83,1.7M1.32,68.22c-.17.18-.33.37-.48.56M1.2,71.82c1.1.86,2.38,1.45,3.75,1.73M4.95,73.55c1.6.32,3.22.49,4.84.49,3.59,0,7.13-.79,10.37-2.33M20.17,71.71c1.26-.6,2.37-1.48,3.22-2.58M23.39,69.13c.3-.38.46-.85.46-1.34,0-.66-.31-1.29-.83-1.7M.84,72.68c-.3.38-.46.85-.46,1.34,0,.67.31,1.29.83,1.7M1.32,72.12c-.17.18-.33.37-.48.56M1.2,75.72c1.1.86,2.38,1.45,3.75,1.73M4.95,77.45c1.6.32,3.22.49,4.84.49,3.59,0,7.13-.8,10.37-2.33M20.17,75.61c1.26-.6,2.37-1.48,3.22-2.58M23.39,73.03c.3-.38.46-.85.46-1.34,0-.66-.31-1.29-.83-1.7M.84,76.57c-.3.38-.46.85-.46,1.34,0,.67.31,1.29.83,1.7M1.32,76.01c-.17.18-.33.37-.48.56M1.2,79.62c1.1.86,2.38,1.45,3.75,1.73M4.95,81.35c1.6.33,3.22.49,4.84.49,3.59,0,7.13-.8,10.37-2.33M20.17,79.51c1.26-.6,2.37-1.48,3.22-2.58M23.39,76.93c.3-.38.46-.85.46-1.34,0-.66-.31-1.3-.83-1.7M23.02,38.81s-.07-.06-.11-.08M.84,37.81c-.3.38-.46.86-.46,1.34,0,.67.31,1.3.83,1.71M1.32,37.25c-.17.18-.33.37-.48.56M1.2,40.85c1.1.86,2.38,1.45,3.75,1.73M4.95,42.59c1.6.33,3.22.49,4.84.49,3.59,0,7.13-.8,10.37-2.33M20.17,40.74c1.26-.6,2.37-1.48,3.22-2.58M23.39,38.17c.3-.38.46-.85.46-1.34,0-.66-.31-1.29-.83-1.7M23.02,35.12s-.07-.06-.11-.09M.84,34.12c-.3.38-.46.85-.46,1.34,0,.67.31,1.3.83,1.71M1.32,33.56c-.17.18-.33.37-.48.56M1.2,37.16c1.1.86,2.38,1.45,3.75,1.73M4.95,38.9c1.6.33,3.22.49,4.84.49,3.59,0,7.13-.8,10.37-2.33M20.17,37.05c1.26-.6,2.37-1.48,3.22-2.58M23.39,34.47c.3-.38.46-.85.46-1.34,0-.66-.31-1.29-.83-1.71M23.02,31.43s-.07-.06-.11-.09M.84,30.43c-.3.38-.46.85-.46,1.34,0,.67.31,1.29.83,1.7M1.32,29.87c-.17.18-.33.37-.48.56M1.2,33.47c1.1.86,2.38,1.46,3.75,1.74M4.95,35.21c1.6.33,3.22.49,4.84.49,3.59,0,7.13-.8,10.37-2.33M20.17,33.36c1.26-.6,2.37-1.48,3.22-2.58M23.39,30.78c.3-.38.46-.85.46-1.34,0-.67-.31-1.3-.83-1.71M23.02,27.74s-.07-.06-.11-.09"/>
      <path class="cls-1" d="M2.89,117.4c2.13,1.12,5.4,1.83,9.05,1.83,2.73,0,5.24-.4,7.85-1.06l2.17-6.79v-20.37"/>
      <path class="cls-1" d="M2.85,91.25c-1.44-.81-2.29-1.82-2.29-2.91v-9.09"/>
      <path class="cls-1" d="M2.85,91.25c2.08,1.17,5.38,1.92,9.09,1.92,6.29,0,11.38-2.16,11.38-4.83v-9.84"/>
    </g>
    <line class="cls-1" x1="2.86" y1="117.01" x2="2.86" y2="91.39"/>
    <line class="cls-1" x1="19.52" y1="118" x2="19.52" y2="92.25"/>
  </g>
</svg>