<?xml version="1.0" encoding="UTF-8"?>
<svg id="Layer_2" data-name="Layer 2" xmlns="http://www.w3.org/2000/svg" viewBox="0 0 112.7 94.52">
  <defs>
    <style>
      .cls-1 {
        fill: none;
        stroke: #231f20;
        stroke-linecap: round;
        stroke-linejoin: round;
        stroke-width: .75px;
      }
    </style>
  </defs>
  <g id="Layer_1-2" data-name="Layer 1">
    <polyline class="cls-1" points="111.35 19.92 110.77 18.72 109.86 17.28 108.74 15.87 107.41 14.49 105.89 13.14 104.18 11.85 102.28 10.6 100.21 9.41 97.97 8.28 95.58 7.21 93.03 6.21 90.35 5.27 87.54 4.42 84.61 3.63 81.58 2.93 78.45 2.31 75.26 1.77"/>
    <polyline class="cls-1" points="75.26 1.77 73.54 1.52 70.22 1.12 66.85 .8 63.44 .57 60 .42 56.55 .38 53.1 .41 49.66 .54 46.24 .76 42.87 1.07 39.55 1.47 36.28 1.96 33.1 2.53 30 3.18 27.01 3.91 24.12 4.72 21.36 5.61 18.73 6.57 16.24 7.59 13.9 8.68 11.72 9.84 9.71 11.05 7.88 12.31 6.24 13.63 4.78 14.99 3.52 16.39 2.47 17.83 1.63 19.3 1.37 19.91"/>
    <line class="cls-1" x1="112.33" y1="39.48" x2="112.33" y2="24.4"/>
    <line class="cls-1" x1=".38" y1="24.4" x2=".38" y2="39.48"/>
    <line class="cls-1" x1="46.02" y1="45.28" x2="45.12" y2="45.2"/>
    <line class="cls-1" x1="38.73" y1="14.06" x2="32.83" y2="11.62"/>
    <line class="cls-1" x1="33.86" y1="10.34" x2="22.35" y2="7.53"/>
    <line class="cls-1" x1=".38" y1="62.67" x2=".38" y2="70.49"/>
    <line class="cls-1" x1="112.33" y1="70.49" x2="112.33" y2="62.67"/>
    <g>
      <path class="cls-1" d="M111.35,28.8c1.27-2.75,1.28-5.91.05-8.68"/>
      <path class="cls-1" d="M1.3,20.12c-1.24,2.77-1.22,5.93.05,8.68"/>
    </g>
    <polyline class="cls-1" points=".38 39.48 .43 40.56 .72 42.1 1.25 43.64 2.01 45.15 3 46.64 4.23 48.1 5.67 49.52 7.33 50.9 9.21 52.23 11.28 53.51 13.55 54.72 16 55.87 18.63 56.95 21.41 57.96 24.35 58.88 27.42 59.73 30.62 60.48 33.92 61.15 37.32 61.72 40.81 62.2 44.36 62.58 47.96 62.87 51.6 63.05 55.26 63.13 58.92 63.11 62.57 62.99 66.2 62.76 69.78 62.44 73.3 62.02 76.76 61.51 80.12 60.89 83.39 60.19 86.54 59.4 89.55 58.52 92.43 57.56 95.15 56.53 97.71 55.42 100.09 54.24 102.28 53 104.27 51.7 106.06 50.35 107.64 48.95 109 47.52 110.13 46.04 111.03 44.54 111.7 43.02 112.13 41.48 112.32 39.94 112.33 39.48"/>
    <line class="cls-1" x1="36.42" y1="14.73" x2="38.23" y2="13.97"/>
    <line class="cls-1" x1="29.65" y1="11.86" x2="36.42" y2="14.73"/>
    <line class="cls-1" x1="27.73" y1="12.67" x2="29.65" y2="11.86"/>
    <line class="cls-1" x1="20.71" y1="7.93" x2="27.73" y2="12.67"/>
    <path class="cls-1" d="M20.71,7.93c-1.06.42-2.1.88-3.13,1.37"/>
    <polyline class="cls-1" points="17.85 13.36 17.01 12.93 16.38 12.44 15.97 11.91 15.81 11.35 15.89 10.79 16.23 10.25 16.8 9.74 17.58 9.29"/>
    <line class="cls-1" x1="33.18" y1="19.87" x2="17.85" y2="13.36"/>
    <path class="cls-1" d="M33.18,19.87c3.43,1.58,7.45,1.13,10.44-1.17"/>
    <line class="cls-1" x1="52.25" y1="5.22" x2="43.62" y2="18.7"/>
    <polyline class="cls-1" points="45.9 2.37 47.13 2.32 48.34 2.39 49.49 2.58 50.51 2.87 51.36 3.25 51.98 3.69 52.34 4.19 52.43 4.71 52.25 5.22"/>
    <path class="cls-1" d="M45.9,2.37c-8.21.62-16.31,2.34-24.06,5.11"/>
    <line class="cls-1" x1="67.86" y1="22.53" x2="64.75" y2="27.39"/>
    <line class="cls-1" x1="59.46" y1="18.96" x2="67.86" y2="22.53"/>
    <line class="cls-1" x1="47.95" y1="20.25" x2="59.46" y2="18.96"/>
    <line class="cls-1" x1="44.84" y1="25.11" x2="47.95" y2="20.25"/>
    <line class="cls-1" x1="53.24" y1="28.68" x2="44.84" y2="25.11"/>
    <line class="cls-1" x1="64.75" y1="27.39" x2="53.24" y2="28.68"/>
    <path class="cls-1" d="M45.97,45.28c2.92.56,5.93-.22,8.2-2.14"/>
    <line class="cls-1" x1="59.85" y1="34.28" x2="54.17" y2="43.14"/>
    <polyline class="cls-1" points="52.22 31.04 53.51 30.96 54.81 30.99 56.07 31.13 57.23 31.38 58.25 31.73 59.06 32.16 59.65 32.65 59.99 33.18 60.05 33.73 59.85 34.28"/>
    <line class="cls-1" x1="20.29" y1="34.62" x2="52.22" y2="31.04"/>
    <polyline class="cls-1" points="17.62 38.37 16.92 37.94 16.45 37.46 16.25 36.95 16.34 36.43 16.69 35.94 17.3 35.49 18.13 35.1 19.15 34.81 20.29 34.62"/>
    <path class="cls-1" d="M23.51,40.76c6.98,2.33,14.21,3.82,21.54,4.43"/>
    <line class="cls-1" x1="79.68" y1="27.53" x2="95.18" y2="34.12"/>
    <path class="cls-1" d="M79.68,27.53c-3.43-1.58-7.45-1.13-10.44,1.17"/>
    <line class="cls-1" x1="60.46" y1="42.42" x2="69.23" y2="28.7"/>
    <polyline class="cls-1" points="66.8 45.27 65.58 45.32 64.36 45.25 63.21 45.06 62.19 44.77 61.35 44.4 60.73 43.95 60.36 43.45 60.27 42.93 60.46 42.42"/>
    <path class="cls-1" d="M68.14,45.15c6.47-.6,12.86-1.85,19.08-3.74"/>
    <polyline class="cls-1" points="95.18 34.12 96.02 34.55 96.65 35.03 97.06 35.56 97.23 36.11 97.15 36.67 96.83 37.21 96.28 37.71 95.51 38.16"/>
    <g>
      <path class="cls-1" d="M95.08,9.27c-9.16-4-18.95-6.36-28.92-6.95"/>
      <path class="cls-1" d="M66.16,2.32c-2.89-.55-5.88.24-8.13,2.14"/>
    </g>
    <line class="cls-1" x1="52.3" y1="13.43" x2="58.04" y2="4.46"/>
    <polyline class="cls-1" points="59.92 16.66 58.63 16.75 57.33 16.72 56.07 16.57 54.91 16.32 53.9 15.98 53.08 15.55 52.49 15.06 52.16 14.52 52.09 13.97 52.3 13.43"/>
    <line class="cls-1" x1="92.41" y1="13.02" x2="59.92" y2="16.66"/>
    <polyline class="cls-1" points="95.08 9.27 95.79 9.7 96.25 10.18 96.45 10.69 96.37 11.21 96.02 11.7 95.4 12.16 94.57 12.54 93.56 12.83 92.41 13.02"/>
    <g>
      <path class="cls-1" d="M105.53,30.72c3.45-3.96,3.44-9.87-.02-13.83"/>
      <path class="cls-1" d="M105.51,16.89c-2.42-1.83-5.51-2.53-8.48-1.93"/>
    </g>
    <line class="cls-1" x1="76.03" y1="17.31" x2="97.03" y2="14.96"/>
    <polyline class="cls-1" points="73.21 21.72 72.39 21.29 71.8 20.8 71.47 20.27 71.4 19.72 71.61 19.17 72.08 18.66 72.79 18.2 73.72 17.81 74.81 17.51 76.03 17.31"/>
    <line class="cls-1" x1="96.52" y1="31.62" x2="73.21" y2="21.72"/>
    <path class="cls-1" d="M96.52,31.62c2.96,1.29,6.37.95,9.02-.9"/>
    <line class="cls-1" x1="16.19" y1="16.02" x2="39.9" y2="26.09"/>
    <g>
      <path class="cls-1" d="M16.19,16.02c-2.96-1.28-6.37-.94-9.02.9"/>
      <path class="cls-1" d="M7.17,16.92c-3.52,4.06-3.43,10.11.21,14.06"/>
      <path class="cls-1" d="M7.38,30.98c2.42,1.8,5.49,2.49,8.45,1.9"/>
    </g>
    <line class="cls-1" x1="37.08" y1="30.5" x2="15.84" y2="32.88"/>
    <polyline class="cls-1" points="39.9 26.09 40.72 26.52 41.31 27.01 41.64 27.55 41.71 28.1 41.5 28.64 41.03 29.16 40.32 29.62 39.4 30.01 38.3 30.3 37.08 30.5"/>
    <g>
      <path class="cls-1" d="M78.77,39.51c-2.72-1.26-5.92-.9-8.3.93"/>
      <path class="cls-1" d="M15.28,28c-2.26-.98-4.87-.72-6.89.69"/>
      <path class="cls-1" d="M104.3,28.66c-1.98-1.5-4.51-2.07-6.94-1.58"/>
      <path class="cls-1" d="M48.47,21.03c-.01-.32-.24-.66-.52-.78"/>
    </g>
    <line class="cls-1" x1="48.64" y1="26.61" x2="48.47" y2="21.03"/>
    <path class="cls-1" d="M59.46,18.96c-.1.16-.19.54-.19.86"/>
    <line class="cls-1" x1="59.18" y1="27.95" x2="59.27" y2="19.82"/>
    <g>
      <path class="cls-1" d="M45.34,14.57c-2.08.2-4.14.45-6.21.77"/>
      <path class="cls-1" d="M39.14,14.55c0-.32-.4-.58-.9-.58"/>
      <path class="cls-1" d="M36.42,14.73c0,.21,0,.64,0,.96"/>
    </g>
    <line class="cls-1" x1="39.14" y1="14.55" x2="39.14" y2="20.49"/>
    <line class="cls-1" x1="36.42" y1="15.69" x2="36.42" y2="20.53"/>
    <path class="cls-1" d="M29.65,11.86c0,.21,0,.64,0,.96"/>
    <line class="cls-1" x1="29.65" y1="12.82" x2="29.65" y2="18.26"/>
    <line class="cls-1" x1="27.67" y1="12.79" x2="27.67" y2="17.39"/>
    <line class="cls-1" x1="20.58" y1="7.98" x2="20.58" y2="14.47"/>
    <path class="cls-1" d="M34.41,10.82c0-.32-.09-.36-.58-.48"/>
    <line class="cls-1" x1="34.41" y1="10.82" x2="34.41" y2="12.23"/>
    <g>
      <path class="cls-1" d="M21.84,7.48s0,0,0,0c.64.02-.21-.04.43.03.11.04-.04-.01.07.02"/>
      <path class="cls-1" d="M66.04,13.6c-2.63-.5-5.34.22-7.39,1.95"/>
    </g>
    <polyline class="cls-1" points="106.15 51.89 107.09 52.67 108.52 54.09 109.74 55.55 110.73 57.04 111.48 58.56 112 60.09 112.28 61.64 112.32 63.18 112.12 64.73 111.68 66.27 111 67.79 110.09 69.29 108.95 70.76 107.59 72.2 106 73.59 104.21 74.94 102.21 76.24 100.01 77.48 97.62 78.65 95.06 79.76 92.33 80.79 89.45 81.74 86.43 82.62 83.28 83.41 80.01 84.11 76.64 84.72 73.18 85.23 69.66 85.65 66.07 85.97 62.45 86.18 58.79 86.3 55.13 86.32 51.47 86.24 47.84 86.05 44.24 85.76 40.69 85.38 37.21 84.9 33.81 84.32 30.5 83.65 27.31 82.89 24.24 82.04 21.31 81.12 18.54 80.11 15.92 79.03 13.47 77.87 11.21 76.66 9.14 75.38 7.27 74.04 5.62 72.66 4.18 71.24 2.96 69.78 1.98 68.29 1.23 66.77 .71 65.24 .43 63.7 .39 62.15 .59 60.6 1.03 59.07 1.7 57.55 2.61 56.05 3.75 54.58 4.86 53.39"/>
    <g>
      <path class="cls-1" d="M22.25,62.15c-.13-1.38-.01.46-.06-.92.48-2.06-.28.69.38-1.37"/>
      <path class="cls-1" d="M11.7,54.57c-.37,1.32-.5,2.67-.64,4.03"/>
    </g>
    <line class="cls-1" x1="48.45" y1="71.84" x2="49.52" y2="70.61"/>
    <polyline class="cls-1" points="49.46 70.24 50.21 70.35 52.26 70.59 54.37 70.74 56.5 70.78 58.63 70.72 60.73 70.56 62.78 70.31 64.74 69.96 66.61 69.52 68.34 69 69.93 68.4 71.35 67.73 72.59 66.99 73.63 66.2 74.45 65.37 75.05 64.51 75.41 63.62 75.48 63.16"/>
    <g>
      <path class="cls-1" d="M.38,70.49c.01,1.53.35,3.03.98,4.42"/>
      <path class="cls-1" d="M111.41,74.76c.6-1.34.91-2.79.92-4.26"/>
      <path class="cls-1" d="M47.54,68.26c-.11.17.04-.07-.07.12-.1.24.03-.1-.07.17-.08.3.02-.11-.05.2-.03.21.01-.07-.02.14"/>
    </g>
    <line class="cls-1" x1="47.33" y1="68.9" x2="47.01" y2="71.71"/>
    <line class="cls-1" x1="48.91" y1="66.67" x2="47.54" y2="68.26"/>
    <g>
      <path class="cls-1" d="M9.46,52.83c-.02.18,0-.06-.02.12-.05.7,0-.26-.02.48,0,.44,0-.16,0,.3.02.27-.01-.1.01.19.02.16-.01-.06.02.11"/>
      <path class="cls-1" d="M9.45,54.02c.03.09-.01-.03.02.06"/>
      <path class="cls-1" d="M10.99,58.61c-1.24-3.71.41,1.24-.83-2.47-.62-1.86.21.62-.41-1.24-.41-1.23.13.41-.27-.82"/>
    </g>
    <line class="cls-1" x1="49.51" y1="70.61" x2="48.91" y2="66.67"/>
    <polyline class="cls-1" points="111.35 28.8 111.03 29.47 110.13 30.97 109 32.44 107.64 33.88 106.06 35.28 104.27 36.63 102.28 37.93 100.09 39.17 97.71 40.34 95.15 41.45 92.43 42.49 89.55 43.45 86.54 44.32 83.39 45.12 80.12 45.82 76.76 46.43 73.3 46.95 69.78 47.37 66.2 47.69 62.57 47.91 58.92 48.03 55.26 48.05 51.6 47.97 47.96 47.79 44.36 47.51 40.81 47.13 37.32 46.65 33.92 46.08 30.62 45.41 27.42 44.65 24.35 43.81 21.41 42.88 18.63 41.88 16 40.8 13.55 39.65 11.28 38.43 9.21 37.16 7.33 35.83 5.67 34.45 4.23 33.02 3 31.57 2.01 30.08 1.35 28.8"/>
    <g>
      <path class="cls-1" d="M17.62,38.37c1.92.9,3.88,1.7,5.89,2.39"/>
      <path class="cls-1" d="M87.22,41.41c2.84-.88,5.61-1.96,8.29-3.25"/>
    </g>
    <line class="cls-1" x1="68.14" y1="45.15" x2="66.8" y2="45.27"/>
    <polyline class="cls-1" points="66.74 45.21 66.75 45.21 66.77 45.23 66.8 45.27"/>
    <line class="cls-1" x1="84.88" y1="42.11" x2="78.77" y2="39.51"/>
    <line class="cls-1" x1="70.47" y1="40.44" x2="67.46" y2="45.14"/>
    <line class="cls-1" x1="36.68" y1="44.08" x2="52.39" y2="42.32"/>
    <polyline class="cls-1" points="37.08 30.5 37.05 30.46 37.02 30.45 37.01 30.45"/>
    <polyline class="cls-1" points="15.77 32.83 15.77 32.83 15.8 32.84 15.84 32.88"/>
    <polyline class="cls-1" points="52.39 42.32 53.54 42.24 54.35 42.25"/>
    <line class="cls-1" x1="24.38" y1="31.86" x2="15.28" y2="28"/>
    <polyline class="cls-1" points="8.39 28.69 7.36 30.18 7.21 30.42"/>
    <polyline class="cls-1" points="105.45 30.36 105.31 30.12 104.3 28.66"/>
    <line class="cls-1" x1="97.36" y1="27.08" x2="88.45" y2="28.08"/>
    <polyline class="cls-1" points="92.41 13.02 92.38 12.98 92.35 12.96 92.34 12.96"/>
    <line class="cls-1" x1="45.91" y1="14.52" x2="45.34" y2="14.57"/>
    <line class="cls-1" x1="57.93" y1="16.68" x2="58.66" y2="15.55"/>
    <line class="cls-1" x1="34.41" y1="10.82" x2="32.74" y2="11.52"/>
    <path class="cls-1" d="M75.76,14.82c-3.22-.55-6.46-.96-9.72-1.22"/>
    <polyline class="cls-1" points="1.36 74.91 1.98 76.12 2.96 77.61 4.18 79.07 5.62 80.49 7.27 81.87 9.14 83.2 11.21 84.48 13.47 85.7 15.92 86.85 18.54 87.94 21.31 88.94 24.24 89.87 27.31 90.72 30.5 91.48 33.81 92.15 37.21 92.73 40.69 93.21 44.24 93.59 47.84 93.88 51.47 94.06 55.13 94.15 58.79 94.13 62.45 94.01 66.07 93.79 69.66 93.47 73.18 93.06 76.64 92.54 80.01 91.93 83.28 91.24 86.43 90.45 89.45 89.57 92.33 88.62 95.06 87.58 97.62 86.48 100.01 85.3 102.21 84.06 104.21 82.77 106 81.42 107.59 80.02 108.95 78.59 110.09 77.11 111 75.61 111.41 74.76"/>
    <g>
      <path class="cls-1" d="M101.81,54.57c.66,1.39,1.01,2.83,1.01,4.32,0,11.77-21.97,20.24-49.32,20.24S3.97,69.59,3.97,57.81c0-2.21.79-4.28,2.25-6.18"/>
      <path class="cls-1" d="M98.24,56.07c.28.87.43,1.77.43,2.69,0,10.66-20.13,18.32-45.18,18.32s-45.36-8.64-45.36-19.3c0-1.74.54-3.38,1.56-4.91"/>
      <path class="cls-1" d="M102.68,57.25c.69,1.49,1.72,3.97,1.72,5.56,0,12.62-22.31,21.24-50.67,21.24S2.38,73.82,2.38,61.2c0-2.37,1.2-3.85,1.83-5.49"/>
      <path class="cls-1" d="M91,58.04c.57,9.94-15.68,16.27-37.24,16.27s-37.94-7.47-37.94-17.32"/>
      <path class="cls-1" d="M15.56,57.15c-1.29,1.74-1.74,5.53-.54,8.23.76,1.71,2.26,3.41,3.8,4.51l1.89,1.24"/>
      <path class="cls-1" d="M10.88,64.42c-.4-.73-.51-1.22-.51-2.61s.3-2.61.59-3.12"/>
      <path class="cls-1" d="M28.7,67.16c-.6-.33-1.36-1.27-1.96-2.49-.84-1.71-1.05-3.33-.46-3.62"/>
      <path class="cls-1" d="M87.14,59.22c-1.22,7.23-15.71,12.94-33.41,12.94s-31.87-6.19-33.71-13.28"/>
      <path class="cls-1" d="M47.21,68.42c-2.65-.1-6.45-.81-9.87-2.15-3.25-1.26-5.98-2.85-7.67-4.23"/>
      <path class="cls-1" d="M48.91,66.63c-2.65-.1-7.76-1.1-10.97-3.03"/>
      <path class="cls-1" d="M8.13,51.46l1.01,1.1,1.54,1.26,1.71,1.2,1.88,1.14,2.07,1.09,2.24,1.04,2.41.98,2.56.92,2.69.85,2.8.77,2.9.68,2.98.6,3.04.51,3.07.42,3.1.32,3.15.24,1.05.05h.61c2.6.15,6.02.19,9.75.06,3.79-.13,7.25-.41,9.85-.75l.62-.1c6.88-.78,13.62-2.53,20.01-5.2"/>
      <path class="cls-1" d="M90.82,58.09c1.16,1.66,2.12,4.8,1.55,7.03-.77,3.03-3.43,5.39-5.39,6.17"/>
      <path class="cls-1" d="M83.66,60.25s1.12,2,.83,3.31"/>
      <path class="cls-1" d="M93.63,57.11c.63.64,1.31,1.64,1.9,2.83,1.14,2.32,1.4,4.23.85,4.82"/>
    </g>
  </g>
</svg>