<?xml version="1.0" encoding="UTF-8"?>
<svg id="Layer_2" data-name="Layer 2" xmlns="http://www.w3.org/2000/svg" viewBox="0 0 41.03 47.91">
  <defs>
    <style>
      .cls-1 {
        stroke-width: 1.5px;
      }

      .cls-1, .cls-2 {
        fill: none;
        stroke: #231f20;
        stroke-linecap: round;
        stroke-linejoin: round;
      }

      .cls-2 {
        stroke-width: .75px;
      }
    </style>
  </defs>
  <g id="Layer_1-2" data-name="Layer 1">
    <polyline class="cls-2" points="29.81 41.25 29.8 41.1 29.76 40.95 29.69 40.8 29.6 40.66 29.48 40.54 29.34 40.43 29.19 40.34 29.02 40.28 28.85 40.23 28.68 40.21 28.52 40.23 28.36 40.26 28.22 40.33 28.09 40.41 27.99 40.53 27.91 40.64 27.86 40.78 27.84 40.93 27.85 41.08 27.89 41.23 27.96 41.38 28.06 41.53 28.17 41.65 28.31 41.76 28.46 41.85 28.63 41.91 28.8 41.95 28.97 41.97 29.13 41.96 29.29 41.92 29.43 41.86 29.56 41.78 29.66 41.66 29.74 41.54 29.79 41.4 29.81 41.25"/>
    <polyline class="cls-2" points="29.76 31.49 29.75 31.33 29.71 31.18 29.64 31.03 29.55 30.89 29.43 30.76 29.29 30.65 29.14 30.56 28.97 30.49 28.8 30.45 28.63 30.44 28.46 30.45 28.31 30.49 28.16 30.55 28.04 30.64 27.93 30.75 27.86 30.87 27.81 31.01 27.79 31.16 27.8 31.32 27.84 31.47 27.91 31.62 28 31.76 28.12 31.89 28.26 32 28.41 32.09 28.57 32.15 28.74 32.2 28.92 32.22 29.08 32.2 29.24 32.16 29.39 32.1 29.51 32.01 29.61 31.9 29.69 31.78 29.74 31.64 29.76 31.49"/>
    <line class="cls-2" x1="39.07" y1="27.93" x2="28.17" y2="26.5"/>
    <polyline class="cls-2" points="27.09 44.84 26.97 27.05 .75 7.42"/>
    <line class="cls-1" x1="2.5" y1=".95" x2=".91" y2="6.15"/>
    <line class="cls-1" x1="28.28" y1="45.69" x2="39.05" y2="47.16"/>
    <line class="cls-1" x1="1.13" y1="24.79" x2=".75" y2="7.42"/>
    <line class="cls-1" x1="40.28" y1="28.8" x2="40.25" y2="46.63"/>
    <line class="cls-1" x1="39.94" y1="28.26" x2="2.63" y2=".75"/>
    <line class="cls-1" x1="27.4" y1="45.34" x2="1.18" y2="25.09"/>
    <polyline class="cls-2" points="18.67 16.16 18.56 16.26 18.42 16.34 18.26 16.42 18.08 16.49 17.88 16.55 17.67 16.59 17.46 16.61 17.24 16.63 17.02 16.62 16.8 16.61 16.59 16.57 16.4 16.53 16.22 16.47 16.06 16.4 15.93 16.32 15.82 16.22 15.74 16.13 15.69 16.02 15.67 15.92 15.68 15.81 15.72 15.7 15.79 15.6 15.89 15.5 16.02 15.41 16.17 15.32 16.34 15.25 16.53 15.19 16.73 15.14 16.94 15.1 17.16 15.08 17.38 15.08 17.6 15.09 17.81 15.11 18.01 15.15 18.2 15.21 18.36 15.27 18.51 15.35 18.63 15.43 18.73 15.53 18.79 15.63 18.83 15.74 18.84 15.84 18.81 15.95 18.75 16.06 18.67 16.16"/>
  </g>
</svg>