<?xml version="1.0" encoding="UTF-8"?>
<svg id="Layer_2" data-name="Layer 2" xmlns="http://www.w3.org/2000/svg" viewBox="0 0 160.31 160.11">
  <defs>
    <style>
      .cls-1 {
        fill: none;
        stroke: #231f20;
        stroke-linecap: round;
        stroke-linejoin: round;
        stroke-width: .75px;
      }
    </style>
  </defs>
  <g id="Layer_1-2" data-name="Layer 1">
    <line class="cls-1" x1=".38" y1="34" x2="3.61" y2="35.37"/>
    <line class="cls-1" x1="75.85" y1="2.11" x2=".38" y2="34.01"/>
    <path class="cls-1" d="M82.31,2.11c-2.09-.77-4.38-.77-6.47,0"/>
    <line class="cls-1" x1="87.06" y1="4.12" x2="82.31" y2="2.11"/>
    <path class="cls-1" d="M87.06,4.12c.42.15.88.15,1.3,0"/>
    <line class="cls-1" x1="95.39" y1="1.14" x2="88.35" y2="4.12"/>
    <path class="cls-1" d="M102.8.75c-2.46-.6-5.04-.47-7.41.4"/>
    <line class="cls-1" x1="159.94" y1="24.89" x2="102.8" y2=".75"/>
    <line class="cls-1" x1="156.7" y1="26.26" x2="159.94" y2="24.89"/>
    <line class="cls-1" x1="100.11" y1="2.35" x2="156.7" y2="26.26"/>
    <path class="cls-1" d="M100.11,2.35c-.5-.07-1.02,0-1.49.16"/>
    <line class="cls-1" x1="92.02" y1="5.3" x2="98.62" y2="2.51"/>
    <path class="cls-1" d="M83.39,5.3c2.78,1.03,5.84,1.03,8.62,0"/>
    <line class="cls-1" x1="79.73" y1="3.75" x2="83.39" y2="5.3"/>
    <path class="cls-1" d="M79.73,3.75c-.42-.15-.88-.15-1.3,0"/>
    <line class="cls-1" x1="3.61" y1="35.37" x2="78.43" y2="3.75"/>
    <line class="cls-1" x1=".38" y1="34" x2=".38" y2="158.37"/>
    <line class="cls-1" x1="3.61" y1="35.37" x2="3.61" y2="159.74"/>
    <line class="cls-1" x1=".38" y1="158.37" x2="3.61" y2="159.74"/>
    <line class="cls-1" x1="75.79" y1="9.69" x2="6.15" y2="39.13"/>
    <line class="cls-1" x1="75.86" y1="13.88" x2="6.21" y2="43.32"/>
    <line class="cls-1" x1="75.79" y1="18.22" x2="6.15" y2="47.66"/>
    <line class="cls-1" x1="75.81" y1="22.32" x2="6.16" y2="51.75"/>
    <line class="cls-1" x1="75.76" y1="26.57" x2="6.12" y2="56.01"/>
    <line class="cls-1" x1="75.86" y1="30.55" x2="6.21" y2="59.98"/>
    <line class="cls-1" x1="75.81" y1="34.53" x2="6.17" y2="63.96"/>
    <line class="cls-1" x1="75.82" y1="38.53" x2="6.18" y2="67.96"/>
    <line class="cls-1" x1="75.71" y1="42.72" x2="6.07" y2="72.15"/>
    <line class="cls-1" x1="76.46" y1="90.69" x2="6.82" y2="120.13"/>
    <line class="cls-1" x1="76.53" y1="94.88" x2="6.88" y2="124.32"/>
    <line class="cls-1" x1="76.46" y1="99.22" x2="6.82" y2="128.66"/>
    <line class="cls-1" x1="76.48" y1="103.32" x2="6.83" y2="132.75"/>
    <line class="cls-1" x1="76.43" y1="107.49" x2="6.78" y2="136.92"/>
    <line class="cls-1" x1="76.53" y1="111.55" x2="6.88" y2="140.98"/>
    <line class="cls-1" x1="76.48" y1="115.53" x2="6.84" y2="144.96"/>
    <line class="cls-1" x1="76.49" y1="119.53" x2="6.85" y2="148.96"/>
    <line class="cls-1" x1="76.38" y1="123.72" x2="6.73" y2="153.15"/>
    <polyline class="cls-1" points="58.6 74.32 58.52 72.35 58.29 70.46 57.92 68.68 57.4 67.01 56.74 65.47 55.95 64.07 55.03 62.84 54 61.78 52.85 60.9 51.61 60.21 50.28 59.72 48.88 59.42 47.42 59.33 45.91 59.44 44.38 59.75 42.81 60.26 41.25 60.98 39.7 61.87 38.18 62.95 36.69 64.2 35.26 65.6 33.89 67.15 32.61 68.83 31.41 70.63 30.32 72.52 29.34 74.5 28.49 76.54 27.76 78.62 27.17 80.72 26.72 82.83 26.42 84.92 26.27 86.98 26.27 88.98 26.42 90.91 26.72 92.75 27.17 94.48 27.76 96.09 28.49 97.55 29.34 98.87 30.32 100.01 31.41 100.99 32.61 101.77 33.89 102.36 35.26 102.76 36.69 102.96 38.18 102.95 39.7 102.74 41.25 102.32 42.81 101.71 44.38 100.91 45.91 99.92 47.42 98.75 48.88 97.43 50.28 95.95 51.61 94.33 52.85 92.59 54 90.74 55.03 88.8 55.95 86.8 56.74 84.73 57.4 82.64 57.92 80.53 58.29 78.43 58.52 76.35 58.6 74.32"/>
    <line class="cls-1" x1="79.08" y1="112.64" x2="79.08" y2="119.55"/>
    <line class="cls-1" x1="79.08" y1="120.97" x2="79.08" y2="126.43"/>
    <line class="cls-1" x1="79.08" y1="10.72" x2="79.08" y2="4.85"/>
    <line class="cls-1" x1="79.08" y1="18.68" x2="79.08" y2="11.93"/>
    <line class="cls-1" x1="79.08" y1="18.68" x2="89.65" y2="14.21"/>
    <line class="cls-1" x1="89.86" y1="108.09" x2="79.08" y2="112.64"/>
    <line class="cls-1" x1="3.61" y1="159.74" x2="79.08" y2="127.85"/>
    <line class="cls-1" x1="156.7" y1="26.26" x2="156.7" y2="150.62"/>
    <line class="cls-1" x1="159.94" y1="24.89" x2="159.94" y2="149.26"/>
    <line class="cls-1" x1="156.7" y1="150.62" x2="159.94" y2="149.26"/>
    <line class="cls-1" x1="99.56" y1="118.18" x2="100.12" y2="118.42"/>
    <line class="cls-1" x1="99.56" y1="118.18" x2="99.56" y2="111.28"/>
    <line class="cls-1" x1="99.56" y1="111.28" x2="92.02" y2="108.09"/>
    <line class="cls-1" x1="92.02" y1="14.12" x2="99.56" y2="17.31"/>
    <line class="cls-1" x1="99.56" y1="10.62" x2="99.56" y2="17.31"/>
    <line class="cls-1" x1="99.56" y1="9.06" x2="99.56" y2="3.88"/>
    <line class="cls-1" x1="99.06" y1="120.08" x2="99.06" y2="125.45"/>
    <polyline class="cls-1" points="138.38 23.55 139.62 24.17 140.83 24.98 142.02 25.96 143.15 27.11 144.2 28.39 145.17 29.8 146.04 31.31 146.78 32.89 147.41 34.53 147.89 36.2 148.23 37.88 148.42 39.53 148.46 41.14 148.34 42.67 148.08 44.12 147.66 45.44 147.11 46.64 146.43 47.67 145.62 48.54 144.7 49.23 143.68 49.72 142.59 50.01 141.44 50.09 140.23 49.97 138.99 49.65 137.76 49.12 136.52 48.4 135.32 47.5 134.16 46.44 133.06 45.23 132.05 43.88 131.13 42.42 130.32 40.87 129.64 39.25 129.08 37.59 128.68 35.92 128.41 34.25 128.29 32.62 128.33 31.04 128.52 29.55 128.86 28.16 129.35 26.9 129.96 25.78 130.72 24.83 131.58 24.05 132.55 23.46 133.6 23.07 134.73 22.88 135.91 22.9 137.14 23.12 138.38 23.55"/>
    <polyline class="cls-1" points="115.73 13.99 116.98 14.6 118.19 15.41 119.38 16.4 120.51 17.54 121.56 18.82 122.53 20.23 123.4 21.74 124.14 23.32 124.77 24.96 125.25 26.63 125.59 28.31 125.78 29.96 125.82 31.57 125.7 33.11 125.44 34.55 125.02 35.88 124.47 37.07 123.79 38.11 122.98 38.97 122.06 39.66 121.05 40.15 119.95 40.44 118.79 40.52 117.59 40.4 116.35 40.08 115.12 39.55 113.88 38.84 112.68 37.94 111.52 36.87 110.42 35.66 109.41 34.31 108.49 32.85 107.68 31.3 107 29.69 106.44 28.02 106.04 26.35 105.77 24.68 105.65 23.05 105.69 21.47 105.88 19.98 106.22 18.59 106.7 17.33 107.32 16.22 108.07 15.26 108.94 14.49 109.91 13.9 110.96 13.5 112.09 13.32 113.27 13.33 114.49 13.55 115.73 13.99"/>
    <polyline class="cls-1" points="138.38 111.99 139.62 112.61 140.83 113.42 142.02 114.4 143.15 115.54 144.2 116.83 145.17 118.23 146.04 119.74 146.78 121.33 147.41 122.97 147.89 124.64 148.23 126.31 148.42 127.96 148.46 129.58 148.34 131.11 148.08 132.55 147.66 133.88 147.11 135.07 146.43 136.11 145.62 136.98 144.7 137.66 143.68 138.15 142.59 138.44 141.44 138.53 140.23 138.41 138.99 138.08 137.76 137.56 136.52 136.84 135.32 135.94 134.16 134.88 133.06 133.67 132.05 132.32 131.13 130.85 130.32 129.3 129.64 127.69 129.08 126.03 128.68 124.35 128.41 122.69 128.29 121.05 128.33 119.48 128.52 117.99 128.86 116.6 129.35 115.34 129.96 114.22 130.72 113.26 131.58 112.49 132.55 111.9 133.6 111.51 134.73 111.32 135.91 111.34 137.14 111.56 138.38 111.99"/>
    <polyline class="cls-1" points="115.73 102.42 116.98 103.04 118.19 103.85 119.38 104.83 120.51 105.98 121.56 107.26 122.53 108.67 123.4 110.18 124.14 111.76 124.77 113.4 125.25 115.07 125.59 116.75 125.78 118.4 125.82 120.01 125.7 121.54 125.44 122.98 125.02 124.31 124.47 125.51 123.79 126.54 122.98 127.41 122.06 128.09 121.05 128.59 119.95 128.87 118.79 128.96 117.59 128.84 116.35 128.52 115.12 127.99 113.88 127.27 112.68 126.37 111.52 125.31 110.42 124.09 109.41 122.75 108.49 121.29 107.68 119.74 107 118.12 106.44 116.46 106.04 114.78 105.77 113.12 105.65 111.48 105.69 109.91 105.88 108.42 106.22 107.03 106.7 105.77 107.32 104.65 108.07 103.7 108.94 102.92 109.91 102.34 110.96 101.94 112.09 101.75 113.27 101.77 114.49 101.99 115.73 102.42"/>
    <line class="cls-1" x1="100.12" y1="126.71" x2="156.7" y2="150.62"/>
    <polyline class="cls-1" points="140.53 26.59 139.49 26.24 138.47 26.11 137.49 26.19 136.59 26.48 135.77 26.97 135.05 27.65 134.46 28.51 134.01 29.53 133.7 30.68 133.55 31.94 133.55 33.29 133.7 34.68 134.01 36.09 134.46 37.49 135.05 38.85 135.77 40.14 136.59 41.32 137.49 42.38 138.47 43.28 139.49 44.01 140.53 44.55 141.58 44.89 142.6 45.02 143.57 44.95 144.48 44.65 145.3 44.17 146.01 43.48 146.6 42.62 147.06 41.6 147.37 40.45 147.52 39.19 147.52 37.85 147.37 36.46 147.06 35.04 146.6 33.64 146.01 32.28 145.3 31 144.48 29.82 143.57 28.76 142.6 27.86 141.58 27.13 140.53 26.59"/>
    <path class="cls-1" d="M55.36,72.95c.44-5.14-1.7-10.16-5.72-13.4"/>
    <polyline class="cls-1" points="31.97 101.38 32.02 101.39 33.46 101.59 34.94 101.58 36.47 101.37 38.02 100.95 39.58 100.34 41.14 99.54 42.68 98.55 44.19 97.39 45.65 96.06 47.05 94.58 48.38 92.96 49.62 91.22 50.76 89.38 51.8 87.44 52.72 85.43 53.51 83.37 54.17 81.27 54.69 79.16 55.06 77.06 55.29 74.98 55.36 72.95"/>
    <polyline class="cls-1" points="117.89 17.02 116.85 16.68 115.83 16.54 114.85 16.62 113.95 16.91 113.12 17.4 112.41 18.08 111.82 18.94 111.37 19.96 111.06 21.11 110.9 22.38 110.9 23.72 111.06 25.11 111.37 26.52 111.82 27.92 112.41 29.29 113.12 30.57 113.95 31.75 114.85 32.8 115.83 33.71 116.85 34.44 117.89 34.98 118.94 35.32 119.96 35.45 120.93 35.38 121.84 35.09 122.66 34.6 123.37 33.91 123.96 33.06 124.42 32.04 124.72 30.88 124.88 29.62 124.88 28.28 124.72 26.89 124.42 25.47 123.96 24.07 123.37 22.72 122.66 21.43 121.84 20.25 120.93 19.19 119.96 18.29 118.94 17.56 117.89 17.02"/>
    <path class="cls-1" d="M83.39,13.6c2.78,1.03,5.84,1.03,8.62,0"/>
    <line class="cls-1" x1="79.73" y1="12.04" x2="83.39" y2="13.6"/>
    <line class="cls-1" x1="92.02" y1="13.6" x2="98.62" y2="10.8"/>
    <g>
      <path class="cls-1" d="M79.73,12.04c-.42-.15-.88-.15-1.3,0"/>
      <path class="cls-1" d="M92.02,14.12c-.32-.12-.66-.18-1-.18"/>
    </g>
    <line class="cls-1" x1="95.25" y1="12.76" x2="94.57" y2="12.51"/>
    <line class="cls-1" x1="99.56" y1="14.58" x2="95.25" y2="12.76"/>
    <line class="cls-1" x1="84.06" y1="13.84" x2="79.08" y2="15.95"/>
    <path class="cls-1" d="M100.11,10.64c-.5-.07-1.02-.01-1.49.16"/>
    <polyline class="cls-1" points="140.53 115.02 139.49 114.68 138.47 114.55 137.49 114.63 136.59 114.92 135.77 115.4 135.05 116.09 134.46 116.95 134.01 117.97 133.7 119.12 133.55 120.38 133.55 121.72 133.7 123.12 134.01 124.53 134.46 125.93 135.05 127.29 135.77 128.58 136.59 129.76 137.49 130.81 138.47 131.72 139.49 132.44 140.53 132.99 141.58 133.33 142.6 133.46 143.57 133.38 144.48 133.09 145.3 132.6 146.01 131.92 146.6 131.06 147.06 130.04 147.37 128.89 147.52 127.63 147.52 126.29 147.37 124.89 147.06 123.48 146.6 122.08 146.01 120.72 145.3 119.43 144.48 118.25 143.57 117.2 142.6 116.29 141.58 115.57 140.53 115.02"/>
    <path class="cls-1" d="M92.02,108.09c-.7-.26-1.46-.26-2.16,0"/>
    <polyline class="cls-1" points="117.89 105.45 116.85 105.11 115.83 104.98 114.85 105.06 113.95 105.34 113.12 105.84 112.41 106.52 111.82 107.38 111.37 108.4 111.06 109.55 110.9 110.81 110.9 112.16 111.06 113.55 111.37 114.96 111.82 116.36 112.41 117.72 113.12 119.01 113.95 120.19 114.85 121.24 115.83 122.14 116.85 122.88 117.89 123.42 118.94 123.76 119.96 123.89 120.93 123.82 121.84 123.52 122.66 123.03 123.37 122.35 123.96 121.49 124.42 120.47 124.72 119.32 124.88 118.06 124.88 116.72 124.72 115.32 124.42 113.91 123.96 112.51 123.37 111.16 122.66 109.87 121.84 108.68 120.93 107.63 119.96 106.73 118.94 106 117.89 105.45"/>
    <path class="cls-1" d="M82.31,118.18c-1.03-.39-2.13-.59-3.23-.56"/>
    <line class="cls-1" x1="87.7" y1="120.47" x2="82.31" y2="118.18"/>
    <line class="cls-1" x1="95.39" y1="117.21" x2="87.7" y2="120.47"/>
    <g>
      <path class="cls-1" d="M99.56,116.46c-1.42-.02-2.85.24-4.18.75"/>
      <path class="cls-1" d="M100.12,118.42c-.51-.07-1.02-.01-1.5.17"/>
    </g>
    <line class="cls-1" x1="92.02" y1="121.37" x2="98.62" y2="118.58"/>
    <path class="cls-1" d="M83.39,121.37c2.78,1.03,5.84,1.03,8.62,0"/>
    <line class="cls-1" x1="79.08" y1="119.55" x2="83.39" y2="121.37"/>
    <path class="cls-1" d="M83.39,129.67c2.78,1.03,5.84,1.03,8.62,0"/>
    <line class="cls-1" x1="79.08" y1="127.85" x2="83.39" y2="129.67"/>
    <line class="cls-1" x1="92.02" y1="129.67" x2="98.62" y2="126.87"/>
    <path class="cls-1" d="M100.12,126.71c-.51-.07-1.02-.01-1.5.16"/>
    <line class="cls-1" x1="90.53" y1="89.37" x2="90.53" y2="104.71"/>
    <line class="cls-1" x1="90.53" y1="67.04" x2="90.53" y2="77.71"/>
    <line class="cls-1" x1="90.53" y1="17.37" x2="90.53" y2="44.71"/>
  </g>
</svg>