<?xml version="1.0" encoding="UTF-8"?>
<svg id="Layer_2" data-name="Layer 2" xmlns="http://www.w3.org/2000/svg" viewBox="0 0 159.08 163.45">
  <defs>
    <style>
      .cls-1 {
        fill: none;
        stroke: #231f20;
        stroke-linecap: round;
        stroke-linejoin: round;
        stroke-width: .75px;
      }
    </style>
  </defs>
  <g id="Layer_1-2" data-name="Layer 1">
    <line class="cls-1" x1="1.06" y1="161.76" x2="7.4" y2="163.07"/>
    <line class="cls-1" x1="9.81" y1="162.44" x2="38.29" y2="137.76"/>
    <path class="cls-1" d="M144.87,157.29c.78.2,1.88-.1,2.44-.68"/>
    <line class="cls-1" x1="43.36" y1="137.29" x2="144.87" y2="157.29"/>
    <line class="cls-1" x1="147.31" y1="156.61" x2="158.04" y2="146.88"/>
    <g>
      <path class="cls-1" d="M38.29,137.76h0s.05-.03.1-.06c.05-.03.12-.07.21-.1.09-.04.2-.08.32-.12.13-.04.27-.08.43-.12.17-.04.34-.08.53-.11.2-.03.4-.06.61-.08.22-.02.44-.04.66-.04.23,0,.46,0,.69,0,.23,0,.46.02.68.04.22.02.43.05.63.08.07.01.13.03.2.04"/>
      <path class="cls-1" d="M47.39.6c-1.64-.5-4.18-.12-5.59.84"/>
    </g>
    <line class="cls-1" x1="156.15" y1="22.03" x2="47.39" y2=".6"/>
    <line class="cls-1" x1="41.79" y1="1.44" x2="1.62" y2="36.24"/>
    <path class="cls-1" d="M6.73,39.55c1.1.35,2.81.1,3.77-.55"/>
    <line class="cls-1" x1="1.82" y1="38.54" x2="6.73" y2="39.55"/>
    <path class="cls-1" d="M1.62,36.24c-.78.84-1.35,2.49-1.24,3.63"/>
    <line class="cls-1" x1="8.88" y1="161.46" x2="8.88" y2="41.25"/>
    <line class="cls-1" x1="10.5" y1="39" x2="38.98" y2="14.33"/>
    <line class="cls-1" x1=".39" y1="160.07" x2=".39" y2="39.87"/>
    <line class="cls-1" x1="40.86" y1="15.33" x2="40.86" y2="135.53"/>
    <path class="cls-1" d="M144.22,33.77c1.1.34,2.8.08,3.75-.58"/>
    <line class="cls-1" x1="42.71" y1="13.77" x2="144.22" y2="33.77"/>
    <line class="cls-1" x1="146.35" y1="155.77" x2="146.35" y2="35.57"/>
    <path class="cls-1" d="M158.7,25.09c-.01-1.44-1.15-2.8-2.56-3.06"/>
    <line class="cls-1" x1="147.97" y1="33.2" x2="157.53" y2="24.53"/>
    <line class="cls-1" x1="158.7" y1="145.3" x2="158.7" y2="25.09"/>
    <path class="cls-1" d="M42.71,13.77c-1.09-.34-2.78-.08-3.73.56"/>
    <polyline class="cls-1" points="1.06 161.76 .94 161.72 .75 161.57 .6 161.31 .48 160.97 .41 160.55 .39 160.07"/>
    <path class="cls-1" d="M158.04,146.88c.41-.34.71-1.06.66-1.59"/>
  </g>
</svg>