<?xml version="1.0" encoding="UTF-8"?>
<svg id="Layer_2" data-name="Layer 2" xmlns="http://www.w3.org/2000/svg" viewBox="0 0 23.28 180.59">
  <defs>
    <style>
      .cls-1 {
        fill: none;
        stroke: #000;
        stroke-linecap: round;
        stroke-linejoin: round;
        stroke-width: .75px;
      }
    </style>
  </defs>
  <g id="Layer_1-2" data-name="Layer 1">
    <path class="cls-1" d="M22.9,89.19v2.12c0,2.69-5.04,4.86-11.26,4.86S.38,93.99.38,91.31v-2.12M18.75,85.42c2.53.89,4.15,2.25,4.15,3.77,0,2.69-5.04,4.86-11.26,4.86S.38,91.88.38,89.19c0-1.5,1.58-2.85,4.05-3.74M18.55,87.51l.34.33.35.51.15.53-.05.53-.25.52-.44.5-.63.46-.79.41-.94.35-1.06.28-1.15.21-1.22.13-1.25.04M11.61,92.3l-1.25-.04-1.22-.13-1.15-.21-1.06-.28-.94-.35-.79-.41-.63-.46-.44-.5-.25-.52-.05-.53.15-.53.35-.51.34-.33M4.66,88.24l.1.51.31.49.51.46.69.42.86.36.99.29,1.1.22,1.17.13,1.21.05M11.61,91.17l1.21-.05,1.17-.13,1.1-.22.99-.29.86-.36.69-.42.51-.46.31-.49.1-.51M17.11,166.71c.58,1.39-.13-.47.35.93.03,1.51.12-.51-.04,1.01-.69,1.6.36-.52-.53,1.06-1.31,1.43.55-.45-.93.94-1.76,1.19.66-.36-1.21.77-2,.91.71-.26-1.35.59-2.04.64.68-.17-1.36.41-1.86.39.59-.09-1.23.24-1.53.18.46-.03-.99.11-1.11.04.28,0-.7.02-.51-.03.13.01-.32-.02M8.8,172.77c1.53.15,3.07-.1,4.47-.72M8.8,172.77c2.97-.14,5.71-1.63,7.46-4.03M5.26,164.46c1.1.97,2.56,1.42,4.01,1.22M18.55,158.22l.97.72.81.91.46.96.1.97-.26.96-.6.92-.91.85-1.18.76-1.4.64-1.57.52-1.67.38-1.7.24-1.67.1-1.57-.04-1.42-.16-1.22-.26-.97-.35-.69-.41-.38-.45-.07-.46.23-.45.52-.41.57-.26M18.55,150.01l.57.33,1.18.99.8,1.08.39,1.13-.04,1.14-.47,1.12-.87,1.07-1.24.97-1.56.85-1.8.7-1.97.53-2.06.35-2.05.17h-1.96s-1.78-.18-1.78-.18l-1.52-.32-1.2-.44-.83-.53-.42-.58v-.6s.45-.58.45-.58l.85-.52.83-.29M18.55,141.79l.72.44,1.14,1,.75,1.09.34,1.14-.09,1.14-.51,1.12-.92,1.05-1.28.96-1.59.83-1.83.68-1.99.51-2.06.33-2.04.15-1.94-.03-1.75-.19-1.49-.33-1.16-.45-.78-.53-.37-.59.06-.6.49-.58.9-.51.6-.2M18.55,133.57l.88.55,1.1,1.01.71,1.09.29,1.14-.14,1.15-.56,1.11-.96,1.04-1.32.94-1.62.82-1.85.66-2,.49-2.06.31-2.04.13-1.92-.05-1.73-.21-1.45-.35-1.12-.46-.73-.54-.32-.59.11-.6.54-.57.94-.51.54-.17M18.55,125.34l1.02.67,1.05,1.03.66,1.1.24,1.14-.19,1.14-.61,1.11-1.01,1.03-1.36.93-1.65.8-1.87.64-2.01.47-2.07.29-2.03.11-1.9-.07-1.7-.22-1.42-.36-1.07-.47-.68-.55-.27-.59.17-.6.59-.56.99-.49.34-.1M18.55,117.11l1.17.8,1.01,1.03.61,1.11.19,1.14-.24,1.14-.66,1.1-1.05,1.03-1.4.92-1.68.78-1.89.62-2.02.45-2.07.27-2.02.09-1.88-.09-1.67-.24-1.38-.38-1.03-.48-.64-.56-.22-.6.22-.59.64-.56,1.03-.48.21-.06M18.55,108.87l1.3.93.96,1.05.56,1.11.14,1.14-.29,1.14-.71,1.09-1.1,1.01-1.43.9-1.71.76-1.91.6-2.03.43-2.07.25-2.01.07-1.86-.1-1.64-.26-1.34-.39-.99-.49-.59-.56-.17-.6.27-.59.68-.55,1.07-.47.05-.02M18.55,100.66l.16.08,1.28.96.92,1.05.51,1.12.09,1.15-.34,1.13-.75,1.09-1.14,1-1.47.89-1.74.74-1.93.58-2.04.41-2.06.23-1.99.04-1.84-.12-1.61-.28-1.3-.4-.94-.51-.54-.57-.11-.6.32-.59.73-.54,1-.41M1.69,100.57l.03-.21.37-.59.78-.54.95-.37M9.27,165.68l1.14-.08,1.21-.17,1.17-.25,1.17-.35,1.07-.42,1-.51.84-.56.71-.63.52-.66.34-.71.13-.7v-.11M4.67,107.23l.08.26.3.27.48.23.68.2.81.14.98.07h1.05s1.16-.08,1.16-.08l1.17-.16,1.21-.26,1.15-.33,1.12-.43.99-.49.89-.57.72-.62.56-.68.36-.69.17-.74v-.22M4.69,115.45v.11s.17.27.17.27l.39.26.56.22.75.17.88.11,1.03.04,1.09-.04,1.19-.12,1.18-.2,1.2-.3,1.12-.37,1.08-.46.94-.52.83-.6.64-.64.48-.7.27-.71.06-.62M4.68,123.67l.06.24.27.26.48.24.64.19.83.15.94.08h1.08s1.12-.07,1.12-.07l1.2-.16,1.18-.24,1.19-.34,1.09-.41,1.03-.5.88-.55.75-.63.56-.66.39-.71.18-.71v-.28M4.68,131.9v.09s.16.28.16.28l.36.25.56.22.72.17.9.12.99.05,1.12-.03,1.15-.11,1.21-.2,1.17-.28,1.16-.38,1.05-.45.97-.53.81-.58.67-.66.48-.68.29-.73.08-.66M4.68,140.12l.04.22.27.27.45.24.65.2.79.15.96.09h1.04s1.15-.06,1.15-.06l1.17-.15,1.21-.24,1.16-.32,1.13-.42,1.01-.48.91-.57.74-.61.59-.68.39-.69.2-.73v-.32M4.68,148.34v.07s.14.27.14.27l.36.26.54.22.73.18.86.12,1.01.05,1.08-.02,1.18-.11,1.18-.19,1.21-.28,1.13-.36,1.09-.45.96-.51.85-.59.67-.63.5-.69.3-.7.1-.73M4.69,156.56l.03.2.24.27.45.25.62.2.81.16.92.09,1.06.02,1.12-.06,1.2-.15,1.18-.23,1.19-.33,1.1-.4,1.04-.49.9-.54.77-.62.59-.65.41-.71.21-.71v-.39M1.69,100.57c.57,1.04-.29-.33.43.68,1.35.91-.61-.28.98.59,2.08.72-.81-.2,1.45.46,2.67.46-.99-.1,1.83.28,3.1.14-1.1.02,2.1.06,3.32-.21-1.13.13,2.23-.17,3.34-.54-1.1.24,2.22-.39,3.16-.88-1,.35,2.08-.62,2.77-1.19-.84.45,1.81-.82,2.25-1.44-.64.52,1.44-.98,1.62-1.62-.42.57,1.02-1.1.92-1.74-.16.59.54-1.16.11-1.77.09.59.01-1.18-.57-1.73.38.55-.48-1.14-.2-.23.07.08-.13-.16M18.53,95.77v.23s-.16.68-.16.68l-.36.65-.56.63-.71.57-.89.52-.98.44-1.11.38-1.14.29-1.2.21-1.16.12-1.16.03-1.05-.04-.97-.12-.82-.18-.68-.24-.49-.28-.31-.32-.11-.33M21.53,80.02c-.57,2,.29-.66-.43,1.33-1.35,1.88.61-.6-.98,1.24-2.08,1.68.81-.52-1.45,1.1-2.67,1.42.99-.42-1.83.92-3.1,1.1,1.1-.31-2.1.7-3.32.76,1.13-.19-2.23.47-3.34.42,1.1-.08-2.22.25-3.16.09,1,.03-2.08.03-2.77-.23.84.13-1.81-.18-2.25-.48.64.2-1.44-.34-1.62-.66.42.25-1.02-.46-.91-.77.16.27-.54-.52-.12-.81-.1.27-.01-.54.6-.77-.35.24.48-.5,1.13-.55-.44.17.78-.36M18.55,78.46l-.1.78-.31.78-.5.73-.7.7-.84.62-1,.58-1.07.49-1.18.42-1.19.32-1.22.23-1.15.14-1.11.07h-.98s-.87-.09-.87-.09l-.69-.14-.53-.19-.32-.22-.12-.23h0M3.76,24.9l-.84.32-.8.53-.39.58.04.6.47.58.87.52,1.24.43,1.56.3,1.8.15h1.97s2.06-.21,2.06-.21l2.05-.38,1.96-.55,1.78-.72,1.52-.86,1.2-.98.83-1.07.41-1.13v-1.15s-.45-1.13-.45-1.13l-.85-1.07-1.22-.98-.41-.22M3.82,33.09l-1.02.41-.76.54-.34.59.09.6.51.57.92.51,1.28.41,1.59.28,1.83.13,1.99-.04,2.06-.21,2.05-.4,1.94-.57,1.75-.74,1.49-.88,1.16-1,.78-1.08.37-1.13-.06-1.15-.49-1.12-.89-1.06-1.26-.96-.24-.13M3.74,41.33l-1.05.45-.71.55-.29.59.14.6.56.57.96.5,1.32.4,1.62.27,1.85.11,2-.05,2.06-.24,2.04-.42,1.92-.59,1.72-.75,1.45-.89,1.12-1.01.73-1.09.32-1.14-.11-1.14-.54-1.12-.94-1.05-1.3-.95-.07-.04M3.79,49.54l-.15.04-1.05.48-.66.55-.24.59.19.6.61.56,1.01.49,1.36.39,1.65.25,1.87.09,2.01-.08,2.07-.26,2.03-.44,1.9-.61,1.7-.77,1.41-.91,1.07-1.02.68-1.1.27-1.14-.17-1.14-.59-1.11-.99-1.04-1.24-.86M3.77,57.78l-.27.08-1.01.49-.61.56-.19.6.24.59.66.55,1.05.48,1.4.37,1.68.23,1.89.08,2.02-.1,2.07-.28,2.02-.46,1.88-.63,1.67-.79,1.38-.92,1.03-1.03.63-1.1.22-1.14-.22-1.14-.63-1.1-1.03-1.03-1.09-.74M3.78,66l-.42.13-.96.5-.56.57-.14.6.29.59.71.55,1.1.47,1.43.36,1.71.22,1.91.06,2.03-.12,2.06-.3,2.01-.48,1.86-.65,1.64-.8,1.34-.94.99-1.04.59-1.11.17-1.14-.27-1.14-.68-1.1-1.07-1.02-.95-.61M3.82,74.21l-.59.19-.92.51-.51.57-.09.6.34.59.76.54,1.14.46,1.47.34,1.74.2,1.93.04,2.04-.14,2.06-.32,1.99-.5,1.84-.67,1.61-.82,1.3-.95.94-1.05.54-1.12.11-1.14-.32-1.14-.73-1.09-1.12-1.01-.8-.49M21.53,80.02c-.25-1.75-1.37-3.25-2.98-4M4.69,25.02v.11s.17.28.17.28l.38.25.58.22.73.17.91.11,1,.04,1.12-.04,1.15-.12,1.21-.21,1.17-.29,1.16-.38,1.05-.45.97-.54.8-.59.66-.66.46-.68.28-.73.06-.61M4.67,33.24l.06.24.28.27.47.24.66.2.8.14.97.08h1.05s1.16-.07,1.16-.07l1.17-.16,1.21-.25,1.15-.33,1.12-.42,1-.49.9-.57.73-.61.58-.68.38-.69.18-.74v-.27M4.69,41.47v.09s.15.27.15.27l.37.26.55.22.74.18.87.11,1.02.05,1.09-.03,1.18-.11,1.18-.2,1.2-.29,1.13-.37,1.08-.46.95-.52.84-.6.65-.64.49-.7.28-.71.08-.67M4.68,49.69l.05.22.26.26.46.24.63.2.81.15.93.08h1.07s1.12-.05,1.12-.05l1.2-.16,1.18-.23,1.19-.33,1.1-.4,1.04-.49.89-.55.76-.62.57-.66.4-.71.19-.71v-.34M4.68,57.91v.07s.14.28.14.28l.35.25.55.23.71.18.88.12.99.05,1.11-.03,1.15-.1,1.21-.2,1.17-.28,1.16-.37,1.06-.44.98-.53.82-.58.69-.65.49-.68.31-.72.1-.71M4.68,66.13l.03.2.25.27.44.24.64.21.78.15.95.09,1.03.02,1.15-.06,1.16-.15,1.21-.23,1.16-.32,1.13-.41,1.01-.47.92-.56.75-.6.6-.67.4-.69.21-.73v-.38M4.68,74.35v.05s.12.27.12.27l.34.26.52.23.72.18.85.12,1.01.06,1.08-.02,1.18-.1,1.17-.19,1.21-.28,1.14-.36,1.1-.45.96-.51.86-.59.68-.63.52-.69.31-.7.12-.74v-.04M6.94,9.6c-.61.25.16-.09-.38.17-.28.42-.07-.14-.1.28.44.37-.26-.1.35.23,1.03.22-.45-.04.74.13,1.46.02-.56.04,1.01-.01,1.69-.23-.6.13,1.15-.18,1.74-.47-.59.2,1.16-.34,1.63-.68-.52.27,1.08-.48,1.37-.86-.4.33.89-.6.96-1-.25.36.61-.68.54-1.06-.11.37.32-.72.03-.1,0,.04.02-.07M4.32,16.74l-.54.18-.78.45-.43.49-.07.5.28.48.61.44.91.37,1.17.28,1.37.16,1.52.04,1.61-.09,1.63-.23,1.59-.37,1.49-.49,1.34-.61,1.13-.71.89-.78.62-.84.33-.87.04-.88-.24-.86-.51-.82-.75-.76-.96-.68-.76-.4M13.77,7.35l-.44.58-.74.58-.94.47-1.03.32-.98.16-.85.02-.57-.09-.21-.17.04-.04M18.45,17.17l.08.26v.51s-.21.5-.21.5l-.41.48-.6.44-.76.39-.91.33-1.03.26-1.12.18-1.18.09h-1.2s-1.18-.07-1.18-.07l-2.51-.36M4.94,16.79l-.04.07.04.26.25.25.43.21.63.18.75.11.9.05,2.01-.14,2.1-.46,1.92-.76,1.51-1.01.93-1.18.27-1.25-.26-.83M13.29,172.08l.37-.17M11.61,180.21l3.74-9.17M16.28,168.74l1.37-3.36M4.76,163.42l.44,1.07M6.16,166.83l5.45,13.38M4.66,156.1h-.03s-.79.28-.79.28M4.66,147.88l-.06.02-.88.3M4.66,139.66l-.05.02-.81.28M4.66,131.44h-.03s-.89.31-.89.31M4.66,123.22l-.07.02-.83.28M4.66,115l-.04.02-.86.29M4.66,106.78l-.08.03-.85.29M4.66,98.56l-.09.03-.79.27M4.66,95.21v3.8M4.66,102.42v4.81M4.66,110.8v4.65M4.66,119.02v4.65M4.66,127.24v4.65M4.66,135.46v4.65M4.66,143.68v4.65M4.66,151.91v4.65M4.66,160.13l.1,3.29M18.55,160.54v-2.53M18.55,152.45v-2.64M18.55,144.23v-2.63M18.55,136.01v-2.65M18.55,127.79v-2.66M18.55,119.56v-2.67M18.55,111.34v-2.67M18.55,103.12v-3.77M18.55,95.77v-.55M4.66,19.8v5.22M4.66,28.59v4.65M4.66,36.81v4.65M4.66,45.03v4.65M4.66,53.25v4.65M4.66,61.48v4.65M4.66,69.7v4.65M4.66,77.92v5.52M4.66,85.41v2.83M18.55,88.24v-4.5M18.55,78.46v-2.64M18.55,70.24v-2.64M18.55,62.02v-2.66M18.55,53.8v-2.66M18.55,45.58v-2.67M18.55,37.35v-2.67M18.55,29.13v-2.66M18.55,20.91v-3.24M4.66,73.9l-.04.02-.83.28M4.66,65.67h-.02s-.89.31-.89.31M4.66,57.45l-.05.02-.87.29M4.66,49.23h-.03s-.86.3-.86.3M4.66,41.01l-.06.02-.87.29M4.66,32.79h-.03s-.83.29-.83.29M4.66,24.57h-.04s-.89.32-.89.32M8.06,9.08l-.34.17-.82.33M6.68,10.24l.83.44M13.69,19.33l.05-.02.74-.29M5.06,16.45l-.76.27M11.61.38l-3.58,8.78M7.43,10.64l-2.5,6.14M18.45,17.17l-.23-.56M16.45,12.27L11.61.38"/>
  </g>
</svg>