<?xml version="1.0" encoding="UTF-8"?>
<svg id="Layer_2" data-name="Layer 2" xmlns="http://www.w3.org/2000/svg" viewBox="0 0 470.85 21.7">
  <defs>
    <style>
      .cls-1 {
        stroke-width: .5px;
      }

      .cls-1, .cls-2, .cls-3, .cls-4 {
        fill: none;
        stroke: #231f20;
        stroke-linecap: round;
        stroke-linejoin: round;
      }

      .cls-2 {
        stroke-width: 1.5px;
      }

      .cls-3 {
        stroke-width: .75px;
      }
    </style>
  </defs>
  <g id="Layer_1-2" data-name="Layer 1">
    <line class="cls-2" x1="448.28" y1="20.95" x2="65.61" y2="10.84"/>
    <line class="cls-2" x1="65.41" y1="1.77" x2="448.08" y2="11.9"/>
    <polyline class="cls-2" points="453.47 16.75 450.85 18.87 448.28 20.95"/>
    <line class="cls-2" x1="469" y1="17.16" x2="453.47" y2="16.74"/>
    <polyline class="cls-2" points="448.07 11.9 450.61 11.82 453.12 11.53"/>
    <line class="cls-2" x1="453.12" y1="11.53" x2="468.64" y2="11.93"/>
    <line class="cls-2" x1="17.71" y1="5.83" x2="1.79" y2="5.42"/>
    <line class="cls-2" x1="17.4" y1="1.14" x2="22.52" y2="1.78"/>
    <polyline class="cls-2" points="22.68 8.16 20.49 7.14 17.68 5.82"/>
    <line class="cls-2" x1="65.64" y1="9.48" x2="22.66" y2="8.17"/>
    <line class="cls-1" x1="1.48" y1=".73" x2="17.4" y2="1.14"/>
    <line class="cls-2" x1="22.49" y1="1.79" x2="65.48" y2="3.11"/>
    <path class="cls-2" d="M65.68,4.31c.02.54.02,1.07.02,1.61"/>
    <line class="cls-3" x1="65.95" y1="5.05" x2="448.61" y2="15.19"/>
    <polyline class="cls-2" points="65.65 9.81 65.65 10.03 65.64 10.32 65.64 10.46 65.63 10.57 65.62 10.78 65.62 10.82 65.61 10.84 65.6 10.81"/>
    <line class="cls-2" x1="65.7" y1="5.93" x2="65.65" y2="9.81"/>
    <line class="cls-2" x1="65.42" y1="1.81" x2="65.68" y2="4.31"/>
    <polyline class="cls-2" points="65.38 2.78 65.37 2.53 65.38 2.31 65.39 2.11 65.39 1.96 65.4 1.85 65.41 1.79 65.41 1.77 65.42 1.81"/>
    <polyline class="cls-3" points="83.42 4.12 82.98 4.07 82.6 3.91 82.32 3.72 82.22 3.51 82.28 3.26 82.51 3.1 82.86 2.97 83.3 2.95"/>
    <polyline class="cls-3" points="98.57 3.34 99.01 3.41 99.39 3.54 99.65 3.74 99.77 3.97 99.71 4.18 99.48 4.37 99.12 4.49 98.69 4.52"/>
    <line class="cls-3" x1="98.57" y1="4.53" x2="83.2" y2="4.12"/>
    <polyline class="cls-3" points="120.06 5.1 119.62 5.04 119.23 4.91 118.96 4.69 118.85 4.48 118.92 4.25 119.14 4.06 119.5 3.95 119.93 3.91"/>
    <polyline class="cls-3" points="135.2 4.31 135.65 4.38 136.03 4.51 136.3 4.7 136.41 4.93 136.34 5.16 136.11 5.34 135.76 5.46 135.33 5.49"/>
    <line class="cls-3" x1="135.33" y1="5.49" x2="120.06" y2="5.1"/>
    <polyline class="cls-3" points="156.7 6.07 156.25 6.01 155.87 5.87 155.6 5.67 155.49 5.44 155.55 5.22 155.78 5.04 156.14 4.92 156.58 4.88"/>
    <polyline class="cls-3" points="171.84 5.28 172.28 5.33 172.67 5.49 172.93 5.68 173.05 5.91 172.98 6.13 172.76 6.32 172.4 6.44 171.97 6.46"/>
    <line class="cls-3" x1="171.97" y1="6.46" x2="156.69" y2="6.06"/>
    <polyline class="cls-3" points="193.33 7.03 192.89 6.97 192.51 6.83 192.24 6.65 192.13 6.42 192.19 6.19 192.42 6.02 192.78 5.88 193.22 5.86"/>
    <polyline class="cls-3" points="208.48 6.26 208.92 6.31 209.31 6.46 209.57 6.66 209.69 6.87 209.63 7.11 209.39 7.29 209.04 7.4 208.6 7.43"/>
    <line class="cls-3" x1="208.6" y1="7.43" x2="193.33" y2="7.03"/>
    <polyline class="cls-3" points="229.98 8 229.54 7.95 229.14 7.82 228.88 7.62 228.77 7.38 228.83 7.17 229.06 6.99 229.42 6.86 229.85 6.83"/>
    <polyline class="cls-3" points="245.12 7.24 245.56 7.29 245.95 7.43 246.21 7.63 246.32 7.85 246.26 8.08 246.03 8.27 245.67 8.38 245.24 8.41"/>
    <line class="cls-3" x1="245.24" y1="8.41" x2="229.98" y2="8"/>
    <polyline class="cls-3" points="266.62 8.97 266.17 8.92 265.78 8.8 265.51 8.59 265.41 8.37 265.47 8.14 265.7 7.95 266.05 7.83 266.49 7.79"/>
    <polyline class="cls-3" points="281.76 8.21 282.2 8.27 282.59 8.4 282.85 8.59 282.96 8.83 282.9 9.03 282.67 9.24 282.32 9.35 281.88 9.39"/>
    <line class="cls-3" x1="281.88" y1="9.38" x2="266.61" y2="8.97"/>
    <line class="cls-3" x1="453.49" y1="15.12" x2="448.61" y2="15.19"/>
    <line class="cls-4" x1="469.89" y1="15.66" x2="469.67" y2="15.66"/>
    <line class="cls-3" x1="469.08" y1="15.54" x2="453.49" y2="15.12"/>
    <path class="cls-1" d="M468.79,16.46c0-.4.12-.77.29-.92"/>
    <polyline class="cls-1" points="469.07 17.14 468.96 17.16 468.86 17.03 468.81 16.87 468.79 16.68 468.79 16.57"/>
    <polyline class="cls-2" points="469.08 15.54 469.56 15.15 469.89 14.71 470.07 14.26 470.1 13.79 469.97 13.32 469.69 12.85 469.27 12.38 468.71 11.96"/>
    <polyline class="cls-3" points="468.19 13.6 468.13 13.8 467.92 13.98 467.56 14.11 467.12 14.17 466.68 14.15 466.29 14.03 466.01 13.88 465.89 13.66 465.95 13.45 466.16 13.28 466.52 13.15 466.95 13.1 467.4 13.13 467.8 13.21 468.07 13.37 468.19 13.6"/>
    <line class="cls-2" x1="469.89" y1="15.66" x2="469.88" y2="16.3"/>
    <path class="cls-2" d="M469.88,16.3c-.25.4-.52.68-.82.84"/>
    <line class="cls-1" x1="1.02" y1="4.65" x2="1.03" y2="4.01"/>
    <path class="cls-2" d="M1.72,5.4c-.25-.18-.49-.43-.71-.74"/>
    <polyline class="cls-1" points="1.72 5.4 1.78 5.42 1.83 5.4 1.87 5.36 1.92 5.27 1.96 5.12 1.98 4.9 1.99 4.83"/>
    <path class="cls-1" d="M1.74,3.78c.16.19.26.56.25.95"/>
    <polyline class="cls-2" points="1.43 .75 1.1 1.09 .88 1.46 .76 1.85 .75 2.25 .84 2.64 1.04 3.04 1.35 3.43 1.74 3.77"/>
    <line class="cls-3" x1="1.74" y1="3.78" x2="17.69" y2="4.21"/>
    <line class="cls-2" x1="1.43" y1=".75" x2="17.38" y2="1.16"/>
    <polyline class="cls-1" points="4.66 2.34 4.62 2.51 4.44 2.65 4.17 2.74 3.85 2.78 3.51 2.72 3.22 2.62 3.02 2.48 2.93 2.3 2.98 2.12 3.15 1.99 3.42 1.91 3.75 1.89 4.08 1.92 4.38 2.02 4.58 2.17 4.66 2.34"/>
    <line class="cls-2" x1="1.03" y1="4.01" x2="1.29" y2="4.01"/>
    <line class="cls-3" x1="17.69" y1="4.21" x2="22.92" y2="4.54"/>
    <line class="cls-3" x1="65.19" y1="5.86" x2="22.92" y2="4.54"/>
  </g>
</svg>