<?xml version="1.0" encoding="UTF-8"?>
<svg id="Layer_2" data-name="Layer 2" xmlns="http://www.w3.org/2000/svg" viewBox="0 0 22.74 121.74">
  <defs>
    <style>
      .cls-1 {
        fill: none;
        stroke: #231f20;
        stroke-linecap: round;
        stroke-linejoin: round;
        stroke-width: .75px;
      }
    </style>
  </defs>
  <g id="Layer_1-2" data-name="Layer 1">
    <path class="cls-1" d="M17.22,5.1l.12-.05M15.23,5.94c.7-.18,1.37-.46,1.99-.84M15.11,5.99l.12-.05M7.52,5.94l.12.05M5.53,5.1c.62.38,1.29.66,1.99.84M5.41,5.05l.11.05M21.32,88.53v-.09M1.42,88.43v.1s0,0,0,0M9.94,92.02v-59.47M12.8,32.55v59.47M16.51,25.47l-.08.39-.25.38-.4.35-.54.32-.67.27-.77.21-.85.15-.9.09-.92.02-.92-.05-.88-.12-.81-.18-.72-.24-.61-.29-.47-.34-.32-.36-.16-.39-.02-.19M21.33,28.96v59.47M21.33,88.43c.03-.13.04-.25.04-.38M1.37,88.05c0,.13.02.26.04.38M1.42,88.43V28.96M1.38,26.08v-.09M3.78,93.32l.5.2,1.02.34,1.1.28,1.16.22,1.21.16,1.25.1,1.26.04,1.26-.03,1.25-.09,1.22-.15,1.17-.21,1.11-.27,1.03-.33.94-.38.84-.43.73-.48.61-.53.46-.58.31-.61.14-.62v-.36M.39,89.75c.34,1.74,1.42,2.77,3.38,3.57M.38,89.16v.52M22.37,89.68v-.52M1.37,87.04c-.64.52-1.01,1.32-.98,2.15M22.35,89.07c-.02-.78-.38-1.52-.98-2.03M6.23,14.01v11.47M16.51,25.47v-11.47M5.87,13.87l.46.18.95.29,1.01.23,1.05.16,1.08.09,1.09.03,1.09-.04,1.07-.11,1.03-.17.98-.24.92-.31.85-.38.76-.46.59-.49.45-.52.32-.55.18-.58.04-.52M2.96,10.46c.17,1.63,1.14,2.77,2.91,3.41M2.95,4.77v5.69M19.8,10.46v-5.7M16.88,1.35l-.46-.18-.95-.3-1.01-.23-1.05-.16-1.08-.09-1.1-.03-1.09.04-1.07.11-1.03.17-.98.24-.92.31-.85.38-.76.46-.59.49-.45.52-.32.55-.18.58-.04.55M19.79,4.79c-.15-1.64-1.31-3.02-2.91-3.44M18.82,88.98h1.94M20.76,88.98c.27,0,.5-.19.56-.45M1.43,88.53c.06.27.29.45.56.45M1.98,88.98h1.94M18.82,88.98c-.22-.02-.44.03-.64.12M4.57,89.11c-.2-.1-.43-.15-.65-.13M4.55,89.07c1.31,1.4,3.14,2.2,5.06,2.22M13.14,91.3c1.92-.02,3.74-.82,5.06-2.22M13.14,91.3c-.12,0-.23.04-.34.08M9.94,91.38c-.11-.04-.22-.07-.34-.08M12.25,92.59c.31-.01.55-.26.55-.57M9.94,92.02c0,.3.24.55.55.57M10.49,92.59l.63.02,1.12-.02M1.65,29.02c1.92,2.22,4.74,3.08,7.67,2.99M13.43,32.01c2.93.08,5.76-.76,7.7-2.96M13.43,32.01c-.33-.02-.6.23-.62.55M9.94,32.56c-.03-.32-.3-.56-.62-.55M21.37,88.05V25.99M1.37,25.99v62.06M6.23,22.06l-.15.04-.99.31-.9.36-.8.42-.69.47-.56.52-.42.57-.24.53-.11.59.02.23M21.37,25.99c-.62-2.21-2.57-3.78-4.86-3.93M7.26,95.57c.1,0,.2.01.3.02M5.63,95.16c.51.24,1.07.38,1.63.41M5.17,94.62c.06.24.23.44.46.54M11.76,95.86c1.12-.3,2.23-.68,3.3-1.13M8.33,96.52c1.16-.14,2.3-.36,3.43-.66M5.73,96.6c.31.02.62.03.94.03.56,0,1.11-.03,1.67-.1M3.44,96.02c.72.33,1.5.53,2.29.58M2.79,95.25c.09.34.33.61.64.76M2.97,94.27c-.14.2-.22.44-.22.68,0,.1.01.2.04.3M3.6,93.52c-.23.24-.44.49-.63.76M5.14,93.99v.44M7.26,100.12c.1,0,.2.02.3.02M5.63,99.71c.51.23,1.07.38,1.63.41M5.17,99.17c.06.24.23.44.46.54M18.58,94.64c-.48-.22-1-.39-1.52-.48M19.22,95.4c-.09-.34-.33-.61-.65-.76M19.04,96.38c.14-.2.22-.43.22-.68,0-.1-.01-.2-.04-.3M17.35,98.04c.66-.44,1.23-1,1.7-1.65M15.06,99.27c.8-.34,1.57-.75,2.29-1.24M11.76,100.41c1.12-.3,2.23-.68,3.3-1.14M8.33,101.08c1.16-.14,2.3-.36,3.43-.66M5.73,101.15c.31.02.62.03.94.03.56,0,1.11-.03,1.67-.1M3.44,100.57c.72.33,1.5.53,2.29.58M2.79,99.81c.09.34.33.61.64.76M2.97,98.82c-.14.2-.22.44-.22.68,0,.1.01.21.04.3M4.67,97.18c-.66.44-1.24,1-1.7,1.65M4.96,96.98c-.1.06-.2.13-.29.19M16.72,96.74c.1-.13.15-.3.15-.46M15.51,97.91c.47-.32.88-.71,1.21-1.17M13.89,98.79c.57-.24,1.11-.54,1.62-.88M11.54,99.6c.8-.21,1.58-.49,2.35-.81M11.01,99.73c.18-.04.36-.09.54-.13M5.14,97.02v1.96M16.87,94.27v2M7.26,104.7c.1,0,.2.01.3.02M5.63,104.29c.51.23,1.07.38,1.63.41M5.17,103.74c.06.24.23.44.46.54M18.58,99.22c-.48-.22-1-.39-1.52-.48M19.22,99.98c-.09-.33-.33-.62-.65-.76M19.04,100.96c.14-.2.22-.44.22-.68,0-.1-.01-.2-.04-.3M17.35,102.61c.66-.44,1.23-1,1.7-1.65M15.06,103.85c.8-.34,1.57-.76,2.29-1.24M11.76,104.99c1.12-.3,2.23-.68,3.3-1.14M8.33,105.65c1.16-.14,2.3-.36,3.43-.66M5.73,105.72c.31.02.62.03.94.03.56,0,1.11-.03,1.67-.1M3.44,105.14c.72.33,1.5.53,2.29.58M2.79,104.38c.09.34.33.61.64.76M2.97,103.4c-.14.2-.22.44-.22.68,0,.11.01.21.04.3M4.67,101.75c-.66.44-1.24,1-1.7,1.65M4.96,101.56c-.1.06-.2.13-.29.19M16.72,101.31c.1-.13.15-.29.15-.46M15.51,102.49c.47-.31.88-.71,1.21-1.17M13.89,103.37c.57-.24,1.11-.54,1.62-.88M11.54,104.18c.8-.21,1.58-.49,2.35-.81M11.01,104.31c.18-.04.36-.09.54-.14M5.14,101.59v1.97M16.87,98.85v2M5.14,103.56c0,.06,0,.12.03.18M7.26,108.77c.1,0,.2,0,.3.01M5.63,108.35c.51.23,1.07.38,1.63.41M5.17,107.81c.06.24.23.44.46.54M5.14,107.62c0,.06,0,.12.03.19M7.34,112.77c.1,0,.2.02.3.02M5.71,112.36c.51.24,1.07.38,1.63.41M5.26,111.82c.06.24.23.44.46.54M5.23,111.64c0,.06.01.12.03.18M7.43,116.79c.1,0,.2.01.3.02M5.8,116.37c.51.23,1.07.38,1.63.41M5.34,115.83c.06.24.23.44.46.54M5.32,115.65c0,.06.01.12.03.19M6.97,119.69c.25.11.5.2.76.28M5.56,118.73c.4.41.88.74,1.41.96M5.23,117.92c0,.31.12.6.33.82M5.24,117.73c0,.06-.01.12-.01.19M18.75,111.31c-.49-.22-1-.39-1.52-.48M19.39,112.07c-.09-.33-.33-.61-.64-.76M18.66,107.3c-.49-.22-1-.39-1.52-.48M19.31,108.06c-.09-.34-.33-.62-.64-.76M18.58,103.28c-.48-.22-1-.38-1.52-.48M19.22,104.05c-.09-.34-.33-.61-.65-.76M19.04,105.02c.14-.2.22-.43.22-.68,0-.1-.01-.2-.04-.3M17.35,106.68c.66-.45,1.23-1,1.7-1.65M15.06,107.92c.8-.34,1.57-.76,2.29-1.24M11.76,109.06c1.12-.3,2.23-.68,3.3-1.14M8.33,109.72c1.16-.14,2.3-.36,3.43-.66M5.73,109.79c.31.02.62.03.94.03.56,0,1.11-.03,1.67-.1M3.44,109.21c.72.33,1.5.53,2.29.58M2.79,108.45c.09.34.33.61.64.76M2.97,107.47c-.14.2-.22.43-.22.68,0,.1.01.2.04.3M4.67,105.81c-.66.45-1.24,1-1.7,1.65M4.96,105.63c-.1.06-.2.12-.29.19M19.13,109.04c.14-.2.22-.43.22-.68,0-.1-.01-.2-.04-.3M17.43,110.69c.66-.44,1.24-1,1.7-1.65M15.15,111.93c.8-.34,1.57-.76,2.29-1.24M11.85,113.07c1.12-.3,2.23-.68,3.3-1.14M8.42,113.73c1.16-.14,2.3-.36,3.43-.67M5.82,113.8c.31.02.62.03.93.03.56,0,1.11-.03,1.67-.1M3.52,113.22c.72.33,1.5.53,2.29.58M2.88,112.46c.09.34.33.62.64.76M3.06,111.48c-.14.2-.22.43-.22.67,0,.11.01.21.04.3M4.75,109.83c-.66.44-1.24,1-1.7,1.65M5.05,109.64c-.1.06-.2.13-.29.19M19.22,113.05c.14-.2.22-.44.22-.68,0-.1-.01-.2-.04-.3M17.52,114.7c.66-.44,1.24-1,1.7-1.65M15.23,115.94c.8-.34,1.57-.75,2.29-1.24M11.93,117.08c1.12-.3,2.23-.68,3.3-1.14M8.51,117.74c1.16-.14,2.3-.36,3.43-.66M5.9,117.81c.31.02.62.03.94.03.56,0,1.12-.03,1.67-.1M3.61,117.23c.73.33,1.5.53,2.29.58M2.97,116.47c.09.34.33.61.64.76M3.14,115.49c-.14.2-.22.44-.22.68,0,.1.01.2.04.3M4.84,113.84c-.66.44-1.24,1-1.7,1.65M5.13,113.65c-.1.06-.2.13-.29.19M16.72,105.38c.1-.14.15-.3.15-.47M15.51,106.55c.47-.32.88-.71,1.21-1.17M13.89,107.43c.57-.24,1.11-.54,1.62-.88M11.54,108.24c.8-.22,1.58-.48,2.35-.81M11.01,108.38c.18-.04.36-.09.54-.14M16.81,109.39c.1-.14.15-.3.15-.46M15.6,110.56c.47-.31.88-.71,1.21-1.17M13.97,111.44c.57-.24,1.11-.54,1.63-.88M11.63,112.25c.8-.22,1.58-.48,2.34-.81M11.09,112.39c.18-.04.36-.09.54-.13M16.89,113.4c.1-.13.15-.3.15-.46M15.69,114.57c.47-.32.88-.71,1.21-1.17M14.06,115.46c.57-.24,1.11-.54,1.63-.88M11.72,116.27c.8-.21,1.58-.49,2.34-.81M11.18,116.4c.18-.04.36-.09.54-.13M16.8,118.73c.21-.22.34-.51.34-.82M15.39,119.69c.53-.22,1.01-.55,1.41-.96M13.6,120.22c.61-.11,1.21-.29,1.79-.53M11.18,120.43c.81,0,1.62-.08,2.42-.21M17.05,110.94v2M5.32,113.68v1.96M16.96,106.93v2M5.23,109.67v1.97M15.19,120.15s.02-.02.03-.03M14.19,120.84c.38-.16.72-.39,1.01-.69M12.91,121.21c.44-.08.87-.2,1.28-.38M11.18,121.36c.58,0,1.16-.05,1.73-.15M9.45,121.21c.57.1,1.15.15,1.73.15M8.17,120.84c.41.18.84.3,1.28.38M7.17,120.15c.29.29.63.53,1.01.69M7.14,120.12s.02.02.03.03M15.22,120.12l.8-.76M7.14,120.12l-.8-.76M5.14,105.66v1.97M17.14,114.95v2.97M16.87,102.92v2"/>
    <path class="cls-1" d="M1.37,87.39l-.18.29-.21.55-.04.55.12.55.29.54.45.52.59.49.74.46.87.41.98.37,1.08.31,1.17.25,1.23.19,1.28.12,1.3.05,1.31-.02,1.29-.09,1.26-.15,1.2-.22,1.13-.28,1.04-.34.93-.39.8-.44.67-.48.52-.51.37-.53.21-.55.04-.55-.12-.55-.29-.54v-.02M19.8,4.78v.17s-.15.49-.15.49l-.3.48-.46.46-.61.43-.74.38-.86.34-.96.28-1.05.22-1.11.16-1.16.09-1.17.03-1.17-.04-1.15-.11-1.1-.18-1.03-.24-.94-.3-.83-.35-.71-.4-.57-.43-.42-.46-.26-.48-.1-.49v-.06M4.48,88.83c0,.08.02.17.07.24M18.2,89.07c.05-.07.07-.16.07-.24M4.48,52.12v36.71M4.48,31.42v20.7M18.27,88.83V31.42M1.58,25.12v.55l.17.55.35.54.51.51.67.48.81.43.94.39,1.06.33,1.15.27,1.22.2,1.27.13,1.3.05,1.31-.02,1.29-.09,1.25-.17,1.19-.23,1.1-.3,1-.36.88-.41.74-.45.59-.49.43-.52.26-.54.09-.55M.38,89.68v.06M22.37,89.09v.07M12.3,2.14l2.78-1.18M7.66.96l2.78,1.18M11.69,2.09c-.2,0-1.05.03-1.25.05M10.44,2.14l.04.85.09,1.83M12.18,4.81l.09-1.83.04-.85M12.3,2.14c-.2-.02-.4-.04-.61-.05M15.11.95l-1.45,4.42M9.09,5.37L7.63.95M8.1,3.33c0,.09,0,.18,0,.27M14.64,3.6c0-.09,0-.18,0-.27M14.52,3.86c.06-.08.1-.17.12-.26M14.52,3.07l2.78-1.18M14.64,3.33c-.02-.09-.06-.18-.12-.26M8.22,3.07c-.06.08-.1.17-.12.26M5.44,1.9l2.78,1.18M8.1,3.6c.02.09.06.18.12.26M5.44,5.04l2.78-1.18M14.52,3.86l2.78,1.17M10.44,4.8c.2.03.99.03,1.2.04M7.66,5.97l2.78-1.17M12.3,4.8l2.78,1.17M11.69,4.85c.2,0,.41-.03.61-.05M5.53,1.84l-.11.05M7.52,1c-.7.18-1.37.47-1.99.84M7.63.95l-.12.05M15.22,1l-.12-.05M17.21,1.84c-.62-.38-1.29-.66-1.99-.84M17.33,1.89l-.12-.05"/>
  </g>
</svg>