<?xml version="1.0" encoding="UTF-8"?>
<svg id="Layer_2" data-name="Layer 2" xmlns="http://www.w3.org/2000/svg" viewBox="0 0 42.71 45.68">
  <defs>
    <style>
      .cls-1 {
        fill: none;
        stroke: #231f20;
        stroke-linecap: round;
        stroke-linejoin: round;
        stroke-width: .75px;
      }
    </style>
  </defs>
  <g id="Layer_1-2" data-name="Layer 1">
    <polyline class="cls-1" points="41.93 7.98 41.92 7.67 41.84 7.22 41.7 6.78 41.5 6.34 41.25 5.92 40.92 5.49 40.54 5.08 40.09 4.67 39.58 4.28 39.02 3.9 38.4 3.54 37.73 3.2 37.01 2.87 36.25 2.57 35.44 2.28 34.6 2.01 33.71 1.76 33.59 1.73"/>
    <polyline class="cls-1" points="33.59 1.73 31.83 1.32 30.85 1.13 29.83 .96 28.8 .81 27.73 .68 26.65 .58 25.55 .49 24.44 .43 23.33 .39 22.2 .38 21.07 .38 19.94 .41 18.82 .46 17.7 .53 16.59 .62 15.5 .74 14.42 .88 13.36 1.04 12.33 1.22 11.32 1.42 10.34 1.64 9.39 1.87 8.48 2.13 7.6 2.4 6.76 2.7 5.96 3.01 5.21 3.34 4.5 3.68 3.84 4.04 3.22 4.42 2.66 4.81 2.16 5.23 1.71 5.65 1.32 6.1 .99 6.55 .74 7.02 .55 7.48 .43 7.95 .38 8.41 .38 8.61"/>
    <line class="cls-1" x1="41.97" y1="9.94" x2="41.94" y2="7.97"/>
    <line class="cls-1" x1=".74" y1="32.33" x2=".83" y2="37.76"/>
    <line class="cls-1" x1=".51" y1="17.62" x2=".59" y2="22.74"/>
    <line class="cls-1" x1=".38" y1="8.62" x2=".4" y2="10.32"/>
    <g>
      <path class="cls-1" d="M15.17,18.02c4.31.61,12.09.18,16.31-.9"/>
      <path class="cls-1" d="M14.9,18.01c-.24-.03-.64.05-.85.15"/>
    </g>
    <polyline class="cls-1" points="14.9 18.01 14.96 18.01 15.17 18.03"/>
    <path class="cls-1" d="M32.21,17.1c-.2-.06-.54-.05-.73.02"/>
    <polyline class="cls-1" points=".83 37.76 .83 37.93 .9 38.38 1.02 38.81 1.2 39.24 1.44 39.66 1.75 40.07 2.12 40.48 2.55 40.88 3.04 41.27 3.59 41.64 4.2 42 4.86 42.34 5.56 42.67 6.31 42.97 7.11 43.27 7.94 43.54 8.82 43.79 9.73 44.03 10.68 44.24 11.66 44.44 12.66 44.62 13.69 44.78 14.75 44.92 15.83 45.04 16.92 45.13 18.02 45.21 19.14 45.26 20.26 45.3 21.39 45.31 22.52 45.3 23.65 45.27 24.77 45.21 25.88 45.14 26.97 45.04 28.05 44.93 29.12 44.79 30.16 44.63 31.17 44.46 32.16 44.26 33.12 44.04 34.04 43.81 34.93 43.56 35.78 43.29 36.59 43 37.31 42.72"/>
    <g>
      <path class="cls-1" d="M4.9,18c.04-1.08-.61-2.56-1.43-3.25"/>
      <path class="cls-1" d="M4.65,19.66c.21-.28.33-.8.27-1.14"/>
    </g>
    <line class="cls-1" x1="4.91" y1="18" x2="4.91" y2="18.52"/>
    <path class="cls-1" d="M39.69,13.62c-.46.45-.78,1.35-.7,1.99"/>
    <polyline class="cls-1" points="3.38 14.68 3.4 14.69 3.47 14.75"/>
    <line class="cls-1" x1="39.33" y1="38.3" x2="38.98" y2="15.61"/>
    <g>
      <path class="cls-1" d="M.41,10.32c.1,1.7,1.43,3.65,2.97,4.36"/>
      <path class="cls-1" d="M39.69,13.61c1.22-.65,2.24-2.29,2.28-3.67"/>
    </g>
    <line class="cls-1" x1="10.44" y1="37.16" x2="9.13" y2="37.74"/>
    <path class="cls-1" d="M2.13,14.17c-.93.72-1.66,2.28-1.61,3.46"/>
    <line class="cls-1" x1="11.23" y1="37.46" x2="11.23" y2="37.46"/>
    <line class="cls-1" x1="11.23" y1="37.47" x2="10.99" y2="37.27"/>
    <polyline class="cls-1" points="10.99 37.26 10.94 37.23 10.88 37.21"/>
    <line class="cls-1" x1="10.88" y1="37.21" x2="10.67" y2="37.15"/>
    <path class="cls-1" d="M10.67,37.15c-.06-.02-.16-.01-.22.02"/>
    <line class="cls-1" x1="7.22" y1="36.26" x2="6.03" y2="36.79"/>
    <line class="cls-1" x1="8" y1="36.56" x2="8" y2="36.56"/>
    <line class="cls-1" x1="8.01" y1="36.56" x2="7.77" y2="36.36"/>
    <polyline class="cls-1" points="7.77 36.36 7.72 36.33 7.66 36.3"/>
    <line class="cls-1" x1="7.66" y1="36.31" x2="7.44" y2="36.24"/>
    <g>
      <path class="cls-1" d="M7.44,36.24c-.06-.02-.16-.01-.22.02"/>
      <path class="cls-1" d="M37.32,42.71c2.12-.58,4.37-2.77,5-4.87"/>
    </g>
    <line class="cls-1" x1="4" y1="35.36" x2="3.5" y2="35.58"/>
    <line class="cls-1" x1="4.78" y1="35.66" x2="4.78" y2="35.66"/>
    <line class="cls-1" x1="4.78" y1="35.66" x2="4.54" y2="35.46"/>
    <polyline class="cls-1" points="4.54 35.46 4.49 35.43 4.43 35.4"/>
    <path class="cls-1" d="M39.34,38.3c-.04.23.05.58.19.77"/>
    <line class="cls-1" x1="4.43" y1="35.4" x2="4.22" y2="35.34"/>
    <path class="cls-1" d="M4.22,35.34c-.06-.02-.16-.01-.22.02"/>
    <line class="cls-1" x1="39.5" y1="35.75" x2="39.3" y2="35.84"/>
    <g>
      <path class="cls-1" d="M2.13,14.17c.06-.06.16-.19.2-.26"/>
      <path class="cls-1" d="M42.33,36.82c0-.24-.18-.47-.41-.53"/>
    </g>
    <line class="cls-1" x1="41.92" y1="36.3" x2="39.88" y2="35.73"/>
    <line class="cls-1" x1="42.34" y1="37.68" x2="42.33" y2="36.82"/>
    <polyline class="cls-1" points="42.32 37.84 42.33 37.78 42.33 37.68"/>
    <g>
      <path class="cls-1" d="M39.88,35.73c-.11-.04-.28-.02-.38.03"/>
      <path class="cls-1" d="M16.54,32.93c-.28.11-.75.4-.99.58"/>
    </g>
    <line class="cls-1" x1="16.54" y1="32.93" x2="17.47" y2="32.5"/>
    <polyline class="cls-1" points="3.24 35.77 2.7 35.39 2.22 35.01 1.81 34.61 1.46 34.21 1.18 33.8 .97 33.38 .83 32.96 .75 32.53 .75 32.1 .81 31.68 .95 31.25 1.15 30.83 1.43 30.41 1.77 30 2.17 29.59 2.64 29.19 3.18 28.8 3.77 28.42 4.43 28.05 5.14 27.7 5.62 27.48"/>
    <g>
      <path class="cls-1" d="M3.34,35.75s-.03.02-.04.03c-.02,0-.03,0-.05,0,0,0-.01,0-.01,0"/>
      <path class="cls-1" d="M3.47,35.6s-.1.12-.13.16"/>
      <path class="cls-1" d="M3.58,35.58s-.04-.02-.05-.01c-.02,0-.03,0-.05.02,0,0,0,0,0,0"/>
      <path class="cls-1" d="M4.13,36.28c.39.21,1.16.57,1.58.73"/>
      <path class="cls-1" d="M5.83,36.98s-.03.02-.05.03c-.02,0-.04,0-.06,0,0,0-.01,0-.02,0"/>
      <path class="cls-1" d="M6,36.81s-.13.13-.17.17"/>
      <path class="cls-1" d="M6.13,36.78s-.04-.01-.06,0c-.02,0-.04.01-.06.02,0,0-.01,0-.01.01"/>
      <path class="cls-1" d="M6.81,37.42c.48.17,1.42.45,1.92.58"/>
      <path class="cls-1" d="M8.88,37.96s-.04.03-.06.04c-.02,0-.04,0-.07,0,0,0-.02,0-.02,0"/>
      <path class="cls-1" d="M9.08,37.77s-.15.14-.2.19"/>
      <path class="cls-1" d="M9.24,37.74s-.05,0-.07,0c-.02,0-.05.01-.07.03,0,0-.01,0-.02.02"/>
      <path class="cls-1" d="M10.05,38.31c.69.16,2.06.41,2.77.51"/>
      <path class="cls-1" d="M12.68,29.23c.32.05.64.12.95.23.32.1.64.23.95.38.31.15.61.33.9.52.29.19.57.41.82.65.26.23.49.49.7.76.21.27.4.56.56.86.15.3.28.61.36.93.08.32.13.65.14.98,0,.32-.03.65-.1.97-.07.32-.18.62-.33.9-.29.57-.71,1.07-1.22,1.47-.25.2-.52.37-.8.51-.28.14-.58.26-.89.34-.61.17-1.25.21-1.9.12"/>
      <path class="cls-1" d="M9.9,28.72c.69.16,2.06.41,2.77.51"/>
      <path class="cls-1" d="M9.74,28.76s.04-.03.06-.04c.02,0,.05-.01.08,0,0,0,.02,0,.03,0"/>
      <path class="cls-1" d="M9.74,28.76c-.05.05-.16.14-.21.19"/>
      <path class="cls-1" d="M9.37,28.99s.05,0,.08,0c.02,0,.05-.01.07-.03,0,0,.01-.01.02-.02"/>
      <path class="cls-1" d="M9.11,28.92c.07.02.2.05.27.06"/>
      <path class="cls-1" d="M8.95,28.81s.04.05.06.07c.02.02.05.03.07.04,0,0,.02,0,.02,0"/>
      <path class="cls-1" d="M8.74,28.52c.05.07.15.22.21.29"/>
      <path class="cls-1" d="M8.58,28.4s.05.02.07.03c.02.02.05.04.07.06,0,0,.01.02.02.02"/>
      <path class="cls-1" d="M6.67,27.82c.48.17,1.42.45,1.91.58"/>
      <path class="cls-1" d="M6.53,27.85s.03-.02.05-.03c.02,0,.04,0,.06,0,0,0,.01,0,.02,0"/>
      <path class="cls-1" d="M6.53,27.85s-.13.13-.18.18"/>
      <path class="cls-1" d="M6.22,28.05s.04.01.06,0c.02,0,.04-.01.06-.02,0,0,.01,0,.01-.01"/>
      <path class="cls-1" d="M5.99,27.97c.06.02.17.06.22.08"/>
      <path class="cls-1" d="M5.86,27.84s.03.05.05.07c.02.02.04.04.06.05,0,0,.01,0,.02,0"/>
      <path class="cls-1" d="M5.68,27.54c.04.08.13.23.17.31"/>
      <path class="cls-1" d="M5.55,27.41s.04.02.06.04c.02.02.04.04.05.07,0,0,.01.02.02.02"/>
      <path class="cls-1" d="M3.98,26.68c.39.21,1.16.57,1.58.73"/>
      <path class="cls-1" d="M3.87,26.7s.03-.02.04-.03c.02,0,.03,0,.05,0,0,0,.01,0,.02,0"/>
      <path class="cls-1" d="M3.87,26.7s-.1.12-.14.16"/>
      <path class="cls-1" d="M3.62,26.87s.03.02.05.01c.02,0,.03,0,.05-.02,0,0,0,0,0-.01"/>
      <path class="cls-1" d="M3.44,26.77s.13.08.18.1"/>
      <path class="cls-1" d="M3.33,26.63s.03.06.04.08c.02.02.03.04.05.05,0,0,0,0,.01.01"/>
      <path class="cls-1" d="M3.2,26.31c.03.08.1.24.14.32"/>
      <path class="cls-1" d="M3.09,26.17s.03.03.05.05c.01.02.03.05.04.08,0,0,0,.01,0,.02"/>
      <path class="cls-1" d="M.59,22.74c.12,1.36,1.24,2.9,2.5,3.43"/>
    </g>
    <line class="cls-1" x1="36.26" y1="16.5" x2="36.29" y2="18.93"/>
    <g>
      <path class="cls-1" d="M36.29,18.93c.48-.18,1.39-.58,1.85-.82"/>
      <path class="cls-1" d="M36.26,16.5c.48-.18,1.39-.58,1.85-.82"/>
      <path class="cls-1" d="M34.12,16.46c.16.11.31.23.44.39.13.15.24.32.33.51.18.38.28.83.29,1.32"/>
      <path class="cls-1" d="M31.89,16.17c.42-.1.82-.13,1.21-.08.38.04.73.16,1.03.36"/>
      <path class="cls-1" d="M14.89,17.11c4.49.64,12.6.19,17-.94"/>
      <path class="cls-1" d="M14.46,17.09c.14,0,.28.01.43.03"/>
      <path class="cls-1" d="M11.22,19.99c0-.44.07-.86.23-1.23.08-.18.18-.36.3-.51.12-.16.25-.3.4-.43.3-.25.66-.44,1.05-.56.39-.12.82-.17,1.26-.17"/>
    </g>
    <line class="cls-1" x1="11.22" y1="20.51" x2="11.22" y2="19.99"/>
    <g>
      <path class="cls-1" d="M14.57,24.35c-.45-.09-.87-.25-1.27-.47-.4-.22-.76-.52-1.07-.87-.31-.35-.56-.75-.73-1.18-.09-.21-.15-.44-.2-.66-.05-.22-.07-.44-.08-.66"/>
      <path class="cls-1" d="M15,24.41c-.14-.01-.29-.04-.43-.06"/>
      <path class="cls-1" d="M15,24.41c4.49.64,12.6.19,17-.94"/>
      <path class="cls-1" d="M34.21,22.04c-.59.75-1.37,1.24-2.21,1.43"/>
      <path class="cls-1" d="M35.18,19.19c0,.25-.02.49-.06.74-.04.25-.1.51-.19.75-.17.49-.42.96-.73,1.36"/>
    </g>
    <line class="cls-1" x1="35.17" y1="18.67" x2="35.18" y2="19.19"/>
    <g>
      <path class="cls-1" d="M3.24,21.18c-.07-.03-.15-.07-.22-.12"/>
      <path class="cls-1" d="M5.23,18.83c0,.44-.05.85-.16,1.19-.06.17-.12.33-.2.47-.08.14-.17.27-.27.37-.2.21-.42.34-.66.39-.23.05-.47.02-.7-.08"/>
    </g>
    <line class="cls-1" x1="5.23" y1="18.31" x2="5.23" y2="18.83"/>
    <g>
      <path class="cls-1" d="M3.12,13.91c.23.18.48.43.71.72.24.3.47.65.68,1.04.2.39.38.83.51,1.28.06.23.11.46.15.68.03.22.05.45.06.67"/>
      <path class="cls-1" d="M2.91,13.76c.07.05.14.1.22.16"/>
      <path class="cls-1" d="M24.66,3.13c-3.18.99-8.91,3.53-11.79,5.21"/>
      <path class="cls-1" d="M13.21,9.77c-.51-.14-.84-.38-.91-.64-.03-.13,0-.27.1-.4.1-.13.25-.26.47-.38"/>
      <path class="cls-1" d="M14.04,10c-.21-.06-.62-.17-.83-.23"/>
      <path class="cls-1" d="M17.6,9.67c-.43.23-1.05.4-1.71.46-.33.03-.66.03-.98.01-.32-.02-.61-.07-.87-.15"/>
      <path class="cls-1" d="M29.38,4.46c-3.18,1-8.91,3.53-11.79,5.21"/>
      <path class="cls-1" d="M29.05,3.36c.51.15.84.35.9.55.03.1,0,.2-.1.3-.1.09-.26.18-.47.25"/>
      <path class="cls-1" d="M29.05,3.36c-.21-.06-.62-.18-.83-.23"/>
      <path class="cls-1" d="M24.66,3.13c.43-.14,1.05-.23,1.71-.23.33,0,.66.02.98.06.32.04.61.09.87.16"/>
      <path class="cls-1" d="M31.28,3.72c-1.07-.34-3.21-.93-4.3-1.2"/>
      <path class="cls-1" d="M33.59,1.93c-.62.41-1.76,1.29-2.31,1.79"/>
      <path class="cls-1" d="M33.18,18.66c.05-.44-.18-1.05-.5-1.35"/>
      <path class="cls-1" d="M15.4,22.63c4.19.6,11.76.18,15.86-.88"/>
    </g>
    <line class="cls-1" x1="33.18" y1="18.66" x2="33.19" y2="19.18"/>
    <g>
      <path class="cls-1" d="M32.74,20.95c.27-.43.48-1.26.45-1.77"/>
      <path class="cls-1" d="M31.26,21.76c.28-.04.55-.12.81-.26.25-.13.48-.32.67-.55"/>
      <path class="cls-1" d="M31.26,21.76c-4.35-1.3-11.68-.9-15.86.88"/>
      <path class="cls-1" d="M15.12,22.61c.09.01.19.02.28.02"/>
      <path class="cls-1" d="M12.97,20.37c0,.27.06.55.17.8.11.26.27.5.47.71.2.21.44.38.69.5.26.12.53.2.82.24"/>
    </g>
    <line class="cls-1" x1="12.96" y1="19.85" x2="12.97" y2="20.37"/>
    <line class="cls-1" x1="38.1" y1="15.68" x2="38.5" y2="15.95"/>
    <line class="cls-1" x1="38.5" y1="15.95" x2="38.14" y2="18.11"/>
    <line class="cls-1" x1="8.96" y1="28.82" x2="8.35" y2="29.13"/>
    <path class="cls-1" d="M8.35,29.14c-.08.02-.15.11-.15.19"/>
    <line class="cls-1" x1="8.2" y1="29.33" x2="8.31" y2="29.95"/>
    <path class="cls-1" d="M8.19,30.13c.07-.02.12-.1.12-.18"/>
    <line class="cls-1" x1="8.19" y1="30.13" x2="7.55" y2="30.51"/>
    <polyline class="cls-1" points="7.51 30.8 7.47 30.76 7.44 30.73 7.42 30.69 7.42 30.65 7.43 30.61 7.46 30.58 7.5 30.54 7.55 30.51"/>
    <line class="cls-1" x1="7.51" y1="30.8" x2="8.19" y2="31.27"/>
    <polyline class="cls-1" points="8.18 31.54 8.22 31.51 8.25 31.47 8.27 31.44 8.28 31.4 8.27 31.37 8.25 31.33 8.23 31.3 8.19 31.27"/>
    <line class="cls-1" x1="8.18" y1="31.54" x2="7.78" y2="31.81"/>
    <polyline class="cls-1" points="7.95 32.17 7.86 32.13 7.78 32.09 7.73 32.05 7.69 32 7.68 31.96 7.69 31.91 7.72 31.86 7.78 31.81"/>
    <line class="cls-1" x1="7.95" y1="32.17" x2="8.79" y2="32.44"/>
    <polyline class="cls-1" points="8.95 32.8 9.01 32.75 9.04 32.7 9.06 32.65 9.05 32.6 9.01 32.56 8.96 32.51 8.89 32.47 8.79 32.44"/>
    <line class="cls-1" x1="8.11" y1="33.35" x2="8.95" y2="32.8"/>
    <polyline class="cls-1" points="9.09 33.76 8.84 33.78 8.6 33.77 8.37 33.74 8.19 33.68 8.07 33.6 8.01 33.52 8.02 33.43 8.11 33.35"/>
    <line class="cls-1" x1="10.62" y1="33.57" x2="9.09" y2="33.76"/>
    <polyline class="cls-1" points="11.29 33.83 11.34 33.78 11.34 33.72 11.29 33.67 11.21 33.62 11.09 33.59 10.94 33.57 10.78 33.56 10.62 33.57"/>
    <line class="cls-1" x1="10.54" y1="34.42" x2="11.29" y2="33.83"/>
    <polyline class="cls-1" points="11.67 34.8 11.42 34.83 11.16 34.83 10.92 34.81 10.71 34.76 10.56 34.68 10.48 34.6 10.47 34.51 10.54 34.42"/>
    <line class="cls-1" x1="12.95" y1="34.56" x2="11.67" y2="34.8"/>
    <polyline class="cls-1" points="13.72 34.79 13.75 34.74 13.73 34.68 13.67 34.62 13.57 34.58 13.43 34.55 13.27 34.54 13.1 34.54 12.95 34.56"/>
    <line class="cls-1" x1="13.33" y1="35.18" x2="13.72" y2="34.79"/>
    <polyline class="cls-1" points="14.56 35.51 14.33 35.55 14.07 35.57 13.81 35.55 13.59 35.51 13.41 35.44 13.31 35.36 13.28 35.27 13.33 35.18"/>
    <line class="cls-1" x1="16.37" y1="35.08" x2="14.56" y2="35.51"/>
    <path class="cls-1" d="M17.19,35.16c-.21-.12-.58-.16-.82-.08"/>
    <line class="cls-1" x1="17.19" y1="35.16" x2="17.88" y2="35.74"/>
    <line class="cls-1" x1="11.31" y1="37.76" x2="10.05" y2="38.32"/>
    <polyline class="cls-1" points="11.22 37.42 11.31 37.46 11.39 37.49 11.44 37.54 11.46 37.58 11.46 37.63 11.44 37.67 11.38 37.72 11.31 37.76"/>
    <line class="cls-1" x1="8.09" y1="36.86" x2="6.81" y2="37.42"/>
    <polyline class="cls-1" points="8 36.52 8.09 36.55 8.16 36.59 8.21 36.63 8.24 36.68 8.24 36.73 8.21 36.77 8.16 36.82 8.09 36.86"/>
    <line class="cls-1" x1="4.86" y1="35.95" x2="4.13" y2="36.28"/>
    <polyline class="cls-1" points="4.77 35.62 4.87 35.65 4.94 35.69 4.99 35.73 5.02 35.78 5.01 35.82 4.99 35.87 4.94 35.91 4.86 35.95"/>
    <g>
      <path class="cls-1" d="M4.23,19.5s.06.06.09.08"/>
      <path class="cls-1" d="M10.59,37.15s-.02,0-.03,0"/>
      <path class="cls-1" d="M7.36,36.25s-.03,0-.03,0"/>
    </g>
    <line class="cls-1" x1="10.1" y1="32.05" x2="9.09" y2="32.58"/>
    <path class="cls-1" d="M10.1,32.05s.09-.06.12-.09"/>
    <line class="cls-1" x1="10.85" y1="31.19" x2="10.22" y2="31.97"/>
    <g>
      <path class="cls-1" d="M11.39,30.95c-.14.06-.4.18-.53.24"/>
      <path class="cls-1" d="M11.39,30.95s0,0,.01,0"/>
      <path class="cls-1" d="M39.76,38.98c.87-.48,1.78-1.7,2-2.67"/>
      <path class="cls-1" d="M26.98,2.5c2.21-.28,4.41-.48,6.6-.61"/>
    </g>
    <line class="cls-1" x1="42.34" y1="37.69" x2="42.34" y2="37.68"/>
    <polyline class="cls-1" points="7.91 14.16 7.01 13.89 6.15 13.6 5.35 13.3 4.6 12.98 3.9 12.64 3.27 12.29 2.69 11.92 2.17 11.55 1.71 11.16 1.32 10.76 1 10.36 .74 9.95 .55 9.53 .43 9.11 .38 8.69 .38 8.61"/>
    <polyline class="cls-1" points="41.94 7.98 41.93 8.11 41.88 8.54 41.76 8.96 41.58 9.39 41.32 9.81 41 10.22 40.61 10.63 40.15 11.03 39.63 11.42 39.06 11.8 38.42 12.16 37.72 12.52 36.97 12.86 36.17 13.19 35.32 13.5 34.42 13.79 33.48 14.07 32.49 14.32 31.47 14.56 30.41 14.77 29.33 14.96 28.21 15.13 27.07 15.28 25.91 15.41 24.74 15.51 23.56 15.59 22.36 15.64 21.17 15.67 19.97 15.67 18.78 15.65 17.59 15.61 16.42 15.54 15.26 15.45 14.12 15.33 13.01 15.19 11.92 15.02 10.86 14.84 9.84 14.63 8.85 14.4 7.91 14.16"/>
    <g>
      <path class="cls-1" d="M.4,10.32c.11,1.37,1.24,2.91,2.5,3.44"/>
      <path class="cls-1" d="M.51,17.62c.1,1.38,1.22,2.92,2.5,3.44"/>
      <path class="cls-1" d="M32.68,17.31c-.08-.05-.17-.11-.27-.14-.06-.03-.13-.04-.21-.06"/>
      <path class="cls-1" d="M14.06,18.17s-.07.03-.1.04c-.21.09-.39.24-.54.41-.15.17-.27.35-.34.56-.07.21-.09.43-.11.66"/>
    </g>
    <line class="cls-1" x1="9.83" y1="28.72" x2="9.74" y2="28.76"/>
    <path class="cls-1" d="M4.31,19.59s.09.05.13.07c.05.02.09.02.14.01.04,0,.07-.02.11-.04"/>
    <line class="cls-1" x1="4.71" y1="35.6" x2="4.77" y2="35.62"/>
    <line class="cls-1" x1="3.24" y1="35.77" x2="3.39" y2="35.7"/>
    <line class="cls-1" x1="11.16" y1="37.41" x2="11.22" y2="37.42"/>
    <line class="cls-1" x1="8.73" y1="38" x2="8.95" y2="37.9"/>
    <line class="cls-1" x1="7.94" y1="36.5" x2="8" y2="36.52"/>
    <line class="cls-1" x1="5.7" y1="37.01" x2="5.89" y2="36.92"/>
    <polyline class="cls-1" points="4.31 19.59 4.62 19.6 4.72 19.59"/>
    <line class="cls-1" x1="6.6" y1="27.82" x2="6.53" y2="27.85"/>
    <path class="cls-1" d="M10.55,37.16s-.08,0-.11,0"/>
    <polyline class="cls-1" points="2.73 14.25 2.71 14.27 2.41 14.68 2.17 15.09 2.01 15.5 1.91 15.92 1.89 16.34 1.94 16.75 2.06 17.17 2.25 17.58 2.51 17.98 2.84 18.37 3.24 18.76 3.7 19.14 4.23 19.5"/>
    <path class="cls-1" d="M2.43,13.97c-.09.04-.23.14-.3.21"/>
    <polyline class="cls-1" points="11.22 37.42 11.2 37.43 11.19 37.43"/>
    <path class="cls-1" d="M10.67,37.15s-.06,0-.08,0"/>
    <line class="cls-1" x1="3.92" y1="26.67" x2="3.86" y2="26.7"/>
    <g>
      <path class="cls-1" d="M7.33,36.25s-.08,0-.11,0"/>
      <path class="cls-1" d="M7.44,36.24s-.06,0-.08,0"/>
    </g>
    <polyline class="cls-1" points="17.46 34.4 16.85 34.21 16.29 34 15.79 33.78 15.36 33.54 14.99 33.28 14.69 33.01 14.46 32.73 14.31 32.45 14.23 32.16 14.23 31.86 14.3 31.57 14.45 31.28 14.68 31 14.98 30.72 15.34 30.45 15.48 30.37"/>
    <line class="cls-1" x1="18.06" y1="34.57" x2="17.46" y2="34.4"/>
    <line class="cls-1" x1="14.24" y1="29.69" x2="11.4" y2="30.95"/>
    <line class="cls-1" x1="42.32" y1="37.84" x2="42.34" y2="37.69"/>
    <polyline class="cls-1" points="4.77 35.62 4.76 35.62 4.74 35.63"/>
    <path class="cls-1" d="M39.57,39.07h0c.06.01.12-.04.19-.09"/>
    <line class="cls-1" x1="13.33" y1="35.18" x2="13.33" y2="35.38"/>
    <line class="cls-1" x1="10.54" y1="34.42" x2="10.54" y2="34.67"/>
    <g>
      <path class="cls-1" d="M39.72,35.74c-.06-.02-.16-.02-.22.01"/>
      <path class="cls-1" d="M41.92,36.3s-.12,0-.16.02"/>
    </g>
    <line class="cls-1" x1="42.32" y1="36.84" x2="42.33" y2="36.82"/>
    <line class="cls-1" x1="9.09" y1="32.58" x2="9.03" y2="32.58"/>
    <polyline class="cls-1" points="8.45 32.33 8.39 32.26 8.35 32.2"/>
    <line class="cls-1" x1="9.02" y1="32.56" x2="9.09" y2="32.58"/>
  </g>
</svg>