<?xml version="1.0" encoding="UTF-8"?>
<svg id="Layer_2" data-name="Layer 2" xmlns="http://www.w3.org/2000/svg" viewBox="0 0 56.21 64.26">
  <defs>
    <style>
      .cls-1 {
        stroke-width: .75px;
      }

      .cls-1, .cls-2 {
        fill: none;
        stroke: #000;
        stroke-linecap: round;
        stroke-linejoin: round;
      }

      .cls-2 {
        stroke-width: .5px;
      }
    </style>
  </defs>
  <g id="Layer_1-2" data-name="Layer 1">
    <line class="cls-1" x1="26.1" y1="3.54" x2="20.92" y2="1.11"/>
    <path class="cls-1" d="M55.83,50.42c-.05-.61-.43-1.15-.99-1.4"/>
    <line class="cls-1" x1="55.83" y1="54.69" x2="55.83" y2="50.43"/>
    <line class="cls-1" x1="54.84" y1="49.02" x2="35.92" y2="38.8"/>
    <g>
      <path class="cls-1" d="M28.13,4.9c-.3-.28-.62-.53-.96-.75"/>
      <path class="cls-1" d="M29.07,5.88c-.2-.25-.42-.48-.65-.7"/>
    </g>
    <polyline class="cls-1" points="29.84 6.94 29.82 6.92 29.39 6.28"/>
    <line class="cls-1" x1="30.46" y1="8.06" x2="30.14" y2="7.46"/>
    <line class="cls-1" x1="30.95" y1="9.23" x2="30.73" y2="8.68"/>
    <line class="cls-1" x1="31.34" y1="10.46" x2="31.19" y2="9.95"/>
    <line class="cls-1" x1="31.62" y1="11.73" x2="31.52" y2="11.25"/>
    <line class="cls-1" x1="31.81" y1="13.04" x2="31.75" y2="12.58"/>
    <line class="cls-1" x1="31.91" y1="14.39" x2="31.88" y2="13.96"/>
    <line class="cls-1" x1="31.92" y1="17.17" x2="31.92" y2="16.76"/>
    <line class="cls-1" x1="31.92" y1="19.96" x2="31.92" y2="19.55"/>
    <line class="cls-1" x1="31.92" y1="21.36" x2="31.92" y2="20.95"/>
    <line class="cls-1" x1="31.92" y1="22.76" x2="31.92" y2="22.35"/>
    <path class="cls-1" d="M31.92,31.14c-.03,3.06,1.47,5.94,4,7.67"/>
    <line class="cls-1" x1="31.92" y1="24.15" x2="31.92" y2="23.74"/>
    <line class="cls-1" x1="31.92" y1="25.55" x2="31.92" y2="25.14"/>
    <line class="cls-1" x1="31.92" y1="26.95" x2="31.92" y2="26.54"/>
    <line class="cls-1" x1="31.92" y1="28.34" x2="31.92" y2="27.94"/>
    <line class="cls-1" x1="31.92" y1="29.74" x2="31.92" y2="29.33"/>
    <line class="cls-1" x1="6.14" y1="41.73" x2="6.14" y2="40.87"/>
    <line class="cls-1" x1=".38" y1="51.49" x2="32.04" y2="63.54"/>
    <line class="cls-1" x1=".38" y1="23.55" x2=".38" y2="51.49"/>
    <line class="cls-1" x1="6.14" y1="26.82" x2="6.14" y2="25.74"/>
    <line class="cls-1" x1="6.14" y1="28.22" x2="6.14" y2="26.9"/>
    <line class="cls-1" x1="6.14" y1="29.62" x2="6.14" y2="28.29"/>
    <line class="cls-1" x1="6.14" y1="31.01" x2="6.14" y2="29.69"/>
    <line class="cls-1" x1="6.14" y1="32.41" x2="6.14" y2="31.09"/>
    <line class="cls-1" x1="6.14" y1="33.81" x2="6.14" y2="32.48"/>
    <line class="cls-1" x1="6.14" y1="35.2" x2="6.14" y2="33.88"/>
    <line class="cls-1" x1="6.14" y1="36.6" x2="6.14" y2="35.28"/>
    <line class="cls-1" x1="6.14" y1="38" x2="6.14" y2="36.68"/>
    <line class="cls-1" x1="6.14" y1="39.4" x2="6.14" y2="38.07"/>
    <line class="cls-1" x1="6.14" y1="40.79" x2="6.14" y2="39.47"/>
    <g>
      <path class="cls-1" d="M43.6,50.92c.06-1.55-2.64-2.92-6.05-3.07-3.4-.14-6.22.99-6.28,2.55-.07,1.55,2.64,2.92,6.04,3.07,3.4.14,6.22-1,6.28-2.55Z"/>
      <path class="cls-1" d="M54.42,50.46c.87-.37.91-1,.08-1.45"/>
    </g>
    <line class="cls-1" x1="35.76" y1="58.35" x2="54.41" y2="50.46"/>
    <path class="cls-1" d="M32.58,58.28c.91.41,2.31.44,3.18.07"/>
    <line class="cls-1" x1="11.58" y1="48.94" x2="32.58" y2="58.28"/>
    <path class="cls-1" d="M32.04,63.54c1.38.48,2.88.46,4.24-.05"/>
    <line class="cls-1" x1="36.28" y1="63.49" x2="54.93" y2="55.61"/>
    <g>
      <path class="cls-1" d="M18.9,3.57c-1.49.68-2.97,1.68-4.36,2.95"/>
      <path class="cls-1" d="M14.49,6.57c-.74.69-1.46,1.45-2.14,2.27"/>
      <path class="cls-1" d="M12.3,8.9c-.51.62-1,1.28-1.46,1.97"/>
      <path class="cls-1" d="M10.79,10.94c-.39.59-.76,1.19-1.11,1.82"/>
      <path class="cls-1" d="M9.65,12.82c-.31.56-.6,1.13-.88,1.71"/>
      <path class="cls-1" d="M8.74,14.61c-.25.54-.48,1.08-.7,1.64"/>
      <path class="cls-1" d="M8,16.32c-.2.52-.39,1.04-.56,1.57"/>
      <path class="cls-1" d="M7.42,17.97c-.16.5-.31,1.01-.44,1.52"/>
      <path class="cls-2" d="M6.94,19.51s.01.03.02.05"/>
      <path class="cls-1" d="M6.96,19.56c-.13.49-.24.98-.34,1.47"/>
      <path class="cls-2" d="M6.58,21.06s.01.03.02.05"/>
      <path class="cls-1" d="M6.61,21.11c-.09.48-.17.95-.24,1.43"/>
      <path class="cls-2" d="M6.33,22.56s.02.03.02.05"/>
      <path class="cls-1" d="M6.36,22.61c-.06.47-.11.93-.15,1.39"/>
      <path class="cls-1" d="M6.2,24.07c-.04.46-.06.91-.06,1.35"/>
      <path class="cls-2" d="M6.14,25.5c0,.08,0,.16,0,.24"/>
      <path class="cls-1" d="M13.45,1.26C6.23,4.32.38,14.3.38,23.55"/>
      <path class="cls-2" d="M8.74,14.61c.11.47-.06-.15.08.31.24.45-.11-.14.17.29.4.31-.16-.05.27.18.43,0-.13.05.28-.02"/>
      <path class="cls-2" d="M9.65,12.82c.07.48-.04-.16.06.32.21.47-.1-.14.16.31.41.32-.16-.05.28.18.44,0-.13.05.29-.03"/>
      <path class="cls-2" d="M8,16.32c.14.46-.07-.15.11.31.26.43-.11-.13.19.28.4.3-.15-.05.27.18.43.02-.13.05.28-.02"/>
      <path class="cls-2" d="M10.79,10.94c.01.49-.03-.17.02.33.17.51-.1-.16.14.33.43.33-.17-.04.3.19.46-.04-.14.05.3-.05"/>
      <path class="cls-2" d="M16.33,11.12c-.4.24-.8.49-1.21.75"/>
    </g>
    <line class="cls-2" x1="15.12" y1="11.87" x2="8.73" y2="14.57"/>
    <path class="cls-2" d="M15.17,13c-.31.21-.62.42-.92.63"/>
    <line class="cls-2" x1="14.25" y1="13.63" x2="7.99" y2="16.27"/>
    <g>
      <path class="cls-2" d="M7.42,17.97c.43.89-.23-.26.33.57.4.29-.15-.05.27.17.42.02-.13.05.28-.01"/>
      <path class="cls-2" d="M14.5,14.68c-.26.19-.52.37-.76.56"/>
    </g>
    <line class="cls-2" x1="13.74" y1="15.24" x2="7.4" y2="17.92"/>
    <line class="cls-2" x1="28.16" y1="4.96" x2="21.04" y2="7.97"/>
    <path class="cls-1" d="M21.04,7.97c-.78.08-2.33.73-4.27,1.81"/>
    <line class="cls-2" x1="16.77" y1="9.77" x2="9.65" y2="12.78"/>
    <g>
      <path class="cls-2" d="M12.3,8.9c-.08.51,0-.18-.04.34.11.56-.1-.18.1.37.21.22-.09-.05.15.14.27.09-.09,0,.18.05.49-.07-.15.06.32-.07"/>
      <path class="cls-2" d="M15.12,11.87c0,.36.01.74.05,1.14"/>
      <path class="cls-2" d="M14.25,13.63c.07.35.15.7.25,1.05"/>
      <path class="cls-2" d="M14.13,16.24c-.22.17-.44.34-.64.51"/>
    </g>
    <line class="cls-2" x1="13.49" y1="16.74" x2="6.94" y2="19.51"/>
    <g>
      <path class="cls-2" d="M16.77,9.77c-.2.4-.35.85-.44,1.35"/>
      <path class="cls-2" d="M6.96,19.56c.48.87-.24-.25.36.56.41.28-.15-.05.28.17.43.03-.13.04.28,0"/>
      <path class="cls-2" d="M13.74,15.24c.12.33.25.66.39.99"/>
    </g>
    <line class="cls-2" x1="27.01" y1="4.05" x2="10.8" y2="10.9"/>
    <g>
      <path class="cls-2" d="M13.49,16.74c.16.32.33.63.51.94"/>
      <path class="cls-1" d="M27.35,5.06c.36-.23-.09.11.22-.17.07-.45.06.17,0-.31-.32-.46.14.13-.23-.29-.44-.33.16.09-.3-.21"/>
      <path class="cls-2" d="M14,17.69s-.07.06-.11.09"/>
    </g>
    <line class="cls-2" x1="13.45" y1="18.16" x2="13.89" y2="17.78"/>
    <line class="cls-2" x1="13.45" y1="18.16" x2="6.59" y2="21.06"/>
    <g>
      <path class="cls-2" d="M6.61,21.11c.52.85-.25-.24.39.55.41.27-.15-.05.28.16.43.03-.13.04.28,0"/>
      <path class="cls-2" d="M14.49,6.57c-.25.55.06-.2-.16.37-.06.31,0-.11-.03.21.05.35-.05-.11.05.23.27.25-.12-.04.2.15.33.03-.1.01.22,0,.59-.15-.18.08.39-.11"/>
    </g>
    <line class="cls-2" x1="14" y1="19.09" x2="13.45" y2="18.16"/>
    <line class="cls-2" x1="25.5" y1="3.29" x2="12.31" y2="8.86"/>
    <line class="cls-2" x1="13.45" y1="19.55" x2="14" y2="19.09"/>
    <line class="cls-2" x1="13.45" y1="19.55" x2="6.33" y2="22.56"/>
    <g>
      <path class="cls-2" d="M6.36,22.61c.57.84-.26-.23.42.53.42.26-.15-.05.29.16.43.03-.13.04.28,0"/>
      <path class="cls-2" d="M25.89,4.28c.4-.23-.11.11.25-.17.12-.21-.02.08.07-.15-.03-.27.04.1-.04-.18-.4-.47.17.12-.29-.29-.52-.29.18.07-.35-.18"/>
      <path class="cls-2" d="M22.69,8.67c-.19-.15-.39-.28-.61-.39"/>
      <path class="cls-1" d="M23.56,9.7c-.23-.39-.52-.74-.87-1.03"/>
      <path class="cls-1" d="M24.07,10.88c-.12-.41-.29-.81-.51-1.18"/>
      <path class="cls-1" d="M24.31,12.17c-.04-.44-.12-.87-.25-1.29"/>
      <path class="cls-1" d="M24.35,12.99c0-.27-.01-.55-.04-.82"/>
    </g>
    <line class="cls-2" x1="24.35" y1="13.55" x2="24.35" y2="12.99"/>
    <line class="cls-1" x1="24.35" y1="14.95" x2="24.35" y2="13.55"/>
    <line class="cls-1" x1="24.35" y1="16.34" x2="24.35" y2="14.95"/>
    <line class="cls-1" x1="24.35" y1="17.74" x2="24.35" y2="16.34"/>
    <line class="cls-1" x1="24.35" y1="19.14" x2="24.35" y2="17.74"/>
    <line class="cls-1" x1="24.35" y1="20.53" x2="24.35" y2="19.14"/>
    <line class="cls-1" x1="24.35" y1="21.93" x2="24.35" y2="20.54"/>
    <line class="cls-1" x1="24.35" y1="23.33" x2="24.35" y2="21.93"/>
    <line class="cls-1" x1="24.35" y1="24.73" x2="24.35" y2="23.33"/>
    <line class="cls-1" x1="24.35" y1="26.12" x2="24.35" y2="24.73"/>
    <line class="cls-1" x1="24.35" y1="26.96" x2="24.35" y2="26.12"/>
    <g>
      <path class="cls-2" d="M24.34,27.53c.01-.19.02-.38.02-.57"/>
      <path class="cls-1" d="M24.13,29.01c.1-.49.17-.98.2-1.48"/>
      <path class="cls-1" d="M23.69,30.6c.19-.52.34-1.05.45-1.59"/>
      <path class="cls-1" d="M22.9,32.33c.31-.55.57-1.13.79-1.73"/>
      <path class="cls-1" d="M21.49,34.32c.54-.61,1.01-1.28,1.41-1.99"/>
    </g>
    <line class="cls-2" x1="27.62" y1="31.73" x2="21.49" y2="34.32"/>
    <polyline class="cls-1" points="13.13 41.32 13.68 41.5 14.38 41.65 15.1 41.73 15.84 41.73 16.59 41.66 17.35 41.51 18.13 41.29 18.9 41 19.68 40.64 20.45 40.2 21.22 39.7 21.97 39.14 22.71 38.51 23.43 37.83 24.12 37.09 24.79 36.3 25.43 35.46 26.03 34.58 26.6 33.66 27.13 32.71 27.62 31.73"/>
    <line class="cls-1" x1="16.32" y1="36.5" x2="10.19" y2="39.1"/>
    <polyline class="cls-1" points="16.09 36.44 16.12 36.45 16.32 36.5"/>
    <line class="cls-1" x1="23.26" y1="13.45" x2="23.26" y2="27.42"/>
    <polyline class="cls-1" points="14.54 17.14 14.57 16.5 14.65 15.85 14.79 15.19 14.98 14.53 15.21 13.88 15.49 13.25 15.82 12.65 16.19 12.07 16.58 11.54 17.01 11.06 17.46 10.63 17.93 10.26 18.42 9.95 18.9 9.71 19.39 9.53 19.87 9.44 20.34 9.41 20.79 9.46 21.22 9.58 21.62 9.78 21.99 10.04 22.31 10.37 22.59 10.76 22.83 11.21 23.02 11.71 23.15 12.25 23.23 12.84 23.26 13.45"/>
    <line class="cls-1" x1="14.54" y1="31.11" x2="14.54" y2="17.14"/>
    <polyline class="cls-1" points="23.26 27.42 23.24 28.06 23.15 28.71 23.02 29.37 22.83 30.03 22.59 30.68 22.31 31.31 21.99 31.91 21.62 32.48 21.22 33.02 20.79 33.5 20.34 33.93 19.87 34.3 19.39 34.61 18.9 34.85 18.42 35.02 17.93 35.12 17.46 35.15 17.01 35.1 16.58 34.98 16.19 34.78 15.82 34.52 15.49 34.19 15.21 33.8 14.98 33.35 14.79 32.85 14.65 32.3 14.57 31.72 14.54 31.11"/>
    <line class="cls-2" x1="14" y1="20.48" x2="13.45" y2="19.55"/>
    <path class="cls-1" d="M11.32,21.85c-.44.06-1.25.4-2.27.96"/>
    <line class="cls-2" x1="9.05" y1="22.81" x2="6.18" y2="24.03"/>
    <line class="cls-2" x1="13.45" y1="20.95" x2="14" y2="20.48"/>
    <line class="cls-2" x1="13.45" y1="20.95" x2="11.32" y2="21.85"/>
    <g>
      <path class="cls-2" d="M6.2,24.07c.62.83-.27-.22.44.52.43.25-.15-.05.29.15.44.03-.13.04.29,0"/>
      <path class="cls-1" d="M9.05,22.81c-.2.36-.31.8-.34,1.3"/>
    </g>
    <line class="cls-2" x1="23.3" y1="2.82" x2="14.51" y2="6.54"/>
    <path class="cls-1" d="M8.71,24.12c-.35.22-.69.44-1.03.67"/>
    <line class="cls-2" x1="7.68" y1="24.79" x2="6.11" y2="25.45"/>
    <g>
      <path class="cls-2" d="M23.74,3.79c.52-.27-.16.12.34-.19.2-.22-.05.09.12-.15.01-.32.05.12-.02-.22-.26-.28.11.07-.18-.17-.32-.17.11.04-.22-.11-.67-.2.22.04-.44-.12"/>
      <path class="cls-2" d="M6.38,25.8c.29.3.61.44.83.35"/>
      <path class="cls-2" d="M6.14,25.5c.07.11.14.21.23.31"/>
      <path class="cls-1" d="M7.68,24.79c.05.34.13.7.24,1.06"/>
      <path class="cls-1" d="M7.92,25.84c-.25.18-.49.36-.72.54"/>
    </g>
    <line class="cls-2" x1="7.2" y1="26.39" x2="6.11" y2="26.85"/>
    <g>
      <path class="cls-1" d="M13.16,23.87c-.07-.43-.23-.84-.48-1.19"/>
      <path class="cls-1" d="M13.2,25.25c.05-.46.04-.92-.04-1.38"/>
      <path class="cls-1" d="M12.83,26.8c.19-.5.32-1.02.38-1.56"/>
      <path class="cls-1" d="M11.76,28.65c.46-.55.82-1.18,1.07-1.85"/>
      <path class="cls-1" d="M8.61,29.98c1.22.24,2.46-.29,3.14-1.33"/>
    </g>
    <line class="cls-1" x1="8.56" y1="29.96" x2="8.61" y2="29.98"/>
    <g>
      <path class="cls-2" d="M12.69,22.67c-.18-.27-.43-.48-.72-.63"/>
      <path class="cls-2" d="M6.14,26.9c.3.49.77.77,1.06.65"/>
      <path class="cls-1" d="M7.2,26.39c.14.32.3.64.48.96"/>
      <path class="cls-1" d="M7.68,27.34c-.19.16-.36.31-.52.46"/>
    </g>
    <line class="cls-2" x1="7.16" y1="27.8" x2="6.11" y2="28.24"/>
    <g>
      <path class="cls-2" d="M6.14,28.29c.3.49.77.77,1.06.65"/>
      <path class="cls-1" d="M7.16,27.8c.21.3.44.6.67.87"/>
      <path class="cls-1" d="M7.84,28.67c-.12.14-.23.26-.3.36"/>
    </g>
    <line class="cls-2" x1="7.54" y1="29.04" x2="6.11" y2="29.64"/>
    <g>
      <path class="cls-2" d="M6.14,29.69c.3.49.77.77,1.06.65"/>
      <path class="cls-1" d="M7.54,29.04c.31.29.63.54.94.76"/>
      <path class="cls-1" d="M8.49,29.8c-.01.1.02.16.12.18"/>
    </g>
    <line class="cls-2" x1="8.61" y1="29.98" x2="6.11" y2="31.04"/>
    <g>
      <path class="cls-2" d="M6.14,31.09c.3.49.77.77,1.06.65"/>
      <path class="cls-1" d="M8.61,29.98c1.55.58,2.76.07,3.14-1.33"/>
    </g>
    <line class="cls-2" x1="13.45" y1="27.94" x2="11.76" y2="28.65"/>
    <line class="cls-2" x1="14" y1="28.87" x2="13.45" y2="27.94"/>
    <line class="cls-2" x1="13.45" y1="29.33" x2="14" y2="28.86"/>
    <line class="cls-2" x1="13.45" y1="29.33" x2="6.11" y2="32.44"/>
    <path class="cls-2" d="M6.14,32.48c.3.49.77.77,1.06.65"/>
    <line class="cls-2" x1="14" y1="30.26" x2="13.45" y2="29.33"/>
    <polyline class="cls-1" points="17.77 10.38 17.79 10.53 17.81 11.15"/>
    <path class="cls-1" d="M23.29,2.82c-1.4-.09-2.88.16-4.38.74"/>
    <line class="cls-2" x1="13.45" y1="30.73" x2="14" y2="30.26"/>
    <line class="cls-2" x1="13.45" y1="30.73" x2="6.11" y2="33.83"/>
    <g>
      <path class="cls-1" d="M7.2,41.72c0,2.97,1.92,6.15,4.38,7.23"/>
      <path class="cls-2" d="M6.14,33.88c.3.49.77.77,1.06.65"/>
    </g>
    <line class="cls-2" x1="14" y1="31.66" x2="13.45" y2="30.73"/>
    <line class="cls-2" x1="7.2" y1="41.72" x2="11.31" y2="39.99"/>
    <path class="cls-1" d="M27.59,33.1c-2.21,4.34.67-1.39-1.44,2.87-1.97,3.91.65-1.2-1.31,2.56-2.09,3.26.78-.94-1.43,2.1-1.3,1.28.48-.38-.89.83-1.57.97.58-.26-1.07.62-1.88.62.67-.14-1.27.38-2.07.26.71-.02-1.39.14-2.15-.05.72.07-1.43-.06-2.12-.31.69.15-1.4-.23-2.04-.54.66.22-1.35-.38-1.92-.75.61.29-1.26-.52-1.71-.94.52.35-1.11-.65-1.42-1.12.41.4-.91-.76"/>
    <line class="cls-1" x1="27.59" y1="33.1" x2="31.7" y2="31.37"/>
    <path class="cls-1" d="M12.75,22.41c-.49-.28-.98-.47-1.43-.55"/>
    <line class="cls-2" x1="14" y1="21.88" x2="13.45" y2="20.95"/>
    <line class="cls-2" x1="13.89" y1="31.75" x2="14" y2="31.66"/>
    <path class="cls-2" d="M13.89,31.75c-.15.13-.29.25-.42.37"/>
    <line class="cls-2" x1="13.47" y1="32.12" x2="6.11" y2="35.23"/>
    <g>
      <path class="cls-1" d="M31.72,14.69s-.02-.03-.03-.05"/>
      <path class="cls-1" d="M27,4.04c-.47-.3-.95-.54-1.47-.74"/>
      <path class="cls-2" d="M25.49,3.28c-.68-.25-1.4-.4-2.15-.46"/>
      <path class="cls-1" d="M20.92,1.11c-2.19-1.03-4.8-.98-7.47.15"/>
      <path class="cls-2" d="M6.14,35.28c.3.49.77.77,1.06.65"/>
      <path class="cls-2" d="M13.47,32.12c.2.31.4.61.62.9"/>
      <path class="cls-2" d="M14.09,33.02c-.15.15-.29.28-.42.41"/>
    </g>
    <line class="cls-2" x1="13.67" y1="33.43" x2="6.11" y2="36.63"/>
    <line class="cls-2" x1="13.45" y1="22.35" x2="14" y2="21.88"/>
    <line class="cls-2" x1="13.45" y1="22.35" x2="12.69" y2="22.67"/>
    <g>
      <path class="cls-2" d="M6.14,36.68c.3.49.77.77,1.06.65"/>
      <path class="cls-2" d="M13.67,33.43c.24.29.48.58.73.85"/>
      <path class="cls-2" d="M14.41,34.28c-.11.13-.2.25-.28.36"/>
    </g>
    <line class="cls-2" x1="14.12" y1="34.64" x2="6.11" y2="38.02"/>
    <g>
      <path class="cls-2" d="M6.14,38.07c.3.49.77.77,1.06.65"/>
      <path class="cls-2" d="M14.12,34.64c.29.28.59.54.89.78"/>
    </g>
    <line class="cls-2" x1="14" y1="23.28" x2="13.45" y2="22.35"/>
    <path class="cls-2" d="M15.01,35.42c-.06.11-.09.2-.1.28"/>
    <line class="cls-2" x1="14.91" y1="35.7" x2="6.11" y2="39.42"/>
    <g>
      <path class="cls-2" d="M6.14,39.47c.3.49.77.77,1.06.65"/>
      <path class="cls-2" d="M14.91,35.7c.38.26.75.49,1.13.68"/>
    </g>
    <line class="cls-2" x1="13.45" y1="23.74" x2="14" y2="23.28"/>
    <line class="cls-2" x1="13.45" y1="23.74" x2="13.16" y2="23.87"/>
    <line class="cls-2" x1="10.19" y1="39.1" x2="6.11" y2="40.82"/>
    <path class="cls-1" d="M16.04,36.38c.05.07.14.11.28.12"/>
    <line class="cls-2" x1="14" y1="24.67" x2="13.45" y2="23.74"/>
    <g>
      <path class="cls-2" d="M6.14,40.87c.3.49.77.77,1.06.65"/>
      <path class="cls-1" d="M10.19,39.1c.32.26.65.51.98.74"/>
    </g>
    <line class="cls-2" x1="13.45" y1="27.94" x2="14" y2="27.47"/>
    <line class="cls-2" x1="13.45" y1="25.14" x2="13.2" y2="25.25"/>
    <line class="cls-2" x1="13.45" y1="25.14" x2="14" y2="24.67"/>
    <path class="cls-1" d="M54.93,55.61c.45-.11.8-.47.9-.92"/>
    <line class="cls-2" x1="14" y1="26.07" x2="13.45" y2="25.14"/>
    <line class="cls-2" x1="13.45" y1="26.54" x2="12.83" y2="26.8"/>
    <line class="cls-2" x1="14" y1="27.47" x2="13.45" y2="26.54"/>
    <line class="cls-2" x1="13.45" y1="26.54" x2="14" y2="26.07"/>
    <g>
      <path class="cls-1" d="M11.17,39.84c.04.05.09.1.14.15"/>
      <path class="cls-1" d="M28.47,5.99c.33-.23-.07.12.2-.17.05-.44.05.17,0-.3-.27-.45.12.13-.2-.29-.39-.36.14.1-.27-.23"/>
      <path class="cls-1" d="M22.57,8.48c-.52-.23-1.04-.41-1.53-.51"/>
      <path class="cls-2" d="M22.69,8.67c0-.08-.05-.15-.12-.19"/>
      <path class="cls-2" d="M27.73,32.84c-.03-.36-.06-.74-.11-1.11"/>
      <path class="cls-1" d="M27.59,33.1c.05-.09.09-.17.14-.26"/>
    </g>
    <line class="cls-2" x1="29.08" y1="5.97" x2="22.69" y2="8.67"/>
    <g>
      <path class="cls-1" d="M29.35,7.01c.31-.23-.07.12.19-.18.04-.43.05.16,0-.3-.24-.45.11.14-.17-.3-.35-.38.13.11-.24-.24"/>
      <path class="cls-1" d="M29.82,7.04c0-.25.1.02-.05-.13-.22.01.1-.02-.16.02-.37.12.16-.07-.26.09"/>
    </g>
    <line class="cls-2" x1="29.81" y1="7.05" x2="23.56" y2="9.7"/>
    <g>
      <path class="cls-1" d="M30.04,8.11c.3-.23-.06.12.18-.18.04-.43.04.16,0-.29-.2-.45.1.14-.15-.3-.32-.39.12.12-.22-.26"/>
      <path class="cls-1" d="M30.42,8.18c.08-.27.07.04,0-.15-.18,0,.09-.01-.13,0-.34.1.15-.06-.24.08"/>
    </g>
    <line class="cls-2" x1="30.4" y1="8.2" x2="24.07" y2="10.88"/>
    <g>
      <path class="cls-1" d="M14.59,31.88c2.02-1.67,3.2-4.14,3.23-6.76"/>
      <path class="cls-1" d="M30.6,9.28c.3-.24-.06.12.18-.18.04-.42.03.16,0-.29-.45-.88.23.26-.34-.57"/>
      <path class="cls-1" d="M30.88,9.38c.15-.3.05.05.05-.17-.14-.02.08-.01-.11,0-.31.09.14-.05-.22.07"/>
    </g>
    <line class="cls-2" x1="30.87" y1="9.4" x2="24.31" y2="12.17"/>
    <line class="cls-1" x1="17.81" y1="11.15" x2="17.81" y2="25.12"/>
    <g>
      <path class="cls-1" d="M31.03,10.49c.29-.24-.06.12.17-.18.05-.42.03.16.01-.29-.4-.89.22.27-.31-.58"/>
      <path class="cls-1" d="M31.24,10.63c.21-.32.02.06.09-.19-.36,0,.25-.1-.3.05"/>
    </g>
    <line class="cls-2" x1="31.22" y1="10.65" x2="24.35" y2="13.55"/>
    <g>
      <path class="cls-1" d="M31.34,11.76c.29-.24-.06.12.17-.18.06-.42.02.15.02-.29-.36-.9.21.28-.28-.59"/>
      <path class="cls-1" d="M31.5,11.92c.26-.34,0,.07.12-.2-.31-.01.24-.09-.28.04"/>
    </g>
    <line class="cls-2" x1="31.47" y1="11.94" x2="24.35" y2="14.95"/>
    <g>
      <path class="cls-1" d="M31.56,13.06c.29-.25-.06.12.17-.19.07-.42.01.16.02-.29-.31-.91.19.29-.25-.6"/>
      <path class="cls-1" d="M31.65,13.24c.3-.35-.01.07.16-.21-.07-.06.05,0-.06-.03-.26.06.12-.05-.19.06"/>
    </g>
    <line class="cls-2" x1="31.63" y1="13.27" x2="28.75" y2="14.48"/>
    <path class="cls-1" d="M28.75,14.48c-.44.06-1.25.4-2.27.96"/>
    <line class="cls-2" x1="26.49" y1="15.44" x2="24.35" y2="16.34"/>
    <g>
      <path class="cls-1" d="M26.49,15.44c-.2.36-.31.8-.34,1.3"/>
      <path class="cls-1" d="M26.15,16.74c-.35.22-.69.44-1.03.67"/>
    </g>
    <line class="cls-2" x1="25.12" y1="17.42" x2="24.35" y2="17.74"/>
    <g>
      <path class="cls-1" d="M30.6,16.5c-.07-.43-.23-.84-.48-1.19"/>
      <path class="cls-1" d="M30.64,17.88c.05-.46.04-.92-.04-1.38"/>
      <path class="cls-1" d="M30.26,19.43c.19-.5.32-1.02.38-1.56"/>
      <path class="cls-1" d="M29.19,21.28c.46-.55.82-1.18,1.07-1.85"/>
      <path class="cls-2" d="M26.05,22.61c1.22.24,2.46-.29,3.14-1.33"/>
    </g>
    <line class="cls-2" x1="25.99" y1="22.59" x2="26.05" y2="22.61"/>
    <g>
      <path class="cls-1" d="M30.13,15.3c-.18-.27-.43-.48-.72-.63"/>
      <path class="cls-1" d="M25.12,17.42c.05.34.13.69.24,1.06"/>
    </g>
    <line class="cls-2" x1="24.64" y1="19.02" x2="24.35" y2="19.14"/>
    <g>
      <path class="cls-1" d="M25.36,18.47c-.25.18-.49.36-.72.54"/>
      <path class="cls-1" d="M24.64,19.02c.14.32.3.64.48.96"/>
    </g>
    <line class="cls-2" x1="24.6" y1="20.43" x2="24.35" y2="20.53"/>
    <g>
      <path class="cls-1" d="M25.12,19.97c-.19.16-.36.31-.52.46"/>
      <path class="cls-1" d="M24.6,20.43c.21.31.44.6.67.87"/>
    </g>
    <line class="cls-2" x1="24.98" y1="21.67" x2="24.35" y2="21.93"/>
    <g>
      <path class="cls-2" d="M25.28,21.3c-.12.14-.23.26-.3.36"/>
      <path class="cls-1" d="M24.98,21.67c.31.29.63.54.95.76"/>
      <path class="cls-2" d="M25.93,22.43c-.02.1.02.16.12.19"/>
    </g>
    <line class="cls-2" x1="26.05" y1="22.61" x2="24.35" y2="23.33"/>
    <g>
      <path class="cls-1" d="M31.7,21.39c.29-.12.3-.61.03-1.11"/>
      <path class="cls-1" d="M26.05,22.61c1.55.58,2.76.07,3.14-1.33"/>
    </g>
    <line class="cls-2" x1="31.7" y1="20.23" x2="29.19" y2="21.28"/>
    <line class="cls-1" x1="31.7" y1="20.23" x2="31.72" y2="20.27"/>
    <path class="cls-1" d="M31.72,21.6c.27-.24.26-.34-.03-.21"/>
    <line class="cls-2" x1="31.7" y1="21.62" x2="24.35" y2="24.73"/>
    <path class="cls-1" d="M31.7,22.78c.29-.12.3-.61.03-1.11"/>
    <line class="cls-1" x1="31.7" y1="21.62" x2="31.72" y2="21.67"/>
    <g>
      <path class="cls-1" d="M31.67,14.41c.3-.25-.06.12.18-.19.08-.42,0,.16.03-.29-.27-.93.18.3-.23-.62"/>
      <path class="cls-1" d="M31.72,22.99c.27-.24.26-.34-.03-.21"/>
    </g>
    <line class="cls-2" x1="31.7" y1="23.02" x2="24.35" y2="26.12"/>
    <path class="cls-1" d="M31.7,24.18c.29-.12.3-.61.03-1.11"/>
    <line class="cls-1" x1="31.7" y1="23.02" x2="31.72" y2="23.07"/>
    <path class="cls-1" d="M31.72,24.39c.27-.24.26-.34-.03-.21"/>
    <line class="cls-2" x1="31.7" y1="24.42" x2="24.34" y2="27.53"/>
    <path class="cls-1" d="M31.72,29.98c.27-.24.26-.34-.03-.21"/>
    <line class="cls-2" x1="31.7" y1="30" x2="27.62" y2="31.73"/>
    <path class="cls-1" d="M31.72,14.62c.34-.37-.03.08.19-.23-.05-.07.05,0-.05-.03-.25.06.12-.05-.19.05"/>
    <line class="cls-2" x1="31.7" y1="14.64" x2="30.13" y2="15.3"/>
    <path class="cls-1" d="M31.7,25.58c.29-.12.3-.61.03-1.11"/>
    <line class="cls-1" x1="31.7" y1="24.42" x2="31.72" y2="24.47"/>
    <path class="cls-1" d="M31.7,29.77c.29-.12.3-.61.03-1.11"/>
    <line class="cls-2" x1="31.7" y1="28.61" x2="22.9" y2="32.33"/>
    <line class="cls-1" x1="31.7" y1="28.61" x2="31.72" y2="28.66"/>
    <path class="cls-1" d="M31.72,25.79c.27-.24.26-.34-.03-.21"/>
    <line class="cls-2" x1="31.7" y1="25.81" x2="24.13" y2="29.01"/>
    <path class="cls-1" d="M31.7,26.97c.29-.12.3-.61.03-1.11"/>
    <line class="cls-1" x1="31.7" y1="25.81" x2="31.72" y2="25.86"/>
    <g>
      <path class="cls-1" d="M31.72,28.58c.27-.24.26-.34-.03-.21"/>
      <path class="cls-1" d="M31.72,27.19c.27-.24.26-.34-.03-.21"/>
    </g>
    <line class="cls-2" x1="31.7" y1="27.21" x2="23.69" y2="30.6"/>
    <path class="cls-1" d="M31.7,28.37c.29-.12.3-.61.03-1.11"/>
    <line class="cls-1" x1="31.7" y1="27.21" x2="31.72" y2="27.26"/>
    <g>
      <path class="cls-1" d="M31.87,15.03c-.03-.12-.08-.23-.15-.34"/>
      <path class="cls-1" d="M31.7,15.8c.22-.09.28-.39.17-.77"/>
    </g>
    <polyline class="cls-1" points="30.6 16.5 31.7 16.03 31.92 15.77 31.92 15.36"/>
    <path class="cls-1" d="M31.7,17.19c.29-.12.3-.61.03-1.11"/>
    <line class="cls-1" x1="31.7" y1="16.03" x2="31.72" y2="16.08"/>
    <path class="cls-1" d="M31.72,20.2c.27-.24.26-.34-.03-.21"/>
    <line class="cls-2" x1="31.7" y1="17.43" x2="30.64" y2="17.88"/>
    <path class="cls-1" d="M31.7,18.59c.29-.12.3-.61.03-1.11"/>
    <line class="cls-1" x1="31.7" y1="17.43" x2="31.72" y2="17.48"/>
    <path class="cls-1" d="M31.7,19.99c.29-.12.3-.61.03-1.11"/>
    <line class="cls-2" x1="31.7" y1="18.83" x2="30.26" y2="19.43"/>
    <line class="cls-1" x1="31.7" y1="18.83" x2="31.72" y2="18.88"/>
    <path class="cls-1" d="M31.72,18.8c.27-.24.26-.34-.03-.21"/>
    <polyline class="cls-1" points="31.7 30 31.72 30.05 31.92 30.73 31.92 31.14"/>
    <polyline class="cls-2" points="31.7 31.37 31.79 31.32 31.86 31.27 31.9 31.21 31.92 31.15 31.92 31.14"/>
  </g>
</svg>