<?xml version="1.0" encoding="UTF-8"?>
<svg id="Layer_2" data-name="Layer 2" xmlns="http://www.w3.org/2000/svg" viewBox="0 0 232.97 115.84">
  <defs>
    <style>
      .cls-1 {
        fill: none;
        stroke: #231f20;
        stroke-linecap: round;
        stroke-linejoin: round;
        stroke-width: .75px;
      }
    </style>
  </defs>
  <g id="Layer_1-2" data-name="Layer 1">
    <g>
      <path class="cls-1" d="M25.52,114.89c.26-.07.52-.16.77-.26"/>
      <path class="cls-1" d="M18.64,115.28c2.29.34,4.63.21,6.88-.38"/>
      <path class="cls-1" d="M1.84,105.59c4.05,4.82,9.58,8.18,15.73,9.55"/>
    </g>
    <line class="cls-1" x1="26.29" y1="114.63" x2="229.14" y2="28.9"/>
    <path class="cls-1" d="M3.84,86.93c-2.1.89-3.46,2.94-3.46,5.22"/>
    <line class="cls-1" x1=".38" y1="92.15" x2=".38" y2="101.78"/>
    <line class="cls-1" x1="206.68" y1="1.2" x2="3.84" y2="86.93"/>
    <path class="cls-1" d="M.38,101.78c0,1.4.52,2.76,1.46,3.8"/>
    <line class="cls-1" x1="191.12" y1="14.23" x2="191.12" y2="14.34"/>
    <g>
      <path class="cls-1" d="M202.73,13.86c.77.55,1.73.75,2.65.54"/>
      <path class="cls-1" d="M202.72,13.86c-3.03-2.23-6.55-3.71-10.27-4.32"/>
    </g>
    <line class="cls-1" x1="223.86" y1="6.58" x2="205.38" y2="14.39"/>
    <polyline class="cls-1" points="192.46 9.53 192.28 9.5 192.23 9.49"/>
    <g>
      <path class="cls-1" d="M232.6,14.05c0-1.4-.52-2.76-1.46-3.8"/>
      <path class="cls-1" d="M231.14,10.25c-1.07-1.18-2.21-2.3-3.43-3.33"/>
    </g>
    <line class="cls-1" x1="232.6" y1="23.68" x2="232.6" y2="14.05"/>
    <path class="cls-1" d="M227.77,6.97c-.96-.92-2.4-1.12-3.58-.51"/>
    <line class="cls-1" x1="224.18" y1="6.45" x2="223.86" y2="6.58"/>
    <g>
      <path class="cls-1" d="M229.14,28.9c2.1-.89,3.46-2.94,3.46-5.22"/>
      <path class="cls-1" d="M215.55,4.78c.28-2.13-1.22-4.09-3.35-4.37-.07,0-.13-.02-.2-.02"/>
      <path class="cls-1" d="M212.08.38c-1.56-.02-3.12.17-4.63.56"/>
      <path class="cls-1" d="M207.46.94c-.26.07-.52.16-.78.26"/>
    </g>
    <line class="cls-1" x1="215.64" y1="10.06" x2="215.57" y2="4.78"/>
    <line class="cls-1" x1="40.59" y1="80.24" x2="44.4" y2="78.62"/>
    <path class="cls-1" d="M46.25,79.85c-.6-.43-1.22-.84-1.85-1.22"/>
    <line class="cls-1" x1="46.25" y1="79.85" x2="47.87" y2="79.16"/>
    <path class="cls-1" d="M47.87,79.16c-.6-.43-1.22-.84-1.85-1.22"/>
    <line class="cls-1" x1="46.02" y1="77.94" x2="46.83" y2="77.6"/>
    <path class="cls-1" d="M46.83,77.6c-.49-.3-.99-.58-1.5-.85"/>
    <line class="cls-1" x1="45.33" y1="76.75" x2="44.52" y2="77.09"/>
    <path class="cls-1" d="M44.52,77.09c-1.85-.99-3.84-1.7-5.9-2.11"/>
    <line class="cls-1" x1="38.62" y1="74.98" x2="36.93" y2="75.69"/>
    <g>
      <path class="cls-1" d="M38.95,79.32c-.54-1.28-1.21-2.49-2.02-3.62"/>
      <path class="cls-1" d="M40.59,80.24c-.54-.33-1.08-.63-1.64-.92"/>
      <path class="cls-1" d="M190.12,12.93c-.17.07-.33.16-.47.27"/>
      <path class="cls-1" d="M189.65,13.2c-.44-.25-.89-.47-1.35-.68"/>
    </g>
    <line class="cls-1" x1="188.29" y1="12.52" x2="191.12" y2="11.33"/>
    <path class="cls-1" d="M191.12,11.33c-.5-.13-1-.24-1.5-.33"/>
    <line class="cls-1" x1="189.61" y1="11" x2="185.5" y2="12.73"/>
    <path class="cls-1" d="M189.45,14.77c-1.21-.86-2.54-1.55-3.95-2.04"/>
    <line class="cls-1" x1="189.45" y1="14.77" x2="191.12" y2="14.34"/>
    <g>
      <path class="cls-1" d="M191.61,13.63c-.32.08-.53.39-.49.71"/>
      <path class="cls-1" d="M194.28,13.79c-.83-.42-1.79-.48-2.66-.16"/>
    </g>
    <polyline class="cls-1" points="194.28 13.79 194.79 14.18 194.95 14.5 194.89 14.82 194.61 15.08 194.44 15.17"/>
    <path class="cls-1" d="M192.39,15.22c.67.18,1.38.16,2.05-.05"/>
    <line class="cls-1" x1="192.39" y1="15.22" x2="190.54" y2="16"/>
    <path class="cls-1" d="M190.54,16c1.71.76,3.65.85,5.43.26"/>
    <polyline class="cls-1" points="195.96 16.26 196.82 15.71 197.18 14.97 197.08 14.25 196.47 13.48 195.84 13.08"/>
    <path class="cls-1" d="M195.84,13.08c-1.8-.85-3.88-.91-5.73-.15"/>
    <polyline class="cls-1" points="17.94 115.2 18.48 115.28 18.64 115.3"/>
    <polyline class="cls-1" points="17.57 115.13 17.59 115.14 17.94 115.2"/>
    <polyline class="cls-1" points="15.51 94.9 15.97 96.15 16.03 96.27 16.08 96.35 16.11 96.4 16.13 96.43 16.15 96.45 16.17 96.46 16.18 96.47 16.18 96.47"/>
    <g>
      <path class="cls-1" d="M16.2,96.46s0,0-.01,0"/>
      <path class="cls-1" d="M40.9,78.62c-.32-.74-.68-1.47-1.07-2.18"/>
      <path class="cls-1" d="M42.9,77.78c-.99-.52-2.02-.97-3.07-1.34"/>
    </g>
    <line class="cls-1" x1="42.9" y1="77.78" x2="40.9" y2="78.62"/>
    <g>
      <path class="cls-1" d="M28.09,101.47c-.04-2.01-.79-3.93-2.12-5.43"/>
      <path class="cls-1" d="M21.01,91.44c-2.51,1.37-4.14,3.94-4.32,6.79"/>
      <path class="cls-1" d="M25.97,96.04c-1.51-1.68-3.17-3.22-4.96-4.6"/>
    </g>
    <line class="cls-1" x1="28.09" y1="101.47" x2="28.09" y2="111.1"/>
    <line class="cls-1" x1="230.94" y1="15.74" x2="28.09" y2="101.47"/>
    <g>
      <path class="cls-1" d="M172.77,28.7c-3.26-2.51-7.12-4.14-11.19-4.73"/>
      <path class="cls-1" d="M172.77,28.7c1.16.9,2.68,1.2,4.09.8"/>
    </g>
    <line class="cls-1" x1="192.92" y1="22.71" x2="176.86" y2="29.5"/>
    <polyline class="cls-1" points="192.92 22.71 193.25 22.52 193.65 22.03 193.73 21.42 193.46 20.78 192.89 20.19"/>
    <g>
      <path class="cls-1" d="M192.89,20.19c-3.23-2.57-7.1-4.21-11.19-4.73"/>
      <path class="cls-1" d="M181.7,15.46c-1.4-.04-2.8.23-4.09.78"/>
    </g>
    <line class="cls-1" x1="161.55" y1="23.03" x2="177.61" y2="16.24"/>
    <polyline class="cls-1" points="161.55 23.03 161.21 23.18 160.81 23.45 160.74 23.68 161.01 23.85 161.58 23.97"/>
    <g>
      <path class="cls-1" d="M113.26,54.1c-3.26-2.51-7.12-4.14-11.19-4.73"/>
      <path class="cls-1" d="M113.26,54.1c1.16.9,2.68,1.2,4.09.8"/>
    </g>
    <line class="cls-1" x1="133.41" y1="48.11" x2="117.36" y2="54.9"/>
    <polyline class="cls-1" points="133.41 48.11 133.75 47.92 134.15 47.43 134.22 46.82 133.96 46.18 133.38 45.59"/>
    <g>
      <path class="cls-1" d="M133.38,45.59c-3.23-2.57-7.1-4.21-11.19-4.73"/>
      <path class="cls-1" d="M122.19,40.86c-1.4-.04-2.8.23-4.09.78"/>
    </g>
    <line class="cls-1" x1="102.05" y1="48.43" x2="118.1" y2="41.64"/>
    <polyline class="cls-1" points="102.05 48.43 101.71 48.58 101.31 48.85 101.24 49.08 101.5 49.26 102.07 49.37"/>
    <g>
      <path class="cls-1" d="M84,66.47c-3.26-2.51-7.12-4.14-11.19-4.73"/>
      <path class="cls-1" d="M84,66.47c1.16.9,2.68,1.2,4.09.8"/>
    </g>
    <line class="cls-1" x1="104.15" y1="60.48" x2="88.09" y2="67.26"/>
    <polyline class="cls-1" points="104.15 60.48 104.48 60.29 104.89 59.8 104.96 59.19 104.69 58.55 104.12 57.96"/>
    <g>
      <path class="cls-1" d="M104.12,57.96c-3.23-2.57-7.1-4.21-11.19-4.73"/>
      <path class="cls-1" d="M92.93,53.23c-1.4-.04-2.8.23-4.09.78"/>
    </g>
    <line class="cls-1" x1="72.78" y1="60.8" x2="88.84" y2="54.01"/>
    <polyline class="cls-1" points="72.78 60.8 72.45 60.95 72.04 61.22 71.97 61.45 72.24 61.62 72.81 61.74"/>
    <line class="cls-1" x1="37.54" y1="84.45" x2="21.01" y2="91.44"/>
    <polyline class="cls-1" points="37.54 84.45 37.89 84.25 38.28 83.79 38.33 83.22 38.06 82.65 37.48 82.14"/>
    <g>
      <path class="cls-1" d="M37.48,82.14c-2.35-1.56-4.96-2.67-7.72-3.26"/>
      <path class="cls-1" d="M29.76,78.87c-1.4-.18-2.82.01-4.11.56"/>
    </g>
    <line class="cls-1" x1="9.9" y1="86.09" x2="25.65" y2="79.43"/>
    <line class="cls-1" x1="9.12" y1="86.42" x2="9.9" y2="86.09"/>
    <path class="cls-1" d="M9.12,86.42c-1.67-.15-3.34-.01-4.96.4"/>
    <line class="cls-1" x1="191.98" y1="8.58" x2="211.17" y2=".39"/>
    <polyline class="cls-1" points="191.98 8.58 191.65 8.74 191.37 9.04 191.57 9.35 192.28 9.5"/>
    <g>
      <path class="cls-1" d="M55,78.32c-3.26-2.51-7.12-4.14-11.19-4.73"/>
      <path class="cls-1" d="M55,78.32c1.16.9,2.68,1.2,4.09.8"/>
    </g>
    <line class="cls-1" x1="75.15" y1="72.33" x2="59.09" y2="79.12"/>
    <polyline class="cls-1" points="75.15 72.33 75.48 72.15 75.88 71.65 75.96 71.04 75.69 70.4 75.12 69.81"/>
    <g>
      <path class="cls-1" d="M75.12,69.81c-3.23-2.57-7.1-4.21-11.19-4.73"/>
      <path class="cls-1" d="M63.93,65.09c-1.4-.04-2.8.23-4.09.78"/>
    </g>
    <line class="cls-1" x1="43.78" y1="72.65" x2="59.84" y2="65.86"/>
    <polyline class="cls-1" points="43.78 72.65 43.44 72.8 43.04 73.08 42.97 73.3 43.24 73.48 43.81 73.59"/>
    <g>
      <path class="cls-1" d="M145.19,40.81c-3.26-2.51-7.12-4.14-11.19-4.73"/>
      <path class="cls-1" d="M145.19,40.81c1.16.9,2.68,1.2,4.09.8"/>
    </g>
    <line class="cls-1" x1="165.34" y1="34.83" x2="149.28" y2="41.61"/>
    <polyline class="cls-1" points="165.34 34.83 165.68 34.64 166.08 34.15 166.15 33.54 165.89 32.9 165.31 32.31"/>
    <g>
      <path class="cls-1" d="M165.31,32.31c-3.23-2.57-7.1-4.21-11.19-4.73"/>
      <path class="cls-1" d="M154.12,27.58c-1.4-.04-2.8.23-4.09.78"/>
    </g>
    <line class="cls-1" x1="133.98" y1="35.14" x2="150.03" y2="28.36"/>
    <polyline class="cls-1" points="133.98 35.14 133.64 35.3 133.24 35.57 133.16 35.8 133.43 35.97 134 36.08"/>
    <line class="cls-1" x1="16.69" y1="98.23" x2="16.6" y2="104.83"/>
    <line class="cls-1" x1="5.51" y1="100.14" x2="5.42" y2="93.47"/>
    <polyline class="cls-1" points="16.6 104.83 16.52 105.96 16.29 107 15.93 107.92 15.43 108.69 14.81 109.29 14.08 109.7 13.28 109.92 12.41 109.93 11.51 109.75 10.6 109.36 9.7 108.78 8.83 108.04 8.03 107.14 7.3 106.12 6.68 104.99 6.18 103.8 5.82 102.57 5.59 101.34 5.51 100.14"/>
    <g>
      <path class="cls-1" d="M26.29,114.63c1.26-.7,1.97-2.1,1.8-3.53"/>
      <path class="cls-1" d="M9.12,86.42c-2.55,1.38-4.02,4.17-3.7,7.06"/>
      <path class="cls-1" d="M15.34,86.19c-.02-.8-.69-1.43-1.48-1.41-.05,0-.1,0-.15.01"/>
    </g>
    <line class="cls-1" x1="15.34" y1="86.19" x2="15.51" y2="94.9"/>
    <line class="cls-1" x1="3.84" y1="86.93" x2="4.16" y2="86.82"/>
    <path class="cls-1" d="M26.91,81.18c.03-.8-.49-1.52-1.26-1.75"/>
    <line class="cls-1" x1="26.71" y1="88.51" x2="26.91" y2="81.18"/>
    <path class="cls-1" d="M61.17,67.57c.03-.81-.53-1.53-1.33-1.71"/>
    <line class="cls-1" x1="61.17" y1="77.63" x2="61.17" y2="67.57"/>
    <path class="cls-1" d="M90.17,55.72c.03-.81-.53-1.53-1.33-1.71"/>
    <line class="cls-1" x1="90.17" y1="65.78" x2="90.17" y2="55.72"/>
    <path class="cls-1" d="M104.12,57.96c-.61.3-1.06.85-1.24,1.5"/>
    <line class="cls-1" x1="102.8" y1="60.44" x2="102.88" y2="59.46"/>
    <path class="cls-1" d="M119.43,43.35c.03-.82-.53-1.53-1.33-1.71"/>
    <line class="cls-1" x1="119.43" y1="53.41" x2="119.43" y2="43.35"/>
    <path class="cls-1" d="M133.38,45.59c-.61.3-1.06.85-1.24,1.5"/>
    <line class="cls-1" x1="132.06" y1="48.08" x2="132.14" y2="47.09"/>
    <path class="cls-1" d="M151.36,30.07c.02-.82-.54-1.53-1.33-1.71"/>
    <line class="cls-1" x1="151.36" y1="40.13" x2="151.36" y2="30.07"/>
    <path class="cls-1" d="M165.31,32.31c-.61.3-1.06.85-1.24,1.5"/>
    <line class="cls-1" x1="163.99" y1="34.79" x2="164.07" y2="33.81"/>
    <path class="cls-1" d="M178.94,17.95c.02-.82-.53-1.53-1.33-1.71"/>
    <line class="cls-1" x1="178.94" y1="28.01" x2="178.94" y2="17.95"/>
    <path class="cls-1" d="M192.89,20.19c-.61.3-1.06.84-1.24,1.5"/>
    <line class="cls-1" x1="191.57" y1="22.67" x2="191.65" y2="21.69"/>
    <path class="cls-1" d="M207.76,4.22c.04-.82-.51-1.56-1.31-1.75"/>
    <line class="cls-1" x1="207.76" y1="4.22" x2="207.89" y2="13.34"/>
    <path class="cls-1" d="M230.94,15.74c.83-.2,1.48-.86,1.66-1.69"/>
  </g>
</svg>