<?xml version="1.0" encoding="UTF-8"?>
<svg id="Layer_2" data-name="Layer 2" xmlns="http://www.w3.org/2000/svg" viewBox="0 0 168.9 164.48">
  <defs>
    <style>
      .cls-1 {
        fill: none;
        stroke: #231f20;
        stroke-linecap: round;
        stroke-linejoin: round;
        stroke-width: .75px;
      }
    </style>
  </defs>
  <g id="Layer_1-2" data-name="Layer 1">
    <path class="cls-1" d="M168.51,95.88c0-.35.02-.71,0-1.06-.02-.45-.07-.89-.15-1.34-.07-.44-.17-.87-.29-1.29-.12-.42-.26-.83-.42-1.23-.16-.4-.34-.79-.54-1.16-.2-.37-.42-.74-.65-1.09-.23-.35-.49-.68-.75-1.01-.27-.32-.55-.63-.85-.92-.32-.32-.66-.62-1.01-.9-.05-.04-.1-.08-.15-.12"/>
    <line class="cls-1" x1="168.16" y1="105.86" x2="168.53" y2="95.88"/>
    <line class="cls-1" x1="163.71" y1="85.76" x2="57.76" y2="3.45"/>
    <path class="cls-1" d="M10.43,10.01c-.39.11-.77.23-1.15.36-.43.15-.86.33-1.28.53-.41.19-.8.4-1.19.64-.38.23-.75.47-1.1.74-.35.26-.69.54-1.01.84-.32.29-.62.61-.91.93-.29.32-.55.66-.81,1.01-.25.35-.48.72-.69,1.1-.21.37-.4.76-.57,1.16-.17.4-.32.8-.45,1.21-.14.45-.25.92-.34,1.39-.09.46-.16.92-.17,1.39,0,.1,0,.21,0,.31"/>
    <line class="cls-1" x1=".74" y1="21.6" x2=".38" y2="31.58"/>
    <line class="cls-1" x1="43.94" y1=".94" x2="10.42" y2="10.01"/>
    <path class="cls-1" d="M57.76,3.45c-.37-.27-.74-.54-1.13-.79-.36-.23-.74-.44-1.12-.63-.4-.2-.8-.38-1.21-.54-.43-.17-.86-.32-1.3-.45-.45-.13-.92-.25-1.38-.34-.48-.1-.96-.17-1.44-.23-.49-.05-.99-.09-1.48-.1-.5-.01-1.01,0-1.51.03-.52.03-1.03.09-1.54.17-.48.07-.95.17-1.41.28-.1.03-.2.05-.3.08"/>
    <line class="cls-1" x1="29.79" y1="56.5" x2="29.25" y2="71.21"/>
    <line class="cls-1" x1="39.45" y1="71.59" x2="39.72" y2="64.2"/>
    <line class="cls-1" x1="127.08" y1="120.53" x2="126.13" y2="146.47"/>
    <line class="cls-1" x1="136.32" y1="146.84" x2="137.39" y2="117.77"/>
    <g>
      <path class="cls-1" d="M109.89,103.31c5.4,3.31,10.62,4.18,15.32,2.75"/>
      <path class="cls-1" d="M110.41,97.7c5.4,3.31,10.28,4.56,14.98,3.14"/>
      <path class="cls-1" d="M108.52,117.65c4.98,3.44,13.82,4.64,19.54,2.64"/>
    </g>
    <line class="cls-1" x1="161.94" y1="97.24" x2="132.12" y2="105.31"/>
    <line class="cls-1" x1="103.26" y1="99.3" x2="5.39" y2="23.51"/>
    <line class="cls-1" x1="161.94" y1="90.99" x2="129.39" y2="99.8"/>
    <line class="cls-1" x1="104.98" y1="94.38" x2="6.37" y2="17.69"/>
    <line class="cls-1" x1="161.57" y1="111.22" x2="128.06" y2="120.29"/>
    <line class="cls-1" x1="108.52" y1="117.65" x2="2.57" y2="35.34"/>
    <g>
      <path class="cls-1" d="M161.57,111.22c2.92-.15,5.85-2.53,6.59-5.36"/>
      <path class="cls-1" d="M.38,31.58c-.01,1.4.97,3.08,2.19,3.76"/>
      <path class="cls-1" d="M39.21,75.11c.1-1.03.21-2.73.23-3.52"/>
      <path class="cls-1" d="M39.21,75.11c-.28-7.93-3.01-7.19-6.09,1.65"/>
      <path class="cls-1" d="M33.12,76.75c-2.41-9.58-4.13-10.92-3.85-2.99"/>
    </g>
    <line class="cls-1" x1="34.5" y1="88.59" x2="39.21" y2="75.11"/>
    <line class="cls-1" x1="33.55" y1="88.85" x2="34.5" y2="88.59"/>
    <line class="cls-1" x1="33.12" y1="76.75" x2="33.55" y2="88.85"/>
    <line class="cls-1" x1="33.55" y1="88.85" x2="32.94" y2="88.38"/>
    <line class="cls-1" x1="32.94" y1="88.38" x2="29.26" y2="73.76"/>
    <g>
      <path class="cls-1" d="M136.09,150.36c.1-1.03.21-2.73.23-3.52"/>
      <path class="cls-1" d="M136.09,150.36c-.28-7.93-3.01-7.19-6.09,1.65"/>
      <path class="cls-1" d="M129.99,152.01c-2.41-9.58-4.13-10.92-3.85-2.99"/>
    </g>
    <line class="cls-1" x1="131.38" y1="163.85" x2="136.09" y2="150.36"/>
    <line class="cls-1" x1="130.42" y1="164.11" x2="131.38" y2="163.85"/>
    <line class="cls-1" x1="129.99" y1="152.01" x2="130.42" y2="164.11"/>
    <line class="cls-1" x1="130.42" y1="164.11" x2="129.81" y2="163.64"/>
    <line class="cls-1" x1="129.81" y1="163.64" x2="126.14" y2="149.02"/>
  </g>
</svg>