<?xml version="1.0" encoding="UTF-8"?>
<svg id="Layer_2" data-name="Layer 2" xmlns="http://www.w3.org/2000/svg" viewBox="0 0 123.44 61.56">
  <defs>
    <style>
      .cls-1 {
        fill: none;
        stroke: #231f20;
        stroke-linecap: round;
        stroke-linejoin: round;
        stroke-width: .75px;
      }
    </style>
  </defs>
  <g id="Layer_1-2" data-name="Layer 1">
    <g>
      <path class="cls-1" d="M18.86,47.19s.06.06.08.08"/>
      <path class="cls-1" d="M18.94,47.27c.27.23.53.47.8.7.51.44,1.02.86,1.55,1.28.52.42,1.06.82,1.6,1.22.54.4,1.09.78,1.65,1.16s1.13.74,1.71,1.1c.58.36,1.16.7,1.75,1.03.59.34,1.19.66,1.8.97.61.32,1.22.61,1.84.91.62.29,1.25.57,1.88.84.64.27,1.28.53,1.92.77.65.25,1.3.48,1.96.71s1.33.44,2,.64c.67.2,1.35.39,2.03.57.68.18,1.37.35,2.07.5.69.15,1.39.3,2.09.43.7.13,1.41.25,2.12.36.71.11,1.43.2,2.15.29.72.08,1.44.15,2.17.22.73.06,1.46.11,2.19.14.73.04,1.47.07,2.21.07.5,0,.99,0,1.49,0"/>
    </g>
    <line class="cls-1" x1=".59" y1="25.86" x2="18.86" y2="47.19"/>
    <g>
      <path class="cls-1" d="M45.27,30.4c-.02.16-.04.33-.06.49-.04.32-.1.64-.17.96-.07.32-.15.64-.24.96-.1.32-.2.64-.32.96-.12.32-.24.64-.39.95-.14.31-.29.62-.45.93-.16.31-.33.61-.51.91-.18.3-.37.6-.58.89-.2.29-.41.58-.63.86-.22.28-.45.56-.69.82-.24.27-.48.53-.74.79-.26.25-.52.5-.79.74-.27.24-.55.47-.83.69-.28.22-.57.44-.87.64-.29.21-.6.4-.9.59-.31.18-.62.36-.93.53-.31.17-.63.32-.95.47-.32.14-.64.28-.97.41-.33.12-.65.24-.98.34-.33.1-.66.2-.99.27-.29.07-.57.12-.86.18"/>
      <path class="cls-1" d="M28.18,45.28c-.07,0-.15.02-.22.02-.22.02-.45,0-.68,0-.24-.02-.49-.04-.73-.08-.26-.04-.51-.09-.77-.15-.27-.06-.53-.14-.79-.23-.27-.09-.54-.2-.81-.31-.27-.12-.55-.25-.81-.39-.27-.15-.54-.3-.8-.47-.27-.17-.53-.35-.78-.55-.1-.08-.2-.16-.3-.24"/>
      <path class="cls-1" d="M46.54,29.05c-.08.02-.17.04-.25.07-.11.04-.21.09-.3.15-.1.06-.19.13-.27.21-.08.08-.16.17-.22.27-.07.1-.12.21-.16.32-.04.11-.06.22-.08.33"/>
    </g>
    <line class="cls-1" x1="51.16" y1="28.22" x2="46.54" y2="29.05"/>
    <path class="cls-1" d="M29.87,45.08c-.2.04-.4.07-.6.1-.25.04-.5.07-.75.09l-.33.02"/>
    <line class="cls-1" x1="31.41" y1="44.79" x2="29.86" y2="45.07"/>
    <path class="cls-1" d="M59.22,29.17c.01-.18-.08-.44-.2-.57"/>
    <line class="cls-1" x1="58.82" y1="60.31" x2="59.22" y2="29.17"/>
    <line class="cls-1" x1="59.02" y1="28.59" x2="50.94" y2="18.67"/>
    <g>
      <path class="cls-1" d="M22.32,38.46c-.07,0-.15.02-.22.02-.23.02-.45,0-.68,0-.24-.01-.49-.04-.73-.07-.26-.04-.51-.09-.76-.15-.27-.07-.53-.14-.79-.23-.27-.09-.54-.2-.81-.31-.28-.12-.55-.25-.81-.39-.27-.14-.54-.3-.8-.47-.27-.17-.53-.35-.77-.54-.1-.08-.19-.15-.28-.23"/>
      <path class="cls-1" d="M39.42,23.57c-.02.16-.04.33-.06.49-.04.32-.1.64-.17.96-.07.32-.15.64-.25.96-.1.32-.2.64-.32.96-.12.32-.24.63-.39.95-.14.31-.29.62-.45.93-.16.31-.33.61-.51.91-.18.3-.37.6-.58.89-.2.29-.41.58-.63.85-.22.28-.45.56-.69.82-.24.27-.48.53-.74.79s-.52.5-.79.74c-.27.24-.55.47-.83.69-.29.22-.57.44-.87.64-.29.2-.59.4-.9.59-.31.18-.61.36-.93.53-.07.04-.14.07-.21.11"/>
      <path class="cls-1" d="M40.69,22.22c-.08.02-.17.04-.25.07-.11.04-.21.09-.3.15-.1.06-.19.14-.27.21-.08.08-.16.17-.22.27-.07.1-.12.21-.16.32-.04.1-.06.22-.08.33"/>
    </g>
    <line class="cls-1" x1="45.47" y1="21.37" x2="40.69" y2="22.22"/>
    <path class="cls-1" d="M23.94,38.26c-.2.04-.41.07-.61.11-.24.04-.5.07-.75.09-.08,0-.17.01-.25.02"/>
    <line class="cls-1" x1="25.55" y1="37.95" x2="23.93" y2="38.25"/>
    <g>
      <path class="cls-1" d="M30.13,36.38c-.17.08-.33.17-.5.24-.32.15-.64.29-.97.42-.33.13-.65.25-.98.36-.33.11-.66.21-.99.29-.31.08-.63.16-.94.22-.07.01-.14.03-.2.04"/>
      <path class="cls-1" d="M95.7,22.9c-.01-.09-.03-.19-.05-.28-.03-.11-.08-.21-.14-.3-.04-.05-.08-.1-.12-.15"/>
      <path class="cls-1" d="M88.96,21.31c-.08.01-.16.03-.24.04-.15.02-.31.04-.48.05-.16.01-.33.01-.49.01s-.33,0-.5-.01c-.16-.01-.33-.03-.49-.05-.16-.02-.31-.05-.46-.08-.15-.03-.29-.07-.42-.11-.13-.04-.26-.08-.37-.13-.11-.05-.21-.1-.3-.15-.09-.05-.16-.1-.23-.14-.06-.04-.12-.09-.16-.13-.02-.02-.03-.03-.04-.05"/>
    </g>
    <line class="cls-1" x1="95.39" y1="22.16" x2="94.39" y2="20.99"/>
    <path class="cls-1" d="M97.2,27.53c-.14-.24-.28-.47-.41-.72-.14-.26-.26-.53-.36-.8-.11-.28-.21-.55-.3-.84-.09-.28-.16-.58-.23-.87-.06-.3-.12-.6-.15-.9-.02-.16-.04-.33-.05-.5"/>
    <line class="cls-1" x1="93.12" y1="20.56" x2="88.96" y2="21.31"/>
    <g>
      <path class="cls-1" d="M83.55,56.51c.39-.14.79-.29,1.18-.43.74-.28,1.48-.57,2.22-.87.74-.3,1.47-.61,2.2-.93.73-.32,1.46-.66,2.18-1,.73-.35,1.45-.7,2.16-1.06.72-.37,1.43-.74,2.14-1.13.71-.38,1.41-.78,2.11-1.19.7-.4,1.4-.82,2.08-1.25.69-.43,1.38-.86,2.06-1.31.68-.44,1.36-.9,2.02-1.36.67-.46,1.33-.94,1.99-1.42.66-.48,1.31-.97,1.95-1.47.65-.5,1.29-1.01,1.92-1.52.63-.52,1.26-1.04,1.88-1.57.62-.54,1.23-1.08,1.83-1.62.6-.55,1.2-1.11,1.79-1.67.59-.57,1.17-1.14,1.74-1.72.57-.58,1.14-1.17,1.69-1.76.56-.6,1.1-1.2,1.64-1.8.54-.61,1.07-1.22,1.59-1.84.31-.37.62-.75.93-1.12"/>
      <path class="cls-1" d="M94.39,21s-.06-.07-.09-.11c-.07-.08-.16-.14-.25-.19-.09-.05-.19-.09-.29-.12-.1-.03-.2-.05-.31-.05-.11,0-.22.01-.33.02"/>
    </g>
    <line class="cls-1" x1="84.79" y1="20.57" x2="82.75" y2="18.18"/>
    <g>
      <path class="cls-1" d="M107.92,30.83c-.17.03-.34.06-.51.09-.33.05-.66.09-.99.11-.33.03-.65.04-.98.04-.33,0-.65,0-.96-.03-.32-.02-.63-.05-.94-.1-.31-.04-.62-.1-.92-.17-.3-.07-.6-.14-.89-.23-.29-.09-.58-.19-.85-.3-.28-.11-.55-.24-.81-.37-.27-.13-.52-.28-.77-.43-.25-.16-.49-.32-.72-.5-.14-.11-.28-.22-.41-.34"/>
      <path class="cls-1" d="M57.94,61.18s.12,0,.16-.01"/>
      <path class="cls-1" d="M58.09,61.17c.41-.06.73-.45.73-.86"/>
      <path class="cls-1" d="M16.75,31.95c-.07,0-.15.02-.22.02-.22.02-.45,0-.68,0-.24-.02-.49-.04-.73-.08-.26-.04-.51-.09-.77-.15-.27-.07-.53-.14-.79-.23-.27-.09-.54-.2-.81-.31-.27-.12-.54-.25-.81-.39-.27-.14-.54-.3-.8-.47-.27-.17-.53-.35-.77-.54-.1-.07-.19-.15-.28-.23"/>
      <path class="cls-1" d="M33.85,17.07c-.02.16-.04.33-.06.49-.04.32-.11.64-.17.96-.07.32-.15.64-.25.96-.09.32-.2.64-.32.96-.12.32-.24.64-.38.95-.14.31-.29.62-.45.93-.16.31-.33.61-.51.91-.18.3-.37.6-.58.89-.2.29-.41.58-.63.85-.22.28-.45.56-.69.82-.24.27-.48.53-.74.79-.26.25-.52.5-.79.74-.27.24-.55.47-.83.7-.28.22-.57.44-.87.64-.29.21-.59.4-.9.59-.31.18-.61.36-.93.53-.07.04-.14.07-.21.11"/>
      <path class="cls-1" d="M82.75,18.18s-.03-.03-.04-.05c-.02-.03-.02-.05-.03-.05,0,0-.24-.36-.24-.36"/>
      <path class="cls-1" d="M35.12,15.72c-.08.02-.17.04-.25.07-.11.04-.21.09-.3.15-.1.06-.19.13-.27.21-.08.08-.16.17-.22.27-.06.1-.12.21-.16.32-.04.1-.05.22-.08.33"/>
    </g>
    <line class="cls-1" x1="40.51" y1="14.68" x2="35.12" y2="15.72"/>
    <path class="cls-1" d="M18.37,31.76c-.2.04-.41.07-.61.11-.24.04-.5.07-.75.08-.08,0-.17.01-.25.02"/>
    <line class="cls-1" x1="19.98" y1="31.45" x2="18.36" y2="31.75"/>
    <g>
      <path class="cls-1" d="M24.56,29.88c-.17.08-.33.16-.5.24-.32.15-.64.29-.97.42-.33.13-.65.25-.98.36-.33.11-.66.21-.99.29-.32.08-.63.15-.94.21-.07.01-.14.03-.2.04"/>
      <path class="cls-1" d="M89.85,16.07c-.02-.1-.03-.19-.06-.28-.03-.11-.07-.21-.14-.3-.04-.05-.08-.1-.12-.15"/>
      <path class="cls-1" d="M83.11,14.49c-.08.01-.16.03-.24.04-.15.02-.31.04-.48.05-.16.01-.33.01-.49.01s-.33,0-.5-.01c-.16-.01-.33-.03-.49-.05-.16-.02-.31-.05-.46-.08-.15-.03-.29-.07-.42-.11-.13-.04-.25-.08-.37-.13-.11-.05-.21-.1-.3-.14-.09-.05-.16-.1-.23-.14-.06-.05-.12-.09-.15-.13-.02-.02-.03-.03-.05-.05"/>
      <path class="cls-1" d="M82.59,56.28c.18.22.54.34.81.28"/>
      <path class="cls-1" d="M83.41,56.55s.1-.02.14-.04"/>
    </g>
    <line class="cls-1" x1="89.54" y1="15.33" x2="88.54" y2="14.16"/>
    <g>
      <path class="cls-1" d="M91.33,20.64c-.06-.1-.13-.2-.19-.3-.15-.25-.28-.51-.4-.78-.12-.27-.23-.54-.33-.82-.1-.28-.18-.57-.26-.86-.07-.29-.14-.59-.19-.89-.05-.31-.08-.62-.12-.93"/>
      <path class="cls-1" d="M73.78,46.55c.73.81,1.47,1.62,2.2,2.44,2.2,2.43,4.4,4.86,6.6,7.29"/>
    </g>
    <line class="cls-1" x1="87.27" y1="13.73" x2="83.11" y2="14.49"/>
    <path class="cls-1" d="M113.59,28.46s-.03.04-.05.06c-.17.2-.36.37-.56.53-.19.16-.38.31-.58.45-.19.13-.39.25-.59.36-.19.1-.39.19-.59.26-.07.03-.14.05-.22.07"/>
    <line class="cls-1" x1="109.46" y1="30.55" x2="107.92" y2="30.83"/>
    <g>
      <path class="cls-1" d="M88.54,14.17s-.06-.07-.09-.1c-.07-.08-.16-.14-.25-.19-.09-.05-.19-.09-.29-.12-.1-.03-.2-.05-.31-.05-.11,0-.22,0-.33.02"/>
      <path class="cls-1" d="M111.01,30.19c-.18.05-.35.11-.53.16-.21.06-.43.11-.65.15-.11.02-.23.04-.35.06"/>
      <path class="cls-1" d="M122.87,28.45c.27-.32.26-.82-.02-1.13"/>
    </g>
    <line class="cls-1" x1="78.94" y1="13.74" x2="77.18" y2="11.68"/>
    <path class="cls-1" d="M97.59,24.1c-.13-.02-.26-.04-.39-.06-.31-.05-.61-.12-.9-.2-.17-.05-.33-.1-.49-.15"/>
    <line class="cls-1" x1="122.85" y1="27.31" x2="104.58" y2="5.99"/>
    <g>
      <path class="cls-1" d="M1.1,24.41c-.48.09-.8.55-.71,1.03.02.13.11.32.2.42"/>
      <path class="cls-1" d="M28,10.24c-.02.16-.04.33-.06.49-.04.32-.1.64-.17.96-.07.32-.15.64-.25.96-.09.32-.2.64-.32.96-.12.32-.24.64-.38.95-.14.32-.29.62-.45.93-.16.31-.33.61-.51.91-.18.3-.37.6-.58.89-.2.29-.41.57-.63.85-.22.28-.45.56-.69.82-.24.27-.48.53-.74.78-.25.25-.52.5-.79.74-.27.24-.55.47-.83.69-.28.22-.57.44-.87.64-.29.2-.6.4-.9.59-.31.18-.62.36-.93.53-.31.17-.63.32-.95.47-.32.15-.64.28-.97.41-.33.12-.66.24-.98.34-.33.1-.66.2-.99.27-.29.07-.58.12-.86.18"/>
    </g>
    <line class="cls-1" x1="4.55" y1="23.78" x2="1.1" y2="24.41"/>
    <g>
      <path class="cls-1" d="M77.18,11.68s-.03-.03-.04-.05c-.02-.03-.03-.04-.03-.05,0,0-.15-.16-.15-.16"/>
      <path class="cls-1" d="M5.14,23.97c-.05-.04-.11-.09-.17-.12-.06-.04-.13-.06-.21-.07-.07,0-.14,0-.21,0"/>
      <path class="cls-1" d="M10.88,25.22c-.13.02-.26.04-.39.06-.26.04-.51.06-.76.07-.25.01-.5.01-.75,0-.24-.01-.49-.03-.72-.07-.24-.04-.47-.08-.7-.13-.23-.06-.45-.12-.67-.2-.22-.08-.43-.17-.63-.27-.2-.1-.4-.21-.59-.33-.2-.13-.38-.27-.57-.41"/>
      <path class="cls-1" d="M59.03,44.11c.08-.01.15-.02.23-.03.32-.04.64-.08.96-.11.33-.03.66-.06.99-.09.33-.02.67-.04,1-.06.34-.02.68-.03,1.02-.03.34,0,.68,0,1.01,0,.34,0,.67.01,1,.02.33.02.65.04.98.06.32.03.63.05.94.09.3.04.6.08.9.12.29.04.57.1.85.15.27.05.53.11.79.18.25.07.49.14.73.21.24.08.47.16.7.25.22.09.44.18.65.28.21.1.4.2.59.31.19.11.36.22.53.33.17.12.31.23.46.35.14.12.28.24.39.37.01.02.03.03.04.05"/>
      <path class="cls-1" d="M29.27,8.89c-.08.02-.17.04-.25.07-.11.04-.21.09-.3.15-.1.06-.19.13-.27.21-.08.08-.16.17-.22.27-.06.1-.12.21-.16.32-.04.1-.06.22-.08.33"/>
    </g>
    <line class="cls-1" x1="75.85" y1=".4" x2="29.27" y2="8.89"/>
    <line class="cls-1" x1="14.14" y1="24.63" x2="10.88" y2="25.22"/>
    <g>
      <path class="cls-1" d="M84.28,9.57c-.01-.09-.03-.19-.05-.28-.03-.11-.07-.21-.14-.3-.04-.05-.08-.1-.12-.15"/>
      <path class="cls-1" d="M77.54,7.99c-.08.01-.16.03-.24.04-.15.02-.31.04-.48.05-.16.01-.33.02-.49.02s-.33,0-.5-.02c-.17-.01-.33-.03-.49-.05-.16-.02-.31-.05-.46-.08-.15-.03-.29-.07-.42-.11-.13-.04-.26-.08-.37-.13-.11-.05-.21-.09-.3-.14-.09-.05-.16-.09-.23-.14-.06-.05-.12-.09-.15-.13-.02-.02-.03-.03-.05-.05"/>
    </g>
    <line class="cls-1" x1="83.97" y1="8.83" x2="82.97" y2="7.66"/>
    <g>
      <path class="cls-1" d="M85.68,14.02c-.04-.06-.07-.11-.11-.17-.15-.25-.28-.51-.4-.78-.12-.27-.23-.54-.33-.82-.1-.28-.18-.57-.26-.86-.07-.29-.14-.59-.19-.88-.05-.31-.08-.62-.11-.93"/>
      <path class="cls-1" d="M102.06,24c-.17.03-.34.06-.52.09-.33.05-.66.09-.99.11-.33.02-.65.04-.98.04-.32,0-.64,0-.96-.02-.3-.02-.6-.05-.89-.09-.06-.01-.11-.02-.17-.02"/>
    </g>
    <line class="cls-1" x1="81.7" y1="7.23" x2="77.54" y2="7.99"/>
    <g>
      <path class="cls-1" d="M107.76,21.65s-.03.04-.05.05c-.17.2-.37.37-.56.53-.19.16-.38.31-.59.45-.19.13-.39.25-.59.35-.19.1-.39.19-.6.26-.07.02-.14.04-.22.06"/>
      <path class="cls-1" d="M82.97,7.67s-.06-.07-.09-.11c-.07-.08-.16-.14-.26-.19-.09-.05-.19-.09-.29-.12s-.2-.05-.31-.05c-.11,0-.22.01-.33.02"/>
    </g>
    <line class="cls-1" x1="73.37" y1="7.24" x2="71.42" y2="4.96"/>
    <line class="cls-1" x1="103.68" y1="23.7" x2="102.06" y2="24"/>
    <g>
      <path class="cls-1" d="M92.01,17.6c-.13-.02-.26-.04-.39-.06-.3-.05-.61-.12-.9-.2-.25-.07-.49-.15-.73-.23"/>
      <path class="cls-1" d="M105.16,23.36c-.17.05-.35.11-.52.15-.21.05-.43.11-.65.15-.1.02-.19.04-.29.05"/>
      <path class="cls-1" d="M71.42,4.96s-.03-.04-.04-.05c-.02-.02-.03-.05-.03-.05-.15-.21,0,0,0,0"/>
      <path class="cls-1" d="M78.43,2.74c-.02-.09-.03-.19-.06-.28-.03-.11-.07-.21-.14-.3-.04-.06-.08-.1-.12-.15"/>
      <path class="cls-1" d="M96.49,17.5c-.17.03-.34.06-.51.09-.33.05-.66.08-.99.11-.33.03-.65.04-.98.04-.32,0-.64,0-.96-.03-.3-.02-.6-.05-.89-.09-.06-.01-.11-.02-.17-.02"/>
    </g>
    <line class="cls-1" x1="78.12" y1="2" x2="77.12" y2=".83"/>
    <g>
      <path class="cls-1" d="M79.93,7.37c-.14-.24-.28-.47-.41-.72-.13-.26-.25-.53-.36-.8-.11-.27-.21-.56-.3-.84-.09-.29-.16-.58-.23-.87-.06-.3-.11-.6-.15-.9-.02-.16-.03-.33-.05-.49"/>
      <path class="cls-1" d="M102.19,15.14s-.03.04-.05.06c-.17.19-.37.36-.56.53-.19.16-.38.31-.58.45-.19.13-.39.24-.6.35-.19.1-.39.19-.6.26-.07.02-.14.04-.22.06"/>
    </g>
    <line class="cls-1" x1="98.11" y1="17.2" x2="96.49" y2="17.5"/>
    <g>
      <path class="cls-1" d="M77.12.84s-.06-.08-.09-.11c-.07-.08-.16-.14-.25-.19-.09-.05-.19-.09-.29-.12s-.2-.05-.31-.05c-.11,0-.22.01-.33.02"/>
      <path class="cls-1" d="M99.59,16.86c-.17.05-.34.1-.52.15-.21.06-.43.11-.65.15-.1.02-.19.04-.29.05"/>
      <path class="cls-1" d="M90.65,10.68c-.17.03-.34.06-.51.08-.33.05-.66.09-.99.11-.33.03-.65.04-.98.04-.33,0-.65,0-.96-.03-.32-.02-.63-.05-.94-.1-.31-.04-.61-.1-.92-.17-.3-.06-.6-.14-.89-.24-.03,0-.05-.02-.08-.03"/>
      <path class="cls-1" d="M99.94,6.53c-.09.11-.19.21-.28.32-.19.2-.39.4-.59.59-.2.19-.42.37-.63.55-.22.17-.44.34-.67.49-.23.16-.47.3-.7.44-.24.14-.48.26-.73.38-.25.12-.5.22-.75.32-.25.1-.51.18-.76.25-.24.07-.48.13-.73.18-.07.01-.13.02-.2.04"/>
    </g>
    <line class="cls-1" x1="93.9" y1="10.08" x2="90.65" y2="10.68"/>
    <path class="cls-1" d="M100.3,6.33s-.06,0-.1.02c-.07.02-.13.05-.18.1-.03.02-.05.05-.07.08"/>
    <line class="cls-1" x1="103.75" y1="5.69" x2="100.3" y2="6.32"/>
    <g>
      <path class="cls-1" d="M104.58,5.99c-.18-.23-.55-.36-.83-.29"/>
      <path class="cls-1" d="M32.58,46.05c6.88-1.03,13-7.39,13.76-14.31"/>
    </g>
    <line class="cls-1" x1="19.54" y1="45.83" x2="23.01" y2="45.2"/>
    <g>
      <path class="cls-1" d="M23.43,45.31c1.42,1.24,4.08,1.84,5.9,1.34"/>
      <path class="cls-1" d="M23.4,45.29c-.1-.08-.27-.12-.39-.09"/>
    </g>
    <line class="cls-1" x1="23.4" y1="45.29" x2="23.43" y2="45.31"/>
    <line class="cls-1" x1="23.43" y1="45.31" x2="20.98" y2="42.45"/>
    <line class="cls-1" x1="5.13" y1="23.96" x2="23.4" y2="45.29"/>
    <line class="cls-1" x1="7.61" y1="26.84" x2="5.16" y2="23.98"/>
    <line class="cls-1" x1="13.42" y1="33.63" x2="9.59" y2="29.16"/>
    <line class="cls-1" x1="19" y1="40.13" x2="15.16" y2="35.66"/>
    <line class="cls-1" x1="5.13" y1="23.96" x2="5.15" y2="23.98"/>
    <path class="cls-1" d="M47.71,30.31c-.69.11-1.3.74-1.38,1.43"/>
    <line class="cls-1" x1="47.71" y1="30.31" x2="58.34" y2="28.37"/>
    <line class="cls-1" x1="29.33" y1="46.64" x2="32.58" y2="46.05"/>
    <line class="cls-1" x1="73.3" y1="2.31" x2="77.02" y2="1.66"/>
    <polyline class="cls-1" points="71.35 4.85 71.01 4.37 70.92 4.09 70.93 3.81 71.02 3.53 71.21 3.26 71.49 3.01 71.85 2.79 72.27 2.59 72.76 2.43 73.3 2.31"/>
    <line class="cls-1" x1="77.91" y1="9.41" x2="82.87" y2="8.49"/>
    <path class="cls-1" d="M77.91,9.41c-1.16.45-1.58,1.35-.95,2.01"/>
    <line class="cls-1" x1="83.39" y1="15.71" x2="88.44" y2="14.99"/>
    <path class="cls-1" d="M83.39,15.71c-1.16.46-1.58,1.35-.95,2.01"/>
    <line class="cls-1" x1="83.86" y1="24.2" x2="94.49" y2="22.26"/>
    <line class="cls-1" x1="74.85" y1="13.97" x2="83.66" y2="23.76"/>
    <polyline class="cls-1" points="50.94 18.67 49.56 16.74 49.38 15.93 49.46 15.42 49.64 14.92 49.9 14.43 50.25 13.94 50.67 13.48 51.18 13.03 51.77 12.61 52.43 12.2 53.16 11.83 53.95 11.49 54.79 11.18 55.7 10.9 56.64 10.66 57.63 10.46 58.65 10.29 59.7 10.17 60.77 10.09 61.85 10.05 62.93 10.05 64.02 10.09 65.09 10.18 66.15 10.3 67.18 10.47 68.19 10.67 69.15 10.91 70.08 11.19 70.95 11.5 71.77 11.85 72.53 12.22 73.22 12.62 73.84 13.05 74.39 13.5 74.85 13.97"/>
    <polyline class="cls-1" points="52.98 26.04 53.16 26.32 53.25 26.6 53.25 26.88 53.15 27.16 52.96 27.43 52.68 27.68 52.33 27.9 51.16 28.22"/>
    <line class="cls-1" x1="51.03" y1="23.77" x2="52.98" y2="26.04"/>
    <path class="cls-1" d="M51.03,23.77c-1.22-1.05-3.47-1.52-5-1.04"/>
    <line class="cls-1" x1="41.86" y1="23.48" x2="46.03" y2="22.73"/>
    <polyline class="cls-1" points="47.13 19.22 47.31 19.49 47.4 19.77 47.4 20.05 47.3 20.33 47.11 20.6 46.83 20.85 46.48 21.08 45.47 21.37"/>
    <line class="cls-1" x1="45.45" y1="17.27" x2="47.13" y2="19.22"/>
    <path class="cls-1" d="M45.45,17.27c-1.22-1.05-3.47-1.52-5-1.04"/>
    <line class="cls-1" x1="36.29" y1="16.98" x2="40.45" y2="16.22"/>
    <polyline class="cls-1" points="41.55 12.71 41.74 12.99 41.83 13.27 41.83 13.55 41.73 13.83 41.54 14.1 41.26 14.35 40.91 14.57 40.51 14.68"/>
    <line class="cls-1" x1="39.6" y1="10.44" x2="41.55" y2="12.71"/>
    <path class="cls-1" d="M39.6,10.44c-1.22-1.05-3.47-1.52-5-1.04"/>
    <line class="cls-1" x1="30.44" y1="10.15" x2="34.6" y2="9.39"/>
    <line class="cls-1" x1="29.87" y1="45.07" x2="29.86" y2="45.07"/>
    <g>
      <path class="cls-1" d="M23.55,39.9c-.56.18-1.05.31-1.51.41-.46.1-.88.16-1.25.18-.37.02-.71,0-1.01-.06-.3-.06-.56-.16-.78-.3"/>
      <path class="cls-1" d="M24.02,40.83c-.57.09-1.09.14-1.58.15-.49.02-.94,0-1.35-.07-.42-.06-.79-.15-1.14-.29-.35-.13-.67-.3-.95-.5"/>
      <path class="cls-1" d="M25.44,40.68c-.5.03-.97.08-1.42.15"/>
      <path class="cls-1" d="M31.25,37.67c4.65-2,8.79-7.71,9.24-12.76"/>
      <path class="cls-1" d="M26.74,39.23c1.23-.17,3.37-.91,4.51-1.56"/>
      <polyline class="cls-1" points="31.87 38.74 31.86 38.74 31.85 38.74 31.85 38.74 31.85 38.74 31.85 38.74"/>
      <path class="cls-1" d="M41.86,23.48c-.69.11-1.3.74-1.38,1.43"/>
      <path class="cls-1" d="M23.55,39.9c.49-.15,1.02-.27,1.57-.37"/>
      <path class="cls-1" d="M83.98,24.93c.03-.35-.12-.89-.32-1.17"/>
    </g>
    <line class="cls-1" x1="83.98" y1="24.93" x2="83.58" y2="56.07"/>
    <line class="cls-1" x1="27.06" y1="40.39" x2="25.44" y2="40.68"/>
    <path class="cls-1" d="M27.06,40.39c1.3-.18,3.57-.97,4.78-1.65"/>
    <line class="cls-1" x1="25.11" y1="39.53" x2="26.74" y2="39.23"/>
    <line class="cls-1" x1="23.94" y1="38.25" x2="23.93" y2="38.25"/>
    <g>
      <path class="cls-1" d="M97.17,27.49c.4.71,1.36,1.82,2.01,2.32"/>
      <path class="cls-1" d="M18.44,34.33c-.57.09-1.09.14-1.57.15-.49.01-.94,0-1.35-.07-.41-.06-.79-.15-1.14-.29-.35-.13-.67-.3-.95-.49"/>
      <path class="cls-1" d="M17.98,33.4c-.56.18-1.05.31-1.51.41-.46.1-.88.16-1.25.18-.37.02-.71,0-1.01-.06-.3-.06-.56-.16-.78-.3"/>
      <path class="cls-1" d="M19.87,34.18c-.5.03-.97.08-1.42.15"/>
    </g>
    <polyline class="cls-1" points="98.18 28.64 97.82 28.32 97.57 28.08"/>
    <g>
      <path class="cls-1" d="M25.68,31.17c4.65-2,8.79-7.71,9.24-12.75"/>
      <path class="cls-1" d="M21.17,32.73c1.23-.17,3.37-.91,4.51-1.56"/>
      <polyline class="cls-1" points="26.3 32.23 26.29 32.24 26.28 32.24 26.28 32.23 26.28 32.23 26.27 32.23 26.27 32.23"/>
    </g>
    <line class="cls-1" x1="100.03" y1="6.68" x2="100.05" y2="6.65"/>
    <line class="cls-1" x1="118.33" y1="27.98" x2="100.05" y2="6.65"/>
    <line class="cls-1" x1="118.3" y1="28.01" x2="118.33" y2="27.98"/>
    <g>
      <path class="cls-1" d="M36.29,16.98c-.69.1-1.3.74-1.38,1.43"/>
      <path class="cls-1" d="M17.98,33.4c.49-.15,1.02-.27,1.57-.37"/>
    </g>
    <line class="cls-1" x1="21.49" y1="33.88" x2="19.87" y2="34.18"/>
    <path class="cls-1" d="M21.49,33.88c1.3-.18,3.57-.97,4.78-1.65"/>
    <line class="cls-1" x1="19.54" y1="33.02" x2="21.16" y2="32.73"/>
    <line class="cls-1" x1="18.37" y1="31.75" x2="18.36" y2="31.75"/>
    <path class="cls-1" d="M112.34,31.5c2.01-.27,4.74-1.87,5.96-3.5"/>
    <line class="cls-1" x1="109.09" y1="32.1" x2="112.34" y2="31.5"/>
    <polyline class="cls-1" points="91.29 20.61 91.33 20.68 91.45 20.86"/>
    <g>
      <path class="cls-1" d="M98.79,26.53h0s0,0,0,0,0,0,0,0c0,0-.01,0-.01,0"/>
      <path class="cls-1" d="M12.6,27.51c-.57.09-1.09.15-1.57.16-.49.02-.94,0-1.35-.06-.41-.06-.79-.15-1.14-.28-.35-.13-.66-.29-.94-.49"/>
      <path class="cls-1" d="M12.13,26.57c-.56.18-1.05.32-1.51.42-.46.1-.87.16-1.24.19-.37.02-.7,0-1-.05-.3-.06-.55-.15-.78-.29"/>
      <path class="cls-1" d="M14.09,27.35c-.52.03-1.02.09-1.49.16"/>
      <path class="cls-1" d="M106.72,25.75c-.52.11-1.03.24-1.53.39"/>
      <path class="cls-1" d="M106.72,25.75c.65-.13,1.3-.29,1.94-.49.64-.19,1.27-.41,1.87-.66.6-.25,1.18-.51,1.74-.81.56-.3,1.09-.62,1.59-.96"/>
    </g>
    <line class="cls-1" x1="118.33" y1="27.98" x2="122.16" y2="27.29"/>
    <line class="cls-1" x1="15.63" y1="27.06" x2="14.09" y2="27.35"/>
    <path class="cls-1" d="M15.63,27.06c1.82-.27,3.59-.9,5.23-1.81"/>
    <line class="cls-1" x1="109.47" y1="30.55" x2="109.46" y2="30.55"/>
    <g>
      <path class="cls-1" d="M15.31,25.89c6.88-1.03,13-7.39,13.76-14.31"/>
      <path class="cls-1" d="M98.79,26.53c1.2.24,3.48.2,4.78-.09"/>
    </g>
    <line class="cls-1" x1="105.19" y1="26.14" x2="103.57" y2="26.43"/>
    <g>
      <path class="cls-1" d="M5.08,23.91s.04.03.06.05"/>
      <path class="cls-1" d="M30.44,10.15c-.69.1-1.3.74-1.38,1.43"/>
    </g>
    <line class="cls-1" x1="5.12" y1="23.95" x2="5.08" y2="23.92"/>
    <path class="cls-1" d="M12.13,26.57c.52-.16,1.06-.29,1.64-.39"/>
    <line class="cls-1" x1="13.76" y1="26.18" x2="15.31" y2="25.89"/>
    <g>
      <path class="cls-1" d="M93.22,20.02h0s0,0,0,0c0,0,0,0,0,0,0,0-.01,0-.02,0"/>
      <path class="cls-1" d="M101.14,19.25c-.52.11-1.03.24-1.53.39"/>
      <path class="cls-1" d="M101.14,19.25c.66-.13,1.3-.3,1.94-.49.64-.19,1.27-.41,1.87-.66.6-.25,1.18-.51,1.74-.81.56-.3,1.09-.62,1.59-.96"/>
    </g>
    <line class="cls-1" x1="103.69" y1="23.7" x2="103.68" y2="23.7"/>
    <path class="cls-1" d="M93.22,20.02c1.2.24,3.48.2,4.77-.09"/>
    <line class="cls-1" x1="99.62" y1="19.63" x2="98" y2="19.93"/>
    <line class="cls-1" x1="93.69" y1="12.83" x2="92.14" y2="13.11"/>
    <line class="cls-1" x1="79.9" y1="7.33" x2="80.03" y2="7.53"/>
    <g>
      <path class="cls-1" d="M95.29,12.43c-.55.11-1.08.24-1.6.4"/>
      <path class="cls-1" d="M95.29,12.43c.66-.13,1.31-.29,1.96-.48.65-.19,1.28-.41,1.88-.65.61-.24,1.19-.51,1.75-.8.56-.29,1.1-.61,1.6-.95"/>
    </g>
    <line class="cls-1" x1="98.11" y1="17.2" x2="98.12" y2="17.2"/>
    <polyline class="cls-1" points="99.94 6.53 99.95 6.53 99.97 6.53"/>
    <g>
      <path class="cls-1" d="M19.54,45.83c-.5.05-.86.49-.81.98,0,.11.06.28.12.37"/>
      <path class="cls-1" d="M59.02,28.59c-.15-.18-.45-.28-.68-.22"/>
    </g>
    <line class="cls-1" x1="43.04" y1="36.7" x2="31.87" y2="38.74"/>
    <g>
      <path class="cls-1" d="M95.6,22.6c-.24-.29-.74-.44-1.1-.34"/>
      <path class="cls-1" d="M99.18,29.81c2.38,2.11,6.84,3.14,9.91,2.29"/>
    </g>
    <polyline class="cls-1" points="83.55 56.51 83.55 56.51 83.58 56.48 83.61 56.42 83.61 56.33 83.61 56.21 83.58 56.07"/>
    <line class="cls-1" x1="36.91" y1="30.3" x2="26.3" y2="32.24"/>
    <line class="cls-1" x1="31.46" y1="23.38" x2="20.85" y2="25.31"/>
    <g>
      <path class="cls-1" d="M111.2,30.14c1.24-1.2,3.54-3.67,4.65-5"/>
      <path class="cls-1" d="M105.88,31.08c2.24-1.94,6.13-5.96,7.99-8.24"/>
      <path class="cls-1" d="M105.36,23.32c1.26-1.2,3.56-3.65,4.68-4.96"/>
      <path class="cls-1" d="M100.73,24.2c2.11-1.86,5.81-5.7,7.57-7.87"/>
      <path class="cls-1" d="M99.78,16.81c1.26-1.2,3.56-3.65,4.68-4.96"/>
      <path class="cls-1" d="M94.43,17.74c2.24-1.92,6.18-5.93,8.06-8.2"/>
      <path class="cls-1" d="M113.57,28.46c.1-.1.2-.19.29-.29.38-.39.7-.85,1.01-1.33.35-.54.67-1.09.97-1.67,0-.01,0-.02.01-.03"/>
      <path class="cls-1" d="M96.38,25.92c.6.24,1.76.53,2.4.61"/>
      <path class="cls-1" d="M89.54,15.33c-.24-.29-.73-.44-1.1-.34"/>
      <path class="cls-1" d="M122.82,27.5c-.15-.18-.44-.27-.66-.2"/>
    </g>
    <line class="cls-1" x1="5.16" y1="23.98" x2="5.12" y2="23.95"/>
    <g>
      <path class="cls-1" d="M107.73,21.65c.1-.1.2-.19.3-.3.37-.39.7-.84,1-1.3.35-.53.68-1.08.98-1.66l.02-.03"/>
      <path class="cls-1" d="M90.63,19.35c.64.27,1.88.6,2.57.68"/>
      <path class="cls-1" d="M83.97,8.83c-.24-.29-.74-.44-1.1-.34"/>
      <path class="cls-1" d="M102.16,15.14c.1-.1.2-.19.3-.3.38-.39.7-.84,1-1.3.35-.53.68-1.09.98-1.67,0,0,.01-.02.02-.03"/>
      <path class="cls-1" d="M84.95,12.59c1.88.79,5.22,1.03,7.19.52"/>
      <path class="cls-1" d="M78.12,2c-.24-.29-.73-.44-1.1-.34"/>
    </g>
    <polyline class="cls-1" points="100.03 6.68 100 6.64 99.97 6.61 99.95 6.58 99.94 6.56 99.94 6.54 99.94 6.53"/>
    <path class="cls-1" d="M100.05,6.65s-.03-.04-.04-.05c-.03-.04-.05-.06-.05-.07,0,0,0,0,0,0"/>
  </g>
</svg>