<?xml version="1.0" encoding="UTF-8"?>
<svg id="Layer_2" data-name="Layer 2" xmlns="http://www.w3.org/2000/svg" viewBox="0 0 31.12 215.63">
  <defs>
    <style>
      .cls-1 {
        fill: none;
        stroke: #231f20;
        stroke-linecap: round;
        stroke-linejoin: round;
        stroke-width: .75px;
      }
    </style>
  </defs>
  <g id="Layer_1-2" data-name="Layer 1">
    <path class="cls-1" d="M29.15,6.61v-.04c0-.06,0-.12,0-.19,0-.06-.01-.12-.02-.18,0-.06-.02-.12-.03-.18-.01-.06-.02-.12-.04-.18-.01-.06-.03-.12-.05-.18-.02-.06-.04-.12-.06-.18-.02-.06-.04-.12-.07-.18-.02-.06-.05-.12-.08-.17-.03-.06-.06-.12-.09-.17-.03-.06-.06-.12-.1-.17-.04-.06-.07-.11-.11-.17-.04-.06-.07-.11-.11-.17-.04-.06-.08-.11-.13-.17-.04-.06-.09-.11-.14-.16-.05-.05-.1-.11-.15-.16-.05-.05-.1-.11-.16-.16-.05-.05-.11-.11-.17-.16-.06-.05-.12-.1-.18-.15-.06-.05-.12-.1-.19-.15-.07-.05-.13-.1-.2-.15-.07-.05-.14-.1-.21-.15-.07-.05-.14-.1-.22-.14-.07-.05-.15-.09-.23-.14-.08-.05-.16-.09-.24-.14-.08-.04-.16-.09-.25-.13-.08-.04-.17-.09-.25-.13-.08-.04-.17-.08-.26-.12-.09-.04-.18-.08-.26-.12-.09-.04-.18-.08-.27-.11-.09-.04-.18-.07-.28-.11-.09-.04-.19-.07-.28-.11-.1-.03-.19-.07-.29-.1-.1-.03-.19-.06-.29-.09-.1-.03-.2-.06-.3-.09-.1-.03-.2-.06-.3-.09-.1-.03-.2-.06-.31-.08-.1-.03-.21-.05-.31-.08-.11-.03-.21-.05-.32-.08-.11-.03-.21-.05-.32-.07-.11-.03-.22-.05-.33-.07-.11-.02-.22-.05-.33-.07-.11-.02-.22-.04-.33-.06-.11-.02-.22-.04-.34-.06-.11-.02-.23-.04-.34-.05-.11-.02-.23-.04-.35-.05-.11-.02-.23-.03-.35-.05s-.23-.03-.35-.04c-.12-.01-.24-.03-.35-.04-.12-.01-.24-.02-.35-.04-.12-.01-.24-.02-.36-.03-.12-.01-.24-.02-.36-.03-.12,0-.24-.02-.36-.03s-.24-.01-.36-.02c-.12,0-.24-.01-.37-.02-.12,0-.24-.01-.37-.01-.12,0-.24,0-.37-.01-.12,0-.24,0-.37,0-.12,0-.24,0-.37,0s-.25,0-.37,0-.25,0-.37,0-.25,0-.37,0c-.12,0-.24,0-.37.01-.12,0-.25,0-.37.02-.12,0-.24.01-.36.02-.12,0-.25.02-.37.02-.12,0-.24.02-.36.03-.12.01-.24.02-.36.03-.12.01-.24.02-.36.03-.12.01-.24.03-.36.04-.12.01-.24.03-.36.04-.12.02-.24.03-.35.04-.12.02-.23.03-.35.05-.12.02-.23.03-.35.05-.12.02-.23.04-.34.06-.11.02-.23.04-.34.06-.11.02-.23.04-.34.06-.11.02-.22.04-.33.07-.11.02-.22.05-.33.07-.11.03-.22.05-.32.08-.11.03-.22.05-.32.08-.11.03-.21.05-.32.08-.11.03-.21.06-.31.09-.1.03-.21.06-.31.09-.1.03-.2.06-.3.09-.1.03-.2.06-.3.1-.1.03-.2.07-.29.1-.1.03-.19.07-.29.1-.1.04-.19.07-.28.11-.09.04-.19.08-.28.11-.09.04-.18.08-.27.12-.09.04-.18.08-.26.12-.09.04-.17.08-.26.12-.08.04-.17.09-.25.13s-.17.09-.25.14c-.08.04-.16.09-.24.14-.08.05-.16.1-.23.14-.08.05-.15.1-.22.15-.07.05-.15.1-.22.15-.07.05-.14.1-.2.16-.07.05-.13.11-.2.16-.06.05-.13.11-.19.17-.06.05-.12.11-.18.17-.06.06-.11.11-.16.17-.05.06-.1.11-.15.17-.05.06-.1.12-.14.18-.05.06-.09.12-.13.18-.04.06-.08.12-.12.18-.04.06-.07.12-.11.18-.03.06-.07.12-.1.18-.03.06-.06.12-.08.18-.03.06-.05.12-.07.19-.02.06-.04.12-.06.18-.02.06-.04.12-.05.19-.02.06-.03.12-.04.19-.01.06-.02.12-.03.19,0,.06-.02.12-.02.19,0,.06-.01.12-.01.19,0,.05,0,.11,0,.16"/>
    <line class="cls-1" x1="29.17" y1="8.87" x2="29.15" y2="6.61"/>
    <line class="cls-1" x1=".52" y1="6.89" x2=".54" y2="9.16"/>
    <g>
      <path class="cls-1" d="M.54,9.16v.02c0,.06,0,.12,0,.19,0,.06,0,.12.02.18,0,.06.02.12.03.18.01.06.02.12.04.18.01.06.03.12.05.18.02.06.03.12.06.18.02.06.04.12.06.18.02.06.05.12.08.18.03.06.06.11.08.17.03.06.06.11.09.17.03.06.07.12.1.17.04.06.07.11.11.17.04.06.08.11.12.17.04.06.09.11.13.16.05.06.1.11.15.16.05.05.1.11.16.16.06.05.11.11.17.16.06.05.12.1.18.16.06.05.12.11.19.16.06.05.13.1.2.15s.14.1.21.15c.07.05.15.1.22.14.07.05.15.09.23.14.08.05.15.09.24.14.08.04.16.09.24.13.08.04.16.09.25.13.08.04.17.08.26.12.09.04.17.08.26.12.09.04.18.08.27.11.09.04.18.07.28.11.09.04.19.07.28.1.1.04.19.07.29.1.1.03.19.07.29.1.1.03.2.06.3.09.1.03.2.06.3.09.1.03.2.06.31.09.1.03.21.05.31.08.11.03.21.05.32.08.11.03.21.05.32.07.11.02.22.05.33.07.11.02.22.05.33.07.11.02.22.04.33.06.08.02.16.03.23.04"/>
      <path class="cls-1" d="M8.96,14.93c.06.01.12.02.18.03.11.02.23.04.34.05.11.02.23.03.34.05.12.02.23.03.35.05.12.02.23.03.35.04.12.01.24.03.35.04.12.01.24.02.36.04.12.01.24.02.36.03.12.01.24.02.36.03.12,0,.24.02.36.02.12,0,.24.01.36.02.12,0,.24.01.37.02.12,0,.24.01.37.01.12,0,.24,0,.37.01.12,0,.25,0,.37,0,.12,0,.25,0,.37,0s.25,0,.37,0c.12,0,.24,0,.37,0,.12,0,.25,0,.37,0,.12,0,.25,0,.37-.01.12,0,.24-.01.37-.02.12,0,.24-.01.37-.02.12,0,.24-.01.37-.02.12,0,.24-.02.36-.03.12,0,.24-.02.36-.03.12-.01.24-.02.36-.04.12-.01.24-.03.36-.04.12-.01.24-.03.36-.04.12-.02.24-.03.35-.05.12-.02.23-.03.35-.05.12-.02.23-.03.35-.05.12-.02.23-.04.34-.06.11-.02.23-.04.34-.06.11-.02.23-.04.34-.06.11-.02.22-.04.33-.07.11-.02.22-.05.33-.07.11-.03.22-.05.33-.08.11-.03.22-.05.32-.08.11-.03.21-.05.32-.08.11-.03.21-.06.31-.09.1-.03.21-.06.31-.09.1-.03.2-.06.3-.09.1-.03.2-.06.3-.1.1-.03.19-.07.29-.1.1-.03.19-.07.29-.1.1-.04.19-.07.28-.11.09-.04.19-.08.28-.11.09-.04.18-.08.27-.12.09-.04.18-.08.26-.12.09-.04.17-.08.26-.12.09-.04.17-.09.25-.13.08-.04.16-.09.24-.14.08-.04.16-.09.24-.14.08-.05.15-.1.23-.14.08-.05.15-.1.22-.15.07-.05.14-.1.21-.15.07-.05.14-.1.21-.16.07-.05.13-.11.19-.16.06-.05.12-.11.19-.17.06-.06.12-.11.18-.17.06-.06.11-.11.16-.17.05-.06.1-.12.15-.17.05-.06.1-.12.14-.18.04-.06.09-.12.13-.18.04-.06.08-.12.12-.18.04-.06.07-.12.11-.18.03-.06.06-.12.09-.18.03-.06.06-.12.08-.18.03-.06.05-.12.07-.18.02-.06.04-.12.06-.18.02-.06.04-.12.05-.19s.03-.12.04-.19c.01-.06.02-.12.03-.19,0-.06.01-.12.02-.18,0-.06.01-.12.01-.19,0-.05,0-.09,0-.14"/>
      <path class="cls-1" d="M29.42,33.5s0-.05,0-.08c0-.05,0-.11-.01-.16,0-.05-.01-.1-.02-.16,0-.05-.02-.1-.03-.16s-.03-.1-.04-.16c-.01-.05-.03-.1-.05-.15-.02-.05-.04-.1-.06-.15-.02-.05-.04-.1-.07-.15-.02-.05-.05-.1-.08-.15-.03-.05-.06-.1-.09-.15-.03-.05-.07-.1-.1-.15-.03-.05-.07-.1-.11-.15-.04-.05-.08-.1-.12-.15-.04-.05-.09-.1-.13-.14-.05-.05-.09-.1-.14-.15-.05-.05-.1-.1-.15-.14-.05-.05-.11-.09-.16-.14-.06-.05-.11-.09-.17-.14-.06-.04-.12-.09-.18-.13-.06-.04-.12-.09-.19-.13-.06-.04-.13-.09-.2-.13-.07-.04-.14-.08-.21-.13-.07-.04-.14-.08-.21-.12-.07-.04-.15-.08-.22-.12-.08-.04-.15-.08-.23-.12-.08-.04-.16-.08-.24-.11-.08-.04-.16-.07-.25-.11-.08-.04-.17-.07-.25-.11-.08-.03-.17-.07-.26-.1-.09-.03-.18-.07-.27-.1-.09-.03-.18-.07-.27-.1-.09-.03-.18-.06-.28-.1-.1-.03-.19-.06-.29-.09-.1-.03-.19-.06-.29-.09-.1-.03-.2-.06-.3-.09-.1-.03-.2-.05-.3-.08-.1-.03-.2-.05-.31-.08-.1-.03-.21-.05-.31-.08-.05-.01-.1-.02-.14-.03"/>
      <path class="cls-1" d="M7.43,28.88c-.07.02-.14.03-.21.05-.1.03-.21.05-.31.08-.1.03-.2.06-.3.09-.1.03-.2.06-.3.09-.1.03-.2.06-.29.09-.1.03-.19.06-.29.1-.1.03-.19.07-.28.1-.09.03-.19.07-.28.1-.09.04-.18.07-.27.1-.09.03-.17.07-.26.11-.09.04-.17.07-.26.11-.08.04-.17.08-.25.11-.08.04-.16.08-.24.12-.08.04-.16.08-.23.12-.08.04-.15.08-.22.12-.07.04-.15.08-.22.12-.07.04-.14.08-.21.13-.07.04-.14.09-.2.13-.07.04-.13.09-.19.13-.07.04-.13.09-.19.14-.06.05-.12.09-.18.14-.06.05-.11.1-.17.14-.06.05-.11.1-.16.15-.05.05-.1.1-.15.15-.05.05-.1.1-.14.15-.05.05-.09.1-.13.15-.04.05-.08.1-.12.15-.04.05-.07.1-.11.16-.04.05-.07.1-.1.16-.03.05-.06.11-.09.16-.03.05-.05.11-.08.16-.02.05-.04.11-.06.16-.02.05-.04.11-.05.16-.02.05-.03.11-.04.16-.01.05-.03.11-.03.16,0,.05-.02.11-.02.16,0,.05-.01.11-.01.16,0,.05,0,.1,0,.14"/>
    </g>
    <line class="cls-1" x1="29.55" y1="46.67" x2="29.42" y2="33.5"/>
    <line class="cls-1" x1=".78" y1="33.78" x2=".91" y2="46.95"/>
    <line class="cls-1" x1="22.7" y1="31.14" x2="22.53" y2="14.43"/>
    <line class="cls-1" x1="7.29" y1="14.59" x2="7.45" y2="31.29"/>
    <line class="cls-1" x1="30.04" y1="48.04" x2="29.55" y2="46.4"/>
    <line class="cls-1" x1=".91" y1="46.68" x2=".45" y2="48.34"/>
    <g>
      <path class="cls-1" d="M7.45,31.29s0,.05,0,.07c0,.02,0,.04,0,.05,0,.02,0,.03-.01.04,0,.01,0,.02-.01.03,0,0,0,.01,0,.02,0,0,0,.01,0,.01"/>
      <path class="cls-1" d="M22.7,31.14c0,.08.01.16.05.22"/>
    </g>
    <line class="cls-1" x1=".38" y1="48.9" x2="1" y2="111.43"/>
    <line class="cls-1" x1="30.75" y1="111.13" x2="30.13" y2="48.6"/>
    <g>
      <path class="cls-1" d="M7.89,187.59s-.1.04-.14.06c-.06.02-.12.05-.18.08-.06.02-.11.05-.17.07-.04.02-.08.03-.12.05-.04.02-.09.04-.13.05-.05.02-.1.04-.15.06-.05.02-.1.04-.14.06-.04.02-.08.04-.12.05-.02,0-.03.01-.05.02-.02,0-.03.01-.05.02-.01,0-.03.02-.05.02-.02,0-.03.01-.05.02-.02.01-.04.02-.07.03-.03.01-.06.02-.08.04-.03.01-.07.03-.1.04-.04.02-.08.04-.12.05-.05.02-.09.04-.14.06"/>
      <path class="cls-1" d="M7.8,178.79s-.05.02-.07.03c-.03.01-.07.03-.1.04-.03.01-.06.03-.1.04-.03.02-.07.03-.11.05-.03.01-.07.03-.1.04-.04.01-.08.03-.12.05-.05.02-.09.04-.14.06-.05.02-.11.04-.16.07-.05.02-.1.04-.14.06-.04.02-.08.04-.13.05-.02,0-.03.01-.05.02-.02,0-.03.01-.05.02-.02,0-.03.01-.05.02-.02,0-.03.01-.05.02-.02,0-.04.02-.06.02-.03.01-.05.02-.08.04-.03.01-.06.03-.1.04-.04.01-.08.03-.12.05-.05.02-.09.04-.14.06"/>
      <path class="cls-1" d="M7.72,169.98s-.02.01-.03.01c-.05.02-.09.04-.14.06-.04.02-.09.04-.13.06-.05.02-.1.04-.15.06-.03.01-.07.03-.1.04-.03.01-.06.02-.09.04-.02,0-.04.02-.06.03-.02,0-.04.02-.06.02-.03.01-.05.03-.08.04-.03.01-.07.03-.1.05-.03.01-.07.03-.1.04-.03.01-.06.03-.09.04-.01,0-.03.01-.05.02-.02,0-.03.01-.05.02-.01,0-.03.01-.04.02-.01,0-.03.01-.04.02-.01,0-.02,0-.03.02-.02,0-.03.01-.05.02-.03.01-.05.02-.08.04-.04.01-.07.03-.11.04-.04.02-.09.04-.13.05l-.15.07"/>
      <path class="cls-1" d="M7.63,161.18s-.02.01-.03.01c-.03.02-.07.03-.1.05-.03.01-.07.03-.1.04-.03.01-.06.03-.09.04-.03,0-.05.02-.08.03-.02,0-.04.02-.06.02-.02,0-.05.02-.07.03-.03.01-.06.02-.08.04l-.09.04-.1.04s-.06.02-.09.04c-.02,0-.05.02-.07.03-.02.01-.04.02-.06.03l-.07.03s-.05.02-.08.04c-.03.01-.06.02-.09.04-.03.01-.06.02-.08.03-.03.01-.06.02-.08.04-.03.01-.05.02-.08.03-.03.01-.06.03-.09.04-.04.02-.08.04-.12.05-.05.02-.1.04-.14.06"/>
      <path class="cls-1" d="M7.54,152.37s-.01,0-.02.01c-.03.01-.05.02-.08.03-.03.01-.05.02-.08.03-.03.01-.06.02-.08.04-.03.01-.06.03-.1.04-.04.02-.07.03-.11.05-.03.01-.06.03-.1.04-.03.01-.05.02-.08.03-.03.01-.06.03-.09.04l-.1.04s-.07.03-.1.05c-.03.01-.07.03-.1.04-.03.01-.06.03-.1.04-.02,0-.03.01-.05.02-.01,0-.03.01-.05.02-.01,0-.03.01-.04.02-.01,0-.03,0-.04.02-.01,0-.03.01-.04.02-.02,0-.04.02-.06.02-.03.01-.06.02-.09.04-.03.01-.07.03-.11.05-.04.02-.08.04-.12.05-.05.02-.1.04-.14.06"/>
      <path class="cls-1" d="M7.46,143.57s-.07.03-.1.04c-.04.02-.09.04-.13.06-.04.02-.09.04-.13.06-.04.02-.08.04-.12.05-.04.02-.07.03-.11.05-.06.02-.11.05-.17.07-.05.02-.1.04-.16.07-.05.02-.1.04-.15.07-.05.02-.09.04-.14.06-.02,0-.04.01-.06.02-.02,0-.04.02-.06.03-.02.01-.04.02-.07.03-.02,0-.05.02-.07.03-.02.01-.05.02-.07.03-.03.01-.06.03-.09.04-.03.02-.07.03-.11.05-.04.02-.09.04-.13.06"/>
      <path class="cls-1" d="M7.37,134.77s-.05.02-.07.03c-.03.01-.05.02-.08.03-.02.01-.05.02-.07.03-.03.01-.05.02-.08.03-.03.01-.06.03-.1.04-.05.02-.11.05-.16.07-.05.02-.1.04-.15.06-.04.02-.09.04-.13.05-.04.02-.08.04-.12.05-.04.02-.09.04-.13.06-.02,0-.04.02-.06.02-.02,0-.03.02-.05.02-.02,0-.03.01-.05.02-.02,0-.04.02-.06.02-.03,0-.05.02-.08.03-.03.02-.06.03-.1.04-.04.02-.08.03-.11.05-.05.02-.09.04-.13.06-.05.02-.1.04-.15.07"/>
      <path class="cls-1" d="M7.28,125.96s-.04.02-.06.03c-.04.02-.08.04-.12.05-.03.01-.07.03-.1.04-.03.01-.06.03-.09.04-.02.01-.05.02-.08.03-.02.01-.05.02-.07.03-.03.01-.07.03-.11.05-.04.02-.08.03-.12.05-.03.02-.07.03-.11.05-.03.02-.07.03-.1.05-.04.02-.07.03-.11.05-.04.02-.08.04-.12.05-.03.01-.06.02-.09.04-.03.01-.06.03-.09.04-.03.01-.05.02-.08.03-.02,0-.05.02-.07.03-.01,0-.03.01-.04.02-.02,0-.03.02-.05.02-.02,0-.05.02-.07.03-.03.01-.06.02-.09.04-.03.01-.07.03-.1.04"/>
      <path class="cls-1" d="M7.19,117.16s-.02.01-.04.02c-.05.02-.1.04-.14.06-.05.02-.1.04-.15.06-.04.02-.09.04-.14.06-.03.02-.07.03-.1.05l-.1.04s-.08.03-.11.05c-.04.02-.09.04-.13.05l-.12.05s-.07.03-.11.05c-.01,0-.03.01-.04.02-.01,0-.03.01-.04.02-.01,0-.03.01-.04.02l-.04.02s-.03.01-.04.02c-.02,0-.04.02-.06.02-.03.01-.06.02-.08.04-.03.01-.07.03-.1.04-.04.02-.09.04-.13.05-.05.02-.1.04-.15.06"/>
    </g>
    <line class="cls-1" x1="7.94" y1="192.14" x2="7.99" y2="197.32"/>
    <line class="cls-1" x1="7.85" y1="183.34" x2="7.9" y2="187.97"/>
    <line class="cls-1" x1="7.76" y1="174.53" x2="7.81" y2="179.17"/>
    <line class="cls-1" x1="7.68" y1="165.73" x2="7.72" y2="170.36"/>
    <line class="cls-1" x1="7.59" y1="156.93" x2="7.63" y2="161.56"/>
    <line class="cls-1" x1="7.5" y1="148.12" x2="7.55" y2="152.76"/>
    <line class="cls-1" x1="7.41" y1="139.32" x2="7.46" y2="143.96"/>
    <line class="cls-1" x1="7.32" y1="130.51" x2="7.37" y2="135.15"/>
    <line class="cls-1" x1="7.24" y1="121.71" x2="7.28" y2="126.35"/>
    <line class="cls-1" x1="7.16" y1="114.26" x2="7.2" y2="117.54"/>
    <line class="cls-1" x1="24.72" y1="121.77" x2="24.69" y2="119.06"/>
    <line class="cls-1" x1="24.8" y1="130.57" x2="24.78" y2="127.87"/>
    <line class="cls-1" x1="24.89" y1="139.38" x2="24.87" y2="136.67"/>
    <line class="cls-1" x1="24.98" y1="148.18" x2="24.95" y2="145.47"/>
    <line class="cls-1" x1="25.07" y1="156.99" x2="25.04" y2="154.28"/>
    <line class="cls-1" x1="25.16" y1="165.79" x2="25.13" y2="163.08"/>
    <line class="cls-1" x1="25.24" y1="174.59" x2="25.22" y2="171.88"/>
    <line class="cls-1" x1="25.33" y1="183.4" x2="25.31" y2="180.69"/>
    <line class="cls-1" x1="25.42" y1="192.2" x2="25.39" y2="189.49"/>
    <g>
      <path class="cls-1" d="M8,197.39s-.02.01-.03.01c-.02,0-.04.02-.06.03-.02,0-.03.01-.05.02-.01,0-.03.01-.04.02-.02.01-.05.02-.07.03-.03.01-.06.02-.08.04-.03.01-.06.03-.09.04-.03.01-.05.03-.08.04-.01,0-.03.01-.04.02-.02,0-.04.02-.06.02-.03.01-.05.02-.08.03-.03.01-.06.03-.09.04-.04.01-.07.03-.11.05"/>
      <path class="cls-1" d="M12.15,206.57s-.02.01-.02.01c-.05.03-.1.06-.16.09-.06.03-.12.06-.18.1-.06.03-.12.07-.18.1-.06.03-.11.06-.17.09-.03.02-.06.03-.09.05-.03.01-.05.03-.08.04-.02.01-.05.02-.07.04-.02.01-.05.02-.07.04-.03.01-.05.02-.07.04-.03.02-.06.03-.09.05-.04.02-.07.04-.11.06-.04.02-.09.05-.13.07"/>
      <path class="cls-1" d="M10.85,207.83s.07.03.1.04c.03.01.06.02.09.04.03.01.05.02.07.03.02,0,.03.02.05.02.01,0,.03,0,.04.01.02,0,.05.02.07.03.03.01.05.02.08.04.04.02.07.03.11.04.04.02.08.04.12.05.04.02.08.03.12.05.05.02.1.04.15.07.05.02.09.04.14.06.05.02.09.04.14.06.04.02.09.04.13.06.03.02.07.03.1.05.02,0,.04.02.07.03.03.01.05.02.08.04.03.01.06.02.09.04.03.01.06.03.1.05.04.02.07.03.11.05.04.02.08.04.12.05.04.02.08.04.12.06.04.02.07.04.11.05.02,0,.03.01.05.02"/>
    </g>
    <line class="cls-1" x1="13.21" y1="208.86" x2="15.99" y2="214.87"/>
    <line class="cls-1" x1="9.52" y1="200.87" x2="12.16" y2="206.59"/>
    <line class="cls-1" x1="8.11" y1="197.83" x2="8.12" y2="197.85"/>
    <line class="cls-1" x1="23.22" y1="202.54" x2="24.96" y2="198.56"/>
    <line class="cls-1" x1="19.08" y1="211.99" x2="21.48" y2="206.52"/>
    <line class="cls-1" x1="17.82" y1="214.85" x2="18.73" y2="212.79"/>
    <line class="cls-1" x1="16.29" y1="215.07" x2="16.91" y2="215.26"/>
    <line class="cls-1" x1="16.91" y1="215.26" x2="17.53" y2="215.05"/>
    <polyline class="cls-1" points="18.96 .79 19.25 .84 19.53 .89 19.8 .95 20.07 1.01 20.33 1.08 20.58 1.15 20.83 1.22 21.07 1.29 21.31 1.37 21.53 1.45 21.75 1.53 21.96 1.62 22.16 1.71 22.35 1.8 22.53 1.9 22.71 1.99 22.87 2.09 23.03 2.19 23.17 2.29 23.31 2.4 23.43 2.5 23.54 2.61 23.65 2.72 23.74 2.83 23.83 2.94 23.9 3.06 23.96 3.17 24.01 3.28 24.05 3.4 24.08 3.51 24.09 3.63 24.1 3.75 24.1 3.86 24.08 3.98 24.05 4.1 24.01 4.21 23.96 4.33 23.91 4.44 23.83 4.56 23.75 4.67 23.66 4.78 23.56 4.89 23.44 5 23.32 5.11 23.19 5.22 23.04 5.32 22.89 5.43 22.73 5.53 22.55 5.63 22.37 5.72 22.18 5.82 21.98 5.91 21.77 6 21.56 6.09 21.33 6.18 21.1 6.26 20.86 6.34 20.61 6.41 20.36 6.49 20.1 6.56 19.83 6.62 19.56 6.69 19.28 6.75 19 6.8 18.71 6.86 18.41 6.91 18.12 6.95 17.82 6.99 17.51 7.03 17.2 7.07 16.89 7.1 16.58 7.13 16.26 7.15 15.94 7.17 15.62 7.18 15.3 7.19 14.98 7.2 14.66 7.2 14.34 7.2 14.02 7.2 13.7 7.19 13.38 7.18 13.07 7.16 12.75 7.14 12.44 7.11 12.13 7.08 11.83 7.05 11.52 7.01 11.23 6.97 10.93 6.93 10.64 6.88 10.36 6.83 10.08 6.78 9.8 6.72 9.54 6.66 9.28 6.59 9.02 6.52 8.77 6.45 8.53 6.38 8.3 6.3 8.07 6.22 7.86 6.13 7.65 6.05 7.45 5.96 7.26 5.87 7.07 5.77 6.9 5.68 6.73 5.58 6.58 5.48 6.44 5.37 6.3 5.27 6.18 5.16 6.06 5.06 5.96 4.95 5.86 4.84 5.78 4.72 5.71 4.61 5.65 4.5 5.6 4.38 5.56 4.27 5.53 4.15 5.51 4.04 5.51 3.92 5.51 3.8 5.53 3.69 5.55 3.57 5.59 3.46 5.64 3.34 5.7 3.23 5.77 3.11 5.85 3 5.94 2.89 6.05 2.78 6.16 2.67 6.28 2.56 6.42 2.45 6.56 2.35 6.72 2.24 6.88 2.14 7.05 2.04 7.23 1.94 7.42 1.85 7.62 1.76 7.83 1.66 8.05 1.58 8.27 1.49 8.5 1.41 8.74 1.33 8.99 1.25 9.25 1.18 9.51 1.11 9.77 1.04 10.05 .98 10.32 .92 10.61 .86 10.9 .81 11.19 .76 11.49 .72 11.79 .67 12.1 .63 12.4 .6 12.72 .57 13.03 .54 13.35 .52 13.66 .5 13.98 .49 14.3 .47 14.62 .47 14.94 .46 15.27 .46 15.59 .47 15.91 .48 16.22 .49 16.54 .51 16.85 .53 17.16 .55 17.47 .58 17.78 .62 18.08 .65 18.38 .69 18.67 .74 18.96 .79"/>
    <line class="cls-1" x1=".78" y1="33.78" x2=".78" y2="33.78"/>
    <polyline class="cls-1" points="29.55 46.67 29.55 46.69 29.54 46.83 29.53 46.98 29.5 47.12 29.46 47.26 29.41 47.41 29.35 47.55 29.28 47.69 29.2 47.83 29.11 47.97 29 48.11 28.89 48.25 28.76 48.39 28.63 48.53 28.48 48.66 28.33 48.79 28.16 48.93 27.99 49.06 27.81 49.18 27.61 49.31 27.41 49.44 27.19 49.56 26.97 49.68 26.74 49.8 26.5 49.92 26.25 50.03 25.99 50.14 25.73 50.25 25.46 50.36 25.17 50.46 24.88 50.56 24.59 50.66 24.29 50.75 23.97 50.85 23.66 50.93 23.33 51.02 23 51.1 22.67 51.18 22.33 51.26 21.98 51.33 21.63 51.4 21.27 51.46 20.91 51.53 20.54 51.58 20.17 51.64 19.8 51.69 19.42 51.74 19.04 51.78 18.66 51.82 18.27 51.86 17.88 51.89 17.49 51.92 17.1 51.94 16.71 51.96 16.31 51.98 15.92 51.99 15.52 52 15.13 52 14.73 52 14.33 52 13.94 51.99 13.54 51.98 13.15 51.96 12.76 51.94 12.37 51.92 11.98 51.89 11.6 51.86 11.22 51.83 10.84 51.79 10.46 51.75 10.09 51.7 9.72 51.65 9.36 51.59 9 51.54 8.65 51.48 8.3 51.41 7.95 51.34 7.61 51.27 7.28 51.2 6.95 51.12 6.64 51.04 6.32 50.95 6.02 50.86 5.71 50.77 5.42 50.68 5.14 50.58 4.86 50.48 4.59 50.38 4.33 50.27 4.08 50.16 3.83 50.05 3.6 49.94 3.37 49.82 3.15 49.7 2.94 49.58 2.75 49.46 2.56 49.34 2.38 49.21 2.21 49.08 2.05 48.95 1.9 48.82 1.76 48.69 1.63 48.55 1.51 48.42 1.4 48.28 1.31 48.14 1.22 48 1.14 47.86 1.08 47.72 1.02 47.58 .98 47.44 .95 47.29 .93 47.15 .91 47.01 .91 46.95"/>
    <polyline class="cls-1" points="30.04 48.04 30.05 48.09 30.09 48.23 30.11 48.38 30.12 48.52 30.13 48.67 30.12 48.82 30.1 48.96 30.07 49.11 30.02 49.26 29.97 49.4 29.91 49.55 29.83 49.69 29.75 49.84 29.65 49.98 29.55 50.12 29.43 50.26 29.3 50.4 29.16 50.54 29.01 50.68 28.85 50.82 28.69 50.95 28.51 51.08 28.32 51.21 28.12 51.34 27.91 51.47 27.7 51.6 27.47 51.72 27.23 51.84 26.99 51.96 26.74 52.08 26.48 52.19 26.21 52.3 25.93 52.41 25.64 52.52 25.35 52.62 25.05 52.72 24.74 52.82 24.43 52.92 24.1 53.01 23.78 53.1 23.44 53.18 23.1 53.26 22.75 53.34 22.4 53.42 22.05 53.49 21.68 53.56 21.31 53.62 20.94 53.68 20.57 53.74 20.19 53.79 19.81 53.85 19.42 53.89 19.03 53.93 18.64 53.97 18.24 54.01 17.84 54.04 17.44 54.07 17.04 54.09 16.64 54.11 16.24 54.12 15.83 54.14 15.43 54.14 15.02 54.15 14.62 54.14 14.22 54.14 13.81 54.13 13.41 54.12 13.01 54.1 12.61 54.08 12.21 54.06 11.82 54.03 11.43 53.99 11.04 53.96 10.65 53.92 10.27 53.88 9.89 53.83 9.51 53.78 9.14 53.72 8.77 53.66 8.41 53.6 8.06 53.53 7.71 53.46 7.36 53.39 7.02 53.31 6.69 53.23 6.36 53.15 6.04 53.06 5.72 52.97 5.41 52.88 5.12 52.79 4.82 52.69 4.54 52.59 4.26 52.48 3.99 52.37 3.73 52.26 3.48 52.15 3.24 52.04 3 51.92 2.78 51.8 2.56 51.68 2.36 51.55 2.16 51.43 1.97 51.3 1.8 51.17 1.63 51.03 1.47 50.9 1.32 50.76 1.19 50.63 1.06 50.49 .94 50.35 .84 50.21 .74 50.07 .66 49.93 .59 49.78 .52 49.64 .47 49.49 .43 49.35 .4 49.2 .38 49.06 .38 48.91 .38 48.76 .39 48.62 .42 48.47 .45 48.34"/>
    <polyline class="cls-1" points="20.1 116.41 20.49 116.37 20.87 116.31 21.25 116.26 21.63 116.2 22 116.14 22.37 116.07 22.73 116 23.09 115.93 23.44 115.86 23.79 115.78 24.13 115.69 24.46 115.61 24.79 115.52 25.11 115.43 25.43 115.33 25.73 115.23 26.03 115.13 26.33 115.02 26.61 114.92 26.89 114.81 27.16 114.7 27.42 114.58 27.67 114.46 27.91 114.34 28.15 114.22 28.37 114.1 28.59 113.97 28.79 113.84 28.99 113.71 29.17 113.58 29.35 113.44 29.52 113.31 29.68 113.17 29.82 113.03 29.96 112.89 30.08 112.75 30.2 112.61 30.3 112.47 30.39 112.32 30.48 112.18 30.55 112.03 30.61 111.89 30.66 111.74 30.7 111.59 30.73 111.45 30.74 111.3 30.75 111.15 30.75 111.13"/>
    <g>
      <path class="cls-1" d="M19.34,68.61c.1,0,.19-.02.29-.02"/>
      <path class="cls-1" d="M8.74,68.33c3.5.58,7.07.67,10.6.29"/>
      <path class="cls-1" d="M1.55,65.54c2.11,1.54,4.59,2.5,7.19,2.79"/>
      <path class="cls-1" d="M1.45,65.45s.07.06.11.09"/>
      <path class="cls-1" d="M1,111.43c.05.71.38,1.38.93,1.85"/>
      <path class="cls-1" d="M1.45,65.45s.06.08.1.14c.03.06.07.13.1.2.06.13.12.27.18.41"/>
      <path class="cls-1" d="M19.08,69.17c.05-.12.11-.23.2-.34.04-.05.09-.11.14-.15.06-.05.13-.08.2-.09"/>
      <path class="cls-1" d="M19.08,69.17c-.49,1.09-.99,2.17-1.49,3.25-.51,1.08-1.02,2.15-1.58,3.19-.28.52-.57,1.04-.9,1.52-.16.24-.34.48-.53.7-.19.22-.4.42-.63.59-.23.17-.49.3-.77.39-.28.09-.57.14-.87.16-.6.04-1.22-.03-1.83-.13-.61-.11-1.23-.27-1.83-.53-.3-.13-.59-.29-.87-.49-.27-.2-.52-.43-.75-.68-.23-.25-.44-.54-.62-.82-.19-.29-.36-.58-.52-.87-.33-.59-.62-1.2-.91-1.81-.57-1.22-1.1-2.46-1.62-3.71-.52-1.24-1.03-2.49-1.54-3.73"/>
      <path class="cls-1" d="M19.55,116.4c.18.03.36.03.54.01"/>
    </g>
    <line class="cls-1" x1="2.29" y1="113.42" x2="19.56" y2="116.4"/>
    <g>
      <path class="cls-1" d="M1.92,113.27c.1.08.23.13.36.14"/>
      <path class="cls-1" d="M22.53,116.04s0,0-.01,0c-.11.08-.24.16-.37.24-.13.08-.26.16-.4.23-.14.08-.28.15-.43.23-.13.07-.27.14-.41.2-.14.07-.28.13-.43.19-.15.06-.29.12-.44.18-.15.06-.3.12-.46.17-.15.05-.31.11-.47.16-.16.05-.31.1-.48.15-.17.05-.35.1-.53.15-.17.05-.35.09-.53.13-.18.04-.35.08-.53.12-.17.04-.35.07-.53.1-.18.03-.35.06-.53.09-.18.03-.36.06-.53.08-.18.03-.36.05-.54.07-.17.02-.33.04-.5.06s-.33.04-.49.05c-.17.01-.33.03-.49.04-.16.01-.33.02-.49.03-.16,0-.32.02-.48.02-.16,0-.31.01-.47.01-.17,0-.33,0-.49,0-.16,0-.32,0-.47,0-.15,0-.31-.01-.45-.02-.15,0-.29-.02-.43-.03-.14-.01-.27-.03-.4-.04-.13-.02-.25-.04-.37-.05-.12-.02-.23-.04-.34-.07-.12-.02-.24-.05-.34-.08-.11-.03-.21-.06-.31-.09-.1-.03-.19-.06-.28-.1-.09-.03-.17-.07-.25-.1-.08-.03-.15-.07-.21-.1-.06-.03-.11-.07-.16-.1-.05-.03-.09-.07-.13-.1-.04-.04-.07-.07-.09-.11-.02-.04-.04-.07-.06-.11-.01-.04-.03-.07-.02-.11,0,0,0,0,0,0"/>
      <path class="cls-1" d="M20.12,126.13c-.15.06-.31.12-.46.17-.15.05-.31.11-.47.16-.16.05-.32.1-.48.15-.17.05-.35.1-.53.15-.17.05-.35.09-.53.13-.17.04-.35.08-.53.12-.17.04-.35.07-.53.1-.17.03-.35.06-.53.09-.18.03-.36.06-.53.08-.18.03-.36.05-.54.07-.17.02-.33.04-.5.06-.17.02-.33.03-.49.05-.17.02-.33.03-.49.04-.16.01-.33.02-.49.03-.16.01-.32.02-.48.02-.16,0-.31,0-.47.01-.17,0-.33,0-.49,0-.16,0-.32,0-.47,0-.15,0-.3-.01-.45-.02-.15,0-.29-.02-.43-.03-.14-.01-.27-.03-.4-.04-.13-.02-.25-.03-.37-.05-.12-.02-.23-.04-.34-.07-.12-.02-.24-.05-.34-.08-.11-.03-.21-.06-.31-.09-.1-.03-.19-.07-.28-.1-.09-.03-.17-.07-.25-.1-.08-.04-.15-.07-.21-.11-.06-.03-.11-.07-.16-.1-.05-.04-.09-.07-.13-.1-.04-.04-.07-.07-.09-.11-.02-.04-.04-.07-.06-.11-.02-.04-.03-.07-.02-.11,0,0,0,0,0,0"/>
      <path class="cls-1" d="M24.72,121.77c0,.1,0,.19-.01.29,0,.1-.03.2-.05.3-.03.11-.06.21-.09.32-.04.11-.08.21-.14.31-.05.1-.11.2-.17.3-.06.1-.14.2-.21.29-.08.09-.16.19-.24.28-.08.08-.16.17-.25.25"/>
      <path class="cls-1" d="M20.21,134.94c-.15.06-.3.12-.46.17-.15.05-.31.11-.47.16-.16.05-.32.1-.48.15-.17.05-.35.1-.53.15-.17.05-.35.09-.53.13-.17.04-.35.08-.53.12-.17.04-.35.07-.53.1-.17.03-.35.06-.52.09-.18.03-.36.06-.53.08-.18.03-.36.05-.54.07-.17.02-.33.04-.5.06-.17.02-.33.04-.49.05-.17.01-.33.03-.49.04-.16.01-.33.02-.49.03-.16,0-.32.02-.48.02-.16,0-.31,0-.47.01-.17,0-.33,0-.49,0-.16,0-.32,0-.47,0-.15,0-.31-.01-.45-.02-.15,0-.29-.02-.43-.03-.14-.01-.27-.03-.4-.04-.13-.02-.25-.03-.37-.05-.12-.02-.24-.04-.34-.06-.12-.03-.24-.05-.34-.08-.11-.03-.21-.06-.31-.09-.1-.03-.19-.06-.28-.1-.09-.03-.17-.07-.25-.1-.08-.04-.15-.07-.21-.11-.06-.03-.11-.07-.16-.1-.05-.03-.09-.07-.13-.1-.04-.03-.07-.07-.09-.11-.02-.04-.04-.07-.06-.11-.01-.04-.03-.07-.02-.11h0"/>
      <path class="cls-1" d="M24.8,130.57c0,.1,0,.19-.01.29,0,.1-.03.2-.05.29-.03.11-.06.21-.09.32-.04.11-.08.21-.14.31-.05.1-.11.2-.17.3-.06.1-.13.2-.21.29-.07.09-.15.19-.24.28-.08.08-.16.17-.25.25"/>
      <path class="cls-1" d="M20.3,143.74c-.15.06-.3.12-.46.17-.15.06-.31.11-.47.16-.16.05-.32.1-.48.15-.17.05-.35.1-.53.15-.17.05-.35.09-.53.14-.18.04-.35.08-.53.12-.17.04-.35.07-.53.1-.17.03-.35.06-.52.09-.18.03-.36.05-.53.08-.18.03-.36.05-.54.07-.17.02-.33.04-.5.06-.17.02-.33.03-.5.05-.17.01-.33.03-.49.04-.16.01-.33.02-.48.03-.16,0-.32.02-.48.02-.16,0-.31,0-.46.01-.17,0-.33,0-.49,0-.16,0-.32,0-.47-.01-.15,0-.31-.01-.45-.02-.15,0-.29-.02-.43-.03-.14-.01-.27-.03-.4-.04-.13-.02-.25-.03-.37-.05-.12-.02-.23-.04-.34-.06-.12-.03-.24-.05-.34-.08-.11-.03-.21-.06-.31-.09-.1-.03-.19-.06-.28-.1-.09-.03-.17-.07-.25-.1-.08-.04-.15-.07-.21-.11-.06-.03-.11-.07-.16-.1-.05-.03-.09-.07-.13-.1-.04-.04-.07-.07-.09-.11-.02-.04-.04-.07-.06-.11-.01-.04-.03-.07-.02-.11h0"/>
      <path class="cls-1" d="M24.89,139.38c0,.1,0,.19-.01.29,0,.1-.03.2-.05.3-.03.11-.06.21-.09.32-.04.11-.08.21-.14.31-.05.1-.11.2-.17.3-.06.1-.13.2-.21.29-.07.09-.15.19-.24.28-.08.08-.16.17-.25.25"/>
      <path class="cls-1" d="M19.93,152.72c-.15.06-.31.11-.47.16-.16.05-.32.1-.48.15-.17.05-.35.1-.53.15-.17.05-.35.09-.53.13-.18.04-.35.08-.53.12-.17.04-.35.07-.53.1-.17.03-.35.06-.53.09-.18.03-.35.06-.53.08-.18.03-.36.05-.54.07-.17.02-.33.04-.5.06-.17.02-.33.03-.5.05-.17.01-.33.03-.49.04-.16.01-.32.02-.49.03-.16,0-.32.02-.48.02-.16,0-.31.01-.47.01-.17,0-.33,0-.49,0-.16,0-.32,0-.47-.01-.15,0-.31-.01-.45-.02-.15-.01-.29-.02-.43-.03-.14-.01-.27-.03-.4-.04-.13-.02-.25-.03-.37-.05-.12-.02-.23-.04-.34-.06-.12-.02-.24-.05-.34-.08-.11-.03-.21-.06-.31-.09-.1-.03-.19-.06-.28-.1-.09-.03-.17-.06-.25-.1-.08-.04-.15-.07-.21-.11-.06-.03-.11-.06-.16-.1-.05-.04-.09-.07-.13-.11-.04-.03-.07-.07-.09-.1-.02-.04-.04-.07-.06-.11-.01-.04-.03-.07-.02-.11,0,0,0,0,0,0"/>
      <path class="cls-1" d="M24.98,148.18c0,.1,0,.19-.01.28,0,.1-.03.2-.05.3-.03.11-.06.21-.09.32-.04.1-.08.21-.14.31-.05.1-.11.2-.17.3-.06.1-.13.2-.21.29-.07.1-.15.19-.24.28-.08.08-.16.17-.25.25"/>
      <path class="cls-1" d="M20.02,161.52c-.16.06-.31.11-.47.16-.16.05-.32.1-.48.15-.17.05-.35.1-.53.15-.17.05-.35.09-.53.14-.18.04-.35.08-.53.12-.18.04-.35.07-.53.1-.17.03-.35.06-.53.09-.18.03-.35.06-.53.08-.18.03-.36.05-.54.08-.17.02-.33.04-.49.06-.17.02-.33.04-.5.05-.17.01-.33.03-.49.04-.16.01-.32.02-.49.03-.16.01-.32.02-.48.02-.16,0-.31.01-.47.01-.17,0-.33,0-.49,0-.16,0-.32,0-.47,0-.15,0-.3-.01-.45-.02-.15,0-.29-.02-.43-.03-.14-.01-.27-.03-.4-.04-.13-.02-.25-.03-.37-.05-.12-.02-.23-.04-.34-.06-.12-.02-.24-.05-.34-.08-.11-.03-.21-.06-.31-.09-.1-.03-.19-.06-.28-.09-.09-.04-.17-.07-.25-.1-.08-.04-.15-.07-.21-.11-.06-.03-.11-.07-.16-.1-.05-.04-.09-.07-.13-.11-.04-.03-.07-.07-.09-.1-.03-.04-.04-.07-.06-.11-.01-.04-.03-.07-.02-.11h0"/>
      <path class="cls-1" d="M25.07,156.99c0,.09,0,.19-.01.29,0,.1-.03.2-.05.3-.03.11-.06.21-.1.32-.04.1-.08.21-.14.31-.05.1-.11.2-.17.3-.06.1-.13.2-.21.29-.08.09-.15.19-.24.28-.08.08-.16.17-.25.25"/>
      <path class="cls-1" d="M20.1,170.32c-.15.06-.31.11-.47.16-.16.05-.31.1-.48.15-.17.05-.35.1-.53.15-.18.04-.35.09-.53.13-.18.04-.35.08-.53.12-.18.04-.35.07-.53.1-.17.03-.35.06-.52.09-.18.03-.36.05-.53.08-.18.03-.36.05-.54.07-.17.02-.33.04-.49.06-.17.02-.33.04-.5.05-.17.02-.33.03-.49.04-.16.01-.32.02-.48.03-.16.01-.32.02-.48.02-.16,0-.31,0-.47.01-.17,0-.33,0-.49,0-.16,0-.32,0-.47,0-.15,0-.31-.01-.45-.02-.15,0-.29-.02-.43-.04-.14,0-.27-.02-.4-.04-.13-.02-.25-.04-.37-.05-.12-.02-.23-.04-.34-.06-.12-.03-.24-.05-.34-.08-.11-.03-.21-.06-.31-.09-.1-.03-.19-.06-.28-.1-.09-.03-.17-.07-.25-.1-.08-.04-.15-.07-.21-.11-.06-.03-.11-.07-.16-.1-.05-.03-.09-.07-.13-.1s-.07-.07-.09-.11c-.02-.04-.04-.07-.06-.11-.01-.04-.03-.07-.02-.11h0"/>
      <path class="cls-1" d="M25.16,165.79c0,.09,0,.19-.01.28,0,.1-.03.2-.05.3-.02.11-.06.21-.09.32-.04.11-.08.21-.14.31-.05.1-.11.2-.17.3-.06.1-.13.2-.21.29-.07.1-.16.19-.24.28-.08.08-.16.16-.25.25-.09.08-.18.17-.28.25"/>
      <path class="cls-1" d="M20.19,179.13c-.16.06-.31.11-.47.16-.16.05-.32.1-.48.15-.17.05-.35.1-.53.15-.17.05-.35.09-.53.14-.17.04-.35.08-.53.12-.17.04-.35.07-.53.1-.17.03-.35.06-.52.09-.18.03-.36.06-.53.08-.18.03-.36.05-.54.08-.17.02-.33.04-.5.06-.17.02-.33.04-.49.05-.17.01-.33.03-.49.04-.16.01-.32.02-.49.03-.16.01-.32.02-.48.02-.16,0-.31.01-.46.01-.17,0-.33,0-.49,0-.16,0-.32,0-.47,0-.15,0-.3-.01-.45-.02-.15,0-.29-.02-.43-.03-.14-.01-.27-.03-.4-.05-.13-.02-.25-.03-.37-.05-.12-.02-.23-.04-.34-.07-.12-.02-.23-.05-.34-.08-.11-.03-.21-.06-.31-.09-.1-.03-.19-.06-.28-.1-.09-.03-.17-.07-.25-.1-.08-.04-.15-.07-.21-.11-.06-.03-.11-.07-.16-.1-.05-.04-.09-.07-.13-.1-.04-.04-.07-.07-.09-.11-.02-.04-.04-.07-.06-.11-.01-.04-.03-.07-.02-.11h0"/>
      <path class="cls-1" d="M25.24,174.59c0,.1,0,.19-.01.29,0,.1-.03.2-.05.29-.02.11-.06.21-.09.32-.04.1-.08.21-.14.31-.05.1-.11.2-.17.3-.06.1-.13.2-.21.29-.07.1-.16.19-.24.28-.08.08-.16.17-.25.25"/>
      <path class="cls-1" d="M19.81,188.09c-.16.05-.32.1-.48.15-.17.05-.35.1-.53.15-.17.05-.35.09-.53.13-.17.04-.35.08-.53.12-.17.04-.35.07-.53.1-.18.03-.35.06-.53.09-.18.03-.36.06-.53.08-.18.03-.36.05-.54.07-.17.02-.33.04-.5.06-.17.02-.33.04-.49.05-.17.02-.33.03-.49.04-.16.01-.33.02-.49.03-.16.01-.32.02-.48.02-.16,0-.31,0-.47,0-.17,0-.33,0-.49,0-.16,0-.32,0-.47,0-.15,0-.31-.01-.45-.02-.15-.01-.29-.02-.43-.03-.14-.01-.27-.03-.4-.05-.13-.02-.25-.04-.37-.05-.12-.02-.23-.04-.34-.06-.12-.02-.24-.05-.34-.08-.11-.03-.21-.06-.31-.09-.1-.03-.19-.07-.28-.1-.09-.03-.17-.07-.25-.1-.08-.04-.15-.07-.21-.11-.06-.03-.11-.07-.16-.1-.05-.03-.09-.07-.13-.1-.04-.03-.07-.07-.09-.1-.02-.04-.04-.07-.06-.11-.01-.04-.02-.07-.02-.11,0,0,0,0,0,0"/>
      <path class="cls-1" d="M25.33,183.4c0,.09,0,.19-.01.29,0,.1-.03.2-.05.29-.02.11-.06.21-.09.32-.04.11-.08.21-.13.31-.05.1-.11.2-.17.3-.06.1-.13.2-.21.29-.07.1-.15.19-.24.28-.08.08-.16.17-.25.25-.09.08-.18.17-.28.25-.1.08-.21.16-.31.25-.11.08-.22.16-.34.25"/>
      <path class="cls-1" d="M25.42,192.2c0,.09,0,.19-.01.29,0,.1-.02.2-.05.3-.02.11-.06.21-.09.32-.04.11-.08.21-.13.31-.05.1-.11.2-.17.3-.06.1-.13.2-.21.29-.07.09-.16.19-.24.28-.08.09-.17.18-.26.26-.09.09-.19.17-.3.26"/>
      <path class="cls-1" d="M26.89,117.5c-.09.08-.18.17-.27.25-.1.08-.2.17-.3.25-.11.08-.21.17-.33.25-.11.08-.23.17-.35.25-.12.08-.25.16-.38.24-.13.08-.26.16-.4.23-.14.08-.28.15-.42.23-.14.08-.29.15-.44.22-.15.07-.31.15-.46.22-.19.08-.38.17-.58.25-.2.08-.4.16-.6.23-.2.08-.41.15-.62.22-.21.07-.43.14-.65.21-.22.07-.44.13-.66.19-.22.06-.44.12-.67.18-.21.05-.43.1-.65.15-.22.05-.43.1-.65.14-.22.04-.43.08-.65.12-.22.04-.43.07-.65.11-.21.03-.43.06-.65.09-.22.03-.43.06-.65.08-.22.03-.44.05-.66.07-.22.02-.44.04-.66.06-.23.02-.47.04-.7.05-.23.02-.47.03-.7.04-.23,0-.46.02-.69.02-.23,0-.46,0-.68.01-.23,0-.45,0-.67,0s-.44-.01-.65-.02c-.19,0-.37-.02-.55-.03-.18-.01-.36-.02-.53-.04-.17-.01-.34-.03-.51-.05-.17-.02-.33-.04-.49-.06-.16-.02-.32-.04-.47-.07-.15-.02-.3-.05-.44-.08-.14-.02-.28-.05-.42-.08-.13-.03-.26-.06-.39-.09-.13-.03-.25-.06-.37-.1-.14-.04-.28-.08-.41-.12-.13-.04-.25-.09-.37-.13-.12-.05-.23-.09-.34-.14-.11-.05-.21-.1-.31-.15-.1-.05-.19-.1-.28-.15-.09-.05-.17-.1-.24-.16-.07-.05-.13-.09-.18-.14-.06-.05-.11-.09-.15-.14-.05-.05-.09-.1-.12-.15-.04-.05-.07-.1-.09-.15-.02-.05-.04-.1-.06-.15-.01-.05-.02-.1-.03-.15,0-.05,0-.1,0-.15,0-.05.02-.1.03-.15.02-.05.03-.1.06-.15.03-.06.07-.12.11-.17.04-.06.09-.11.15-.17.06-.06.12-.11.19-.17.07-.06.14-.11.22-.16.08-.05.16-.11.26-.16.09-.05.19-.1.29-.15.09-.04.17-.09.27-.13.02,0,.04-.02.07-.03"/>
      <path class="cls-1" d="M24.7,119.47c.06.03.13.07.19.1.14.07.27.14.4.22.13.07.25.15.37.22.14.09.28.18.41.27.13.09.25.18.37.27.12.09.23.19.34.28.11.1.22.2.31.3.1.1.19.2.28.31.09.11.17.21.25.32.06.09.12.19.18.28.06.09.11.19.15.29.05.1.09.19.12.29.04.1.07.2.09.29.03.1.05.2.06.3.01.1.03.2.03.29,0,.1,0,.2,0,.29,0,.1-.01.2-.03.29-.01.1-.03.19-.06.29-.03.11-.06.23-.11.34-.04.11-.09.22-.15.33-.05.11-.12.22-.18.33-.07.11-.14.21-.22.32-.08.1-.16.21-.26.31-.09.1-.18.2-.29.3-.09.08-.18.17-.27.25-.1.08-.2.17-.3.25-.11.08-.22.16-.33.25-.11.08-.23.16-.35.24-.12.08-.25.16-.38.24-.13.08-.26.16-.4.23-.14.08-.28.15-.42.23-.15.07-.29.15-.44.22-.15.07-.31.14-.46.22-.19.08-.38.17-.58.25-.2.08-.4.16-.6.23-.2.08-.41.15-.62.22-.21.07-.43.14-.64.21-.22.07-.44.13-.66.19-.22.06-.44.12-.67.17-.21.05-.43.11-.65.15-.22.05-.43.09-.65.14-.22.04-.43.08-.65.12-.21.04-.43.07-.65.11-.21.03-.43.06-.65.09-.22.03-.43.05-.65.08-.22.03-.44.05-.66.07-.22.02-.44.04-.66.06-.23.02-.47.04-.7.05-.23.01-.46.03-.69.04-.23.01-.46.02-.69.02-.23,0-.46,0-.68,0-.23,0-.45,0-.67,0-.22,0-.44-.01-.66-.02-.18,0-.37-.02-.54-.03-.18,0-.36-.02-.53-.04-.17-.01-.34-.03-.51-.05-.17-.02-.33-.04-.49-.06-.16-.02-.32-.04-.47-.07-.15-.02-.3-.05-.44-.07-.14-.03-.28-.05-.42-.08-.13-.03-.27-.06-.39-.09-.13-.03-.25-.06-.37-.1-.14-.04-.28-.08-.41-.12-.13-.04-.25-.09-.37-.13-.12-.05-.23-.09-.34-.14-.11-.05-.21-.1-.31-.15-.1-.05-.19-.1-.28-.15s-.17-.1-.24-.16c-.07-.05-.13-.09-.18-.14-.06-.04-.1-.09-.15-.14-.05-.05-.09-.1-.12-.15-.04-.05-.07-.1-.09-.15-.02-.05-.05-.1-.06-.15-.01-.05-.02-.1-.03-.15,0-.05,0-.1,0-.15,0-.05.02-.1.03-.15.02-.05.04-.1.06-.15.03-.06.06-.12.11-.17.04-.06.09-.12.15-.17.05-.06.12-.11.19-.17.07-.05.14-.11.22-.16.08-.05.16-.11.26-.16.09-.05.19-.11.29-.15.09-.05.17-.09.27-.13.02,0,.05-.02.07-.03"/>
      <path class="cls-1" d="M24.78,128.28c.06.03.13.07.19.1.14.07.27.15.4.22.13.07.25.15.37.23.14.09.28.18.41.27.13.09.25.18.37.27.12.09.24.19.35.29.11.1.22.2.31.3.1.1.19.2.28.31.09.1.17.21.25.32.07.09.13.18.18.28.06.1.11.19.15.29.05.1.09.19.12.29.04.1.07.2.09.29.03.1.05.2.06.3.02.1.03.19.03.29,0,.1,0,.2,0,.29,0,.1-.01.2-.03.29-.02.1-.03.19-.06.29-.03.11-.06.23-.11.34-.04.11-.09.22-.15.33-.05.11-.12.22-.18.33-.07.11-.14.21-.22.32-.08.1-.16.21-.26.31-.09.1-.18.2-.29.3-.09.08-.18.17-.27.25-.1.08-.2.17-.3.25-.11.08-.21.17-.33.25-.12.08-.23.17-.35.25-.12.08-.25.16-.38.24-.13.08-.26.16-.4.23-.14.08-.28.15-.42.23-.14.07-.29.15-.44.22-.15.07-.31.15-.47.22-.19.08-.38.17-.58.25-.2.08-.4.16-.61.23-.2.08-.41.15-.62.22-.21.07-.43.14-.64.21-.22.07-.44.13-.66.19-.22.06-.44.12-.67.18-.21.05-.43.1-.65.15-.22.05-.43.09-.65.14-.22.04-.43.08-.65.12-.21.04-.43.07-.65.11-.22.03-.43.06-.65.09-.22.03-.43.05-.65.08-.22.03-.44.05-.66.07-.22.02-.44.04-.66.06-.23.02-.47.04-.7.05-.23.01-.46.03-.69.04-.23,0-.46.02-.69.02-.23,0-.46,0-.68.01-.23,0-.45,0-.67,0-.22,0-.44-.01-.65-.02-.18,0-.37-.02-.55-.03-.18,0-.35-.02-.53-.04-.17-.01-.34-.03-.51-.05-.17-.02-.33-.04-.49-.06-.16-.02-.32-.04-.47-.07-.15-.02-.3-.05-.44-.07-.14-.03-.28-.05-.42-.08-.13-.03-.26-.06-.39-.09-.13-.03-.25-.06-.37-.1-.14-.04-.28-.08-.41-.12-.13-.04-.25-.09-.37-.13-.12-.04-.23-.09-.34-.14-.11-.05-.21-.1-.31-.14-.1-.05-.19-.1-.28-.15-.09-.05-.17-.1-.25-.16-.07-.05-.12-.09-.18-.14-.06-.05-.1-.09-.15-.14-.05-.05-.09-.1-.12-.15-.03-.05-.07-.1-.09-.15-.03-.05-.05-.1-.06-.15-.01-.05-.02-.1-.03-.15,0-.05,0-.1,0-.15,0-.05.02-.1.03-.15.01-.05.04-.1.06-.14.03-.06.06-.12.11-.17.04-.06.09-.11.15-.17.06-.06.12-.11.19-.17.07-.06.14-.11.22-.16.08-.05.16-.11.26-.16.09-.05.19-.1.29-.15.09-.04.17-.09.27-.13.02,0,.05-.02.07-.03"/>
      <path class="cls-1" d="M24.87,137.08c.07.03.13.07.19.1.14.07.27.14.39.22.13.08.25.15.37.22.14.09.28.18.41.27.13.09.25.18.37.27.12.09.24.19.34.29.11.1.22.2.31.3.1.1.2.2.28.31.09.1.17.21.25.32.07.09.13.18.18.28.06.09.11.19.15.29.05.1.09.19.12.29.04.1.07.2.09.29.03.1.05.2.06.3.02.1.03.2.03.29,0,.1,0,.2,0,.29,0,.1-.01.2-.03.29-.01.1-.03.2-.06.29-.03.11-.06.23-.11.34-.04.11-.09.22-.15.33-.06.11-.12.22-.18.33s-.14.21-.22.32c-.08.1-.16.21-.26.31-.09.1-.19.2-.29.3-.09.08-.18.17-.27.25-.1.08-.2.17-.3.25-.1.08-.21.17-.33.25-.11.08-.23.16-.35.24-.12.08-.25.16-.38.24-.13.08-.26.16-.4.23-.14.08-.28.15-.42.23-.14.08-.29.15-.44.22-.15.07-.31.14-.47.22-.19.08-.38.17-.58.25-.2.08-.4.16-.6.23-.21.08-.41.15-.62.22-.21.07-.43.14-.64.21-.22.07-.44.13-.66.19-.22.06-.44.12-.67.18-.21.05-.43.1-.65.15-.22.05-.43.09-.65.14-.22.04-.43.08-.65.12-.22.04-.43.07-.65.11-.22.03-.43.06-.64.09-.22.03-.43.05-.65.08-.22.02-.44.05-.66.07-.22.02-.44.04-.66.06-.23.02-.47.04-.7.05-.23.02-.46.03-.69.04-.23,0-.46.02-.69.02-.23,0-.46,0-.68,0-.23,0-.45,0-.67,0-.22,0-.44,0-.65-.02-.19,0-.37-.02-.55-.03-.18,0-.35-.02-.53-.04-.17-.02-.35-.03-.51-.05-.17-.02-.33-.04-.49-.06-.16-.02-.32-.04-.47-.07-.15-.02-.3-.05-.44-.07-.14-.03-.28-.05-.42-.08-.14-.03-.27-.06-.39-.09-.13-.03-.25-.06-.37-.1-.14-.04-.28-.08-.41-.12-.13-.04-.25-.09-.37-.13-.12-.05-.23-.09-.34-.14-.11-.05-.22-.1-.31-.14-.1-.05-.19-.1-.28-.15-.09-.05-.17-.1-.24-.16-.07-.05-.12-.09-.18-.14-.06-.05-.1-.09-.15-.14-.04-.05-.09-.1-.12-.14-.04-.05-.07-.1-.09-.15-.02-.05-.05-.1-.06-.15-.01-.05-.02-.1-.03-.15,0-.05,0-.1,0-.15,0-.05.01-.1.03-.15.01-.05.04-.1.06-.14.03-.06.06-.12.11-.18.04-.06.09-.11.15-.17.06-.06.12-.11.19-.17.07-.06.14-.11.22-.16.08-.05.16-.11.26-.16.09-.05.19-.11.29-.15.09-.05.18-.09.27-.13.02,0,.04-.02.07-.03"/>
      <path class="cls-1" d="M24.96,145.88c.06.03.13.07.19.1.14.07.27.14.4.22.13.07.25.15.37.22.14.09.28.18.41.27.13.09.25.18.37.27.12.09.24.19.34.28.11.1.22.2.32.3.1.1.19.2.28.31.09.11.17.21.25.32.07.1.13.19.18.28.06.1.11.19.15.29.05.1.09.19.12.29.04.1.07.2.09.29.03.1.05.2.06.3.02.1.03.2.03.29,0,.1,0,.2,0,.29,0,.1-.01.2-.03.29-.01.1-.03.2-.06.29-.03.12-.06.23-.11.34-.04.11-.09.22-.15.33-.05.11-.12.22-.18.33-.07.11-.14.21-.22.32-.08.11-.16.21-.26.31-.09.1-.18.2-.29.3-.08.08-.18.17-.27.25-.1.08-.2.17-.3.25-.11.08-.21.17-.33.25-.11.08-.23.16-.35.25-.12.08-.25.16-.38.24-.13.08-.26.16-.4.24-.14.08-.28.15-.42.23-.14.08-.29.15-.44.22-.15.07-.31.14-.47.22-.19.08-.38.17-.58.25-.2.08-.4.16-.6.23-.21.08-.41.15-.62.22-.21.07-.43.14-.64.21-.22.07-.44.13-.66.19-.22.06-.44.12-.67.18-.22.05-.43.1-.65.15-.22.05-.43.09-.65.14-.22.04-.43.08-.65.12-.21.04-.43.07-.65.11-.22.03-.43.06-.65.09-.22.03-.43.05-.65.08-.22.03-.44.05-.66.07-.22.02-.44.04-.66.06-.23.02-.47.04-.7.05-.23.01-.46.03-.69.04-.23,0-.46.02-.69.02-.23,0-.46,0-.68.01-.23,0-.45,0-.67,0-.22,0-.44-.01-.66-.02-.18,0-.37-.02-.54-.03-.18-.01-.36-.02-.53-.04-.17-.02-.34-.03-.51-.05-.17-.02-.33-.04-.49-.06-.16-.02-.32-.04-.47-.06-.15-.03-.3-.05-.44-.08-.14-.02-.28-.05-.42-.08-.13-.03-.27-.06-.39-.09-.13-.03-.25-.06-.37-.1-.14-.04-.28-.08-.41-.12-.13-.04-.25-.09-.37-.13-.12-.05-.23-.09-.34-.14-.11-.05-.22-.1-.31-.14-.1-.05-.19-.1-.28-.15-.09-.05-.17-.1-.24-.16-.07-.05-.12-.09-.18-.14-.06-.05-.11-.1-.15-.14-.04-.05-.09-.1-.12-.15-.03-.05-.07-.1-.09-.15-.03-.05-.05-.1-.06-.15-.01-.05-.02-.1-.03-.15,0-.05,0-.1,0-.15,0-.05.01-.1.03-.15.01-.05.04-.1.06-.15.03-.06.07-.12.11-.17.04-.06.09-.12.15-.17.06-.06.12-.11.19-.17.07-.06.14-.11.22-.16.08-.05.17-.11.26-.16.09-.05.19-.1.29-.15.09-.04.18-.09.27-.13.02,0,.05-.02.07-.03"/>
      <path class="cls-1" d="M25.05,154.69c.06.03.13.07.19.1.14.07.27.15.4.22.13.07.25.15.37.22.14.09.28.18.41.27.13.09.25.18.37.28.12.09.24.19.34.28.11.1.22.2.32.3.1.1.19.2.28.31.09.11.17.21.25.32.07.09.12.19.18.28s.11.19.15.29c.05.1.09.19.12.29.04.1.07.19.09.29.03.1.05.2.06.3.01.1.03.2.03.29,0,.1,0,.2,0,.29,0,.1-.01.2-.03.29-.02.1-.04.19-.06.29-.03.11-.06.23-.11.34-.04.11-.09.22-.15.33-.05.11-.12.22-.18.33-.07.11-.14.21-.22.32-.08.1-.17.21-.26.31-.09.1-.18.2-.29.3-.09.08-.18.17-.27.25-.1.08-.2.17-.3.25-.11.08-.21.17-.33.25-.11.08-.23.17-.35.25-.12.08-.25.16-.38.24-.13.08-.26.16-.4.23s-.28.15-.42.23c-.14.08-.29.15-.44.23-.15.07-.31.14-.47.22-.19.08-.38.16-.58.25-.2.08-.4.16-.6.24-.21.08-.41.15-.62.22-.21.07-.43.14-.64.21-.22.07-.44.13-.66.19-.22.06-.44.12-.67.18-.22.05-.43.11-.65.15-.22.05-.43.09-.65.14-.22.04-.43.08-.65.12-.21.04-.43.07-.65.11-.22.03-.43.06-.65.09-.22.03-.43.05-.65.08-.22.03-.44.05-.66.07-.22.02-.44.04-.66.06-.23.02-.47.04-.7.05-.23.02-.46.03-.7.04-.23.01-.46.02-.69.02-.23,0-.46.01-.68.01-.23,0-.45,0-.67,0-.22,0-.44-.01-.66-.02-.18,0-.37-.02-.54-.03-.18,0-.36-.02-.53-.04-.17-.01-.34-.03-.51-.05-.17-.02-.33-.04-.49-.06-.16-.02-.32-.04-.47-.07-.15-.02-.3-.05-.44-.08-.14-.02-.28-.05-.42-.08-.13-.03-.26-.06-.39-.09-.12-.03-.25-.06-.37-.1-.14-.04-.28-.08-.41-.12-.13-.04-.25-.09-.37-.13-.12-.05-.23-.09-.34-.14-.11-.05-.22-.1-.31-.15-.1-.05-.19-.1-.28-.15-.09-.05-.17-.11-.24-.16-.07-.04-.12-.09-.18-.14-.06-.05-.11-.09-.15-.14-.05-.05-.09-.1-.12-.14-.04-.05-.07-.1-.09-.15-.03-.05-.05-.1-.06-.15-.01-.05-.02-.1-.03-.15,0-.05,0-.1,0-.15,0-.05.01-.1.03-.15.01-.05.03-.1.06-.14.03-.06.07-.12.11-.18.04-.06.09-.11.15-.17.06-.06.12-.11.19-.17.07-.05.14-.11.22-.16.08-.05.17-.11.26-.16.09-.05.19-.1.29-.15.09-.05.18-.09.27-.13.02,0,.04-.02.07-.03"/>
      <path class="cls-1" d="M25.13,163.49c.06.03.13.07.19.1.14.07.27.14.39.22.12.07.25.15.37.23.14.09.28.18.41.27.13.09.25.18.37.27.12.09.24.19.34.29.11.1.22.2.31.3.1.1.19.2.28.31.09.11.17.21.25.32.07.09.13.18.18.28.06.09.11.19.15.29.05.09.09.19.12.29.04.1.07.2.09.29.03.1.05.2.06.3.02.1.03.19.03.29,0,.1,0,.2,0,.29,0,.1-.01.19-.03.29-.01.1-.03.19-.06.29-.03.12-.06.23-.11.34-.04.11-.09.22-.15.34-.05.11-.12.22-.18.33-.07.11-.14.21-.22.32-.08.1-.17.21-.25.31-.09.1-.19.2-.29.3-.09.09-.18.17-.27.25-.1.08-.2.17-.3.25-.11.08-.21.17-.33.25-.11.08-.23.17-.35.25-.12.08-.25.16-.38.24-.13.08-.26.16-.4.24-.14.08-.28.15-.42.23-.15.07-.29.15-.44.22-.15.07-.31.15-.47.22-.19.08-.38.17-.58.25-.2.08-.4.16-.6.24-.21.08-.41.15-.63.22-.21.07-.43.14-.64.21-.22.07-.44.13-.66.19-.22.06-.44.12-.67.18-.21.05-.43.1-.65.15-.22.05-.43.09-.65.14-.22.04-.43.08-.65.12-.22.04-.43.07-.65.11-.22.03-.43.06-.65.09-.22.03-.43.05-.65.08-.22.03-.44.05-.66.07-.22.02-.44.04-.66.06-.23.02-.47.04-.7.05-.23.01-.47.03-.7.04-.23.01-.46.02-.69.03-.23,0-.46,0-.68.01-.23,0-.45,0-.67,0-.22,0-.44-.01-.66-.02-.18,0-.37-.02-.54-.03-.18-.01-.36-.02-.53-.04-.17-.02-.34-.03-.51-.05-.17-.02-.33-.04-.49-.06-.16-.02-.32-.04-.47-.07-.15-.02-.3-.05-.44-.07-.14-.02-.28-.05-.42-.08-.13-.03-.27-.06-.39-.09-.13-.03-.25-.06-.37-.1-.14-.04-.28-.08-.4-.12-.13-.04-.25-.09-.37-.13-.12-.04-.23-.09-.34-.14-.11-.05-.21-.1-.31-.14-.1-.05-.19-.1-.28-.15-.09-.05-.17-.1-.24-.16-.07-.05-.12-.09-.18-.14-.06-.04-.11-.09-.15-.14-.05-.05-.09-.1-.12-.15-.03-.05-.07-.1-.09-.15-.02-.05-.05-.1-.06-.15-.01-.05-.02-.1-.03-.15,0-.05,0-.1,0-.15,0-.05.02-.1.03-.15.01-.05.03-.1.06-.15.03-.06.06-.12.11-.17.04-.06.09-.11.15-.17.06-.06.12-.11.19-.17.07-.06.14-.11.22-.16.08-.05.17-.11.26-.16.09-.05.19-.1.29-.15.09-.04.18-.09.27-.13.02,0,.04-.02.07-.03"/>
      <path class="cls-1" d="M25.22,172.29c.06.03.13.07.19.1.14.07.27.15.4.22.13.08.25.15.37.22.14.09.28.18.41.27.13.09.25.18.37.27.12.09.24.19.34.29.11.1.22.2.31.3.1.1.19.2.28.31.09.1.17.21.25.32.07.09.13.19.18.28.06.09.11.19.15.29.05.1.09.19.12.29.04.1.07.2.09.29.03.1.05.2.06.3.02.1.03.2.03.29,0,.1,0,.2,0,.29,0,.1-.01.2-.03.29-.01.1-.03.2-.06.29-.03.11-.06.23-.11.34-.04.11-.09.23-.15.34-.06.11-.12.22-.18.33-.07.11-.14.21-.22.32-.08.1-.16.21-.25.31-.09.1-.19.2-.29.3-.09.08-.18.17-.27.25-.1.08-.2.17-.3.25-.11.08-.21.16-.33.25-.11.08-.23.16-.35.24-.12.08-.25.16-.38.24-.13.08-.26.16-.4.23-.14.08-.28.15-.42.23-.15.08-.29.15-.44.22-.15.07-.31.15-.47.22-.19.09-.38.17-.58.25-.2.08-.4.16-.6.23-.21.08-.41.15-.63.22-.21.07-.43.14-.64.21-.22.06-.44.13-.66.19-.22.06-.44.12-.67.18-.21.05-.43.11-.65.15-.22.05-.43.09-.65.14-.22.05-.43.08-.65.12-.21.04-.43.07-.65.11-.21.03-.43.06-.64.09-.22.03-.43.06-.65.08-.22.03-.44.05-.66.07-.22.02-.44.04-.66.06-.23.02-.47.04-.7.05-.23.02-.46.03-.69.04-.23,0-.46.02-.69.02-.23,0-.46,0-.68.01-.23,0-.45,0-.67,0-.22,0-.44-.01-.66-.02-.18-.01-.36-.02-.54-.03-.18,0-.36-.02-.53-.04-.17-.01-.35-.03-.51-.05-.17-.02-.33-.04-.49-.06-.16-.02-.32-.04-.47-.06-.15-.02-.3-.05-.44-.08-.14-.02-.28-.05-.42-.08-.13-.03-.27-.06-.39-.09-.13-.03-.25-.06-.37-.1-.14-.04-.28-.08-.41-.12-.13-.04-.25-.09-.37-.13-.12-.05-.23-.09-.34-.14-.11-.05-.21-.1-.31-.15-.1-.05-.19-.1-.28-.15-.09-.05-.17-.1-.24-.16-.07-.04-.12-.09-.18-.14-.06-.05-.11-.09-.15-.14-.05-.05-.09-.1-.12-.15-.04-.05-.07-.1-.09-.15-.03-.05-.05-.1-.06-.15-.01-.05-.02-.1-.03-.15,0-.05,0-.1,0-.15,0-.05.02-.1.03-.15.02-.05.04-.1.06-.15.03-.06.06-.12.11-.17.04-.06.09-.12.15-.17.05-.06.12-.11.19-.17.07-.06.14-.11.22-.16.08-.05.17-.11.26-.16.09-.05.19-.1.29-.15.09-.04.18-.09.27-.13.02,0,.04-.02.07-.03"/>
      <path class="cls-1" d="M25.31,181.1c.06.03.13.07.19.1.14.07.27.15.4.22.13.07.25.15.37.22.14.09.27.18.41.27.13.09.25.18.37.27.12.09.24.19.34.28.11.1.22.2.31.3.1.1.19.2.28.31.09.1.17.21.25.32.07.09.13.19.18.28.06.1.11.19.15.29.04.1.09.19.12.29.04.1.07.2.09.3.03.1.05.2.06.29.02.1.03.2.03.29,0,.1,0,.2,0,.29,0,.1-.01.19-.03.29-.01.1-.03.19-.06.29-.03.11-.06.23-.1.34-.04.11-.09.22-.15.33-.05.11-.12.22-.18.33-.07.11-.14.21-.22.32-.08.1-.16.21-.26.31-.09.1-.18.2-.29.3-.09.08-.18.17-.27.25-.1.08-.2.17-.3.25-.11.08-.22.17-.33.25-.11.08-.23.16-.35.25-.12.08-.25.16-.38.24-.13.08-.26.16-.4.24-.14.08-.28.15-.42.23-.15.07-.29.15-.44.22-.15.07-.31.14-.47.22-.19.08-.38.17-.58.25-.2.08-.4.16-.6.23-.21.08-.41.15-.63.22-.21.07-.43.14-.64.21-.22.07-.44.13-.66.19-.22.06-.44.12-.67.18-.21.05-.43.1-.65.15-.22.05-.43.09-.65.14-.22.04-.43.08-.65.12-.21.04-.43.07-.65.11-.21.04-.43.06-.65.09-.22.03-.43.05-.65.08-.22.03-.44.05-.66.07-.22.02-.44.04-.66.06-.23.02-.47.04-.7.05-.23.01-.46.03-.69.04-.23.01-.46.02-.69.02-.23,0-.46.01-.68.01-.23,0-.45,0-.67,0-.22,0-.44,0-.66-.02-.18,0-.36-.02-.54-.02-.18-.01-.36-.03-.53-.04-.17-.02-.34-.03-.51-.05-.17-.02-.33-.04-.49-.06-.16-.02-.32-.04-.47-.07-.15-.02-.3-.05-.44-.07-.14-.03-.28-.05-.42-.08-.13-.03-.26-.06-.39-.09-.13-.03-.25-.06-.37-.1-.14-.04-.28-.08-.4-.12-.13-.04-.25-.09-.37-.13-.12-.05-.23-.09-.34-.14-.11-.05-.22-.1-.31-.14-.1-.05-.19-.1-.28-.15-.09-.05-.17-.1-.24-.16-.07-.04-.13-.09-.18-.14-.06-.04-.1-.09-.15-.14-.05-.05-.09-.1-.12-.14-.04-.05-.07-.1-.09-.15-.03-.05-.05-.1-.06-.15-.01-.05-.02-.1-.03-.15,0-.05,0-.1,0-.15,0-.05.02-.1.03-.15.01-.05.04-.1.06-.15.03-.06.06-.12.11-.17.04-.06.09-.12.15-.17.06-.05.12-.11.19-.17.07-.05.14-.11.22-.16.08-.06.17-.11.26-.16.09-.05.19-.1.29-.15.09-.04.18-.09.27-.13.02,0,.04-.02.07-.03"/>
      <path class="cls-1" d="M25.4,189.9c.06.03.13.07.19.1.14.07.27.15.39.22.13.07.25.15.37.22.14.09.28.18.41.27.13.09.25.18.37.27.12.09.24.19.34.29.11.1.21.2.31.3.1.1.19.2.28.31.09.11.17.21.25.32.06.09.13.18.18.28.06.1.11.19.15.29.05.1.09.19.12.29.04.1.07.2.09.29.03.1.04.2.06.3.01.1.03.19.03.29,0,.1,0,.2,0,.29,0,.1-.01.19-.03.29-.01.1-.03.19-.06.29-.03.12-.06.23-.11.34-.04.11-.09.22-.15.33-.05.11-.12.22-.18.33-.07.11-.14.21-.22.32-.08.1-.16.21-.25.31-.09.1-.19.2-.29.3-.1.09-.2.19-.31.28-.11.1-.23.19-.35.29-.12.1-.25.19-.39.28-.13.09-.28.19-.42.28-.15.09-.3.18-.46.27-.16.09-.32.18-.49.27-.17.09-.34.18-.52.26"/>
      <path class="cls-1" d="M19.93,196.99c-.52.19-1.06.37-1.61.53-.75.21-1.53.39-2.29.54-.76.14-1.52.25-2.24.32-.73.07-1.41.1-2.04.11-.63,0-1.21-.02-1.7-.08-.49-.05-.92-.13-1.24-.22-.32-.09-.55-.2-.69-.32"/>
      <path class="cls-1" d="M7.99,197.32c0,.19.05.37.13.54"/>
      <path class="cls-1" d="M26.89,117.5c.08-.1.15-.21.23-.31.07-.1.13-.21.19-.31.06-.11.11-.21.15-.32.04-.1.08-.21.12-.32.03-.1.06-.21.08-.32.02-.1.03-.21.04-.32,0-.1,0-.21,0-.32,0-.1-.02-.21-.03-.31-.02-.11-.04-.22-.07-.33-.01-.05-.03-.1-.05-.15"/>
      <path class="cls-1" d="M24.75,198.68c-.17.07-.35.15-.52.22-.18.07-.36.14-.54.21-.18.07-.37.13-.56.19-.19.07-.38.12-.57.18-.19.06-.39.12-.58.17-.19.05-.39.11-.59.16-.19.05-.38.1-.57.14-.19.05-.38.09-.58.13-.19.04-.39.08-.58.12s-.39.08-.58.11c-.19.04-.39.07-.59.1-.21.03-.42.06-.62.09-.21.03-.41.06-.62.08-.21.03-.41.05-.62.07-.21.02-.41.04-.61.06-.21.02-.41.04-.61.05-.2.01-.4.02-.6.04-.19,0-.37.02-.56.02-.18,0-.37,0-.55.01-.18,0-.36,0-.54,0s-.35,0-.53,0-.34,0-.51-.01c-.18,0-.36-.02-.53-.03-.17,0-.34-.02-.51-.04-.17-.01-.33-.03-.49-.05-.16-.02-.32-.04-.47-.06-.15-.02-.3-.04-.45-.07-.15-.02-.29-.05-.43-.07-.13-.02-.26-.05-.38-.07-.12-.03-.24-.05-.36-.08-.12-.03-.23-.06-.34-.09-.11-.03-.21-.06-.32-.09-.1-.03-.2-.06-.29-.1-.1-.04-.19-.07-.28-.11-.09-.04-.17-.07-.25-.11-.08-.04-.15-.08-.22-.12-.07-.04-.13-.08-.19-.12-.06-.04-.12-.08-.16-.12-.05-.04-.1-.08-.13-.13-.05-.05-.09-.1-.12-.15s-.06-.1-.08-.15c-.02-.05-.03-.1-.04-.15,0-.05,0-.1,0-.15,0-.05.02-.09.04-.13.02-.04.04-.09.07-.13.03-.04.06-.09.1-.13.04-.04.08-.08.13-.12.05-.04.1-.08.16-.12.05-.04.11-.08.18-.12.06-.04.13-.08.21-.11.06-.03.13-.06.19-.09"/>
      <path class="cls-1" d="M24.18,200.34s.06.06.1.09c.1.1.18.19.26.29.08.1.15.2.22.29.07.1.13.2.18.3.05.1.1.2.14.3.04.1.07.2.1.3.03.1.05.2.06.31.01.09.02.18.02.28,0,.09,0,.19-.01.28,0,.09-.02.19-.04.28-.02.09-.05.18-.08.27-.03.09-.07.18-.11.27-.04.09-.09.18-.14.27-.06.1-.12.19-.19.29-.07.09-.14.19-.22.28-.08.09-.16.18-.25.28-.09.09-.18.18-.29.27-.1.09-.2.18-.31.26-.11.09-.22.17-.34.25-.12.08-.24.16-.37.24-.12.07-.23.15-.36.21-.12.07-.25.14-.38.2-.13.07-.26.13-.4.2-.13.07-.27.13-.41.19-.14.06-.28.12-.42.18-.14.06-.29.11-.43.17-.16.06-.32.11-.48.17-.16.05-.33.1-.49.16-.17.05-.33.1-.5.14-.17.04-.34.09-.51.13-.17.04-.34.08-.51.12-.17.04-.34.07-.51.11-.17.03-.34.06-.5.09-.18.03-.37.06-.55.09-.18.03-.36.05-.54.07-.18.02-.35.04-.53.06-.17.02-.34.03-.51.05-.17.01-.33.02-.49.03-.15,0-.29.01-.43.02-.14,0-.28,0-.41,0-.13,0-.26,0-.39,0-.12,0-.25,0-.37-.01-.12,0-.23-.01-.34-.02-.11,0-.22-.01-.32-.03-.1,0-.2-.02-.29-.03-.1-.01-.2-.03-.29-.04-.09-.02-.18-.03-.26-.05-.08-.02-.15-.04-.22-.06-.07-.02-.13-.04-.19-.06-.06-.02-.1-.04-.15-.06-.05-.02-.09-.05-.12-.07-.03-.02-.06-.05-.08-.07-.02-.02-.03-.05-.04-.07,0-.02,0-.05,0-.07,0-.02.02-.05.04-.07.02-.02.05-.05.08-.07.02-.01.04-.02.07-.04"/>
    </g>
    <line class="cls-1" x1="8.12" y1="197.86" x2="8.12" y2="197.85"/>
    <g>
      <path class="cls-1" d="M23.22,202.54s-.03.08-.05.12c-.03.07-.07.14-.12.21-.04.07-.09.14-.14.21-.05.07-.1.14-.16.21-.06.07-.12.14-.18.21-.06.07-.13.14-.2.21-.07.07-.15.13-.22.2-.07.06-.15.12-.23.19-.08.06-.16.12-.24.18-.08.06-.17.12-.26.18-.09.06-.18.12-.28.18-.1.06-.19.12-.29.17-.1.06-.2.11-.31.17-.1.05-.2.1-.3.15-.1.05-.21.1-.31.14-.1.05-.21.09-.32.14-.11.05-.22.09-.34.13-.11.04-.23.09-.34.13-.12.04-.23.08-.35.12-.11.04-.22.07-.33.11-.11.04-.22.07-.33.1-.11.03-.22.06-.34.09-.12.03-.23.06-.35.09-.12.03-.23.05-.35.08-.11.03-.23.05-.34.08-.16.03-.32.06-.47.09-.16.03-.31.05-.47.08-.1.02-.21.03-.31.05-.1.02-.2.03-.3.04-.1.01-.2.02-.29.04-.13.01-.26.02-.39.04-.13.01-.25.02-.37.03-.08,0-.16.01-.24.01-.08,0-.15,0-.23,0-.07,0-.14,0-.21,0-.09,0-.18,0-.27,0-.08,0-.16,0-.23,0-.05,0-.1,0-.14-.01-.04,0-.08,0-.12-.01-.04,0-.07,0-.1-.02-.05,0-.08-.02-.12-.02-.03,0-.06-.02-.08-.03-.02,0-.04-.02-.04-.03h0"/>
      <path class="cls-1" d="M17.74,214.95s.07-.06.09-.1"/>
      <path class="cls-1" d="M15.99,214.87c.52.37,1.2.4,1.75.08"/>
      <path class="cls-1" d="M19.08,211.99s-.02.05-.03.08c-.04.08-.08.17-.13.25-.05.08-.09.16-.15.24-.03.04-.06.09-.09.14"/>
    </g>
    <line class="cls-1" x1="18.67" y1="212.69" x2="18.61" y2="212.84"/>
    <path class="cls-1" d="M19.75,210.47s0,.03.01.04c.02.08.03.15.03.23,0,.08,0,.15,0,.23,0,.08-.02.17-.03.25-.02.08-.04.16-.07.25-.03.08-.06.16-.1.24-.04.08-.08.15-.12.23-.05.07-.1.15-.15.22-.05.07-.11.14-.17.21-.06.07-.12.14-.18.2-.06.07-.13.13-.19.19"/>
    <line class="cls-1" x1="18.77" y1="212.77" x2="18.67" y2="212.69"/>
    <line class="cls-1" x1="18.62" y1="212.84" x2="18.77" y2="212.77"/>
    <polyline class="cls-1" points="8.42 11.45 8.07 11.38 7.73 11.32 7.38 11.25 7.05 11.17 6.72 11.1 6.4 11.02 6.08 10.93 5.77 10.85 5.46 10.76 5.17 10.66 4.88 10.57 4.6 10.47 4.33 10.37 4.06 10.26 3.8 10.16 3.56 10.05 3.32 9.93 3.09 9.82 2.86 9.7 2.65 9.58 2.45 9.46 2.25 9.34 2.07 9.21 1.89 9.08 1.73 8.96 1.57 8.82 1.43 8.69 1.29 8.56 1.17 8.42 1.06 8.29 .95 8.15 .86 8.01 .78 7.87 .71 7.73 .65 7.59 .6 7.45 .56 7.3 .54 7.16 .52 7.02 .52 6.89"/>
    <polyline class="cls-1" points="29.15 6.61 29.15 6.7 29.14 6.84 29.12 6.99 29.08 7.13 29.04 7.27 28.98 7.42 28.92 7.56 28.84 7.7 28.75 7.84 28.66 7.98 28.55 8.12 28.43 8.26 28.3 8.4 28.16 8.53 28.01 8.67 27.85 8.8 27.68 8.93 27.5 9.06 27.31 9.19 27.11 9.31 26.9 9.44 26.68 9.56 26.46 9.68 26.22 9.8 25.98 9.91 25.72 10.02 25.46 10.13 25.19 10.24 24.92 10.35 24.63 10.45 24.34 10.55 24.04 10.64 23.73 10.74 23.42 10.83 23.1 10.92 22.77 11 22.44 11.08 22.1 11.16 21.76 11.23 21.41 11.3 21.05 11.37 20.69 11.43 20.33 11.49 19.96 11.55 19.59 11.6 19.21 11.65 18.83 11.7 18.45 11.74 18.07 11.78 17.68 11.81 17.29 11.84 16.9 11.87 16.51 11.89 16.11 11.91 15.72 11.92 15.32 11.93 14.92 11.94 14.53 11.94 14.13 11.94 13.74 11.93 13.34 11.92 12.95 11.91 12.56 11.89 12.17 11.87 11.78 11.85 11.39 11.82 11.01 11.78 10.63 11.75 10.25 11.71 9.88 11.66 9.51 11.61 9.14 11.56 8.78 11.5 8.42 11.45"/>
    <polyline class="cls-1" points="8.96 9.42 9.3 9.47 9.64 9.53 9.99 9.58 10.35 9.62 10.71 9.66 11.07 9.7 11.43 9.74 11.8 9.77 12.17 9.79 12.54 9.82 12.92 9.83 13.29 9.85 13.67 9.86 14.05 9.87 14.43 9.87 14.81 9.87 15.18 9.86 15.56 9.85 15.94 9.84 16.32 9.82 16.7 9.8 17.07 9.78 17.44 9.75 17.81 9.72 18.18 9.68 18.55 9.64 18.91 9.59 19.27 9.55 19.62 9.49 19.97 9.44 20.32 9.38 20.66 9.32 21 9.25 21.33 9.18 21.65 9.11 21.97 9.03 22.29 8.96 22.6 8.87 22.9 8.79 23.19 8.7 23.48 8.61 23.76 8.51 24.03 8.41 24.3 8.31 24.56 8.21 24.81 8.1 25.05 7.99 25.28 7.88 25.5 7.77 25.72 7.66 25.92 7.54 26.12 7.42 26.31 7.3 26.48 7.18 26.65 7.05 26.81 6.93 26.95 6.8 27.09 6.67 27.22 6.54 27.33 6.41 27.44 6.27 27.54 6.14 27.62 6 27.69 5.87 27.76 5.73 27.81 5.6 27.85 5.46 27.88 5.32 27.9 5.18 27.91 5.05 27.91 4.91 27.89 4.77 27.87 4.64 27.83 4.5 27.79 4.36 27.73 4.23 27.66 4.09 27.58 3.96 27.49 3.83 27.39 3.7 27.28 3.56 27.16 3.43 27.03 3.31 26.89 3.18 26.74 3.06 26.58 2.93 26.4 2.81 26.22 2.69 26.03 2.58 25.83 2.46 25.62 2.35 25.4 2.24 25.18 2.13 24.94 2.03 24.7 1.92 24.44 1.82 24.18 1.73 23.91 1.63 23.64 1.54 23.35 1.45 23.06 1.36 22.76 1.28 22.46 1.2 22.15 1.13 21.83 1.05 21.51 .99 21.18 .92 20.85 .86 20.51 .8 20.16 .74 19.81 .69 19.46 .65 19.11 .6 18.75 .56 18.38 .53 18.02 .49 17.65 .47 17.28 .44 16.9 .42 16.53 .4 16.15 .39 15.77 .38 15.39 .38 15.02 .38 14.64 .38 14.26 .39 13.88 .4 13.5 .41 13.13 .43 12.75 .45 12.38 .48 12.01 .51 11.64 .55 11.27 .58 10.91 .63 10.55 .67 10.19 .72 9.84 .78 9.49 .83 9.14 .9 8.81 .96 8.47 1.03 8.14 1.1 7.82 1.17 7.5 1.25 7.19 1.33 6.89 1.42 6.59 1.5 6.29 1.59 6.01 1.69 5.73 1.78 5.47 1.88 5.2 1.98 4.95 2.09 4.71 2.2 4.47 2.3 4.24 2.42 4.02 2.53 3.81 2.65 3.61 2.77 3.42 2.88 3.24 3.01 3.06 3.13 2.9 3.26 2.75 3.38 2.61 3.51 2.48 3.64 2.35 3.77 2.24 3.91 2.14 4.04 2.05 4.17 1.97 4.31 1.91 4.44 1.85 4.58 1.8 4.72 1.77 4.85 1.74 4.99 1.73 5.13 1.72 5.27 1.73 5.4 1.75 5.54 1.78 5.68 1.82 5.81 1.87 5.95 1.93 6.08 2.01 6.22 2.09 6.35 2.19 6.48 2.29 6.62 2.41 6.74 2.53 6.87 2.67 7 2.82 7.12 2.98 7.25 3.14 7.37 3.32 7.49 3.5 7.61 3.7 7.73 3.9 7.84 4.12 7.95 4.34 8.06 4.57 8.17 4.81 8.27 5.06 8.37 5.32 8.47 5.58 8.57 5.86 8.66 6.14 8.75 6.42 8.84 6.72 8.92 7.02 9 7.33 9.08 7.64 9.15 7.96 9.23 8.29 9.29 8.62 9.36 8.96 9.42"/>
    <path class="cls-1" d="M7.7,14.69c4.45,2.66,10.02,2.61,14.41-.15"/>
    <polyline class="cls-1" points="29.42 33.5 29.42 33.52 29.41 33.66 29.4 33.81 29.37 33.95 29.33 34.09 29.28 34.24 29.22 34.38 29.15 34.52 29.07 34.66 28.97 34.8 28.87 34.94 28.76 35.08 28.63 35.22 28.5 35.35 28.35 35.49 28.2 35.62 28.03 35.76 27.86 35.89 27.67 36.02 27.48 36.14 27.27 36.27 27.06 36.39 26.84 36.51 26.61 36.63 26.37 36.75 26.12 36.86 25.86 36.97 25.6 37.08 25.32 37.19 25.04 37.29 24.75 37.39 24.46 37.49 24.15 37.58 23.84 37.67 23.53 37.76 23.2 37.85 22.87 37.93 22.54 38.01 22.19 38.09 21.85 38.16 21.5 38.23 21.14 38.29 20.78 38.36 20.41 38.41 20.04 38.47 19.67 38.52 19.29 38.57 18.91 38.61 18.53 38.65 18.14 38.69 17.75 38.72 17.36 38.75 16.97 38.77 16.58 38.79 16.18 38.81 15.79 38.82 15.39 38.83 14.99 38.83 14.6 38.83 14.2 38.83 13.81 38.82 13.41 38.81 13.02 38.79 12.63 38.77 12.24 38.75 11.85 38.72 11.47 38.69 11.09 38.66 10.71 38.62 10.33 38.58 9.96 38.53 9.59 38.48 9.23 38.43 8.87 38.37 8.52 38.31 8.17 38.24 7.82 38.17 7.48 38.1 7.15 38.03 6.82 37.95 6.5 37.87 6.19 37.78 5.88 37.69 5.58 37.6 5.29 37.51 5.01 37.41 4.73 37.31 4.46 37.21 4.2 37.1 3.95 36.99 3.7 36.88 3.47 36.77 3.24 36.65 3.02 36.53 2.81 36.41 2.62 36.29 2.43 36.17 2.25 36.04 2.08 35.91 1.92 35.78 1.77 35.65 1.63 35.52 1.5 35.38 1.38 35.25 1.27 35.11 1.18 34.97 1.09 34.83 1.01 34.69 .95 34.55 .89 34.41 .85 34.27 .82 34.12 .79 33.98 .78 33.83 .78 33.78"/>
    <polyline class="cls-1" points="7.45 31.29 7.45 31.34 7.47 31.45 7.49 31.55 7.52 31.66 7.57 31.76 7.62 31.86 7.69 31.96 7.77 32.06 7.85 32.16 7.95 32.26 8.06 32.36 8.18 32.45 8.31 32.55 8.45 32.64 8.6 32.73 8.75 32.81 8.92 32.9 9.1 32.98 9.28 33.06 9.47 33.14 9.67 33.21 9.88 33.28 10.1 33.35 10.32 33.42 10.55 33.48 10.79 33.54 11.03 33.59 11.28 33.64 11.53 33.69 11.8 33.74 12.06 33.78 12.33 33.82 12.6 33.85 12.88 33.88 13.16 33.91 13.44 33.93 13.72 33.95 14.01 33.96 14.3 33.97 14.59 33.98 14.88 33.98 15.17 33.98 15.46 33.97 15.75 33.96 16.04 33.95 16.32 33.93 16.61 33.91 16.89 33.88 17.17 33.85 17.45 33.82 17.72 33.78 17.99 33.74 18.26 33.7 18.52 33.65 18.78 33.6 19.03 33.54 19.27 33.49 19.51 33.42 19.75 33.36 19.97 33.29 20.19 33.22 20.4 33.15 20.61 33.07 20.8 32.99 20.99 32.91 21.17 32.82 21.34 32.74 21.5 32.65 21.65 32.56 21.79 32.46 21.93 32.37 22.05 32.27 22.16 32.18 22.26 32.08 22.35 31.97 22.44 31.87 22.51 31.77 22.57 31.67 22.61 31.56 22.65 31.46 22.68 31.35 22.69 31.25 22.7 31.14 22.7 31.14"/>
    <polyline class="cls-1" points="22.7 30.83 22.76 30.86 22.95 30.96 23.13 31.05 23.29 31.15 23.45 31.25 23.6 31.36 23.74 31.46 23.87 31.57 23.98 31.68 24.09 31.79 24.19 31.9 24.27 32.01 24.35 32.12 24.41 32.24 24.47 32.35 24.51 32.47 24.54 32.59 24.56 32.7 24.58 32.82 24.57 32.94 24.56 33.05 24.54 33.17 24.51 33.29 24.46 33.4 24.4 33.52 24.34 33.64 24.26 33.75 24.17 33.86 24.07 33.98 23.96 34.09 23.84 34.2 23.71 34.31 23.57 34.41 23.42 34.52 23.26 34.62 23.09 34.72 22.92 34.82 22.73 34.92 22.53 35.02 22.33 35.11 22.11 35.2 21.89 35.29 21.66 35.37 21.43 35.45 21.18 35.53 20.93 35.61 20.67 35.68 20.4 35.75 20.13 35.82 19.86 35.88 19.57 35.94 19.29 36 18.99 36.05 18.7 36.1 18.39 36.14 18.09 36.18 17.78 36.22 17.47 36.26 17.15 36.29 16.84 36.31 16.52 36.33 16.2 36.35 15.87 36.37 15.55 36.38 15.23 36.38 14.9 36.39 14.58 36.38 14.26 36.38 13.93 36.37 13.61 36.36 13.3 36.34 12.98 36.32 12.66 36.29 12.35 36.26 12.04 36.23 11.74 36.19 11.44 36.15 11.14 36.11 10.85 36.06 10.56 36.01 10.28 35.95 10 35.89 9.73 35.83 9.47 35.77 9.21 35.7 8.96 35.62 8.72 35.55 8.48 35.47 8.25 35.39 8.03 35.3 7.82 35.22 7.62 35.13 7.42 35.04 7.24 34.94 7.06 34.85 6.89 34.75 6.73 34.64 6.59 34.54 6.45 34.44 6.32 34.33 6.2 34.22 6.1 34.11 6 34 5.91 33.89 5.84 33.77 5.77 33.66 5.72 33.55 5.67 33.43 5.64 33.31 5.62 33.2 5.61 33.08 5.61 32.96 5.63 32.84 5.65 32.73 5.68 32.61 5.73 32.49 5.78 32.38 5.85 32.26 5.93 32.15 6.02 32.03 6.12 31.92 6.22 31.81 6.34 31.7 6.47 31.59 6.61 31.48 6.76 31.38 6.92 31.27 7.09 31.17 7.27 31.07 7.45 30.98"/>
    <line class="cls-1" x1="19.62" y1="68.59" x2="20.1" y2="116.41"/>
  </g>
</svg>