<?xml version="1.0" encoding="UTF-8"?>
<svg id="Layer_2" data-name="Layer 2" xmlns="http://www.w3.org/2000/svg" viewBox="0 0 41.78 166.63">
  <defs>
    <style>
      .cls-1 {
        fill: #231f20;
        font-family: NotoIKEALatin-Regular, 'Noto IKEA Latin';
        font-size: 7px;
      }

      .cls-2 {
        fill: none;
        stroke: #231f20;
        stroke-linecap: round;
        stroke-linejoin: round;
        stroke-width: .75px;
      }
    </style>
  </defs>
  <g id="Layer_1-2" data-name="Layer 1">
    <text class="cls-1" transform="translate(39.87 166.63) rotate(-90)"><tspan x="0" y="0">123595</tspan></text>
    <line class="cls-2" x1="35.4" y1="6.12" x2="32.56" y2="3.84"/>
    <line class="cls-2" x1="5.35" y1="3.84" x2="2.52" y2="6.12"/>
    <line class="cls-2" x1="37.54" y1="12.68" x2="37.54" y2="9.78"/>
    <line class="cls-2" x1=".38" y1="9.78" x2=".38" y2="12.68"/>
    <line class="cls-2" x1="25.62" y1="92.83" x2="25.62" y2="20.01"/>
    <line class="cls-2" x1="12.29" y1="20.01" x2="12.29" y2="92.83"/>
    <line class="cls-2" x1="12.35" y1="93.2" x2="12.71" y2="94.34"/>
    <line class="cls-2" x1="25.2" y1="94.34" x2="25.56" y2="93.2"/>
    <g>
      <path class="cls-2" d="M22.12,150.78c.13-.04.25-.08.38-.12.14-.04.29-.09.43-.14"/>
      <path class="cls-2" d="M22.12,148.46c.13-.04.25-.08.38-.12.14-.04.29-.09.43-.14"/>
      <path class="cls-2" d="M22.12,146.13c.13-.04.25-.08.38-.12.14-.04.29-.09.43-.14"/>
      <path class="cls-2" d="M22.12,143.81c.13-.04.25-.08.38-.12.14-.04.29-.09.43-.14"/>
      <path class="cls-2" d="M22.12,141.49c.13-.04.25-.08.38-.12.14-.04.29-.09.43-.14"/>
      <path class="cls-2" d="M22.12,134.52c.13-.04.25-.08.38-.12.14-.04.29-.09.43-.14"/>
      <path class="cls-2" d="M22.12,132.19c.13-.04.25-.08.38-.12.14-.04.29-.09.43-.14"/>
      <path class="cls-2" d="M22.12,129.87c.13-.04.25-.08.38-.12.14-.04.29-.09.43-.14"/>
      <path class="cls-2" d="M22.12,127.55c.13-.04.25-.08.38-.12.14-.04.29-.09.43-.14"/>
      <path class="cls-2" d="M22.12,125.23c.13-.04.25-.08.38-.12.14-.04.29-.09.43-.14"/>
      <path class="cls-2" d="M22.12,122.9c.13-.04.25-.08.38-.12.14-.04.29-.09.43-.14"/>
      <path class="cls-2" d="M22.12,120.58c.13-.04.25-.08.38-.12.14-.04.29-.09.43-.14"/>
      <path class="cls-2" d="M22.12,118.26c.13-.04.25-.08.38-.12.14-.04.29-.09.43-.14"/>
      <path class="cls-2" d="M22.12,115.93c.13-.04.25-.08.38-.12.14-.04.29-.09.43-.14"/>
      <path class="cls-2" d="M22.12,113.61c.13-.04.25-.08.38-.12.14-.04.29-.09.43-.14"/>
      <path class="cls-2" d="M22.12,111.29c.13-.04.25-.08.38-.12.14-.04.29-.09.43-.14"/>
      <path class="cls-2" d="M22.12,108.96c.13-.04.25-.08.38-.12.14-.04.29-.09.43-.14"/>
      <path class="cls-2" d="M22.12,106.64c.13-.04.25-.08.38-.12.14-.04.29-.09.43-.14"/>
      <path class="cls-2" d="M22.12,99.67c.13-.04.25-.08.38-.12.14-.04.29-.09.43-.14"/>
      <path class="cls-2" d="M13.87,143.68s.07.02.1.03c.03,0,.06.02.09.03.03,0,.05.02.08.02.02,0,.04.01.06.02.02,0,.04.01.05.02.01,0,.03,0,.04.01s.03,0,.04.01c.02,0,.04.01.06.02.02,0,.04.01.06.02.02,0,.03.01.05.02,0,0,.01,0,.01,0,0,0,.01,0,.02,0,0,0,.02,0,.02,0,.01,0,.02,0,.03,0,.01,0,.03,0,.04.01.02,0,.03.01.05.02"/>
      <path class="cls-2" d="M13.87,141.35s.07.02.1.03c.03,0,.06.02.09.03.03,0,.05.02.08.02.02,0,.04.01.06.02.02,0,.04.01.05.02.01,0,.03,0,.04.01s.03,0,.04.01c.02,0,.04.01.06.02.02,0,.04.01.06.02.02,0,.03.01.05.02,0,0,.01,0,.01,0,0,0,.01,0,.02,0,0,0,.02,0,.02,0,.01,0,.02,0,.03,0,.01,0,.03,0,.04.01.02,0,.03.01.05.02"/>
      <path class="cls-2" d="M13.87,132.06s.07.02.1.03c.03,0,.06.02.09.03.03,0,.05.02.08.02.02,0,.04.01.06.02.02,0,.04.01.05.02.01,0,.03,0,.04.01s.03,0,.04.01c.02,0,.04.01.06.02.02,0,.04.01.06.02.02,0,.03.01.05.02,0,0,.01,0,.01,0,0,0,.01,0,.02,0,0,0,.02,0,.02,0,.01,0,.02,0,.03,0,.01,0,.03,0,.04.01.02,0,.03.01.05.02"/>
      <path class="cls-2" d="M13.87,129.74s.07.02.1.03c.03,0,.06.02.09.03.03,0,.05.02.08.02.02,0,.04.01.06.02.02,0,.04.01.05.02.01,0,.03,0,.04.01s.03,0,.04.01c.02,0,.04.01.06.02.02,0,.04.01.06.02.02,0,.03.01.05.02,0,0,.01,0,.01,0,0,0,.01,0,.02,0,0,0,.02,0,.02,0,.01,0,.02,0,.03,0,.01,0,.03,0,.04.01.02,0,.03.01.05.02"/>
      <path class="cls-2" d="M13.87,127.42s.07.02.1.03c.03,0,.06.02.09.03.03,0,.05.02.08.02.02,0,.04.01.06.02.02,0,.04.01.05.02.01,0,.03,0,.04.01s.03,0,.04.01c.02,0,.04.01.06.02.02,0,.04.01.06.02.02,0,.03.01.05.02,0,0,.01,0,.01,0,0,0,.01,0,.02,0,0,0,.02,0,.02,0,.01,0,.02,0,.03,0,.01,0,.03,0,.04.01.02,0,.03.01.05.02"/>
      <path class="cls-2" d="M13.87,125.09s.07.02.1.03c.03,0,.06.02.09.03.03,0,.05.02.08.02.02,0,.04.01.06.02.02,0,.04.01.05.02.01,0,.03,0,.04.01s.03,0,.04.01c.02,0,.04.01.06.02.02,0,.04.01.06.02.02,0,.03.01.05.02,0,0,.01,0,.01,0,0,0,.01,0,.02,0,0,0,.02,0,.02,0,.01,0,.02,0,.03,0,.01,0,.03,0,.04.01.02,0,.03.01.05.02"/>
      <path class="cls-2" d="M13.87,122.77s.07.02.1.03c.03,0,.06.02.09.03.03,0,.05.02.08.02.02,0,.04.01.06.02.02,0,.04.01.05.02.01,0,.03,0,.04.01s.03,0,.04.01c.02,0,.04.01.06.02.02,0,.04.01.06.02.02,0,.03.01.05.02,0,0,.01,0,.01,0,0,0,.01,0,.02,0,0,0,.02,0,.02,0,.01,0,.02,0,.03,0,.01,0,.03,0,.04.01.02,0,.03.01.05.02"/>
      <path class="cls-2" d="M13.87,120.45s.07.02.1.03c.03,0,.06.02.09.03.03,0,.05.02.08.02.02,0,.04.01.06.02.02,0,.04.01.05.02.01,0,.03,0,.04.01s.03,0,.04.01c.02,0,.04.01.06.02.02,0,.04.01.06.02.02,0,.03.01.05.02,0,0,.01,0,.01,0,0,0,.01,0,.02,0,0,0,.02,0,.02,0,.01,0,.02,0,.03,0,.01,0,.03,0,.04.01.02,0,.03.01.05.02"/>
      <path class="cls-2" d="M13.87,118.12s.07.02.1.03c.03,0,.06.02.09.03.03,0,.05.02.08.02.02,0,.04.01.06.02.02,0,.04.01.05.02.01,0,.03,0,.04.01s.03,0,.04.01c.02,0,.04.01.06.02.02,0,.04.01.06.02.02,0,.03.01.05.02,0,0,.01,0,.01,0,0,0,.01,0,.02,0,0,0,.02,0,.02,0,.01,0,.02,0,.03,0,.01,0,.03,0,.04.01.02,0,.03.01.05.02"/>
      <path class="cls-2" d="M13.87,115.8s.07.02.1.03c.03,0,.06.02.09.03.03,0,.05.02.08.02.02,0,.04.01.06.02.02,0,.04.01.05.02.01,0,.03,0,.04.01s.03,0,.04.01c.02,0,.04.01.06.02.02,0,.04.01.06.02.02,0,.03.01.05.02,0,0,.01,0,.01,0,0,0,.01,0,.02,0,0,0,.02,0,.02,0,.01,0,.02,0,.03,0,.01,0,.03,0,.04.01.02,0,.03.01.05.02"/>
      <path class="cls-2" d="M13.87,113.48s.07.02.1.03c.03,0,.06.02.09.03.03,0,.05.02.08.02.02,0,.04.01.06.02.02,0,.04.01.05.02.01,0,.03,0,.04.01s.03,0,.04.01c.02,0,.04.01.06.02.02,0,.04.01.06.02.02,0,.03.01.05.02,0,0,.01,0,.01,0,0,0,.01,0,.02,0,0,0,.02,0,.02,0,.01,0,.02,0,.03,0,.01,0,.03,0,.04.01.02,0,.03.01.05.02"/>
      <path class="cls-2" d="M13.87,111.15s.07.02.1.03c.03,0,.06.02.09.03.03,0,.05.02.08.02.02,0,.04.01.06.02.02,0,.04.01.05.02.01,0,.03,0,.04.01s.03,0,.04.01c.02,0,.04.01.06.02.02,0,.04.01.06.02.02,0,.03.01.05.02,0,0,.01,0,.01,0,0,0,.01,0,.02,0,0,0,.02,0,.02,0,.01,0,.02,0,.03,0,.01,0,.03,0,.04.01.02,0,.03.01.05.02"/>
      <path class="cls-2" d="M13.87,108.83s.07.02.1.03c.03,0,.06.02.09.03.03,0,.05.02.08.02.02,0,.04.01.06.02.02,0,.04.01.05.02.01,0,.03,0,.04.01s.03,0,.04.01c.02,0,.04.01.06.02.02,0,.04.01.06.02.02,0,.03.01.05.02,0,0,.01,0,.01,0,0,0,.01,0,.02,0,0,0,.02,0,.02,0,.01,0,.02,0,.03,0,.01,0,.03,0,.04.01.02,0,.03.01.05.02"/>
      <path class="cls-2" d="M13.87,106.51s.07.02.1.03c.03,0,.06.02.09.03.03,0,.05.02.08.02.02,0,.04.01.06.02.02,0,.04.01.05.02.01,0,.03,0,.04.01s.03,0,.04.01c.02,0,.04.01.06.02.02,0,.04.01.06.02.02,0,.03.01.05.02,0,0,.01,0,.01,0,0,0,.01,0,.02,0,0,0,.02,0,.02,0,.01,0,.02,0,.03,0,.01,0,.03,0,.04.01.02,0,.03.01.05.02"/>
    </g>
    <line class="cls-2" x1="25.26" y1="95.79" x2="25.26" y2="94.16"/>
    <line class="cls-2" x1="12.66" y1="161.77" x2="12.66" y2="162.52"/>
    <line class="cls-2" x1="12.66" y1="94.16" x2="12.66" y2="96.69"/>
    <line class="cls-2" x1="13.28" y1="163.67" x2="14.52" y2="164.67"/>
    <line class="cls-2" x1="23.4" y1="164.67" x2="24.44" y2="163.83"/>
    <polyline class="cls-2" points="9.7 12.06 9.38 11.96 9.07 11.85 8.77 11.74 8.47 11.63 8.18 11.51 7.9 11.39 7.62 11.26 7.35 11.14 7.09 11.01 6.84 10.88 6.6 10.74 6.36 10.6 6.13 10.46 5.92 10.32 5.71 10.17 5.51 10.02 5.32 9.87 5.14 9.72 4.96 9.57 4.8 9.41 4.65 9.26 4.51 9.1 4.37 8.94 4.25 8.77 4.14 8.61 4.04 8.45 3.94 8.28 3.86 8.11 3.79 7.95 3.73 7.78 3.68 7.61 3.64 7.44 3.61 7.27 3.59 7.1 3.58 6.93 3.58 6.76 3.59 6.59 3.62 6.42 3.65 6.25 3.69 6.08 3.75 5.91 3.81 5.75 3.89 5.58 3.97 5.41 4.07 5.25 4.17 5.08 4.29 4.92 4.42 4.76 4.55 4.6 4.7 4.44 4.85 4.28 5.02 4.13 5.19 3.97 5.38 3.82 5.57 3.67 5.78 3.53 5.99 3.38 6.21 3.24 6.44 3.1 6.68 2.96 6.92 2.83 7.18 2.7"/>
    <polyline class="cls-2" points="7.18 2.7 7.44 2.57 7.71 2.44 7.99 2.32 8.28 2.2 8.57 2.08 8.87 1.97 9.18 1.86 9.49 1.75 9.81 1.65 10.14 1.55 10.47 1.45 10.81 1.36 11.15 1.27 11.5 1.19 11.86 1.11 12.22 1.03 12.58 .96 12.95 .89 13.32 .83 13.7 .77 14.08 .71 14.46 .66 14.85 .61 15.24 .57 15.63 .53 16.02 .49 16.42 .46 16.82 .44 17.22 .42 17.62 .4 18.02 .39 18.42 .38 18.82 .38 19.23 .38 19.63 .38 20.03 .39 20.43 .4 20.83 .42 21.23 .45 21.63 .47 22.02 .51 22.42 .54 22.81 .58 23.2 .63 23.58 .67 23.96 .73 24.34 .79 24.72 .85 25.09 .91 25.46 .98 25.82 1.06 26.18 1.14 26.53 1.22 26.88 1.3 27.22 1.39 27.56 1.48 27.89 1.58 28.21 1.68 28.53 1.79 28.84 1.9 29.15 2.01 29.45 2.12 29.74 2.24 30.02 2.36 30.3 2.48 30.57 2.61 30.82 2.74 31.08 2.87 31.32 3.01 31.56 3.15 31.78 3.29 32 3.43 32.21 3.58 32.41 3.72 32.6 3.87 32.78 4.03 32.95 4.18 33.11 4.33 33.27 4.49 33.41 4.65 33.54 4.81 33.67 4.97 33.78 5.14 33.88 5.3 33.97 5.47 34.06 5.63 34.13 5.8 34.19 5.97 34.24 6.14 34.28 6.31 34.31 6.48 34.33 6.65 34.34 6.82 34.33 6.99 34.32 7.16 34.3 7.33 34.27 7.5 34.22 7.67 34.17 7.83 34.1 8 34.03 8.17 33.94 8.34 33.85 8.5 33.74 8.67 33.62 8.83 33.5 8.99 33.36 9.15 33.22 9.31 33.06 9.47 32.9 9.62 32.72 9.77 32.54 9.92 32.34 10.07 32.14 10.22 31.93 10.37 31.71 10.51 31.48 10.65 31.24 10.79 30.99 10.92 30.74 11.05 30.48 11.18 30.21 11.31 29.93 11.43 29.64 11.55 29.35 11.67 29.05 11.78 28.74 11.89 28.43 11.99 28.11 12.1 27.78 12.2 27.45 12.29 27.11 12.39 26.76 12.47 26.41 12.56 26.06 12.64 25.7 12.72 25.34 12.79 24.97 12.86 24.6 12.92 24.22 12.98 23.84 13.04 23.46 13.09 23.07 13.14 22.68 13.18 22.29 13.22 21.89 13.25 21.5 13.28 21.1 13.31 20.7 13.33 20.3 13.35 19.9 13.36 19.49 13.37 19.09 13.37 18.69 13.37 18.29 13.37 17.89 13.36 17.48 13.34 17.08 13.33 16.68 13.3 16.29 13.28 15.89 13.24 15.5 13.21 15.11 13.17 14.72 13.12 14.33 13.07"/>
    <polyline class="cls-2" points="35.4 6.12 35.44 6.15 35.66 6.33 35.87 6.52 36.06 6.71 36.25 6.9 36.42 7.09 36.58 7.29 36.73 7.48 36.87 7.68 36.99 7.88 37.1 8.08 37.2 8.28 37.29 8.48 37.36 8.68 37.42 8.89 37.47 9.09 37.51 9.3 37.53 9.5 37.54 9.71 37.54 9.91 37.52 10.12 37.5 10.33 37.46 10.53 37.4 10.73 37.34 10.94 37.26 11.14 37.17 11.34 37.07 11.54 36.95 11.74 36.82 11.94 36.68 12.14 36.53 12.33 36.36 12.53 36.19 12.72 36 12.91 35.8 13.1 35.59 13.28 35.37 13.46 35.13 13.64 34.89 13.82 34.63 14 34.36 14.17 34.09 14.34 33.8 14.5 33.5 14.67 33.19 14.83 32.88 14.98 32.55 15.13 32.21 15.28 31.87 15.43 31.51 15.57 31.15 15.7 30.78 15.84 30.4 15.97 30.01 16.09 29.62 16.21 29.22 16.33 28.81 16.44 28.39 16.54 27.97 16.65 27.54 16.74 27.1 16.84 26.66 16.92 26.22 17.01 25.77 17.08 25.31 17.16 24.85 17.23 24.39 17.29 23.92 17.35 23.45 17.4 22.98 17.45 22.5 17.49 22.03 17.52 21.54 17.55 21.06 17.58 20.58 17.6 20.09 17.62 19.61 17.63 19.12 17.63 18.63 17.63 18.15 17.62 17.66 17.61 17.18 17.6 16.69 17.57 16.21 17.55 15.73 17.51 15.25 17.47 14.78 17.43 14.31 17.38 13.84 17.33 13.37 17.27 12.91 17.2 12.45 17.13 12 17.06 11.55 16.98 11.1 16.9 10.67 16.81 10.23 16.71 9.81 16.61 9.39 16.51 8.97 16.4 8.57 16.29 8.17 16.17 7.77 16.05 7.39 15.92 7.01 15.79 6.64 15.66 6.28 15.52 5.93 15.38 5.59 15.23 5.26 15.08 4.93 14.93 4.62 14.77 4.31 14.61 4.02 14.45 3.74 14.28 3.46 14.11 3.2 13.94 2.95 13.76 2.71 13.59 2.47 13.4 2.26 13.22 2.05 13.03 1.85 12.85 1.67 12.66 1.5 12.46 1.34 12.27 1.19 12.07 1.05 11.88 .93 11.68 .82 11.48 .72 11.28 .63 11.07 .56 10.87 .49 10.67 .45 10.46 .41 10.26 .39 10.05 .38 9.85 .38 9.64 .39 9.44 .42 9.23 .46 9.02 .51 8.82 .58 8.62 .66 8.41 .75 8.21 .85 8.01 .97 7.81 1.1 7.61 1.24 7.42 1.39 7.22 1.55 7.03 1.73 6.84 1.92 6.65 2.12 6.46 2.33 6.27 2.52 6.12"/>
    <polyline class="cls-2" points="37.54 12.68 37.54 12.82 37.52 13.02 37.5 13.23 37.46 13.43 37.4 13.64 37.34 13.84 37.26 14.05 37.17 14.25 37.07 14.45 36.95 14.65 36.82 14.85 36.68 15.04 36.53 15.24 36.36 15.43 36.19 15.62 36 15.81 35.8 16 35.59 16.19 35.37 16.37 35.13 16.55 34.89 16.73 34.63 16.9 34.36 17.07 34.09 17.24 33.8 17.41 33.5 17.57 33.19 17.73 32.88 17.89 32.55 18.04 32.21 18.19 31.87 18.33 31.51 18.47 31.15 18.61 30.78 18.74 30.4 18.87 30.01 18.99 29.62 19.11 29.22 19.23 28.81 19.34 28.39 19.45 27.97 19.55 27.54 19.65 27.1 19.74 26.66 19.83 26.22 19.91 25.77 19.99 25.31 20.06 24.85 20.13 24.39 20.19 23.92 20.25 23.45 20.3 22.98 20.35 22.5 20.39 22.03 20.43 21.54 20.46 21.06 20.48 20.58 20.51 20.09 20.52 19.61 20.53 19.12 20.53 18.63 20.53 18.15 20.53 17.66 20.52 17.18 20.5 16.69 20.48 16.21 20.45 15.73 20.42 15.25 20.38 14.78 20.33 14.31 20.28 13.84 20.23 13.37 20.17 12.91 20.11 12.45 20.04 12 19.96 11.55 19.88 11.1 19.8 10.67 19.71 10.23 19.62 9.81 19.52 9.39 19.41 8.97 19.31 8.57 19.19 8.17 19.08 7.77 18.95 7.39 18.83 7.01 18.7 6.64 18.56 6.28 18.43 5.93 18.28 5.59 18.14 5.26 17.99 4.93 17.83 4.62 17.68 4.31 17.52 4.02 17.35 3.74 17.19 3.46 17.02 3.2 16.84 2.95 16.67 2.71 16.49 2.47 16.31 2.26 16.12 2.05 15.94 1.85 15.75 1.67 15.56 1.5 15.37 1.34 15.17 1.19 14.98 1.05 14.78 .93 14.58 .82 14.38 .72 14.18 .63 13.98 .56 13.77 .49 13.57 .45 13.37 .41 13.16 .39 12.96 .38 12.75 .38 12.68"/>
    <polyline class="cls-2" points="25.62 92.83 25.62 92.92 25.61 93.02 25.59 93.12 25.56 93.22 25.52 93.32 25.47 93.42 25.42 93.52 25.35 93.62 25.28 93.72 25.2 93.81 25.11 93.9 25.02 94 24.92 94.09 24.8 94.18 24.69 94.27 24.56 94.35 24.43 94.44 24.29 94.52 24.14 94.6 23.99 94.68 23.83 94.75 23.66 94.82 23.49 94.89 23.31 94.96 23.12 95.02 22.93 95.09 22.74 95.15 22.54 95.2 22.34 95.25 22.13 95.3 21.92 95.35 21.7 95.39 21.48 95.43 21.26 95.47 21.03 95.5 20.8 95.53 20.57 95.56 20.34 95.58 20.1 95.6 19.87 95.62 19.63 95.63 19.39 95.64 19.15 95.64 18.91 95.64 18.67 95.64 18.43 95.63 18.2 95.62 17.96 95.61 17.72 95.59 17.49 95.57 17.26 95.55 17.03 95.52 16.8 95.49 16.57 95.46 16.35 95.42 16.13 95.38 15.92 95.33 15.71 95.29 15.5 95.23 15.3 95.18 15.1 95.12 14.91 95.06 14.72 95 14.54 94.93 14.36 94.87 14.19 94.8 14.03 94.72 13.87 94.65 13.72 94.57 13.57 94.49 13.44 94.4 13.31 94.32 13.18 94.23 13.07 94.14 12.96 94.05 12.86 93.96 12.77 93.87 12.68 93.77 12.61 93.68 12.54 93.58 12.48 93.48 12.43 93.38 12.38 93.29 12.35 93.19 12.32 93.08 12.3 92.98 12.3 92.88 12.29 92.83"/>
    <g>
      <path class="cls-2" d="M23.79,162.54c.08-.05.16-.1.24-.15.08-.05.15-.1.22-.16.07-.05.14-.11.21-.17.06-.06.13-.11.18-.17.06-.06.11-.12.16-.18.05-.06.1-.12.14-.18.04-.06.08-.12.11-.19.04-.07.07-.14.1-.21"/>
      <path class="cls-2" d="M12.66,96.69s0,.03,0,.05c0,.05.01.1.02.16.01.05.03.09.05.14.02.05.04.09.07.14.03.05.06.09.1.14.04.05.08.09.12.14.04.04.09.09.14.13.05.04.11.09.17.13.06.04.12.08.19.12.07.04.15.09.24.13.08.04.17.08.26.12.09.04.18.08.28.12.1.04.2.07.3.11.1.03.21.07.32.1.1.03.2.05.31.08.11.03.21.05.32.07.11.02.22.04.34.06.11.02.23.04.35.05.12.02.24.03.37.04.12.01.25.02.38.03.13.01.25.02.38.02.14,0,.29.01.43.01.14,0,.29,0,.43,0,.15,0,.29,0,.44-.01.14,0,.29-.01.43-.02.14,0,.28-.02.43-.03.13-.01.26-.03.38-.04.13-.02.26-.03.39-.05.13-.02.26-.04.38-.06.13-.02.25-.05.38-.07.13-.03.25-.06.37-.09s.25-.06.36-.1c.12-.03.24-.07.35-.1.13-.04.25-.08.37-.13.12-.04.24-.09.35-.14.11-.05.22-.09.33-.14.11-.05.21-.1.31-.15s.19-.11.29-.16"/>
      <path class="cls-2" d="M24.85,163.65c.1-.06.2-.12.29-.18.09-.06.19-.12.27-.19.09-.07.17-.13.25-.2.08-.07.15-.14.22-.21.07-.07.14-.14.2-.21.06-.07.12-.14.17-.22.05-.07.1-.15.14-.22.04-.07.07-.14.1-.21.03-.07.05-.14.07-.21.02-.07.04-.14.05-.21s.02-.14.02-.21c0-.07,0-.14,0-.2,0-.07-.01-.14-.03-.2-.01-.07-.03-.15-.06-.22-.02-.07-.05-.15-.09-.22-.03-.07-.07-.15-.12-.22-.04-.06-.08-.12-.12-.18"/>
      <path class="cls-2" d="M11.93,158.98s-.07.06-.1.08c-.06.06-.12.11-.17.17-.05.06-.1.11-.14.17-.04.05-.07.11-.1.16-.03.05-.06.11-.08.16-.02.05-.04.11-.05.17-.01.05-.02.11-.02.17s0,.11,0,.16c0,.05.01.11.03.16.01.06.03.12.06.18.02.06.05.12.08.18.03.06.07.12.12.17.04.06.09.12.15.17.05.06.11.11.18.17.06.05.13.11.2.16.07.05.15.11.23.16.08.05.15.09.24.14.08.04.17.09.26.13.09.04.18.08.28.12.1.04.19.08.29.12.1.04.2.07.31.11.11.04.21.07.32.1.12.04.24.07.37.1.13.03.26.06.39.09.13.03.27.06.41.08.14.03.29.05.43.07.15.02.3.04.45.06.15.02.3.03.46.05.15.01.31.02.47.04.15,0,.29.02.44.02.15,0,.29,0,.44.01.15,0,.29,0,.44,0,.15,0,.29,0,.44-.01.15,0,.29-.01.44-.02.14,0,.29-.02.43-.03.16-.01.31-.03.47-.05.16-.02.31-.04.47-.06.16-.02.31-.05.47-.07.15-.03.31-.05.46-.08s.31-.06.45-.1c.15-.04.3-.07.44-.11.15-.04.29-.08.43-.12.13-.04.26-.08.38-.12.12-.04.25-.09.36-.13.12-.05.24-.09.35-.14.11-.05.22-.1.33-.14.11-.05.21-.1.31-.15.1-.05.19-.1.29-.16.1-.06.2-.12.29-.18.1-.06.18-.12.27-.19.09-.07.17-.13.25-.2.08-.07.15-.14.22-.21.07-.07.14-.14.2-.21.06-.07.12-.14.17-.22.05-.07.1-.15.14-.22.04-.07.07-.14.1-.21.03-.07.06-.14.08-.21.02-.07.04-.14.05-.21.01-.07.02-.14.02-.21s0-.14,0-.21c0-.07-.01-.14-.03-.2-.01-.07-.03-.15-.06-.22-.02-.07-.05-.15-.09-.22-.03-.07-.07-.15-.12-.22-.04-.06-.08-.12-.12-.18"/>
      <path class="cls-2" d="M11.93,156.66s-.07.06-.1.08c-.06.06-.12.11-.17.17-.05.06-.1.11-.14.17-.04.05-.07.11-.1.16-.03.05-.06.11-.08.16-.02.05-.04.11-.05.17-.01.05-.02.11-.02.17s0,.11,0,.16c0,.05.01.11.03.16.01.06.03.12.06.18.02.06.05.12.08.18.03.06.07.12.12.17.04.06.09.12.15.17.05.06.11.11.18.17.06.05.13.11.2.16.07.05.15.11.23.16.08.05.15.09.24.14.08.04.17.09.26.13.09.04.18.08.28.12.1.04.19.08.29.12.1.04.2.07.31.11.11.04.21.07.32.1.12.04.24.07.37.1.13.03.26.06.39.09.13.03.27.06.41.08.14.03.29.05.43.07.15.02.3.04.45.06.15.02.3.03.46.05.15.01.31.02.47.04.15,0,.29.02.44.02.15,0,.29,0,.44.01.15,0,.29,0,.44,0,.15,0,.29,0,.44-.01.15,0,.29-.01.44-.02.14,0,.29-.02.43-.03.16-.01.31-.03.47-.05.16-.02.31-.04.47-.06.16-.02.31-.05.47-.07.15-.03.31-.05.46-.08s.31-.06.45-.1c.15-.04.3-.07.44-.11.15-.04.29-.08.43-.12.13-.04.26-.08.38-.12.12-.04.25-.09.36-.13.12-.05.24-.09.35-.14.11-.05.22-.1.33-.14.11-.05.21-.1.31-.15.1-.05.19-.1.29-.16.1-.06.2-.12.29-.18.1-.06.18-.12.27-.19.09-.07.17-.13.25-.2.08-.07.15-.14.22-.21.07-.07.14-.14.2-.21.06-.07.12-.14.17-.22.05-.07.1-.15.14-.22.04-.07.07-.14.1-.21.03-.07.06-.14.08-.21.02-.07.04-.14.05-.21.01-.07.02-.14.02-.21s0-.14,0-.21c0-.07-.01-.14-.03-.2-.01-.07-.03-.15-.06-.22-.02-.07-.05-.15-.09-.22-.03-.07-.07-.15-.12-.22-.04-.06-.08-.12-.12-.18"/>
      <path class="cls-2" d="M11.93,154.33s-.07.06-.1.08c-.06.06-.12.11-.17.17-.05.06-.1.11-.14.17-.04.05-.07.11-.1.16-.03.05-.06.11-.08.16-.02.05-.04.11-.05.17-.01.05-.02.11-.02.17s0,.11,0,.16c0,.05.01.11.03.16.01.06.03.12.06.18.02.06.05.12.08.18.03.06.07.12.12.17.04.06.09.12.15.17.05.06.11.11.18.17.06.05.13.11.2.16.07.05.15.11.23.16.08.05.15.09.24.14.08.04.17.09.26.13.09.04.18.08.28.13.1.04.19.08.29.12.1.04.2.07.31.11.11.04.21.07.32.1.12.04.24.07.37.1.13.03.26.06.39.09.13.03.27.06.41.08.14.03.29.05.43.07.15.02.3.04.45.06.15.02.3.03.46.05.15.01.31.02.47.04.15,0,.29.02.44.02.15,0,.29,0,.44.01.15,0,.29,0,.44,0,.15,0,.29,0,.44-.01.15,0,.29-.01.44-.02.14,0,.29-.02.43-.03.16-.01.31-.03.47-.05.16-.02.31-.04.47-.06.16-.02.31-.05.47-.07.15-.03.31-.05.46-.08s.31-.06.45-.1c.15-.04.3-.07.44-.11.15-.04.29-.08.43-.12.13-.04.26-.08.38-.12.12-.04.25-.09.36-.13.12-.05.24-.09.35-.14.11-.05.22-.1.33-.14.11-.05.21-.1.31-.15.1-.05.19-.1.29-.16.1-.06.2-.12.29-.18.1-.06.18-.12.27-.19.09-.07.17-.13.25-.2.08-.07.15-.14.22-.21.07-.07.14-.14.2-.21.06-.07.12-.14.17-.22.05-.07.1-.15.14-.22.04-.07.07-.14.1-.21.03-.07.06-.14.08-.21.02-.07.04-.14.05-.21.01-.07.02-.14.02-.21s0-.14,0-.21c0-.07-.01-.14-.03-.2-.01-.07-.03-.15-.06-.22-.02-.07-.05-.15-.09-.22-.03-.07-.07-.15-.12-.22-.04-.06-.08-.12-.12-.18"/>
      <path class="cls-2" d="M11.93,152.01s-.07.06-.1.08c-.06.06-.12.11-.17.17-.05.06-.1.11-.14.17-.04.05-.07.11-.1.16-.03.05-.06.11-.08.16-.02.05-.04.11-.05.17-.01.05-.02.11-.02.17s0,.11,0,.16c0,.05.01.11.03.16.01.06.03.12.06.18.02.06.05.12.08.18.03.06.07.12.12.17.04.06.09.12.15.17.05.06.11.11.18.17.06.05.13.11.2.16.07.05.15.11.23.16.08.05.15.09.24.14.08.04.17.09.26.13.09.04.18.08.28.12.1.04.19.08.29.12.1.04.2.07.31.11.11.04.21.07.32.1.12.04.24.07.37.1.13.03.26.06.39.09.13.03.27.06.41.08.14.03.29.05.43.07.15.02.3.04.45.06.15.02.3.03.46.05.15.01.31.02.47.04.15,0,.29.02.44.02.15,0,.29,0,.44.01.15,0,.29,0,.44,0,.15,0,.29,0,.44-.01.15,0,.29-.01.44-.02.14,0,.29-.02.43-.03.16-.01.31-.03.47-.05.16-.02.31-.04.47-.06.16-.02.31-.05.47-.07.15-.03.31-.05.46-.08s.31-.06.45-.1c.15-.04.3-.07.44-.11.15-.04.29-.08.43-.12.13-.04.26-.08.38-.12.12-.04.25-.09.36-.13.12-.05.24-.09.35-.14.11-.05.22-.1.33-.14.11-.05.21-.1.31-.15.1-.05.19-.1.29-.16.1-.06.2-.12.29-.18.1-.06.18-.12.27-.19.09-.07.17-.13.25-.2.08-.07.15-.14.22-.21.07-.07.14-.14.2-.21.06-.07.12-.14.17-.22.05-.07.1-.15.14-.22.04-.07.07-.14.1-.21.03-.07.06-.14.08-.21.02-.07.04-.14.05-.21.01-.07.02-.14.02-.21s0-.14,0-.21c0-.07-.01-.14-.03-.2-.01-.07-.03-.15-.06-.22-.02-.07-.05-.15-.09-.22-.03-.07-.07-.15-.12-.22-.04-.06-.08-.12-.12-.18"/>
      <path class="cls-2" d="M11.93,149.69s-.07.06-.1.08c-.06.06-.12.11-.17.17-.05.06-.1.11-.14.17-.04.05-.07.11-.1.16-.03.05-.06.11-.08.16-.02.05-.04.11-.05.17-.01.05-.02.11-.02.17s0,.11,0,.16c0,.05.01.11.03.16.01.06.03.12.06.18.02.06.05.12.08.18.03.06.07.12.12.17.04.06.09.12.15.17.05.06.11.11.18.17.06.05.13.11.2.16.07.05.15.11.23.16.08.05.15.09.24.14.08.04.17.09.26.13.09.04.18.08.28.13.1.04.19.08.29.12.1.04.2.07.31.11.11.04.21.07.32.1.12.04.24.07.37.1.13.03.26.06.39.09.13.03.27.06.41.08.14.03.29.05.43.07.15.02.3.04.45.06.15.02.3.03.46.05.15.01.31.02.47.04.15,0,.29.02.44.02.15,0,.29,0,.44.01.15,0,.29,0,.44,0,.15,0,.29,0,.44-.01.15,0,.29-.01.44-.02.14,0,.29-.02.43-.03.16-.01.31-.03.47-.05.16-.02.31-.04.47-.06.16-.02.31-.05.47-.07.15-.03.31-.05.46-.08s.31-.06.45-.1c.15-.04.3-.07.44-.11.15-.04.29-.08.43-.12.13-.04.26-.08.38-.12.12-.04.25-.09.36-.13.12-.05.24-.09.35-.14.11-.05.22-.1.33-.14.11-.05.21-.1.31-.15.1-.05.19-.1.29-.16.1-.06.2-.12.29-.18.1-.06.18-.12.27-.19.09-.07.17-.13.25-.2.08-.07.15-.14.22-.21.07-.07.14-.14.2-.21.06-.07.12-.14.17-.22.05-.07.1-.15.14-.22.04-.07.07-.14.1-.21.03-.07.06-.14.08-.21.02-.07.04-.14.05-.21.01-.07.02-.14.02-.21s0-.14,0-.21c0-.07-.01-.14-.03-.2-.01-.07-.03-.15-.06-.22-.02-.07-.05-.15-.09-.22-.03-.07-.07-.15-.12-.22-.04-.06-.08-.12-.12-.18"/>
      <path class="cls-2" d="M11.93,147.36s-.07.06-.1.08c-.06.06-.12.11-.17.17-.05.06-.1.11-.14.17-.04.05-.07.11-.1.16-.03.05-.06.11-.08.16-.02.05-.04.11-.05.17-.01.05-.02.11-.02.17s0,.11,0,.16c0,.05.01.11.03.16.01.06.03.12.06.18.02.06.05.12.08.18.03.06.07.12.12.17.04.06.09.12.15.17.05.06.11.11.18.17.06.05.13.11.2.16.07.05.15.11.23.16.08.05.15.09.24.14.08.04.17.09.26.13.09.04.18.08.28.12.1.04.19.08.29.12.1.04.2.07.31.11.11.04.21.07.32.1.12.04.24.07.37.1.13.03.26.06.39.09.13.03.27.06.41.08.14.03.29.05.43.07.15.02.3.04.45.06.15.02.3.03.46.05.15.01.31.02.47.04.15,0,.29.02.44.02.15,0,.29,0,.44.01.15,0,.29,0,.44,0,.15,0,.29,0,.44-.01.15,0,.29-.01.44-.02.14,0,.29-.02.43-.03.16-.01.31-.03.47-.05.16-.02.31-.04.47-.06.16-.02.31-.05.47-.07.15-.03.31-.05.46-.08s.31-.06.45-.1c.15-.04.3-.07.44-.11.15-.04.29-.08.43-.12.13-.04.26-.08.38-.12.12-.04.25-.09.36-.13.12-.05.24-.09.35-.14.11-.05.22-.1.33-.14.11-.05.21-.1.31-.15.1-.05.19-.1.29-.16.1-.06.2-.12.29-.18.1-.06.18-.12.27-.19.09-.07.17-.13.25-.2.08-.07.15-.14.22-.21.07-.07.14-.14.2-.21.06-.07.12-.14.17-.22.05-.07.1-.15.14-.22.04-.07.07-.14.1-.21.03-.07.06-.14.08-.21.02-.07.04-.14.05-.21.01-.07.02-.14.02-.21s0-.14,0-.21c0-.07-.01-.14-.03-.2-.01-.07-.03-.15-.06-.22-.02-.07-.05-.15-.09-.22-.03-.07-.07-.15-.12-.22-.04-.06-.08-.12-.12-.18"/>
      <path class="cls-2" d="M11.93,145.04s-.07.06-.1.08c-.06.06-.12.11-.17.17-.05.06-.1.11-.14.17-.04.05-.07.11-.1.16-.03.05-.06.11-.08.16-.02.05-.04.11-.05.17-.01.05-.02.11-.02.17s0,.11,0,.16c0,.05.01.11.03.16.01.06.03.12.06.18.02.06.05.12.08.18.03.06.07.12.12.17.04.06.09.12.15.17.05.06.11.11.18.17.06.05.13.11.2.16.07.05.15.11.23.16.08.05.15.09.24.14.08.04.17.09.26.13.09.04.18.08.28.13.1.04.19.08.29.12.1.04.2.07.31.11.11.04.21.07.32.1.12.04.24.07.37.1.13.03.26.06.39.09.13.03.27.06.41.08.14.03.29.05.43.07.15.02.3.04.45.06.15.02.3.03.46.05.15.01.31.02.47.04.15,0,.29.02.44.02.15,0,.29,0,.44.01.15,0,.29,0,.44,0,.15,0,.29,0,.44-.01.15,0,.29-.01.44-.02.14,0,.29-.02.43-.03.16-.01.31-.03.47-.05.16-.02.31-.04.47-.06.16-.02.31-.05.47-.07.15-.03.31-.05.46-.08s.31-.06.45-.1c.15-.04.3-.07.44-.11.15-.04.29-.08.43-.12.13-.04.26-.08.38-.12.12-.04.25-.09.36-.13.12-.05.24-.09.35-.14.11-.05.22-.1.33-.14.11-.05.21-.1.31-.15.1-.05.19-.1.29-.16.1-.06.2-.12.29-.18.1-.06.18-.12.27-.19.09-.07.17-.13.25-.2.08-.07.15-.14.22-.21.07-.07.14-.14.2-.21.06-.07.12-.14.17-.22.05-.07.1-.15.14-.22.04-.07.07-.14.1-.21.03-.07.06-.14.08-.21.02-.07.04-.14.05-.21.01-.07.02-.14.02-.21s0-.14,0-.21c0-.07-.01-.14-.03-.2-.01-.07-.03-.15-.06-.22-.02-.07-.05-.15-.09-.22-.03-.07-.07-.15-.12-.22-.04-.06-.08-.12-.12-.18"/>
      <path class="cls-2" d="M11.93,142.72s-.07.06-.1.08c-.06.06-.12.11-.17.17-.05.06-.1.11-.14.17-.04.05-.07.11-.1.16-.03.05-.06.11-.08.16-.02.05-.04.11-.05.17-.01.05-.02.11-.02.17s0,.11,0,.16c0,.05.01.11.03.16.01.06.03.12.06.18.02.06.05.12.08.18.03.06.07.12.12.17.04.06.09.12.15.17.05.06.11.11.18.17.06.05.13.11.2.16.07.05.15.11.23.16.08.05.15.09.24.14.08.04.17.09.26.13.09.04.18.08.28.12.1.04.19.08.29.12.1.04.2.07.31.11.11.04.21.07.32.1.12.04.24.07.37.1.13.03.26.06.39.09.13.03.27.06.41.08.14.03.29.05.43.07.15.02.3.04.45.06.15.02.3.03.46.05.15.01.31.02.47.04.15,0,.29.02.44.02.15,0,.29,0,.44.01.15,0,.29,0,.44,0,.15,0,.29,0,.44-.01.15,0,.29-.01.44-.02.14,0,.29-.02.43-.03.16-.01.31-.03.47-.05.16-.02.31-.04.47-.06.16-.02.31-.05.47-.07.15-.03.31-.05.46-.08s.31-.06.45-.1c.15-.04.3-.07.44-.11.15-.04.29-.08.43-.12.13-.04.26-.08.38-.12.12-.04.25-.09.36-.13.12-.05.24-.09.35-.14.11-.05.22-.1.33-.14.11-.05.21-.1.31-.15.1-.05.19-.1.29-.16.1-.06.2-.12.29-.18.1-.06.18-.12.27-.19.09-.07.17-.13.25-.2.08-.07.15-.14.22-.21.07-.07.14-.14.2-.21.06-.07.12-.14.17-.22.05-.07.1-.15.14-.22.04-.07.07-.14.1-.21.03-.07.06-.14.08-.21.02-.07.04-.14.05-.21.01-.07.02-.14.02-.21s0-.14,0-.21c0-.07-.01-.14-.03-.2-.01-.07-.03-.15-.06-.22-.02-.07-.05-.15-.09-.22-.03-.07-.07-.15-.12-.22-.04-.06-.08-.12-.12-.18"/>
      <path class="cls-2" d="M11.93,140.39s-.07.06-.1.08c-.06.06-.12.11-.17.17-.05.06-.1.11-.14.17-.04.05-.07.11-.1.16-.03.05-.06.11-.08.16-.02.05-.04.11-.05.17-.01.05-.02.11-.02.17s0,.11,0,.16c0,.05.01.11.03.16.01.06.03.12.06.18.02.06.05.12.08.18.03.06.07.12.12.17.04.06.09.12.15.17.05.06.11.11.18.17.06.05.13.11.2.16.07.05.15.11.23.16.08.05.15.09.24.14.08.04.17.09.26.13.09.04.18.08.28.12.1.04.19.08.29.12.1.04.2.07.31.11.11.04.21.07.32.1.12.04.24.07.37.1.13.03.26.06.39.09.13.03.27.06.41.08.14.03.29.05.43.07.15.02.3.04.45.06.15.02.3.03.46.05.15.01.31.02.47.04.15,0,.29.02.44.02.15,0,.29,0,.44.01.15,0,.29,0,.44,0,.15,0,.29,0,.44-.01.15,0,.29-.01.44-.02.14,0,.29-.02.43-.03.16-.01.31-.03.47-.05.16-.02.31-.04.47-.06.16-.02.31-.05.47-.07.15-.03.31-.05.46-.08s.31-.06.45-.1c.15-.04.3-.07.44-.11.15-.04.29-.08.43-.12.13-.04.26-.08.38-.12.12-.04.25-.09.36-.13.12-.05.24-.09.35-.14.11-.05.22-.1.33-.14.11-.05.21-.1.31-.15.1-.05.19-.1.29-.16.1-.06.2-.12.29-.18.1-.06.18-.12.27-.19.09-.07.17-.13.25-.2.08-.07.15-.14.22-.21.07-.07.14-.14.2-.21.06-.07.12-.14.17-.22.05-.07.1-.15.14-.22.04-.07.07-.14.1-.21.03-.07.06-.14.08-.21.02-.07.04-.14.05-.21.01-.07.02-.14.02-.21s0-.14,0-.21c0-.07-.01-.14-.03-.2-.01-.07-.03-.15-.06-.22-.02-.07-.05-.15-.09-.22-.03-.07-.07-.15-.12-.22-.04-.06-.08-.12-.12-.18"/>
      <path class="cls-2" d="M11.93,138.07s-.07.06-.1.08c-.06.06-.12.11-.17.17-.05.06-.1.11-.14.17-.04.05-.07.11-.1.16-.03.05-.06.11-.08.16-.02.05-.04.11-.05.17-.01.05-.02.11-.02.17s0,.11,0,.16c0,.05.01.11.03.16.01.06.03.12.06.18.02.06.05.12.08.18.03.06.07.12.12.17.04.06.09.12.15.17.05.06.11.11.18.17.06.05.13.11.2.16.07.05.15.11.23.16.08.05.15.09.24.14.08.04.17.09.26.13.09.04.18.08.28.13.1.04.19.08.29.12.1.04.2.07.31.11.11.04.21.07.32.1.12.04.24.07.37.1.13.03.26.06.39.09.13.03.27.06.41.08.14.03.29.05.43.07.15.02.3.04.45.06.15.02.3.03.46.05.15.01.31.02.47.04.15,0,.29.02.44.02.15,0,.29,0,.44.01.15,0,.29,0,.44,0,.15,0,.29,0,.44-.01.15,0,.29-.01.44-.02.14,0,.29-.02.43-.03.16-.01.31-.03.47-.05.16-.02.31-.04.47-.06.16-.02.31-.05.47-.07.15-.03.31-.05.46-.08s.31-.06.45-.1c.15-.04.3-.07.44-.11.15-.04.29-.08.43-.12.13-.04.26-.08.38-.12.12-.04.25-.09.36-.13.12-.05.24-.09.35-.14.11-.05.22-.1.33-.14.11-.05.21-.1.31-.15.1-.05.19-.1.29-.16.1-.06.2-.12.29-.18.1-.06.18-.12.27-.19.09-.07.17-.13.25-.2.08-.07.15-.14.22-.21.07-.07.14-.14.2-.21.06-.07.12-.14.17-.22.05-.07.1-.15.14-.22.04-.07.07-.14.1-.21.03-.07.06-.14.08-.21.02-.07.04-.14.05-.21.01-.07.02-.14.02-.21s0-.14,0-.21c0-.07-.01-.14-.03-.2-.01-.07-.03-.15-.06-.22-.02-.07-.05-.15-.09-.22-.03-.07-.07-.15-.12-.22-.04-.06-.08-.12-.12-.18"/>
      <path class="cls-2" d="M11.93,135.75s-.07.06-.1.08c-.06.06-.12.11-.17.17-.05.06-.1.11-.14.17-.04.05-.07.11-.1.16-.03.05-.06.11-.08.16-.02.05-.04.11-.05.17-.01.05-.02.11-.02.17s0,.11,0,.16c0,.05.01.11.03.16.01.06.03.12.06.18.02.06.05.12.08.18.03.06.07.12.12.17.04.06.09.12.15.17.05.06.11.11.18.17.06.05.13.11.2.16.07.05.15.11.23.16.08.05.15.09.24.14.08.04.17.09.26.13.09.04.18.08.28.12.1.04.19.08.29.12.1.04.2.07.31.11.11.04.21.07.32.1.12.04.24.07.37.1.13.03.26.06.39.09.13.03.27.06.41.08.14.03.29.05.43.07.15.02.3.04.45.06.15.02.3.03.46.05.15.01.31.02.47.04.15,0,.29.02.44.02.15,0,.29,0,.44.01.15,0,.29,0,.44,0,.15,0,.29,0,.44-.01.15,0,.29-.01.44-.02.14,0,.29-.02.43-.03.16-.01.31-.03.47-.05.16-.02.31-.04.47-.06.16-.02.31-.05.47-.07.15-.03.31-.05.46-.08s.31-.06.45-.1c.15-.04.3-.07.44-.11.15-.04.29-.08.43-.12.13-.04.26-.08.38-.12.12-.04.25-.09.36-.13.12-.05.24-.09.35-.14.11-.05.22-.1.33-.14.11-.05.21-.1.31-.15.1-.05.19-.1.29-.16.1-.06.2-.12.29-.18.1-.06.18-.12.27-.19.09-.07.17-.13.25-.2.08-.07.15-.14.22-.21.07-.07.14-.14.2-.21.06-.07.12-.14.17-.22.05-.07.1-.15.14-.22.04-.07.07-.14.1-.21.03-.07.06-.14.08-.21.02-.07.04-.14.05-.21.01-.07.02-.14.02-.21s0-.14,0-.21c0-.07-.01-.14-.03-.2-.01-.07-.03-.15-.06-.22-.02-.07-.05-.15-.09-.22-.03-.07-.07-.15-.12-.22-.04-.06-.08-.12-.12-.18"/>
      <path class="cls-2" d="M11.93,133.43s-.07.06-.1.08c-.06.06-.12.11-.17.17-.05.06-.1.11-.14.17-.04.05-.07.11-.1.16-.03.05-.06.11-.08.16-.02.05-.04.11-.05.17-.01.05-.02.11-.02.17s0,.11,0,.16c0,.05.01.11.03.16.01.06.03.12.06.18.02.06.05.12.08.18.03.06.07.12.12.17.04.06.09.12.15.17.05.06.11.11.18.17.06.05.13.11.2.16.07.05.15.11.23.16.08.05.15.09.24.14.08.04.17.09.26.13.09.04.18.08.28.13.1.04.19.08.29.12.1.04.2.07.31.11.11.04.21.07.32.1.12.04.24.07.37.1.13.03.26.06.39.09.13.03.27.06.41.08.14.03.29.05.43.07.15.02.3.04.45.06.15.02.3.03.46.05.15.01.31.02.47.04.15,0,.29.02.44.02.15,0,.29,0,.44.01.15,0,.29,0,.44,0,.15,0,.29,0,.44-.01.15,0,.29-.01.44-.02.14,0,.29-.02.43-.03.16-.01.31-.03.47-.05.16-.02.31-.04.47-.06.16-.02.31-.05.47-.07.15-.03.31-.05.46-.08s.31-.06.45-.1c.15-.04.3-.07.44-.11.15-.04.29-.08.43-.12.13-.04.26-.08.38-.12.12-.04.25-.09.36-.13.12-.05.24-.09.35-.14.11-.05.22-.1.33-.14.11-.05.21-.1.31-.15.1-.05.19-.1.29-.16.1-.06.2-.12.29-.18.1-.06.18-.12.27-.19.09-.07.17-.13.25-.2.08-.07.15-.14.22-.21.07-.07.14-.14.2-.21.06-.07.12-.14.17-.22.05-.07.1-.15.14-.22.04-.07.07-.14.1-.21.03-.07.06-.14.08-.21.02-.07.04-.14.05-.21.01-.07.02-.14.02-.21s0-.14,0-.21c0-.07-.01-.14-.03-.2-.01-.07-.03-.15-.06-.22-.02-.07-.05-.15-.09-.22-.03-.07-.07-.15-.12-.22-.04-.06-.08-.12-.12-.18"/>
      <path class="cls-2" d="M11.93,131.1s-.07.06-.1.08c-.06.06-.12.11-.17.17-.05.06-.1.11-.14.17-.04.05-.07.11-.1.16-.03.05-.06.11-.08.16-.02.05-.04.11-.05.17-.01.05-.02.11-.02.17s0,.11,0,.16c0,.05.01.11.03.16.01.06.03.12.06.18.02.06.05.12.08.18.03.06.07.12.12.17.04.06.09.12.15.17.05.06.11.11.18.17.06.05.13.11.2.16.07.05.15.11.23.16.08.05.15.09.24.14.08.04.17.09.26.13.09.04.18.08.28.12.1.04.19.08.29.12.1.04.2.07.31.11.11.04.21.07.32.1.12.04.24.07.37.1.13.03.26.06.39.09.13.03.27.06.41.08.14.03.29.05.43.07.15.02.3.04.45.06.15.02.3.03.46.05.15.01.31.02.47.04.15,0,.29.02.44.02.15,0,.29,0,.44.01.15,0,.29,0,.44,0,.15,0,.29,0,.44-.01.15,0,.29-.01.44-.02.14,0,.29-.02.43-.03.16-.01.31-.03.47-.05.16-.02.31-.04.47-.06.16-.02.31-.05.47-.07.15-.03.31-.05.46-.08s.31-.06.45-.1c.15-.04.3-.07.44-.11.15-.04.29-.08.43-.12.13-.04.26-.08.38-.12.12-.04.25-.09.36-.13.12-.05.24-.09.35-.14.11-.05.22-.1.33-.14.11-.05.21-.1.31-.15.1-.05.19-.1.29-.16.1-.06.2-.12.29-.18.1-.06.18-.12.27-.19.09-.07.17-.13.25-.2.08-.07.15-.14.22-.21.07-.07.14-.14.2-.21.06-.07.12-.14.17-.22.05-.07.1-.15.14-.22.04-.07.07-.14.1-.21.03-.07.06-.14.08-.21.02-.07.04-.14.05-.21.01-.07.02-.14.02-.21s0-.14,0-.21c0-.07-.01-.14-.03-.2-.01-.07-.03-.15-.06-.22-.02-.07-.05-.15-.09-.22-.03-.07-.07-.15-.12-.22-.04-.06-.08-.12-.12-.18"/>
      <path class="cls-2" d="M11.93,128.78s-.07.06-.1.08c-.06.06-.12.11-.17.17-.05.06-.1.11-.14.17-.04.05-.07.11-.1.16-.03.05-.06.11-.08.16-.02.05-.04.11-.05.17-.01.05-.02.11-.02.17s0,.11,0,.16c0,.05.01.11.03.16.01.06.03.12.06.18.02.06.05.12.08.18.03.06.07.12.12.17.04.06.09.12.15.17.05.06.11.11.18.17.06.05.13.11.2.16.07.05.15.11.23.16.08.05.15.09.24.14.08.04.17.09.26.13.09.04.18.08.28.13.1.04.19.08.29.12.1.04.2.07.31.11.11.04.21.07.32.1.12.04.24.07.37.1.13.03.26.06.39.09.13.03.27.06.41.08.14.03.29.05.43.07.15.02.3.04.45.06.15.02.3.03.46.05.15.01.31.02.47.04.15,0,.29.02.44.02.15,0,.29,0,.44.01.15,0,.29,0,.44,0,.15,0,.29,0,.44-.01.15,0,.29-.01.44-.02.14,0,.29-.02.43-.03.16-.01.31-.03.47-.05.16-.02.31-.04.47-.06.16-.02.31-.05.47-.07.15-.03.31-.05.46-.08s.31-.06.45-.1c.15-.04.3-.07.44-.11.15-.04.29-.08.43-.12.13-.04.26-.08.38-.12.12-.04.25-.09.36-.13.12-.05.24-.09.35-.14.11-.05.22-.1.33-.14.11-.05.21-.1.31-.15.1-.05.19-.1.29-.16.1-.06.2-.12.29-.18.1-.06.18-.12.27-.19.09-.07.17-.13.25-.2.08-.07.15-.14.22-.21.07-.07.14-.14.2-.21.06-.07.12-.14.17-.22.05-.07.1-.15.14-.22.04-.07.07-.14.1-.21.03-.07.06-.14.08-.21.02-.07.04-.14.05-.21.01-.07.02-.14.02-.21s0-.14,0-.21c0-.07-.01-.14-.03-.2-.01-.07-.03-.15-.06-.22-.02-.07-.05-.15-.09-.22-.03-.07-.07-.15-.12-.22-.04-.06-.08-.12-.12-.18"/>
      <path class="cls-2" d="M11.93,126.46s-.07.06-.1.08c-.06.06-.12.11-.17.17-.05.06-.1.11-.14.17-.04.05-.07.11-.1.16-.03.05-.06.11-.08.16-.02.05-.04.11-.05.17-.01.05-.02.11-.02.17s0,.11,0,.16c0,.05.01.11.03.16.01.06.03.12.06.18.02.06.05.12.08.18.03.06.07.12.12.17.04.06.09.12.15.17.05.06.11.11.18.17.06.05.13.11.2.16.07.05.15.11.23.16.08.05.15.09.24.14.08.04.17.09.26.13.09.04.18.08.28.12.1.04.19.08.29.12.1.04.2.07.31.11.11.04.21.07.32.1.12.04.24.07.37.1.13.03.26.06.39.09.13.03.27.06.41.08.14.03.29.05.43.07.15.02.3.04.45.06.15.02.3.03.46.05.15.01.31.02.47.04.15,0,.29.02.44.02.15,0,.29,0,.44.01.15,0,.29,0,.44,0,.15,0,.29,0,.44-.01.15,0,.29-.01.44-.02.14,0,.29-.02.43-.03.16-.01.31-.03.47-.05.16-.02.31-.04.47-.06.16-.02.31-.05.47-.07.15-.03.31-.05.46-.08s.31-.06.45-.1c.15-.04.3-.07.44-.11.15-.04.29-.08.43-.12.13-.04.26-.08.38-.12.12-.04.25-.09.36-.13.12-.05.24-.09.35-.14.11-.05.22-.1.33-.14.11-.05.21-.1.31-.15.1-.05.19-.1.29-.16.1-.06.2-.12.29-.18.1-.06.18-.12.27-.19.09-.07.17-.13.25-.2.08-.07.15-.14.22-.21.07-.07.14-.14.2-.21.06-.07.12-.14.17-.22.05-.07.1-.15.14-.22.04-.07.07-.14.1-.21.03-.07.06-.14.08-.21.02-.07.04-.14.05-.21.01-.07.02-.14.02-.21s0-.14,0-.21c0-.07-.01-.14-.03-.2-.01-.07-.03-.15-.06-.22-.02-.07-.05-.15-.09-.22-.03-.07-.07-.15-.12-.22-.04-.06-.08-.12-.12-.18"/>
      <path class="cls-2" d="M11.93,124.13s-.07.06-.1.08c-.06.06-.12.11-.17.17-.05.06-.1.11-.14.17-.04.05-.07.11-.1.16-.03.05-.06.11-.08.16-.02.05-.04.11-.05.17-.01.05-.02.11-.02.17s0,.11,0,.16c0,.05.01.11.03.16.01.06.03.12.06.18.02.06.05.12.08.18.03.06.07.12.12.17.04.06.09.12.15.17.05.06.11.11.18.17.06.05.13.11.2.16.07.05.15.11.23.16.08.05.15.09.24.14.08.04.17.09.26.13.09.04.18.08.28.12.1.04.19.08.29.12.1.04.2.07.31.11.11.04.21.07.32.1.12.04.24.07.37.1.13.03.26.06.39.09.13.03.27.06.41.08.14.03.29.05.43.07.15.02.3.04.45.06.15.02.3.03.46.05.15.01.31.02.47.04.15,0,.29.02.44.02.15,0,.29,0,.44.01.15,0,.29,0,.44,0,.15,0,.29,0,.44-.01.15,0,.29-.01.44-.02.14,0,.29-.02.43-.03.16-.01.31-.03.47-.05.16-.02.31-.04.47-.06.16-.02.31-.05.47-.07.15-.03.31-.05.46-.08s.31-.06.45-.1c.15-.04.3-.07.44-.11.15-.04.29-.08.43-.12.13-.04.26-.08.38-.12.12-.04.25-.09.36-.13.12-.05.24-.09.35-.14.11-.05.22-.1.33-.14.11-.05.21-.1.31-.15.1-.05.19-.1.29-.16.1-.06.2-.12.29-.18.1-.06.18-.12.27-.19.09-.07.17-.13.25-.2.08-.07.15-.14.22-.21.07-.07.14-.14.2-.21.06-.07.12-.14.17-.22.05-.07.1-.15.14-.22.04-.07.07-.14.1-.21.03-.07.06-.14.08-.21.02-.07.04-.14.05-.21.01-.07.02-.14.02-.21s0-.14,0-.21c0-.07-.01-.14-.03-.2-.01-.07-.03-.15-.06-.22-.02-.07-.05-.15-.09-.22-.03-.07-.07-.15-.12-.22-.04-.06-.08-.12-.12-.18"/>
      <path class="cls-2" d="M11.93,121.81s-.07.06-.1.08c-.06.06-.12.11-.17.17-.05.06-.1.11-.14.17-.04.05-.07.11-.1.16-.03.05-.06.11-.08.16-.02.05-.04.11-.05.17-.01.05-.02.11-.02.17s0,.11,0,.16c0,.05.01.11.03.16.01.06.03.12.06.18.02.06.05.12.08.18.03.06.07.12.12.17.04.06.09.12.15.17.05.06.11.11.18.17.06.05.13.11.2.16.07.05.15.11.23.16.08.05.15.09.24.14.08.04.17.09.26.13.09.04.18.08.28.13.1.04.19.08.29.12.1.04.2.07.31.11.11.04.21.07.32.1.12.04.24.07.37.1.13.03.26.06.39.09.13.03.27.06.41.08.14.03.29.05.43.07.15.02.3.04.45.06.15.02.3.03.46.05.15.01.31.02.47.04.15,0,.29.02.44.02.15,0,.29,0,.44.01.15,0,.29,0,.44,0,.15,0,.29,0,.44-.01.15,0,.29-.01.44-.02.14,0,.29-.02.43-.03.16-.01.31-.03.47-.05.16-.02.31-.04.47-.06.16-.02.31-.05.47-.07.15-.03.31-.05.46-.08s.31-.06.45-.1c.15-.04.3-.07.44-.11.15-.04.29-.08.43-.12.13-.04.26-.08.38-.12.12-.04.25-.09.36-.13.12-.05.24-.09.35-.14.11-.05.22-.1.33-.14.11-.05.21-.1.31-.15.1-.05.19-.1.29-.16.1-.06.2-.12.29-.18.1-.06.18-.12.27-.19.09-.07.17-.13.25-.2.08-.07.15-.14.22-.21.07-.07.14-.14.2-.21.06-.07.12-.14.17-.22.05-.07.1-.15.14-.22.04-.07.07-.14.1-.21.03-.07.06-.14.08-.21.02-.07.04-.14.05-.21.01-.07.02-.14.02-.21s0-.14,0-.21c0-.07-.01-.14-.03-.2-.01-.07-.03-.15-.06-.22-.02-.07-.05-.15-.09-.22-.03-.07-.07-.15-.12-.22-.04-.06-.08-.12-.12-.18"/>
      <path class="cls-2" d="M11.93,119.49s-.07.06-.1.08c-.06.06-.12.11-.17.17-.05.06-.1.11-.14.17-.04.05-.07.11-.1.16-.03.05-.06.11-.08.16-.02.05-.04.11-.05.17-.01.05-.02.11-.02.17s0,.11,0,.16c0,.05.01.11.03.16.01.06.03.12.06.18.02.06.05.12.08.18.03.06.07.12.12.17.04.06.09.12.15.17.05.06.11.11.18.17.06.05.13.11.2.16.07.05.15.11.23.16.08.05.15.09.24.14.08.04.17.09.26.13.09.04.18.08.28.12.1.04.19.08.29.12.1.04.2.07.31.11.11.04.21.07.32.1.12.04.24.07.37.1.13.03.26.06.39.09.13.03.27.06.41.08.14.03.29.05.43.07.15.02.3.04.45.06.15.02.3.03.46.05.15.01.31.02.47.04.15,0,.29.02.44.02.15,0,.29,0,.44.01.15,0,.29,0,.44,0,.15,0,.29,0,.44-.01.15,0,.29-.01.44-.02.14,0,.29-.02.43-.03.16-.01.31-.03.47-.05.16-.02.31-.04.47-.06.16-.02.31-.05.47-.07.15-.03.31-.05.46-.08s.31-.06.45-.1c.15-.04.3-.07.44-.11.15-.04.29-.08.43-.12.13-.04.26-.08.38-.12.12-.04.25-.09.36-.13.12-.05.24-.09.35-.14.11-.05.22-.1.33-.14.11-.05.21-.1.31-.15.1-.05.19-.1.29-.16.1-.06.2-.12.29-.18.1-.06.18-.12.27-.19.09-.07.17-.13.25-.2.08-.07.15-.14.22-.21.07-.07.14-.14.2-.21.06-.07.12-.14.17-.22.05-.07.1-.15.14-.22.04-.07.07-.14.1-.21.03-.07.06-.14.08-.21.02-.07.04-.14.05-.21.01-.07.02-.14.02-.21s0-.14,0-.21c0-.07-.01-.14-.03-.2-.01-.07-.03-.15-.06-.22-.02-.07-.05-.15-.09-.22-.03-.07-.07-.15-.12-.22-.04-.06-.08-.12-.12-.18"/>
      <path class="cls-2" d="M11.93,117.16s-.07.06-.1.08c-.06.06-.12.11-.17.17-.05.06-.1.11-.14.17-.04.05-.07.11-.1.16-.03.05-.06.11-.08.16-.02.05-.04.11-.05.17-.01.05-.02.11-.02.17s0,.11,0,.16c0,.05.01.11.03.16.01.06.03.12.06.18.02.06.05.12.08.18.03.06.07.12.12.17.04.06.09.12.15.17.05.06.11.11.18.17.06.05.13.11.2.16.07.05.15.11.23.16.08.05.15.09.24.14.08.04.17.09.26.13.09.04.18.08.28.13.1.04.19.08.29.12.1.04.2.07.31.11.11.04.21.07.32.1.12.04.24.07.37.1.13.03.26.06.39.09.13.03.27.06.41.08.14.03.29.05.43.07.15.02.3.04.45.06.15.02.3.03.46.05.15.01.31.02.47.04.15,0,.29.02.44.02.15,0,.29,0,.44.01.15,0,.29,0,.44,0,.15,0,.29,0,.44-.01.15,0,.29-.01.44-.02.14,0,.29-.02.43-.03.16-.01.31-.03.47-.05.16-.02.31-.04.47-.06.16-.02.31-.05.47-.07.15-.03.31-.05.46-.08s.31-.06.45-.1c.15-.04.3-.07.44-.11.15-.04.29-.08.43-.12.13-.04.26-.08.38-.12.12-.04.25-.09.36-.13.12-.05.24-.09.35-.14.11-.05.22-.1.33-.14.11-.05.21-.1.31-.15.1-.05.19-.1.29-.16.1-.06.2-.12.29-.18.1-.06.18-.12.27-.19.09-.07.17-.13.25-.2.08-.07.15-.14.22-.21.07-.07.14-.14.2-.21.06-.07.12-.14.17-.22.05-.07.1-.15.14-.22.04-.07.07-.14.1-.21.03-.07.06-.14.08-.21.02-.07.04-.14.05-.21.01-.07.02-.14.02-.21s0-.14,0-.21c0-.07-.01-.14-.03-.2-.01-.07-.03-.15-.06-.22-.02-.07-.05-.15-.09-.22-.03-.07-.07-.15-.12-.22-.04-.06-.08-.12-.12-.18"/>
      <path class="cls-2" d="M11.93,114.84s-.07.06-.1.08c-.06.06-.12.11-.17.17-.05.06-.1.11-.14.17-.04.05-.07.11-.1.16-.03.05-.06.11-.08.16-.02.05-.04.11-.05.17-.01.05-.02.11-.02.17s0,.11,0,.16c0,.05.01.11.03.16.01.06.03.12.06.18.02.06.05.12.08.18.03.06.07.12.12.17.04.06.09.12.15.17.05.06.11.11.18.17.06.05.13.11.2.16.07.05.15.11.23.16.08.05.15.09.24.14.08.04.17.09.26.13.09.04.18.08.28.12.1.04.19.08.29.12.1.04.2.07.31.11.11.04.21.07.32.1.12.04.24.07.37.1.13.03.26.06.39.09.13.03.27.06.41.08.14.03.29.05.43.07.15.02.3.04.45.06.15.02.3.03.46.05.15.01.31.02.47.04.15,0,.29.02.44.02.15,0,.29,0,.44.01.15,0,.29,0,.44,0,.15,0,.29,0,.44-.01.15,0,.29-.01.44-.02.14,0,.29-.02.43-.03.16-.01.31-.03.47-.05.16-.02.31-.04.47-.06.16-.02.31-.05.47-.07.15-.03.31-.05.46-.08s.31-.06.45-.1c.15-.04.3-.07.44-.11.15-.04.29-.08.43-.12.13-.04.26-.08.38-.12.12-.04.25-.09.36-.13.12-.05.24-.09.35-.14.11-.05.22-.1.33-.14.11-.05.21-.1.31-.15.1-.05.19-.1.29-.16.1-.06.2-.12.29-.18.1-.06.18-.12.27-.19.09-.07.17-.13.25-.2.08-.07.15-.14.22-.21.07-.07.14-.14.2-.21.06-.07.12-.14.17-.22.05-.07.1-.15.14-.22.04-.07.07-.14.1-.21.03-.07.06-.14.08-.21.02-.07.04-.14.05-.21.01-.07.02-.14.02-.21s0-.14,0-.21c0-.07-.01-.14-.03-.2-.01-.07-.03-.15-.06-.22-.02-.07-.05-.15-.09-.22-.03-.07-.07-.15-.12-.22-.04-.06-.08-.12-.12-.18"/>
      <path class="cls-2" d="M11.93,112.52s-.07.06-.1.08c-.06.06-.12.11-.17.17-.05.06-.1.11-.14.17-.04.05-.07.11-.1.16-.03.05-.06.11-.08.16-.02.05-.04.11-.05.17-.01.05-.02.11-.02.17s0,.11,0,.16c0,.05.01.11.03.16.01.06.03.12.06.18.02.06.05.12.08.18.03.06.07.12.12.17.04.06.09.12.15.17.05.06.11.11.18.17.06.05.13.11.2.16.07.05.15.11.23.16.08.05.15.09.24.14.08.04.17.09.26.13.09.04.18.08.28.13.1.04.19.08.29.12.1.04.2.07.31.11.11.04.21.07.32.1.12.04.24.07.37.1.13.03.26.06.39.09.13.03.27.06.41.08.14.03.29.05.43.07.15.02.3.04.45.06.15.02.3.03.46.05.15.01.31.02.47.04.15,0,.29.02.44.02.15,0,.29,0,.44.01.15,0,.29,0,.44,0,.15,0,.29,0,.44-.01.15,0,.29-.01.44-.02.14,0,.29-.02.43-.03.16-.01.31-.03.47-.05.16-.02.31-.04.47-.06.16-.02.31-.05.47-.07.15-.03.31-.05.46-.08s.31-.06.45-.1c.15-.04.3-.07.44-.11.15-.04.29-.08.43-.12.13-.04.26-.08.38-.12.12-.04.25-.09.36-.13.12-.05.24-.09.35-.14.11-.05.22-.1.33-.14.11-.05.21-.1.31-.15.1-.05.19-.1.29-.16.1-.06.2-.12.29-.18.1-.06.18-.12.27-.19.09-.07.17-.13.25-.2.08-.07.15-.14.22-.21.07-.07.14-.14.2-.21.06-.07.12-.14.17-.22.05-.07.1-.15.14-.22.04-.07.07-.14.1-.21.03-.07.06-.14.08-.21.02-.07.04-.14.05-.21.01-.07.02-.14.02-.21s0-.14,0-.21c0-.07-.01-.14-.03-.2-.01-.07-.03-.15-.06-.22-.02-.07-.05-.15-.09-.22-.03-.07-.07-.15-.12-.22-.04-.06-.08-.12-.12-.18"/>
      <path class="cls-2" d="M11.93,110.19s-.07.06-.1.08c-.06.06-.12.11-.17.17-.05.06-.1.11-.14.17-.04.05-.07.11-.1.16-.03.05-.06.11-.08.16-.02.05-.04.11-.05.17-.01.05-.02.11-.02.17s0,.11,0,.16c0,.05.01.11.03.16.01.06.03.12.06.18.02.06.05.12.08.18.03.06.07.12.12.17.04.06.09.12.15.17.05.06.11.11.18.17.06.05.13.11.2.16.07.05.15.11.23.16.08.05.15.09.24.14.08.04.17.09.26.13.09.04.18.08.28.12.1.04.19.08.29.12.1.04.2.07.31.11.11.04.21.07.32.1.12.04.24.07.37.1.13.03.26.06.39.09.13.03.27.06.41.08.14.03.29.05.43.07.15.02.3.04.45.06.15.02.3.03.46.05.15.01.31.02.47.04.15,0,.29.02.44.02.15,0,.29,0,.44.01.15,0,.29,0,.44,0,.15,0,.29,0,.44-.01.15,0,.29-.01.44-.02.14,0,.29-.02.43-.03.16-.01.31-.03.47-.05.16-.02.31-.04.47-.06.16-.02.31-.05.47-.07.15-.03.31-.05.46-.08s.31-.06.45-.1c.15-.04.3-.07.44-.11.15-.04.29-.08.43-.12.13-.04.26-.08.38-.12.12-.04.25-.09.36-.13.12-.05.24-.09.35-.14.11-.05.22-.1.33-.14.11-.05.21-.1.31-.15.1-.05.19-.1.29-.16.1-.06.2-.12.29-.18.1-.06.18-.12.27-.19.09-.07.17-.13.25-.2.08-.07.15-.14.22-.21.07-.07.14-.14.2-.21.06-.07.12-.14.17-.22.05-.07.1-.15.14-.22.04-.07.07-.14.1-.21.03-.07.06-.14.08-.21.02-.07.04-.14.05-.21.01-.07.02-.14.02-.21s0-.14,0-.21c0-.07-.01-.14-.03-.2-.01-.07-.03-.15-.06-.22-.02-.07-.05-.15-.09-.22-.03-.07-.07-.15-.12-.22-.04-.06-.08-.12-.12-.18"/>
      <path class="cls-2" d="M11.93,107.87s-.07.06-.1.08c-.06.06-.12.11-.17.17-.05.06-.1.11-.14.17-.04.05-.07.11-.1.16-.03.05-.06.11-.08.16-.02.05-.04.11-.05.17-.01.05-.02.11-.02.17s0,.11,0,.16c0,.05.01.11.03.16.01.06.03.12.06.18.02.06.05.12.08.18.03.06.07.12.12.17.04.06.09.12.15.17.05.06.11.11.18.17.06.05.13.11.2.16.07.05.15.11.23.16.08.05.15.09.24.14.08.04.17.09.26.13.09.04.18.08.28.12.1.04.19.08.29.12.1.04.2.07.31.11.11.04.21.07.32.1.12.04.24.07.37.1.13.03.26.06.39.09.13.03.27.06.41.08.14.03.29.05.43.07.15.02.3.04.45.06.15.02.3.03.46.05.15.01.31.02.47.04.15,0,.29.02.44.02.15,0,.29,0,.44.01.15,0,.29,0,.44,0,.15,0,.29,0,.44-.01.15,0,.29-.01.44-.02.14,0,.29-.02.43-.03.16-.01.31-.03.47-.05.16-.02.31-.04.47-.06.16-.02.31-.05.47-.07.15-.03.31-.05.46-.08s.31-.06.45-.1c.15-.04.3-.07.44-.11.15-.04.29-.08.43-.12.13-.04.26-.08.38-.12.12-.04.25-.09.36-.13.12-.05.24-.09.35-.14.11-.05.22-.1.33-.14.11-.05.21-.1.31-.15.1-.05.19-.1.29-.16.1-.06.2-.12.29-.18.1-.06.18-.12.27-.19.09-.07.17-.13.25-.2.08-.07.15-.14.22-.21.07-.07.14-.14.2-.21.06-.07.12-.14.17-.22.05-.07.1-.15.14-.22.04-.07.07-.14.1-.21.03-.07.06-.14.08-.21.02-.07.04-.14.05-.21.01-.07.02-.14.02-.21s0-.14,0-.21c0-.07-.01-.14-.03-.2-.01-.07-.03-.15-.06-.22-.02-.07-.05-.15-.09-.22-.03-.07-.07-.15-.12-.22-.04-.06-.08-.12-.12-.18"/>
      <path class="cls-2" d="M11.93,105.55s-.07.06-.1.08c-.06.06-.12.11-.17.17-.05.06-.1.11-.14.17-.04.05-.07.11-.1.16-.03.05-.06.11-.08.16-.02.05-.04.11-.05.17-.01.05-.02.11-.02.17s0,.11,0,.16c0,.05.01.11.03.16.01.06.03.12.06.18.02.06.05.12.08.18.03.06.07.12.12.17.04.06.09.12.15.17.05.06.11.11.18.17.06.05.13.11.2.16.07.05.15.11.23.16.08.05.15.09.24.14.08.04.17.09.26.13.09.04.18.08.28.13.1.04.19.08.29.12.1.04.2.07.31.11.11.04.21.07.32.1.12.04.24.07.37.1.13.03.26.06.39.09.13.03.27.06.41.08.14.03.29.05.43.07.15.02.3.04.45.06.15.02.3.03.46.05.15.01.31.02.47.04.15,0,.29.02.44.02.15,0,.29,0,.44.01.15,0,.29,0,.44,0,.15,0,.29,0,.44-.01.15,0,.29-.01.44-.02.14,0,.29-.02.43-.03.16-.01.31-.03.47-.05.16-.02.31-.04.47-.06.16-.02.31-.05.47-.07.15-.03.31-.05.46-.08s.31-.06.45-.1c.15-.04.3-.07.44-.11.15-.04.29-.08.43-.12.13-.04.26-.08.38-.12.12-.04.25-.09.36-.13.12-.05.24-.09.35-.14.11-.05.22-.1.33-.14.11-.05.21-.1.31-.15.1-.05.19-.1.29-.16.1-.06.2-.12.29-.18.1-.06.18-.12.27-.19.09-.07.17-.13.25-.2.08-.07.15-.14.22-.21.07-.07.14-.14.2-.21.06-.07.12-.14.17-.22.05-.07.1-.15.14-.22.04-.07.07-.14.1-.21.03-.07.06-.14.08-.21.02-.07.04-.14.05-.21.01-.07.02-.14.02-.21s0-.14,0-.21c0-.07-.01-.14-.03-.2-.01-.07-.03-.15-.06-.22-.02-.07-.05-.15-.09-.22-.03-.07-.07-.15-.12-.22-.04-.06-.08-.12-.12-.18"/>
      <path class="cls-2" d="M11.93,103.23s-.07.06-.1.08c-.06.06-.12.11-.17.17-.05.06-.1.11-.14.17-.04.05-.07.11-.1.16-.03.05-.06.11-.08.16-.02.05-.04.11-.05.17-.01.05-.02.11-.02.17s0,.11,0,.16c0,.05.01.11.03.16.01.06.03.12.06.18.02.06.05.12.08.18.03.06.07.12.12.17.04.06.09.12.15.17.05.06.11.11.18.17.06.05.13.11.2.16.07.05.15.11.23.16.08.05.15.09.24.14.08.04.17.09.26.13.09.04.18.08.28.12.1.04.19.08.29.12.1.04.2.07.31.11.11.04.21.07.32.1.12.04.24.07.37.1.13.03.26.06.39.09.13.03.27.06.41.08.14.03.29.05.43.07.15.02.3.04.45.06.15.02.3.03.46.05.15.01.31.02.47.04.15,0,.29.02.44.02.15,0,.29,0,.44.01.15,0,.29,0,.44,0,.15,0,.29,0,.44-.01.15,0,.29-.01.44-.02.14,0,.29-.02.43-.03.16-.01.31-.03.47-.05.16-.02.31-.04.47-.06.16-.02.31-.05.47-.07.15-.03.31-.05.46-.08s.31-.06.45-.1c.15-.04.3-.07.44-.11.15-.04.29-.08.43-.12.13-.04.26-.08.38-.12.12-.04.25-.09.36-.13.12-.05.24-.09.35-.14.11-.05.22-.1.33-.14.11-.05.21-.1.31-.15.1-.05.19-.1.29-.16.1-.06.2-.12.29-.18.1-.06.18-.12.27-.19.09-.07.17-.13.25-.2.08-.07.15-.14.22-.21.07-.07.14-.14.2-.21.06-.07.12-.14.17-.22.05-.07.1-.15.14-.22.04-.07.07-.14.1-.21.03-.07.06-.14.08-.21.02-.07.04-.14.05-.21.01-.07.02-.14.02-.21s0-.14,0-.21c0-.07-.01-.14-.03-.2-.01-.07-.03-.15-.06-.22-.02-.07-.05-.15-.09-.22-.03-.07-.07-.15-.12-.22-.04-.06-.08-.12-.12-.18"/>
      <path class="cls-2" d="M11.93,100.9s-.07.06-.1.08c-.06.06-.12.11-.17.17-.05.06-.1.11-.14.17-.04.05-.07.11-.1.16-.03.05-.06.11-.08.16-.02.05-.04.11-.05.17-.01.05-.02.11-.02.17s0,.11,0,.16c0,.05.01.11.03.16.01.06.03.12.06.18.02.06.05.12.08.18.03.06.07.12.12.17.04.06.09.12.15.17.05.06.11.11.18.17.06.05.13.11.2.16.07.05.15.11.23.16.08.05.15.09.24.14.08.04.17.09.26.13.09.04.18.08.28.13.1.04.19.08.29.12.1.04.2.07.31.11.11.04.21.07.32.1.12.04.24.07.37.1.13.03.26.06.39.09.13.03.27.06.41.08.14.03.29.05.43.07.15.02.3.04.45.06.15.02.3.03.46.05.15.01.31.02.47.04.15,0,.29.02.44.02.15,0,.29,0,.44.01.15,0,.29,0,.44,0,.15,0,.29,0,.44-.01.15,0,.29-.01.44-.02.14,0,.29-.02.43-.03.16-.01.31-.03.47-.05.16-.02.31-.04.47-.06.16-.02.31-.05.47-.07.15-.03.31-.05.46-.08s.31-.06.45-.1c.15-.04.3-.07.44-.11.15-.04.29-.08.43-.12.13-.04.26-.08.38-.12.12-.04.25-.09.36-.13.12-.05.24-.09.35-.14.11-.05.22-.1.33-.14.11-.05.21-.1.31-.15.1-.05.19-.1.29-.16.1-.06.2-.12.29-.18.1-.06.18-.12.27-.19.09-.07.17-.13.25-.2.08-.07.15-.14.22-.21.07-.07.14-.14.2-.21.06-.07.12-.14.17-.22.05-.07.1-.15.14-.22.04-.07.07-.14.1-.21.03-.07.06-.14.08-.21.02-.07.04-.14.05-.21.01-.07.02-.14.02-.21s0-.14,0-.21c0-.07-.01-.14-.03-.2-.01-.07-.03-.15-.06-.22-.02-.07-.05-.15-.09-.22-.03-.07-.07-.15-.12-.22-.04-.06-.08-.12-.12-.18"/>
      <path class="cls-2" d="M11.93,98.58s-.07.06-.1.08c-.06.06-.12.11-.17.17-.05.06-.1.11-.14.17-.04.05-.07.11-.1.16-.03.05-.06.11-.08.16-.02.05-.04.11-.05.17-.01.05-.02.11-.02.17s0,.11,0,.16c0,.05.01.11.03.16.01.06.03.12.06.18.02.06.05.12.08.18.03.06.07.12.12.17.04.06.09.12.15.17.05.06.11.11.18.17.06.05.13.11.2.16.07.05.15.11.23.16.08.05.15.09.24.14.08.04.17.09.26.13.09.04.18.08.28.12.1.04.19.08.29.12.1.04.2.07.31.11.11.04.21.07.32.1.12.04.24.07.37.1.13.03.26.06.39.09.13.03.27.06.41.08.14.03.29.05.43.07.15.02.3.04.45.06.15.02.3.03.46.05.15.01.31.02.47.04.15,0,.29.02.44.02.15,0,.29,0,.44.01.15,0,.29,0,.44,0,.15,0,.29,0,.44-.01.15,0,.29-.01.44-.02.14,0,.29-.02.43-.03.16-.01.31-.03.47-.05.16-.02.31-.04.47-.06.16-.02.31-.05.47-.07.15-.03.31-.05.46-.08s.31-.06.45-.1c.15-.04.3-.07.44-.11.15-.04.29-.08.43-.12.13-.04.26-.08.38-.12.12-.04.25-.09.36-.13.12-.05.24-.09.35-.14.11-.05.22-.1.33-.14.11-.05.21-.1.31-.15.1-.05.19-.1.29-.16.1-.06.2-.12.29-.18.1-.06.18-.12.27-.19.09-.07.17-.13.25-.2.08-.07.15-.14.22-.21.07-.07.14-.14.2-.21.06-.07.12-.14.17-.22.05-.07.1-.15.14-.22.04-.07.07-.14.1-.21.03-.07.06-.14.08-.21.02-.07.04-.14.05-.21.01-.07.02-.14.02-.21s0-.14,0-.21c0-.07-.01-.14-.03-.2-.01-.07-.03-.15-.06-.22-.02-.07-.05-.15-.09-.22-.03-.07-.07-.15-.12-.22-.04-.07-.09-.15-.15-.22-.03-.04-.06-.08-.1-.12"/>
      <path class="cls-2" d="M12.66,95.78c-.05.03-.1.05-.15.08-.09.05-.17.1-.25.15-.08.05-.15.11-.22.16-.07.05-.14.11-.2.17-.06.06-.12.11-.17.17-.05.06-.1.11-.14.17-.04.05-.07.11-.1.16-.03.05-.05.11-.08.16-.02.05-.04.11-.05.17-.01.05-.02.11-.02.17,0,.05,0,.11,0,.16,0,.05.01.11.03.16.01.06.03.12.06.18.02.06.05.12.09.18.03.06.07.12.12.17.04.06.09.12.15.17.05.06.11.11.17.17.06.05.13.11.21.16.07.05.15.11.23.16.07.05.15.09.24.14.08.05.17.09.26.13.09.04.18.09.28.12.1.04.19.08.3.12.1.04.2.08.31.11.11.03.21.07.32.1.12.04.25.07.37.1.13.03.26.06.39.09.14.03.27.06.41.08.14.02.29.05.43.07.15.02.29.04.45.06.15.02.3.03.46.05.16.01.31.03.47.04.14,0,.29.02.44.02.15,0,.29,0,.44.01.15,0,.29,0,.44,0,.15,0,.29,0,.44-.01.15,0,.29-.01.44-.02.14,0,.29-.02.43-.03.16-.01.31-.03.47-.05.16-.02.32-.04.47-.06.16-.02.31-.05.47-.07.16-.03.31-.05.46-.09.15-.03.31-.06.46-.1s.3-.07.44-.11c.15-.04.29-.08.43-.12.13-.04.25-.08.38-.12.12-.04.25-.09.37-.13.12-.05.23-.09.35-.14.11-.05.22-.1.33-.14.11-.05.21-.1.31-.15s.19-.11.29-.16"/>
    </g>
    <polyline class="cls-2" points="13.28 163.67 13.18 163.58 13.09 163.49 13.01 163.4 12.94 163.3 12.87 163.21 12.82 163.11 12.77 163.02 12.73 162.92 12.7 162.82 12.68 162.73 12.66 162.63 12.66 162.53 12.66 162.52"/>
    <g>
      <path class="cls-2" d="M14.91,163.8c.32.07.66.13,1.02.18s.74.08,1.14.09c.39.01.79.01,1.2,0,.41-.02.83-.06,1.24-.11.41-.05.81-.12,1.21-.21.4-.09.78-.19,1.15-.31.73-.24,1.39-.54,1.92-.88"/>
      <path class="cls-2" d="M23.79,97.5c.07-.04.15-.08.22-.12.07-.04.14-.08.2-.12.06-.04.13-.08.19-.12.06-.04.12-.09.17-.13.06-.04.11-.09.16-.14.05-.05.09-.09.14-.14.04-.05.08-.09.11-.14.03-.05.07-.09.1-.14.03-.05.05-.1.08-.14.02-.05.04-.1.06-.15.02-.05.03-.1.04-.15.01-.05.02-.1.02-.15,0-.02,0-.04,0-.06"/>
      <path class="cls-2" d="M24.85,98.6c.09-.06.18-.12.26-.18.08-.06.16-.13.24-.19.07-.06.15-.13.21-.19.07-.07.13-.13.19-.2.06-.07.11-.13.16-.2.05-.07.09-.14.13-.21.04-.07.07-.14.1-.21.03-.07.05-.14.07-.21.02-.07.04-.15.05-.22.01-.07.02-.15.02-.22s0-.15-.02-.22c-.01-.07-.03-.15-.04-.22-.02-.07-.05-.14-.08-.21-.03-.07-.07-.14-.11-.21-.04-.07-.08-.14-.13-.21-.05-.07-.1-.14-.16-.2-.06-.07-.12-.13-.19-.2-.07-.06-.14-.13-.21-.19-.02-.02-.05-.04-.07-.06"/>
      <path class="cls-2" d="M16.85,164.74c-.86-.11-1.63-.29-2.26-.51h0"/>
      <path class="cls-2" d="M18.96,164.86c-.73,0-1.45-.04-2.11-.12"/>
      <path class="cls-2" d="M24.85,163.65c-.7.35-1.54.62-2.44.83-.9.2-1.87.32-2.82.37-.21,0-.42.02-.63.02"/>
    </g>
    <line class="cls-2" x1="14.91" y1="163.8" x2="14.58" y2="164.22"/>
    <path class="cls-2" d="M14.52,164.67c2.75,1.6,6.14,1.6,8.88,0"/>
    <line class="cls-2" x1="21.16" y1="8.89" x2="16.27" y2="8.89"/>
    <line class="cls-2" x1="16.27" y1="8.89" x2="13.62" y2="7.04"/>
    <line class="cls-2" x1="13.62" y1="7.04" x2="16.27" y2="5.19"/>
    <line class="cls-2" x1="16.27" y1="5.19" x2="21.16" y2="5.19"/>
    <line class="cls-2" x1="21.16" y1="5.19" x2="23.82" y2="7.04"/>
    <line class="cls-2" x1="23.82" y1="7.04" x2="21.16" y2="8.89"/>
    <line class="cls-2" x1="16.27" y1="8.89" x2="16.27" y2="5.19"/>
    <line class="cls-2" x1="21.16" y1="8.89" x2="21.16" y2="5.19"/>
  </g>
</svg>