<?xml version="1.0" encoding="UTF-8"?>
<svg id="Layer_2" data-name="Layer 2" xmlns="http://www.w3.org/2000/svg" viewBox="0 0 23.43 38.41">
  <defs>
    <style>
      .cls-1 {
        fill: none;
        stroke: #231f20;
        stroke-linecap: round;
        stroke-linejoin: round;
        stroke-width: .75px;
      }
    </style>
  </defs>
  <g id="Layer_1-2" data-name="Layer 1">
    <g>
      <path class="cls-1" d="M23.05,5.99c0-.08,0-.17,0-.25,0-.1-.02-.2-.04-.3-.02-.1-.04-.2-.07-.3-.03-.1-.06-.2-.09-.29-.04-.1-.08-.19-.12-.29-.05-.1-.1-.19-.15-.28-.06-.1-.12-.19-.18-.28-.07-.09-.14-.18-.21-.27-.08-.09-.15-.18-.24-.27-.08-.09-.17-.18-.27-.26-.09-.09-.19-.17-.3-.26-.1-.08-.21-.17-.32-.24-.11-.08-.23-.16-.35-.24-.12-.08-.25-.15-.38-.22-.13-.07-.26-.14-.4-.21-.14-.07-.27-.13-.42-.2-.14-.06-.29-.13-.44-.19-.15-.06-.3-.12-.45-.17-.15-.06-.31-.11-.47-.16-.16-.05-.32-.1-.48-.15-.16-.05-.33-.09-.5-.13-.17-.04-.34-.08-.51-.12-.17-.04-.35-.07-.52-.11-.18-.03-.35-.07-.53-.1-.18-.03-.36-.06-.54-.08-.18-.03-.36-.05-.55-.07-.18-.02-.37-.04-.56-.06-.18-.02-.37-.03-.56-.04-.19-.01-.38-.02-.56-.03-.19,0-.38-.02-.57-.02-.19,0-.38,0-.57,0s-.38,0-.57,0c-.19,0-.38.01-.57.02-.19,0-.38.02-.56.03-.19.01-.37.03-.56.04-.19.02-.37.04-.55.06-.18.02-.37.04-.55.07-.18.03-.36.05-.54.08-.18.03-.35.06-.53.1-.17.03-.35.07-.52.11-.17.04-.34.08-.51.12-.17.04-.33.09-.5.13s-.32.1-.48.15c-.16.05-.32.1-.47.16-.15.05-.3.11-.45.17-.15.06-.29.12-.44.18-.14.06-.28.13-.42.2-.14.07-.27.14-.4.21-.13.07-.26.15-.38.23-.12.08-.24.16-.36.24-.11.08-.23.17-.33.25-.11.09-.21.18-.31.27-.1.09-.19.18-.28.28-.09.09-.17.19-.25.29-.08.1-.15.2-.22.3-.07.1-.13.2-.18.3-.05.1-.1.2-.15.31-.04.1-.08.2-.12.31-.03.1-.06.21-.08.31-.02.1-.04.2-.05.31-.01.1-.02.21-.02.31,0,.03,0,.05,0,.08"/>
      <path class="cls-1" d="M12.43,14.95s.03,0,.05,0c.19,0,.38-.01.57-.02.13,0,.26-.01.39-.02"/>
      <path class="cls-1" d="M8.99,14.81s.04,0,.06,0c.18.02.37.04.56.05.13,0,.25.02.38.03"/>
      <path class="cls-1" d="M15.77,14.63s.05,0,.08-.01c.18-.03.35-.06.53-.1.12-.02.23-.05.35-.07"/>
      <path class="cls-1" d="M5.76,14.22s.07.02.11.03c.16.05.33.09.5.12.11.03.22.05.34.08"/>
      <path class="cls-1" d="M18.7,13.9s.09-.03.13-.04c.15-.05.3-.11.44-.16.09-.04.19-.08.28-.11"/>
      <path class="cls-1" d="M3.01,13.17c.07.04.14.08.21.11.13.06.26.13.4.19.09.04.18.08.26.11"/>
      <path class="cls-1" d="M20.94,12.86c.08-.05.16-.1.23-.15.11-.07.21-.15.31-.23.06-.05.12-.1.19-.15"/>
      <path class="cls-1" d="M.99,11.54s.05.07.08.11c.07.09.14.17.21.25.08.08.16.16.24.24.07.07.15.13.23.2"/>
      <path class="cls-1" d="M22.38,11.62s.06-.08.09-.12c.07-.09.12-.17.17-.26.05-.09.1-.18.14-.27.03-.07.26-.54.26-1.13"/>
    </g>
    <polyline class="cls-1" points="22.04 11.82 21.93 11.86 21.81 11.89"/>
    <polyline class="cls-1" points="20.09 13.07 19.91 13.09 19.72 13.1"/>
    <polyline class="cls-1" points="17.32 14.01 17.08 14 16.85 13.98"/>
    <polyline class="cls-1" points="13.99 14.53 13.73 14.49 13.47 14.44"/>
    <polyline class="cls-1" points="10.45 14.6 10.19 14.52 9.93 14.44"/>
    <polyline class="cls-1" points="7.03 14.2 6.79 14.09 6.55 13.98"/>
    <polyline class="cls-1" points="4.07 13.38 3.88 13.24 3.69 13.1"/>
    <polyline class="cls-1" points="1.86 12.21 1.73 12.04 1.6 11.88"/>
    <g>
      <path class="cls-1" d="M12.43,14.95s-.07,0-.1,0c-.13,0-.26-.01-.4-.03-.14-.02-.28-.04-.43-.07-.17-.03-.35-.07-.52-.11-.18-.04-.35-.09-.53-.14"/>
      <path class="cls-1" d="M13.47,14.57c0,.06,0,.11,0,.16,0,.05,0,.08-.01.11,0,.03-.01.05-.02.05,0,0,0,0,0,0"/>
      <path class="cls-1" d="M8.99,14.81s-.07,0-.11-.01c-.14-.02-.29-.05-.43-.09-.15-.04-.29-.08-.44-.13-.17-.05-.33-.11-.5-.18-.16-.07-.32-.14-.48-.21"/>
      <path class="cls-1" d="M9.93,14.57c0,.14,0,.24.03.29.02.05.04.05.06-.02"/>
      <path class="cls-1" d="M15.77,14.63s-.04,0-.06.01c-.1.01-.22.02-.34.02-.12,0-.25,0-.38-.01-.16,0-.32-.02-.49-.04-.17-.02-.34-.05-.51-.07"/>
      <path class="cls-1" d="M5.76,14.22s-.03,0-.04-.01c-.14-.04-.28-.09-.41-.15-.14-.06-.27-.12-.4-.18-.15-.07-.29-.15-.43-.24-.14-.09-.27-.17-.4-.26"/>
      <path class="cls-1" d="M6.55,14.11c0,.14.03.25.07.3.05.05.11.05.18,0"/>
      <path class="cls-1" d="M19.72,13.23h0c0,.07-.01.12-.03.17-.02.05-.04.09-.07.12-.03.02-.06.04-.09.06"/>
      <path class="cls-1" d="M18.7,13.9h0c-.07.03-.15.04-.25.06-.1.02-.2.02-.3.03-.12.01-.26.02-.4.02-.14,0-.29,0-.43,0"/>
      <path class="cls-1" d="M3.69,13.22c0,.14.04.25.12.31.07.06.18.08.28.03"/>
      <path class="cls-1" d="M3.01,13.16c-.08-.04-.16-.08-.23-.13-.12-.07-.22-.15-.32-.23-.12-.09-.23-.19-.33-.29-.1-.1-.19-.2-.28-.31"/>
      <path class="cls-1" d="M21.81,12.02c0,.06-.01.11-.03.16-.02.05-.04.1-.08.13-.01,0-.02.02-.04.03"/>
      <path class="cls-1" d="M20.94,12.86s-.04.03-.06.04c-.05.03-.12.05-.19.07-.09.02-.18.04-.28.06-.1.02-.21.03-.33.05"/>
      <path class="cls-1" d="M10.02,14.87c.13.03.25.05.38.08.15.03.3.06.46.08"/>
      <path class="cls-1" d="M10.86,15.03c.13.02.26.04.39.05.14.01.27.02.42.02.16,0,.32,0,.48,0,.16,0,.32-.02.48-.04.16-.02.32-.05.47-.08.08-.02.16-.04.25-.06"/>
      <path class="cls-1" d="M13.43,14.88s.06-.01.1-.02c.14-.04.28-.08.4-.14.12-.05.22-.1.33-.15"/>
      <path class="cls-1" d="M1.6,12.01c0,.06.01.11.03.16.02.05.05.1.08.13.04.04.08.07.13.09.05.02.1.03.16.03.02,0,.03,0,.05,0"/>
      <path class="cls-1" d="M.99,11.54s-.04-.04-.05-.07c-.08-.11-.14-.22-.19-.33-.05-.11-.37-.88-.37-1.31"/>
      <path class="cls-1" d="M22.38,11.62s-.01.02-.02.03c-.03.03-.07.06-.13.09-.06.03-.12.05-.19.08"/>
    </g>
    <line class="cls-1" x1="23.05" y1="9.84" x2="23.05" y2="5.99"/>
    <line class="cls-1" x1=".38" y1="5.99" x2=".38" y2="9.84"/>
    <line class="cls-1" x1="21.81" y1="11.89" x2="21.81" y2="12.02"/>
    <line class="cls-1" x1="19.72" y1="13.1" x2="19.72" y2="13.23"/>
    <line class="cls-1" x1="16.85" y1="13.98" x2="16.85" y2="14.11"/>
    <line class="cls-1" x1="13.47" y1="14.44" x2="13.47" y2="14.57"/>
    <line class="cls-1" x1="9.93" y1="14.44" x2="9.93" y2="14.57"/>
    <line class="cls-1" x1="6.55" y1="13.98" x2="6.55" y2="14.11"/>
    <line class="cls-1" x1="3.69" y1="13.09" x2="3.69" y2="13.22"/>
    <line class="cls-1" x1="1.6" y1="11.88" x2="1.6" y2="12.01"/>
    <line class="cls-1" x1="10.14" y1="14.51" x2="10.02" y2="14.85"/>
    <line class="cls-1" x1="7.05" y1="14.21" x2="6.81" y2="14.41"/>
    <line class="cls-1" x1="4.25" y1="13.5" x2="4.09" y2="13.57"/>
    <line class="cls-1" x1="10.86" y1="3.32" x2="8.44" y2="2.45"/>
    <line class="cls-1" x1="8.54" y1="4.23" x2="6.37" y2="3.32"/>
    <line class="cls-1" x1="8.99" y1="4.97" x2="6.37" y2="6.09"/>
    <line class="cls-1" x1="10.66" y1="5.95" x2="8.44" y2="6.96"/>
    <line class="cls-1" x1="14.99" y1="6.96" x2="12.63" y2="5.99"/>
    <line class="cls-1" x1="14.51" y1="4.97" x2="17.05" y2="6.09"/>
    <line class="cls-1" x1="15.09" y1="4.15" x2="17.05" y2="3.32"/>
    <line class="cls-1" x1="14.99" y1="2.45" x2="12.58" y2="3.47"/>
    <polyline class="cls-1" points="8.44 2.45 10.86 5.99 11.42 6.75 11.74 8.17 12.01 6.73 12.55 5.99"/>
    <line class="cls-1" x1="14.99" y1="2.45" x2="12.55" y2="5.99"/>
    <g>
      <path class="cls-1" d="M8.44,2.45c-.73.17-1.43.47-2.07.87"/>
      <path class="cls-1" d="M6.38,6.08c.63.41,1.33.7,2.06.87"/>
      <path class="cls-1" d="M14.99,6.96c.73-.17,1.43-.47,2.06-.87"/>
      <path class="cls-1" d="M17.05,3.32c-.63-.41-1.33-.7-2.07-.87"/>
      <path class="cls-1" d="M23,5.61c0,2.89-5.05,5.23-11.28,5.23S.45,8.5.45,5.61,5.5.38,11.73.38s11.28,2.34,11.28,5.23Z"/>
      <path class="cls-1" d="M23.03,5.99c0,2.68-5.07,4.85-11.33,4.85S.38,8.67.38,5.99"/>
    </g>
    <line class="cls-1" x1="7.62" y1="32.37" x2="7.62" y2="31.7"/>
    <line class="cls-1" x1="8.57" y1="36.07" x2="8.57" y2="33.99"/>
    <line class="cls-1" x1="16.1" y1="31.9" x2="16.1" y2="32.64"/>
    <line class="cls-1" x1="15.14" y1="33.61" x2="15.14" y2="36.35"/>
    <g>
      <path class="cls-1" d="M12.45,34.59c-1.21.31-2.5.16-3.61-.41"/>
      <path class="cls-1" d="M15.77,33.19c-.99.7-2.13,1.18-3.32,1.4"/>
      <path class="cls-1" d="M8.84,34.18c-.68-.37-1.14-1.05-1.22-1.81"/>
      <path class="cls-1" d="M12,37.94c-.79.2-1.62.1-2.35-.27"/>
      <path class="cls-1" d="M14.93,36.7c-.88.62-1.88,1.04-2.93,1.24"/>
      <path class="cls-1" d="M9.65,37.67c-.6-.32-1.01-.92-1.08-1.6"/>
      <path class="cls-1" d="M16.1,32.64c-.02.22-.14.43-.33.55"/>
      <path class="cls-1" d="M15.14,36.35c-.01.15-.09.28-.21.36"/>
      <path class="cls-1" d="M16.48,29.72c.32.18.48.42.47.75-.04,1.15-1.83,2.11-5.12,2.16-3.25.05-6.33-1.73-4.91-3.17"/>
      <path class="cls-1" d="M16.45,27.89c.33.18.5.43.49.76-.04,1.15-1.83,2.11-5.12,2.16-3.25.05-6.33-1.73-4.91-3.17"/>
      <path class="cls-1" d="M16.43,26.05c.34.18.52.43.51.77-.04,1.15-1.83,2.11-5.12,2.16-3.25.05-6.33-1.73-4.91-3.17"/>
      <path class="cls-1" d="M16.42,24.23c.34.18.52.43.51.77-.04,1.15-1.83,2.11-5.12,2.16-3.25.05-6.33-1.73-4.91-3.17"/>
      <path class="cls-1" d="M16.41,22.41c.34.18.52.43.51.77-.04,1.15-1.83,2.11-5.12,2.16-3.25.05-6.33-1.73-4.91-3.17"/>
      <path class="cls-1" d="M16.4,20.59c.34.18.52.43.51.77-.04,1.15-1.83,2.11-5.12,2.16-3.25.05-6.33-1.73-4.91-3.17"/>
      <path class="cls-1" d="M16.39,18.77c.34.18.52.43.51.77-.04,1.15-1.83,2.11-5.12,2.16-3.25.05-6.33-1.73-4.91-3.17"/>
      <path class="cls-1" d="M16.38,16.95c.34.18.52.43.51.77-.04,1.15-1.83,2.11-5.12,2.16-3.25.05-6.33-1.73-4.91-3.17"/>
      <path class="cls-1" d="M16.37,15.13c.34.18.52.43.51.77-.04,1.15-1.83,2.11-5.12,2.16-3.25.05-6.33-1.73-4.91-3.17"/>
      <path class="cls-1" d="M16.47,15.05c-.68.76-2.3,1.31-4.77,1.35-2.51.04-4.91-1.01-5.23-2.15"/>
    </g>
    <polyline class="cls-1" points="8.99 4.97 4.52 4.7 8.44 4.19"/>
    <polyline class="cls-1" points="14.51 4.97 18.98 4.7 15.06 4.19"/>
    <polyline class="cls-1" points="10.86 3.32 11.66 1.25 12.58 3.47"/>
  </g>
</svg>