<?xml version="1.0" encoding="UTF-8"?>
<svg id="Layer_2" data-name="Layer 2" xmlns="http://www.w3.org/2000/svg" viewBox="0 0 128.53 109.74">
  <defs>
    <style>
      .cls-1 {
        fill: #231f20;
        font-family: NotoIKEALatin-Regular, 'Noto IKEA Latin';
        font-size: 7px;
      }

      .cls-2 {
        fill: none;
        stroke: #231f20;
        stroke-linecap: round;
        stroke-linejoin: round;
        stroke-width: .75px;
      }
    </style>
  </defs>
  <g id="Layer_1-2" data-name="Layer 1">
    <line class="cls-2" x1="38.66" y1="87.27" x2="17.56" y2="78.36"/>
    <line class="cls-2" x1="10.56" y1="94.94" x2="31.65" y2="103.85"/>
    <path class="cls-2" d="M10.56,68.79c-.29.13-.58.25-.87.39-.55.26-1.08.53-1.6.83-.46.26-.92.54-1.35.84-.42.28-.82.58-1.22.9-.37.3-.73.62-1.08.95-.33.32-.64.65-.95,1-.29.34-.56.69-.82,1.05-.25.35-.48.72-.7,1.1-.21.37-.4.75-.58,1.14-.17.39-.32.78-.45,1.18-.14.44-.26.89-.35,1.34-.09.44-.15.89-.19,1.35-.04.45-.05.89-.04,1.34.01.44.05.88.11,1.31.06.43.14.86.25,1.28.11.42.23.83.38,1.23.15.4.32.8.51,1.18.19.39.4.76.63,1.13.23.37.48.73.74,1.07.27.35.55.69.85,1.02.31.34.64.66.97.96.35.32.72.62,1.1.91.4.3.81.59,1.23.86.45.29.9.55,1.37.81.49.26.99.51,1.51.74.17.08.35.15.52.23"/>
    <line class="cls-2" x1="25.87" y1="81.87" x2="117.97" y2="42.94"/>
    <line class="cls-2" x1="110.97" y1="26.36" x2="10.56" y2="68.79"/>
    <path class="cls-2" d="M117.97,42.94c.29-.13.58-.25.86-.38.55-.26,1.08-.53,1.6-.83.46-.26.92-.54,1.35-.84.42-.28.82-.58,1.22-.9.37-.3.73-.62,1.08-.95.33-.32.64-.65.94-1,.29-.33.56-.69.82-1.05.25-.35.48-.72.7-1.1.21-.37.4-.75.58-1.14.17-.39.32-.78.45-1.18.14-.44.26-.89.35-1.34.09-.44.15-.89.19-1.35.04-.45.05-.89.04-1.34-.01-.44-.05-.88-.11-1.31-.06-.43-.14-.86-.25-1.28s-.23-.83-.38-1.23c-.15-.4-.32-.8-.51-1.18-.19-.39-.4-.76-.63-1.13-.23-.37-.48-.73-.74-1.07-.27-.35-.55-.69-.85-1.02-.31-.34-.64-.66-.97-.96-.35-.32-.72-.62-1.1-.91-.4-.3-.81-.59-1.23-.86-.45-.28-.9-.55-1.37-.81-.49-.26-.99-.51-1.51-.74-.17-.08-.35-.15-.52-.23"/>
    <line class="cls-2" x1="89.05" y1="24.11" x2="102.66" y2="29.87"/>
    <line class="cls-2" x1="117.97" y1="16.8" x2="96.05" y2="7.53"/>
    <line class="cls-2" x1="34.57" y1="95.76" x2="48.71" y2="101.74"/>
    <line class="cls-2" x1="38.81" y1="90.83" x2="34.57" y2="95.76"/>
    <line class="cls-2" x1="52.95" y1="96.8" x2="48.71" y2="101.74"/>
    <line class="cls-2" x1="52.95" y1="109.36" x2="57.19" y2="104.43"/>
    <line class="cls-2" x1="48.71" y1="108.01" x2="52.95" y2="109.36"/>
    <line class="cls-2" x1="48.71" y1="101.74" x2="48.71" y2="108.02"/>
    <line class="cls-2" x1="57.19" y1="104.43" x2="57.19" y2="98.15"/>
    <line class="cls-2" x1="34.57" y1="102.04" x2="48.71" y2="108.02"/>
    <line class="cls-2" x1="34.57" y1="95.76" x2="34.57" y2="102.04"/>
    <line class="cls-2" x1="43.05" y1="92.17" x2="38.81" y2="90.83"/>
    <line class="cls-2" x1="43.05" y1="92.17" x2="57.19" y2="98.15"/>
    <path class="cls-2" d="M36.61,88.02c-4.24.13-6.34,2.57-5.51,6.41"/>
    <line class="cls-2" x1="36.61" y1="88.02" x2="38.81" y2="90.83"/>
    <line class="cls-2" x1="34.57" y1="95.76" x2="31.1" y2="94.43"/>
    <line class="cls-2" x1="31.1" y1="102.58" x2="34.57" y2="102.04"/>
    <g>
      <path class="cls-2" d="M31.1,94.43c-3.11,2.17-3.11,5.28,0,8.16"/>
      <path class="cls-2" d="M31.1,102.58c-.83,1.21,1.27,1.88,5.51,1.75"/>
      <path class="cls-2" d="M42.12,89.77c-3.11-2.88-5.21-3.54-5.51-1.75"/>
    </g>
    <line class="cls-2" x1="42.12" y1="89.77" x2="43.05" y2="92.17"/>
    <line class="cls-2" x1="36.61" y1="104.33" x2="38.29" y2="103.61"/>
    <path class="cls-2" d="M87.2,22.5c.44.72,1.08,1.28,1.85,1.62"/>
    <line class="cls-2" x1="87.2" y1="22.5" x2="70.23" y2="15.32"/>
    <g>
      <path class="cls-2" d="M69.92,14.78c.09.19.19.37.3.55"/>
      <path class="cls-2" d="M86.89,14.48c-.95,2.4-.95,5.07,0,7.47"/>
    </g>
    <line class="cls-2" x1="86.89" y1="14.48" x2="69.92" y2="7.3"/>
    <path class="cls-2" d="M70.23,6.5c-.11.26-.21.53-.3.8"/>
    <line class="cls-2" x1="87.2" y1="13.67" x2="70.23" y2="6.5"/>
    <path class="cls-2" d="M92.25,7.8c-2.33,1.3-4.12,3.38-5.05,5.87"/>
    <line class="cls-2" x1="92.25" y1="7.8" x2="75.28" y2=".63"/>
    <g>
      <path class="cls-2" d="M75.88.38c-.21.08-.41.16-.61.26"/>
      <path class="cls-2" d="M96.05,7.53c-1.03-.41-2.18-.4-3.2.01"/>
    </g>
    <line class="cls-2" x1="93.6" y1="7.33" x2="80.93" y2="1.98"/>
    <line class="cls-2" x1="70.23" y1="6.5" x2="75.28" y2=".63"/>
    <line class="cls-2" x1="69.92" y1="14.78" x2="69.92" y2="7.3"/>
    <line class="cls-2" x1="75.88" y1=".38" x2="80.93" y2="1.98"/>
    <text class="cls-1" transform="translate(68.56 109.14) rotate(-90)"><tspan x="0" y="0">195701</tspan></text>
  </g>
</svg>