<?xml version="1.0" encoding="UTF-8"?>
<svg id="Layer_2" data-name="Layer 2" xmlns="http://www.w3.org/2000/svg" viewBox="0 0 297.46 99.1">
  <defs>
    <style>
      .cls-1 {
        stroke-width: .5px;
      }

      .cls-1, .cls-2 {
        fill: none;
        stroke: #231f20;
        stroke-linecap: round;
        stroke-linejoin: round;
      }
    </style>
  </defs>
  <g id="Layer_1-2" data-name="Layer 1">
    <line class="cls-2" x1=".53" y1="57.36" x2="97.55" y2="98.55"/>
    <polyline class="cls-1" points="272.59 45.26 272.4 45.27 272.24 45.18 272.14 45 272.12 44.76 272.18 44.51 272.3 44.27 272.48 44.08 272.68 43.98 272.87 43.97 273.02 44.06 273.12 44.24 273.14 44.48 273.08 44.73 272.96 44.97 272.79 45.16 272.59 45.26"/>
    <line class="cls-1" x1="97.73" y1="89.12" x2="296.67" y2="33.76"/>
    <line class="cls-2" x1="296.96" y1="34.1" x2="296.8" y2="42.26"/>
    <line class="cls-2" x1="97.85" y1="98.6" x2="296.44" y2="42.77"/>
    <line class="cls-1" x1="97.3" y1="89.72" x2="97.41" y2="98.25"/>
    <polyline class="cls-1" points="114.5 90.27 114.85 90.12 115.17 89.88 115.44 89.56 115.64 89.19 115.75 88.8 115.77 88.41 115.7 88.05 115.54 87.75 115.3 87.54 115 87.42 114.67 87.41 114.32 87.51 113.98 87.71 113.69 87.99 113.45 88.34 113.29 88.73 113.22 89.12 113.24 89.5 113.36 89.83 113.57 90.08 113.84 90.25 114.16 90.31 114.5 90.27"/>
    <polyline class="cls-1" points="128.03 85.77 128.28 85.65 128.48 85.44 128.61 85.18 128.66 84.9 128.62 84.64 128.48 84.45 128.28 84.36 128.04 84.37 127.79 84.49 127.59 84.7 127.45 84.97 127.41 85.25 127.45 85.5 127.59 85.69 127.79 85.79 128.03 85.77"/>
    <polyline class="cls-1" points="283.33 42.87 283.06 42.9 282.82 42.83 282.63 42.67 282.49 42.43 282.42 42.14 282.43 41.79 282.51 41.44 282.66 41.09 282.86 40.79 283.11 40.54 283.38 40.38 283.65 40.3 283.91 40.32 284.13 40.43 284.3 40.64 284.4 40.91 284.43 41.23 284.39 41.58 284.27 41.93 284.1 42.26 283.87 42.54 283.61 42.75 283.33 42.87"/>
    <polyline class="cls-1" points="191.93 67.86 192.15 67.75 192.34 67.55 192.47 67.3 192.52 67.03 192.49 66.78 192.37 66.6 192.19 66.51 191.97 66.51 191.75 66.63 191.56 66.83 191.43 67.08 191.38 67.35 191.41 67.6 191.53 67.78 191.71 67.88 191.93 67.86"/>
    <polyline class="cls-1" points="204.07 64.86 204.34 64.74 204.58 64.53 204.79 64.26 204.93 63.94 205 63.62 204.99 63.3 204.91 63.04 204.75 62.83 204.53 62.71 204.28 62.69 204.01 62.77 203.75 62.93 203.52 63.17 203.34 63.47 203.23 63.8 203.2 64.12 203.25 64.42 203.38 64.65 203.57 64.82 203.8 64.89 204.07 64.86"/>
    <line class="cls-1" x1="97.3" y1="89.38" x2=".33" y2="48.09"/>
    <line class="cls-2" x1=".5" y1="47.81" x2=".53" y2="57.36"/>
    <line class="cls-2" x1="296.96" y1="34.02" x2="192.27" y2=".5"/>
    <line class="cls-2" x1="192.27" y1=".5" x2=".5" y2="47.81"/>
  </g>
</svg>