<?xml version="1.0" encoding="UTF-8"?>
<svg id="Layer_2" data-name="Layer 2" xmlns="http://www.w3.org/2000/svg" viewBox="0 0 261.25 89.53">
  <defs>
    <style>
      .cls-1 {
        stroke-width: .5px;
      }

      .cls-1, .cls-2 {
        fill: none;
        stroke: #231f20;
        stroke-linecap: round;
        stroke-linejoin: round;
      }
    </style>
  </defs>
  <g id="Layer_1-2" data-name="Layer 1">
    <line class="cls-2" x1="254.7" y1="27.88" x2="256.99" y2="27.18"/>
    <line class="cls-2" x1="80.08" y1="81.83" x2="249.39" y2="29.52"/>
    <line class="cls-2" x1="72.09" y1="84.3" x2="74.94" y2="83.42"/>
    <line class="cls-2" x1="56.79" y1="89.03" x2="67.1" y2="85.84"/>
    <line class="cls-2" x1=".7" y1="66.96" x2="56.43" y2="89.01"/>
    <line class="cls-2" x1="260.75" y1="17.27" x2="201.63" y2=".5"/>
    <polyline class="cls-1" points="212.2 9.1 212.06 9.04 212.02 8.96 212.09 8.89 212.26 8.82 212.49 8.77 212.76 8.75 213.02 8.76 213.24 8.8 213.38 8.86 213.42 8.94 213.35 9.02 213.18 9.08 212.95 9.13 212.68 9.15 212.42 9.14 212.2 9.1"/>
    <polyline class="cls-1" points="206.74 7.85 206.53 7.77 206.41 7.67 206.39 7.57 206.48 7.46 206.66 7.36 206.92 7.27 207.25 7.21 207.61 7.17 207.99 7.16 208.36 7.18 208.67 7.22 208.92 7.29 209.09 7.38 209.16 7.49 209.12 7.6 208.99 7.7 208.76 7.79 208.47 7.87 208.12 7.92 207.74 7.95 207.37 7.94 207.03 7.91 206.74 7.85"/>
    <polyline class="cls-1" points="200.04 2.84 199.83 2.76 199.72 2.66 199.7 2.56 199.79 2.46 199.97 2.36 200.23 2.27 200.55 2.21 200.91 2.17 201.29 2.16 201.64 2.18 201.96 2.22 202.2 2.29 202.37 2.38 202.43 2.48 202.39 2.59 202.26 2.69 202.04 2.78 201.74 2.86 201.39 2.91 201.03 2.93 200.66 2.93 200.32 2.9 200.04 2.84"/>
    <polyline class="cls-1" points="31.18 61.53 30.96 61.48 30.68 61.47 30.37 61.49 30.09 61.55 29.88 61.63 29.77 61.73 29.77 61.83 29.9 61.9 30.12 61.96 30.4 61.97 30.7 61.95 30.98 61.89 31.19 61.8 31.3 61.71 31.3 61.61 31.18 61.53"/>
    <polyline class="cls-1" points="21.8 57.98 21.58 57.93 21.31 57.91 21 57.94 20.73 58 20.51 58.08 20.4 58.17 20.4 58.27 20.52 58.34 20.73 58.39 21.02 58.41 21.32 58.38 21.6 58.32 21.81 58.24 21.92 58.15 21.91 58.05 21.8 57.98"/>
    <polyline class="cls-1" points="27.11 59.56 26.83 59.49 26.47 59.44 26.06 59.44 25.64 59.46 25.23 59.53 24.86 59.62 24.57 59.74 24.37 59.87 24.28 60.01 24.3 60.14 24.44 60.25 24.68 60.34 25 60.4 25.39 60.43 25.81 60.42 26.23 60.37 26.62 60.29 26.95 60.18 27.2 60.06 27.35 59.92 27.38 59.79 27.3 59.67 27.11 59.56"/>
    <polyline class="cls-1" points="15.51 55.17 15.23 55.09 14.88 55.05 14.48 55.04 14.06 55.07 13.65 55.14 13.29 55.23 13 55.34 12.8 55.47 12.7 55.6 12.72 55.73 12.85 55.84 13.09 55.93 13.41 55.99 13.79 56.02 14.2 56.01 14.62 55.96 15 55.88 15.34 55.78 15.59 55.65 15.74 55.52 15.77 55.39 15.7 55.27 15.51 55.17"/>
    <polyline class="cls-1" points="8.68 57.1 8.41 57.03 8.05 56.99 7.65 56.98 7.23 57.01 6.82 57.07 6.45 57.17 6.16 57.28 5.95 57.41 5.86 57.54 5.87 57.67 6 57.79 6.24 57.88 6.56 57.93 6.94 57.96 7.36 57.95 7.78 57.9 8.17 57.82 8.5 57.72 8.75 57.59 8.9 57.46 8.94 57.33 8.87 57.21 8.68 57.1"/>
    <line class="cls-2" x1="201.49" y1=".5" x2=".5" y2="57.35"/>
    <polyline class="cls-1" points="194.54 4.4 194.34 4.32 194.22 4.22 194.21 4.12 194.3 4.01 194.48 3.91 194.74 3.83 195.07 3.77 195.43 3.73 195.8 3.72 196.16 3.73 196.47 3.78 196.72 3.85 196.88 3.94 196.95 4.04 196.91 4.14 196.77 4.25 196.55 4.34 196.25 4.41 195.9 4.47 195.53 4.49 195.16 4.49 194.82 4.46 194.54 4.4"/>
    <polyline class="cls-1" points="202.35 6.31 202.21 6.25 202.17 6.18 202.25 6.1 202.41 6.04 202.64 5.99 202.91 5.97 203.17 5.98 203.38 6.02 203.52 6.08 203.56 6.15 203.49 6.23 203.32 6.29 203.09 6.34 202.82 6.36 202.56 6.35 202.35 6.31"/>
    <line class="cls-1" x1="56.43" y1="79.7" x2="56.71" y2="88.77"/>
    <line class="cls-1" x1="260.68" y1="17.46" x2="56.69" y2="79.57"/>
    <line class="cls-1" x1="55.94" y1="79.58" x2=".73" y2="57.94"/>
    <polyline class="cls-1" points="41.32 51.13 41.3 50.9 41.2 50.67 41.05 50.45 40.82 50.25 40.54 50.06 40.2 49.89 39.81 49.74 39.38 49.61 38.9 49.51 38.39 49.43 37.86 49.38 37.3 49.36 36.74 49.36 36.17 49.4 35.61 49.46 35.05 49.55 34.53 49.67 34.03 49.8 33.56 49.96 33.13 50.15 32.76 50.34 32.43 50.56 32.17 50.78 31.96 51.01 31.83 51.25 31.75 51.49 31.75 51.73 31.81 51.96 31.93 52.18 32.13 52.39 32.39 52.59 32.7 52.77 33.07 52.93 33.48 53.07 33.94 53.18 34.44 53.27 34.96 53.34 35.51 53.37 36.07 53.38 36.64 53.36 37.2 53.3 37.76 53.23 38.3 53.13 38.81 53 39.29 52.85 39.73 52.68 40.13 52.49 40.48 52.28 40.78 52.07 41.01 51.84 41.18 51.61 41.28 51.37 41.32 51.13"/>
    <polyline class="cls-1" points="117.56 29.68 117.53 29.45 117.44 29.22 117.28 29 117.06 28.8 116.78 28.61 116.44 28.44 116.05 28.29 115.61 28.16 115.14 28.06 114.63 27.98 114.09 27.93 113.54 27.91 112.97 27.92 112.4 27.95 111.84 28.01 111.29 28.1 110.76 28.22 110.26 28.36 109.79 28.52 109.37 28.7 108.99 28.9 108.66 29.11 108.4 29.33 108.2 29.56 108.06 29.8 107.98 30.04 107.98 30.28 108.04 30.51 108.17 30.73 108.36 30.95 108.62 31.14 108.93 31.32 109.3 31.48 109.72 31.62 110.18 31.74 110.67 31.82 111.2 31.89 111.74 31.92 112.3 31.93 112.87 31.91 113.44 31.86 113.99 31.78 114.53 31.68 115.04 31.55 115.53 31.4 115.97 31.23 116.37 31.04 116.71 30.84 117.01 30.62 117.24 30.39 117.41 30.16 117.52 29.92 117.56 29.68"/>
  </g>
</svg>