<?xml version="1.0" encoding="UTF-8"?>
<svg id="Layer_2" data-name="Layer 2" xmlns="http://www.w3.org/2000/svg" viewBox="0 0 272.39 103.54">
  <defs>
    <style>
      .cls-1 {
        stroke-width: .5px;
      }

      .cls-1, .cls-2 {
        fill: none;
        stroke: #231f20;
        stroke-linecap: round;
        stroke-linejoin: round;
      }
    </style>
  </defs>
  <g id="Layer_1-2" data-name="Layer 1">
    <line class="cls-2" x1="67.08" y1="103.04" x2="271.54" y2="29.65"/>
    <line class="cls-2" x1=".65" y1="76.55" x2="67.08" y2="103.04"/>
    <line class="cls-2" x1="204.96" y1=".5" x2="1.07" y2="66.46"/>
    <line class="cls-2" x1="271.89" y1="29.44" x2="271.78" y2="20.27"/>
    <line class="cls-2" x1="271.43" y1="20.08" x2="204.96" y2=".5"/>
    <polyline class="cls-1" points="62.58 81.22 62.83 81.35 62.96 81.5 62.97 81.67 62.85 81.84 62.61 81.99 62.28 82.12 61.87 82.22 61.41 82.28 60.95 82.29 60.5 82.26 60.11 82.18 59.81 82.07 59.62 81.92 59.55 81.76 59.6 81.59 59.78 81.43 60.07 81.28 60.45 81.17 60.88 81.09 61.35 81.06 61.81 81.07 62.23 81.12 62.58 81.22"/>
    <polyline class="cls-1" points="243.87 18.52 244.22 18.59 244.61 18.63 245.03 18.64 245.43 18.61 245.81 18.55 246.11 18.46 246.32 18.35 246.43 18.22 246.42 18.09 246.3 17.96 246.08 17.85 245.77 17.77 245.4 17.71 244.99 17.69 244.57 17.7 244.18 17.74 243.85 17.82 243.59 17.92 243.43 18.04 243.37 18.17 243.44 18.3 243.61 18.42 243.87 18.52"/>
    <polyline class="cls-1" points="67.85 83.7 68.02 83.79 68.06 83.91 67.96 84.03 67.75 84.14 67.46 84.21 67.13 84.24 66.8 84.22 66.54 84.15 66.38 84.05 66.34 83.94 66.43 83.82 66.64 83.71 66.93 83.64 67.26 83.61 67.59 83.63 67.85 83.7"/>
    <polyline class="cls-1" points="70.49 89.36 70.75 89.5 70.89 89.66 70.9 89.83 70.78 90 70.54 90.16 70.21 90.3 69.78 90.4 69.32 90.46 68.85 90.47 68.4 90.43 68 90.36 67.69 90.24 67.5 90.09 67.42 89.92 67.47 89.75 67.65 89.58 67.94 89.43 68.32 89.31 68.77 89.23 69.24 89.2 69.71 89.21 70.13 89.27 70.49 89.36"/>
    <polyline class="cls-1" points="238.37 16.64 238.63 16.69 238.92 16.7 239.21 16.68 239.45 16.62 239.61 16.54 239.65 16.45 239.58 16.36 239.41 16.29 239.15 16.24 238.86 16.23 238.57 16.25 238.33 16.3 238.17 16.38 238.13 16.48 238.2 16.57 238.37 16.64"/>
    <polyline class="cls-1" points="250.45 20.06 250.71 20.11 251.01 20.12 251.3 20.1 251.54 20.04 251.7 19.96 251.74 19.87 251.67 19.77 251.49 19.7 251.23 19.65 250.93 19.64 250.64 19.66 250.4 19.72 250.25 19.8 250.2 19.89 250.28 19.98 250.45 20.06"/>
    <polyline class="cls-1" points="259.14 22.84 259.49 22.92 259.9 22.96 260.32 22.97 260.73 22.94 261.1 22.88 261.4 22.78 261.61 22.67 261.71 22.54 261.7 22.4 261.58 22.28 261.35 22.16 261.04 22.08 260.66 22.02 260.24 21.99 259.82 22 259.43 22.05 259.09 22.13 258.83 22.23 258.67 22.36 258.62 22.49 258.69 22.62 258.87 22.74 259.14 22.84"/>
    <polyline class="cls-1" points="264.62 20.91 264.97 20.98 265.37 21.03 265.8 21.04 266.21 21.01 266.57 20.94 266.87 20.85 267.09 20.74 267.18 20.61 267.17 20.47 267.05 20.35 266.82 20.24 266.5 20.15 266.12 20.09 265.71 20.07 265.29 20.08 264.9 20.12 264.56 20.2 264.31 20.31 264.15 20.43 264.1 20.56 264.17 20.69 264.35 20.81 264.62 20.91"/>
    <polyline class="cls-1" points="77.52 86.88 77.78 87.02 77.92 87.17 77.94 87.34 77.82 87.51 77.59 87.67 77.25 87.81 76.84 87.91 76.38 87.97 75.91 87.98 75.46 87.94 75.06 87.86 74.75 87.75 74.55 87.6 74.47 87.43 74.53 87.26 74.7 87.1 74.99 86.95 75.37 86.83 75.81 86.75 76.28 86.72 76.74 86.73 77.17 86.78 77.52 86.88"/>
    <polyline class="cls-1" points="56.04 79.22 56.2 79.31 56.24 79.43 56.15 79.55 55.94 79.65 55.64 79.72 55.31 79.75 54.99 79.73 54.73 79.67 54.57 79.57 54.54 79.45 54.63 79.33 54.84 79.23 55.13 79.16 55.46 79.13 55.78 79.15 56.04 79.22"/>
    <line class="cls-1" x1="67.29" y1="93.32" x2="67.29" y2="103.04"/>
    <line class="cls-1" x1="271.66" y1="20.68" x2="67.69" y2="92.92"/>
    <line class="cls-1" x1="66.87" y1="92.93" x2=".49" y2="67.22"/>
    <line class="cls-2" x1=".5" y1="67.41" x2=".65" y2="76.55"/>
  </g>
</svg>