<?xml version="1.0" encoding="UTF-8"?>
<svg id="Layer_2" data-name="Layer 2" xmlns="http://www.w3.org/2000/svg" viewBox="0 0 270.53 133.55">
  <defs>
    <style>
      .cls-1 {
        stroke-width: .5px;
      }

      .cls-1, .cls-2 {
        fill: none;
        stroke: #231f20;
        stroke-linecap: round;
        stroke-linejoin: round;
      }
    </style>
  </defs>
  <g id="Layer_1-2" data-name="Layer 1">
    <line class="cls-2" x1=".5" y1="7.33" x2="259.21" y2="106.4"/>
    <line class="cls-2" x1="270.03" y1="97.96" x2="10.81" y2=".51"/>
    <polyline class="cls-1" points="262.1 103.99 261.88 104.04 261.67 104 261.49 103.89 261.35 103.72 261.27 103.48 261.23 103.21"/>
    <polyline class="cls-1" points="261.23 103.21 261.26 102.92 261.35 102.63 261.49 102.36 261.67 102.14 261.88 101.98 262.1 101.9 262.32 101.89 262.51 101.96 262.67 102.11 262.79 102.32"/>
    <line class="cls-1" x1="259.04" y1="106.08" x2="259.04" y2="101.68"/>
    <line class="cls-1" x1="259.36" y1="101.16" x2="269.88" y2="97.96"/>
    <line class="cls-2" x1="263.48" y1="105.14" x2="259.37" y2="106.4"/>
    <line class="cls-1" x1="269.22" y1="103.38" x2="267.38" y2="103.94"/>
    <polyline class="cls-1" points="267.49 102.28 267.27 102.41 267.05 102.45 266.84 102.42 266.67 102.31 266.53 102.13 266.44 101.9 266.41 101.63"/>
    <polyline class="cls-1" points="266.41 101.63 266.44 101.34 266.53 101.05 266.67 100.78 266.85 100.57 267.06 100.41 267.27 100.32 267.49 100.31 267.69 100.39 267.85 100.53 267.96 100.74"/>
    <line class="cls-2" x1=".59" y1="2.83" x2="10.66" y2=".5"/>
    <line class="cls-2" x1="5.76" y1="30.48" x2="264.39" y2="133.05"/>
    <line class="cls-2" x1="5.76" y1="30.48" x2="5.5" y2="9.25"/>
    <line class="cls-1" x1="264.39" y1="133.05" x2="264.39" y2="105.32"/>
    <polyline class="cls-1" points="267.17 119.13 267.05 119.15 266.85 119.12 266.67 119.02 266.53 118.84 266.44 118.61 266.41 118.33"/>
    <polyline class="cls-1" points="266.41 118.33 266.44 118.04 266.53 117.75 266.67 117.49 266.85 117.27 267.05 117.11 267.27 117.02 267.49 117.01 267.68 117.08 267.84 117.23 267.96 117.43 267.99 117.57"/>
    <polyline class="cls-1" points="266.49 111.63 266.52 111.35 266.61 111.09 266.74 110.84 266.92 110.64 267.11 110.51 267.32 110.44 267.52 110.46 267.69 110.55 267.83 110.71 267.91 110.92 267.94 111.18 267.92 111.45 267.83 111.72 267.69 111.97 267.52 112.17 267.32 112.3 267.12 112.37 266.92 112.35 266.74 112.26 266.61 112.1 266.52 111.88 266.49 111.63"/>
    <line class="cls-2" x1="270.03" y1="131.25" x2="264.39" y2="133.05"/>
    <polyline class="cls-1" points="266.49 124.98 266.52 124.71 266.61 124.44 266.74 124.19 266.92 124 267.12 123.86 267.32 123.79 267.52 123.8 267.69 123.9 267.83 124.05 267.91 124.27 267.94 124.53 267.92 124.8 267.83 125.07 267.69 125.31 267.52 125.51 267.32 125.65 267.11 125.71 266.92 125.7 266.74 125.61 266.61 125.45 266.52 125.24 266.49 124.98"/>
    <line class="cls-1" x1="259.05" y1="101.23" x2=".3" y2="2.82"/>
  </g>
</svg>