<?xml version="1.0" encoding="UTF-8"?>
<svg id="Layer_2" data-name="Layer 2" xmlns="http://www.w3.org/2000/svg" viewBox="0 0 267.02 101.62">
  <defs>
    <style>
      .cls-1 {
        stroke-width: .5px;
      }

      .cls-1, .cls-2 {
        fill: none;
        stroke: #231f20;
        stroke-linecap: round;
        stroke-linejoin: round;
      }
    </style>
  </defs>
  <g id="Layer_1-2" data-name="Layer 1">
    <line class="cls-2" x1="228.84" y1="81.36" x2="4.51" y2=".5"/>
    <line class="cls-1" x1="234.51" y1="83.41" x2="228.84" y2="81.36"/>
    <polyline class="cls-1" points="266.77 99.97 266.67 95.12 234.51 83.41"/>
    <polyline class="cls-1" points="248.81 96.84 261.31 101.37 266.55 100.07"/>
    <line class="cls-1" x1="229.4" y1="89.81" x2="243.86" y2="95.05"/>
    <line class="cls-1" x1="217.46" y1="85.48" x2="224.1" y2="87.88"/>
    <line class="cls-2" x1="186.94" y1="74.42" x2="217.46" y2="85.48"/>
    <line class="cls-2" x1="140.28" y1="57.52" x2="182.5" y2="72.81"/>
    <line class="cls-2" x1="90.82" y1="39.6" x2="135.99" y2="55.97"/>
    <line class="cls-2" x1="48.39" y1="24.23" x2="86.56" y2="38.05"/>
    <line class="cls-2" x1="19.37" y1="13.71" x2="44.68" y2="22.89"/>
    <line class="cls-2" x1="7.99" y1="9.59" x2="16.06" y2="12.52"/>
    <polyline class="cls-2" points=".5 6.42 .5 6.88 4.47 8.32"/>
    <line class="cls-2" x1="184.75" y1="75.13" x2="215.22" y2="86.19"/>
    <line class="cls-2" x1="137.82" y1="58.09" x2="180.6" y2="73.62"/>
    <line class="cls-2" x1="88.7" y1="40.26" x2="133.65" y2="56.58"/>
    <line class="cls-2" x1="46.24" y1="24.85" x2="84.33" y2="38.67"/>
    <line class="cls-2" x1="17.19" y1="14.31" x2="42.33" y2="23.43"/>
    <polyline class="cls-2" points="8.77 10.8 8.77 11.25 13.58 13"/>
    <polyline class="cls-1" points="15.18 10.25 15.01 10.2 14.82 10.17 14.61 10.16 14.42 10.17 14.25 10.22 14.14 10.28 14.09 10.35 14.11 10.43 14.2 10.51 14.34 10.57 14.52 10.61 14.73 10.63 14.93 10.63 15.11 10.6 15.25 10.55 15.33 10.48 15.35 10.4 15.3 10.32 15.18 10.25"/>
    <polyline class="cls-1" points="88.12 37.94 87.91 37.83 87.77 37.71 87.69 37.59 87.67 37.46 87.72 37.33 87.84 37.22 88.02 37.12 88.25 37.04 88.53 36.98 88.84 36.94 89.17 36.93 89.51 36.94 89.83 36.97 90.14 37.04 90.42 37.12 90.65 37.22"/>
    <polyline class="cls-1" points="193.42 70.56 193.57 70.65 193.7 70.79 193.81 70.97 193.88 71.17 193.9 71.38 193.88 71.57 193.81 71.73 193.7 71.83 193.57 71.87 193.42 71.85"/>
    <polyline class="cls-1" points="15.95 7.54 16.1 7.56 16.24 7.52 16.35 7.42 16.42 7.27 16.44 7.07 16.42 6.86 16.35 6.66 16.24 6.48 16.1 6.34 15.95 6.26"/>
    <line class="cls-1" x1="56.08" y1="20.69" x2="55.03" y2="20.31"/>
    <line class="cls-1" x1="97.88" y1="35.81" x2="96.83" y2="35.44"/>
    <polyline class="cls-1" points="255.38 92.52 255.53 92.61 255.66 92.75 255.77 92.92 255.84 93.13 255.86 93.34 255.84 93.53 255.77 93.68 255.66 93.79 255.53 93.83 255.38 93.81"/>
    <polyline class="cls-1" points="146.51 53.52 146.66 53.6 146.8 53.74 146.91 53.92 146.97 54.13 147 54.33 146.97 54.53 146.91 54.68 146.8 54.79 146.66 54.83 146.51 54.8"/>
    <polyline class="cls-1" points="26.92 11.62 27.07 11.64 27.2 11.6 27.31 11.5 27.38 11.34 27.4 11.15 27.38 10.94 27.31 10.74 27.2 10.56 27.07 10.42 26.92 10.33"/>
    <line class="cls-1" x1="235.3" y1="85.37" x2="234.25" y2="84.99"/>
    <path class="cls-1" d="M253.36,96.21c-.24-.15-.67-.21-.96-.13"/>
    <polyline class="cls-1" points="235.51 86.56 235.66 86.58 235.67 86.58"/>
    <polyline class="cls-1" points="193.78 71.77 193.77 71.77 193.62 71.75"/>
    <line class="cls-1" x1="146.71" y1="54.7" x2="146.52" y2="54.63"/>
    <path class="cls-1" d="M130.89,52.69c-.22-.2-.63-.23-.91-.07"/>
    <line class="cls-2" x1="3.89" y1="5.16" x2="3.89" y2=".55"/>
    <line class="cls-1" x1="8.79" y1="6.93" x2="3.89" y2="5.16"/>
    <line class="cls-1" x1="21.34" y1="11.35" x2="12.47" y2="8.25"/>
    <line class="cls-1" x1="50.36" y1="21.85" x2="24.56" y2="12.53"/>
    <line class="cls-1" x1="91.94" y1="36.78" x2="53.36" y2="22.93"/>
    <line class="cls-1" x1="141.45" y1="54.7" x2="95.54" y2="38.08"/>
    <line class="cls-1" x1="188.02" y1="71.49" x2="144.29" y2="55.72"/>
    <line class="cls-1" x1="221.77" y1="83.64" x2="191.83" y2="72.77"/>
    <line class="cls-1" x1="228.42" y1="86.05" x2="221.77" y2="83.64"/>
    <line class="cls-1" x1="248.09" y1="93.15" x2="233.69" y2="87.95"/>
    <line class="cls-1" x1="266.45" y1="99.76" x2="253.07" y2="94.89"/>
    <line class="cls-2" x1="3.89" y1="5.16" x2=".65" y2="6.32"/>
  </g>
</svg>