<?xml version="1.0" encoding="UTF-8"?>
<svg id="Layer_2" data-name="Layer 2" xmlns="http://www.w3.org/2000/svg" viewBox="0 0 204.85 213.24">
  <defs>
    <style>
      .cls-1 {
        stroke-width: 1.5px;
      }

      .cls-1, .cls-2 {
        fill: none;
        stroke: #231f20;
        stroke-linecap: round;
        stroke-linejoin: round;
      }

      .cls-2 {
        stroke-width: .75px;
      }
    </style>
  </defs>
  <g id="Layer_1-2" data-name="Layer 1">
    <polyline class="cls-2" points="199.94 123.84 200.1 123.78 200.25 123.69 200.39 123.58 200.53 123.45 200.66 123.31 200.77 123.15 200.87 122.98 200.95 122.8 201 122.62 201.04 122.44 201.06 122.26 201.05 122.09 201.02 121.93 200.97 121.78 200.9 121.65 200.81 121.54 200.7 121.45 200.58 121.39 200.44 121.35 200.3 121.33 200.15 121.34 199.99 121.38 199.84 121.44 199.69 121.53 199.54 121.64 199.4 121.77 199.27 121.91 199.16 122.07 199.07 122.24 198.99 122.42 198.93 122.6 198.89 122.78 198.88 122.96 198.88 123.13 198.91 123.29 198.97 123.44 199.04 123.57 199.13 123.68 199.23 123.77 199.36 123.83 199.49 123.87 199.63 123.89 199.79 123.87 199.94 123.84"/>
    <line class="cls-2" x1="204.1" y1="116.78" x2="196.03" y2="119.35"/>
    <line class="cls-1" x1="204.1" y1="116.78" x2="201.92" y2="209.67"/>
    <line class="cls-1" x1="201.92" y1="209.67" x2="194.08" y2="212.49"/>
    <line class="cls-2" x1="196.03" y1="119.35" x2="194.08" y2="212.49"/>
    <polyline class="cls-2" points="198.13 205.61 198.28 205.57 198.43 205.55 198.57 205.56 198.7 205.59 198.82 205.65 198.92 205.73 199.01 205.83 199.08 205.95 199.13 206.09 199.16 206.24 199.17 206.4 199.15 206.57 199.11 206.74 199.06 206.92 198.98 207.09 198.89 207.25 198.78 207.41 198.66 207.55 198.52 207.68 198.38 207.79 198.23 207.87 198.08 207.94 197.93 207.98 197.78 208 197.64 207.99 197.51 207.96 197.39 207.9 197.29 207.83 197.2 207.72 197.13 207.6 197.08 207.47 197.05 207.32 197.04 207.16 197.06 206.99 197.09 206.81 197.15 206.64 197.23 206.47 197.32 206.3 197.43 206.14 197.55 206 197.69 205.87 197.83 205.76 197.98 205.68 198.13 205.61"/>
    <line class="cls-1" x1="8.12" y1=".75" x2=".75" y2="2.57"/>
    <line class="cls-1" x1="204.1" y1="116.78" x2="8.12" y2=".75"/>
    <line class="cls-2" x1="196.03" y1="119.35" x2=".75" y2="2.57"/>
    <line class="cls-1" x1=".75" y1="2.57" x2="3.92" y2="84.17"/>
    <line class="cls-1" x1="194.08" y1="212.49" x2="3.92" y2="84.17"/>
    <polyline class="cls-2" points="197.75 205.89 197.64 205.94 197.55 206"/>
  </g>
</svg>