<?xml version="1.0" encoding="UTF-8"?>
<svg id="Layer_2" data-name="Layer 2" xmlns="http://www.w3.org/2000/svg" viewBox="0 0 71.45 108.31">
  <defs>
    <style>
      .cls-1 {
        stroke-width: 1.5px;
      }

      .cls-1, .cls-2 {
        fill: none;
        stroke: #231f20;
        stroke-linecap: round;
        stroke-linejoin: round;
      }

      .cls-2 {
        stroke-width: .75px;
      }
    </style>
  </defs>
  <g id="Layer_1-2" data-name="Layer 1">
    <polyline class="cls-2" points="64.02 9.14 64.21 9.06 64.41 8.96 64.6 8.83 64.77 8.67 64.94 8.49 65.09 8.29 65.22 8.07 65.33 7.84 65.41 7.61 65.47 7.37 65.51 7.13 65.52 6.9 65.5 6.68 65.46 6.48 65.39 6.29 65.29 6.12 65.18 5.98 65.04 5.86 64.89 5.77 64.72 5.72 64.54 5.7 64.35 5.7 64.15 5.75 63.96 5.82 63.76 5.92 63.58 6.06 63.4 6.21 63.23 6.39 63.08 6.59 62.95 6.81 62.84 7.04 62.76 7.27 62.7 7.51 62.66 7.75 62.65 7.98 62.67 8.2 62.71 8.41 62.78 8.6 62.88 8.77 62.99 8.91 63.13 9.02 63.29 9.11 63.46 9.16 63.64 9.19 63.83 9.18 64.02 9.14"/>
    <polyline class="cls-2" points="11.78 24.62 11.58 24.67 11.38 24.68 11.19 24.66 11.01 24.6 10.85 24.52 10.7 24.4 10.58 24.26 10.48 24.09 10.4 23.9 10.35 23.69 10.33 23.46 10.34 23.23 10.37 22.98 10.43 22.74 10.52 22.5 10.63 22.27 10.76 22.05 10.92 21.84 11.09 21.66 11.27 21.5 11.46 21.36 11.66 21.25 11.87 21.18 12.07 21.13 12.27 21.12 12.46 21.15 12.64 21.2 12.8 21.29 12.95 21.4 13.07 21.55 13.17 21.72 13.25 21.91 13.3 22.12 13.32 22.34 13.31 22.58 13.28 22.82 13.22 23.06 13.13 23.3 13.02 23.53 12.89 23.75 12.73 23.96 12.56 24.14 12.38 24.31 12.19 24.44 11.99 24.55 11.78 24.62"/>
    <polyline class="cls-2" points="61.11 83.64 61.3 83.59 61.49 83.58 61.67 83.59 61.83 83.64 61.98 83.72 62.12 83.82 62.23 83.95 62.32 84.11 62.39 84.29 62.43 84.49 62.45 84.7 62.44 84.92 62.41 85.15 62.35 85.38 62.26 85.6 62.16 85.83 62.03 86.04 61.88 86.23 61.72 86.41 61.55 86.57 61.36 86.7 61.18 86.81 60.98 86.89 60.79 86.93 60.61 86.95 60.43 86.94 60.26 86.89 60.11 86.81 59.98 86.71 59.86 86.58 59.77 86.42 59.7 86.24 59.66 86.04 59.64 85.83 59.65 85.61 59.68 85.38 59.75 85.15 59.83 84.93 59.94 84.7 60.06 84.49 60.21 84.29 60.37 84.12 60.55 83.96 60.73 83.83 60.92 83.72 61.11 83.64"/>
    <line class="cls-2" x1="5.12" y1="21.34" x2="3.15" y2="107.56"/>
    <line class="cls-2" x1="5.12" y1="21.34" x2="70.7" y2="2.03"/>
    <line class="cls-1" x1="70.7" y1="2.03" x2="67.26" y2="86.54"/>
    <line class="cls-1" x1="3.15" y1="107.56" x2="67.26" y2="86.54"/>
    <polyline class="cls-2" points="9.91 100.33 9.71 100.41 9.52 100.52 9.33 100.66 9.15 100.82 8.98 101 8.83 101.21 8.7 101.42 8.59 101.65 8.51 101.88 8.45 102.12 8.41 102.35 8.41 102.57 8.43 102.79 8.48 102.99 8.55 103.17 8.65 103.32 8.77 103.46 8.92 103.56 9.08 103.64 9.25 103.69 9.44 103.7 9.63 103.68 9.83 103.63 10.03 103.55 10.23 103.44 10.42 103.3 10.6 103.14 10.76 102.96 10.91 102.76 11.04 102.54 11.15 102.32 11.23 102.09 11.29 101.85 11.33 101.62 11.33 101.39 11.31 101.18 11.26 100.98 11.19 100.8 11.09 100.64 10.97 100.51 10.82 100.4 10.66 100.33 10.49 100.28 10.3 100.27 10.11 100.28 9.91 100.33"/>
    <polyline class="cls-2" points="3.83 23.31 3.95 23.39 4.06 23.5 4.16 23.64 4.25 23.8 4.32 23.98 4.38 24.16 4.41 24.35 4.42 24.53 4.41 24.7 4.38 24.85 4.33 24.99 4.26 25.09 4.17 25.17 4.07 25.21 3.96 25.21 3.85 25.18 3.73 25.12 3.61 25.02 3.51 24.9 3.41 24.75 3.33 24.58 3.27 24.4 3.22 24.21 3.2 24.03 3.2 23.85 3.22 23.69 3.26 23.54 3.32 23.43 3.4 23.34 3.49 23.28 3.6 23.25 3.71 23.27 3.83 23.31"/>
    <line class="cls-2" x1="5.12" y1="21.34" x2="2.66" y2="19.99"/>
    <line class="cls-1" x1="3.15" y1="107.56" x2=".75" y2="106.1"/>
    <polyline class="cls-1" points="2.66 19.99 2.42 30.77 2.37 32.95 .98 95.31 .93 97.88 .75 106.1"/>
    <polyline class="cls-2" points="2.01 104.3 2.12 104.36 2.23 104.38 2.33 104.36 2.43 104.31 2.5 104.23 2.56 104.12 2.61 103.99 2.62 103.83 2.62 103.66 2.6 103.48 2.56 103.3 2.49 103.12 2.41 102.96 2.32 102.81 2.21 102.68 2.1 102.58 1.99 102.51 1.87 102.48 1.77 102.47 1.67 102.5 1.59 102.57 1.52 102.67 1.46 102.79 1.44 102.94 1.43 103.1 1.44 103.28 1.47 103.46 1.53 103.64 1.6 103.81 1.69 103.97 1.78 104.1 1.89 104.22 2.01 104.3"/>
    <line class="cls-1" x1="70.7" y1="2.03" x2="68.19" y2=".75"/>
    <line class="cls-1" x1="2.66" y1="19.99" x2="68.19" y2=".75"/>
    <g>
      <path class="cls-2" d="M10.34,23.24c.55-.43.9-1.06.96-1.76"/>
      <path class="cls-2" d="M63.64,6.01s0,.06,0,.09c0,.09,0,.19,0,.29,0,.1.02.2.03.29.02.1.04.21.07.3.02.05.04.1.06.14.02.04.05.08.08.11.05.06.12.11.2.13.06.02.13.03.21.02.07,0,.15-.03.22-.07.08-.04.16-.1.22-.17.03-.04.06-.08.09-.12.03-.04.04-.09.06-.14.02-.09.04-.19.02-.29,0-.09-.03-.18-.07-.27-.04-.09-.09-.18-.15-.26-.07-.09-.14-.18-.22-.25-.04-.03-.07-.06-.11-.09"/>
      <path class="cls-2" d="M62.68,7.68c.43-.4.7-.93.78-1.5"/>
      <path class="cls-2" d="M60.98,85.04c-.06-.05-.12-.09-.16-.15-.04-.06-.08-.14-.11-.23-.03-.09-.05-.19-.06-.3,0-.06-.01-.11-.02-.17,0-.06,0-.12,0-.17,0-.03,0-.07,0-.1"/>
      <path class="cls-2" d="M61.4,83.59s.07.06.1.1c.08.08.14.17.2.27.03.05.05.1.07.15.02.05.03.11.05.16.02.1.02.19,0,.28-.02.08-.05.16-.09.23-.04.07-.1.13-.16.18-.07.05-.15.09-.23.12-.04.01-.09.02-.13.02-.04,0-.09,0-.13-.02-.04,0-.07-.03-.11-.04"/>
    </g>
  </g>
</svg>