<?xml version="1.0" encoding="UTF-8"?>
<svg id="Layer_2" data-name="Layer 2" xmlns="http://www.w3.org/2000/svg" viewBox="0 0 98.09 128.77">
  <defs>
    <style>
      .cls-1 {
        stroke-width: 1.5px;
      }

      .cls-1, .cls-2 {
        fill: none;
        stroke: #231f20;
        stroke-linecap: round;
        stroke-linejoin: round;
      }

      .cls-2 {
        stroke-width: .75px;
      }
    </style>
  </defs>
  <g id="Layer_1-2" data-name="Layer 1">
    <polyline class="cls-2" points="13.8 35.04 13.97 35 14.14 34.98 14.3 34.99 14.45 35.03 14.59 35.09 14.72 35.17 14.82 35.28 14.92 35.41 14.99 35.56 15.04 35.73 15.07 35.91 15.07 36.1 15.05 36.3 15.01 36.5 14.95 36.71 14.87 36.91 14.77 37.1 14.65 37.28 14.52 37.45 14.38 37.61 14.22 37.75 14.05 37.86 13.88 37.96 13.71 38.03 13.54 38.07 13.37 38.09 13.21 38.08 13.06 38.04 12.92 37.98 12.79 37.9 12.68 37.79 12.59 37.66 12.52 37.51 12.47 37.34 12.44 37.16 12.44 36.97 12.45 36.77 12.49 36.57 12.55 36.36 12.63 36.16 12.73 35.97 12.85 35.79 12.99 35.61 13.13 35.46 13.29 35.32 13.45 35.2 13.63 35.11 13.8 35.04"/>
    <polyline class="cls-2" points="93.07 8.99 92.91 9.06 92.75 9.15 92.59 9.26 92.44 9.39 92.3 9.54 92.18 9.7 92.06 9.88 91.97 10.07 91.89 10.26 91.83 10.46 91.78 10.66 91.76 10.85 91.76 11.04 91.79 11.21 91.83 11.37 91.89 11.52 91.97 11.65 92.07 11.76 92.18 11.84 92.31 11.91 92.45 11.94 92.6 11.95 92.75 11.94 92.91 11.9 93.07 11.83 93.23 11.74 93.39 11.63 93.54 11.5 93.68 11.35 93.8 11.19 93.92 11.01 94.01 10.82 94.09 10.63 94.16 10.43 94.2 10.24 94.22 10.04 94.22 9.86 94.2 9.68 94.15 9.52 94.09 9.37 94.01 9.24 93.91 9.13 93.8 9.05 93.67 8.99 93.53 8.95 93.38 8.94 93.23 8.95 93.07 8.99"/>
    <polyline class="cls-2" points="11.27 123.15 11.44 123.08 11.6 122.98 11.76 122.86 11.92 122.73 12.06 122.57 12.19 122.4 12.3 122.22 12.4 122.04 12.48 121.85 12.54 121.65 12.57 121.46 12.59 121.27 12.58 121.09 12.56 120.92 12.51 120.76 12.44 120.62 12.35 120.51 12.24 120.41 12.12 120.33 11.99 120.28 11.84 120.25 11.68 120.25 11.52 120.28 11.35 120.32 11.18 120.4 11.02 120.49 10.85 120.61 10.7 120.75 10.56 120.9 10.43 121.07 10.31 121.25 10.22 121.44 10.14 121.63 10.08 121.83 10.04 122.02 10.03 122.21 10.03 122.39 10.06 122.56 10.11 122.71 10.18 122.85 10.27 122.97 10.37 123.07 10.5 123.14 10.63 123.2 10.78 123.22 10.94 123.22 11.1 123.2 11.27 123.15"/>
    <line class="cls-1" x1="6.9" y1="128.02" x2="92.31" y2="96.56"/>
    <line class="cls-2" x1="6.9" y1="128.02" x2="9.49" y2="32.99"/>
    <line class="cls-2" x1="9.49" y1="32.99" x2="97.34" y2="4.26"/>
    <line class="cls-1" x1="92.31" y1="96.56" x2="97.34" y2="4.26"/>
    <polyline class="cls-2" points="88.5 94.82 88.35 94.87 88.2 94.88 88.05 94.88 87.91 94.85 87.79 94.8 87.68 94.73 87.58 94.63 87.5 94.51 87.44 94.37 87.4 94.22 87.38 94.06 87.38 93.88 87.4 93.7 87.44 93.51 87.5 93.32 87.58 93.13 87.67 92.95 87.78 92.78 87.91 92.62 88.04 92.47 88.19 92.34 88.34 92.22 88.49 92.13 88.65 92.06 88.81 92.02 88.96 92 89.1 92 89.24 92.03 89.36 92.08 89.48 92.16 89.57 92.25 89.65 92.37 89.71 92.51 89.75 92.66 89.77 92.83 89.77 93 89.75 93.19 89.71 93.37 89.65 93.56 89.58 93.75 89.48 93.93 89.37 94.11 89.25 94.27 89.11 94.41 88.97 94.55 88.82 94.66 88.66 94.75 88.5 94.82"/>
    <line class="cls-2" x1="9.49" y1="32.99" x2="3.15" y2="29.2"/>
    <line class="cls-1" x1="6.9" y1="128.02" x2=".75" y2="123.87"/>
    <line class="cls-1" x1=".75" y1="123.87" x2="3.15" y2="29.2"/>
    <line class="cls-1" x1="97.34" y1="4.26" x2="90.81" y2=".75"/>
    <line class="cls-1" x1="3.15" y1="29.2" x2="90.8" y2=".75"/>
  </g>
</svg>