<?xml version="1.0" encoding="UTF-8"?>
<svg id="Layer_2" data-name="Layer 2" xmlns="http://www.w3.org/2000/svg" viewBox="0 0 138.43 205.83">
  <defs>
    <style>
      .cls-1 {
        stroke-width: 1.5px;
      }

      .cls-1, .cls-2 {
        fill: none;
        stroke: #231f20;
        stroke-linecap: round;
        stroke-linejoin: round;
      }

      .cls-2 {
        stroke-width: .75px;
      }
    </style>
  </defs>
  <g id="Layer_1-2" data-name="Layer 1">
    <polyline class="cls-2" points="37.22 77.41 37.13 77.68 37.06 77.94 37.01 78.2 36.97 78.45 36.96 78.7 36.97 78.92 37.01 79.13 37.06 79.32 37.14 79.48 37.24 79.61 37.35 79.72 37.47 79.79 37.62 79.82 37.77 79.84 37.93 79.81 38.1 79.75 38.27 79.66 38.45 79.54 38.62 79.39 38.8 79.21 38.96 79.02 39.11 78.79 39.24 78.56 39.37 78.31 39.48 78.06 39.58 77.79 39.65 77.52 39.7 77.26 39.74 77.02 39.75 76.77 39.73 76.55 39.69 76.33 39.64 76.15 39.57 75.99 39.47 75.86 39.36 75.75 39.23 75.68 39.09 75.64 38.93 75.63 38.77 75.66 38.61 75.72 38.42 75.81 38.26 75.93 38.08 76.08 37.91 76.26 37.75 76.46 37.6 76.68 37.46 76.91 37.33 77.16 37.22 77.41"/>
    <polyline class="cls-2" points="46.22 50.72 46.13 50.98 46.06 51.24 46.01 51.5 45.98 51.75 45.97 51.98 45.99 52.21 46.02 52.41 46.07 52.6 46.15 52.75 46.25 52.88 46.36 52.97 46.49 53.04 46.63 53.08 46.78 53.08 46.95 53.06 47.12 52.99 47.3 52.89 47.47 52.78 47.64 52.62 47.81 52.44 47.97 52.24 48.13 52.02 48.27 51.79 48.4 51.54 48.51 51.28 48.6 51.02 48.67 50.76 48.72 50.5 48.75 50.25 48.76 50.01 48.75 49.78 48.71 49.59 48.66 49.41 48.58 49.25 48.48 49.12 48.37 49.02 48.24 48.96 48.1 48.92 47.94 48.92 47.78 48.95 47.61 49.02 47.43 49.11 47.26 49.23 47.09 49.39 46.92 49.56 46.76 49.76 46.6 49.98 46.46 50.21 46.34 50.46 46.22 50.72"/>
    <polyline class="cls-2" points="92.02 92.83 91.93 93.11 91.85 93.4 91.79 93.68 91.77 93.94 91.77 94.2 91.78 94.45 91.82 94.67 91.89 94.87 91.98 95.05 92.1 95.19 92.22 95.31 92.37 95.38 92.54 95.43 92.71 95.44 92.89 95.42 93.08 95.36 93.27 95.26 93.47 95.14 93.66 94.97 93.85 94.79 94.02 94.58 94.19 94.35 94.34 94.1 94.48 93.83 94.6 93.56 94.69 93.27 94.77 92.99 94.82 92.71 94.85 92.44 94.85 92.18 94.83 91.94 94.78 91.72 94.72 91.52 94.63 91.34 94.51 91.19 94.38 91.08 94.24 91.01 94.08 90.96 93.91 90.95 93.72 90.98 93.53 91.03 93.34 91.13 93.14 91.25 92.95 91.41 92.76 91.6 92.59 91.81 92.42 92.05 92.27 92.3 92.14 92.55 92.02 92.83"/>
    <polyline class="cls-2" points="104.34 65.01 104.24 65.28 104.17 65.57 104.12 65.85 104.09 66.11 104.08 66.37 104.11 66.61 104.16 66.83 104.22 67.02 104.32 67.19 104.43 67.33 104.56 67.44 104.71 67.51 104.88 67.56 105.05 67.56 105.24 67.53 105.43 67.47 105.63 67.37 105.82 67.24 106.01 67.08 106.2 66.89 106.38 66.68 106.54 66.45 106.7 66.18 106.83 65.93 106.95 65.65 107.05 65.37 107.13 65.08 107.17 64.81 107.21 64.54 107.21 64.29 107.18 64.04 107.13 63.82 107.07 63.63 106.98 63.46 106.86 63.32 106.72 63.21 106.58 63.14 106.41 63.09 106.24 63.09 106.05 63.12 105.86 63.19 105.66 63.29 105.47 63.42 105.28 63.58 105.09 63.76 104.91 63.98 104.75 64.22 104.59 64.47 104.46 64.74 104.34 65.01"/>
    <polyline class="cls-2" points="70.79 12.89 70.55 13.63 70.33 14.36 70.14 15.1 69.96 15.82 69.8 16.54 69.67 17.26 69.55 17.97 69.46 18.67 69.39 19.36 69.34 20.04 69.32 20.71 69.31 21.36 69.33 22 69.37 22.62 69.43 23.22 69.51 23.81 69.62 24.38 69.75 24.93 69.89 25.45 70.06 25.94 70.26 26.42 70.47 26.88 70.7 27.3 70.95 27.71 71.21 28.08 71.5 28.42 71.81 28.74 72.14 29.02 72.48 29.28 72.84 29.5 73.21 29.7"/>
    <line class="cls-2" x1="74.08" y1="3.07" x2="70.79" y2="12.89"/>
    <line class="cls-2" x1="74.22" y1="30.04" x2="76.51" y2="30.52"/>
    <polyline class="cls-2" points="73.21 29.7 73.4 29.79 73.6 29.86 73.8 29.93 74.01 29.99 74.22 30.04"/>
    <polyline class="cls-1" points="62.11 .77 62.12 .75 62.16 .75 62.21 .75"/>
    <line class="cls-1" x1="73.21" y1="2.75" x2="62.21" y2=".75"/>
    <polyline class="cls-1" points="73.21 2.75 73.3 2.78 73.41 2.81 73.54 2.85 73.68 2.9 73.83 2.96 73.96 3.02 74.08 3.07"/>
    <line class="cls-1" x1="79.25" y1="5.58" x2="74.08" y2="3.07"/>
    <polyline class="cls-1" points="79.25 5.58 79.34 5.63 79.42 5.67 79.48 5.71 79.51 5.73 79.52 5.76"/>
    <line class="cls-1" x1="131.17" y1="13.28" x2="118.64" y2="11.01"/>
    <line class="cls-1" x1="137.42" y1="16.26" x2="132.11" y2="13.62"/>
    <polyline class="cls-1" points="137.42 16.26 137.52 16.31 137.6 16.36 137.65 16.4 137.68 16.42 137.68 16.45"/>
    <line class="cls-1" x1="114" y1="21.18" x2="118.5" y2="11.01"/>
    <polyline class="cls-1" points="97.81 35.07 98.14 35.13 98.48 35.17 98.83 35.2 99.19 35.2 99.56 35.18 99.93 35.14 100.31 35.07 100.7 34.99 101.09 34.89 101.49 34.77 101.86 34.64 102.25 34.49 102.64 34.31 103.02 34.13 103.42 33.92 103.81 33.7 104.21 33.46 104.61 33.2 105.01 32.93 105.4 32.63 105.82 32.31 106.25 31.96 106.67 31.6 107.08 31.21 107.5 30.81 107.91 30.4 108.33 29.97 108.73 29.52 109.13 29.06 109.52 28.58 109.91 28.08 110.3 27.58 110.67 27.06 111.04 26.53 111.4 25.98 111.75 25.43 112.1 24.87 112.43 24.3 112.71 23.79 112.98 23.28 113.25 22.77 113.51 22.24 113.76 21.71 114 21.18"/>
    <line class="cls-1" x1="76.51" y1="30.52" x2="97.81" y2="35.07"/>
    <line class="cls-1" x1="76.22" y1="15.58" x2="79.52" y2="5.76"/>
    <polyline class="cls-1" points="76.22 15.58 76.05 16.12 75.88 16.66 75.73 17.2 75.59 17.74 75.45 18.28 75.33 18.82 75.22 19.35 75.12 19.88 75.03 20.41 74.96 20.93 74.89 21.43 74.85 21.94 74.8 22.43 74.78 22.91 74.75 23.39 74.75 23.86 74.76 24.33 74.77 24.79 74.8 25.23 74.85 25.67 74.89 26.09 74.95 26.5 75.03 26.9 75.11 27.3 75.2 27.68 75.31 28.05 75.42 28.4 75.54 28.74 75.68 29.07 75.82 29.38 75.99 29.72 76.18 30.03 76.36 30.33 76.51 30.52"/>
    <line class="cls-2" x1="47.33" y1="202.64" x2="131.17" y2="13.28"/>
    <line class="cls-1" x1="53.85" y1="204.99" x2="48.26" y2="203"/>
    <line class="cls-1" x1=".85" y1="182.66" x2="47.33" y2="202.64"/>
    <line class="cls-1" x1=".75" y1="182.62" x2="62.11" y2=".77"/>
    <line class="cls-1" x1="54.15" y1="205.08" x2="137.68" y2="16.44"/>
  </g>
</svg>