<?xml version="1.0" encoding="UTF-8"?>
<svg id="Layer_2" data-name="Layer 2" xmlns="http://www.w3.org/2000/svg" viewBox="0 0 202.63 61.28">
  <defs>
    <style>
      .cls-1 {
        stroke-width: 1.5px;
      }

      .cls-1, .cls-2 {
        fill: none;
        stroke: #231f20;
        stroke-linecap: round;
        stroke-linejoin: round;
      }

      .cls-2 {
        stroke-width: .75px;
      }
    </style>
  </defs>
  <g id="Layer_1-2" data-name="Layer 1">
    <g>
      <polyline class="cls-2" points="39.58 42.61 39.79 42.55 39.97 42.47 40.12 42.4 40.24 42.33 40.31 42.25 40.35 42.17 40.36 42.1 40.32 42.01 40.25 41.94 40.14 41.87 39.99 41.79 39.81 41.73 39.62 41.67 39.39 41.62 39.13 41.59 38.85 41.55 38.57 41.53 38.27 41.51 37.98 41.51 37.67 41.53 37.38 41.54 37.09 41.56 36.81 41.6 36.56 41.65 36.33 41.7 36.12 41.76 35.94 41.83 35.79 41.9 35.67 41.97 35.6 42.05 35.56 42.13 35.55 42.21 35.58 42.29 35.66 42.36 35.77 42.44 35.91 42.51 36.08 42.57 36.29 42.63 36.52 42.68 36.77 42.72 37.04 42.75 37.33 42.78 37.63 42.79 37.93 42.79 38.23 42.78 38.54 42.76 38.82 42.74 39.1 42.7 39.35 42.65 39.58 42.61"/>
      <g>
        <line class="cls-1" x1="104.33" y1="42.17" x2="104.31" y2="36.39"/>
        <polyline class="cls-2" points="168.08 9.81 168.26 9.75 168.42 9.7 168.54 9.63 168.64 9.57 168.69 9.5 168.71 9.42 168.7 9.35 168.65 9.29 168.57 9.22 168.44 9.16 168.3 9.08 168.12 9.04 167.91 8.99 167.68 8.94 167.44 8.9 167.17 8.88 166.9 8.85 166.61 8.84 166.33 8.84 166.05 8.85 165.77 8.87 165.5 8.89 165.25 8.93 165.02 8.96 164.81 9.01 164.63 9.06 164.47 9.12 164.35 9.18 164.25 9.25 164.19 9.32 164.17 9.39 164.19 9.46 164.24 9.53 164.33 9.61 164.43 9.67 164.59 9.73 164.76 9.79 164.97 9.84 165.2 9.87 165.44 9.91 165.71 9.95 165.99 9.96 166.27 9.97 166.55 9.97 166.84 9.97 167.12 9.96 167.39 9.94 167.63 9.9 167.86 9.86 168.08 9.81"/>
        <line class="cls-2" x1="40.76" y1="52.89" x2="40.86" y2="59.96"/>
        <line class="cls-2" x1="143.66" y1="26.16" x2="143.63" y2="32.93"/>
        <line class="cls-2" x1="143.61" y1="25.23" x2="201.21" y2="10.3"/>
        <polyline class="cls-2" points=".98 41.03 40.25 52.05 103.33 35.68"/>
        <polyline class="cls-2" points="103.33 35.68 103.1 35.6 102.9 35.5 102.73 35.4 102.58 35.29 102.48 35.18 102.41 35.09 102.37 34.98 102.37 34.87 102.41 34.76 102.48 34.65 102.58 34.54 102.71 34.43 102.88 34.33 103.09 34.24 103.32 34.15 103.57 34.07 103.87 33.98 137.22 25.35"/>
        <polyline class="cls-2" points="137.22 25.35 137.52 25.28 137.84 25.22 138.19 25.16 138.54 25.11 138.92 25.06 139.31 25.04 139.71 25 140.12 24.99 140.52 24.99 140.94 24.99 141.35 24.99 141.75 25.01 142.15 25.04 142.54 25.08 142.92 25.12 143.27 25.17 143.61 25.23"/>
        <polyline class="cls-2" points="201.37 10.29 201.29 10.29 201.21 10.3"/>
        <polyline class="cls-2" points="201.81 17.58 201.8 17.61 201.76 17.64 201.7 17.68 201.61 17.7"/>
        <polyline class="cls-2" points="201.3 18.23 201.38 18.2 201.46 18.14 201.53 18.05 201.58 17.94 201.61 17.82 201.61 17.7"/>
        <polyline class="cls-1" points="104.3 36.39 104.29 36.26 104.24 36.16 104.2 36.07 104.12 35.99 104.05 35.92 103.96 35.86 103.88 35.82 103.78 35.77 103.67 35.74 103.58 35.71 103.45 35.69 103.33 35.68"/>
        <line class="cls-1" x1="161.87" y1=".75" x2=".98" y2="41.03"/>
        <line class="cls-1" x1="162.05" y1=".76" x2="201.37" y2="10.29"/>
        <line class="cls-1" x1="201.88" y1="10.97" x2="201.81" y2="17.58"/>
        <polyline class="cls-1" points="201.81 17.58 201.81 17.59 201.81 17.6 201.81 17.61 201.8 17.61 201.8 17.63 201.8 17.64 201.8 17.65 201.8 17.66 201.8 17.68 201.8 17.69 201.8 17.7 201.8 17.71 201.78 17.71 201.78 17.72 201.78 17.74 201.78 17.75 201.78 17.76 201.77 17.77 201.77 17.78 201.77 17.8 201.76 17.8 201.76 17.81 201.76 17.82 201.75 17.83 201.75 17.85 201.74 17.86 201.74 17.87 201.74 17.88 201.72 17.89 201.72 17.91 201.71 17.92 201.7 17.93 201.7 17.94 201.69 17.95 201.67 17.97 201.67 17.98 201.66 17.99 201.65 18 201.64 18.02 201.64 18.03 201.63 18.03 201.63 18.04 201.61 18.04 201.61 18.05 201.6 18.05 201.6 18.06 201.59 18.06 201.59 18.08 201.58 18.08 201.58 18.09 201.57 18.09 201.57 18.1 201.55 18.1 201.54 18.11 201.53 18.13 201.52 18.13 201.5 18.14 201.49 18.15 201.48 18.16 201.47 18.16 201.46 18.17 201.44 18.17 201.43 18.19 201.42 18.19 201.41 18.2 201.4 18.2 201.38 18.21 201.37 18.21 201.36 18.21 201.35 18.22 201.33 18.22 201.32 18.22 201.32 18.23 201.31 18.23 201.3 18.23"/>
        <polyline class="cls-1" points="201.37 10.29 201.37 10.3 201.38 10.3 201.4 10.3 201.41 10.3 201.42 10.31 201.43 10.31 201.44 10.31 201.46 10.33 201.47 10.33 201.48 10.33 201.49 10.34 201.51 10.34 201.52 10.35 201.53 10.35 201.54 10.36 201.55 10.37 201.57 10.37 201.58 10.39 201.59 10.4 201.6 10.4 201.61 10.41 201.63 10.42 201.64 10.42 201.64 10.43 201.65 10.43 201.65 10.45 201.66 10.45 201.66 10.46 201.68 10.46 201.69 10.47 201.7 10.48 201.71 10.5 201.71 10.51 201.72 10.51 201.72 10.52 201.74 10.52 201.74 10.53 201.75 10.53 201.75 10.54 201.75 10.56 201.76 10.56 201.76 10.57 201.77 10.58 201.78 10.59 201.78 10.6 201.8 10.62 201.81 10.63 201.81 10.64 201.82 10.65 201.82 10.66 201.83 10.68 201.83 10.69 201.83 10.7 201.85 10.71 201.85 10.73 201.85 10.74 201.86 10.75 201.86 10.76 201.86 10.77 201.87 10.79 201.87 10.8 201.87 10.81 201.87 10.82 201.87 10.84 201.88 10.85 201.88 10.86 201.88 10.87 201.88 10.88 201.88 10.9 201.88 10.91 201.88 10.92 201.88 10.93 201.88 10.94 201.88 10.96 201.88 10.97"/>
        <line class="cls-1" x1="143.61" y1="33.41" x2="201.3" y2="18.23"/>
        <polyline class="cls-1" points="143.61 33.41 143.39 33.37 143.17 33.32 142.93 33.29 142.69 33.26 142.43 33.23 142.18 33.2 141.91 33.18 141.63 33.17 141.35 33.15 141.07 33.14 140.79 33.14 140.5 33.14 140.21 33.14 139.92 33.15 139.64 33.17 139.36 33.19 139.08 33.22 138.81 33.24 138.56 33.26 138.3 33.3 138.06 33.35 137.81 33.39 137.6 33.43 137.38 33.49 104.33 42.17"/>
        <line class="cls-1" x1="40.55" y1="60.53" x2="103.7" y2="43.92"/>
        <line class="cls-1" x1="4.15" y1="50.27" x2="40.17" y2="60.53"/>
        <polyline class="cls-1" points="4.15 50.27 3.93 50.2 3.72 50.12 3.5 50.01 3.29 49.88 3.09 49.75 2.89 49.59 2.69 49.41 2.51 49.23 2.33 49.02 2.16 48.82 1.98 48.57 1.82 48.32 1.67 48.06 1.53 47.79 1.39 47.5 1.28 47.22 1.17 46.93 1.09 46.63 1.01 46.32 .94 46.02 .9 45.74 .86 45.45 .84 45.17 .82 44.88"/>
        <line class="cls-1" x1=".75" y1="41.4" x2=".82" y2="44.88"/>
      </g>
    </g>
  </g>
</svg>